<?xml version="1.0" encoding="utf-8"?>
<!-- Generator: Adobe Illustrator 16.0.0, SVG Export Plug-In . SVG Version: 6.00 Build 0)  -->
<!DOCTYPE svg PUBLIC "-//W3C//DTD SVG 1.1//EN" "http://www.w3.org/Graphics/SVG/1.1/DTD/svg11.dtd">
<svg version="1.1" id="Layer_1" xmlns="http://www.w3.org/2000/svg" xmlns:xlink="http://www.w3.org/1999/xlink" x="0px" y="0px"
	 width="1889.5px" height="712.37px" viewBox="0 0 1889.5 712.37" enable-background="new 0 0 1889.5 712.37" xml:space="preserve">
<g>
	<g>
		<path fill="#FFFFFF" d="M61.5,239.865c13.25,19.5,37.25,28.75,68.5,30c26.25,1,83.25,0.5,111-1.25c-1.75,3-3.75,8.25-4.5,12
			c-26,1-79.5,1.5-106.25,0.75c-34-1.25-58-11-74-30.75c-11.5,11.25-24.25,22.5-37,33.5l-6.75-11.5c11-8.5,25-20.25,37.25-31.5
			v-52.75H14.5v-11.25h47V239.865z M60.5,152.115c-9-10-28-22.25-44.25-30l7.75-8c16.25,7.25,35.5,19.5,44.75,29L60.5,152.115z
			 M67.5,102.115c-8.5-9.75-26.25-22.75-42-30.75l8-7.5c15.5,7.75,33.75,20,42.25,30L67.5,102.115z M238.5,110.615H82.25v-10H238.5
			V110.615z M205,254.365v-8.5h-90.5v8.5H103v-65.25h114v65.25H205z M214.75,139.865H106v-9.75h108.75V139.865z M106,159.615h108.75
			v9.75H106V159.615z M212.75,81.115H108v-10h104.75V81.115z M205,235.615v-36.75h-90.5v36.75H205z"/>
		<path fill="#FFFFFF" d="M296.5,158.865h9.5v29.75c0,25.75-1.25,54.25-10,77.25c-1.75-2.25-5.75-5-8.5-6c7.75-21.25,9-48.25,9-71.5
			V158.865z M337.5,137.865v148h-11v-148h-35.75v-11H371v11H337.5z M364.75,87.615H297.5v-11.25h67.25V87.615z M358.25,158.865h9.5
			v91.5h-9.5V158.865z M432.5,234.615c-19,12.5-39.25,25.5-55.25,35.5l-6.75-9.25c14.25-8,36.5-22,58-35.5L432.5,234.615z
			 M450.75,171.365c10,42,31.75,76,66.5,89.75c-2.75,2.25-6.25,6.5-8,9.5c-27-12.5-46.25-36.75-58.5-68v69.5c0,7-1.75,10.25-6.75,12
			c-5.25,2-14,2-29.75,2c-0.5-2.75-2.5-7-4-10.25c12,0.5,22.25,0.25,25,0.25c3.25-0.25,4.25-1,4.25-4v-107.75h-62v-10.75h91.75
			c1.5-7.5,3-16,4.5-24.5H408.5c-1,4.5-2.25,8.5-3.25,12.25l-11.25-1.5c6-20.5,13.75-55.5,18.5-80.5l11.5,1.5
			c-1.25,6-2.5,12.25-3.75,18.75H482l2.25-0.75l8.5,1.25c-2.75,20.25-7.75,50.25-12,73.5H514v10.75h-63.25V171.365z M410.5,216.865
			c-4.75-9-16-22.5-26.75-31.75l8.5-5.75c10.75,9,22.5,22,27.5,31.25L410.5,216.865z M475.25,118.865c1.75-10.75,3.25-21,4.5-29.25
			H418c-2.25,10-4.5,20-6.75,29.25H475.25z M473.25,212.615c8.5-9,20.25-23.75,26.75-33.75l9.75,5.5
			c-8.25,12.25-19,24.75-27.75,33.75L473.25,212.615z"/>
		<path fill="#FFFFFF" d="M615,178.865v107h-11v-106.5c-15.5,1-30,1.75-42.25,2.25l-1.25-11.25l17.25-0.75
			c5.75-7,12-15.5,18.25-24.5c-7.5-11.25-20.5-26.25-32.75-37.25l7-7.25c3,2.5,5.75,5.25,8.75,8.25c8.75-14.25,19-34.75,24.75-49.25
			l10.75,4.5c-8.25,17-19.25,37.75-28.75,51.75c6.5,6.75,12.25,13.75,16.75,20c11-16.75,21.5-34.25,29-48.5l10.75,5
			c-14.75,24.25-35,55-52.25,76.75c13.75-0.75,28.75-1.5,44.5-2.25c-4-8.25-8.75-16.75-13.5-24l9.5-3.75
			c10.75,16,21.25,37.25,25.25,50.5l-10.25,4.75c-1.25-4.75-3.5-10.75-6.25-17L615,178.865z M589,201.615c-4,23.5-10,47-18.25,63
			c-2-1.5-7.25-3.75-10-4.75c8.75-15.5,14-38,17.25-60.25L589,201.615z M637,199.115c6.75,14.5,12.25,33.5,14,46l-10.25,2.75
			c-1.25-12.5-6.75-31.5-13.25-46L637,199.115z M790.5,267.865v11H644v-11h71v-54.25h-54.5v-11.25h121.25v11.25h-55v54.25H790.5z
			 M683.75,191.865c-5.25-13-17.25-32.75-30.25-50c10-15.25,20.75-34.5,26.5-46.25l11,3.5c-6.25,12.25-16.5,29.25-24.75,42.5
			c11.25,15,22.75,33.5,28.25,45.25L683.75,191.865z M788,85.615H655v-11h133V85.615z M734.75,99.115
			c-6.75,12.5-17.25,29.25-26.25,42.25c11.75,15.25,24.25,33.75,30,45.5l-10.25,5c-6-13-18.75-32.75-32.5-50
			c10.75-15.25,22.25-34.5,28-46.25L734.75,99.115z M772,191.865c-6.25-13-19.75-33-34-50c10.75-15.25,22.5-34.5,28.5-46.25
			l11.25,3.5c-7.25,12.5-18,29.25-26.75,42.25c12,14.75,25.25,33.5,31.25,45.25L772,191.865z"/>
		<path fill="#FFFFFF" d="M1062.75,169.865H991.5v97.25c0,10.75-3.25,14.75-10.75,17c-7.5,2-22.25,2.25-46,2
			c-1-3.5-3-8.75-5.25-12.5c20.25,0.75,38,0.5,43.25,0.25c5-0.25,6.75-1.75,6.75-6.75v-93.75c-31,40-83,75-130.25,92.5
			c-1.75-3.5-5.75-8-8.5-10.5c46.5-15.25,97.25-49,126.75-85.5h-126v-11.75H881v-70.5h-24.5v-11.5h196v11.5h-61v70.5h71.25V169.865z
			 M892.75,158.115h86.75v-70.5h-86.75V158.115z"/>
		<path fill="#FFFFFF" d="M1196.25,174.865c-18.75,29.5-48.25,56.25-75.5,73.5c-2-1.75-7-6.5-9.5-8.75
			c28-16.25,56.5-41.25,73.5-68.5L1196.25,174.865z M1194.25,104.365c-17.75,22.5-44.5,44.5-67.75,58.75c-2.25-1.75-6.5-6.5-9.5-8.5
			c24-13.25,50-33.5,66.25-54.25L1194.25,104.365z M1214,266.865c0,9.75-2.5,14.25-9.5,16.75c-7,2-21.25,2-40.75,2
			c-1-3.25-2.75-9.25-4.5-13c17,0.5,32.5,0.25,37,0.25s5.75-1.25,5.75-5.75v-181.5h-83v-11.5h95V266.865z M1306.75,168.115
			c-17.5,30.5-46.25,56.75-73.75,74c-2.25-2.25-7-6.75-9.75-8.75c28.25-15.75,56-41,71.75-69L1306.75,168.115z M1302.75,100.115
			c-17.25,22.5-43,45-65.75,59.75c-2-2.25-6.5-6.75-9.5-8.75c23.25-13.5,48.25-34.25,64-55.25L1302.75,100.115z M1326.75,266.115
			c0,10.5-2.5,15.25-10.25,17.5c-7.75,2-23.25,2-45,2c-0.75-3.5-2.5-9.25-4.5-13.25c18.75,0.75,36.25,0.75,41.25,0.25
			c5,0,6.5-1.25,6.5-6.25V85.615h-84v-11.5h96V266.115z"/>
		<path fill="#FFFFFF" d="M1506,59.615c26.5,35.25,72.25,72.25,111.25,92c-3,2.75-6.25,7.25-8.25,10.25c-39-21.5-84-58.25-108-90.25
			c-20.5,30.25-62.5,67.75-105.5,92.25c-1.5-2.5-5-6.75-7.75-9.5c43.5-23.5,86.5-62,106.75-94.75H1506z M1585,252.865
			c0,7.25-1.75,11-8,13.25c-6.5,2-18.25,2-37.75,2c-0.5-3.5-2.75-8-4.5-11.25c16,0.5,29.5,0.5,33.25,0.25s5-1.25,5-4.5v-60h-80v93.5
			h-12v-93.5h-70.75v-11.5H1585V252.865z M1555.5,134.615v11.25H1449v-11.25H1555.5z"/>
		<path fill="#FFFFFF" d="M1758.5,113.115c-9.25-11.5-25.5-30-40.75-43.25c-10.5,18-27.5,41-51.5,59.75c-2-2.5-5.75-5.75-8.5-7.25
			c24.75-18.5,42.75-43.25,52-62.75H1722c16,13.5,35,32.75,44.25,44.75L1758.5,113.115z M1690.75,248.615H1760v10.5h-69.25v27h-11
			v-154.5h76.5v67.5h-65.5v19h67v10.25h-67V248.615z M1690.75,141.365v19h54.75v-19H1690.75z M1745.5,189.615v-20h-54.75v20H1745.5z
			 M1693.25,104.865h53v9.75h-53V104.865z M1835,105.615v37h48.5v93.5c0,6.25-1.25,9.5-5.5,11.25c-4.25,2-11.25,2-22.75,2
			c-0.5-3-2.5-7.25-4.25-10.5c8.75,0.25,16,0.25,18,0c2.25,0,3-0.5,3-2.75v-82.25h-37v132h-11.25v-132h-35.25v95.25h-11.25v-106.5
			h46.5v-37H1792c-7,16.25-15.25,30.75-24,42.25c-2.25-1.75-7.5-5.5-10.25-7c16.75-20,29.75-50.25,37.5-81.25l12,2.5
			c-3,11-6.5,21.75-10.75,32.25h93v11.25H1835z"/>
	</g>
</g>
<g>
	<g>
		<path fill="#FFFFFF" d="M76,543.114c-3.75,22.25-9.5,41.5-17.5,57.5c17.5,27.75,51,32,100.25,32c25.75,0,59.5-1,83.5-3
			c-2.25,3-3.75,8.75-4.25,12c-22,1.5-52.75,2-79.25,2c-53,0-85.5-5.25-105.25-33.25c-9.5,16-21.25,28.75-34.25,37.75
			c-1.5-2.75-5.75-7.25-8.25-9c24.75-16,43.75-45.25,52-87.75H32c-6.5,0-12.75,1.5-14.5,3.5c-0.75-3.25-3.75-9.75-5.25-12.5
			c3.5-1,7.25-2.75,11.5-7.25c6.75-6.75,24.75-30.75,36-46.5H15v-10.5h52.75l2.75-1.25l9,4.5c-11.25,15-32.25,42.75-47,59.5h35
			l2-0.25L76,543.114z M56.25,466.364c-6.5-10.25-20-27.5-30.75-39.75l9-5.5c11.25,12.25,24.75,28.75,31.5,38.5L56.25,466.364z
			 M237.5,461.614H80.25v-10.25H237.5V461.614z M98.25,549.864h118v57.25h-118V549.864z M215.75,493.614H101v-10.25h114.75V493.614z
			 M101,516.614h114.75v10H101V516.614z M109.75,597.114h94.75v-37.25h-94.75V597.114z M158.75,451.114c-4-7.5-13.25-19.25-21-28
			l11-4.75c8,8,17,19.5,21.5,27L158.75,451.114z"/>
		<path fill="#FFFFFF" d="M363,557.114c-4-5.5-14-16.5-22-25v115h-11.5v-111.25c-12.5,14-26,26.5-39,35.75
			c-1.25-3.25-4.25-8.75-6.5-10.75c27.25-18.5,57.25-51.5,73-85h-62.25v-11.5H363l2.5-0.5l7,4.5c-7.25,18-17.75,35.25-29.75,51.25
			c7.75,7.5,24,23.5,28.25,27.75L363,557.114z M336,459.364c-3.75-8.75-12.5-22.25-21-31.75l9-5.5c8.75,9.25,17.5,22.5,21.75,31
			L336,459.364z M418.75,593.864c-19.5,14-40,28-56.5,39l-6.75-8.75c15.25-9,38-24,59.75-39L418.75,593.864z M443.75,526.614v106
			c0,7.5-1.75,10.75-6.75,12.75c-5.25,1.75-14.25,2-28.5,2c-0.5-3.25-2.25-7.5-4-11c11.5,0.5,21,0.25,24,0.25
			c3-0.25,3.75-1,3.75-3.75v-106.25H369.5v-11.25h89.75c1.75-7.25,3.5-15.25,5.25-23.5H388c6-18.25,13.75-48.75,18.75-71l11.5,1.25
			c-1.5,6.25-3.25,13.5-4.75,20.5H475l2.25-0.75l8.25,1.5c-3.5,19.75-9.5,48.75-14.75,72H515v11.25H443.75z M406.75,578.364
			c-6.75-9.5-20.25-24.25-31.75-35.25l8.75-5.5c11.25,10.25,25,24.75,31.75,33.75L406.75,578.364z M466.5,481.364
			c2.25-10.25,4.25-20.25,5.75-28.25h-61.5c-2.5,10-5.25,19.75-7.75,28.25H466.5z M461.5,584.114c19.25,12,43.5,29.25,55.25,40.5
			l-6.5,9c-12.25-11.75-35.75-29.5-55.75-41.75L461.5,584.114z M459,570.114c11.25-8.75,27.25-23.75,36-34.25l9,6.5
			c-10.75,12.25-25.75,25.25-37.5,34L459,570.114z"/>
		<path fill="#FFFFFF" d="M586.75,580.364c-3.5,21.75-8.75,45.25-13.75,61c-2.5-1.25-7.75-3.25-10.5-4.25
			c6-15.75,10.25-38,13.25-58.5L586.75,580.364z M638.5,569.114c-0.75-4.25-2-9.5-3.5-15c-55.25,8.25-62,9.75-66.25,12
			c-0.75-2.75-2.75-9-4.25-12c4.75-1,10.75-7.75,17.75-16.75c4.25-4.75,13.75-17.25,24-32.75c-30.25,3.25-36,4.5-39.25,6
			c-0.5-2.75-2.5-8.5-3.75-11.75c3.75-0.75,8.25-6.25,13.5-14c5.5-7.5,24-36.75,35-64.5l11.25,5c-12,25.5-26.5,51.25-41.25,71
			l31.5-3.25c6.75-10.5,13.25-22,19-33.25l11,5.75c-17.5,30.75-37.75,61.5-58.25,85l47-6.5c-3-9.25-6.5-19-10-27.5l10.25-2.5
			c7,16.75,14.5,38.5,17.25,51.5L638.5,569.114z M610.25,578.364c3,16.75,6,38.5,6.75,53.25l-10.25,2c-0.75-14.75-3.75-37-6.5-53.75
			L610.25,578.364z M632.25,572.364c5.5,14.25,11.75,32.5,14,44.5l-10,3.25c-2.25-12.25-8-30.75-13.25-45L632.25,572.364z
			 M788.5,630.114v11.25H645.25v-11.25h68v-55.5H660.5v-11h118v11h-53.25v55.5H788.5z M683.75,552.614c-5.25-13-17.25-33-30.5-50.25
			c10-15,20.75-34.5,26.5-46.25l11.25,3.25c-6.5,12.5-16.5,29.75-25,42.75c11.25,15.25,23,33.75,28.5,45.5L683.75,552.614z
			 M786.25,445.365h-131v-11.25h131V445.365z M735.25,459.614c-6.75,12.5-17.25,29.5-26,42.5c11.5,15,24,33.5,29.75,45.25l-10.5,5
			c-5.75-13-18.5-33-32.25-50c10.75-15,22-34.5,27.75-46.25L735.25,459.614z M778.75,459.614c-7,12.5-17.75,29.5-26.5,42.5
			c12,14.75,25.25,33.5,31.25,45l-10.5,5.5c-6-13-19.5-33.25-33.75-50.25c10.75-15,22.25-34.5,28.5-46.25L778.75,459.614z"/>
		<path fill="#FFFFFF" d="M1060.75,532.614h-59.25v96.5c0,9.75-3.25,13.75-9.75,16c-6.75,2-19,2.5-41,2.25
			c-0.75-3.5-3-8.75-4.5-12.25c17.25,0.5,32.25,0.25,37,0c4.25-0.25,6-1.5,6-5.75v-96.75c-33.25,42.5-91.5,83.25-139.5,103
			c-2-3.25-5.5-7.75-8.5-10.25c46-17.25,101-54.75,133.25-92.75h-110c6.5-21.5,15-57.5,20.75-85h-27v-11.75h190.25v11.75h-47v73.5
			h59.25V532.614z M897.5,447.614c-4.75,23.25-11.75,52.25-17,73.5h108.75v-73.5H897.5z"/>
		<path fill="#FFFFFF" d="M1193.25,560.614c-24.75,15.75-51.75,32-71.75,44l-6-10.25c18.75-10,47-27.25,74.5-43.75L1193.25,560.614z
			 M1214.25,626.364c0,10.25-2.5,14.75-9.5,16.75c-7.25,2.25-21.5,2.5-41.5,2.5c-0.75-3.5-2.75-9.25-4.5-13.25
			c17.25,0.75,33.25,0.75,37.75,0.5s6-1.5,6-6.25v-181.25h-83.25v-11.75h95V626.364z M1177,530.364
			c-11.5-12.5-34.25-33.75-52.5-48.75l9-6.5c18.5,14.75,41.5,35.5,52.75,47.25L1177,530.364z M1303,556.114
			c-24.5,15.75-51,32.25-70.75,44.25l-6.75-10.75c18.75-10.25,47-27,74.25-43.5L1303,556.114z M1326.75,626.114
			c0,10.5-2.5,15-10,17.25c-7.75,2.25-23.25,2.25-45,2.25c-1-3.5-2.75-9.25-4.75-13.25c18.75,1,36.5,0.75,41.5,0.5
			s6.25-1.75,6.25-6.75v-180.75h-84.25v-11.75h96.25V626.114z M1289.75,529.614c-11.75-12.5-34.5-33.5-53-48.5l9-6.75
			c18.5,14.75,41.5,35.25,53,47L1289.75,529.614z"/>
		<path fill="#FFFFFF" d="M1506,422.615c26,34.5,71,70.5,109.25,89.75c-3,3-6.25,7.25-8,10.25c-38-21-82.25-56.5-106.25-88.25
			c-20.5,30.25-62,66.5-103.5,90c-1.75-2.25-5-6.5-7.75-9c42.75-23.25,84.75-60.75,104.75-92.75H1506z M1571.5,537.614l2.25-1
			l8.25,5.5c-18.75,19.75-46.5,47.25-71.5,71.25c11.5,9.25,22,18.25,28.75,25.5l-8.75,9c-16-16.25-49-42.25-75.75-60l8.25-7.75
			c12,7.5,25.25,16.75,37.5,26.25c21-20,43.25-41.25,58.75-57.75H1425v-11H1571.5z M1452,495.864h100.5v10.75H1452V495.864z"/>
		<path fill="#FFFFFF" d="M1709.75,420.615h12.5c15.75,13.5,35,32.5,44.25,44.75l-8,8.75c-9.25-12-25.5-30.5-40.5-43.25
			c-10.75,18.25-28.25,41.25-51.75,59.75c-2-2.75-5.75-6-8.25-7.25C1682.75,464.614,1700.5,439.865,1709.75,420.615z
			 M1692.5,576.864v50l49.5-20.25c-3.25-6-6.75-11.75-9.5-17.25l9-4c9.25,15.25,20,35.5,25,47.25l-9.5,4.75
			c-2.5-5.5-6.75-14-10.75-22.5c-58.5,24.75-64.75,28-69.25,31.25c-0.75-2.75-3-8-5-11.25c3.25-1.25,9.25-4.5,9.25-14v-124.75H1755
			v80.75H1692.5z M1743.75,529.364v-23h-51.25v23H1743.75z M1743.75,566.864v-27.5h-51.25v27.5H1743.75z M1693.25,475.614v-10h53v10
			H1693.25z M1835,466.614v37h48.5v93.25c0,6.25-1.25,9.75-5.25,11.5c-4.5,1.75-11.25,2-23,2c-0.25-2.5-2.25-7.5-4-10.5
			c8.5,0.25,15.75,0.25,17.75,0c2.5,0,3.25-0.75,3.25-3v-82.25H1835v132.25h-11.25v-132.25h-35.25v95.5h-11.25v-106.5h46.5v-37
			h-31.5c-7,15.5-15.25,31-24.25,42c-2-1.5-8-5.75-10.25-6.75c16.75-20,29.75-50.5,37.75-81.5l12,2.75c-3,11-7,21.75-11,32.25h93
			v11.25H1835z"/>
	</g>
</g>
<g>
	<g>
		<path fill="#737F8A" d="M45.95,4.62L29.5,33.11L13.05,4.62H45.95z"/>
		<path fill="#737F8A" d="M64.604,1.785l1.61,0.455c-1.05,2.66-2.31,5.227-3.78,7.7v23.345h-1.61v-20.86
			c-0.677,1.003-1.371,1.942-2.083,2.817c-0.712,0.875-1.441,1.686-2.188,2.433c-0.094-0.163-0.245-0.414-0.455-0.752
			c-0.21-0.338-0.397-0.589-0.56-0.752c1.213-1.167,2.38-2.52,3.5-4.06s2.152-3.19,3.098-4.953
			C63.082,5.396,63.904,3.605,64.604,1.785z M82.91,21.175v2.765h5.25v1.47h-5.25v5.845c0,0.537-0.082,0.95-0.245,1.242
			c-0.164,0.292-0.479,0.496-0.945,0.613c-0.444,0.14-1.103,0.215-1.978,0.228c-0.875,0.011-2.001,0.018-3.377,0.018
			c-0.047-0.234-0.129-0.49-0.245-0.77c-0.117-0.28-0.233-0.537-0.35-0.77c1.236,0.023,2.275,0.041,3.115,0.052
			c0.84,0.012,1.411,0.005,1.715-0.018c0.303-0.023,0.496-0.076,0.578-0.157c0.081-0.082,0.122-0.24,0.122-0.473v-5.81H64.745v-1.47
			h16.555v-2.73c-2.893,0.093-5.717,0.181-8.47,0.262c-2.753,0.082-5.168,0.146-7.245,0.193L65.41,20.16
			c1.376-0.023,2.951-0.046,4.725-0.07c1.773-0.023,3.651-0.046,5.635-0.07v-2.59h-8.505v-9.1h8.505V5.95h-9.94V4.515h9.94v-2.59
			h1.645v2.59h10.36V5.95h-10.36v2.38h8.75v9.1H82.77c1.026,0.654,2.053,1.4,3.08,2.24c1.026,0.84,1.832,1.587,2.415,2.24
			l-1.295,0.91c-0.234-0.256-0.496-0.542-0.788-0.857c-0.292-0.315-0.625-0.624-0.998-0.928v0.07L82.91,21.175z M68.839,9.59v2.66
			h6.93V9.59H68.839z M68.839,16.135h6.93v-2.66h-6.93V16.135z M68.839,26.705l1.225-0.805c0.56,0.42,1.138,0.904,1.732,1.453
			c0.595,0.548,1.149,1.091,1.663,1.627c0.513,0.537,0.921,1.015,1.225,1.435L73.39,31.43c-0.444-0.653-1.097-1.429-1.96-2.327
			C70.566,28.205,69.703,27.405,68.839,26.705z M84.555,9.59h-7.14v2.66h7.14V9.59z M84.555,16.135v-2.66h-7.14v2.66H84.555z
			 M77.415,17.43v2.555c1.026-0.046,2.07-0.082,3.132-0.105c1.062-0.023,2.129-0.046,3.203-0.07c-0.443-0.35-0.887-0.688-1.33-1.015
			c-0.443-0.327-0.887-0.642-1.33-0.945l0.665-0.42H77.415z"/>
		<path fill="#737F8A" d="M93.095,23.73l1.47,0.28c-0.233,1.494-0.52,3.01-0.857,4.55c-0.338,1.54-0.694,2.858-1.067,3.955
			c-0.164-0.093-0.391-0.192-0.683-0.297c-0.292-0.105-0.531-0.192-0.717-0.263c0.42-1.097,0.781-2.385,1.085-3.867
			C92.627,26.606,92.885,25.154,93.095,23.73z M103.665,21.91l-1.54,0.49c-0.047-0.327-0.117-0.665-0.21-1.015
			c-0.094-0.35-0.199-0.735-0.315-1.155c-1.983,0.303-3.57,0.548-4.76,0.735c-1.19,0.187-2.1,0.345-2.73,0.473
			c-0.63,0.128-1.085,0.233-1.365,0.315c-0.28,0.082-0.49,0.157-0.63,0.228c-0.047-0.187-0.129-0.455-0.245-0.805
			c-0.117-0.35-0.233-0.642-0.35-0.875c0.327-0.07,0.706-0.315,1.138-0.735c0.431-0.42,0.904-0.945,1.417-1.575
			c0.326-0.327,0.805-0.91,1.435-1.75c0.63-0.84,1.33-1.808,2.1-2.905c-1.493,0.164-2.625,0.303-3.395,0.42
			c-0.77,0.117-1.313,0.21-1.627,0.28c-0.315,0.07-0.554,0.14-0.717,0.21c-0.023-0.187-0.094-0.46-0.21-0.822
			c-0.117-0.361-0.222-0.659-0.315-0.893c0.256-0.046,0.542-0.245,0.857-0.595c0.315-0.35,0.659-0.793,1.032-1.33
			c0.257-0.35,0.67-0.992,1.243-1.925c0.571-0.933,1.19-2.024,1.855-3.272C96.997,4.16,97.586,2.894,98.1,1.61l1.61,0.665
			c-0.817,1.773-1.727,3.535-2.73,5.285c-1.003,1.75-2.03,3.314-3.08,4.69l4.725-0.49c1.003-1.47,1.901-2.998,2.695-4.585
			l1.54,0.805c-1.26,2.17-2.607,4.276-4.042,6.317c-1.435,2.042-2.887,3.868-4.357,5.478l6.755-0.91
			c-0.21-0.653-0.432-1.307-0.665-1.96c-0.233-0.653-0.479-1.271-0.735-1.855l1.435-0.35c0.35,0.77,0.683,1.599,0.998,2.485
			c0.315,0.887,0.601,1.745,0.857,2.573C103.361,20.586,103.547,21.304,103.665,21.91z M96.49,23.905l1.365-0.245
			c0.21,1.214,0.408,2.532,0.595,3.955c0.187,1.423,0.315,2.648,0.385,3.675l-1.435,0.28c-0.023-0.7-0.082-1.487-0.175-2.362
			c-0.094-0.875-0.205-1.779-0.333-2.713C96.764,25.563,96.629,24.699,96.49,23.905z M99.745,23.24l1.295-0.315
			c0.373,0.98,0.747,2.054,1.12,3.22c0.373,1.167,0.641,2.182,0.805,3.045l-1.365,0.42c-0.164-0.863-0.42-1.89-0.77-3.08
			S100.118,24.244,99.745,23.24z M108.459,18.375h1.61c-0.07,2.73-0.297,5.063-0.682,7c-0.385,1.937-1.08,3.552-2.083,4.847
			c-1.004,1.295-2.497,2.351-4.48,3.167c-0.094-0.187-0.245-0.408-0.455-0.665s-0.409-0.467-0.595-0.63
			c1.867-0.724,3.267-1.668,4.2-2.835c0.933-1.167,1.563-2.636,1.89-4.41C108.191,23.077,108.39,20.919,108.459,18.375z
			 M122.529,17.291l-1.4,0.805c-0.187-0.35-0.408-0.747-0.665-1.19c-0.257-0.443-0.548-0.898-0.875-1.365
			c-2.52,0.233-4.626,0.432-6.317,0.595c-1.692,0.164-3.051,0.297-4.078,0.402s-1.82,0.193-2.38,0.263s-0.975,0.135-1.242,0.192
			c-0.269,0.059-0.485,0.123-0.648,0.192c-0.023-0.233-0.111-0.525-0.262-0.875c-0.152-0.35-0.274-0.618-0.368-0.805
			c0.28-0.07,0.595-0.169,0.945-0.297c0.35-0.128,0.676-0.344,0.98-0.648c0.21-0.21,0.501-0.56,0.875-1.05
			c0.373-0.49,0.793-1.05,1.26-1.68c0.466-0.63,0.933-1.271,1.4-1.925c0.467-0.653,0.875-1.236,1.225-1.75h-6.79V6.58h8.12
			c-0.28-0.676-0.612-1.423-0.998-2.24c-0.385-0.816-0.776-1.552-1.172-2.205l1.47-0.49c0.467,0.77,0.928,1.622,1.383,2.555
			c0.455,0.934,0.822,1.727,1.103,2.38h8.295v1.575h-9.415c-0.467,0.677-1.003,1.435-1.61,2.275
			c-0.607,0.84-1.208,1.668-1.803,2.485s-1.138,1.54-1.627,2.17l10.78-0.875c-0.443-0.677-0.904-1.342-1.382-1.995
			c-0.479-0.653-0.951-1.271-1.417-1.855l1.33-0.7c0.63,0.817,1.283,1.692,1.96,2.625c0.676,0.934,1.313,1.837,1.907,2.712
			C121.707,15.873,122.18,16.637,122.529,17.291z M117.314,30.975h3.115c0.303,0,0.525-0.105,0.665-0.315
			c0.14-0.21,0.245-0.647,0.315-1.313c0.07-0.665,0.116-1.663,0.14-2.992c0.187,0.164,0.42,0.31,0.7,0.438
			c0.28,0.128,0.537,0.216,0.77,0.262c-0.047,1.47-0.14,2.596-0.28,3.377c-0.14,0.782-0.38,1.324-0.718,1.627
			c-0.338,0.303-0.811,0.455-1.417,0.455h-3.465c-0.98,0-1.64-0.164-1.978-0.49c-0.338-0.327-0.508-0.98-0.508-1.96V18.34h1.61
			v11.69c0,0.397,0.064,0.653,0.192,0.77C116.585,30.917,116.871,30.975,117.314,30.975z"/>
		<path fill="#737F8A" d="M133.555,6.16h-2.065c-1.05,1.68-2.194,3.139-3.43,4.375c-0.164-0.14-0.385-0.309-0.665-0.507
			s-0.537-0.355-0.77-0.473c1.12-1.003,2.164-2.205,3.132-3.605s1.744-2.846,2.328-4.34l1.575,0.42
			c-0.187,0.443-0.385,0.893-0.595,1.348s-0.443,0.904-0.7,1.347h9.66V6.16h-6.755c0.396,0.56,0.775,1.138,1.138,1.732
			c0.361,0.595,0.624,1.126,0.787,1.593l-1.505,0.56c-0.187-0.513-0.479-1.125-0.875-1.837
			C134.417,7.496,133.998,6.814,133.555,6.16z M154.135,20.965h-11.13v2.555h12.145v1.435h-12.145v2.765h14.455v1.435h-14.455v4.165
			h-1.645v-4.165h-14.175V27.72h14.175v-2.765h-11.9v-1.435h11.9v-2.555h-10.745V19.53h10.745v-2.835h-14.7V15.26h14.7v-2.59h-10.5
			v-1.365h10.5v-2.1h1.645v2.1h11.13v3.955h3.815v1.435h-3.815V20.965z M146.924,6.16h-2.835c-1.144,1.424-2.403,2.66-3.78,3.71
			c-0.164-0.14-0.385-0.309-0.665-0.507c-0.28-0.198-0.525-0.344-0.735-0.438c1.283-0.887,2.473-1.965,3.57-3.237
			c1.097-1.271,1.96-2.631,2.59-4.078l1.61,0.385c-0.21,0.467-0.444,0.928-0.7,1.383c-0.257,0.455-0.525,0.904-0.805,1.347h12.46
			V6.16h-8.785c0.466,0.514,0.898,1.05,1.295,1.61c0.396,0.56,0.711,1.062,0.945,1.505l-1.435,0.735
			c-0.233-0.537-0.607-1.161-1.12-1.873C148.021,7.426,147.484,6.767,146.924,6.16z M143.004,12.67v2.59h9.45v-2.59H143.004z
			 M143.004,16.695v2.835h9.45v-2.835H143.004z"/>
		<path fill="#737F8A" d="M180.279,17.01h-4.06v16.31h-1.645V17.01h-6.65c-0.023,1.983-0.175,3.938-0.455,5.862
			c-0.28,1.925-0.782,3.78-1.505,5.565c-0.723,1.785-1.797,3.47-3.22,5.057c-0.14-0.164-0.338-0.356-0.595-0.577
			c-0.257-0.222-0.49-0.391-0.7-0.508c1.33-1.493,2.339-3.074,3.027-4.742c0.688-1.668,1.161-3.407,1.417-5.215
			c0.256-1.808,0.396-3.623,0.42-5.442h-4.865V15.4h4.9v-0.21V5.495h-4.375v-1.61h17.745v1.61h-3.5V15.4h4.06V17.01z M167.959,15.4
			h6.615V5.495h-6.615v9.66V15.4z M191.935,21.385l1.54,0.665c-0.98,1.54-2.188,3.022-3.623,4.445
			c-1.435,1.424-3.01,2.719-4.725,3.885s-3.495,2.158-5.337,2.975c-0.164-0.187-0.356-0.415-0.578-0.683
			c-0.222-0.269-0.438-0.484-0.647-0.647c1.82-0.724,3.576-1.633,5.268-2.73c1.691-1.097,3.237-2.322,4.638-3.675
			C189.87,24.267,191.024,22.855,191.935,21.385z M189.834,2.275l1.575,0.7c-0.84,1.004-1.826,2.007-2.958,3.01
			c-1.132,1.003-2.31,1.931-3.535,2.782c-1.225,0.852-2.421,1.593-3.587,2.223c-0.164-0.187-0.362-0.391-0.595-0.612
			c-0.233-0.222-0.443-0.414-0.63-0.578c1.143-0.583,2.315-1.283,3.518-2.1c1.202-0.816,2.351-1.691,3.447-2.625
			C188.166,4.142,189.087,3.209,189.834,2.275z M191.024,11.865l1.505,0.665c-0.887,1.097-1.942,2.182-3.167,3.255
			c-1.225,1.074-2.508,2.083-3.85,3.028c-1.342,0.945-2.655,1.756-3.938,2.432c-0.14-0.187-0.327-0.396-0.56-0.63
			c-0.233-0.233-0.444-0.432-0.63-0.595c1.236-0.63,2.52-1.383,3.85-2.258s2.59-1.825,3.78-2.853
			C189.205,13.884,190.208,12.869,191.024,11.865z"/>
	</g>
</g>
<g>
	<g>
		<path fill="#737F8A" d="M45.95,366.62L29.5,395.11l-16.45-28.49H45.95z"/>
		<path fill="#737F8A" d="M68.77,384.295l0.21,1.575c-2.193,0.654-4.387,1.295-6.58,1.925c-2.193,0.63-4.118,1.213-5.775,1.75
			l-0.455-1.68c1.586-0.42,3.5-0.957,5.74-1.61v-9.415h-4.725v-1.575h4.725v-8.26h-5.215v-1.575h11.83v1.575h-4.97v8.26h4.69v1.575
			h-4.69v8.96L68.77,384.295z M82.49,393.57h3.465c0.303,0,0.537-0.094,0.7-0.28c0.163-0.188,0.28-0.578,0.35-1.173
			c0.07-0.595,0.117-1.499,0.14-2.712c0.187,0.164,0.42,0.304,0.7,0.42c0.28,0.117,0.536,0.199,0.77,0.245
			c-0.047,1.33-0.146,2.357-0.298,3.08c-0.152,0.723-0.397,1.225-0.735,1.505c-0.338,0.28-0.822,0.42-1.453,0.42h-3.815
			c-1.073,0-1.785-0.164-2.135-0.49c-0.35-0.327-0.525-0.969-0.525-1.925v-8.4h-4.2c-0.257,1.844-0.695,3.489-1.313,4.935
			c-0.619,1.447-1.558,2.701-2.817,3.763c-1.26,1.061-2.964,1.93-5.11,2.607c-0.093-0.21-0.239-0.455-0.438-0.735
			c-0.198-0.28-0.391-0.502-0.577-0.665c2.03-0.584,3.623-1.342,4.777-2.275c1.155-0.933,2.018-2.042,2.59-3.325
			s0.974-2.718,1.208-4.305H70.31v-18.97h15.995v18.97h-5.005v8.365c0,0.373,0.07,0.624,0.21,0.752
			C81.649,393.506,81.976,393.57,82.49,393.57z M71.919,366.795v4.305h12.74v-4.305H71.919z M71.919,372.57v4.34h12.74v-4.34H71.919
			z M71.919,378.345v4.41h12.74v-4.41H71.919z"/>
		<path fill="#737F8A" d="M101.354,364.065l1.575,0.525c-0.583,1.284-1.214,2.549-1.89,3.797c-0.677,1.249-1.4,2.456-2.17,3.623
			v23.31h-1.715v-20.93c-0.84,1.097-1.703,2.135-2.59,3.115s-1.797,1.878-2.73,2.695c-0.093-0.187-0.245-0.443-0.455-0.77
			c-0.21-0.326-0.408-0.571-0.595-0.735c1.4-1.167,2.753-2.52,4.06-4.06c1.306-1.54,2.52-3.214,3.64-5.022
			C99.604,367.805,100.561,365.955,101.354,364.065z M122.915,374.67L111.959,376c0.443,3.36,1.033,6.335,1.768,8.925
			s1.639,4.632,2.712,6.125c1.073,1.494,2.322,2.298,3.745,2.415c0.56,0.023,1.009-0.507,1.348-1.593
			c0.338-1.085,0.612-2.677,0.822-4.777c0.187,0.164,0.425,0.321,0.718,0.473c0.291,0.152,0.53,0.262,0.717,0.333
			c-0.35,2.823-0.805,4.783-1.365,5.88c-0.56,1.097-1.283,1.633-2.17,1.61c-1.89-0.117-3.488-0.998-4.795-2.643
			c-1.307-1.645-2.369-3.89-3.185-6.737c-0.817-2.847-1.47-6.113-1.96-9.8l-9.275,1.12l-0.245-1.575l9.38-1.12
			c-0.163-1.633-0.315-3.331-0.455-5.092c-0.14-1.762-0.257-3.564-0.35-5.408h1.68c0.14,3.687,0.385,7.117,0.735,10.29l10.85-1.295
			L122.915,374.67z M122.18,370.33l-1.295,0.91c-0.42-0.513-0.975-1.108-1.663-1.785c-0.688-0.676-1.424-1.365-2.205-2.065
			c-0.782-0.7-1.546-1.33-2.292-1.89l1.155-0.805c0.77,0.56,1.552,1.172,2.345,1.837c0.793,0.665,1.54,1.33,2.24,1.995
			C121.165,369.193,121.736,369.794,122.18,370.33z"/>
		<path fill="#737F8A" d="M133.555,368.16h-2.065c-1.05,1.68-2.194,3.139-3.43,4.375c-0.164-0.14-0.385-0.309-0.665-0.507
			s-0.537-0.355-0.77-0.473c1.12-1.003,2.164-2.205,3.132-3.605s1.744-2.846,2.328-4.34l1.575,0.42
			c-0.187,0.443-0.385,0.893-0.595,1.348s-0.443,0.904-0.7,1.347h9.66v1.435h-6.755c0.396,0.56,0.775,1.138,1.138,1.732
			c0.361,0.595,0.624,1.126,0.787,1.593l-1.505,0.56c-0.187-0.513-0.479-1.125-0.875-1.837
			C134.417,369.496,133.998,368.814,133.555,368.16z M154.135,382.965h-11.13v2.555h12.145v1.435h-12.145v2.765h14.455v1.435
			h-14.455v4.165h-1.645v-4.165h-14.175v-1.435h14.175v-2.765h-11.9v-1.435h11.9v-2.555h-10.745v-1.435h10.745v-2.835h-14.7v-1.435
			h14.7v-2.59h-10.5v-1.365h10.5v-2.1h1.645v2.1h11.13v3.955h3.815v1.435h-3.815V382.965z M146.924,368.16h-2.835
			c-1.144,1.424-2.403,2.66-3.78,3.71c-0.164-0.14-0.385-0.309-0.665-0.507c-0.28-0.198-0.525-0.344-0.735-0.438
			c1.283-0.887,2.473-1.965,3.57-3.237c1.097-1.271,1.96-2.631,2.59-4.078l1.61,0.385c-0.21,0.467-0.444,0.928-0.7,1.383
			c-0.257,0.455-0.525,0.904-0.805,1.347h12.46v1.435h-8.785c0.466,0.514,0.898,1.05,1.295,1.61c0.396,0.56,0.711,1.062,0.945,1.505
			l-1.435,0.735c-0.233-0.537-0.607-1.161-1.12-1.873C148.021,369.426,147.484,368.767,146.924,368.16z M143.004,374.67v2.59h9.45
			v-2.59H143.004z M143.004,378.695v2.835h9.45v-2.835H143.004z"/>
		<path fill="#737F8A" d="M180.279,379.01h-4.06v16.31h-1.645v-16.31h-6.65c-0.023,1.983-0.175,3.938-0.455,5.862
			c-0.28,1.925-0.782,3.78-1.505,5.565c-0.723,1.785-1.797,3.47-3.22,5.057c-0.14-0.164-0.338-0.356-0.595-0.577
			c-0.257-0.222-0.49-0.391-0.7-0.508c1.33-1.493,2.339-3.074,3.027-4.742c0.688-1.668,1.161-3.407,1.417-5.215
			c0.256-1.808,0.396-3.623,0.42-5.442h-4.865v-1.61h4.9v-0.21v-9.695h-4.375v-1.61h17.745v1.61h-3.5v9.905h4.06V379.01z
			 M167.959,377.4h6.615v-9.905h-6.615v9.66V377.4z M191.935,383.385l1.54,0.665c-0.98,1.54-2.188,3.022-3.623,4.445
			c-1.435,1.424-3.01,2.719-4.725,3.885s-3.495,2.158-5.337,2.975c-0.164-0.187-0.356-0.415-0.578-0.683
			c-0.222-0.269-0.438-0.484-0.647-0.647c1.82-0.724,3.576-1.633,5.268-2.73c1.691-1.097,3.237-2.322,4.638-3.675
			C189.87,386.267,191.024,384.855,191.935,383.385z M189.834,364.275l1.575,0.7c-0.84,1.004-1.826,2.007-2.958,3.01
			c-1.132,1.003-2.31,1.931-3.535,2.782c-1.225,0.852-2.421,1.593-3.587,2.223c-0.164-0.187-0.362-0.391-0.595-0.612
			c-0.233-0.222-0.443-0.414-0.63-0.578c1.143-0.583,2.315-1.283,3.518-2.1c1.202-0.816,2.351-1.691,3.447-2.625
			C188.166,366.142,189.087,365.209,189.834,364.275z M191.024,373.865l1.505,0.665c-0.887,1.097-1.942,2.182-3.167,3.255
			c-1.225,1.074-2.508,2.083-3.85,3.028c-1.342,0.945-2.655,1.756-3.938,2.432c-0.14-0.187-0.327-0.396-0.56-0.63
			c-0.233-0.233-0.444-0.432-0.63-0.595c1.236-0.63,2.52-1.383,3.85-2.258s2.59-1.825,3.78-2.853
			C189.205,375.884,190.208,374.869,191.024,373.865z"/>
	</g>
</g>
<g>
	<rect y="38.371" fill="none" width="1076" height="674"/>
</g>
<g>
	<g>
		<path fill="#6FCACA" d="M61.5,239.865c13.25,19.5,37.25,28.75,68.5,30c26.25,1,83.25,0.5,111-1.25c-1.75,3-3.75,8.25-4.5,12
			c-26,1-79.5,1.5-106.25,0.75c-34-1.25-58-11-74-30.75c-11.5,11.25-24.25,22.5-37,33.5l-6.75-11.5c11-8.5,25-20.25,37.25-31.5
			v-52.75H14.5v-11.25h47V239.865z M60.5,152.115c-9-10-28-22.25-44.25-30l7.75-8c16.25,7.25,35.5,19.5,44.75,29L60.5,152.115z
			 M67.5,102.115c-8.5-9.75-26.25-22.75-42-30.75l8-7.5c15.5,7.75,33.75,20,42.25,30L67.5,102.115z"/>
		<path fill="#6FCACA" d="M615,178.865v107h-11v-106.5c-15.5,1-30,1.75-42.25,2.25l-1.25-11.25l17.25-0.75
			c5.75-7,12-15.5,18.25-24.5c-7.5-11.25-20.5-26.25-32.75-37.25l7-7.25c3,2.5,5.75,5.25,8.75,8.25c8.75-14.25,19-34.75,24.75-49.25
			l10.75,4.5c-8.25,17-19.25,37.75-28.75,51.75c6.5,6.75,12.25,13.75,16.75,20c11-16.75,21.5-34.25,29-48.5l10.75,5
			c-14.75,24.25-35,55-52.25,76.75c13.75-0.75,28.75-1.5,44.5-2.25c-4-8.25-8.75-16.75-13.5-24l9.5-3.75
			c10.75,16,21.25,37.25,25.25,50.5l-10.25,4.75c-1.25-4.75-3.5-10.75-6.25-17L615,178.865z M589,201.615c-4,23.5-10,47-18.25,63
			c-2-1.5-7.25-3.75-10-4.75c8.75-15.5,14-38,17.25-60.25L589,201.615z M637,199.115c6.75,14.5,12.25,33.5,14,46l-10.25,2.75
			c-1.25-12.5-6.75-31.5-13.25-46L637,199.115z"/>
		<path fill="#6FCACA" d="M1196.25,174.865c-18.75,29.5-48.25,56.25-75.5,73.5c-2-1.75-7-6.5-9.5-8.75
			c28-16.25,56.5-41.25,73.5-68.5L1196.25,174.865z M1194.25,104.365c-17.75,22.5-44.5,44.5-67.75,58.75c-2.25-1.75-6.5-6.5-9.5-8.5
			c24-13.25,50-33.5,66.25-54.25L1194.25,104.365z M1306.75,168.115c-17.5,30.5-46.25,56.75-73.75,74c-2.25-2.25-7-6.75-9.75-8.75
			c28.25-15.75,56-41,71.75-69L1306.75,168.115z M1302.75,100.115c-17.25,22.5-43,45-65.75,59.75c-2-2.25-6.5-6.75-9.5-8.75
			c23.25-13.5,48.25-34.25,64-55.25L1302.75,100.115z"/>
		<path fill="#6FCACA" d="M1585,252.865c0,7.25-1.75,11-8,13.25c-6.5,2-18.25,2-37.75,2c-0.5-3.5-2.75-8-4.5-11.25
			c16,0.5,29.5,0.5,33.25,0.25s5-1.25,5-4.5v-60h-80v93.5h-12v-93.5h-70.75v-11.5H1585V252.865z"/>
		<path fill="#6FCACA" d="M1690.75,248.615H1760v10.5h-69.25v27h-11v-154.5h76.5v67.5h-65.5v19h67v10.25h-67V248.615z
			 M1690.75,141.365v19h54.75v-19H1690.75z M1745.5,189.615v-20h-54.75v20H1745.5z"/>
		<g>
			<rect x="297.5" y="76.365" fill="#6FCACA" width="67.25" height="11.25"/>
			<rect x="358.25" y="158.865" fill="#6FCACA" width="9.5" height="91.5"/>
			<polygon fill="#6FCACA" points="371,126.865 290.75,126.865 290.75,137.865 326.5,137.865 326.5,285.865 337.5,285.865 
				337.5,137.865 371,137.865 			"/>
			<path fill="#6FCACA" d="M296.5,188.365c0,23.25-1.25,50.25-9,71.5c2.75,1,6.75,3.75,8.5,6c8.75-23,10-51.5,10-77.25v-29.75h-9.5
				V188.365z"/>
			<g>
				<path fill="#6FCACA" d="M408.5,129.115h65.25c0,0.002-0.001,0.005-0.001,0.008l1.51-10.313
					c-0.003,0.019-0.006,0.037-0.009,0.056h-64c2.25-9.25,4.5-19.25,6.75-29.25h0.132l2.157-10h-0.039
					c1.25-6.5,2.5-12.75,3.75-18.75l-11.5-1.5c-4.75,25-12.5,60-18.5,80.5l11.25,1.5C406.25,137.615,407.5,133.615,408.5,129.115z"
					/>
			</g>
		</g>
		<polygon fill="#6FCACA" points="892.75,158.115 892.75,87.878 881,87.878 881,158.115 841.5,158.115 841.5,169.865 967.5,169.865 
			967.494,169.873 1062.75,169.865 1062.75,158.115 		"/>
	</g>
</g>
<g>
</g>
<g>
</g>
<g>
</g>
<g>
</g>
<g>
</g>
<g>
</g>
</svg>
