<?xml version="1.0" encoding="utf-8"?>
<!-- Generator: Adobe Illustrator 16.0.0, SVG Export Plug-In . SVG Version: 6.00 Build 0)  -->
<!DOCTYPE svg PUBLIC "-//W3C//DTD SVG 1.1//EN" "http://www.w3.org/Graphics/SVG/1.1/DTD/svg11.dtd">
<svg version="1.1" id="Layer_1" xmlns="http://www.w3.org/2000/svg" xmlns:xlink="http://www.w3.org/1999/xlink" x="0px" y="0px"
	 width="1110px" height="979.804px" viewBox="0 0 1110 979.804" enable-background="new 0 0 1110 979.804" xml:space="preserve">
<g>
	<g>
		<path fill="#737F8A" d="M33.95,350.31L17.5,378.8L1.05,350.31H33.95z"/>
		<path fill="#737F8A" d="M56.77,367.985l0.21,1.575c-2.193,0.654-4.387,1.295-6.58,1.925c-2.193,0.63-4.118,1.213-5.775,1.75
			l-0.455-1.68c1.586-0.42,3.5-0.957,5.74-1.61v-9.415h-4.725v-1.575h4.725v-8.26h-5.215v-1.575h11.83v1.575h-4.97v8.26h4.69v1.575
			h-4.69v8.96L56.77,367.985z M70.49,377.26h3.465c0.303,0,0.537-0.094,0.7-0.28c0.163-0.188,0.28-0.578,0.35-1.173
			c0.07-0.595,0.117-1.499,0.14-2.712c0.187,0.164,0.42,0.304,0.7,0.42c0.28,0.117,0.536,0.199,0.77,0.245
			c-0.047,1.33-0.146,2.357-0.298,3.08c-0.152,0.723-0.397,1.225-0.735,1.505c-0.338,0.28-0.822,0.42-1.453,0.42h-3.815
			c-1.073,0-1.785-0.164-2.135-0.49c-0.35-0.327-0.525-0.969-0.525-1.925v-8.4h-4.2c-0.257,1.844-0.695,3.489-1.313,4.935
			c-0.619,1.447-1.558,2.701-2.817,3.763c-1.26,1.061-2.964,1.93-5.11,2.607c-0.093-0.21-0.239-0.455-0.438-0.735
			c-0.198-0.28-0.391-0.502-0.577-0.665c2.03-0.584,3.623-1.342,4.777-2.275c1.155-0.933,2.018-2.042,2.59-3.325
			s0.974-2.718,1.208-4.305H58.31v-18.97h15.995v18.97h-5.005v8.365c0,0.373,0.07,0.624,0.21,0.752
			C69.649,377.196,69.976,377.26,70.49,377.26z M59.919,350.485v4.305h12.74v-4.305H59.919z M59.919,356.26v4.34h12.74v-4.34H59.919
			z M59.919,362.035v4.41h12.74v-4.41H59.919z"/>
		<path fill="#737F8A" d="M89.354,347.755l1.575,0.525c-0.583,1.284-1.214,2.549-1.89,3.797c-0.677,1.249-1.4,2.456-2.17,3.623
			v23.31h-1.715v-20.93c-0.84,1.097-1.703,2.135-2.59,3.115s-1.797,1.878-2.73,2.695c-0.093-0.187-0.245-0.443-0.455-0.77
			c-0.21-0.326-0.408-0.571-0.595-0.735c1.4-1.167,2.753-2.52,4.06-4.06c1.306-1.54,2.52-3.214,3.64-5.022
			C87.604,351.495,88.561,349.645,89.354,347.755z M110.915,358.36l-10.955,1.33c0.443,3.36,1.033,6.335,1.768,8.925
			s1.639,4.632,2.712,6.125c1.073,1.494,2.322,2.298,3.745,2.415c0.56,0.023,1.009-0.507,1.348-1.593
			c0.338-1.085,0.612-2.677,0.822-4.777c0.187,0.164,0.425,0.321,0.718,0.473c0.291,0.152,0.53,0.262,0.717,0.333
			c-0.35,2.823-0.805,4.783-1.365,5.88c-0.56,1.097-1.283,1.633-2.17,1.61c-1.89-0.117-3.488-0.998-4.795-2.643
			c-1.307-1.645-2.369-3.89-3.185-6.737c-0.817-2.847-1.47-6.113-1.96-9.8l-9.275,1.12l-0.245-1.575l9.38-1.12
			c-0.163-1.633-0.315-3.331-0.455-5.092c-0.14-1.762-0.257-3.564-0.35-5.408h1.68c0.14,3.687,0.385,7.117,0.735,10.29l10.85-1.295
			L110.915,358.36z M110.18,354.02l-1.295,0.91c-0.42-0.513-0.975-1.108-1.663-1.785c-0.688-0.676-1.424-1.365-2.205-2.065
			c-0.782-0.7-1.546-1.33-2.292-1.89l1.155-0.805c0.77,0.56,1.552,1.172,2.345,1.837c0.793,0.665,1.54,1.33,2.24,1.995
			C109.165,352.883,109.736,353.484,110.18,354.02z"/>
		<path fill="#737F8A" d="M121.555,351.85h-2.065c-1.05,1.68-2.194,3.139-3.43,4.375c-0.164-0.14-0.385-0.309-0.665-0.507
			s-0.537-0.355-0.77-0.473c1.12-1.003,2.164-2.205,3.132-3.605s1.744-2.846,2.328-4.34l1.575,0.42
			c-0.187,0.443-0.385,0.893-0.595,1.348s-0.443,0.904-0.7,1.347h9.66v1.435h-6.755c0.396,0.56,0.775,1.138,1.138,1.732
			c0.361,0.595,0.624,1.126,0.787,1.593l-1.505,0.56c-0.187-0.513-0.479-1.125-0.875-1.837
			C122.417,353.186,121.998,352.504,121.555,351.85z M142.135,366.655h-11.13v2.555h12.145v1.435h-12.145v2.765h14.455v1.435
			h-14.455v4.165h-1.645v-4.165h-14.175v-1.435h14.175v-2.765h-11.9v-1.435h11.9v-2.555h-10.745v-1.435h10.745v-2.835h-14.7v-1.435
			h14.7v-2.59h-10.5v-1.365h10.5v-2.1h1.645v2.1h11.13v3.955h3.815v1.435h-3.815V366.655z M134.924,351.85h-2.835
			c-1.144,1.424-2.403,2.66-3.78,3.71c-0.164-0.14-0.385-0.309-0.665-0.507c-0.28-0.198-0.525-0.344-0.735-0.438
			c1.283-0.887,2.473-1.965,3.57-3.237c1.097-1.271,1.96-2.631,2.59-4.078l1.61,0.385c-0.21,0.467-0.444,0.928-0.7,1.383
			c-0.257,0.455-0.525,0.904-0.805,1.347h12.46v1.435h-8.785c0.466,0.514,0.898,1.05,1.295,1.61c0.396,0.56,0.711,1.062,0.945,1.505
			l-1.435,0.735c-0.233-0.537-0.607-1.161-1.12-1.873C136.021,353.116,135.484,352.457,134.924,351.85z M131.004,358.36v2.59h9.45
			v-2.59H131.004z M131.004,362.385v2.835h9.45v-2.835H131.004z"/>
		<path fill="#737F8A" d="M168.279,362.7h-4.06v16.31h-1.645V362.7h-6.65c-0.023,1.983-0.175,3.938-0.455,5.862
			c-0.28,1.925-0.782,3.78-1.505,5.565c-0.723,1.785-1.797,3.47-3.22,5.057c-0.14-0.164-0.338-0.356-0.595-0.577
			c-0.257-0.222-0.49-0.391-0.7-0.508c1.33-1.493,2.339-3.074,3.027-4.742c0.688-1.668,1.161-3.407,1.417-5.215
			c0.256-1.808,0.396-3.623,0.42-5.442h-4.865v-1.61h4.9v-0.21v-9.695h-4.375v-1.61h17.745v1.61h-3.5v9.905h4.06V362.7z
			 M155.959,361.09h6.615v-9.905h-6.615v9.66V361.09z M179.935,367.075l1.54,0.665c-0.98,1.54-2.188,3.022-3.623,4.445
			c-1.435,1.424-3.01,2.719-4.725,3.885s-3.495,2.158-5.337,2.975c-0.164-0.187-0.356-0.415-0.578-0.683
			c-0.222-0.269-0.438-0.484-0.647-0.647c1.82-0.724,3.576-1.633,5.268-2.73c1.691-1.097,3.237-2.322,4.638-3.675
			C177.87,369.957,179.024,368.545,179.935,367.075z M177.834,347.965l1.575,0.7c-0.84,1.004-1.826,2.007-2.958,3.01
			c-1.132,1.003-2.31,1.931-3.535,2.782c-1.225,0.852-2.421,1.593-3.587,2.223c-0.164-0.187-0.362-0.391-0.595-0.612
			c-0.233-0.222-0.443-0.414-0.63-0.578c1.143-0.583,2.315-1.283,3.518-2.1c1.202-0.816,2.351-1.691,3.447-2.625
			C176.166,349.832,177.087,348.899,177.834,347.965z M179.024,357.555l1.505,0.665c-0.887,1.097-1.942,2.182-3.167,3.255
			c-1.225,1.074-2.508,2.083-3.85,3.028c-1.342,0.945-2.655,1.756-3.938,2.432c-0.14-0.187-0.327-0.396-0.56-0.63
			c-0.233-0.233-0.444-0.432-0.63-0.595c1.236-0.63,2.52-1.383,3.85-2.258s2.59-1.825,3.78-2.853
			C177.205,359.574,178.208,358.559,179.024,357.555z"/>
	</g>
</g>
<g>
	<g>
		<path fill="#FFFFFF" d="M86.75,806.054v11.25c-0.25,29.5-2.25,64.5-15.75,98.75c10.5,10.5,19.5,20.75,25.25,29l-7.5,8.5
			c-5.5-7.5-13.25-17-22.25-26.75c-9,18.25-21,35.75-38.25,52c-2-2.25-6-5.25-8.75-6.75c18-16.75,30.5-35,38.75-53.5
			c-10.5-10.5-21.75-20.75-32.25-29.75c4.25-17.5,9.25-42.75,13.5-68.75l-18,1l-0.5-11.75c6.25-0.25,12.75-0.5,20.25-0.75
			c2.5-19.75,5-39.5,6.25-56.5l10.5,0.5c-1.5,16.75-3.75,36-6.25,55.25l24.5-1.25v-19.75h10.5V806.054z M50,819.304
			c-4,24.5-8.5,48.25-12.25,66.25c8.25,6.75,16.75,14.5,25,22.25c11.5-31.25,13.25-63,13.5-90L50,819.304z M115.25,843.554v135H104
			v-214.75h57.75v79.75H115.25z M115.25,774.054v24.5h36.25v-24.5H115.25z M151.5,833.304v-25h-36.25v25H151.5z M200.5,951.304
			c0,6-1,8.75-5.25,10.75c-4.25,1.75-11.25,2-22.25,2c-0.25-3-2-6.75-3.25-9.75c8.75,0.25,15.5,0.25,17.75,0c2.5,0,3-0.75,3-3v-25
			H151v41.5h-10v-108.25h59.5V951.304z M151,869.304v18.75h39.5v-18.75H151z M190.5,917.054v-19.75H151v19.75H190.5z M240,960.304
			c0,8-1.75,12-6.75,14c-5.25,2.25-14.25,2.5-27.75,2.5c-0.75-3.25-2.75-8.75-4.5-12.25c11,0.25,21,0.25,24,0c3,0,4-1,4-4.25
			v-116.75h-48.75v-79.75H240V960.304z M190.5,774.054v24.5H229v-24.5H190.5z M229,833.304v-25h-38.5v25H229z"/>
		<path fill="#FFFFFF" d="M386,925.054c-12.25,13.5-25,26-37.75,36l124.75-6.25c-9.25-8.25-19.5-17-28.75-23.75l9.25-5.5
			c19.25,14,42.25,34.25,53.5,48l-10.25,6.25c-3.25-4.75-8.25-10-13.75-15.5c-135.25,7.25-146.75,7.75-154,10.5
			c-0.75-2.75-2.5-9-4-12.5c4-0.5,8.5-3.5,13.5-7.5c4.75-3.5,18.75-15.75,30.75-29.75h-69.5v-10.5H520v10.5H386z M318,838.304
			h-11.25v-51.75h97.5v-17.25h-84.5v-10.25H500.5v10.25H416v17.25h97.5v51.75H502v-42.25h-86v72.25h-11.75v-72.25H318V838.304z
			 M324.25,861.304c16.25-5.25,39.5-14.25,62.25-22.75l2.25,9c-20.5,8.75-41.5,17.5-58.75,24.25L324.25,861.304z M490.75,892.304
			H327.5v-10.25h163.25V892.304z M336.75,805.304c16.75,5,38.5,13.25,50,18.75l-4.75,8.5c-11.25-5.75-33-14.25-50-20L336.75,805.304
			z M490.5,814.054c-15.5,7.5-38.75,14.25-55,17.75l-5.25-7c16.25-4.25,40.25-13.25,53.5-19L490.5,814.054z M494.5,871.054
			c-14.5-7.25-42-18-63.5-24.5l4.75-7.5c21.25,5.75,48.5,15.75,63.25,23.5L494.5,871.054z"/>
		<path fill="#FFFFFF" d="M590.5,918.554v31h-10.25v-175.5h46v144.5H590.5z M590.5,784.804v123H616v-123H590.5z M648.75,858.804
			c-2.75,31.25-8,60.25-18.75,80c-1.75-1.75-6-4.25-8.75-5.75c11.25-18.75,15.25-46.25,17.5-75.5L648.75,858.804z M690.5,842.804
			v122.5c0,6-1.25,8.25-4.75,10.25c-3.75,1.75-9.5,1.75-18.5,1.75c-0.5-2.5-2-6.25-3.5-9h14.5c1.75,0,2.5-0.75,2.5-2.75v-122.75h-19
			v135h-9.5v-135h-19v-10.75h34v-33.75H638v-10.5h29.25v-35.75h11.25v35.75h29.25v10.5H678.5v33.75h31.25v10.75H690.5z
			 M700.5,860.054c5,11.75,10.25,26.5,12.75,37.5c3.5-12,5.5-25.5,6.75-39.75l9.75,1.25c-3,27.75-8.75,52.5-20.25,69.25
			c-1.75-1.5-6-4.5-8.5-5.75c4.75-6.5,8.5-13.75,11.25-22l-7.75,2c-1.75-11-7-27.75-12.75-40.75L700.5,860.054z M773.5,842.804
			v122.75c0,5.75-1.25,8.25-4.75,10s-9.25,2-18.25,2c-0.5-2.5-2.25-6.5-3.75-9h14.5c2,0,2.5-0.75,2.5-2.75v-123H743v135.75h-9.5
			v-135.75h-18v-10.75H749v-33.75h-28.75v-10.5H749v-35.75h11.25v35.75h34.5v10.5h-34.5v33.75h38.5v10.75H773.5z M783.75,855.304
			c7.75,21.25,14.75,48.75,17,66.75l-9.75,3c-2-18-9-45.5-16.25-66.75L783.75,855.304z"/>
		<path fill="#FFFFFF" d="M1007.25,846.054c16.75,21.25,44.75,42,69.25,51.75c-2.75,2.5-6.5,6.5-8.25,9.75
			c-26.75-12-56.5-36.5-74-61.5h-70c-17,27-43.75,49-71.25,63.25c-1.75-2.25-6.5-6.75-9.25-8.5c26.5-12.75,51.25-32,67-54.75H850
			v-11.5h63.5v-38.5h-47v-11.25h47v-33.5h11.75v33.5H994v-33.5h12v33.5h47.5v11.25H1006v38.5h64.75v11.5H1007.25z M869,947.554
			c15.5-14,27.5-37.5,34.5-56l10.25,4.25c-7.5,18.75-19,42.75-34.75,57.75L869,947.554z M925.25,834.554H994v-38.5h-68.75V834.554z
			 M938.5,870.304h11.75v108.25H938.5V870.304z M978.25,893.054c8,17.25,16,39.5,19,54.25l-10.5,2.75c-3-14.5-11-37.25-18.5-54.5
			L978.25,893.054z M1010.25,885.804c16.25,18.5,33.5,44,40.5,61.25l-10,5c-7.25-17.25-24.25-43.25-40.25-62L1010.25,885.804z"/>
	</g>
</g>
<g>
	<g>
		<path fill="#737F8A" d="M33.95,704.31L17.5,732.8L1.05,704.31H33.95z"/>
		<path fill="#737F8A" d="M75.669,711.031h-12.25c1.073,1.143,2.328,2.246,3.763,3.307c1.435,1.063,2.934,2.025,4.498,2.888
			c1.563,0.864,3.068,1.563,4.515,2.101c-0.21,0.163-0.426,0.373-0.647,0.629c-0.222,0.258-0.391,0.502-0.507,0.736
			c-1.54-0.631-3.145-1.453-4.813-2.469c-1.668-1.015-3.261-2.141-4.777-3.377c-1.517-1.236-2.835-2.508-3.955-3.814h-0.42v7.35
			h-1.68v-7.35H59.01c-1.074,1.399-2.363,2.753-3.868,4.06c-1.505,1.308-3.086,2.485-4.743,3.534
			c-1.657,1.051-3.267,1.902-4.83,2.556c-0.117-0.21-0.286-0.442-0.507-0.7c-0.222-0.256-0.438-0.467-0.647-0.63
			c1.493-0.56,3.016-1.295,4.567-2.205c1.552-0.909,3.033-1.937,4.445-3.079c1.411-1.144,2.642-2.322,3.692-3.535h-12.18v-1.576
			h14.455v-4.409c-1.867,0.187-3.763,0.35-5.688,0.489c-1.925,0.141-3.786,0.27-5.583,0.386c-0.023-0.21-0.082-0.455-0.175-0.735
			c-0.094-0.279-0.187-0.525-0.28-0.734c2.006-0.117,4.078-0.257,6.212-0.42c2.135-0.164,4.229-0.361,6.283-0.596
			c2.053-0.232,3.96-0.49,5.723-0.77c1.761-0.28,3.272-0.596,4.532-0.945l1.4,1.33c-1.423,0.373-3.063,0.706-4.917,0.998
			c-1.855,0.291-3.797,0.565-5.827,0.822v4.584h14.595V711.031z M50.154,733.045V719.43h20.72v13.545h-1.68v-1.295H51.799v1.365
			H50.154z M69.194,720.865H51.799v3.92h17.395V720.865z M51.799,730.246h17.395v-4.096H51.799V730.246z"/>
		<path fill="#737F8A" d="M86.205,714.705l-0.945,1.4c-0.42-0.42-0.963-0.857-1.628-1.313s-1.382-0.904-2.152-1.348
			c-0.77-0.442-1.528-0.828-2.275-1.154l0.98-1.225c0.723,0.303,1.47,0.67,2.24,1.102s1.488,0.863,2.153,1.295
			S85.785,714.308,86.205,714.705z M111.334,713.935h-6.72c0.816,1.61,1.866,3.115,3.15,4.516c1.283,1.399,2.636,2.449,4.06,3.149
			c-0.187,0.163-0.403,0.374-0.647,0.63c-0.245,0.258-0.426,0.49-0.542,0.7c-0.934-0.536-1.838-1.219-2.713-2.048
			c-0.875-0.828-1.686-1.744-2.432-2.747v7.21h-11.34v4.34c0,0.584,0.151,0.963,0.455,1.138c0.303,0.175,1.026,0.263,2.17,0.263
			h8.365c0.606,0,1.067-0.1,1.382-0.298s0.531-0.595,0.647-1.19c0.117-0.594,0.198-1.486,0.245-2.677
			c0.21,0.163,0.46,0.298,0.752,0.402c0.292,0.104,0.554,0.192,0.788,0.263c-0.07,1.33-0.216,2.362-0.438,3.098
			c-0.222,0.734-0.583,1.248-1.085,1.539c-0.502,0.292-1.243,0.438-2.223,0.438h-8.435c-1.097,0-1.955-0.076-2.572-0.227
			c-0.619-0.152-1.05-0.449-1.295-0.893c-0.245-0.443-0.368-1.073-0.368-1.891v-10.99c-1.517,1.914-3.104,3.431-4.76,4.551
			c-0.233-0.373-0.56-0.735-0.98-1.086c-0.747,1.728-1.587,3.53-2.52,5.408c-0.933,1.879-1.808,3.541-2.625,4.987l-1.47-1.05
			c0.56-0.91,1.178-1.988,1.855-3.237c0.676-1.248,1.348-2.573,2.013-3.973c0.665-1.399,1.277-2.753,1.837-4.06l1.33,1.015
			l-0.21,0.455c1.283-0.817,2.543-1.931,3.78-3.343c1.236-1.412,2.251-2.875,3.045-4.393H87.01v-1.609h6.475v-4.936h-4.935v-1.54
			h4.935v-4.479h1.645v4.479h7.945v-4.479h1.645v4.479h5.67v1.54h-5.67v4.936h6.615V713.935z M87.885,705.675l-1.015,1.365
			c-0.397-0.443-0.922-0.91-1.575-1.4c-0.653-0.49-1.359-0.975-2.117-1.453c-0.759-0.477-1.5-0.892-2.223-1.242l1.015-1.189
			c0.723,0.326,1.458,0.717,2.205,1.172s1.453,0.922,2.118,1.4S87.487,705.255,87.885,705.675z M93.1,717.96h12.25
			c-0.98-1.307-1.762-2.648-2.345-4.025h-7.49c-0.304,0.678-0.665,1.354-1.085,2.03S93.566,717.307,93.1,717.96z M103.915,723.91
			v-4.515h-9.765v4.515H103.915z M95.129,707.39v4.936h7.945v-4.936H95.129z"/>
		<path fill="#737F8A" d="M145.145,720.236v1.645h-14v8.855c0,0.582-0.1,1.025-0.297,1.33c-0.199,0.303-0.531,0.524-0.998,0.664
			c-0.49,0.163-1.172,0.257-2.047,0.28c-0.875,0.022-2.048,0.035-3.518,0.035c-0.07-0.257-0.181-0.531-0.333-0.823
			c-0.152-0.291-0.298-0.555-0.438-0.787c1.26,0.023,2.356,0.035,3.29,0.035c0.933,0,1.54-0.012,1.82-0.035
			c0.303-0.023,0.507-0.082,0.612-0.175c0.105-0.094,0.158-0.257,0.158-0.49v-8.89h-14.07v-1.645h14.07v-2.381
			c1.236-0.582,2.502-1.313,3.797-2.188s2.444-1.756,3.448-2.643h-15.715v-1.609h17.395l0.385-0.07l1.19,0.84
			c-1.144,1.189-2.508,2.346-4.095,3.465c-1.587,1.12-3.138,2.077-4.655,2.87v1.716H145.145z M117.529,706.83v5.041h-1.645v-6.65
			h14.21c-0.234-0.561-0.542-1.166-0.928-1.82c-0.385-0.652-0.776-1.236-1.172-1.75l1.575-0.56c0.49,0.63,0.963,1.324,1.417,2.083
			c0.455,0.758,0.799,1.44,1.033,2.047h12.67v6.65h-1.715v-5.041H117.529z"/>
		<path fill="#737F8A" d="M168.279,716.701h-4.06v16.31h-1.645v-16.31h-6.65c-0.023,1.982-0.175,3.938-0.455,5.861
			c-0.28,1.926-0.782,3.781-1.505,5.566c-0.723,1.784-1.797,3.47-3.22,5.057c-0.14-0.164-0.338-0.355-0.595-0.577
			s-0.49-0.392-0.7-0.508c1.33-1.493,2.339-3.073,3.027-4.742c0.688-1.668,1.161-3.407,1.417-5.216
			c0.256-1.807,0.396-3.622,0.42-5.441h-4.865v-1.61h4.9v-0.21v-9.695h-4.375v-1.609h17.745v1.609h-3.5v9.905h4.06V716.701z
			 M155.959,715.09h6.615v-9.905h-6.615v9.66V715.09z M179.935,721.076l1.54,0.664c-0.98,1.541-2.188,3.022-3.623,4.445
			c-1.435,1.424-3.01,2.719-4.725,3.885c-1.715,1.167-3.495,2.158-5.337,2.976c-0.164-0.187-0.356-0.415-0.578-0.683
			c-0.222-0.269-0.438-0.484-0.647-0.647c1.82-0.724,3.576-1.634,5.268-2.729c1.691-1.098,3.237-2.322,4.638-3.676
			C177.87,723.957,179.024,722.545,179.935,721.076z M177.834,701.965l1.575,0.7c-0.84,1.004-1.826,2.007-2.958,3.01
			c-1.132,1.004-2.31,1.932-3.535,2.782c-1.225,0.853-2.421,1.593-3.587,2.223c-0.164-0.187-0.362-0.391-0.595-0.612
			c-0.233-0.222-0.443-0.414-0.63-0.578c1.143-0.582,2.315-1.283,3.518-2.1c1.202-0.816,2.351-1.691,3.447-2.625
			S177.087,702.899,177.834,701.965z M179.024,711.555l1.505,0.665c-0.887,1.098-1.942,2.182-3.167,3.255
			c-1.225,1.073-2.508,2.083-3.85,3.028c-1.342,0.944-2.655,1.756-3.938,2.432c-0.14-0.187-0.327-0.396-0.56-0.63
			c-0.233-0.233-0.444-0.432-0.63-0.595c1.236-0.631,2.52-1.383,3.85-2.258s2.59-1.825,3.78-2.853
			C177.205,713.574,178.208,712.558,179.024,711.555z"/>
	</g>
</g>
<g>
	<g>
		<path fill="#737F8A" d="M33.95,4.62L17.5,33.11L1.05,4.62H33.95z"/>
		<path fill="#737F8A" d="M52.604,1.785l1.61,0.455c-1.05,2.66-2.31,5.227-3.78,7.7v23.345h-1.61v-20.86
			c-0.677,1.003-1.371,1.942-2.083,2.817c-0.712,0.875-1.441,1.686-2.188,2.433c-0.094-0.163-0.245-0.414-0.455-0.752
			c-0.21-0.338-0.397-0.589-0.56-0.752c1.213-1.167,2.38-2.52,3.5-4.06s2.152-3.19,3.098-4.953
			C51.082,5.396,51.904,3.605,52.604,1.785z M70.91,21.175v2.765h5.25v1.47h-5.25v5.845c0,0.537-0.082,0.95-0.245,1.242
			c-0.164,0.292-0.479,0.496-0.945,0.613c-0.444,0.14-1.103,0.215-1.978,0.228c-0.875,0.011-2.001,0.018-3.377,0.018
			c-0.047-0.234-0.129-0.49-0.245-0.77c-0.117-0.28-0.233-0.537-0.35-0.77c1.236,0.023,2.275,0.041,3.115,0.052
			c0.84,0.012,1.411,0.005,1.715-0.018c0.303-0.023,0.496-0.076,0.578-0.157c0.081-0.082,0.122-0.24,0.122-0.473v-5.81H52.745v-1.47
			h16.555v-2.73c-2.893,0.093-5.717,0.181-8.47,0.262c-2.753,0.082-5.168,0.146-7.245,0.193L53.41,20.16
			c1.376-0.023,2.951-0.046,4.725-0.07c1.773-0.023,3.651-0.046,5.635-0.07v-2.59h-8.505v-9.1h8.505V5.95h-9.94V4.515h9.94v-2.59
			h1.645v2.59h10.36V5.95h-10.36v2.38h8.75v9.1H70.77c1.026,0.654,2.053,1.4,3.08,2.24c1.026,0.84,1.832,1.587,2.415,2.24
			l-1.295,0.91c-0.234-0.256-0.496-0.542-0.788-0.857c-0.292-0.315-0.625-0.624-0.998-0.928v0.07L70.91,21.175z M56.839,9.59v2.66
			h6.93V9.59H56.839z M56.839,16.135h6.93v-2.66h-6.93V16.135z M56.839,26.705l1.225-0.805c0.56,0.42,1.138,0.904,1.732,1.453
			c0.595,0.548,1.149,1.091,1.663,1.627c0.513,0.537,0.921,1.015,1.225,1.435L61.39,31.43c-0.444-0.653-1.097-1.429-1.96-2.327
			C58.566,28.205,57.703,27.405,56.839,26.705z M72.555,9.59h-7.14v2.66h7.14V9.59z M72.555,16.135v-2.66h-7.14v2.66H72.555z
			 M65.415,17.43v2.555c1.026-0.046,2.07-0.082,3.132-0.105c1.062-0.023,2.129-0.046,3.203-0.07c-0.443-0.35-0.887-0.688-1.33-1.015
			c-0.443-0.327-0.887-0.642-1.33-0.945l0.665-0.42H65.415z"/>
		<path fill="#737F8A" d="M81.095,23.73l1.47,0.28c-0.233,1.494-0.52,3.01-0.857,4.55c-0.338,1.54-0.694,2.858-1.067,3.955
			c-0.164-0.093-0.391-0.192-0.683-0.297c-0.292-0.105-0.531-0.192-0.717-0.263c0.42-1.097,0.781-2.385,1.085-3.867
			C80.627,26.606,80.885,25.154,81.095,23.73z M91.665,21.91l-1.54,0.49c-0.047-0.327-0.117-0.665-0.21-1.015
			c-0.094-0.35-0.199-0.735-0.315-1.155c-1.983,0.303-3.57,0.548-4.76,0.735c-1.19,0.187-2.1,0.345-2.73,0.473
			c-0.63,0.128-1.085,0.233-1.365,0.315c-0.28,0.082-0.49,0.157-0.63,0.228c-0.047-0.187-0.129-0.455-0.245-0.805
			c-0.117-0.35-0.233-0.642-0.35-0.875c0.327-0.07,0.706-0.315,1.138-0.735c0.431-0.42,0.904-0.945,1.417-1.575
			c0.326-0.327,0.805-0.91,1.435-1.75c0.63-0.84,1.33-1.808,2.1-2.905c-1.493,0.164-2.625,0.303-3.395,0.42
			c-0.77,0.117-1.313,0.21-1.627,0.28c-0.315,0.07-0.554,0.14-0.717,0.21c-0.023-0.187-0.094-0.46-0.21-0.822
			c-0.117-0.361-0.222-0.659-0.315-0.893c0.256-0.046,0.542-0.245,0.857-0.595c0.315-0.35,0.659-0.793,1.032-1.33
			c0.257-0.35,0.67-0.992,1.243-1.925c0.571-0.933,1.19-2.024,1.855-3.272C84.997,4.16,85.586,2.894,86.1,1.61l1.61,0.665
			c-0.817,1.773-1.727,3.535-2.73,5.285c-1.003,1.75-2.03,3.314-3.08,4.69l4.725-0.49c1.003-1.47,1.901-2.998,2.695-4.585
			l1.54,0.805c-1.26,2.17-2.607,4.276-4.042,6.317c-1.435,2.042-2.887,3.868-4.357,5.478l6.755-0.91
			c-0.21-0.653-0.432-1.307-0.665-1.96c-0.233-0.653-0.479-1.271-0.735-1.855l1.435-0.35c0.35,0.77,0.683,1.599,0.998,2.485
			c0.315,0.887,0.601,1.745,0.857,2.573C91.361,20.586,91.547,21.304,91.665,21.91z M84.49,23.905l1.365-0.245
			c0.21,1.214,0.408,2.532,0.595,3.955c0.187,1.423,0.315,2.648,0.385,3.675l-1.435,0.28c-0.023-0.7-0.082-1.487-0.175-2.362
			c-0.094-0.875-0.205-1.779-0.333-2.713C84.764,25.563,84.629,24.699,84.49,23.905z M87.745,23.24l1.295-0.315
			c0.373,0.98,0.747,2.054,1.12,3.22c0.373,1.167,0.641,2.182,0.805,3.045L89.6,29.61c-0.164-0.863-0.42-1.89-0.77-3.08
			S88.118,24.244,87.745,23.24z M96.459,18.375h1.61c-0.07,2.73-0.297,5.063-0.682,7c-0.385,1.937-1.08,3.552-2.083,4.847
			c-1.004,1.295-2.497,2.351-4.48,3.167c-0.094-0.187-0.245-0.408-0.455-0.665s-0.409-0.467-0.595-0.63
			c1.867-0.724,3.267-1.668,4.2-2.835c0.933-1.167,1.563-2.636,1.89-4.41C96.191,23.077,96.39,20.919,96.459,18.375z
			 M110.529,17.291l-1.4,0.805c-0.187-0.35-0.408-0.747-0.665-1.19c-0.257-0.443-0.548-0.898-0.875-1.365
			c-2.52,0.233-4.626,0.432-6.317,0.595c-1.692,0.164-3.051,0.297-4.078,0.402s-1.82,0.193-2.38,0.263s-0.975,0.135-1.242,0.192
			c-0.269,0.059-0.485,0.123-0.648,0.192c-0.023-0.233-0.111-0.525-0.262-0.875c-0.152-0.35-0.274-0.618-0.368-0.805
			c0.28-0.07,0.595-0.169,0.945-0.297c0.35-0.128,0.676-0.344,0.98-0.648c0.21-0.21,0.501-0.56,0.875-1.05
			c0.373-0.49,0.793-1.05,1.26-1.68c0.466-0.63,0.933-1.271,1.4-1.925c0.467-0.653,0.875-1.236,1.225-1.75h-6.79V6.58h8.12
			c-0.28-0.676-0.612-1.423-0.998-2.24c-0.385-0.816-0.776-1.552-1.172-2.205l1.47-0.49c0.467,0.77,0.928,1.622,1.383,2.555
			c0.455,0.934,0.822,1.727,1.103,2.38h8.295v1.575h-9.415c-0.467,0.677-1.003,1.435-1.61,2.275
			c-0.607,0.84-1.208,1.668-1.803,2.485s-1.138,1.54-1.627,2.17l10.78-0.875c-0.443-0.677-0.904-1.342-1.382-1.995
			c-0.479-0.653-0.951-1.271-1.417-1.855l1.33-0.7c0.63,0.817,1.283,1.692,1.96,2.625c0.676,0.934,1.313,1.837,1.907,2.712
			C109.707,15.873,110.18,16.637,110.529,17.291z M105.314,30.975h3.115c0.303,0,0.525-0.105,0.665-0.315
			c0.14-0.21,0.245-0.647,0.315-1.313c0.07-0.665,0.116-1.663,0.14-2.992c0.187,0.164,0.42,0.31,0.7,0.438
			c0.28,0.128,0.537,0.216,0.77,0.262c-0.047,1.47-0.14,2.596-0.28,3.377c-0.14,0.782-0.38,1.324-0.718,1.627
			c-0.338,0.303-0.811,0.455-1.417,0.455h-3.465c-0.98,0-1.64-0.164-1.978-0.49c-0.338-0.327-0.508-0.98-0.508-1.96V18.34h1.61
			v11.69c0,0.397,0.064,0.653,0.192,0.77C104.585,30.917,104.871,30.975,105.314,30.975z"/>
		<path fill="#737F8A" d="M121.555,6.16h-2.065c-1.05,1.68-2.194,3.139-3.43,4.375c-0.164-0.14-0.385-0.309-0.665-0.507
			s-0.537-0.355-0.77-0.473c1.12-1.003,2.164-2.205,3.132-3.605s1.744-2.846,2.328-4.34l1.575,0.42
			c-0.187,0.443-0.385,0.893-0.595,1.348s-0.443,0.904-0.7,1.347h9.66V6.16h-6.755c0.396,0.56,0.775,1.138,1.138,1.732
			c0.361,0.595,0.624,1.126,0.787,1.593l-1.505,0.56c-0.187-0.513-0.479-1.125-0.875-1.837
			C122.417,7.496,121.998,6.814,121.555,6.16z M142.135,20.965h-11.13v2.555h12.145v1.435h-12.145v2.765h14.455v1.435h-14.455v4.165
			h-1.645v-4.165h-14.175V27.72h14.175v-2.765h-11.9v-1.435h11.9v-2.555h-10.745V19.53h10.745v-2.835h-14.7V15.26h14.7v-2.59h-10.5
			v-1.365h10.5v-2.1h1.645v2.1h11.13v3.955h3.815v1.435h-3.815V20.965z M134.924,6.16h-2.835c-1.144,1.424-2.403,2.66-3.78,3.71
			c-0.164-0.14-0.385-0.309-0.665-0.507c-0.28-0.198-0.525-0.344-0.735-0.438c1.283-0.887,2.473-1.965,3.57-3.237
			c1.097-1.271,1.96-2.631,2.59-4.078l1.61,0.385c-0.21,0.467-0.444,0.928-0.7,1.383c-0.257,0.455-0.525,0.904-0.805,1.347h12.46
			V6.16h-8.785c0.466,0.514,0.898,1.05,1.295,1.61c0.396,0.56,0.711,1.062,0.945,1.505l-1.435,0.735
			c-0.233-0.537-0.607-1.161-1.12-1.873C136.021,7.426,135.484,6.767,134.924,6.16z M131.004,12.67v2.59h9.45v-2.59H131.004z
			 M131.004,16.695v2.835h9.45v-2.835H131.004z"/>
		<path fill="#737F8A" d="M168.279,17.01h-4.06v16.31h-1.645V17.01h-6.65c-0.023,1.983-0.175,3.938-0.455,5.862
			c-0.28,1.925-0.782,3.78-1.505,5.565c-0.723,1.785-1.797,3.47-3.22,5.057c-0.14-0.164-0.338-0.356-0.595-0.577
			c-0.257-0.222-0.49-0.391-0.7-0.508c1.33-1.493,2.339-3.074,3.027-4.742c0.688-1.668,1.161-3.407,1.417-5.215
			c0.256-1.808,0.396-3.623,0.42-5.442h-4.865V15.4h4.9v-0.21V5.495h-4.375v-1.61h17.745v1.61h-3.5V15.4h4.06V17.01z M155.959,15.4
			h6.615V5.495h-6.615v9.66V15.4z M179.935,21.385l1.54,0.665c-0.98,1.54-2.188,3.022-3.623,4.445
			c-1.435,1.424-3.01,2.719-4.725,3.885s-3.495,2.158-5.337,2.975c-0.164-0.187-0.356-0.415-0.578-0.683
			c-0.222-0.269-0.438-0.484-0.647-0.647c1.82-0.724,3.576-1.633,5.268-2.73c1.691-1.097,3.237-2.322,4.638-3.675
			C177.87,24.267,179.024,22.855,179.935,21.385z M177.834,2.275l1.575,0.7c-0.84,1.004-1.826,2.007-2.958,3.01
			c-1.132,1.003-2.31,1.931-3.535,2.782c-1.225,0.852-2.421,1.593-3.587,2.223c-0.164-0.187-0.362-0.391-0.595-0.612
			c-0.233-0.222-0.443-0.414-0.63-0.578c1.143-0.583,2.315-1.283,3.518-2.1c1.202-0.816,2.351-1.691,3.447-2.625
			C176.166,4.142,177.087,3.209,177.834,2.275z M179.024,11.865l1.505,0.665c-0.887,1.097-1.942,2.182-3.167,3.255
			c-1.225,1.074-2.508,2.083-3.85,3.028c-1.342,0.945-2.655,1.756-3.938,2.432c-0.14-0.187-0.327-0.396-0.56-0.63
			c-0.233-0.233-0.444-0.432-0.63-0.595c1.236-0.63,2.52-1.383,3.85-2.258s2.59-1.825,3.78-2.853
			C177.205,13.884,178.208,12.869,179.024,11.865z"/>
	</g>
</g>
<g>
	<g>
		<path fill="#FFFFFF" d="M95.25,451.305c-2.75,47-9.75,83.25-21,111c10,9.5,18.5,18.75,24.25,27l-8.5,8.25
			c-4.75-7.25-12.25-15.75-20.75-24.25c-11,23-25.25,39.25-43,50.5c-1.75-3-4.75-7.75-7.5-9.75c16.75-10,31-26,42-49
			c-11-10.25-23.25-20.25-35-28.25c7-20,13-47.25,18-75.25h-20v-11H45.5c2.75-18.5,5-36.75,6.75-53.25l11.75,1.25
			c-2,16.25-4.5,34-7.5,52h30l2.25-0.5L95.25,451.305z M54.75,461.555c-4.75,25.5-10.25,50.75-16.5,71.25
			c9,6.5,18.5,13.75,27.25,21.25c9.25-24,15.5-54.5,18.5-92.5H54.75z M113,489.555v135h-11v-214.75h57.5v79.75H113z M113,420.055
			v24.5h36.25v-24.5H113z M149.25,479.305v-25H113v25H149.25z M198.5,597.554c0,5.75-1,8.75-5,10.75c-4.25,1.75-11.25,2-22,2
			c-0.25-3-2-7-3.25-10c8.75,0.25,15.25,0.25,17.5,0.25c2.5-0.25,3-1,3-3v-22.75H149c-1.75,13.5-5.25,27.5-13,38.25
			c-1.75-2-5.75-5-8.25-6c11.5-16.25,12.75-38,12.75-55.25v-44h58V597.554z M188.75,565.554v-19.75h-38.5v6c0,4,0,8.75-0.5,13.75
			H188.75z M150.25,517.304v19h38.5v-19H150.25z M238.25,606.304c0,8-1.75,12-7,14c-5,2.25-14,2.5-28,2.5
			c-0.5-3.25-2.5-8.75-4.25-12.25c11.25,0.25,21,0.25,24.25,0c2.75,0,3.75-1,3.75-4.25v-116.75h-48v-79.75h59.25V606.304z
			 M189.5,420.055v24.5H227v-24.5H189.5z M227,479.305v-25h-37.5v25H227z"/>
		<path fill="#FFFFFF" d="M384.25,571.054c-11.5,13.5-24,25.75-36,35.75l124.25-6c-9-8.5-19.25-17-28.75-23.75l9.5-5.5
			c19.5,13.75,42.5,34,53.5,47.75l-10.25,6.5c-3.25-4.75-8.25-10-13.75-15.5c-134.25,7.25-146,7.75-153.25,10.5
			c-0.75-2.75-2.75-8.75-4.25-12.25c4-0.5,8.25-3.5,13.25-7.5c4.5-3.5,18-16,29.25-30h-68v-10.5h220.5v10.5H384.25z M318,493.054
			h-11.25v-52h96.5v-22.5h-84.5v-10.25h182.5v10.25H415v22.5h98.5v52H502v-41.75h-87v63.75h-11.75v-63.75H318V493.054z
			 M327.75,498.804H388v9.75h-60.25V498.804z M327.75,528.054H491v10.25H327.75V528.054z M387.75,470.055v9.5H333v-9.5H387.75z
			 M486.5,470.055v9.5h-55.75v-9.5H486.5z M494,508.554h-63.25v-9.75H494V508.554z"/>
		<path fill="#FFFFFF" d="M590.5,552.304v20.75h-10.25v-149h47.25v127.5c5-13.25,8.25-28.75,10.5-45.25l9.75,1.5
			c-3.75,28-11.25,53.25-23,70.5c-1.75-1.75-6.25-4.5-8.5-5.5c4.5-6,8-12.75,11-20.5H590.5z M590.5,434.805v106.75h26.75v-106.75
			H590.5z M690.25,491.804v119c0,6.25-1.5,9.25-6,11.25c-4.25,1.5-11.5,1.75-23.5,1.75c-0.75-2.5-2.5-6.75-3.75-9.75
			c9.5,0.25,17.5,0,20,0c2.5-0.25,3.25-0.75,3.25-3.25v-119h-17v30.25c0,32.75-4.75,71.75-41.5,103c-1.75-2.25-5-5-7.5-6.75
			c35.25-29.5,39.25-67.5,39.25-96.5v-30h-21v-10.75H667v-36.75h-28.75v-10.5H667v-35.75h11.5v35.75h29.25v10.5H678.5v36.75H710
			v10.75H690.25z M704.75,552.554c-1.5-11.25-7-28-12.75-40.5l8.5-3.25c5.25,11.75,10.5,26.75,12.75,37.5
			c3.5-12,5.5-25.25,6.75-39.75l9.5,1.5c-2.75,27.75-8.75,52.25-20.25,69c-1.5-1.75-5.75-4.25-7.75-5.5
			c4.5-6.25,8-13.75,10.75-22.25L704.75,552.554z M771.75,491.804v119c0,6.25-1.5,9.25-6,11.25c-4,1.75-11.5,1.75-24,1.75
			c-0.5-2.5-1.75-6.75-3.25-9.75c9.5,0.25,17.5,0,20,0c2.25-0.25,3.25-0.75,3.25-3.25v-119H745.5v33.75c0,32.5-4.5,69-37,98.75
			c-2-2-5.25-5-7.75-6.5c31.5-28,35-63.75,35-92.25v-33.75H715.5v-10.75H749v-36.75h-28.75v-10.5H749v-35.75h11.25v35.75h34.5v10.5
			h-34.5v36.75h38.5v10.75H771.75z M783.5,504.304c8,21,15.25,48.5,17.25,66.75l-9.5,3c-2-18.25-9-45.75-16.25-67L783.5,504.304z"/>
		<path fill="#FFFFFF" d="M1007.25,492.054c16.75,21.25,44.75,42,69.25,51.75c-2.75,2.5-6.5,6.5-8.25,9.75
			c-26.75-12-56.5-36.5-74-61.5h-70c-17,27-43.75,49-71.25,63.25c-1.75-2.25-6.5-6.75-9.25-8.5c26.5-12.75,51.25-32,67-54.75H850
			v-11.5h63.5v-38.5h-47v-11.25h47v-33.5h11.75v33.5H994v-33.5h12v33.5h47.5v11.25H1006v38.5h64.75v11.5H1007.25z M912.5,541.804
			c-7.75,17.75-18.75,40.25-33.75,54l-10.25-6c14.75-13,26.75-35.25,33.75-52.25L912.5,541.804z M938.75,516.304h11.5v91.5
			c0,8.25-1.75,11.5-7.75,13.75c-6.25,2-17.5,2-35.25,2c-0.5-3.5-2.25-8-4.25-11.5c15.5,0.5,27.5,0.5,31.25,0.25s4.5-1.25,4.5-4.25
			V516.304z M925.25,480.555H994v-38.5h-68.75V480.555z M978.25,538.804c9,16.75,16.25,38.5,18.75,53l-10.75,2.75
			c-2.25-14.25-9.5-36.5-18-53L978.25,538.804z M1010.25,531.804c16,18,32.75,43,39.75,59.75l-10.25,5
			c-6.75-16.5-23.5-42.25-39.25-60.5L1010.25,531.804z"/>
	</g>
</g>
<g>
	<g>
		<path fill="#FFFFFF" d="M89.5,105.055c-2.25,46.5-8.25,82.75-17.75,111c10.75,11,19.75,21.75,25.25,31l-7.75,9
			c-5-8.25-12.75-18.25-22-28.25c-9.25,22.75-21.5,39.25-36.5,50.75c-1.75-2.75-5-7.25-8-9.25c14.75-10.5,26.75-27.25,36-50.5
			c-7.5-7.5-15.5-15-23.25-21.5l-2.25,10.25l-10-5c4.75-21.75,11-54.5,16.25-87H21.75v-11H41.5c3-18.75,5.75-37,8-52.75l11,1
			c-2.25,15.75-5,33.5-8,51.75h28l2.25-0.5L89.5,105.055z M50.75,115.555c-4.25,24.5-8.75,49.25-13,70.25c8.5,6.5,17,13.75,25,21.5
			c8-24.5,13.25-54.75,15.5-91.75H50.75z M113,143.305v135h-11v-214.5h57.5v79.5H113z M113,74.055v24.25h36.25v-24.25H113z
			 M149.25,133.055v-25H113v25H149.25z M198.5,251.805c0,5.75-1,9-5.25,10.75c-4,1.75-11,1.75-21.75,1.75c-0.25-2.75-2-7-3.5-9.75
			c9,0.25,15.5,0.25,17.75,0.25c2.5-0.25,3-1,3-2.75v-23.5H149c-1.75,13.5-5.5,27.5-13,38.25c-2-2-6-4.75-8.25-5.75
			c11.5-16.5,12.75-38.25,12.75-55.5v-43.75h58V251.805z M188.75,219.305v-19.5h-38.5v5.75c0,4.25,0,9-0.5,13.75H188.75z
			 M150.25,171.305v19h38.5v-19H150.25z M238.25,261.555c0,7.75-1.75,11.75-7.25,14c-4.75,2-14,2.25-27.75,2.25
			c-0.5-3-2.25-8.75-4-12.25c11,0.5,20.75,0.25,24,0.25c2.75-0.25,3.5-1,3.5-4.25v-118.25H179v-79.5h59.25V261.555z M189.75,74.055
			v24.25h37v-24.25H189.75z M226.75,133.055v-25h-37v25H226.75z"/>
		<path fill="#FFFFFF" d="M381,225.055c-7.25,11.75-15.75,24.25-23.75,34.5c33.5-0.75,73.5-2,113.5-3.25
			c-10.25-7.75-21.5-15.75-32-22l9.25-6c21.5,12.75,47.5,32,60.25,46l-10,6.5c-4-4.5-9.25-9.5-15.25-14.75
			c-61.75,2.25-127,4.75-168.75,5.75l-1.25-11.25l31-0.75c7.5-10,16-23.25,22.25-34.75h-66.5v-10.5h220.5v10.5H381z M318,147.055
			h-11.25v-52.25h96.5v-22.25h-84.5v-10.25h182.5v10.25H415v22.25h98.5v52.25h-11.75v-42H415v63.75h-11.75v-63.75H318V147.055z
			 M327.75,152.805H388v9.75h-60.25V152.805z M327.75,181.805h163v10.25h-163V181.805z M387.75,124.055v9.5h-55v-9.5H387.75z
			 M486.5,124.055v9.5h-56v-9.5H486.5z M493.75,162.555H430.5v-9.75h63.25V162.555z"/>
		<path fill="#FFFFFF" d="M590.5,206.305v20.75h-10.25v-149h47.25v127.5c5-13.25,8.25-28.75,10.5-45.25l9.75,1.5
			c-3.75,28-11.25,53.25-23,70.5c-1.75-1.75-6.25-4.5-8.5-5.5c4.5-6,8-12.75,11-20.5H590.5z M590.5,88.805v106.75h26.75V88.805
			H590.5z M690.25,145.805v119c0,6.25-1.5,9.25-6,11.25c-4.25,1.5-11.5,1.75-23.5,1.75c-0.75-2.5-2.5-6.75-3.75-9.75
			c9.5,0.25,17.5,0,20,0c2.5-0.25,3.25-0.75,3.25-3.25v-119h-17v30.25c0,32.75-4.75,71.75-41.5,103c-1.75-2.25-5-5-7.5-6.75
			c35.25-29.5,39.25-67.5,39.25-96.5v-30h-21v-10.75H667v-36.75h-28.75v-10.5H667v-35.75h11.5v35.75h29.25v10.5H678.5v36.75H710
			v10.75H690.25z M704.75,206.555c-1.5-11.25-7-28-12.75-40.5l8.5-3.25c5.25,11.75,10.5,26.75,12.75,37.5
			c3.5-12,5.5-25.25,6.75-39.75l9.5,1.5c-2.75,27.75-8.75,52.25-20.25,69c-1.5-1.75-5.75-4.25-7.75-5.5
			c4.5-6.25,8-13.75,10.75-22.25L704.75,206.555z M771.75,145.805v119c0,6.25-1.5,9.25-6,11.25c-4,1.75-11.5,1.75-24,1.75
			c-0.5-2.5-1.75-6.75-3.25-9.75c9.5,0.25,17.5,0,20,0c2.25-0.25,3.25-0.75,3.25-3.25v-119H745.5v33.75c0,32.5-4.5,69-37,98.75
			c-2-2-5.25-5-7.75-6.5c31.5-28,35-63.75,35-92.25v-33.75H715.5v-10.75H749v-36.75h-28.75v-10.5H749v-35.75h11.25v35.75h34.5v10.5
			h-34.5v36.75h38.5v10.75H771.75z M783.5,158.305c8,21,15.25,48.5,17.25,66.75l-9.5,3c-2-18.25-9-45.75-16.25-67L783.5,158.305z"/>
		<path fill="#FFFFFF" d="M1007.25,146.055c16.75,21.25,44.5,42,69,51.75c-2.75,2.25-6.25,6.5-8,9.75c-26.75-12-56.5-36.5-74-61.5
			h-70c-17,27-43.75,49-71.25,63.25c-1.75-2.25-6.5-6.75-9.25-8.75c26.5-12.5,51.25-31.75,67-54.5H850v-11.5h63.5v-38.5h-47v-11.25
			h47v-33.5h11.75v33.5H994v-33.5h12v33.5h47.5v11.25H1006v38.5h64.75v11.5H1007.25z M912.5,195.805
			c-7.75,17.75-18.75,40.25-33.75,54l-10.25-6c14.75-13,26.75-35.25,33.75-52.25L912.5,195.805z M938.75,170.305h11.5v91.5
			c0,8.25-1.75,11.5-7.75,13.75c-6.25,2-17.5,2-35.25,2c-0.5-3.5-2.25-8-4.25-11.5c15.5,0.5,27.5,0.5,31.25,0.25s4.5-1.25,4.5-4.25
			V170.305z M925.25,134.555H994v-38.5h-68.75V134.555z M978.25,192.805c9,16.75,16.25,38.5,18.75,53l-10.75,2.75
			c-2.25-14.25-9.5-36.5-18-53L978.25,192.805z M1010.25,185.805c16,18,32.75,43,39.75,59.75l-10.25,5
			c-6.75-16.5-23.5-42.25-39.25-60.5L1010.25,185.805z"/>
	</g>
</g>
<g>
</g>
<g>
</g>
<g>
</g>
<g>
</g>
<g>
</g>
<g>
</g>
</svg>
