<?xml version="1.0" encoding="utf-8"?>
<!-- Generator: Adobe Illustrator 16.0.0, SVG Export Plug-In . SVG Version: 6.00 Build 0)  -->
<!DOCTYPE svg PUBLIC "-//W3C//DTD SVG 1.1//EN" "http://www.w3.org/Graphics/SVG/1.1/DTD/svg11.dtd">
<svg version="1.1" id="Layer_1" xmlns="http://www.w3.org/2000/svg" xmlns:xlink="http://www.w3.org/1999/xlink" x="0px" y="0px"
	 width="950px" height="352.211px" viewBox="0 0 950 352.211" enable-background="new 0 0 950 352.211" xml:space="preserve">
<g>
	<path fill="#FFFFFF" d="M8.783,64.465H3.354v-2.006c2.537-0.531,4.249-1.299,5.841-2.538h2.479v25.491H8.783V64.465z
		 M34.333,59.155h2.773l-23.956,44.549h-2.773L34.333,59.155z M39.702,95.621H28.196v-1.476l11.388-16.698h2.832v15.932h3.776v2.242
		h-3.776v7.316h-2.714V95.621z M39.702,93.378V87.89l0.295-6.845h-0.295l-3.541,5.37l-4.603,6.963H39.702z"/>
	<path fill="#FFFFFF" d="M58.992,64.465h-5.428v-2.006c2.537-0.531,4.249-1.299,5.841-2.538h2.479v25.491h-2.892V64.465z
		 M83.066,59.155h2.773l-23.956,44.549H59.11L83.066,59.155z M80.588,101.167c8.497-7.906,12.45-11.859,12.45-16.049
		c0-3.659-2.124-5.96-5.487-5.96c-2.301,0-4.367,1.771-5.783,3.953l-1.888-1.652c1.711-2.655,4.779-4.779,8.025-4.779
		c4.779,0,8.025,2.715,8.025,8.084c0,5.192-4.426,9.382-10.68,15.637h12.155v2.537H80.588V101.167z"/>
	<path fill="#FFFFFF" d="M103.123,81.282l2.125-1.593c1.593,2.419,4.071,4.13,6.962,4.13c3.127,0,5.724-1.947,5.724-5.251
		c0-3.305-3.304-5.134-8.733-5.134v-2.006c4.957,0,7.789-2.42,7.789-5.252c0-2.714-2.125-4.661-5.311-4.661
		c-2.006,0-4.071,1.416-5.605,3.363l-1.888-1.652c1.888-2.36,4.543-4.071,7.848-4.071c4.307,0,7.848,2.537,7.848,6.727
		c0,3.127-2.124,5.252-4.838,6.373c3.009,0.648,5.841,2.832,5.841,6.372c0,4.721-3.835,7.553-8.615,7.553
		C108.197,86.179,104.952,83.937,103.123,81.282z M139.175,59.155h2.714l-23.957,44.549h-2.714L139.175,59.155z M142.774,95.621
		h-11.506v-1.476l11.329-16.698h2.832v15.932h3.835v2.242h-3.835v7.316h-2.655V95.621z M142.774,93.378V87.89l0.295-6.845h-0.295
		l-3.54,5.37l-4.603,6.963H142.774z"/>
	<path fill="#FFFFFF" d="M157.875,51.012h47.205v59.006h-47.205V51.012z M160.825,104.648l18.764-24.133l-18.764-24.134V104.648z
		 M200.241,53.962h-37.527l18.764,24.133L200.241,53.962z M200.241,107.068l-18.764-24.134l-18.764,24.134H200.241z
		 M202.129,104.648V56.381l-18.764,24.134L202.129,104.648z"/>
	<path fill="#FFFFFF" d="M216.875,51.012h47.205v59.006h-47.205V51.012z M219.825,104.648l18.764-24.133l-18.764-24.134V104.648z
		 M259.241,53.962h-37.527l18.764,24.133L259.241,53.962z M259.241,107.068l-18.764-24.134l-18.764,24.134H259.241z
		 M261.129,104.648V56.381l-18.764,24.134L261.129,104.648z"/>
	<path fill="#FFFFFF" d="M275.875,51.012h47.205v59.006h-47.205V51.012z M278.825,104.648l18.764-24.133l-18.764-24.134V104.648z
		 M318.241,53.962h-37.527l18.764,24.133L318.241,53.962z M318.241,107.068l-18.764-24.134l-18.764,24.134H318.241z
		 M320.129,104.648V56.381l-18.764,24.134L320.129,104.648z"/>
	<path fill="#FFFFFF" d="M334.875,51.012h47.205v59.006h-47.205V51.012z M337.825,104.648l18.764-24.133l-18.764-24.134V104.648z
		 M377.241,53.962h-37.527l18.764,24.133L377.241,53.962z M377.241,107.068l-18.764-24.134l-18.764,24.134H377.241z
		 M379.129,104.648V56.381l-18.764,24.134L379.129,104.648z"/>
	<path fill="#FFFFFF" d="M393.875,51.012h47.205v59.006h-47.205V51.012z M396.825,104.648l18.764-24.133l-18.764-24.134V104.648z
		 M436.241,53.962h-37.527l18.764,24.133L436.241,53.962z M436.241,107.068l-18.764-24.134l-18.764,24.134H436.241z
		 M438.129,104.648V56.381l-18.764,24.134L438.129,104.648z"/>
	<path fill="#FFFFFF" d="M474.823,103.645c-4.367-0.354-8.438-2.597-10.975-5.016l1.77-2.419c2.538,2.301,6.019,4.543,10.386,4.543
		c5.369,0,8.26-3.127,8.26-7.729c0-12.391-18.763-9.087-18.763-22.245c0-5.605,3.894-9.677,9.323-10.326v-6.49h2.832v6.49
		c4.249,0.354,6.786,2.302,8.97,4.721l-1.947,2.124c-2.42-2.479-4.426-3.895-8.32-3.895c-4.425,0-7.376,3.068-7.376,7.199
		c0,10.975,18.705,7.435,18.705,22.186c0,6.196-4.13,10.208-10.031,10.857v6.49h-2.832V103.645z"/>
	<path fill="#FFFFFF" d="M495.293,100.813c4.721-2.655,6.904-7.435,6.904-12.45c0-1.534-0.236-3.01-0.59-4.484h-6.49v-2.42
		l4.365-0.177h1.476c-0.944-3.187-2.006-6.255-2.006-9.559c0-6.963,4.366-11.329,11.329-11.329c4.484,0,7.553,2.124,9.559,4.721
		l-2.184,2.064c-1.711-2.183-3.953-3.776-7.316-3.776c-5.192,0-7.965,3.6-7.965,8.32c0,3.304,1.121,6.313,2.006,9.559h10.68v2.597
		h-10.09c0.295,1.416,0.472,2.891,0.472,4.484c0,5.251-1.651,8.379-4.544,11.27v0.236h19.06v3.068h-24.665V100.813z"/>
	<path fill="#FFFFFF" d="M537.184,92.198h-10.797v-2.36h10.797v-4.543h-10.797v-2.419h9.795L525.03,61.161h3.717l5.9,12.332
		c1.357,2.892,2.715,5.783,4.189,8.97h0.295c1.535-3.246,2.832-6.078,4.308-8.97l5.96-12.332h3.54l-11.271,21.715h9.854v2.419
		h-10.856v4.543h10.856v2.36h-10.856v10.739h-3.482V92.198z"/>
	<path fill="#FFFFFF" d="M560.547,87.065h-4.248V84.94l4.012-0.354c-0.059-0.826-0.059-1.711-0.059-2.597
		c0-0.767,0-1.534,0.059-2.242h-4.012v-2.124l4.248-0.295c1.298-10.503,7.08-16.935,15.459-16.935c3.953,0,7.316,2.36,9.383,5.134
		l-2.184,2.006c-1.889-2.537-4.248-4.189-7.258-4.189c-6.609,0-10.739,5.251-11.801,13.984h17.879v2.419h-18.057
		c-0.059,0.708-0.059,1.416-0.059,2.184c0,0.885,0,1.829,0.059,2.655h15.4v2.479h-15.164c1.121,8.496,5.016,13.748,11.094,13.748
		c3.48,0,6.077-1.711,8.555-5.134l2.184,1.947c-2.773,3.776-6.195,6.077-11.034,6.077C567.392,103.704,561.905,97.39,560.547,87.065
		z"/>
	<path fill="#FFFFFF" d="M603.086,97.745c-7.435-0.768-12.745-6.137-12.745-15.105c0-9.028,5.724-14.279,12.745-15.165v-7.198h2.479
		v7.081c3.953,0.117,6.668,1.947,8.792,3.894l-1.829,2.184c-1.947-1.829-4.367-3.127-6.963-3.127v24.605
		c3.127-0.118,5.783-1.652,7.789-3.423l1.711,2.184c-2.596,2.36-5.783,4.012-9.5,4.189v6.963h-2.479V97.745z M603.086,94.735V70.484
		c-5.487,1.003-9.264,5.605-9.264,12.155C593.823,89.248,597.422,93.85,603.086,94.735z"/>
	<path fill="#FFFFFF" d="M618.719,108.248l0.826-2.597c1.063,0.531,2.184,0.708,3.423,0.708c4.544,0,6.255-4.366,6.903-10.62
		l1.771-16.522h-6.077v-2.537l4.365-0.235h2.066l0.412-4.072c0.885-8.261,3.658-13.217,9.795-13.217c2.125,0,3.718,0.59,4.957,1.18
		l-0.885,2.715c-1.004-0.473-2.242-0.944-4.014-0.944c-4.365,0-5.9,4.897-6.49,10.031l-0.472,4.308h8.851v2.772h-9.146
		l-1.829,16.935c-0.885,8.025-3.541,13.159-10.149,13.159C621.316,109.31,619.84,108.897,618.719,108.248z"/>
	<path fill="#FFFFFF" d="M655.358,51.012h47.205v59.006h-47.205V51.012z M658.309,104.648l18.764-24.133l-18.764-24.134V104.648z
		 M697.725,53.962h-37.527l18.764,24.133L697.725,53.962z M697.725,107.068l-18.764-24.134l-18.764,24.134H697.725z
		 M699.613,104.648V56.381l-18.764,24.134L699.613,104.648z"/>
	<path fill="#FFFFFF" d="M714.358,51.012h47.205v59.006h-47.205V51.012z M717.309,104.648l18.764-24.133l-18.764-24.134V104.648z
		 M756.725,53.962h-37.527l18.764,24.133L756.725,53.962z M756.725,107.068l-18.764-24.134l-18.764,24.134H756.725z
		 M758.613,104.648V56.381l-18.764,24.134L758.613,104.648z"/>
	<path fill="#FFFFFF" d="M773.358,51.012h47.205v59.006h-47.205V51.012z M776.309,104.648l18.764-24.133l-18.764-24.134V104.648z
		 M815.725,53.962h-37.527l18.764,24.133L815.725,53.962z M815.725,107.068l-18.764-24.134l-18.764,24.134H815.725z
		 M817.613,104.648V56.381l-18.764,24.134L817.613,104.648z"/>
	<path fill="#FFFFFF" d="M842.092,72.549c0-8.556,3.6-13.395,9.323-13.395c5.782,0,9.323,4.839,9.323,13.395
		c0,8.732-3.541,13.63-9.323,13.63C845.692,86.179,842.092,81.282,842.092,72.549z M857.906,72.549c0-7.14-2.597-11.034-6.49-11.034
		c-3.895,0-6.432,3.895-6.432,11.034c0,7.198,2.537,11.27,6.432,11.27C855.309,83.819,857.906,79.748,857.906,72.549z
		 M876.551,59.155h2.715l-23.957,44.549h-2.714L876.551,59.155z M871.241,90.132c0-8.614,3.6-13.453,9.383-13.453
		c5.664,0,9.322,4.839,9.322,13.453c0,8.733-3.658,13.571-9.322,13.571C874.84,103.704,871.241,98.866,871.241,90.132z
		 M887.055,90.132c0-7.198-2.597-11.093-6.432-11.093c-3.953,0-6.491,3.895-6.491,11.093c0,7.199,2.538,11.212,6.491,11.212
		C884.458,101.344,887.055,97.332,887.055,90.132z"/>
	<path fill="#FFFFFF" d="M909.766,72.254c0,9.027-3.717,12.863-7.553,12.863c-3.953,0-7.611-4.131-7.611-12.923
		c0-8.969,3.775-13.04,7.67-12.981C906.167,59.213,909.766,63.344,909.766,72.254z M897.256,72.195
		c0,4.013,0.826,10.739,4.898,10.739c4.248,0,5.016-6.845,5.016-10.68c0-3.836-0.826-10.857-5.074-10.799
		C898.024,61.456,897.256,68.418,897.256,72.195z M925.225,58.8L902.745,104h-2.537L922.747,58.8H925.225z M930.831,90.664
		c0,9.028-3.717,12.923-7.611,12.923s-7.553-4.189-7.553-12.981c0-8.969,3.717-13.04,7.611-12.981
		C927.172,77.624,930.831,81.754,930.831,90.664z M918.323,90.664c0,3.954,0.766,10.681,4.896,10.681
		c4.189,0,4.957-6.845,4.957-10.681c0-3.835-0.768-10.856-5.016-10.798C919.088,79.866,918.323,86.829,918.323,90.664z
		 M949.36,90.664c0,9.028-3.719,12.923-7.613,12.923c-3.953,0-7.553-4.189-7.553-12.981c0-8.969,3.719-13.04,7.613-12.981
		C945.702,77.624,949.36,81.754,949.36,90.664z M936.792,90.664c0,3.836,0.648,10.681,4.955,10.681
		c4.189,0,4.957-6.845,4.957-10.681c0-3.776-0.768-10.856-5.074-10.798C937.618,79.866,936.792,86.829,936.792,90.664z"/>
	<path fill="#FFFFFF" d="M4.652,177.275v-42.248h3.422v42.601c0,1.477,0.59,2.125,1.417,2.125c0.236,0,0.472,0,1.121-0.117
		l0.531,2.713c-0.59,0.178-1.18,0.354-2.301,0.354C6.01,182.703,4.652,180.934,4.652,177.275z"/>
	<path fill="#FFFFFF" d="M20.405,177.275v-42.248h3.422v42.601c0,1.477,0.59,2.125,1.417,2.125c0.236,0,0.472,0,1.121-0.117
		l0.531,2.713c-0.59,0.178-1.18,0.354-2.301,0.354C21.763,182.703,20.405,180.934,20.405,177.275z"/>
	<path fill="#FFFFFF" d="M33.975,174.03c0-6.962,6.196-10.267,20.062-11.859c0.118-4.662-1.239-9.5-7.199-9.5
		c-4.13,0-7.729,1.947-9.913,3.599l-1.534-2.478c2.419-1.652,6.786-4.131,11.919-4.131c7.494,0,10.149,5.37,10.149,12.332v19.945
		h-2.891l-0.354-4.014h-0.118c-3.187,2.598-6.963,4.779-10.975,4.779C38.046,182.703,33.975,179.871,33.975,174.03z M54.037,174.916
		v-10.208c-12.391,1.416-16.64,4.308-16.64,9.146c0,4.307,2.95,5.959,6.432,5.959S50.32,178.16,54.037,174.916z"/>
	<path fill="#FFFFFF" d="M64.065,150.487h3.658l5.488,19.826c0.708,3.009,1.416,5.724,2.006,8.556h0.295
		c0.767-2.833,1.475-5.606,2.242-8.556l5.605-19.826h3.776l5.605,19.826c0.767,3.009,1.475,5.724,2.301,8.556h0.236
		c0.708-2.833,1.417-5.547,2.183-8.556l5.37-19.826h3.363l-8.851,31.451h-4.425l-5.311-18.941c-0.885-3.01-1.476-5.901-2.36-9.028
		h-0.295c-0.708,3.127-1.417,6.077-2.419,9.146L77.4,181.938h-4.13L64.065,150.487z"/>
	<path fill="#FFFFFF" d="M113.625,150.487h2.833l0.413,4.779h0.118c3.187-3.127,6.432-5.605,10.739-5.605
		c6.55,0,9.559,4.071,9.559,12.155v20.122h-3.422v-19.649c0-6.55-2.065-9.56-6.904-9.56c-3.658,0-6.254,1.889-9.913,5.665v23.543
		h-3.422V150.487z"/>
	<path fill="#FFFFFF" d="M159.112,166.242c0-10.149,6.491-16.581,13.925-16.581c3.776,0,6.314,1.416,9.382,3.836l-0.236-5.665
		v-12.804h3.422v46.91h-2.832l-0.354-3.953h-0.177c-2.537,2.537-6.019,4.719-10.09,4.719
		C164.246,182.703,159.112,176.803,159.112,166.242z M182.183,174.739v-18.174c-3.127-2.833-5.841-3.895-8.792-3.895
		c-6.019,0-10.621,5.842-10.621,13.571c0,8.143,3.599,13.454,9.972,13.454C176.105,179.695,179.056,177.984,182.183,174.739z"/>
	<path fill="#FFFFFF" d="M197.403,130.012h47.205v59.005h-47.205V130.012z M200.354,183.648l18.764-24.133l-18.764-24.134V183.648z
		 M239.769,132.962h-37.527l18.764,24.133L239.769,132.962z M239.769,186.068l-18.764-24.134l-18.764,24.134H239.769z
		 M241.657,183.648v-48.267l-18.764,24.134L241.657,183.648z"/>
	<path fill="#FFFFFF" d="M256.403,150.487h2.833l0.413,5.842h0.118c2.125-3.953,5.252-6.668,8.91-6.668
		c1.239,0,2.183,0.177,3.186,0.708l-0.708,3.068c-1.062-0.413-1.652-0.531-2.891-0.531c-2.773,0-6.137,2.065-8.438,7.907v21.125
		h-3.422V150.487z"/>
	<path fill="#FFFFFF" d="M288.025,188.311c0-2.773,1.83-5.547,4.721-7.494v-0.295c-1.593-0.945-2.833-2.598-2.833-5.075
		c0-2.715,2.065-4.78,3.481-5.842v-0.236c-2.006-1.652-4.012-4.779-4.012-8.556c0-6.55,5.074-11.152,11.27-11.152
		c1.711,0,3.187,0.413,4.189,0.826h10.739v2.832H308.5c1.888,1.652,3.246,4.367,3.246,7.553c0,6.491-4.897,11.094-11.093,11.094
		c-1.711,0-3.658-0.473-5.075-1.299c-1.298,1.063-2.478,2.36-2.478,4.367c0,2.242,1.357,3.953,5.9,3.953h6.609
		c7.14,0,10.503,2.242,10.503,7.258c0,5.488-5.9,10.68-15.105,10.68C293.159,196.924,288.025,193.621,288.025,188.311z
		 M312.69,186.717c0-3.363-2.478-4.604-7.14-4.604h-6.432c-0.708,0-2.36-0.176-3.954-0.531c-2.714,1.889-3.894,4.189-3.894,6.314
		c0,3.836,3.717,6.432,10.149,6.432C308.265,194.328,312.69,190.492,312.69,186.717z M308.441,160.813
		c0-5.192-3.54-8.379-7.789-8.379c-4.308,0-7.848,3.187-7.848,8.379c0,5.134,3.658,8.556,7.848,8.556
		C304.783,169.369,308.441,165.947,308.441,160.813z"/>
	<path fill="#FFFFFF" d="M319.355,166.242c0-10.208,6.727-16.581,13.808-16.581c7.612,0,12.155,5.429,12.155,14.634
		c0,0.885-0.059,1.711-0.177,2.479h-22.304c0.177,7.67,4.721,13.04,11.506,13.04c3.363,0,6.019-1.063,8.378-2.715l1.298,2.539
		c-2.537,1.592-5.488,3.066-10.031,3.066C325.905,182.703,319.355,176.568,319.355,166.242z M342.191,164.058
		c0-7.611-3.481-11.447-8.969-11.447c-5.134,0-9.736,4.249-10.385,11.447H342.191z"/>
	<path fill="#FFFFFF" d="M353.693,150.487h2.833l0.413,5.842h0.118c2.125-3.953,5.252-6.668,8.91-6.668
		c1.239,0,2.183,0.177,3.186,0.708l-0.708,3.068c-1.062-0.413-1.652-0.531-2.891-0.531c-2.773,0-6.137,2.065-8.438,7.907v21.125
		h-3.422V150.487z"/>
	<path fill="#FFFFFF" d="M388.738,172.968v-19.59h-4.897v-2.597l5.016-0.295l0.413-9.087h2.891v9.087h9.028v2.892h-9.028v19.826
		c0,3.954,1.062,6.549,5.251,6.549c1.18,0,2.714-0.414,3.835-0.943l0.826,2.713c-1.829,0.65-3.835,1.18-5.251,1.18
		C390.626,182.703,388.738,178.811,388.738,172.968z"/>
	<path fill="#FFFFFF" d="M408.739,130.012h47.205v59.005h-47.205V130.012z M411.689,183.648l18.764-24.133l-18.764-24.134V183.648z
		 M451.105,132.962h-37.527l18.764,24.133L451.105,132.962z M451.105,186.068l-18.764-24.134l-18.764,24.134H451.105z
		 M452.993,183.648v-48.267l-18.764,24.134L452.993,183.648z"/>
	<path fill="#FFFFFF" d="M481.19,138.921h4.721l8.852,24.724c1.121,3.128,2.242,6.313,3.363,9.441h0.235
		c1.121-3.128,2.124-6.313,3.187-9.441l8.851-24.724h4.721v43.016h-3.364v-27.261c0-3.54,0.236-8.261,0.414-11.86h-0.236
		l-3.363,9.618l-9.027,24.9h-2.833l-9.087-24.9l-3.363-9.618h-0.235c0.176,3.6,0.412,8.32,0.412,11.86v27.261h-3.245V138.921z"/>
	<path fill="#FFFFFF" d="M525.084,174.03c0-6.962,6.196-10.267,20.063-11.859c0.118-4.662-1.239-9.5-7.199-9.5
		c-4.13,0-7.729,1.947-9.912,3.599l-1.535-2.478c2.42-1.652,6.786-4.131,11.92-4.131c7.494,0,10.148,5.37,10.148,12.332v19.945
		h-2.891l-0.354-4.014h-0.119c-3.186,2.598-6.963,4.779-10.975,4.779C529.157,182.703,525.084,179.871,525.084,174.03z
		 M545.147,174.916v-10.208c-12.391,1.416-16.64,4.308-16.64,9.146c0,4.307,2.95,5.959,6.432,5.959S541.43,178.16,545.147,174.916z"
		/>
	<path fill="#FFFFFF" d="M562.846,178.75h-0.119l-0.412,3.188h-2.773v-46.91h3.422v13.453l-0.177,6.019
		c3.128-2.655,6.845-4.839,10.621-4.839c8.378,0,12.627,6.373,12.627,16.05c0,10.739-6.491,16.993-13.866,16.993
		C569.218,182.703,565.737,181.17,562.846,178.75z M582.376,165.71c0-7.553-2.597-13.04-9.618-13.04c-3.01,0-6.254,1.77-9.795,5.016
		v18.174c3.246,2.832,6.609,3.835,8.91,3.835C578.01,179.695,582.376,174.148,582.376,165.71z"/>
	<path fill="#FFFFFF" d="M592.522,166.242c0-10.503,6.608-16.581,14.221-16.581c7.611,0,14.22,6.078,14.22,16.581
		c0,10.443-6.608,16.461-14.22,16.461C599.13,182.703,592.522,176.685,592.522,166.242z M617.422,166.242
		c0-8.025-4.544-13.571-10.68-13.571c-6.137,0-10.621,5.546-10.621,13.571c0,8.024,4.484,13.512,10.621,13.512
		C612.878,179.754,617.422,174.266,617.422,166.242z"/>
	<path fill="#FFFFFF" d="M630.163,150.487h2.833l0.413,4.779h0.117c3.188-3.127,6.432-5.605,10.74-5.605
		c6.549,0,9.559,4.071,9.559,12.155v20.122h-3.422v-19.649c0-6.55-2.066-9.56-6.904-9.56c-3.658,0-6.254,1.889-9.913,5.665v23.543
		h-3.423V150.487z"/>
	<path fill="#FFFFFF" d="M663.616,179.518c0-2.006,1.416-3.245,3.009-3.245s3.009,1.239,3.009,3.245
		c0,1.947-1.416,3.186-3.009,3.186S663.616,181.465,663.616,179.518z"/>
	<path fill="#FFFFFF" d="M2.469,253.029c0-6.961,6.196-10.266,20.062-11.859c0.118-4.662-1.239-9.5-7.199-9.5
		c-4.13,0-7.729,1.947-9.913,3.6l-1.534-2.479c2.419-1.652,6.786-4.131,11.919-4.131c7.494,0,10.149,5.371,10.149,12.332v19.945
		h-2.891l-0.354-4.014H22.59c-3.187,2.598-6.963,4.779-10.975,4.779C6.541,261.703,2.469,258.871,2.469,253.029z M22.531,253.916
		v-10.209c-12.391,1.416-16.64,4.309-16.64,9.146c0,4.307,2.95,5.959,6.432,5.959S18.814,257.16,22.531,253.916z"/>
	<path fill="#FFFFFF" d="M34.801,242.174c0-22.482,7.553-25.314,19.708-27.203c3.363-0.529,4.13-0.826,6.019-1.77l0.767,3.305
		c-1.711,1.063-3.541,1.475-6.078,1.889c-10.562,1.711-15.873,2.832-16.875,17.996c3.127-3.895,7.316-6.02,11.506-6.02
		c7.848,0,12.863,5.902,12.863,14.871c0,10.148-6.195,16.461-13.394,16.461C40.171,261.703,34.801,254.742,34.801,242.174z
		 M49.317,258.754c5.487,0,9.795-5.547,9.795-13.512c0-6.904-3.422-11.979-9.913-11.979c-3.481,0-7.258,1.594-10.975,6.49
		c-0.059,0.885-0.059,1.83-0.059,2.832C38.165,252.559,41.823,258.754,49.317,258.754z"/>
	<path fill="#FFFFFF" d="M71.971,229.486h11.506c6.786,0,11.093,2.361,11.093,7.789c0,3.895-2.243,5.9-5.252,6.846v0.234
		c3.364,0.768,6.609,2.951,6.609,7.613c0,6.137-4.779,8.969-12.096,8.969h-11.86V229.486z M82.356,243.059
		c6.313,0,8.674-2.066,8.674-5.488s-2.419-5.428-8.084-5.428h-7.553v10.916H82.356z M83.241,258.223
		c6.077,0,9.205-2.242,9.205-6.432c0-3.775-3.363-6.018-9.677-6.018h-7.376v12.449H83.241z"/>
	<path fill="#FFFFFF" d="M104.538,229.486h18.646v2.893H107.96v28.559h-3.422V229.486z"/>
	<path fill="#FFFFFF" d="M130.733,209.012h47.205v59.006h-47.205V209.012z M133.684,262.648l18.764-24.133l-18.764-24.135V262.648z
		 M173.1,211.963h-37.527l18.764,24.133L173.1,211.963z M173.1,265.068l-18.764-24.135l-18.764,24.135H173.1z M174.988,262.648
		v-48.268l-18.764,24.135L174.988,262.648z"/>
	<path fill="#FFFFFF" d="M188.73,272.148h-3.009l-0.354-12.096v-2.066h1.298c1.889-0.943,3.422-3.186,4.78-13.926l1.77-14.574
		h17.761v28.5h4.308v2.066l-0.354,12.096h-2.951v-11.211H188.73V272.148z M190.737,257.986h16.757v-25.607h-11.565l-1.416,12.213
		C193.687,252.264,192.271,255.98,190.737,257.986z"/>
	<path fill="#FFFFFF" d="M222.95,209.012h47.205v59.006H222.95V209.012z M225.9,262.648l18.764-24.133L225.9,214.381V262.648z
		 M265.316,211.963h-37.527l18.764,24.133L265.316,211.963z M265.316,265.068l-18.764-24.135l-18.764,24.135H265.316z
		 M267.204,262.648v-48.268l-18.764,24.135L267.204,262.648z"/>
	<path fill="#FFFFFF" d="M281.95,209.012h47.205v59.006H281.95V209.012z M284.9,262.648l18.764-24.133L284.9,214.381V262.648z
		 M324.316,211.963h-37.527l18.764,24.133L324.316,211.963z M324.316,265.068l-18.764-24.135l-18.764,24.135H324.316z
		 M326.204,262.648v-48.268l-18.764,24.135L326.204,262.648z"/>
	<path fill="#FFFFFF" d="M338.354,245.242c0-10.209,6.727-16.582,13.808-16.582c7.612,0,12.155,5.43,12.155,14.635
		c0,0.885-0.059,1.711-0.177,2.479h-22.304c0.177,7.67,4.721,13.039,11.506,13.039c3.363,0,6.019-1.063,8.378-2.715l1.298,2.539
		c-2.537,1.592-5.488,3.066-10.031,3.066C344.903,261.703,338.354,255.568,338.354,245.242z M361.189,243.059
		c0-7.611-3.481-11.447-8.969-11.447c-5.134,0-9.736,4.248-10.385,11.447H361.189z"/>
	<path fill="#FFFFFF" d="M370.095,245.242c0-10.209,6.727-16.582,13.808-16.582c7.612,0,12.155,5.43,12.155,14.635
		c0,0.885-0.059,1.711-0.177,2.479h-22.304c0.177,7.67,4.721,13.039,11.506,13.039c3.363,0,6.019-1.063,8.378-2.715l1.298,2.539
		c-2.537,1.592-5.488,3.066-10.031,3.066C376.645,261.703,370.095,255.568,370.095,245.242z M392.931,243.059
		c0-7.611-3.481-11.447-8.969-11.447c-5.134,0-9.736,4.248-10.385,11.447H392.931z M375.347,219.455c0-1.475,1.18-2.654,2.596-2.654
		c1.476,0,2.655,1.18,2.655,2.654c0,1.418-1.18,2.539-2.655,2.539C376.527,221.994,375.347,220.873,375.347,219.455z
		 M387.207,219.455c0-1.475,1.121-2.654,2.596-2.654s2.596,1.18,2.596,2.654c0,1.418-1.121,2.539-2.596,2.539
		S387.207,220.873,387.207,219.455z"/>
	<path fill="#FFFFFF" d="M404.433,209.012h47.205v59.006h-47.205V209.012z M407.384,262.648l18.764-24.133l-18.764-24.135V262.648z
		 M446.799,211.963h-37.527l18.764,24.133L446.799,211.963z M446.799,265.068l-18.764-24.135l-18.764,24.135H446.799z
		 M448.688,262.648v-48.268l-18.764,24.135L448.688,262.648z"/>
	<path fill="#FFFFFF" d="M468.449,244.355l-2.891-7.375c-1.593-4.131-3.068-4.896-4.78-4.896c-0.413,0-0.531,0.059-0.944,0.176
		l-0.767-3.305c0.413-0.176,1.062-0.295,1.593-0.295c2.891,0,5.251,1.357,7.494,6.787l2.891,7.611h5.959v-13.572h3.128v13.572h5.959
		l2.951-7.611c2.123-5.43,4.602-6.787,7.435-6.787c0.59,0,1.238,0.119,1.593,0.295l-0.708,3.305
		c-0.413-0.117-0.531-0.176-1.004-0.176c-1.651,0-3.186,0.766-4.778,4.896l-2.893,7.375l9.913,16.582h-3.835l-8.438-14.988h-6.195
		v14.988h-3.128v-14.988h-6.136l-8.556,14.988h-3.717L468.449,244.355z"/>
	<path fill="#FFFFFF" d="M505.559,229.486h3.422v13.395h17.525v-13.395h3.422v31.451h-3.422v-14.93h-17.525v14.93h-3.422V229.486z"
		/>
	<path fill="#FFFFFF" d="M541.725,209.012h47.205v59.006h-47.205V209.012z M544.676,262.648l18.764-24.133l-18.764-24.135V262.648z
		 M584.091,211.963h-37.527l18.764,24.133L584.091,211.963z M584.091,265.068l-18.764-24.135l-18.764,24.135H584.091z
		 M585.979,262.648v-48.268l-18.764,24.135L585.979,262.648z"/>
	<path fill="#FFFFFF" d="M598.129,245.242c0-10.504,6.608-16.582,14.221-16.582c7.611,0,14.22,6.078,14.22,16.582
		c0,10.443-6.608,16.461-14.22,16.461C604.738,261.703,598.129,255.686,598.129,245.242z M623.03,245.242
		c0-8.025-4.544-13.572-10.68-13.572c-6.137,0-10.621,5.547-10.621,13.572c0,8.023,4.484,13.512,10.621,13.512
		C618.486,258.754,623.03,253.266,623.03,245.242z"/>
	<path fill="#FFFFFF" d="M635.77,229.486h23.721v31.451h-3.422v-28.559h-16.876v28.559h-3.423V229.486z"/>
	<path fill="#FFFFFF" d="M671.288,229.486h2.833l0.413,3.836h0.117c3.068-2.359,6.668-4.662,10.504-4.662
		c8.379,0,12.627,6.373,12.627,16.051c0,10.738-6.49,16.992-13.866,16.992c-2.95,0-6.077-1.355-9.265-3.834l0.06,5.781v11.33h-3.423
		V229.486z M694.124,244.711c0-7.553-2.596-13.041-9.618-13.041c-3.009,0-6.136,1.77-9.795,5.016v18.174
		c3.363,2.832,6.608,3.836,8.91,3.836C689.756,258.695,694.124,253.148,694.124,244.711z"/>
	<path fill="#FFFFFF" d="M704.387,245.242c0-10.504,6.785-16.582,14.574-16.582c4.189,0,7.021,1.889,9.205,3.836l-1.947,2.361
		c-1.947-1.83-4.248-3.188-7.199-3.188c-6.254,0-11.033,5.547-11.033,13.572c0,8.023,4.365,13.512,10.975,13.512
		c3.245,0,6.078-1.594,8.201-3.48l1.711,2.359c-2.772,2.359-6.136,4.07-10.09,4.07C710.583,261.703,704.387,255.686,704.387,245.242
		z"/>
	<path fill="#FFFFFF" d="M14.152,299.932H0.64v-3.01h30.683v3.01H17.752v40.006h-3.6V299.932z"/>
	<path fill="#FFFFFF" d="M39.108,288.012h47.205v59.006H39.108V288.012z M42.059,341.648l18.764-24.133l-18.764-24.135V341.648z
		 M81.475,290.963H43.947l18.764,24.133L81.475,290.963z M81.475,344.068l-18.764-24.135l-18.764,24.135H81.475z M83.363,341.648
		v-48.268l-18.764,24.135L83.363,341.648z"/>
	<path fill="#FFFFFF" d="M98.108,288.012h47.205v59.006H98.108V288.012z M101.059,341.648l18.764-24.133l-18.764-24.135V341.648z
		 M140.475,290.963h-37.527l18.764,24.133L140.475,290.963z M140.475,344.068l-18.764-24.135l-18.764,24.135H140.475z
		 M142.363,341.648v-48.268l-18.764,24.135L142.363,341.648z"/>
	<path fill="#FFFFFF" d="M155.751,340.113l0.885-3.303c0.649,0.295,1.416,0.471,2.478,0.471c3.245,0,4.838-1.297,6.196-4.189
		l1.003-2.713l-14.633-33.457h3.717l9.382,22.068l3.127,7.67h0.236l2.892-7.67l8.674-22.068h3.717l-14.516,36.053
		c-1.947,4.838-4.603,7.729-9.5,7.729C157.816,340.703,156.873,340.527,155.751,340.113z"/>
	<path fill="#FFFFFF" d="M189.499,288.012h47.205v59.006h-47.205V288.012z M192.45,341.648l18.764-24.133l-18.764-24.135V341.648z
		 M231.865,290.963h-37.527l18.764,24.133L231.865,290.963z M231.865,344.068l-18.764-24.135l-18.764,24.135H231.865z
		 M233.753,341.648v-48.268l-18.764,24.135L233.753,341.648z"/>
	<path fill="#FFFFFF" d="M248.676,323.121v-26.199h3.541v26.021c0,11.211,5.192,14.574,11.152,14.574
		c6.078,0,11.388-3.363,11.388-14.574v-26.021h3.363v26.199c0,13.57-7.021,17.582-14.751,17.582S248.676,336.691,248.676,323.121z"
		/>
	<path fill="#FFFFFF" d="M306.025,334.332c-11.86-0.178-18.705-6.078-18.705-16.051c0-9.912,6.845-15.637,18.705-15.813v-6.314
		h3.187v6.314c11.86,0.176,18.764,5.9,18.764,15.813c0,9.973-6.904,15.873-18.764,16.051v6.371h-3.187V334.332z M306.025,331.5
		v-26.141c-9.913,0.119-15.223,4.957-15.223,12.922C290.802,326.307,296.112,331.381,306.025,331.5z M309.211,305.359V331.5
		c9.913-0.119,15.223-5.193,15.223-13.219C324.435,310.197,319.006,305.359,309.211,305.359z"/>
	<path fill="#FFFFFF" d="M343.43,317.691l-11.978-20.77h3.895l6.786,12.273c1.18,1.947,2.065,3.6,3.481,5.959h0.236
		c1.298-2.359,2.065-4.012,3.186-5.959l6.786-12.273h3.659l-11.979,20.947l12.863,22.068h-3.835l-7.257-12.863
		c-1.18-2.066-2.419-4.248-3.954-6.846h-0.236c-1.298,2.598-2.479,4.779-3.6,6.846l-7.199,12.863h-3.658L343.43,317.691z"/>
	<path fill="#FFFFFF" d="M397.003,339.938h-29.326v-43.016h3.541v39.947h21.124v-39.947h3.6v39.947h4.543v2.064l-0.413,13.277
		h-3.068V339.938z"/>
	<path fill="#FFFFFF" d="M429.983,321.113c-2.124,0.414-4.838,0.709-8.438,0.709c-9.5,0-15.341-3.422-15.341-13.217v-11.684h3.481
		v11.684c0,7.848,4.484,10.207,12.214,10.207c3.422,0,6.137-0.354,8.084-0.707v-21.184h3.541v43.016h-3.541V321.113z"/>
	<path fill="#FFFFFF" d="M445.675,288.012h47.205v59.006h-47.205V288.012z M448.625,341.648l18.764-24.133l-18.764-24.135V341.648z
		 M488.041,290.963h-37.527l18.764,24.133L488.041,290.963z M488.041,344.068l-18.763-24.135l-18.764,24.135H488.041z
		 M489.929,341.648v-48.268l-18.764,24.135L489.929,341.648z"/>
	<path fill="#FFFFFF" d="M505.029,296.922h3.481v39.947h16.109v-39.947h3.48v39.947h16.109v-39.947h3.48v43.016h-42.661V296.922z"/>
	<path fill="#FFFFFF" d="M560.194,296.922h3.481v39.947h16.108v-39.947h3.481v39.947h16.108v-39.947h3.481v39.947h4.603v2.064
		l-0.472,13.277h-3.068v-12.273h-43.724V296.922z"/>
	<path fill="#FFFFFF" d="M624.387,299.932h-14.338v-3.01h17.879v18.469h8.201c9.205,0,15.695,3.658,15.695,11.742
		c0,8.615-5.664,12.805-15.282,12.805h-12.155V299.932z M635.834,336.986c8.261,0,12.51-3.01,12.51-9.736
		c0-6.018-4.604-8.908-12.982-8.908h-7.434v18.645H635.834z"/>
	<path fill="#FFFFFF" d="M661.143,296.922h3.54v18.469h7.729c9.383,0,15.52,3.48,15.52,11.742c0,8.615-5.666,12.805-15.283,12.805
		h-11.506V296.922z M671.881,336.986c8.262,0,12.51-3.01,12.51-9.736c0-6.195-4.308-8.908-12.745-8.908h-6.963v18.645H671.881z
		 M695.602,296.922h3.541v43.016h-3.541V296.922z"/>
	<path fill="#FFFFFF" d="M711.646,296.922h3.54v18.469h8.969c9.324,0,15.46,3.48,15.46,11.742c0,8.615-5.665,12.805-15.282,12.805
		h-12.687V296.922z M723.565,336.986c8.262,0,12.51-3.01,12.51-9.736c0-6.195-4.308-8.908-12.687-8.908h-8.202v18.645H723.565z"/>
	<path fill="#FFFFFF" d="M743.624,334.568l2.065-2.242c3.187,3.363,6.727,5.191,11.388,5.191c8.557,0,13.926-6.609,14.104-18.881
		h-19.473v-3.01h19.413c-0.649-10.326-5.665-16.285-14.044-16.285c-4.012,0-7.729,1.711-10.207,4.307l-2.065-2.301
		c2.537-2.715,7.198-5.193,12.392-5.193c10.738,0,17.523,7.908,17.523,22.246c0,14.221-7.08,22.303-17.465,22.303
		C751.294,340.703,747.106,338.402,743.624,334.568z"/>
	<path fill="#FFFFFF" d="M798.732,318.637h-10.681v21.301h-3.54v-43.016h3.54v18.646h10.799
		c0.826-12.037,7.375-19.414,16.816-19.414c10.09,0,17.111,8.498,17.111,22.127c0,13.689-7.021,22.422-17.111,22.422
		C805.518,340.703,798.732,331.971,798.732,318.637z M829.061,318.281c0-11.682-5.193-18.939-13.395-18.939
		c-8.143,0-13.395,7.258-13.395,18.939c0,11.684,5.252,19.236,13.395,19.236C823.868,337.518,829.061,329.965,829.061,318.281z"/>
	<path fill="#FFFFFF" d="M863.514,320.523h-9.322l-12.037,19.414h-4.131l12.509-19.709c-6.077-1.121-10.385-4.838-10.385-11.801
		c0-8.379,5.724-11.506,14.339-11.506h12.568v43.016h-3.541V320.523z M863.514,317.574v-17.701h-8.261
		c-7.376,0-11.507,2.301-11.507,8.555c0,6.195,4.131,9.146,11.507,9.146H863.514z"/>
</g>
<g>
	<g>
		<path fill="#737F8A" d="M0.732,6.149v-0.06h15.659v0.06L8.592,22.469h-0.06L0.732,6.149z"/>
		<path fill="#737F8A" d="M26.621,25.079c1.56-1.89,2.7-4.979,3.36-7.26l1.26,0.45c-0.72,2.37-1.8,5.55-3.33,7.5L26.621,25.079z
			 M50.11,14.429H29.441V1.35H50.11V14.429z M30.851,7.229h8.31V2.7h-8.31V7.229z M30.851,13.109h8.31V8.52h-8.31V13.109z
			 M43.84,25.169c1.59,0,1.83-0.54,1.98-4.14c0.39,0.27,0.96,0.48,1.38,0.57c-0.24,3.99-0.75,4.919-3.3,4.919h-6.66
			c-2.82,0-3.6-0.45-3.6-2.34v-6.57h1.44v6.57c0,0.81,0.33,0.99,2.16,0.99H43.84z M42.791,20.819c-1.38-1.32-4.14-3.24-6.48-4.47
			l0.96-0.9c2.34,1.2,5.1,3,6.51,4.35L42.791,20.819z M48.7,2.7h-8.16v4.53h8.16V2.7z M48.7,8.52h-8.16v4.59h8.16V8.52z
			 M48.64,17.399c1.8,2.31,3.69,5.43,4.44,7.44l-1.38,0.63c-0.72-2.04-2.55-5.22-4.35-7.53L48.64,17.399z"/>
		<path fill="#737F8A" d="M61.421,12.659c-1.08-1.02-3.27-2.4-5.16-3.27l0.84-1.02c1.83,0.81,4.05,2.13,5.13,3.12L61.421,12.659z
			 M62.951,17.009c-1.32,3.15-3.15,7.02-4.65,9.719l-1.26-0.87c1.38-2.31,3.36-6.33,4.77-9.66L62.951,17.009z M62.771,4.919
			c-1.02-1.14-3.18-2.61-5.01-3.54l0.87-1.02c1.77,0.9,3.99,2.31,5.01,3.39L62.771,4.919z M75.91,16.529v8.939
			c0,0.84-0.18,1.26-0.87,1.47c-0.66,0.24-1.89,0.24-3.96,0.21c-0.09-0.33-0.3-0.87-0.45-1.26c1.62,0.06,2.97,0.03,3.36,0.03
			c0.42-0.03,0.54-0.15,0.54-0.45v-8.939h-5.76V6.479h5.01c0.33-1.11,0.66-2.61,0.84-3.72h-8.009v6.81
			c0,5.16-0.45,12.359-3.99,17.369c-0.24-0.21-0.84-0.6-1.17-0.72c3.42-4.92,3.75-11.7,3.75-16.649V1.41H83.26v1.35H75.73l0.48,0.12
			c-0.36,1.17-0.72,2.52-1.05,3.6h6.78v10.05H75.91z M71.5,18.839c-1.02,2.37-2.55,4.86-4.05,6.51c-0.27-0.21-0.87-0.63-1.23-0.81
			c1.59-1.59,3-3.84,3.93-6.06L71.5,18.839z M70.121,10.859H80.56v-3.15H70.121V10.859z M70.121,15.299H80.56v-3.21H70.121V15.299z
			 M79.84,18.299c1.56,1.83,3.24,4.35,3.899,6.03l-1.32,0.63c-0.63-1.65-2.25-4.23-3.81-6.12L79.84,18.299z"/>
		<path fill="#737F8A" d="M113.17,19.889H86.681v-1.32h12.479v-3.42h-9.959v-1.26h9.959v-3.09h-9.39V1.23h20.099v9.569h-9.3v3.09
			h9.99v1.26h-9.99v3.42h12.6V19.889z M86.891,26.639c1.38-1.17,2.67-3.18,3.42-5.04l1.32,0.36c-0.78,1.86-2.01,4.02-3.48,5.34
			L86.891,26.639z M99.161,9.509V2.49h-8.01v7.02H99.161z M94.481,3.45c0.96,1.47,1.89,3.39,2.19,4.62l-1.14,0.48
			c-0.3-1.29-1.17-3.24-2.1-4.709L94.481,3.45z M96.73,22.109c0.39,1.5,0.69,3.54,0.69,4.68l-1.41,0.21c0-1.2-0.24-3.27-0.63-4.83
			L96.73,22.109z M108.43,2.49h-7.86v7.02h7.86V2.49z M102.97,21.959c0.72,1.47,1.47,3.48,1.8,4.68l-1.41,0.36
			c-0.3-1.23-1.02-3.27-1.74-4.8L102.97,21.959z M102.4,8.459c0.87-1.32,2.04-3.51,2.67-5.01l1.2,0.51
			c-0.9,1.68-2.01,3.69-2.91,4.98L102.4,8.459z M109.09,21.629c1.53,1.47,3.27,3.57,4.11,4.95l-1.32,0.6
			c-0.81-1.35-2.55-3.51-4.08-5.07L109.09,21.629z"/>
		<path fill="#737F8A" d="M127.061,13.409V10.5h-8.819v2.91h-1.2V9.33h1.71V1.14h7.83v8.19h1.71v4.08H127.061z M126.581,25.559
			c0,0.78-0.18,1.17-0.72,1.38c-0.57,0.21-1.53,0.21-3.21,0.21c-0.06-0.3-0.3-0.81-0.48-1.17c1.29,0.03,2.37,0.03,2.64,0
			c0.33,0,0.45-0.09,0.45-0.42v-3.78h-5.25v5.4h-1.29v-14.25h7.859V25.559z M119.951,9.33h1.92v-4.62h3.45V2.34h-5.37V9.33z
			 M120.011,14.099v2.61h5.25v-2.61H120.011z M125.261,20.609v-2.7h-5.25v2.7H125.261z M125.321,5.819h-2.34v3.51h2.34V5.819z
			 M143.56,25.289v1.2h-15.54v-1.2H133c-0.15-0.99-0.6-2.31-1.14-3.33l1.14-0.36c0.6,1.05,1.08,2.49,1.23,3.45l-0.69,0.24h4.32
			l-0.6-0.24c0.48-0.99,1.08-2.49,1.38-3.48l1.26,0.45c-0.51,1.11-1.08,2.34-1.56,3.27H143.56z M143.41,14.249H128.5v-1.2h14.91
			V14.249z M142.18,11.279h-12.6V2.91h3.69V0h1.2v2.91h2.64V0h1.2v2.91h3.87V11.279z M130.241,21.389v-5.4h11.279v5.4H130.241z
			 M130.78,6.479h2.61V4.05h-2.61V6.479z M130.78,10.139h2.61v-2.49h-2.61V10.139z M131.53,20.279h8.67v-3.18h-8.67V20.279z
			 M137.11,6.479V4.05h-2.64v2.43H137.11z M134.47,7.649v2.49h2.64v-2.49H134.47z M140.92,4.05h-2.729v2.43h2.729V4.05z
			 M140.92,7.649h-2.729v2.49h2.729V7.649z"/>
		<path fill="#737F8A" d="M157.931,13.469c0-1.14,0.96-1.98,1.98-1.98s1.98,0.84,1.98,1.98c0,1.17-0.96,2.01-1.98,2.01
			S157.931,14.639,157.931,13.469z"/>
		<path fill="#737F8A" d="M185.711,21.389h-6.9v2.34h-1.41V2.25h8.31V21.389z M178.811,3.6v7.38h5.55V3.6H178.811z M184.361,20.039
			v-7.74h-5.55v7.74H184.361z M202.3,1.5c0,0,0,0.48-0.03,0.72c-0.39,6.69-0.72,9.06-1.5,9.899c-0.45,0.45-0.9,0.63-1.68,0.66
			c-0.63,0.06-1.95,0.03-3.3-0.06c-0.03-0.42-0.15-0.96-0.42-1.35c1.44,0.12,2.79,0.15,3.24,0.15c0.51,0,0.75-0.06,0.99-0.3
			c0.54-0.57,0.9-2.76,1.23-8.37h-6.69c-0.72,4.5-2.37,8.55-7.049,10.709c-0.21-0.3-0.6-0.81-0.93-1.05
			c4.41-1.89,5.91-5.67,6.54-9.66h-5.669V1.5H202.3z M188.051,15.089h13.889v11.939h-1.41v-1.44h-11.1v1.56h-1.38V15.089z
			 M189.431,16.439v7.8h11.1v-7.8H189.431z"/>
		<path fill="#737F8A" d="M211.421,12.659c-1.08-1.02-3.27-2.4-5.16-3.27l0.84-1.02c1.83,0.81,4.05,2.13,5.13,3.12L211.421,12.659z
			 M212.951,17.009c-1.32,3.15-3.15,7.02-4.65,9.719l-1.26-0.87c1.38-2.31,3.36-6.33,4.77-9.66L212.951,17.009z M212.771,4.919
			c-1.02-1.14-3.18-2.61-5.01-3.54l0.87-1.02c1.77,0.9,3.99,2.31,5.01,3.39L212.771,4.919z M225.91,16.529v8.939
			c0,0.84-0.18,1.26-0.87,1.47c-0.66,0.24-1.89,0.24-3.96,0.21c-0.09-0.33-0.3-0.87-0.45-1.26c1.62,0.06,2.97,0.03,3.36,0.03
			c0.42-0.03,0.54-0.15,0.54-0.45v-8.939h-5.76V6.479h5.01c0.33-1.11,0.66-2.61,0.84-3.72h-8.009v6.81
			c0,5.16-0.45,12.359-3.99,17.369c-0.24-0.21-0.84-0.6-1.17-0.72c3.42-4.92,3.75-11.7,3.75-16.649V1.41h18.059v1.35h-7.529
			l0.48,0.12c-0.36,1.17-0.72,2.52-1.05,3.6h6.78v10.05H225.91z M221.5,18.839c-1.02,2.37-2.55,4.86-4.05,6.51
			c-0.27-0.21-0.87-0.63-1.23-0.81c1.59-1.59,3-3.84,3.93-6.06L221.5,18.839z M220.121,10.859h10.439v-3.15h-10.439V10.859z
			 M220.121,15.299h10.439v-3.21h-10.439V15.299z M229.84,18.299c1.56,1.83,3.24,4.35,3.899,6.03l-1.32,0.63
			c-0.63-1.65-2.25-4.23-3.81-6.12L229.84,18.299z"/>
		<path fill="#737F8A" d="M263.17,19.889h-26.489v-1.32h12.479v-3.42h-9.959v-1.26h9.959v-3.09h-9.39V1.23h20.099v9.569h-9.3v3.09
			h9.99v1.26h-9.99v3.42h12.6V19.889z M236.891,26.639c1.38-1.17,2.67-3.18,3.42-5.04l1.32,0.36c-0.78,1.86-2.01,4.02-3.48,5.34
			L236.891,26.639z M249.161,9.509V2.49h-8.01v7.02H249.161z M244.481,3.45c0.96,1.47,1.89,3.39,2.19,4.62l-1.14,0.48
			c-0.3-1.29-1.17-3.24-2.1-4.709L244.481,3.45z M246.73,22.109c0.39,1.5,0.69,3.54,0.69,4.68l-1.41,0.21c0-1.2-0.24-3.27-0.63-4.83
			L246.73,22.109z M258.43,2.49h-7.86v7.02h7.86V2.49z M252.97,21.959c0.72,1.47,1.47,3.48,1.8,4.68l-1.41,0.36
			c-0.3-1.23-1.02-3.27-1.74-4.8L252.97,21.959z M252.4,8.459c0.87-1.32,2.04-3.51,2.67-5.01l1.2,0.51
			c-0.9,1.68-2.01,3.69-2.91,4.98L252.4,8.459z M259.09,21.629c1.53,1.47,3.27,3.57,4.11,4.95l-1.32,0.6
			c-0.81-1.35-2.55-3.51-4.08-5.07L259.09,21.629z"/>
		<path fill="#737F8A" d="M277.061,13.409V10.5h-8.819v2.91h-1.2V9.33h1.71V1.14h7.83v8.19h1.71v4.08H277.061z M276.581,25.559
			c0,0.78-0.18,1.17-0.72,1.38c-0.57,0.21-1.53,0.21-3.21,0.21c-0.06-0.3-0.3-0.81-0.48-1.17c1.29,0.03,2.37,0.03,2.64,0
			c0.33,0,0.45-0.09,0.45-0.42v-3.78h-5.25v5.4h-1.29v-14.25h7.859V25.559z M269.951,9.33h1.92v-4.62h3.45V2.34h-5.37V9.33z
			 M270.011,14.099v2.61h5.25v-2.61H270.011z M275.261,20.609v-2.7h-5.25v2.7H275.261z M275.321,5.819h-2.34v3.51h2.34V5.819z
			 M293.56,25.289v1.2h-15.54v-1.2H283c-0.15-0.99-0.6-2.31-1.14-3.33l1.14-0.36c0.6,1.05,1.08,2.49,1.23,3.45l-0.69,0.24h4.32
			l-0.6-0.24c0.48-0.99,1.08-2.49,1.38-3.48l1.26,0.45c-0.51,1.11-1.08,2.34-1.56,3.27H293.56z M293.41,14.249H278.5v-1.2h14.91
			V14.249z M292.18,11.279h-12.6V2.91h3.69V0h1.2v2.91h2.64V0h1.2v2.91h3.87V11.279z M280.241,21.389v-5.4h11.279v5.4H280.241z
			 M280.78,6.479h2.61V4.05h-2.61V6.479z M280.78,10.139h2.61v-2.49h-2.61V10.139z M281.53,20.279h8.67v-3.18h-8.67V20.279z
			 M287.11,6.479V4.05h-2.64v2.43H287.11z M284.47,7.649v2.49h2.64v-2.49H284.47z M290.92,4.05h-2.729v2.43h2.729V4.05z
			 M290.92,7.649h-2.729v2.49h2.729V7.649z"/>
		<path fill="#737F8A" d="M304.601,3.78h1.65v20.129h9.84v1.41h-11.49V3.78z"/>
		<path fill="#737F8A" d="M319.21,4.47c0-0.81,0.54-1.32,1.29-1.32s1.32,0.51,1.32,1.32c0,0.84-0.57,1.38-1.32,1.38
			S319.21,5.31,319.21,4.47z M319.75,9.6h1.62v15.719h-1.62V9.6z"/>
		<path fill="#737F8A" d="M327.25,31.079l0.69-1.2c1.56,1.14,3.209,1.59,4.83,1.59c3.18,0,4.8-1.92,4.86-5.069v-3.51
			c-1.29,1.29-3.06,2.43-5.1,2.43c-3.93,0-6.479-2.91-6.479-8.04c0-4.98,3.24-8.07,6.959-8.07c1.86,0,3.18,0.69,4.53,1.83h0.12
			l0.15-1.44h1.38v16.949c0,3.81-2.34,6.27-6.42,6.27C330.67,32.818,328.78,32.159,327.25,31.079z M337.63,21.359v-8.79
			c-1.65-1.44-3.03-1.98-4.53-1.98c-3.03,0-5.43,2.88-5.43,6.69c0,3.99,1.83,6.629,5.1,6.629
			C334.48,23.909,335.98,23.039,337.63,21.359z"/>
		<path fill="#737F8A" d="M345.13,1.8h1.62v6.81l-0.03,3.42c1.59-1.59,3.21-2.82,5.37-2.82c3.27,0,4.8,1.98,4.8,6.03v10.08h-1.62
			v-9.87c0-3.27-1.02-4.8-3.51-4.8c-1.83,0-3.15,0.93-5.01,2.88v11.79h-1.62V1.8z"/>
		<path fill="#737F8A" d="M362.86,20.909v-9.959h-2.43v-1.23l2.459-0.12l0.21-5.22h1.35V9.6h4.53v1.35h-4.53v10.05
			c0,2.01,0.51,3.33,2.64,3.33c0.6,0,1.2-0.12,1.95-0.48l0.48,1.14c-0.87,0.45-1.83,0.72-2.7,0.72
			C363.79,25.708,362.86,23.789,362.86,20.909z"/>
	</g>
</g>
<g>
</g>
<g>
</g>
<g>
</g>
<g>
</g>
<g>
</g>
<g>
</g>
</svg>
