<?xml version="1.0" encoding="utf-8"?>
<!-- Generator: Adobe Illustrator 16.0.0, SVG Export Plug-In . SVG Version: 6.00 Build 0)  -->
<!DOCTYPE svg PUBLIC "-//W3C//DTD SVG 1.1//EN" "http://www.w3.org/Graphics/SVG/1.1/DTD/svg11.dtd">
<svg version="1.1" id="Layer_1" xmlns="http://www.w3.org/2000/svg" xmlns:xlink="http://www.w3.org/1999/xlink" x="0px" y="0px"
	 width="950px" height="352.21px" viewBox="0 0 950 352.21" enable-background="new 0 0 950 352.21" xml:space="preserve">
<g>
	<path fill="#FFFFFF" d="M8.143,64.465H2.714v-2.006c2.537-0.531,4.249-1.299,5.841-2.538h2.479v25.491H8.143V64.465z
		 M33.692,59.154h2.773l-23.956,44.549H9.736L33.692,59.154z M39.062,95.62H27.556v-1.476l11.388-16.698h2.832v15.932h3.776v2.242
		h-3.776v7.316h-2.714V95.62z M39.062,93.378V87.89l0.295-6.845h-0.295l-3.541,5.37l-4.603,6.963H39.062z"/>
	<path fill="#FFFFFF" d="M58.352,64.465h-5.428v-2.006c2.537-0.531,4.249-1.299,5.841-2.538h2.479v25.491h-2.892V64.465z
		 M82.426,59.154h2.773l-23.956,44.549H58.47L82.426,59.154z M79.948,101.166c8.497-7.906,12.45-11.859,12.45-16.049
		c0-3.659-2.124-5.96-5.487-5.96c-2.301,0-4.367,1.771-5.783,3.953l-1.888-1.652c1.711-2.655,4.779-4.779,8.025-4.779
		c4.779,0,8.025,2.715,8.025,8.084c0,5.192-4.426,9.382-10.68,15.637h12.155v2.537H79.948V101.166z"/>
	<path fill="#FFFFFF" d="M102.482,81.281l2.125-1.593c1.593,2.419,4.071,4.13,6.962,4.13c3.127,0,5.724-1.947,5.724-5.251
		c0-3.305-3.304-5.134-8.733-5.134v-2.006c4.957,0,7.789-2.42,7.789-5.252c0-2.714-2.125-4.661-5.311-4.661
		c-2.006,0-4.071,1.416-5.605,3.363l-1.888-1.652c1.888-2.36,4.543-4.071,7.848-4.071c4.307,0,7.848,2.537,7.848,6.727
		c0,3.127-2.124,5.252-4.838,6.373c3.009,0.648,5.841,2.832,5.841,6.372c0,4.721-3.835,7.553-8.615,7.553
		C107.557,86.179,104.312,83.937,102.482,81.281z M138.535,59.154h2.714l-23.957,44.549h-2.714L138.535,59.154z M142.134,95.62
		h-11.506v-1.476l11.329-16.698h2.832v15.932h3.835v2.242h-3.835v7.316h-2.655V95.62z M142.134,93.378V87.89l0.295-6.845h-0.295
		l-3.54,5.37l-4.603,6.963H142.134z"/>
	<path fill="#FFFFFF" d="M160.48,67.946h-4.838v-1.594c2.242-0.472,3.776-1.18,5.133-2.301h1.947v23.013h-2.242V67.946z
		 M181.781,63.344h2.242l-21.655,40.301h-2.301L181.781,63.344z M178.654,99.219l1.711-1.298c1.416,2.242,3.776,3.776,6.432,3.776
		c2.891,0,5.37-1.771,5.37-4.897c0-3.009-3.127-4.721-8.143-4.721v-1.651c4.603,0,7.199-2.302,7.199-4.957
		c0-2.537-1.888-4.308-4.897-4.308c-1.829,0-3.776,1.239-5.251,3.068l-1.475-1.298c1.652-2.124,4.013-3.718,6.963-3.718
		c3.835,0,6.962,2.242,6.962,6.078c0,2.892-1.888,4.838-4.425,5.842c2.773,0.53,5.37,2.478,5.37,5.724
		c0,4.248-3.422,6.785-7.73,6.785C183.138,103.645,180.247,101.579,178.654,99.219z"/>
	<path fill="#FFFFFF" d="M200.953,85.589c7.907-7.316,11.388-10.857,11.388-14.752c0-3.363-2.006-5.487-5.074-5.487
		c-2.125,0-4.072,1.652-5.37,3.658l-1.475-1.356c1.416-2.36,4.189-4.308,7.081-4.308c4.249,0,7.14,2.419,7.14,7.258
		c0,4.838-4.071,8.614-9.972,14.456h11.329v2.007h-15.046V85.589z M231.046,63.344h2.242l-21.655,40.301h-2.301L231.046,63.344z
		 M226.089,99.219l1.711-1.298c1.416,2.242,3.776,3.776,6.432,3.776c2.891,0,5.37-1.771,5.37-4.897c0-3.009-3.127-4.721-8.143-4.721
		v-1.651c4.603,0,7.199-2.302,7.199-4.957c0-2.537-1.888-4.308-4.897-4.308c-1.829,0-3.776,1.239-5.251,3.068l-1.475-1.298
		c1.652-2.124,4.013-3.718,6.963-3.718c3.835,0,6.962,2.242,6.962,6.078c0,2.892-1.888,4.838-4.425,5.842
		c2.773,0.53,5.37,2.478,5.37,5.724c0,4.248-3.422,6.785-7.73,6.785C230.574,103.645,227.682,101.579,226.089,99.219z"/>
	<path fill="#FFFFFF" d="M254.229,67.946h-4.838v-1.594c2.242-0.472,3.776-1.18,5.133-2.301h1.947v23.013h-2.242V67.946z
		 M276.121,63.344h2.242l-21.655,40.301h-2.301L276.121,63.344z M272.934,97.272c0-3.068,2.125-5.37,4.426-6.668v-0.236
		c-2.006-1.298-3.422-2.714-3.422-5.192c0-3.481,2.95-5.96,6.667-5.96c3.895,0,6.904,2.36,6.904,5.96
		c0,2.95-2.184,4.721-3.541,5.782v0.236c2.773,1.416,4.366,3.127,4.366,5.842c0,3.776-3.363,6.608-7.729,6.608
		C275.943,103.645,272.934,100.694,272.934,97.272z M286.092,97.095c0-3.422-3.481-4.248-7.081-5.605
		c-2.537,1.416-3.835,3.363-3.835,5.605c0,2.36,2.125,4.662,5.429,4.662C283.614,101.757,286.092,99.632,286.092,97.095z
		 M285.267,85.117c0-2.36-2.125-3.895-4.662-3.895c-2.419,0-4.425,1.652-4.425,3.953c0,2.714,2.655,4.131,6.019,5.192
		C284.263,88.775,285.267,87.005,285.267,85.117z"/>
	<path fill="#FFFFFF" d="M293.758,83.347l1.711-1.298c1.416,2.242,3.776,3.776,6.432,3.776c2.892,0,5.37-1.771,5.37-4.897
		c0-3.01-3.127-4.721-8.143-4.721v-1.652c4.602,0,7.198-2.301,7.198-4.956c0-2.537-1.888-4.308-4.897-4.308
		c-1.829,0-3.776,1.239-5.251,3.068l-1.475-1.298c1.652-2.125,4.013-3.718,6.963-3.718c3.835,0,6.962,2.242,6.962,6.077
		c0,2.892-1.888,4.839-4.425,5.842c2.773,0.531,5.37,2.479,5.37,5.724c0,4.248-3.422,6.786-7.73,6.786
		C298.243,87.772,295.352,85.707,293.758,83.347z M324.736,63.344h2.242l-21.655,40.301h-2.301L324.736,63.344z M320.37,97.272
		c0-3.068,2.125-5.37,4.426-6.668v-0.236c-2.006-1.298-3.422-2.714-3.422-5.192c0-3.481,2.95-5.96,6.667-5.96
		c3.895,0,6.904,2.36,6.904,5.96c0,2.95-2.184,4.721-3.541,5.782v0.236c2.773,1.416,4.366,3.127,4.366,5.842
		c0,3.776-3.363,6.608-7.729,6.608C323.379,103.645,320.37,100.694,320.37,97.272z M333.528,97.095c0-3.422-3.481-4.248-7.081-5.605
		c-2.537,1.416-3.835,3.363-3.835,5.605c0,2.36,2.125,4.662,5.429,4.662C331.05,101.757,333.528,99.632,333.528,97.095z
		 M332.702,85.117c0-2.36-2.125-3.895-4.662-3.895c-2.419,0-4.425,1.652-4.425,3.953c0,2.714,2.655,4.131,6.019,5.192
		C331.699,88.775,332.702,87.005,332.702,85.117z"/>
	<path fill="#FFFFFF" d="M341.193,83.347l1.711-1.298c1.534,2.242,3.6,3.776,6.609,3.776c3.127,0,5.487-2.479,5.487-6.019
		c0-3.659-2.242-6.019-5.605-6.019c-2.124,0-3.599,1.121-4.897,2.124l-1.357-0.944l1.18-10.916h11.742v2.124h-9.795l-0.767,7.021
		c1.18-0.648,2.538-1.18,4.308-1.18c4.189,0,7.494,2.714,7.494,7.848c0,4.779-3.422,7.907-7.789,7.907
		C345.5,87.772,342.904,85.707,341.193,83.347z M372.171,63.344h2.242l-21.655,40.301h-2.301L372.171,63.344z M367.805,97.272
		c0-3.068,2.125-5.37,4.426-6.668v-0.236c-2.006-1.298-3.422-2.714-3.422-5.192c0-3.481,2.95-5.96,6.667-5.96
		c3.895,0,6.904,2.36,6.904,5.96c0,2.95-2.184,4.721-3.541,5.782v0.236c2.773,1.416,4.367,3.127,4.367,5.842
		c0,3.776-3.364,6.608-7.73,6.608C370.814,103.645,367.805,100.694,367.805,97.272z M380.963,97.095
		c0-3.422-3.481-4.248-7.081-5.605c-2.537,1.416-3.835,3.363-3.835,5.605c0,2.36,2.125,4.662,5.429,4.662
		C378.485,101.757,380.963,99.632,380.963,97.095z M380.137,85.117c0-2.36-2.125-3.895-4.662-3.895
		c-2.419,0-4.425,1.652-4.425,3.953c0,2.714,2.655,4.131,6.019,5.192C379.134,88.775,380.137,87.005,380.137,85.117z"/>
	<path fill="#FFFFFF" d="M414.117,103.645c-4.366-0.354-8.438-2.597-10.975-5.016l1.77-2.419c2.538,2.301,6.019,4.543,10.385,4.543
		c5.37,0,8.261-3.127,8.261-7.729c0-12.391-18.764-9.087-18.764-22.245c0-5.605,3.894-9.677,9.323-10.326v-6.49h2.832v6.49
		c4.248,0.354,6.785,2.302,8.969,4.721l-1.947,2.124c-2.419-2.479-4.425-3.895-8.319-3.895c-4.425,0-7.376,3.068-7.376,7.199
		c0,10.975,18.705,7.435,18.705,22.186c0,6.196-4.131,10.208-10.031,10.857v6.49h-2.832V103.645z"/>
	<path fill="#FFFFFF" d="M434.587,100.813c4.721-2.655,6.904-7.435,6.904-12.45c0-1.534-0.236-3.01-0.59-4.484h-6.49v-2.42
		l4.365-0.177h1.476c-0.944-3.187-2.006-6.255-2.006-9.559c0-6.963,4.366-11.329,11.329-11.329c4.484,0,7.553,2.124,9.559,4.721
		l-2.184,2.064c-1.711-2.183-3.953-3.776-7.316-3.776c-5.192,0-7.965,3.6-7.965,8.32c0,3.304,1.121,6.313,2.006,9.559h10.68v2.597
		h-10.09c0.295,1.416,0.472,2.891,0.472,4.484c0,5.251-1.651,8.379-4.544,11.27v0.236h19.06v3.068h-24.665V100.813z"/>
	<path fill="#FFFFFF" d="M476.478,92.197h-10.797v-2.36h10.797v-4.543h-10.797v-2.419h9.795L464.324,61.16h3.717l5.9,12.332
		c1.357,2.892,2.715,5.783,4.189,8.97h0.295c1.535-3.246,2.832-6.078,4.308-8.97l5.96-12.332h3.54l-11.271,21.715h9.854v2.419
		H479.96v4.543h10.856v2.36H479.96v10.739h-3.482V92.197z"/>
	<path fill="#FFFFFF" d="M499.841,87.064h-4.248v-2.125l4.012-0.354c-0.059-0.826-0.059-1.711-0.059-2.597
		c0-0.767,0-1.534,0.059-2.242h-4.012v-2.124l4.248-0.295c1.298-10.503,7.08-16.935,15.459-16.935c3.953,0,7.316,2.36,9.383,5.134
		l-2.184,2.006c-1.889-2.537-4.248-4.189-7.258-4.189c-6.609,0-10.739,5.251-11.801,13.984h17.879v2.419h-18.057
		c-0.059,0.708-0.059,1.416-0.059,2.184c0,0.885,0,1.829,0.059,2.655h15.4v2.479H503.5c1.121,8.496,5.016,13.748,11.094,13.748
		c3.48,0,6.077-1.711,8.555-5.134l2.184,1.947c-2.773,3.776-6.195,6.077-11.034,6.077C506.686,103.703,501.199,97.39,499.841,87.064
		z"/>
	<path fill="#FFFFFF" d="M542.38,97.744c-7.435-0.768-12.745-6.137-12.745-15.105c0-9.028,5.724-14.279,12.745-15.165v-7.198h2.479
		v7.081c3.953,0.117,6.668,1.947,8.792,3.894l-1.829,2.184c-1.947-1.829-4.367-3.127-6.963-3.127v24.605
		c3.127-0.118,5.783-1.652,7.789-3.423l1.711,2.184c-2.596,2.36-5.783,4.012-9.5,4.189v6.963h-2.479V97.744z M542.38,94.734V70.483
		c-5.487,1.003-9.264,5.605-9.264,12.155C533.117,89.247,536.716,93.85,542.38,94.734z"/>
	<path fill="#FFFFFF" d="M558.013,108.247l0.826-2.597c1.063,0.531,2.184,0.708,3.423,0.708c4.544,0,6.255-4.366,6.903-10.62
		l1.771-16.522h-6.077v-2.537l4.365-0.235h2.066l0.412-4.072c0.885-8.261,3.658-13.217,9.795-13.217c2.125,0,3.718,0.59,4.957,1.18
		l-0.885,2.715c-1.004-0.473-2.242-0.944-4.014-0.944c-4.365,0-5.9,4.897-6.49,10.031l-0.472,4.308h8.851v2.772h-9.146L572.47,96.15
		c-0.885,8.025-3.541,13.159-10.149,13.159C560.61,109.31,559.134,108.896,558.013,108.247z"/>
	<path fill="#FFFFFF" d="M614.889,67.183h-8.732c1.259,0.59,2.311,1.426,3.157,2.508c0.845,1.082,1.405,2.351,1.682,3.805h3.894
		v2.007h-3.776c-0.079,3.226-1.053,5.723-2.92,7.492c-1.869,1.771-4.317,2.853-7.346,3.245l11.859,16.697h-3.187l-11.623-16.579
		h-4.838v-2.301h4.425c3.422,0,6.077-0.688,7.965-2.065c1.889-1.376,2.871-3.54,2.95-6.489h-15.34v-1.771l3.952-0.236h11.27
		c-0.434-2.162-1.573-3.706-3.422-4.631c-1.85-0.924-4.307-1.387-7.375-1.387h-4.425v-2.242h21.83V67.183z"/>
	<path fill="#FFFFFF" d="M624.682,86.121l-6.019,3.068v-2.124l6.019-3.068v-4.838l-6.019,3.068v-2.124l6.019-3.127V65.235h2.714
		v10.443l10.385-5.428v2.124l-10.385,5.428v4.838l10.385-5.428v2.124l-10.385,5.428v16.343c1.416,0,2.921-0.226,4.514-0.679
		c1.594-0.451,3.048-1.13,4.366-2.035c1.317-0.904,2.409-2.025,3.274-3.363c0.865-1.337,1.298-2.93,1.298-4.778
		c0-0.433-0.011-0.886-0.029-1.357c-0.021-0.472-0.128-1.022-0.325-1.652l2.36-0.767c0.157,0.787,0.266,1.426,0.325,1.917
		c0.059,0.493,0.088,1.054,0.088,1.682c0,2.36-0.512,4.406-1.533,6.137c-1.023,1.73-2.391,3.156-4.102,4.277
		s-3.688,1.938-5.93,2.448c-2.241,0.511-4.582,0.747-7.021,0.708V86.121z"/>
	<path fill="#FFFFFF" d="M653.355,86.417v3.952h12.213v2.007h-12.213v10.561h-2.537V92.376h-4.719v-1.712l4.719-0.295v-3.952h-4.719
		v-1.712l4.719-0.295V65.235h5.369c1.849,0,3.55,0.188,5.104,0.561c1.554,0.374,2.892,0.974,4.012,1.8
		c1.121,0.826,1.986,1.888,2.597,3.186c0.609,1.298,0.915,2.853,0.915,4.661c0,1.888-0.316,3.521-0.944,4.897
		c-0.63,1.377-1.505,2.518-2.626,3.422c-1.121,0.905-2.448,1.573-3.982,2.006c-1.533,0.434-3.226,0.649-5.074,0.649H653.355z
		 M653.355,84.41h2.184c3.461,0,6.096-0.717,7.906-2.153c1.809-1.436,2.714-3.688,2.714-6.755c0-3.028-0.915-5.152-2.743-6.372
		c-1.83-1.219-4.455-1.829-7.877-1.829h-2.184V84.41z"/>
	<path fill="#FFFFFF" d="M689.167,72.549c0-8.556,3.6-13.395,9.322-13.395c5.783,0,9.323,4.839,9.323,13.395
		c0,8.732-3.54,13.63-9.323,13.63C692.767,86.179,689.167,81.281,689.167,72.549z M704.98,72.549c0-7.14-2.596-11.034-6.49-11.034
		s-6.432,3.895-6.432,11.034c0,7.198,2.537,11.27,6.432,11.27S704.98,79.747,704.98,72.549z M723.626,59.154h2.715l-23.957,44.549
		h-2.715L723.626,59.154z M718.316,90.132c0-8.614,3.6-13.453,9.382-13.453c5.665,0,9.323,4.839,9.323,13.453
		c0,8.733-3.658,13.571-9.323,13.571C721.916,103.703,718.316,98.865,718.316,90.132z M734.129,90.132
		c0-7.198-2.597-11.093-6.432-11.093c-3.953,0-6.491,3.895-6.491,11.093c0,7.199,2.538,11.212,6.491,11.212
		C731.533,101.344,734.129,97.331,734.129,90.132z"/>
	<path fill="#FFFFFF" d="M756.841,72.254c0,9.027-3.718,12.863-7.553,12.863c-3.953,0-7.612-4.131-7.612-12.923
		c0-8.969,3.776-13.04,7.671-12.981C753.242,59.213,756.841,63.344,756.841,72.254z M744.332,72.194
		c0,4.013,0.826,10.739,4.897,10.739c4.249,0,5.016-6.845,5.016-10.68c0-3.836-0.826-10.857-5.074-10.799
		C745.099,61.455,744.332,68.418,744.332,72.194z M772.3,58.8l-22.48,45.199h-2.537L769.822,58.8H772.3z M777.906,90.663
		c0,9.028-3.717,12.923-7.611,12.923s-7.553-4.189-7.553-12.981c0-8.969,3.717-13.04,7.611-12.981
		C774.248,77.623,777.906,81.754,777.906,90.663z M765.397,90.663c0,3.954,0.767,10.681,4.897,10.681
		c4.189,0,4.956-6.845,4.956-10.681c0-3.835-0.767-10.856-5.015-10.798C766.164,79.865,765.397,86.828,765.397,90.663z
		 M796.433,90.663c0,9.028-3.717,12.923-7.611,12.923c-3.953,0-7.553-4.189-7.553-12.981c0-8.969,3.718-13.04,7.611-12.981
		C792.775,77.623,796.433,81.754,796.433,90.663z M783.866,90.663c0,3.836,0.649,10.681,4.956,10.681
		c4.189,0,4.957-6.845,4.957-10.681c0-3.776-0.768-10.856-5.074-10.798C784.691,79.865,783.866,86.828,783.866,90.663z"/>
	<path fill="#FFFFFF" d="M4.012,177.275v-42.248h3.422v42.602c0,1.476,0.59,2.124,1.417,2.124c0.236,0,0.472,0,1.121-0.117
		l0.531,2.714c-0.59,0.177-1.18,0.354-2.301,0.354C5.37,182.703,4.012,180.934,4.012,177.275z"/>
	<path fill="#FFFFFF" d="M19.765,177.275v-42.248h3.422v42.602c0,1.476,0.59,2.124,1.417,2.124c0.236,0,0.472,0,1.121-0.117
		l0.531,2.714c-0.59,0.177-1.18,0.354-2.301,0.354C21.123,182.703,19.765,180.934,19.765,177.275z"/>
	<path fill="#FFFFFF" d="M33.335,174.029c0-6.962,6.196-10.267,20.062-11.859c0.118-4.662-1.239-9.5-7.199-9.5
		c-4.13,0-7.729,1.947-9.913,3.599l-1.534-2.478c2.419-1.652,6.786-4.131,11.919-4.131c7.494,0,10.149,5.37,10.149,12.332v19.944
		h-2.891l-0.354-4.013h-0.118c-3.187,2.597-6.963,4.779-10.975,4.779C37.406,182.703,33.335,179.871,33.335,174.029z
		 M53.397,174.915v-10.208c-12.391,1.416-16.64,4.308-16.64,9.146c0,4.308,2.95,5.96,6.432,5.96S49.68,178.16,53.397,174.915z"/>
	<path fill="#FFFFFF" d="M63.425,150.486h3.658l5.488,19.826c0.708,3.009,1.416,5.724,2.006,8.556h0.295
		c0.767-2.832,1.475-5.605,2.242-8.556l5.605-19.826h3.776l5.605,19.826c0.767,3.009,1.475,5.724,2.301,8.556h0.236
		c0.708-2.832,1.417-5.547,2.183-8.556l5.37-19.826h3.363l-8.851,31.45h-4.425l-5.311-18.94c-0.885-3.01-1.476-5.901-2.36-9.028
		h-0.295c-0.708,3.127-1.417,6.077-2.419,9.146l-5.133,18.823h-4.13L63.425,150.486z"/>
	<path fill="#FFFFFF" d="M112.984,150.486h2.833l0.413,4.779h0.118c3.187-3.127,6.432-5.605,10.739-5.605
		c6.55,0,9.559,4.071,9.559,12.155v20.121h-3.422v-19.648c0-6.55-2.065-9.56-6.904-9.56c-3.658,0-6.254,1.889-9.913,5.665v23.543
		h-3.422V150.486z"/>
	<path fill="#FFFFFF" d="M158.472,166.241c0-10.149,6.491-16.581,13.925-16.581c3.776,0,6.314,1.416,9.382,3.836l-0.236-5.665
		v-12.804h3.422v46.909h-2.832l-0.354-3.953h-0.177c-2.537,2.537-6.019,4.72-10.09,4.72
		C163.605,182.703,158.472,176.803,158.472,166.241z M181.543,174.738v-18.174c-3.127-2.833-5.841-3.895-8.792-3.895
		c-6.019,0-10.621,5.842-10.621,13.571c0,8.143,3.599,13.453,9.972,13.453C175.465,179.694,178.416,177.983,181.543,174.738z"/>
	<path fill="#FFFFFF" d="M192.278,153.616h2.832l5.074,18.35c0.354,1.298,0.688,2.566,1.003,3.806
		c0.314,1.238,0.628,2.487,0.944,3.746h0.236c0.314-1.259,0.649-2.508,1.003-3.746c0.354-1.239,0.708-2.508,1.062-3.806l5.133-18.35
		h3.127l5.133,18.35c0.354,1.298,0.708,2.566,1.062,3.806c0.354,1.238,0.708,2.487,1.062,3.746h0.236
		c0.314-1.259,0.649-2.508,1.003-3.746c0.354-1.239,0.688-2.508,1.003-3.806l5.015-18.35h2.655l-8.142,28.32h-3.422l-4.956-17.582
		c-0.433-1.376-0.796-2.724-1.091-4.041c-0.295-1.317-0.659-2.665-1.092-4.042h-0.236c-0.315,1.377-0.659,2.743-1.033,4.101
		c-0.374,1.357-0.777,2.724-1.209,4.101l-4.897,17.464h-3.127L192.278,153.616z M209.86,138.453h2.478l6.903,8.496l-1.298,1.239
		l-6.726-7.434h-0.236l-6.726,7.434l-1.298-1.239L209.86,138.453z"/>
	<path fill="#FFFFFF" d="M237.178,150.486h2.833l0.413,5.842h0.118c2.125-3.953,5.252-6.668,8.91-6.668
		c1.239,0,2.183,0.177,3.186,0.708l-0.708,3.068c-1.062-0.413-1.652-0.531-2.891-0.531c-2.773,0-6.137,2.065-8.438,7.907v21.124
		h-3.422V150.486z"/>
	<path fill="#FFFFFF" d="M268.8,188.31c0-2.773,1.83-5.547,4.721-7.494v-0.295c-1.593-0.944-2.833-2.597-2.833-5.074
		c0-2.715,2.065-4.78,3.481-5.842v-0.236c-2.006-1.652-4.012-4.779-4.012-8.556c0-6.55,5.074-11.152,11.27-11.152
		c1.711,0,3.187,0.413,4.189,0.826h10.739v2.832h-7.081c1.888,1.652,3.246,4.367,3.246,7.553c0,6.491-4.897,11.094-11.093,11.094
		c-1.711,0-3.658-0.473-5.075-1.299c-1.298,1.063-2.478,2.36-2.478,4.367c0,2.242,1.357,3.953,5.9,3.953h6.609
		c7.14,0,10.503,2.242,10.503,7.258c0,5.487-5.9,10.68-15.105,10.68C273.934,196.924,268.8,193.62,268.8,188.31z M293.465,186.716
		c0-3.363-2.478-4.603-7.14-4.603h-6.432c-0.708,0-2.36-0.177-3.954-0.531c-2.714,1.889-3.894,4.189-3.894,6.314
		c0,3.835,3.717,6.432,10.149,6.432C289.04,194.328,293.465,190.492,293.465,186.716z M289.216,160.813
		c0-5.192-3.54-8.379-7.789-8.379c-4.308,0-7.848,3.187-7.848,8.379c0,5.134,3.658,8.556,7.848,8.556
		C285.558,169.368,289.216,165.946,289.216,160.813z"/>
	<path fill="#FFFFFF" d="M300.13,166.241c0-10.208,6.727-16.581,13.808-16.581c7.612,0,12.155,5.429,12.155,14.634
		c0,0.885-0.059,1.711-0.177,2.479h-22.304c0.177,7.67,4.721,13.04,11.506,13.04c3.363,0,6.019-1.063,8.378-2.715l1.298,2.538
		c-2.537,1.593-5.488,3.067-10.031,3.067C306.68,182.703,300.13,176.567,300.13,166.241z M322.966,164.058
		c0-7.611-3.481-11.447-8.969-11.447c-5.134,0-9.736,4.249-10.385,11.447H322.966z"/>
	<path fill="#FFFFFF" d="M334.468,150.486h2.833l0.413,5.842h0.118c2.125-3.953,5.252-6.668,8.91-6.668
		c1.239,0,2.183,0.177,3.186,0.708l-0.708,3.068c-1.062-0.413-1.652-0.531-2.891-0.531c-2.773,0-6.137,2.065-8.438,7.907v21.124
		h-3.422V150.486z"/>
	<path fill="#FFFFFF" d="M369.513,172.968v-19.59h-4.897v-2.597l5.016-0.295l0.413-9.087h2.891v9.087h9.028v2.892h-9.028v19.826
		c0,3.953,1.062,6.549,5.251,6.549c1.18,0,2.714-0.413,3.835-0.943l0.826,2.714c-1.829,0.649-3.835,1.18-5.251,1.18
		C371.401,182.703,369.513,178.81,369.513,172.968z"/>
	<path fill="#FFFFFF" d="M387.92,194.857c-1.062,0-2.026-0.197-2.891-0.59l0.59-2.301c0.314,0.118,0.668,0.226,1.062,0.324
		c0.393,0.098,0.806,0.147,1.239,0.147c1.77,0,3.245-0.708,4.425-2.124s2.124-3.206,2.832-5.369l0.767-2.478l-11.623-28.852h2.832
		l6.844,17.818c0.433,1.18,0.915,2.478,1.446,3.894c0.531,1.416,1.071,2.754,1.623,4.013h0.236c0.432-1.259,0.875-2.597,1.328-4.013
		c0.452-1.416,0.875-2.714,1.269-3.894l6.077-17.818h2.655l-11.21,31.86c-0.394,1.18-0.876,2.34-1.446,3.481
		c-0.57,1.14-1.239,2.143-2.006,3.009c-0.767,0.864-1.652,1.563-2.655,2.094C390.31,194.592,389.179,194.857,387.92,194.857z
		 M395.885,138.453h2.478l6.903,8.496l-1.298,1.239l-6.726-7.434h-0.236l-6.726,7.434l-1.298-1.239L395.885,138.453z"/>
	<path fill="#FFFFFF" d="M428.688,138.921h4.721l8.851,24.724c1.121,3.128,2.242,6.313,3.363,9.441h0.236
		c1.121-3.128,2.124-6.313,3.187-9.441l8.851-24.724h4.721v43.016h-3.363v-27.261c0-3.54,0.236-8.261,0.412-11.86h-0.235
		l-3.363,9.618l-9.028,24.9h-2.832l-9.087-24.9l-3.363-9.618h-0.235c0.176,3.6,0.412,8.32,0.412,11.86v27.261h-3.245V138.921z"/>
	<path fill="#FFFFFF" d="M472.583,174.029c0-6.962,6.195-10.267,20.062-11.859c0.118-4.662-1.239-9.5-7.198-9.5
		c-4.131,0-7.73,1.947-9.914,3.599L474,153.791c2.419-1.652,6.785-4.131,11.919-4.131c7.493,0,10.149,5.37,10.149,12.332v19.944
		h-2.892l-0.354-4.013h-0.117c-3.188,2.597-6.963,4.779-10.976,4.779C476.654,182.703,472.583,179.871,472.583,174.029z
		 M492.645,174.915v-10.208c-12.392,1.416-16.64,4.308-16.64,9.146c0,4.308,2.95,5.96,6.432,5.96S488.927,178.16,492.645,174.915z"
		/>
	<path fill="#FFFFFF" d="M510.343,178.75h-0.117l-0.414,3.187h-2.773v-46.909h3.423v13.453l-0.177,6.019
		c3.127-2.655,6.845-4.839,10.621-4.839c8.379,0,12.627,6.373,12.627,16.05c0,10.739-6.49,16.993-13.866,16.993
		C516.716,182.703,513.235,181.17,510.343,178.75z M529.875,165.71c0-7.553-2.596-13.04-9.618-13.04
		c-3.009,0-6.255,1.77-9.795,5.016v18.174c3.245,2.832,6.608,3.835,8.91,3.835C525.507,179.694,529.875,174.147,529.875,165.71z"/>
	<path fill="#FFFFFF" d="M540.019,166.241c0-10.503,6.609-16.581,14.221-16.581s14.221,6.078,14.221,16.581
		c0,10.443-6.609,16.462-14.221,16.462S540.019,176.685,540.019,166.241z M564.919,166.241c0-8.025-4.543-13.571-10.68-13.571
		s-10.621,5.546-10.621,13.571c0,8.024,4.484,13.512,10.621,13.512S564.919,174.266,564.919,166.241z"/>
	<path fill="#FFFFFF" d="M577.662,150.486h2.832l0.414,4.779h0.117c3.187-3.127,6.432-5.605,10.739-5.605
		c6.55,0,9.56,4.071,9.56,12.155v20.121h-3.423v-19.648c0-6.55-2.065-9.56-6.903-9.56c-3.658,0-6.255,1.889-9.914,5.665v23.543
		h-3.422V150.486z"/>
	<path fill="#FFFFFF" d="M611.114,179.518c0-2.007,1.417-3.245,3.009-3.245c1.594,0,3.01,1.238,3.01,3.245
		c0,1.947-1.416,3.186-3.01,3.186C612.531,182.703,611.114,181.465,611.114,179.518z"/>
	<path fill="#FFFFFF" d="M1.829,253.029c0-6.962,6.196-10.267,20.062-11.859c0.118-4.662-1.239-9.5-7.199-9.5
		c-4.13,0-7.729,1.947-9.913,3.599l-1.534-2.478c2.419-1.652,6.786-4.131,11.919-4.131c7.494,0,10.149,5.37,10.149,12.332v19.944
		h-2.891l-0.354-4.013H21.95c-3.187,2.597-6.963,4.779-10.975,4.779C5.9,261.703,1.829,258.871,1.829,253.029z M21.891,253.915
		v-10.208c-12.391,1.416-16.64,4.308-16.64,9.146c0,4.308,2.95,5.96,6.432,5.96S18.174,257.16,21.891,253.915z"/>
	<path fill="#FFFFFF" d="M34.161,242.173c0-22.481,7.553-25.313,19.708-27.202c3.363-0.53,4.13-0.826,6.019-1.77l0.767,3.304
		c-1.711,1.063-3.541,1.476-6.078,1.889c-10.562,1.711-15.873,2.832-16.875,17.996c3.127-3.894,7.316-6.019,11.506-6.019
		c7.848,0,12.863,5.901,12.863,14.87c0,10.148-6.195,16.462-13.394,16.462C39.531,261.703,34.161,254.741,34.161,242.173z
		 M48.677,258.753c5.487,0,9.795-5.546,9.795-13.512c0-6.904-3.422-11.979-9.913-11.979c-3.481,0-7.258,1.594-10.975,6.491
		c-0.059,0.885-0.059,1.829-0.059,2.832C37.524,252.558,41.183,258.753,48.677,258.753z"/>
	<path fill="#FFFFFF" d="M71.331,229.486h11.506c6.786,0,11.093,2.36,11.093,7.789c0,3.895-2.243,5.9-5.252,6.845v0.235
		c3.364,0.768,6.609,2.951,6.609,7.612c0,6.137-4.779,8.969-12.096,8.969h-11.86V229.486z M81.716,243.058
		c6.313,0,8.674-2.065,8.674-5.487c0-3.423-2.419-5.429-8.084-5.429h-7.553v10.916H81.716z M82.601,258.223
		c6.077,0,9.205-2.242,9.205-6.432c0-3.776-3.363-6.019-9.677-6.019h-7.376v12.45H82.601z"/>
	<path fill="#FFFFFF" d="M103.898,229.486h18.646v2.892H107.32v28.559h-3.422V229.486z"/>
	<path fill="#FFFFFF" d="M147.085,222.469l-0.472,12.39h-14.396v26.078h-2.596v-28.32h14.573l0.767-10.147H147.085z"/>
	<path fill="#FFFFFF" d="M153.044,272.147h-3.009l-0.354-12.096v-2.065h1.298c1.888-0.944,3.422-3.187,4.779-13.926l1.77-14.574
		h17.761v28.5h4.308v2.065l-0.354,12.096h-2.951v-11.211h-23.248V272.147z M155.05,257.986h16.757v-25.608h-11.565l-1.416,12.214
		C158,252.263,156.584,255.98,155.05,257.986z"/>
	<path fill="#FFFFFF" d="M189.269,238.87c1.495-1.494,3.019-2.693,4.573-3.599c1.553-0.904,3.313-1.357,5.28-1.357
		c3.343,0,5.919,1.338,7.729,4.013c1.809,2.675,2.714,7.08,2.714,13.216c0,4.602-0.256,8.398-0.767,11.387
		c-0.512,2.989-1.239,5.369-2.183,7.14c-0.944,1.77-2.104,3.009-3.481,3.717c-1.377,0.708-2.911,1.062-4.602,1.062
		c-0.551,0-1.102-0.069-1.652-0.206c-0.551-0.139-1.003-0.306-1.357-0.502l0.59-2.124c0.314,0.118,0.688,0.245,1.121,0.384
		c0.432,0.138,0.865,0.206,1.298,0.206c1.18,0,2.281-0.314,3.304-0.943c1.022-0.63,1.897-1.722,2.625-3.274
		c0.727-1.555,1.298-3.679,1.711-6.372c0.413-2.694,0.62-6.106,0.62-10.236c0-2.753-0.168-5.084-0.501-6.992
		c-0.335-1.907-0.847-3.46-1.534-4.661c-0.688-1.199-1.544-2.074-2.566-2.625c-1.023-0.551-2.223-0.826-3.599-0.826
		c-1.613,0-3.108,0.404-4.484,1.21c-1.377,0.807-2.95,2.094-4.72,3.864v19.588h-2.596v-34.279h-4.543v-1.711l4.543-0.235v-6.195
		h2.596v6.195h11.21v1.946h-11.21v6.137L189.269,238.87z"/>
	<path fill="#FFFFFF" d="M218.237,232.616h16.579v2.242h-13.983v26.078h-2.596V232.616z M224.373,225.596l7.906-9.263l2.006,1.711
		l-8.496,8.908L224.373,225.596z"/>
	<path fill="#FFFFFF" d="M239.653,245.241c0-10.208,6.727-16.581,13.808-16.581c7.612,0,12.155,5.429,12.155,14.634
		c0,0.885-0.059,1.711-0.177,2.479h-22.304c0.177,7.67,4.721,13.04,11.506,13.04c3.363,0,6.019-1.063,8.378-2.715l1.298,2.538
		c-2.537,1.593-5.488,3.067-10.031,3.067C246.203,261.703,239.653,255.567,239.653,245.241z M262.489,243.058
		c0-7.611-3.481-11.447-8.969-11.447c-5.134,0-9.736,4.249-10.385,11.447H262.489z"/>
	<path fill="#FFFFFF" d="M271.395,245.241c0-10.208,6.727-16.581,13.808-16.581c7.612,0,12.155,5.429,12.155,14.634
		c0,0.885-0.059,1.711-0.177,2.479h-22.304c0.177,7.67,4.721,13.04,11.506,13.04c3.363,0,6.019-1.063,8.378-2.715l1.298,2.538
		c-2.537,1.593-5.488,3.067-10.031,3.067C277.945,261.703,271.395,255.567,271.395,245.241z M294.23,243.058
		c0-7.611-3.481-11.447-8.969-11.447c-5.134,0-9.736,4.249-10.385,11.447H294.23z M276.646,219.455c0-1.475,1.18-2.655,2.596-2.655
		c1.476,0,2.655,1.181,2.655,2.655c0,1.417-1.18,2.538-2.655,2.538C277.827,221.993,276.646,220.872,276.646,219.455z
		 M288.507,219.455c0-1.475,1.121-2.655,2.596-2.655s2.596,1.181,2.596,2.655c0,1.417-1.121,2.538-2.596,2.538
		S288.507,220.872,288.507,219.455z"/>
	<path fill="#FFFFFF" d="M324.79,257.928c-1.22,1.062-2.577,1.947-4.071,2.655c-1.496,0.707-3.147,1.062-4.956,1.062
		c-1.85,0-3.561-0.305-5.133-0.914c-1.574-0.609-2.931-1.534-4.071-2.773c-1.141-1.239-2.036-2.782-2.685-4.632
		c-0.649-1.848-0.974-4.012-0.974-6.489c0-2.518,0.344-4.71,1.033-6.579c0.688-1.867,1.623-3.422,2.802-4.661
		c1.18-1.238,2.546-2.162,4.101-2.772c1.553-0.609,3.216-0.915,4.985-0.915c1.927,0,3.549,0.354,4.868,1.063
		c1.317,0.708,2.468,1.515,3.452,2.419l-1.475,1.77c-0.944-0.864-1.967-1.582-3.068-2.153c-1.102-0.569-2.36-0.855-3.776-0.855
		c-2.714,0-5.015,0.935-6.903,2.803c-1.888,1.868-2.99,4.553-3.304,8.054h15.222v2.124h-15.281c0.078,3.973,1.022,7.012,2.832,9.115
		c1.809,2.104,4.307,3.156,7.493,3.156c1.495,0,2.891-0.324,4.189-0.974c1.298-0.648,2.438-1.425,3.422-2.33L324.79,257.928z"/>
	<path fill="#FFFFFF" d="M337.239,244.355l-2.891-7.375c-1.593-4.131-3.068-4.897-4.78-4.897c-0.413,0-0.531,0.059-0.944,0.177
		l-0.767-3.305c0.413-0.177,1.062-0.295,1.593-0.295c2.891,0,5.251,1.357,7.494,6.786l2.891,7.611h5.959v-13.571h3.127v13.571h5.959
		l2.951-7.611c2.124-5.429,4.602-6.786,7.435-6.786c0.59,0,1.239,0.118,1.593,0.295l-0.708,3.305
		c-0.413-0.118-0.531-0.177-1.003-0.177c-1.652,0-3.186,0.767-4.779,4.897l-2.891,7.375l9.913,16.581h-3.835l-8.438-14.987h-6.196
		v14.987h-3.127v-14.987h-6.136l-8.556,14.987h-3.717L337.239,244.355z"/>
	<path fill="#FFFFFF" d="M374.349,229.486h3.422v13.395h17.525v-13.395h3.422v31.45h-3.422v-14.929h-17.525v14.929h-3.422V229.486z"
		/>
	<path fill="#FFFFFF" d="M434.941,243.886c3.343,0,5.969,0.698,7.877,2.095c1.906,1.396,2.861,3.51,2.861,6.342
		c0,2.872-0.955,5.025-2.861,6.461c-1.908,1.437-4.534,2.153-7.877,2.153h-7.258v-13.688h-15.044v13.688h-2.596v-28.32h2.596v12.272
		h15.044v-12.272h2.597v11.27H434.941z M434.351,258.694c2.949,0,5.133-0.501,6.549-1.504s2.124-2.626,2.124-4.868
		c0-2.202-0.708-3.785-2.124-4.749s-3.6-1.445-6.549-1.445h-4.071v12.566H434.351z"/>
	<path fill="#FFFFFF" d="M451.638,245.241c0-10.503,6.608-16.581,14.221-16.581c7.611,0,14.22,6.078,14.22,16.581
		c0,10.443-6.608,16.462-14.22,16.462C458.247,261.703,451.638,255.685,451.638,245.241z M476.539,245.241
		c0-8.025-4.544-13.571-10.68-13.571c-6.137,0-10.621,5.546-10.621,13.571c0,8.024,4.484,13.512,10.621,13.512
		C471.995,258.753,476.539,253.266,476.539,245.241z"/>
	<path fill="#FFFFFF" d="M489.28,229.486H513v31.45h-3.423v-28.559h-16.875v28.559h-3.423V229.486z"/>
	<path fill="#FFFFFF" d="M524.797,229.486h2.833l0.412,3.836h0.118c3.068-2.36,6.668-4.662,10.503-4.662
		c8.379,0,12.627,6.373,12.627,16.05c0,10.739-6.49,16.993-13.865,16.993c-2.951,0-6.078-1.356-9.265-3.835l0.06,5.782v11.329
		h-3.423V229.486z M547.632,244.71c0-7.553-2.596-13.04-9.617-13.04c-3.01,0-6.137,1.77-9.795,5.016v18.174
		c3.363,2.832,6.608,3.835,8.91,3.835C543.266,258.694,547.632,253.147,547.632,244.71z"/>
	<path fill="#FFFFFF" d="M557.896,245.241c0-10.503,6.785-16.581,14.574-16.581c4.189,0,7.021,1.889,9.205,3.836l-1.947,2.36
		c-1.947-1.83-4.248-3.187-7.198-3.187c-6.255,0-11.034,5.546-11.034,13.571c0,8.024,4.366,13.512,10.975,13.512
		c3.246,0,6.078-1.593,8.202-3.48l1.711,2.359c-2.772,2.36-6.136,4.071-10.09,4.071
		C564.091,261.703,557.896,255.685,557.896,245.241z"/>
	<path fill="#FFFFFF" d="M13.512,299.931H0v-3.01h30.683v3.01H17.112v40.006h-3.6V299.931z"/>
	<path fill="#FFFFFF" d="M48.203,317.162c1.022-0.196,2.192-0.354,3.511-0.472c1.317-0.118,2.605-0.177,3.864-0.177
		c4.169,0,7.395,0.905,9.676,2.714c2.281,1.81,3.422,4.779,3.422,8.909v11.8h-2.655v-11.8c0-3.383-0.896-5.772-2.685-7.169
		c-1.791-1.396-4.455-2.095-7.995-2.095c-1.22,0-2.478,0.069-3.776,0.207c-1.298,0.139-2.419,0.305-3.363,0.501v20.355h-2.714
		v-36.521h-11.21v-2.359H62.54v2.359H48.203V317.162z"/>
	<path fill="#FFFFFF" d="M105.315,339.937h-3.068l-12.921-19.529h-8.024v19.529h-2.714v-38.881h2.714v17.051h8.142l5.664-10.384
		c0.826-1.573,1.563-2.842,2.212-3.806c0.649-0.963,1.269-1.711,1.858-2.242s1.18-0.885,1.77-1.062
		c0.59-0.178,1.258-0.266,2.006-0.266c0.55,0,1.062,0.099,1.534,0.295l-0.472,2.714c-0.197-0.078-0.404-0.138-0.619-0.177
		c-0.217-0.039-0.423-0.06-0.62-0.06c-0.434,0-0.826,0.06-1.18,0.178c-0.354,0.117-0.737,0.374-1.15,0.767
		c-0.413,0.394-0.876,0.964-1.387,1.711c-0.511,0.748-1.121,1.751-1.829,3.009l-5.605,10.385L105.315,339.937z M88.854,296.866
		l7.375-7.257l1.652,1.947l-7.847,6.667L88.854,296.866z"/>
	<path fill="#FFFFFF" d="M110.153,340.113l0.885-3.304c0.649,0.295,1.416,0.472,2.478,0.472c3.245,0,4.838-1.298,6.196-4.189
		l1.003-2.714l-14.633-33.457h3.717l9.382,22.068l3.127,7.671h0.236l2.891-7.671l8.674-22.068h3.717l-14.516,36.053
		c-1.947,4.839-4.603,7.729-9.5,7.729C112.218,340.703,111.274,340.526,110.153,340.113z"/>
	<path fill="#FFFFFF" d="M145.257,340.645c-0.708,0-1.289-0.04-1.74-0.118c-0.453-0.079-0.935-0.217-1.446-0.413l0.708-2.537
		c0.59,0.236,1.317,0.354,2.183,0.354c1.495,0,2.674-0.314,3.54-0.944c0.865-0.629,1.612-1.632,2.242-3.009l1.003-2.537
		l-13.334-30.385h2.891l8.85,20.768l2.773,6.667h0.236l2.537-6.667l8.142-20.768h2.832l-13.157,32.863
		c-0.826,2.124-1.879,3.775-3.157,4.956C149.082,340.055,147.381,340.645,145.257,340.645z M152.101,298.047
		c-1.495,0-2.744-0.227-3.747-0.679s-1.81-1.042-2.419-1.771c-0.61-0.727-1.053-1.533-1.328-2.419
		c-0.275-0.885-0.453-1.779-0.531-2.685h2.478c0.039,0.748,0.157,1.476,0.354,2.184c0.196,0.708,0.511,1.327,0.944,1.858
		c0.432,0.531,0.993,0.954,1.682,1.269c0.688,0.315,1.543,0.472,2.566,0.472c0.982,0,1.829-0.156,2.537-0.472
		c0.708-0.314,1.277-0.737,1.711-1.269c0.432-0.531,0.747-1.15,0.944-1.858c0.196-0.708,0.314-1.436,0.354-2.184h2.478
		c-0.079,0.905-0.256,1.8-0.531,2.685c-0.276,0.886-0.718,1.692-1.328,2.419c-0.61,0.729-1.416,1.318-2.419,1.771
		S153.595,298.047,152.101,298.047z"/>
	<path fill="#FFFFFF" d="M173.046,323.12v-26.199h3.541v26.021c0,11.212,5.192,14.575,11.152,14.575
		c6.078,0,11.388-3.363,11.388-14.575v-26.021h3.363v26.199c0,13.571-7.021,17.583-14.751,17.583S173.046,336.691,173.046,323.12z"
		/>
	<path fill="#FFFFFF" d="M230.395,334.331c-11.86-0.177-18.705-6.078-18.705-16.05c0-9.913,6.845-15.637,18.705-15.813v-6.313h3.187
		v6.313c11.86,0.177,18.764,5.9,18.764,15.813c0,9.972-6.904,15.873-18.764,16.05v6.372h-3.187V334.331z M230.395,331.499v-26.14
		c-9.913,0.118-15.224,4.956-15.224,12.922C215.171,326.307,220.482,331.381,230.395,331.499z M233.582,305.359v26.14
		c9.913-0.118,15.223-5.192,15.223-13.218C248.805,310.197,243.376,305.359,233.582,305.359z"/>
	<path fill="#FFFFFF" d="M267.8,317.691l-11.978-20.771h3.895l6.786,12.273c1.18,1.947,2.065,3.6,3.481,5.96h0.236
		c1.298-2.36,2.065-4.013,3.186-5.96l6.786-12.273h3.659l-11.979,20.947l12.863,22.068h-3.835l-7.257-12.863
		c-1.18-2.065-2.419-4.248-3.954-6.845h-0.236c-1.298,2.597-2.479,4.779-3.6,6.845l-7.199,12.863h-3.658L267.8,317.691z"/>
	<path fill="#FFFFFF" d="M321.374,339.937h-29.326v-43.016h3.541v39.947h21.124v-39.947h3.6v39.947h4.543v2.065l-0.413,13.276
		h-3.068V339.937z"/>
	<path fill="#FFFFFF" d="M354.354,321.113c-2.124,0.413-4.838,0.708-8.438,0.708c-9.5,0-15.341-3.422-15.341-13.217v-11.684h3.481
		v11.684c0,7.848,4.484,10.208,12.214,10.208c3.422,0,6.137-0.354,8.084-0.708v-21.184h3.541v43.016h-3.541V321.113z"/>
	<path fill="#FFFFFF" d="M395.828,339.937h-11.446l-0.354,11.092h-2.301v-11.092h-11.859v-38.881h2.714v36.521h20.532v-36.521h2.714
		V339.937z"/>
	<path fill="#FFFFFF" d="M407.804,296.921h3.481v39.947h16.108v-39.947h3.481v39.947h16.108v-39.947h3.481v43.016h-42.661V296.921z"
		/>
	<path fill="#FFFFFF" d="M462.969,296.921h3.481v39.947h16.109v-39.947h3.48v39.947h16.109v-39.947h3.48v39.947h4.603v2.065
		l-0.472,13.276h-3.068v-12.273h-43.724V296.921z"/>
	<path fill="#FFFFFF" d="M527.163,299.931h-14.339v-3.01h17.879v18.469h8.202c9.205,0,15.695,3.659,15.695,11.742
		c0,8.615-5.665,12.805-15.282,12.805h-12.155V299.931z M538.61,336.986c8.261,0,12.509-3.01,12.509-9.736
		c0-6.019-4.602-8.909-12.98-8.909h-7.436v18.646H538.61z"/>
	<path fill="#FFFFFF" d="M563.917,296.921h3.541v18.469h7.73c9.381,0,15.518,3.481,15.518,11.742
		c0,8.615-5.664,12.805-15.282,12.805h-11.507V296.921z M574.658,336.986c8.26,0,12.509-3.01,12.509-9.736
		c0-6.195-4.308-8.909-12.745-8.909h-6.963v18.646H574.658z M598.377,296.921h3.54v43.016h-3.54V296.921z"/>
	<path fill="#FFFFFF" d="M614.421,296.921h3.541v18.469h8.969c9.322,0,15.459,3.481,15.459,11.742
		c0,8.615-5.664,12.805-15.282,12.805h-12.687V296.921z M626.341,336.986c8.26,0,12.509-3.01,12.509-9.736
		c0-6.195-4.308-8.909-12.687-8.909h-8.201v18.646H626.341z"/>
	<path fill="#FFFFFF" d="M646.4,334.567l2.064-2.242c3.187,3.363,6.727,5.192,11.389,5.192c8.555,0,13.925-6.609,14.102-18.882
		h-19.472v-3.01h19.413c-0.648-10.326-5.664-16.285-14.043-16.285c-4.013,0-7.73,1.711-10.209,4.308l-2.064-2.302
		c2.537-2.714,7.199-5.192,12.391-5.192c10.739,0,17.525,7.907,17.525,22.245c0,14.221-7.081,22.304-17.466,22.304
		C654.07,340.703,649.88,338.402,646.4,334.567z"/>
	<path fill="#FFFFFF" d="M701.507,318.636h-10.68v21.301h-3.541v-43.016h3.541v18.646h10.797
		c0.826-12.037,7.377-19.413,16.817-19.413c10.09,0,17.112,8.497,17.112,22.127c0,13.689-7.022,22.422-17.112,22.422
		C708.292,340.703,701.507,331.971,701.507,318.636z M731.835,318.281c0-11.683-5.191-18.94-13.394-18.94
		c-8.143,0-13.395,7.258-13.395,18.94c0,11.684,5.252,19.236,13.395,19.236C726.644,337.518,731.835,329.965,731.835,318.281z"/>
	<path fill="#FFFFFF" d="M766.29,320.523h-9.323l-12.037,19.413h-4.131l12.51-19.708c-6.078-1.121-10.385-4.839-10.385-11.801
		c0-8.379,5.724-11.507,14.338-11.507h12.568v43.016h-3.54V320.523z M766.29,317.573v-17.701h-8.261
		c-7.376,0-11.506,2.301-11.506,8.556c0,6.195,4.13,9.146,11.506,9.146H766.29z"/>
</g>
<g>
	<g>
		<path fill="#737F8A" d="M0.092,6.149v-0.06h15.659v0.06L7.952,22.468h-0.06L0.092,6.149z"/>
		<path fill="#737F8A" d="M25.771,22.468l1.02-1.11c1.56,1.77,3.81,2.85,6.3,2.85c3.24,0,5.28-1.71,5.28-4.23
			c0-2.61-1.74-3.45-3.87-4.41l-3.24-1.44c-1.89-0.84-4.38-2.19-4.38-5.4c0-3.12,2.73-5.34,6.36-5.34c2.58,0,4.71,1.17,6,2.58
			l-0.93,1.11c-1.29-1.35-3-2.19-5.07-2.19c-2.82,0-4.68,1.47-4.68,3.75c0,2.459,2.13,3.39,3.689,4.08l3.24,1.44
			c2.43,1.08,4.53,2.43,4.53,5.73s-2.73,5.819-6.96,5.819C29.941,25.708,27.511,24.388,25.771,22.468z"/>
		<path fill="#737F8A" d="M43.021,17.458c0-5.22,3.3-8.25,7.08-8.25c3.81,0,7.109,3.03,7.109,8.25s-3.3,8.25-7.109,8.25
			C46.321,25.708,43.021,22.678,43.021,17.458z M55.53,17.458c0-4.05-2.31-6.87-5.43-6.87c-3.15,0-5.43,2.82-5.43,6.87
			c0,4.11,2.28,6.84,5.43,6.84C53.22,24.298,55.53,21.568,55.53,17.458z"/>
		<path fill="#737F8A" d="M61.621,19.648V9.599h1.56v9.87c0,3.27,1.05,4.8,3.54,4.8c1.83,0,3.12-0.93,4.919-3.15V9.599h1.62v15.719
			h-1.35l-0.18-2.61h-0.06c-1.53,1.8-3.15,3-5.31,3C63.121,25.708,61.621,23.729,61.621,19.648z"/>
		<path fill="#737F8A" d="M79.2,9.599h1.35l0.15,2.939h0.09c1.05-1.979,2.61-3.33,4.47-3.33c0.57,0,1.08,0.06,1.56,0.33l-0.42,1.35
			c-0.39-0.12-0.75-0.18-1.35-0.18c-1.41,0-3.06,1.05-4.23,3.99v10.62H79.2V9.599z"/>
		<path fill="#737F8A" d="M88.081,17.458c0-5.22,3.39-8.25,7.2-8.25c2.13,0,3.54,0.87,4.62,1.92l-0.84,1.02
			c-0.96-0.93-2.16-1.56-3.69-1.56c-3.18,0-5.64,2.82-5.64,6.87c0,4.11,2.22,6.84,5.609,6.84c1.65,0,3.09-0.75,4.14-1.68l0.78,1.02
			c-1.35,1.29-3.03,2.07-5.04,2.07C91.141,25.708,88.081,22.678,88.081,17.458z"/>
		<path fill="#737F8A" d="M102.18,17.458c0-5.13,3.36-8.25,6.9-8.25c3.75,0,6.03,2.67,6.03,7.29c0,0.42-0.03,0.81-0.09,1.23H103.8
			c0.12,4.11,2.61,6.6,5.82,6.6c1.71,0,3.09-0.48,4.2-1.26l0.63,1.11c-1.229,0.81-2.7,1.53-4.95,1.53
			C105.45,25.708,102.18,22.648,102.18,17.458z M103.831,16.378h9.779c0-3.84-1.77-5.819-4.53-5.819
			C106.71,10.559,104.22,12.389,103.831,16.378z"/>
		<path fill="#737F8A" d="M124.38,22.468l1.02-1.11c1.56,1.77,3.81,2.85,6.3,2.85c3.24,0,5.28-1.71,5.28-4.23
			c0-2.61-1.74-3.45-3.87-4.41l-3.24-1.44c-1.89-0.84-4.38-2.19-4.38-5.4c0-3.12,2.73-5.34,6.36-5.34c2.58,0,4.71,1.17,6,2.58
			l-0.93,1.11c-1.29-1.35-3-2.19-5.07-2.19c-2.82,0-4.68,1.47-4.68,3.75c0,2.459,2.13,3.39,3.689,4.08l3.24,1.44
			c2.43,1.08,4.53,2.43,4.53,5.73s-2.73,5.819-6.96,5.819C128.55,25.708,126.12,24.388,124.38,22.468z"/>
		<path fill="#737F8A" d="M141.81,21.389c0-3.54,3.15-5.16,10.11-5.94c0.03-2.37-0.66-4.86-3.66-4.86c-2.1,0-3.9,1.02-4.979,1.77
			l-0.72-1.14c1.14-0.84,3.33-2.01,5.88-2.01c3.75,0,5.04,2.67,5.04,6.09v10.02h-1.32l-0.18-2.04h-0.06
			c-1.59,1.32-3.51,2.43-5.52,2.43C143.879,25.708,141.81,24.328,141.81,21.389z M151.919,21.898v-5.22
			c-6.36,0.72-8.46,2.16-8.46,4.62c0,2.19,1.47,3,3.24,3C148.439,24.298,150.029,23.488,151.919,21.898z"/>
		<path fill="#737F8A" d="M159.029,9.599h1.35l0.15,2.4h0.09c1.59-1.56,3.209-2.79,5.37-2.79c3.27,0,4.8,1.98,4.8,6.03v10.08h-1.62
			v-9.87c0-3.27-1.02-4.8-3.51-4.8c-1.83,0-3.15,0.93-5.01,2.88v11.79h-1.62V9.599z"/>
		<path fill="#737F8A" d="M174.539,23.519l0.81-0.99c1.35,1.11,2.73,1.83,5.04,1.83c2.43,0,3.66-1.38,3.66-3
			c0-1.92-1.95-2.79-3.78-3.42c-2.4-0.87-4.89-1.86-4.89-4.53c0-2.28,1.83-4.2,5.1-4.2c1.83,0,3.42,0.69,4.56,1.62l-0.81,1.02
			c-1.05-0.78-2.22-1.32-3.75-1.32c-2.4,0-3.48,1.38-3.48,2.79c0,1.77,1.62,2.43,3.54,3.15c2.49,0.9,5.1,1.74,5.1,4.8
			c0,2.37-1.89,4.439-5.31,4.439C177.869,25.708,175.889,24.868,174.539,23.519z"/>
		<path fill="#737F8A" d="M196.499,3.779h5.52c4.86,0,7.83,1.59,7.83,6.03c0,4.26-2.94,6.33-7.71,6.33h-3.99v9.18h-1.65V3.779z
			 M201.749,14.759c4.35,0,6.419-1.44,6.419-4.95c0-3.51-2.16-4.62-6.54-4.62h-3.48v9.57H201.749z"/>
		<path fill="#737F8A" d="M214.348,9.599h1.35l0.15,2.939h0.09c1.05-1.979,2.61-3.33,4.47-3.33c0.57,0,1.08,0.06,1.56,0.33
			l-0.42,1.35c-0.39-0.12-0.75-0.18-1.35-0.18c-1.41,0-3.06,1.05-4.23,3.99v10.62h-1.62V9.599z"/>
		<path fill="#737F8A" d="M223.228,17.458c0-5.22,3.3-8.25,7.08-8.25c3.81,0,7.109,3.03,7.109,8.25s-3.3,8.25-7.109,8.25
			C226.528,25.708,223.228,22.678,223.228,17.458z M235.738,17.458c0-4.05-2.31-6.87-5.43-6.87c-3.15,0-5.43,2.82-5.43,6.87
			c0,4.11,2.28,6.84,5.43,6.84C233.428,24.298,235.738,21.568,235.738,17.458z"/>
		<path fill="#737F8A" d="M248.758,3.779h1.65v20.129h9.84v1.41h-11.49V3.779z"/>
		<path fill="#737F8A" d="M263.368,4.469c0-0.81,0.54-1.32,1.29-1.32s1.32,0.51,1.32,1.32c0,0.84-0.57,1.38-1.32,1.38
			S263.368,5.309,263.368,4.469z M263.908,9.599h1.62v15.719h-1.62V9.599z"/>
		<path fill="#737F8A" d="M271.407,31.078l0.69-1.2c1.56,1.14,3.21,1.59,4.83,1.59c3.18,0,4.8-1.92,4.86-5.069v-3.51
			c-1.29,1.29-3.06,2.43-5.1,2.43c-3.93,0-6.479-2.91-6.479-8.04c0-4.98,3.24-8.07,6.959-8.07c1.86,0,3.18,0.69,4.53,1.83h0.12
			l0.15-1.44h1.38v16.949c0,3.81-2.34,6.27-6.42,6.27C274.827,32.818,272.938,32.158,271.407,31.078z M281.787,21.358v-8.79
			c-1.65-1.44-3.03-1.98-4.53-1.98c-3.03,0-5.43,2.88-5.43,6.69c0,3.99,1.83,6.629,5.1,6.629
			C278.637,23.908,280.137,23.039,281.787,21.358z"/>
		<path fill="#737F8A" d="M289.287,1.799h1.62v6.81l-0.03,3.42c1.59-1.59,3.209-2.82,5.37-2.82c3.27,0,4.8,1.98,4.8,6.03v10.08
			h-1.62v-9.87c0-3.27-1.02-4.8-3.51-4.8c-1.83,0-3.15,0.93-5.01,2.88v11.79h-1.62V1.799z"/>
		<path fill="#737F8A" d="M307.017,20.908v-9.959h-2.43v-1.23l2.459-0.12l0.21-5.22h1.35v5.22h4.53v1.35h-4.53v10.05
			c0,2.01,0.51,3.33,2.64,3.33c0.6,0,1.2-0.12,1.95-0.48l0.48,1.14c-0.87,0.45-1.83,0.72-2.7,0.72
			C307.947,25.708,307.017,23.788,307.017,20.908z"/>
		<path fill="#737F8A" d="M327.626,15.179h-6.03v-1.32h6.03v-6.57h1.47v6.57h6v1.32h-6v6.57h-1.47V15.179z"/>
		<path fill="#737F8A" d="M344.456,25.078c1.56-1.89,2.7-4.979,3.36-7.26l1.26,0.45c-0.72,2.37-1.8,5.55-3.33,7.5L344.456,25.078z
			 M367.945,14.429h-20.669V1.349h20.669V14.429z M348.686,7.229h8.31v-4.53h-8.31V7.229z M348.686,13.109h8.31v-4.59h-8.31V13.109z
			 M361.675,25.168c1.59,0,1.83-0.54,1.98-4.14c0.39,0.27,0.96,0.48,1.38,0.57c-0.24,3.99-0.75,4.919-3.3,4.919h-6.66
			c-2.82,0-3.6-0.45-3.6-2.34v-6.57h1.44v6.57c0,0.81,0.33,0.99,2.16,0.99H361.675z M360.625,20.818c-1.38-1.32-4.14-3.24-6.48-4.47
			l0.96-0.9c2.34,1.2,5.1,3,6.51,4.35L360.625,20.818z M366.535,2.699h-8.16v4.53h8.16V2.699z M366.535,8.519h-8.16v4.59h8.16V8.519
			z M366.475,17.398c1.8,2.31,3.69,5.43,4.44,7.44l-1.38,0.63c-0.72-2.04-2.55-5.22-4.35-7.53L366.475,17.398z"/>
		<path fill="#737F8A" d="M379.255,12.659c-1.08-1.02-3.27-2.4-5.16-3.27l0.84-1.02c1.83,0.81,4.05,2.13,5.13,3.12L379.255,12.659z
			 M380.785,17.009c-1.32,3.15-3.15,7.02-4.65,9.719l-1.26-0.87c1.38-2.31,3.36-6.33,4.77-9.66L380.785,17.009z M380.605,4.919
			c-1.02-1.14-3.18-2.61-5.01-3.54l0.87-1.02c1.77,0.9,3.99,2.31,5.01,3.39L380.605,4.919z M393.745,16.529v8.939
			c0,0.84-0.18,1.26-0.87,1.47c-0.66,0.24-1.89,0.24-3.96,0.21c-0.09-0.33-0.3-0.87-0.45-1.26c1.62,0.06,2.97,0.03,3.36,0.03
			c0.42-0.03,0.54-0.15,0.54-0.45v-8.939h-5.76V6.479h5.01c0.33-1.11,0.66-2.61,0.84-3.72h-8.009v6.81
			c0,5.16-0.45,12.359-3.99,17.369c-0.24-0.21-0.84-0.6-1.17-0.72c3.42-4.92,3.75-11.7,3.75-16.649v-8.16h18.059v1.35h-7.529
			l0.48,0.12c-0.36,1.17-0.72,2.52-1.05,3.6h6.78v10.05H393.745z M389.335,18.838c-1.02,2.37-2.55,4.86-4.05,6.51
			c-0.27-0.21-0.87-0.63-1.23-0.81c1.59-1.59,3-3.84,3.93-6.06L389.335,18.838z M387.955,10.859h10.439v-3.15h-10.439V10.859z
			 M387.955,15.299h10.439v-3.21h-10.439V15.299z M397.675,18.298c1.56,1.83,3.24,4.35,3.899,6.03l-1.32,0.63
			c-0.63-1.65-2.25-4.23-3.81-6.12L397.675,18.298z"/>
		<path fill="#737F8A" d="M431.004,19.889h-26.489v-1.32h12.479v-3.42h-9.959v-1.26h9.959v-3.09h-9.39V1.229h20.099v9.569h-9.3v3.09
			h9.989v1.26h-9.989v3.42h12.6V19.889z M404.726,26.638c1.38-1.17,2.67-3.18,3.42-5.04l1.32,0.36c-0.78,1.86-2.01,4.02-3.48,5.34
			L404.726,26.638z M416.995,9.509v-7.02h-8.01v7.02H416.995z M412.315,3.449c0.96,1.47,1.89,3.39,2.19,4.62l-1.14,0.48
			c-0.3-1.29-1.17-3.24-2.1-4.709L412.315,3.449z M414.565,22.108c0.39,1.5,0.69,3.54,0.69,4.68l-1.41,0.21
			c0-1.2-0.24-3.27-0.63-4.83L414.565,22.108z M426.265,2.489h-7.86v7.02h7.86V2.489z M420.804,21.958
			c0.721,1.47,1.471,3.48,1.801,4.68l-1.41,0.36c-0.3-1.23-1.02-3.27-1.74-4.8L420.804,21.958z M420.235,8.459
			c0.87-1.32,2.04-3.51,2.67-5.01l1.2,0.51c-0.9,1.68-2.01,3.69-2.91,4.98L420.235,8.459z M426.925,21.628
			c1.529,1.47,3.27,3.57,4.109,4.95l-1.32,0.6c-0.81-1.35-2.55-3.51-4.08-5.07L426.925,21.628z"/>
		<path fill="#737F8A" d="M444.895,13.409v-2.91h-8.819v2.91h-1.2v-4.08h1.71v-8.19h7.83v8.19h1.709v4.08H444.895z M444.416,25.558
			c0,0.78-0.18,1.17-0.721,1.38c-0.57,0.21-1.529,0.21-3.209,0.21c-0.061-0.3-0.301-0.81-0.48-1.17c1.29,0.03,2.369,0.03,2.64,0
			c0.33,0,0.45-0.09,0.45-0.42v-3.78h-5.25v5.4h-1.289v-14.25h7.859V25.558z M437.786,9.329h1.92v-4.62h3.45v-2.37h-5.37V9.329z
			 M437.845,14.099v2.61h5.25v-2.61H437.845z M443.095,20.608v-2.7h-5.25v2.7H443.095z M443.156,5.819h-2.34v3.51h2.34V5.819z
			 M461.394,25.288v1.2h-15.539v-1.2h4.98c-0.15-0.99-0.601-2.31-1.141-3.33l1.141-0.36c0.6,1.05,1.08,2.49,1.229,3.45l-0.69,0.24
			h4.32l-0.6-0.24c0.479-0.99,1.08-2.49,1.379-3.48l1.26,0.45c-0.51,1.11-1.079,2.34-1.559,3.27H461.394z M461.245,14.249h-14.909
			v-1.2h14.909V14.249z M460.015,11.279h-12.6v-8.37h3.689V0h1.199v2.91h2.641V0h1.199v2.91h3.871V11.279z M448.076,21.389v-5.4
			h11.279v5.4H448.076z M448.615,6.479h2.61v-2.43h-2.61V6.479z M448.615,10.139h2.61v-2.49h-2.61V10.139z M449.365,20.278h8.67
			v-3.18h-8.67V20.278z M454.945,6.479v-2.43h-2.641v2.43H454.945z M452.304,7.649v2.49h2.641v-2.49H452.304z M458.754,4.049h-2.729
			v2.43h2.729V4.049z M458.754,7.649h-2.729v2.49h2.729V7.649z"/>
		<path fill="#737F8A" d="M475.765,13.469c0-1.14,0.96-1.98,1.98-1.98c1.02,0,1.979,0.84,1.979,1.98c0,1.17-0.96,2.01-1.979,2.01
			C476.725,15.479,475.765,14.639,475.765,13.469z"/>
		<path fill="#737F8A" d="M503.545,21.389h-6.899v2.34h-1.41V2.249h8.31V21.389z M496.646,3.599v7.38h5.549v-7.38H496.646z
			 M502.195,20.039v-7.74h-5.549v7.74H502.195z M520.134,1.499c0,0,0,0.48-0.029,0.72c-0.391,6.69-0.721,9.06-1.5,9.899
			c-0.45,0.45-0.9,0.63-1.68,0.66c-0.631,0.06-1.951,0.03-3.301-0.06c-0.029-0.42-0.15-0.96-0.42-1.35
			c1.439,0.12,2.79,0.15,3.24,0.15c0.51,0,0.75-0.06,0.99-0.3c0.539-0.57,0.899-2.76,1.229-8.37h-6.69
			c-0.719,4.5-2.369,8.55-7.049,10.709c-0.21-0.3-0.6-0.81-0.93-1.05c4.409-1.89,5.909-5.67,6.539-9.66h-5.67v-1.35H520.134z
			 M505.885,15.089h13.89v11.939h-1.41v-1.44h-11.1v1.56h-1.38V15.089z M507.265,16.438v7.8h11.1v-7.8H507.265z"/>
		<path fill="#737F8A" d="M529.255,12.659c-1.08-1.02-3.27-2.4-5.16-3.27l0.84-1.02c1.83,0.81,4.051,2.13,5.131,3.12L529.255,12.659
			z M530.785,17.009c-1.319,3.15-3.149,7.02-4.649,9.719l-1.26-0.87c1.38-2.31,3.36-6.33,4.771-9.66L530.785,17.009z M530.605,4.919
			c-1.02-1.14-3.18-2.61-5.01-3.54l0.87-1.02c1.771,0.9,3.989,2.31,5.01,3.39L530.605,4.919z M543.745,16.529v8.939
			c0,0.84-0.18,1.26-0.87,1.47c-0.66,0.24-1.89,0.24-3.959,0.21c-0.091-0.33-0.301-0.87-0.451-1.26c1.621,0.06,2.971,0.03,3.36,0.03
			c0.42-0.03,0.54-0.15,0.54-0.45v-8.939h-5.76V6.479h5.01c0.33-1.11,0.66-2.61,0.84-3.72h-8.01v6.81
			c0,5.16-0.449,12.359-3.99,17.369c-0.239-0.21-0.84-0.6-1.17-0.72c3.42-4.92,3.75-11.7,3.75-16.649v-8.16h18.06v1.35h-7.529
			l0.479,0.12c-0.359,1.17-0.72,2.52-1.05,3.6h6.78v10.05H543.745z M539.335,18.838c-1.021,2.37-2.551,4.86-4.051,6.51
			c-0.27-0.21-0.869-0.63-1.229-0.81c1.59-1.59,3-3.84,3.93-6.06L539.335,18.838z M537.955,10.859h10.439v-3.15h-10.439V10.859z
			 M537.955,15.299h10.439v-3.21h-10.439V15.299z M547.675,18.298c1.559,1.83,3.239,4.35,3.898,6.03l-1.319,0.63
			c-0.63-1.65-2.25-4.23-3.81-6.12L547.675,18.298z"/>
		<path fill="#737F8A" d="M581.004,19.889h-26.489v-1.32h12.48v-3.42h-9.96v-1.26h9.96v-3.09h-9.391V1.229h20.1v9.569h-9.3v3.09
			h9.989v1.26h-9.989v3.42h12.6V19.889z M554.726,26.638c1.379-1.17,2.67-3.18,3.42-5.04l1.319,0.36
			c-0.78,1.86-2.01,4.02-3.479,5.34L554.726,26.638z M566.996,9.509v-7.02h-8.01v7.02H566.996z M562.316,3.449
			c0.959,1.47,1.889,3.39,2.189,4.62l-1.141,0.48c-0.3-1.29-1.17-3.24-2.1-4.709L562.316,3.449z M564.565,22.108
			c0.39,1.5,0.69,3.54,0.69,4.68l-1.41,0.21c0-1.2-0.24-3.27-0.63-4.83L564.565,22.108z M576.265,2.489h-7.86v7.02h7.86V2.489z
			 M570.804,21.958c0.721,1.47,1.471,3.48,1.801,4.68l-1.41,0.36c-0.3-1.23-1.02-3.27-1.74-4.8L570.804,21.958z M570.235,8.459
			c0.87-1.32,2.04-3.51,2.67-5.01l1.2,0.51c-0.9,1.68-2.01,3.69-2.91,4.98L570.235,8.459z M576.925,21.628
			c1.529,1.47,3.27,3.57,4.109,4.95l-1.32,0.6c-0.81-1.35-2.55-3.51-4.08-5.07L576.925,21.628z"/>
		<path fill="#737F8A" d="M594.895,13.409v-2.91h-8.819v2.91h-1.2v-4.08h1.71v-8.19h7.83v8.19h1.709v4.08H594.895z M594.416,25.558
			c0,0.78-0.18,1.17-0.721,1.38c-0.57,0.21-1.529,0.21-3.209,0.21c-0.061-0.3-0.301-0.81-0.48-1.17c1.29,0.03,2.369,0.03,2.64,0
			c0.33,0,0.45-0.09,0.45-0.42v-3.78h-5.25v5.4h-1.289v-14.25h7.859V25.558z M587.786,9.329h1.92v-4.62h3.45v-2.37h-5.37V9.329z
			 M587.845,14.099v2.61h5.25v-2.61H587.845z M593.095,20.608v-2.7h-5.25v2.7H593.095z M593.156,5.819h-2.34v3.51h2.34V5.819z
			 M611.394,25.288v1.2h-15.539v-1.2h4.98c-0.15-0.99-0.601-2.31-1.141-3.33l1.141-0.36c0.6,1.05,1.08,2.49,1.229,3.45l-0.69,0.24
			h4.32l-0.6-0.24c0.479-0.99,1.08-2.49,1.379-3.48l1.26,0.45c-0.51,1.11-1.079,2.34-1.559,3.27H611.394z M611.245,14.249h-14.909
			v-1.2h14.909V14.249z M610.015,11.279h-12.6v-8.37h3.689V0h1.199v2.91h2.641V0h1.199v2.91h3.871V11.279z M598.076,21.389v-5.4
			h11.279v5.4H598.076z M598.615,6.479h2.61v-2.43h-2.61V6.479z M598.615,10.139h2.61v-2.49h-2.61V10.139z M599.365,20.278h8.67
			v-3.18h-8.67V20.278z M604.945,6.479v-2.43h-2.641v2.43H604.945z M602.304,7.649v2.49h2.641v-2.49H602.304z M608.754,4.049h-2.729
			v2.43h2.729V4.049z M608.754,7.649h-2.729v2.49h2.729V7.649z"/>
		<path fill="#737F8A" d="M622.435,3.779h1.65v20.129h9.839v1.41h-11.489V3.779z"/>
		<path fill="#737F8A" d="M637.044,4.469c0-0.81,0.54-1.32,1.29-1.32s1.32,0.51,1.32,1.32c0,0.84-0.57,1.38-1.32,1.38
			S637.044,5.309,637.044,4.469z M637.584,9.599h1.62v15.719h-1.62V9.599z"/>
		<path fill="#737F8A" d="M645.084,31.078l0.69-1.2c1.56,1.14,3.209,1.59,4.83,1.59c3.18,0,4.799-1.92,4.859-5.069v-3.51
			c-1.29,1.29-3.061,2.43-5.1,2.43c-3.93,0-6.48-2.91-6.48-8.04c0-4.98,3.24-8.07,6.96-8.07c1.86,0,3.181,0.69,4.53,1.83h0.119
			l0.15-1.44h1.381v16.949c0,3.81-2.341,6.27-6.42,6.27C648.504,32.818,646.615,32.158,645.084,31.078z M655.464,21.358v-8.79
			c-1.65-1.44-3.029-1.98-4.529-1.98c-3.03,0-5.43,2.88-5.43,6.69c0,3.99,1.829,6.629,5.1,6.629
			C652.314,23.908,653.814,23.039,655.464,21.358z"/>
		<path fill="#737F8A" d="M662.964,1.799h1.62v6.81l-0.03,3.42c1.59-1.59,3.21-2.82,5.37-2.82c3.27,0,4.8,1.98,4.8,6.03v10.08h-1.62
			v-9.87c0-3.27-1.021-4.8-3.51-4.8c-1.83,0-3.149,0.93-5.01,2.88v11.79h-1.62V1.799z"/>
		<path fill="#737F8A" d="M680.695,20.908v-9.959h-2.43v-1.23l2.459-0.12l0.21-5.22h1.351v5.22h4.529v1.35h-4.529v10.05
			c0,2.01,0.51,3.33,2.64,3.33c0.6,0,1.2-0.12,1.95-0.48l0.479,1.14c-0.87,0.45-1.83,0.72-2.7,0.72
			C681.625,25.708,680.695,23.788,680.695,20.908z"/>
	</g>
</g>
<g>
</g>
<g>
</g>
<g>
</g>
<g>
</g>
<g>
</g>
<g>
</g>
</svg>
