<?xml version="1.0" encoding="utf-8"?>
<!-- Generator: Adobe Illustrator 16.0.0, SVG Export Plug-In . SVG Version: 6.00 Build 0)  -->
<!DOCTYPE svg PUBLIC "-//W3C//DTD SVG 1.1//EN" "http://www.w3.org/Graphics/SVG/1.1/DTD/svg11.dtd">
<svg version="1.1" id="Layer_1" xmlns="http://www.w3.org/2000/svg" xmlns:xlink="http://www.w3.org/1999/xlink" x="0px" y="0px"
	 width="950px" height="346.279px" viewBox="0 0 950 346.279" enable-background="new 0 0 950 346.279" xml:space="preserve">
<g>
	<path fill="#FFFFFF" d="M7.493,63.2H2.655v-1.593c1.14-0.236,2.114-0.54,2.92-0.914c0.806-0.374,1.543-0.836,2.212-1.387h1.947
		v23.01H7.493V63.2z M30.444,58.598h2.242L11.033,98.895H8.732L30.444,58.598z M40.71,91.461h-3.422v6.726h-2.124v-6.726H24.721
		v-1.239l10.443-15.045h2.124v14.396h3.422V91.461z M35.164,89.573V84.44l0.236-6.136h-0.236l-3.304,4.896l-4.307,6.372H35.164z"/>
	<path fill="#FFFFFF" d="M52.569,63.2h-4.838v-1.593c1.14-0.236,2.114-0.54,2.92-0.914c0.806-0.374,1.543-0.836,2.212-1.387h1.947
		v23.01h-2.242V63.2z M74.163,58.598h2.242L54.752,98.895h-2.301L74.163,58.598z M71.685,96.712c1.966-1.81,3.667-3.423,5.104-4.839
		c1.436-1.415,2.616-2.693,3.54-3.835c0.924-1.14,1.612-2.191,2.065-3.156c0.452-0.963,0.679-1.937,0.679-2.92
		c0-1.691-0.463-3.028-1.387-4.013c-0.924-0.982-2.153-1.475-3.688-1.475c-1.062,0-2.056,0.354-2.979,1.062
		c-0.924,0.708-1.721,1.574-2.389,2.597l-1.475-1.357c0.708-1.18,1.701-2.192,2.979-3.038c1.278-0.846,2.645-1.269,4.101-1.269
		c2.124,0,3.844,0.6,5.163,1.799c1.317,1.201,1.976,3.02,1.976,5.458c0,1.22-0.246,2.38-0.737,3.48
		c-0.492,1.103-1.171,2.223-2.036,3.363c-0.866,1.142-1.917,2.331-3.156,3.569c-1.239,1.239-2.587,2.587-4.042,4.042H86.73v2.006
		H71.685V96.712z"/>
	<path fill="#FFFFFF" d="M100.181,83.024c-1.81,0-3.413-0.442-4.809-1.327c-1.396-0.886-2.488-1.918-3.274-3.098l1.711-1.298
		c0.708,1.141,1.623,2.056,2.744,2.743c1.121,0.688,2.35,1.032,3.688,1.032c1.455,0,2.714-0.422,3.776-1.269
		c1.062-0.845,1.593-2.055,1.593-3.628c0-1.494-0.729-2.655-2.183-3.481c-1.456-0.826-3.442-1.238-5.959-1.238v-1.652
		c2.32,0,4.101-0.491,5.339-1.475c1.239-0.983,1.858-2.144,1.858-3.481c0-1.259-0.442-2.291-1.327-3.098
		c-0.885-0.806-2.075-1.209-3.57-1.209c-0.905,0-1.819,0.285-2.743,0.855c-0.925,0.57-1.761,1.308-2.508,2.212l-1.475-1.298
		c0.826-1.062,1.819-1.947,2.979-2.655c1.16-0.708,2.487-1.062,3.982-1.062c1.927,0,3.569,0.531,4.926,1.593
		c1.357,1.063,2.036,2.558,2.036,4.484c0,1.455-0.423,2.665-1.269,3.628c-0.846,0.965-1.898,1.702-3.156,2.213
		c0.708,0.118,1.376,0.335,2.006,0.648c0.628,0.315,1.199,0.708,1.711,1.181c0.511,0.472,0.915,1.032,1.209,1.682
		c0.295,0.648,0.442,1.386,0.442,2.212c0,1.063-0.197,2.017-0.59,2.861c-0.394,0.847-0.944,1.555-1.652,2.124
		c-0.708,0.571-1.534,1.014-2.478,1.328C102.246,82.868,101.243,83.024,100.181,83.024z M124.667,58.598h2.242l-21.653,40.297
		h-2.301L124.667,58.598z M133.28,91.461h-3.422v6.726h-2.124v-6.726h-10.443v-1.239l10.443-15.045h2.124v14.396h3.422V91.461z
		 M127.734,89.573V84.44l0.236-6.136h-0.236l-3.304,4.896l-4.307,6.372H127.734z"/>
	<path fill="#FFFFFF" d="M145.139,63.2h-4.838v-1.593c1.14-0.236,2.114-0.54,2.92-0.914c0.806-0.374,1.543-0.836,2.212-1.387h1.947
		v23.01h-2.242V63.2z M166.378,58.598h2.242l-21.653,40.297h-2.301L166.378,58.598z M171.334,98.895
		c-1.81,0-3.413-0.442-4.809-1.327c-1.396-0.886-2.488-1.918-3.274-3.098l1.711-1.298c0.708,1.141,1.623,2.056,2.744,2.743
		c1.121,0.688,2.35,1.032,3.688,1.032c1.455,0,2.714-0.422,3.776-1.269c1.062-0.845,1.593-2.055,1.593-3.628
		c0-1.494-0.729-2.655-2.183-3.481c-1.456-0.826-3.442-1.239-5.959-1.239v-1.651c2.32,0,4.101-0.491,5.339-1.476
		c1.239-0.982,1.858-2.143,1.858-3.48c0-1.259-0.442-2.291-1.327-3.098c-0.885-0.806-2.075-1.21-3.57-1.21
		c-0.905,0-1.82,0.286-2.743,0.856c-0.925,0.57-1.761,1.308-2.508,2.212l-1.475-1.298c0.826-1.063,1.819-1.947,2.979-2.655
		c1.16-0.708,2.487-1.062,3.982-1.062c1.927,0,3.569,0.531,4.926,1.593s2.036,2.558,2.036,4.484c0,1.455-0.423,2.665-1.269,3.628
		c-0.846,0.965-1.898,1.702-3.157,2.213c0.708,0.118,1.376,0.334,2.006,0.648c0.628,0.315,1.199,0.708,1.711,1.181
		c0.511,0.472,0.915,1.032,1.209,1.682c0.295,0.648,0.442,1.386,0.442,2.212c0,1.063-0.197,2.017-0.59,2.861
		c-0.394,0.847-0.944,1.555-1.652,2.124c-0.708,0.571-1.534,1.014-2.478,1.328C173.399,98.738,172.396,98.895,171.334,98.895z"/>
	<path fill="#FFFFFF" d="M185.553,80.841c1.966-1.809,3.667-3.422,5.104-4.838c1.435-1.416,2.615-2.694,3.54-3.835
		c0.924-1.141,1.613-2.192,2.065-3.157c0.452-0.963,0.678-1.937,0.678-2.92c0-1.691-0.463-3.028-1.386-4.013
		c-0.925-0.982-2.154-1.475-3.688-1.475c-1.062,0-2.056,0.354-2.979,1.062c-0.925,0.708-1.721,1.574-2.39,2.597l-1.475-1.357
		c0.708-1.18,1.701-2.192,2.979-3.038c1.278-0.846,2.645-1.269,4.101-1.269c2.124,0,3.844,0.6,5.163,1.8
		c1.317,1.2,1.977,3.019,1.977,5.457c0,1.22-0.246,2.38-0.738,3.481c-0.492,1.102-1.171,2.223-2.035,3.362
		c-0.866,1.142-1.918,2.331-3.157,3.569c-1.239,1.239-2.587,2.587-4.042,4.042h11.328v2.006h-15.045V80.841z M215.643,58.598h2.242
		l-21.653,40.297h-2.301L215.643,58.598z M218.77,98.895c-1.81,0-3.413-0.442-4.809-1.327c-1.396-0.886-2.488-1.918-3.274-3.098
		l1.711-1.298c0.708,1.141,1.623,2.056,2.744,2.743c1.121,0.688,2.35,1.032,3.688,1.032c1.455,0,2.714-0.422,3.776-1.269
		c1.062-0.845,1.593-2.055,1.593-3.628c0-1.494-0.729-2.655-2.183-3.481c-1.456-0.826-3.442-1.239-5.959-1.239v-1.651
		c2.32,0,4.101-0.491,5.339-1.476c1.239-0.982,1.858-2.143,1.858-3.48c0-1.259-0.442-2.291-1.327-3.098
		c-0.885-0.806-2.075-1.21-3.57-1.21c-0.905,0-1.82,0.286-2.744,0.856c-0.924,0.57-1.761,1.308-2.507,2.212l-1.475-1.298
		c0.826-1.063,1.819-1.947,2.979-2.655c1.16-0.708,2.487-1.062,3.983-1.062c1.926,0,3.569,0.531,4.926,1.593
		s2.036,2.558,2.036,4.484c0,1.455-0.423,2.665-1.269,3.628c-0.846,0.965-1.898,1.702-3.157,2.213
		c0.708,0.118,1.376,0.334,2.006,0.648c0.628,0.315,1.199,0.708,1.711,1.181c0.511,0.472,0.915,1.032,1.209,1.682
		c0.295,0.648,0.442,1.386,0.442,2.212c0,1.063-0.197,2.017-0.59,2.861c-0.394,0.847-0.944,1.555-1.652,2.124
		c-0.708,0.571-1.534,1.014-2.478,1.328C220.835,98.738,219.832,98.895,218.77,98.895z"/>
	<path fill="#FFFFFF" d="M238.888,63.2h-4.838v-1.593c1.14-0.236,2.114-0.54,2.92-0.914c0.806-0.374,1.543-0.836,2.212-1.387h1.947
		v23.01h-2.242V63.2z M260.718,58.598h2.242l-21.653,40.297h-2.301L260.718,58.598z M265.202,98.895
		c-1.18,0-2.242-0.168-3.186-0.502c-0.944-0.333-1.75-0.796-2.419-1.386c-0.669-0.59-1.18-1.269-1.534-2.036
		c-0.354-0.767-0.531-1.583-0.531-2.448c0-1.534,0.452-2.861,1.357-3.982c0.904-1.121,1.927-2.016,3.068-2.685V85.62
		c-1.023-0.668-1.849-1.386-2.478-2.153c-0.629-0.767-0.944-1.779-0.944-3.038c0-1.771,0.639-3.206,1.917-4.308
		c1.278-1.101,2.861-1.651,4.75-1.651c1.966,0,3.608,0.541,4.926,1.622c1.317,1.082,1.977,2.528,1.977,4.337
		c0,0.747-0.118,1.416-0.354,2.006c-0.236,0.59-0.531,1.121-0.885,1.593s-0.738,0.885-1.15,1.239
		c-0.413,0.354-0.797,0.669-1.151,0.944v0.235c1.376,0.708,2.449,1.515,3.216,2.419c0.767,0.905,1.15,2.046,1.15,3.422
		c0,0.944-0.197,1.82-0.59,2.626c-0.394,0.807-0.935,1.505-1.623,2.095c-0.689,0.59-1.505,1.053-2.449,1.386
		C267.326,98.727,266.303,98.895,265.202,98.895z M265.202,97.007c0.747,0,1.455-0.128,2.124-0.384
		c0.668-0.256,1.248-0.59,1.74-1.003c0.492-0.413,0.885-0.904,1.18-1.475s0.442-1.17,0.442-1.8c0-0.865-0.197-1.573-0.59-2.124
		c-0.394-0.551-0.925-1.032-1.593-1.445c-0.669-0.413-1.426-0.768-2.271-1.063c-0.846-0.295-1.721-0.619-2.625-0.974
		c-2.557,1.416-3.835,3.285-3.835,5.605c0,1.18,0.492,2.252,1.475,3.215C262.232,96.526,263.55,97.007,265.202,97.007z
		 M266.795,85.62c2.045-1.572,3.068-3.323,3.068-5.251c0-1.18-0.463-2.124-1.387-2.832c-0.925-0.708-2.016-1.062-3.274-1.062
		c-1.22,0-2.262,0.374-3.127,1.121c-0.866,0.747-1.298,1.691-1.298,2.832c0,1.377,0.58,2.448,1.741,3.215
		C263.677,84.411,265.104,85.07,266.795,85.62z"/>
	<path fill="#FFFFFF" d="M286.441,83.024c-1.81,0-3.413-0.442-4.809-1.327c-1.396-0.886-2.488-1.918-3.274-3.098l1.711-1.298
		c0.708,1.141,1.623,2.056,2.744,2.743c1.121,0.688,2.35,1.032,3.688,1.032c1.455,0,2.714-0.422,3.776-1.269
		c1.062-0.845,1.593-2.055,1.593-3.628c0-1.494-0.729-2.655-2.183-3.481c-1.456-0.826-3.442-1.238-5.959-1.238v-1.652
		c2.32,0,4.101-0.491,5.339-1.475c1.239-0.983,1.858-2.144,1.858-3.481c0-1.259-0.442-2.291-1.327-3.098
		c-0.885-0.806-2.075-1.209-3.57-1.209c-0.905,0-1.819,0.285-2.743,0.855c-0.925,0.57-1.761,1.308-2.508,2.212l-1.475-1.298
		c0.826-1.062,1.819-1.947,2.979-2.655c1.16-0.708,2.487-1.062,3.982-1.062c1.927,0,3.569,0.531,4.926,1.593
		c1.357,1.063,2.036,2.558,2.036,4.484c0,1.455-0.423,2.665-1.269,3.628c-0.846,0.965-1.898,1.702-3.156,2.213
		c0.708,0.118,1.376,0.335,2.006,0.648c0.628,0.315,1.199,0.708,1.711,1.181c0.511,0.472,0.915,1.032,1.209,1.682
		c0.295,0.648,0.442,1.386,0.442,2.212c0,1.063-0.197,2.017-0.59,2.861c-0.394,0.847-0.944,1.555-1.652,2.124
		c-0.708,0.571-1.534,1.014-2.478,1.328C288.506,82.868,287.503,83.024,286.441,83.024z M309.333,58.598h2.242l-21.653,40.297
		h-2.301L309.333,58.598z M312.638,98.895c-1.18,0-2.242-0.168-3.186-0.502c-0.944-0.333-1.751-0.796-2.419-1.386
		c-0.669-0.59-1.18-1.269-1.534-2.036c-0.354-0.767-0.531-1.583-0.531-2.448c0-1.534,0.452-2.861,1.357-3.982
		c0.904-1.121,1.927-2.016,3.068-2.685V85.62c-1.023-0.668-1.849-1.386-2.478-2.153c-0.63-0.767-0.944-1.779-0.944-3.038
		c0-1.771,0.639-3.206,1.917-4.308c1.277-1.101,2.861-1.651,4.75-1.651c1.966,0,3.608,0.541,4.926,1.622
		c1.317,1.082,1.977,2.528,1.977,4.337c0,0.747-0.118,1.416-0.354,2.006s-0.531,1.121-0.885,1.593s-0.738,0.885-1.151,1.239
		c-0.413,0.354-0.796,0.669-1.15,0.944v0.235c1.376,0.708,2.449,1.515,3.215,2.419c0.767,0.905,1.151,2.046,1.151,3.422
		c0,0.944-0.197,1.82-0.59,2.626c-0.394,0.807-0.935,1.505-1.623,2.095c-0.688,0.59-1.504,1.053-2.448,1.386
		C314.762,98.727,313.738,98.895,312.638,98.895z M312.638,97.007c0.747,0,1.455-0.128,2.124-0.384
		c0.668-0.256,1.248-0.59,1.74-1.003c0.491-0.413,0.885-0.904,1.18-1.475s0.442-1.17,0.442-1.8c0-0.865-0.197-1.573-0.59-2.124
		c-0.394-0.551-0.925-1.032-1.593-1.445c-0.669-0.413-1.426-0.768-2.271-1.063c-0.846-0.295-1.721-0.619-2.625-0.974
		c-2.557,1.416-3.835,3.285-3.835,5.605c0,1.18,0.491,2.252,1.475,3.215C309.667,96.526,310.985,97.007,312.638,97.007z
		 M314.23,85.62c2.045-1.572,3.068-3.323,3.068-5.251c0-1.18-0.462-2.124-1.386-2.832c-0.925-0.708-2.016-1.062-3.274-1.062
		c-1.22,0-2.262,0.374-3.127,1.121c-0.866,0.747-1.298,1.691-1.298,2.832c0,1.377,0.58,2.448,1.741,3.215
		C311.113,84.411,312.539,85.07,314.23,85.62z"/>
	<path fill="#FFFFFF" d="M334.113,83.024c-2.006,0-3.679-0.442-5.015-1.327c-1.338-0.886-2.439-1.918-3.304-3.098l1.711-1.298
		c0.787,1.141,1.711,2.056,2.773,2.743c1.062,0.688,2.339,1.032,3.835,1.032c1.573,0,2.881-0.561,3.923-1.681
		c1.042-1.121,1.563-2.567,1.563-4.337c0-1.849-0.512-3.313-1.534-4.396c-1.023-1.081-2.38-1.623-4.071-1.623
		c-1.062,0-1.977,0.228-2.744,0.679c-0.767,0.453-1.466,0.935-2.094,1.445l-1.416-0.943l1.18-10.915h11.741v2.124h-9.794
		l-0.767,7.021c0.59-0.314,1.229-0.59,1.917-0.825c0.688-0.236,1.484-0.354,2.39-0.354c1.062,0,2.044,0.168,2.95,0.502
		c0.904,0.334,1.691,0.836,2.36,1.504c0.668,0.67,1.199,1.485,1.593,2.448c0.393,0.965,0.59,2.095,0.59,3.393
		c0,1.181-0.197,2.263-0.59,3.245c-0.394,0.983-0.944,1.82-1.652,2.508c-0.708,0.688-1.534,1.22-2.478,1.593
		C336.237,82.837,335.213,83.024,334.113,83.024z M356.769,58.598h2.242l-21.653,40.297h-2.301L356.769,58.598z M360.073,98.895
		c-1.18,0-2.242-0.168-3.186-0.502c-0.944-0.333-1.751-0.796-2.419-1.386c-0.669-0.59-1.18-1.269-1.534-2.036
		c-0.354-0.767-0.531-1.583-0.531-2.448c0-1.534,0.452-2.861,1.357-3.982c0.904-1.121,1.927-2.016,3.068-2.685V85.62
		c-1.023-0.668-1.849-1.386-2.478-2.153c-0.63-0.767-0.944-1.779-0.944-3.038c0-1.771,0.639-3.206,1.917-4.308
		c1.277-1.101,2.861-1.651,4.75-1.651c1.966,0,3.608,0.541,4.926,1.622c1.317,1.082,1.977,2.528,1.977,4.337
		c0,0.747-0.118,1.416-0.354,2.006s-0.531,1.121-0.885,1.593s-0.738,0.885-1.151,1.239c-0.413,0.354-0.796,0.669-1.15,0.944v0.235
		c1.376,0.708,2.449,1.515,3.215,2.419c0.767,0.905,1.151,2.046,1.151,3.422c0,0.944-0.197,1.82-0.59,2.626
		c-0.394,0.807-0.935,1.505-1.623,2.095c-0.688,0.59-1.504,1.053-2.448,1.386C362.197,98.727,361.173,98.895,360.073,98.895z
		 M360.073,97.007c0.747,0,1.455-0.128,2.124-0.384c0.668-0.256,1.248-0.59,1.74-1.003c0.491-0.413,0.885-0.904,1.18-1.475
		s0.442-1.17,0.442-1.8c0-0.865-0.197-1.573-0.59-2.124c-0.394-0.551-0.925-1.032-1.593-1.445c-0.669-0.413-1.426-0.768-2.271-1.063
		c-0.846-0.295-1.721-0.619-2.625-0.974c-2.557,1.416-3.835,3.285-3.835,5.605c0,1.18,0.491,2.252,1.475,3.215
		C357.103,96.526,358.42,97.007,360.073,97.007z M361.666,85.62c2.045-1.572,3.068-3.323,3.068-5.251
		c0-1.18-0.462-2.124-1.386-2.832c-0.925-0.708-2.016-1.062-3.274-1.062c-1.22,0-2.262,0.374-3.127,1.121
		c-0.866,0.747-1.298,1.691-1.298,2.832c0,1.377,0.58,2.448,1.741,3.215C358.548,84.411,359.974,85.07,361.666,85.62z"/>
	<path fill="#FFFFFF" d="M404.853,65.619c-0.552-0.55-1.092-1.041-1.623-1.475c-0.531-0.433-1.091-0.806-1.682-1.121
		c-0.59-0.314-1.239-0.551-1.947-0.708c-0.708-0.156-1.515-0.236-2.419-0.236c-2.046,0-3.698,0.641-4.956,1.918
		c-1.259,1.278-1.888,2.901-1.888,4.867c0,1.731,0.422,3.118,1.269,4.16c0.845,1.042,1.897,1.946,3.157,2.714
		c1.258,0.767,2.625,1.475,4.1,2.124c1.475,0.648,2.841,1.436,4.101,2.359c1.258,0.925,2.311,2.086,3.157,3.481
		c0.846,1.396,1.269,3.216,1.269,5.457c0,2.832-0.855,5.095-2.567,6.785c-1.71,1.691-3.884,2.655-6.519,2.892v5.841h-2.301v-5.841
		c-2.045-0.158-3.914-0.679-5.605-1.563c-1.691-0.886-3.107-1.878-4.248-2.979l1.416-1.829c1.141,1.022,2.498,1.967,4.071,2.832
		c1.573,0.865,3.383,1.298,5.428,1.298c2.478,0,4.375-0.669,5.693-2.006c1.317-1.337,1.977-3.088,1.977-5.251
		c0-1.927-0.423-3.49-1.269-4.69c-0.846-1.2-1.898-2.223-3.156-3.068c-1.259-0.846-2.625-1.603-4.101-2.271
		s-2.842-1.436-4.101-2.301c-1.259-0.865-2.311-1.918-3.156-3.157c-0.847-1.238-1.269-2.861-1.269-4.867
		c0-1.219,0.207-2.36,0.619-3.422c0.413-1.063,0.993-1.996,1.741-2.803c0.747-0.806,1.632-1.465,2.655-1.977
		c1.022-0.511,2.124-0.826,3.304-0.943v-5.842h2.301v5.842c1.927,0.117,3.5,0.57,4.72,1.356c1.219,0.787,2.34,1.711,3.363,2.773
		L404.853,65.619z"/>
	<path fill="#FFFFFF" d="M436.181,95.827v2.36h-21.89v-1.593c2.203-1.259,3.796-2.91,4.779-4.956
		c0.982-2.045,1.476-4.209,1.476-6.49c0-0.747-0.05-1.475-0.147-2.183c-0.099-0.708-0.227-1.396-0.384-2.065h-5.899v-1.947
		l3.894-0.177h1.416c-0.434-1.494-0.855-2.979-1.269-4.454c-0.413-1.476-0.619-2.979-0.619-4.514c0-3.106,0.895-5.556,2.684-7.346
		c1.79-1.789,4.238-2.685,7.346-2.685c2.045,0,3.746,0.413,5.104,1.239s2.487,1.81,3.393,2.95l-1.711,1.593
		c-0.826-0.982-1.77-1.809-2.832-2.479c-1.063-0.668-2.38-1.003-3.953-1.003c-1.219,0-2.291,0.197-3.215,0.591
		c-0.925,0.394-1.691,0.943-2.301,1.651c-0.611,0.708-1.072,1.534-1.387,2.479c-0.315,0.943-0.473,1.946-0.473,3.009
		c0,1.573,0.207,3.078,0.619,4.514c0.414,1.436,0.836,2.92,1.27,4.454h9.734V80.9h-9.263c0.157,0.669,0.274,1.348,0.354,2.035
		c0.078,0.689,0.117,1.427,0.117,2.213c0,2.439-0.374,4.465-1.121,6.077c-0.747,1.613-1.79,3.068-3.127,4.366v0.235H436.181z"/>
	<path fill="#FFFFFF" d="M451.934,88.452h-9.795v-2.006h9.795v-4.188h-9.795V80.31h8.969l-10.148-19.824h2.832l5.546,11.387
		c0.629,1.299,1.259,2.606,1.888,3.924c0.629,1.318,1.299,2.705,2.006,4.159h0.236c0.747-1.454,1.426-2.841,2.035-4.159
		c0.609-1.317,1.248-2.625,1.918-3.924l5.546-11.387h2.714L455.414,80.31h9.086v1.947h-9.912v4.188h9.912v2.006h-9.912v9.735h-2.654
		V88.452z"/>
	<path fill="#FFFFFF" d="M495.415,93.349c-1.259,1.731-2.655,3.088-4.188,4.071c-1.534,0.982-3.402,1.475-5.605,1.475
		c-1.73,0-3.324-0.354-4.779-1.062c-1.455-0.708-2.734-1.721-3.834-3.039c-1.102-1.317-2.027-2.91-2.773-4.779
		c-0.748-1.867-1.26-3.982-1.534-6.342h-3.835v-1.711l3.658-0.236c-0.04-0.433-0.059-0.846-0.059-1.239c0-0.393,0-0.806,0-1.239
		c0-0.354,0-0.708,0-1.062c0-0.354,0.019-0.688,0.059-1.003h-3.658v-1.711l3.835-0.236c0.274-2.398,0.786-4.552,1.534-6.46
		c0.746-1.908,1.711-3.53,2.891-4.868c1.18-1.336,2.566-2.359,4.16-3.067c1.593-0.708,3.333-1.063,5.221-1.063
		c1.771,0,3.383,0.453,4.838,1.357c1.455,0.905,2.615,1.986,3.481,3.245l-1.711,1.593c-0.866-1.18-1.839-2.134-2.921-2.861
		s-2.311-1.092-3.688-1.092c-3.146,0-5.664,1.171-7.552,3.511c-1.888,2.341-3.048,5.575-3.481,9.705h16.402v1.947h-16.578
		c-0.041,0.315-0.06,0.64-0.06,0.974s0,0.679,0,1.032c0,0.434,0,0.855,0,1.269s0.019,0.836,0.06,1.269h14.219v1.947h-14.043
		c0.512,4.012,1.652,7.179,3.422,9.499c1.771,2.321,4.072,3.48,6.904,3.48c1.651,0,3.097-0.393,4.336-1.18
		c1.238-0.786,2.428-1.986,3.569-3.6L495.415,93.349z"/>
	<path fill="#FFFFFF" d="M521.375,89.691c-1.142,1.063-2.43,1.938-3.865,2.626s-3.02,1.071-4.75,1.15v6.372h-2.006v-6.432
		c-1.651-0.156-3.176-0.569-4.572-1.238s-2.596-1.583-3.599-2.744c-1.003-1.159-1.79-2.546-2.36-4.159
		c-0.57-1.612-0.855-3.422-0.855-5.428c0-2.045,0.295-3.865,0.885-5.458s1.406-2.969,2.449-4.13c1.041-1.16,2.251-2.074,3.629-2.743
		c1.376-0.669,2.851-1.082,4.424-1.239v-6.549h2.006v6.431c1.889,0.079,3.461,0.463,4.721,1.15c1.258,0.688,2.34,1.485,3.245,2.39
		l-1.416,1.652c-0.905-0.787-1.888-1.445-2.95-1.977s-2.262-0.835-3.6-0.915v22.715c1.455-0.078,2.793-0.412,4.013-1.003
		c1.219-0.59,2.301-1.317,3.245-2.183L521.375,89.691z M510.754,68.569c-1.259,0.197-2.429,0.61-3.51,1.239
		c-1.082,0.63-2.006,1.426-2.773,2.39c-0.767,0.964-1.367,2.095-1.799,3.393c-0.434,1.298-0.649,2.714-0.649,4.248
		c0,3.067,0.776,5.604,2.331,7.61c1.553,2.006,3.688,3.207,6.4,3.6V68.569z"/>
	<path fill="#FFFFFF" d="M549.398,61.784c-0.472-0.196-0.994-0.393-1.563-0.59c-0.571-0.196-1.27-0.295-2.096-0.295
		c-1.023,0-1.888,0.266-2.596,0.797c-0.708,0.53-1.289,1.238-1.74,2.124c-0.453,0.885-0.816,1.897-1.092,3.038
		c-0.275,1.142-0.472,2.301-0.59,3.481l-0.413,3.953h8.142v2.183h-8.377l-1.711,15.694c-0.197,1.81-0.502,3.441-0.915,4.896
		s-0.974,2.693-1.682,3.717c-0.708,1.022-1.583,1.809-2.626,2.36c-1.042,0.551-2.271,0.826-3.688,0.826
		c-1.494,0-2.772-0.315-3.834-0.944l0.767-2.006c0.944,0.433,1.966,0.649,3.067,0.649c1.063,0,1.957-0.247,2.686-0.738
		c0.727-0.492,1.346-1.171,1.857-2.035s0.904-1.888,1.181-3.068c0.274-1.18,0.491-2.478,0.649-3.894l1.651-15.458h-5.604v-1.947
		l3.953-0.235h1.888l0.413-3.718c0.393-3.696,1.258-6.617,2.596-8.761c1.337-2.144,3.343-3.216,6.018-3.216
		c0.983,0,1.819,0.118,2.508,0.354c0.688,0.236,1.308,0.473,1.859,0.708L549.398,61.784z"/>
	<path fill="#FFFFFF" d="M578.367,62.433h-8.732c1.259,0.59,2.311,1.426,3.156,2.508s1.406,2.351,1.682,3.805h3.895v2.007h-3.776
		c-0.079,3.226-1.053,5.723-2.921,7.492c-1.868,1.771-4.316,2.853-7.345,3.245l11.858,16.697h-3.186l-11.623-16.579h-4.838v-2.301
		h4.425c3.422,0,6.077-0.688,7.965-2.065c1.888-1.376,2.871-3.54,2.95-6.489h-15.34v-1.771l3.953-0.236h11.269
		c-0.433-2.162-1.573-3.706-3.422-4.631c-1.849-0.924-4.308-1.387-7.375-1.387h-4.425v-2.242h21.83V62.433z"/>
	<path fill="#FFFFFF" d="M588.16,81.372l-6.018,3.068v-2.124l6.018-3.068V74.41l-6.018,3.068v-2.124l6.018-3.127V60.486h2.714
		v10.443l10.384-5.428v2.124l-10.384,5.428v4.838l10.384-5.428v2.124l-10.384,5.428v16.343c1.416,0,2.921-0.226,4.514-0.679
		c1.593-0.451,3.048-1.13,4.366-2.035c1.317-0.904,2.408-2.025,3.274-3.363c0.864-1.337,1.298-2.93,1.298-4.778
		c0-0.433-0.01-0.886-0.029-1.357c-0.021-0.472-0.129-1.022-0.324-1.652l2.359-0.767c0.156,0.787,0.266,1.426,0.324,1.917
		c0.06,0.493,0.089,1.054,0.089,1.682c0,2.36-0.512,4.406-1.534,6.137c-1.023,1.73-2.389,3.156-4.1,4.277s-3.688,1.938-5.93,2.448
		s-4.583,0.747-7.021,0.708V81.372z"/>
	<path fill="#FFFFFF" d="M616.834,81.667v3.952h12.213v2.007h-12.213v10.561h-2.537V87.626h-4.721v-1.712l4.721-0.295v-3.952h-4.721
		v-1.712l4.721-0.295V60.486h5.369c1.848,0,3.549,0.188,5.104,0.561c1.553,0.374,2.891,0.974,4.012,1.8s1.985,1.888,2.596,3.186
		c0.609,1.298,0.914,2.853,0.914,4.661c0,1.888-0.314,3.521-0.943,4.897c-0.63,1.377-1.505,2.518-2.625,3.422
		c-1.121,0.905-2.449,1.573-3.983,2.006c-1.534,0.434-3.226,0.649-5.073,0.649H616.834z M616.834,79.661h2.183
		c3.46,0,6.097-0.717,7.905-2.153c1.81-1.436,2.715-3.688,2.715-6.755c0-3.028-0.914-5.152-2.744-6.372
		c-1.828-1.219-4.454-1.829-7.876-1.829h-2.183V79.661z"/>
	<path fill="#FFFFFF" d="M659.49,83.024c-2.597,0-4.633-1.052-6.107-3.156c-1.475-2.104-2.213-5.143-2.213-9.115
		c0-3.934,0.738-6.942,2.213-9.027c1.475-2.084,3.511-3.127,6.107-3.127c2.596,0,4.631,1.043,6.105,3.127
		c1.476,2.085,2.213,5.094,2.213,9.027c0,3.973-0.737,7.012-2.213,9.115C664.121,81.972,662.086,83.024,659.49,83.024z
		 M659.49,81.077c1.848,0,3.313-0.894,4.395-2.685c1.082-1.789,1.623-4.336,1.623-7.64c0-3.305-0.541-5.831-1.623-7.582
		c-1.082-1.75-2.547-2.625-4.395-2.625c-1.85,0-3.314,0.875-4.396,2.625c-1.082,1.751-1.622,4.277-1.622,7.582
		c0,3.304,0.54,5.851,1.622,7.64C656.176,80.183,657.641,81.077,659.49,81.077z M682.205,58.598h2.242l-21.654,40.297h-2.301
		L682.205,58.598z M685.627,98.895c-2.596,0-4.632-1.052-6.107-3.156c-1.475-2.104-2.212-5.143-2.212-9.116
		c0-3.933,0.737-6.941,2.212-9.026c1.476-2.085,3.512-3.127,6.107-3.127s4.631,1.042,6.105,3.127
		c1.476,2.085,2.213,5.094,2.213,9.026c0,3.974-0.737,7.013-2.213,9.116C690.258,97.843,688.223,98.895,685.627,98.895z
		 M685.627,96.948c1.848,0,3.313-0.894,4.395-2.685c1.082-1.789,1.623-4.336,1.623-7.641c0-3.304-0.541-5.83-1.623-7.581
		c-1.082-1.75-2.547-2.626-4.395-2.626c-1.85,0-3.314,0.876-4.396,2.626c-1.082,1.751-1.622,4.277-1.622,7.581
		c0,3.305,0.54,5.852,1.622,7.641C682.313,96.054,683.777,96.948,685.627,96.948z"/>
	<path fill="#FFFFFF" d="M706.984,83.024c-2.596,0-4.632-1.052-6.107-3.156c-1.475-2.104-2.212-5.143-2.212-9.115
		c0-3.934,0.737-6.942,2.212-9.027c1.476-2.084,3.512-3.127,6.107-3.127s4.631,1.043,6.106,3.127
		c1.476,2.085,2.212,5.094,2.212,9.027c0,3.973-0.736,7.012-2.212,9.115C711.615,81.972,709.58,83.024,706.984,83.024z
		 M706.984,81.077c1.848,0,3.313-0.894,4.396-2.685c1.081-1.789,1.622-4.336,1.622-7.64c0-3.305-0.541-5.831-1.622-7.582
		c-1.083-1.75-2.548-2.625-4.396-2.625c-1.85,0-3.314,0.875-4.396,2.625c-1.083,1.751-1.622,4.277-1.622,7.582
		c0,3.304,0.539,5.851,1.622,7.64C703.67,80.183,705.135,81.077,706.984,81.077z M729.463,58.598h2.242l-21.652,40.297h-2.302
		L729.463,58.598z M732.944,98.895c-2.597,0-4.632-1.052-6.106-3.156c-1.475-2.104-2.213-5.143-2.213-9.116
		c0-3.933,0.738-6.941,2.213-9.026s3.51-3.127,6.106-3.127c2.596,0,4.632,1.042,6.106,3.127s2.213,5.094,2.213,9.026
		c0,3.974-0.738,7.013-2.213,9.116C737.576,97.843,735.54,98.895,732.944,98.895z M732.944,96.948c1.849,0,3.313-0.894,4.396-2.685
		c1.081-1.789,1.623-4.336,1.623-7.641c0-3.304-0.542-5.83-1.623-7.581c-1.082-1.75-2.547-2.626-4.396-2.626
		c-1.85,0-3.314,0.876-4.396,2.626c-1.082,1.751-1.623,4.277-1.623,7.581c0,3.305,0.541,5.852,1.623,7.641
		C729.63,96.054,731.095,96.948,732.944,96.948z M754.184,98.895c-2.596,0-4.631-1.052-6.105-3.156
		c-1.476-2.104-2.213-5.143-2.213-9.116c0-3.933,0.737-6.941,2.213-9.026c1.475-2.085,3.51-3.127,6.105-3.127
		c2.597,0,4.633,1.042,6.107,3.127s2.213,5.094,2.213,9.026c0,3.974-0.738,7.013-2.213,9.116
		C758.816,97.843,756.78,98.895,754.184,98.895z M754.184,96.948c1.85,0,3.314-0.894,4.396-2.685
		c1.081-1.789,1.622-4.336,1.622-7.641c0-3.304-0.541-5.83-1.622-7.581c-1.082-1.75-2.547-2.626-4.396-2.626
		c-1.849,0-3.313,0.876-4.395,2.626c-1.082,1.751-1.623,4.277-1.623,7.581c0,3.305,0.541,5.852,1.623,7.641
		C750.87,96.054,752.335,96.948,754.184,96.948z"/>
	<path fill="#FFFFFF" d="M7.198,177.895c-2.321,0-3.481-1.494-3.481-4.484v-38.645h2.596v38.999c0,0.63,0.118,1.092,0.354,1.387
		s0.531,0.442,0.885,0.442c0.118,0,0.245,0,0.383,0c0.137,0,0.363-0.039,0.679-0.118l0.472,2.124
		c-0.275,0.078-0.551,0.147-0.826,0.206C7.984,177.866,7.63,177.895,7.198,177.895z"/>
	<path fill="#FFFFFF" d="M21.181,177.895c-2.321,0-3.481-1.494-3.481-4.484v-38.645h2.596v38.999c0,0.63,0.118,1.092,0.354,1.387
		s0.531,0.442,0.885,0.442c0.118,0,0.245,0,0.383,0c0.137,0,0.363-0.039,0.679-0.118l0.472,2.124
		c-0.275,0.078-0.551,0.147-0.826,0.206C21.967,177.866,21.613,177.895,21.181,177.895z"/>
	<path fill="#FFFFFF" d="M37.878,177.895c-1.141,0-2.203-0.157-3.186-0.472c-0.984-0.314-1.849-0.787-2.596-1.416
		c-0.748-0.629-1.337-1.436-1.77-2.419c-0.433-0.983-0.649-2.144-0.649-3.481c0-3.146,1.465-5.536,4.396-7.168
		c2.93-1.632,7.562-2.803,13.895-3.511c0-1.063-0.079-2.134-0.236-3.216c-0.158-1.081-0.492-2.045-1.003-2.891
		c-0.512-0.846-1.2-1.534-2.065-2.065c-0.866-0.531-2.006-0.796-3.422-0.796c-1.888,0-3.619,0.374-5.192,1.12
		c-1.574,0.748-2.852,1.476-3.835,2.184l-1.18-1.947c0.511-0.354,1.13-0.747,1.859-1.18c0.727-0.433,1.543-0.826,2.448-1.181
		c0.904-0.354,1.888-0.658,2.95-0.914c1.062-0.255,2.163-0.384,3.304-0.384c1.652,0,3.048,0.286,4.189,0.855
		c1.141,0.571,2.065,1.348,2.773,2.331c0.708,0.983,1.219,2.134,1.534,3.451c0.314,1.318,0.472,2.743,0.472,4.277v18.113h-2.242
		l-0.236-3.658h-0.177c-1.456,1.142-3.019,2.153-4.69,3.039C41.545,177.453,39.766,177.895,37.878,177.895z M38.35,175.653
		c1.652,0,3.225-0.393,4.72-1.18c1.495-0.786,3.127-1.927,4.897-3.422v-9.617c-2.911,0.354-5.369,0.787-7.375,1.298
		c-2.006,0.512-3.619,1.121-4.838,1.829c-1.22,0.708-2.095,1.515-2.625,2.419c-0.531,0.905-0.796,1.908-0.796,3.009
		c0,1.023,0.157,1.889,0.472,2.597c0.314,0.708,0.747,1.288,1.298,1.74c0.55,0.452,1.189,0.787,1.917,1.003
		C36.747,175.545,37.524,175.653,38.35,175.653z"/>
	<path fill="#FFFFFF" d="M56.64,148.867h2.832l5.074,18.35c0.354,1.298,0.688,2.566,1.003,3.806
		c0.314,1.238,0.628,2.487,0.944,3.746h0.236c0.314-1.259,0.649-2.508,1.003-3.746c0.354-1.239,0.708-2.508,1.062-3.806l5.133-18.35
		h3.127l5.133,18.35c0.354,1.298,0.708,2.566,1.062,3.806c0.354,1.238,0.708,2.487,1.062,3.746h0.236
		c0.314-1.259,0.649-2.508,1.003-3.746c0.354-1.239,0.688-2.508,1.003-3.806l5.015-18.35h2.655l-8.142,28.32h-3.422l-4.956-17.582
		c-0.433-1.376-0.796-2.724-1.091-4.041c-0.295-1.317-0.659-2.665-1.092-4.042h-0.236c-0.315,1.377-0.659,2.743-1.033,4.101
		c-0.374,1.357-0.777,2.724-1.209,4.101l-4.897,17.464h-3.127L56.64,148.867z"/>
	<path fill="#FFFFFF" d="M101.067,148.867h2.242l0.236,4.366h0.177c1.455-1.455,2.95-2.664,4.484-3.628
		c1.534-0.964,3.284-1.446,5.251-1.446c2.95,0,5.113,0.886,6.49,2.655c1.376,1.771,2.065,4.504,2.065,8.201v18.172h-2.596v-17.818
		c0-3.028-0.501-5.26-1.504-6.696c-1.003-1.436-2.665-2.153-4.985-2.153c-1.692,0-3.226,0.442-4.602,1.327
		c-1.377,0.886-2.931,2.213-4.661,3.982v21.358h-2.596V148.867z"/>
	<path fill="#FFFFFF" d="M153.635,177.895c-3.58,0-6.431-1.269-8.555-3.806s-3.186-6.204-3.186-11.003
		c0-2.281,0.334-4.346,1.003-6.195c0.668-1.849,1.583-3.422,2.744-4.72c1.16-1.299,2.498-2.291,4.012-2.979
		c1.514-0.688,3.117-1.033,4.808-1.033c1.73,0,3.235,0.306,4.514,0.915c1.278,0.61,2.625,1.466,4.042,2.566l-0.118-5.192v-11.682
		h2.596v42.421h-2.242l-0.236-3.658h-0.177c-1.142,1.142-2.488,2.153-4.042,3.039C157.243,177.453,155.523,177.895,153.635,177.895z
		 M153.989,175.594c1.573,0,3.077-0.403,4.513-1.21c1.436-0.806,2.9-1.956,4.396-3.451v-16.815c-1.495-1.336-2.901-2.28-4.218-2.832
		c-1.318-0.55-2.665-0.825-4.042-0.825c-1.416,0-2.734,0.324-3.953,0.973c-1.22,0.649-2.271,1.534-3.156,2.655
		c-0.885,1.121-1.584,2.459-2.095,4.012c-0.512,1.555-0.767,3.216-0.767,4.986c0,1.888,0.207,3.599,0.62,5.133
		s1.012,2.842,1.799,3.923c0.787,1.083,1.76,1.928,2.921,2.537C151.167,175.29,152.494,175.594,153.989,175.594z"/>
	<path fill="#FFFFFF" d="M172.338,148.867h2.832l5.074,18.35c0.354,1.298,0.688,2.566,1.003,3.806
		c0.314,1.238,0.628,2.487,0.944,3.746h0.236c0.314-1.259,0.649-2.508,1.003-3.746c0.354-1.239,0.708-2.508,1.062-3.806l5.133-18.35
		h3.127l5.133,18.35c0.354,1.298,0.708,2.566,1.062,3.806c0.354,1.238,0.708,2.487,1.062,3.746h0.236
		c0.314-1.259,0.649-2.508,1.003-3.746c0.354-1.239,0.688-2.508,1.003-3.806l5.015-18.35h2.655l-8.142,28.32h-3.422l-4.956-17.582
		c-0.433-1.376-0.796-2.724-1.091-4.041c-0.295-1.317-0.659-2.665-1.092-4.042h-0.236c-0.315,1.377-0.659,2.743-1.033,4.101
		c-0.374,1.357-0.777,2.724-1.209,4.101l-4.897,17.464h-3.127L172.338,148.867z M189.92,133.704h2.478l6.903,8.496l-1.298,1.239
		l-6.726-7.434h-0.236l-6.726,7.434l-1.298-1.239L189.92,133.704z"/>
	<path fill="#FFFFFF" d="M216.765,148.867h2.242l0.236,5.251h0.177c0.944-1.77,2.095-3.205,3.452-4.307
		c1.357-1.101,2.881-1.652,4.572-1.652c0.55,0,1.042,0.04,1.475,0.118c0.432,0.079,0.885,0.236,1.357,0.472l-0.59,2.36
		c-0.472-0.196-0.885-0.324-1.239-0.384c-0.354-0.059-0.807-0.088-1.357-0.088c-1.259,0-2.587,0.541-3.982,1.622
		c-1.396,1.082-2.646,2.96-3.747,5.635v19.293h-2.596V148.867z"/>
	<path fill="#FFFFFF" d="M256.53,190.816c-3.58,0-6.412-0.708-8.496-2.124c-2.085-1.416-3.127-3.324-3.127-5.723
		c0-1.26,0.374-2.479,1.121-3.658c0.747-1.18,1.77-2.242,3.068-3.186v-0.236c-0.708-0.433-1.298-1.022-1.77-1.771
		c-0.472-0.746-0.708-1.671-0.708-2.772c0-1.259,0.354-2.331,1.062-3.216s1.376-1.543,2.006-1.977v-0.235
		c-0.905-0.787-1.721-1.849-2.449-3.187c-0.728-1.337-1.091-2.871-1.091-4.602c0-1.455,0.255-2.793,0.767-4.013
		c0.511-1.219,1.218-2.271,2.124-3.156c0.904-0.885,1.966-1.572,3.186-2.064c1.219-0.492,2.517-0.738,3.894-0.738
		c0.787,0,1.495,0.069,2.124,0.207c0.629,0.138,1.16,0.305,1.593,0.501h9.617v2.184h-6.608c0.904,0.787,1.652,1.799,2.242,3.038
		c0.59,1.239,0.885,2.606,0.885,4.101c0,1.456-0.256,2.793-0.767,4.012c-0.511,1.22-1.209,2.271-2.094,3.157
		c-0.885,0.885-1.928,1.573-3.127,2.064c-1.2,0.492-2.488,0.737-3.865,0.737c-0.787,0-1.603-0.098-2.448-0.295
		c-0.846-0.196-1.603-0.491-2.271-0.885c-0.63,0.512-1.171,1.082-1.623,1.711c-0.453,0.63-0.679,1.416-0.679,2.36
		c0,1.023,0.374,1.897,1.121,2.625c0.747,0.729,2.183,1.092,4.307,1.092h6.077c3.186,0,5.536,0.521,7.05,1.563
		c1.514,1.042,2.271,2.685,2.271,4.927c0,1.219-0.315,2.408-0.944,3.569c-0.63,1.159-1.525,2.183-2.685,3.068
		c-1.161,0.885-2.566,1.593-4.219,2.123C260.424,190.55,258.575,190.816,256.53,190.816z M256.825,188.692
		c1.573,0,3.009-0.206,4.307-0.619s2.399-0.954,3.304-1.623c0.904-0.669,1.602-1.426,2.094-2.271
		c0.491-0.846,0.738-1.721,0.738-2.625c0-1.574-0.561-2.685-1.682-3.334c-1.121-0.648-2.744-0.974-4.868-0.974h-6.077
		c-0.315,0-0.797-0.029-1.446-0.088c-0.649-0.06-1.348-0.187-2.094-0.384c-1.298,0.904-2.242,1.868-2.832,2.891
		c-0.59,1.022-0.885,2.045-0.885,3.068c0,1.771,0.816,3.205,2.449,4.307C251.465,188.141,253.795,188.692,256.825,188.692z
		 M256.117,166.095c0.983,0,1.917-0.187,2.803-0.561c0.885-0.373,1.661-0.915,2.331-1.623c0.668-0.708,1.199-1.553,1.593-2.536
		c0.393-0.983,0.59-2.065,0.59-3.245c0-1.181-0.198-2.262-0.59-3.245c-0.394-0.983-0.915-1.809-1.563-2.479
		c-0.649-0.668-1.426-1.188-2.331-1.563c-0.905-0.373-1.849-0.561-2.832-0.561c-1.023,0-1.977,0.188-2.861,0.561
		c-0.885,0.375-1.662,0.896-2.331,1.563c-0.669,0.67-1.2,1.485-1.593,2.449c-0.394,0.964-0.59,2.056-0.59,3.274
		c0,1.18,0.196,2.262,0.59,3.245c0.393,0.983,0.934,1.828,1.623,2.536c0.688,0.708,1.475,1.25,2.36,1.623
		C254.199,165.909,255.133,166.095,256.117,166.095z"/>
	<path fill="#FFFFFF" d="M286.09,177.895c-1.81,0-3.511-0.335-5.104-1.003s-2.979-1.642-4.16-2.921
		c-1.18-1.277-2.115-2.832-2.802-4.661c-0.689-1.828-1.033-3.902-1.033-6.224c0-2.32,0.344-4.405,1.033-6.255
		c0.688-1.848,1.612-3.411,2.773-4.69c1.16-1.277,2.478-2.261,3.953-2.949c1.475-0.688,2.999-1.033,4.572-1.033
		c3.382,0,6.038,1.142,7.965,3.422c1.927,2.282,2.891,5.508,2.891,9.677c0,0.354,0,0.708,0,1.062c0,0.354-0.04,0.708-0.118,1.063
		h-20.414c0.039,1.77,0.314,3.412,0.826,4.926c0.511,1.515,1.229,2.813,2.154,3.895c0.923,1.082,2.035,1.928,3.333,2.537
		c1.298,0.61,2.752,0.914,4.366,0.914c1.534,0,2.92-0.226,4.16-0.679c1.239-0.451,2.39-1.071,3.452-1.858l1.062,2.006
		c-1.142,0.67-2.39,1.299-3.747,1.889S288.174,177.895,286.09,177.895z M293.701,161.257c0-3.658-0.748-6.382-2.242-8.172
		c-1.496-1.789-3.521-2.685-6.077-2.685c-1.22,0-2.38,0.246-3.481,0.737c-1.102,0.492-2.095,1.21-2.979,2.154
		c-0.885,0.943-1.613,2.085-2.183,3.422c-0.571,1.337-0.935,2.852-1.091,4.543H293.701z"/>
	<path fill="#FFFFFF" d="M303.848,148.867h2.242l0.236,5.251h0.177c0.944-1.77,2.095-3.205,3.452-4.307
		c1.357-1.101,2.881-1.652,4.572-1.652c0.55,0,1.042,0.04,1.475,0.118c0.432,0.079,0.885,0.236,1.357,0.472l-0.59,2.36
		c-0.472-0.196-0.885-0.324-1.239-0.384c-0.354-0.059-0.807-0.088-1.357-0.088c-1.259,0-2.587,0.541-3.982,1.622
		c-1.396,1.082-2.646,2.96-3.747,5.635v19.293h-2.596V148.867z"/>
	<path fill="#FFFFFF" d="M342.079,177.895c-1.377,0-2.518-0.206-3.422-0.619c-0.905-0.413-1.632-0.993-2.183-1.741
		c-0.551-0.746-0.935-1.651-1.15-2.714c-0.216-1.062-0.324-2.222-0.324-3.48v-18.231h-4.425v-2.006l4.484-0.236l0.354-8.201h2.242
		v8.201h8.201v2.242h-8.201v18.467c0,0.905,0.068,1.722,0.207,2.449c0.137,0.728,0.383,1.356,0.737,1.888s0.835,0.944,1.446,1.239
		c0.609,0.295,1.406,0.442,2.39,0.442c0.55,0,1.15-0.089,1.799-0.266s1.229-0.384,1.74-0.619l0.708,2.124
		c-0.826,0.314-1.652,0.569-2.478,0.767C343.377,177.796,342.669,177.895,342.079,177.895z"/>
	<path fill="#FFFFFF" d="M351.636,190.108c-1.062,0-2.026-0.197-2.891-0.59l0.59-2.301c0.314,0.118,0.668,0.226,1.062,0.324
		c0.393,0.098,0.806,0.147,1.239,0.147c1.77,0,3.245-0.708,4.425-2.124s2.124-3.206,2.832-5.369l0.767-2.478l-11.623-28.852h2.832
		l6.844,17.818c0.433,1.18,0.915,2.478,1.446,3.894c0.531,1.416,1.071,2.754,1.623,4.013h0.236c0.432-1.259,0.875-2.597,1.328-4.013
		c0.452-1.416,0.875-2.714,1.269-3.894l6.077-17.818h2.655l-11.21,31.86c-0.394,1.18-0.876,2.34-1.446,3.481
		c-0.57,1.14-1.239,2.143-2.006,3.009c-0.767,0.864-1.652,1.563-2.655,2.094C354.025,189.842,352.895,190.108,351.636,190.108z
		 M359.601,133.704h2.478l6.903,8.496l-1.298,1.239l-6.726-7.434h-0.236l-6.726,7.434l-1.298-1.239L359.601,133.704z"/>
	<path fill="#FFFFFF" d="M390.576,138.306h3.835l8.142,22.833c0.511,1.416,1.022,2.842,1.533,4.277
		c0.512,1.437,1.023,2.882,1.535,4.337h0.235c0.511-1.455,1.003-2.9,1.476-4.337c0.472-1.436,0.963-2.861,1.475-4.277l8.083-22.833
		h3.894v38.881h-2.654V151.64c0-1.612,0.039-3.353,0.117-5.222c0.078-1.867,0.157-3.629,0.236-5.28h-0.236l-3.009,8.673
		l-8.378,23.128H404.5l-8.438-23.128l-3.068-8.673h-0.236c0.079,1.651,0.157,3.413,0.236,5.28c0.078,1.869,0.118,3.609,0.118,5.222
		v25.547h-2.537V138.306z"/>
	<path fill="#FFFFFF" d="M438.129,177.895c-1.141,0-2.203-0.157-3.186-0.472c-0.984-0.314-1.85-0.787-2.597-1.416
		s-1.337-1.436-1.771-2.419c-0.433-0.983-0.648-2.144-0.648-3.481c0-3.146,1.465-5.536,4.396-7.168
		c2.93-1.632,7.562-2.803,13.895-3.511c0-1.063-0.079-2.134-0.235-3.216c-0.158-1.081-0.492-2.045-1.004-2.891
		s-1.199-1.534-2.064-2.065s-2.006-0.796-3.422-0.796c-1.889,0-3.619,0.374-5.192,1.12c-1.573,0.748-2.853,1.476-3.835,2.184
		l-1.18-1.947c0.51-0.354,1.13-0.747,1.858-1.18c0.728-0.433,1.543-0.826,2.448-1.181c0.904-0.354,1.889-0.658,2.95-0.914
		c1.062-0.255,2.163-0.384,3.304-0.384c1.652,0,3.048,0.286,4.189,0.855c1.141,0.571,2.064,1.348,2.772,2.331
		s1.219,2.134,1.534,3.451c0.314,1.318,0.473,2.743,0.473,4.277v18.113h-2.242l-0.236-3.658h-0.178
		c-1.455,1.142-3.019,2.153-4.689,3.039C441.796,177.453,440.018,177.895,438.129,177.895z M438.602,175.653
		c1.651,0,3.225-0.393,4.719-1.18c1.495-0.786,3.127-1.927,4.897-3.422v-9.617c-2.911,0.354-5.369,0.787-7.375,1.298
		c-2.006,0.512-3.619,1.121-4.838,1.829c-1.22,0.708-2.095,1.515-2.626,2.419c-0.531,0.905-0.796,1.908-0.796,3.009
		c0,1.023,0.157,1.889,0.472,2.597s0.747,1.288,1.299,1.74c0.55,0.452,1.188,0.787,1.917,1.003
		C436.998,175.545,437.775,175.653,438.602,175.653z"/>
	<path fill="#FFFFFF" d="M471.994,177.895c-1.377,0-2.803-0.324-4.277-0.974c-1.475-0.648-2.881-1.523-4.219-2.625h-0.117
		l-0.295,2.891h-2.184v-42.421h2.596v12.271l-0.117,5.547c1.455-1.219,3.009-2.262,4.66-3.128c1.652-0.864,3.363-1.298,5.134-1.298
		c3.776,0,6.608,1.309,8.495,3.924c1.889,2.616,2.832,6.127,2.832,10.531c0,2.399-0.334,4.543-1.002,6.432
		c-0.67,1.888-1.584,3.491-2.744,4.808c-1.16,1.318-2.498,2.321-4.012,3.01C475.229,177.55,473.646,177.895,471.994,177.895z
		 M471.877,175.594c1.416,0,2.732-0.314,3.953-0.944c1.219-0.629,2.261-1.514,3.127-2.655c0.864-1.14,1.543-2.507,2.035-4.101
		c0.491-1.593,0.737-3.353,0.737-5.28c0-1.73-0.167-3.343-0.501-4.838c-0.335-1.494-0.855-2.782-1.564-3.864
		c-0.707-1.081-1.633-1.927-2.772-2.537c-1.142-0.609-2.518-0.914-4.13-0.914c-1.416,0-2.891,0.403-4.426,1.209
		c-1.533,0.807-3.146,1.957-4.838,3.451v16.815c1.573,1.338,3.088,2.281,4.543,2.832S470.775,175.594,471.877,175.594z"/>
	<path fill="#FFFFFF" d="M503.205,177.895c-1.691,0-3.304-0.335-4.838-1.003s-2.882-1.632-4.041-2.891
		c-1.161-1.259-2.086-2.803-2.773-4.632c-0.689-1.829-1.033-3.924-1.033-6.283c0-2.36,0.344-4.475,1.033-6.343
		c0.688-1.868,1.612-3.432,2.773-4.69c1.159-1.259,2.507-2.222,4.041-2.892c1.534-0.668,3.146-1.003,4.838-1.003
		s3.313,0.335,4.867,1.003c1.554,0.67,2.91,1.633,4.071,2.892c1.159,1.259,2.085,2.822,2.772,4.69
		c0.688,1.868,1.033,3.982,1.033,6.343c0,2.359-0.345,4.454-1.033,6.283c-0.688,1.829-1.613,3.373-2.772,4.632
		c-1.161,1.259-2.518,2.223-4.071,2.891S504.896,177.895,503.205,177.895z M503.205,175.594c1.416,0,2.744-0.305,3.982-0.915
		c1.239-0.609,2.301-1.465,3.186-2.566c0.886-1.101,1.584-2.419,2.096-3.953c0.51-1.533,0.767-3.225,0.767-5.073
		c0-1.889-0.257-3.6-0.767-5.134c-0.512-1.533-1.21-2.861-2.096-3.982c-0.885-1.121-1.946-1.985-3.186-2.596
		c-1.238-0.609-2.566-0.914-3.982-0.914s-2.734,0.305-3.953,0.914c-1.219,0.61-2.271,1.475-3.156,2.596s-1.584,2.449-2.095,3.982
		c-0.511,1.534-0.767,3.245-0.767,5.134c0,1.849,0.256,3.54,0.767,5.073c0.511,1.534,1.21,2.853,2.095,3.953
		c0.885,1.102,1.938,1.957,3.156,2.566C500.471,175.29,501.789,175.594,503.205,175.594z"/>
	<path fill="#FFFFFF" d="M524.445,148.867h2.241l0.235,4.366h0.178c1.455-1.455,2.95-2.664,4.484-3.628
		c1.533-0.964,3.283-1.446,5.25-1.446c2.951,0,5.113,0.886,6.49,2.655c1.377,1.771,2.065,4.504,2.065,8.201v18.172h-2.597v-17.818
		c0-3.028-0.501-5.26-1.504-6.696c-1.003-1.436-2.665-2.153-4.985-2.153c-1.692,0-3.226,0.442-4.603,1.327
		c-1.377,0.886-2.93,2.213-4.66,3.982v21.358h-2.596V148.867z"/>
	<path fill="#FFFFFF" d="M556.895,177.895c-0.67,0-1.26-0.236-1.77-0.708c-0.512-0.472-0.768-1.121-0.768-1.947
		c0-0.864,0.256-1.534,0.768-2.006c0.51-0.472,1.1-0.708,1.77-0.708c0.668,0,1.248,0.236,1.74,0.708
		c0.491,0.472,0.737,1.142,0.737,2.006c0,0.826-0.246,1.476-0.737,1.947C558.143,177.659,557.563,177.895,556.895,177.895z"/>
	<path fill="#FFFFFF" d="M9.912,256.895c-1.141,0-2.203-0.157-3.186-0.472c-0.984-0.314-1.849-0.787-2.596-1.416
		c-0.748-0.629-1.337-1.436-1.77-2.419c-0.433-0.983-0.649-2.144-0.649-3.481c0-3.146,1.465-5.536,4.396-7.168
		c2.93-1.632,7.562-2.803,13.895-3.511c0-1.063-0.079-2.134-0.236-3.216c-0.158-1.081-0.492-2.045-1.003-2.891
		c-0.512-0.846-1.2-1.534-2.065-2.065c-0.866-0.531-2.006-0.796-3.422-0.796c-1.888,0-3.619,0.374-5.192,1.12
		c-1.574,0.748-2.852,1.476-3.835,2.184l-1.18-1.947c0.511-0.354,1.13-0.747,1.859-1.18c0.727-0.433,1.543-0.826,2.448-1.181
		c0.904-0.354,1.888-0.658,2.95-0.914c1.062-0.255,2.163-0.384,3.304-0.384c1.652,0,3.048,0.286,4.189,0.855
		c1.141,0.571,2.065,1.348,2.773,2.331c0.708,0.983,1.219,2.134,1.534,3.451c0.314,1.318,0.472,2.743,0.472,4.277v18.113h-2.242
		l-0.236-3.658h-0.177c-1.456,1.142-3.019,2.153-4.69,3.039C13.579,256.453,11.8,256.895,9.912,256.895z M10.384,254.653
		c1.652,0,3.225-0.393,4.72-1.18c1.495-0.786,3.127-1.927,4.897-3.422v-9.617c-2.911,0.354-5.369,0.787-7.375,1.298
		c-2.006,0.512-3.619,1.121-4.838,1.829c-1.22,0.708-2.095,1.515-2.625,2.419c-0.531,0.905-0.796,1.908-0.796,3.009
		c0,1.023,0.157,1.889,0.472,2.597c0.314,0.708,0.747,1.288,1.298,1.74c0.55,0.452,1.189,0.787,1.917,1.003
		C8.781,254.545,9.558,254.653,10.384,254.653z"/>
	<path fill="#FFFFFF" d="M54.398,215.713c-0.788,0.433-1.604,0.758-2.449,0.973c-0.846,0.217-1.839,0.424-2.979,0.62
		c-2.399,0.394-4.513,0.826-6.342,1.298s-3.383,1.269-4.661,2.39c-1.279,1.121-2.282,2.714-3.009,4.779
		c-0.729,2.064-1.209,4.867-1.446,8.407c1.455-1.849,3.098-3.235,4.927-4.159c1.829-0.924,3.688-1.387,5.575-1.387
		c1.809,0,3.431,0.324,4.868,0.974c1.436,0.648,2.655,1.554,3.658,2.714c1.003,1.16,1.77,2.566,2.301,4.218
		c0.531,1.652,0.796,3.481,0.796,5.487c0,2.282-0.315,4.337-0.944,6.166c-0.63,1.829-1.495,3.393-2.596,4.69
		c-1.102,1.298-2.37,2.291-3.805,2.979c-1.437,0.688-2.96,1.032-4.573,1.032c-4.091,0-7.267-1.505-9.528-4.514
		c-2.262-3.009-3.393-7.346-3.393-13.01c0-5.112,0.403-9.203,1.209-12.271c0.806-3.068,1.977-5.447,3.51-7.139
		c1.534-1.691,3.393-2.892,5.576-3.6s4.631-1.277,7.346-1.711c0.747-0.118,1.376-0.226,1.888-0.324
		c0.511-0.098,0.944-0.207,1.298-0.324c0.354-0.118,0.688-0.246,1.003-0.384c0.314-0.138,0.688-0.305,1.121-0.502L54.398,215.713z
		 M43.719,254.594c1.298,0,2.507-0.305,3.628-0.915c1.121-0.609,2.095-1.465,2.92-2.566c0.826-1.101,1.475-2.428,1.947-3.982
		c0.472-1.553,0.708-3.254,0.708-5.104c0-1.572-0.197-3.048-0.59-4.425c-0.394-1.376-0.984-2.557-1.77-3.54
		c-0.788-0.982-1.761-1.76-2.921-2.33c-1.161-0.57-2.507-0.855-4.042-0.855c-1.613,0-3.265,0.433-4.956,1.298
		c-1.692,0.865-3.442,2.458-5.251,4.778c-0.04,0.434-0.059,0.866-0.059,1.299s0,0.885,0,1.356c0,4.603,0.855,8.251,2.566,10.944
		C37.612,253.248,40.218,254.594,43.719,254.594z"/>
	<path fill="#FFFFFF" d="M64.192,227.867h10.207c3.068,0,5.477,0.552,7.228,1.652c1.75,1.102,2.625,2.872,2.625,5.31
		c0,1.81-0.453,3.187-1.357,4.131c-0.905,0.943-2.006,1.632-3.304,2.064v0.177c0.747,0.197,1.475,0.463,2.183,0.797
		c0.708,0.335,1.337,0.787,1.888,1.357c0.55,0.57,1.003,1.238,1.357,2.006c0.354,0.767,0.531,1.682,0.531,2.743
		c0,2.754-0.974,4.789-2.92,6.106c-1.947,1.318-4.593,1.977-7.936,1.977H64.192V227.867z M73.396,240.257
		c2.95,0,5.054-0.462,6.313-1.387c1.258-0.924,1.888-2.192,1.888-3.806c0-1.652-0.6-2.91-1.799-3.776
		c-1.201-0.864-3.157-1.298-5.871-1.298h-7.139v10.267H73.396z M74.163,254.063c5.782,0,8.673-2.025,8.673-6.077
		c0-1.809-0.777-3.195-2.33-4.159c-1.555-0.964-3.826-1.445-6.815-1.445h-6.903v11.682H74.163z"/>
	<path fill="#FFFFFF" d="M93.455,227.867h16.579v2.242H96.051v26.078h-2.596V227.867z"/>
	<path fill="#FFFFFF" d="M134.459,217.719l-0.472,12.39h-14.396v26.078h-2.596v-28.32h14.573l0.767-10.147H134.459z"/>
	<path fill="#FFFFFF" d="M160.124,253.886v1.534l-0.354,10.915h-2.242v-10.148H136.17v10.148h-2.301l-0.295-10.915v-1.534h1.18
		c0.432-0.236,0.845-0.57,1.239-1.003c0.393-0.433,0.767-1.101,1.121-2.006s0.698-2.134,1.032-3.688
		c0.334-1.554,0.658-3.55,0.974-5.989l1.593-13.334h15.517v26.02H160.124z M141.48,241.555c-0.236,1.849-0.482,3.442-0.737,4.779
		c-0.256,1.337-0.531,2.498-0.826,3.48c-0.295,0.983-0.61,1.8-0.944,2.448c-0.334,0.649-0.659,1.19-0.974,1.623h15.635v-23.777
		h-10.856L141.48,241.555z"/>
	<path fill="#FFFFFF" d="M169.623,234.121c1.495-1.494,3.019-2.693,4.573-3.599c1.553-0.904,3.313-1.357,5.28-1.357
		c3.343,0,5.919,1.338,7.729,4.013c1.809,2.675,2.714,7.08,2.714,13.216c0,4.602-0.256,8.398-0.767,11.387
		c-0.512,2.989-1.239,5.369-2.183,7.14c-0.944,1.77-2.104,3.009-3.481,3.717c-1.377,0.708-2.911,1.062-4.602,1.062
		c-0.551,0-1.102-0.069-1.652-0.206c-0.551-0.139-1.003-0.306-1.357-0.502l0.59-2.124c0.314,0.118,0.688,0.245,1.121,0.384
		c0.432,0.138,0.865,0.206,1.298,0.206c1.18,0,2.281-0.314,3.304-0.943c1.022-0.63,1.897-1.722,2.625-3.274
		c0.727-1.555,1.298-3.679,1.711-6.372c0.413-2.694,0.62-6.106,0.62-10.236c0-2.753-0.168-5.084-0.501-6.992
		c-0.335-1.907-0.847-3.46-1.534-4.661c-0.688-1.199-1.544-2.074-2.566-2.625c-1.023-0.551-2.223-0.826-3.599-0.826
		c-1.613,0-3.108,0.404-4.484,1.21c-1.377,0.807-2.95,2.094-4.72,3.864v19.588h-2.596v-34.279h-4.543v-1.711l4.543-0.235v-6.195
		h2.596v6.195h11.21v1.946h-11.21v6.137L169.623,234.121z"/>
	<path fill="#FFFFFF" d="M198.591,227.867h16.579v2.242h-13.983v26.078h-2.596V227.867z M204.727,220.846l7.906-9.263l2.006,1.711
		l-8.496,8.908L204.727,220.846z"/>
	<path fill="#FFFFFF" d="M230.038,256.895c-1.81,0-3.511-0.335-5.104-1.003s-2.979-1.642-4.16-2.921
		c-1.18-1.277-2.115-2.832-2.802-4.661c-0.689-1.828-1.033-3.902-1.033-6.224c0-2.32,0.344-4.405,1.033-6.255
		c0.688-1.848,1.612-3.411,2.773-4.69c1.16-1.277,2.478-2.261,3.953-2.949c1.475-0.688,2.999-1.033,4.572-1.033
		c3.382,0,6.038,1.142,7.965,3.422c1.927,2.282,2.891,5.508,2.891,9.677c0,0.354,0,0.708,0,1.062c0,0.354-0.04,0.708-0.118,1.063
		h-20.414c0.039,1.77,0.314,3.412,0.826,4.926c0.511,1.515,1.229,2.813,2.154,3.895c0.923,1.082,2.035,1.928,3.333,2.537
		c1.298,0.61,2.752,0.914,4.366,0.914c1.534,0,2.92-0.226,4.16-0.679c1.239-0.451,2.39-1.071,3.452-1.858l1.062,2.006
		c-1.142,0.67-2.39,1.299-3.747,1.889S232.122,256.895,230.038,256.895z M237.648,240.257c0-3.658-0.748-6.382-2.242-8.172
		c-1.496-1.789-3.521-2.685-6.077-2.685c-1.22,0-2.38,0.246-3.481,0.737c-1.102,0.492-2.095,1.21-2.979,2.154
		c-0.885,0.943-1.613,2.085-2.183,3.422c-0.571,1.337-0.935,2.852-1.091,4.543H237.648z"/>
	<path fill="#FFFFFF" d="M258.534,256.895c-1.81,0-3.511-0.335-5.104-1.003s-2.979-1.642-4.16-2.921
		c-1.18-1.277-2.115-2.832-2.802-4.661c-0.689-1.828-1.033-3.902-1.033-6.224c0-2.32,0.344-4.405,1.033-6.255
		c0.688-1.848,1.612-3.411,2.773-4.69c1.16-1.277,2.478-2.261,3.953-2.949c1.475-0.688,2.999-1.033,4.572-1.033
		c3.382,0,6.038,1.142,7.965,3.422c1.927,2.282,2.891,5.508,2.891,9.677c0,0.354,0,0.708,0,1.062c0,0.354-0.04,0.708-0.118,1.063
		h-20.414c0.039,1.77,0.314,3.412,0.826,4.926c0.511,1.515,1.229,2.813,2.154,3.895c0.923,1.082,2.035,1.928,3.333,2.537
		c1.298,0.61,2.752,0.914,4.366,0.914c1.534,0,2.92-0.226,4.16-0.679c1.239-0.451,2.39-1.071,3.452-1.858l1.062,2.006
		c-1.142,0.67-2.39,1.299-3.747,1.889S260.618,256.895,258.534,256.895z M266.145,240.257c0-3.658-0.748-6.382-2.242-8.172
		c-1.496-1.789-3.521-2.685-6.077-2.685c-1.22,0-2.38,0.246-3.481,0.737c-1.102,0.492-2.095,1.21-2.979,2.154
		c-0.885,0.943-1.613,2.085-2.183,3.422c-0.571,1.337-0.935,2.852-1.091,4.543H266.145z M252.516,220.905
		c-0.629,0-1.15-0.206-1.563-0.619s-0.62-0.934-0.62-1.563c0-0.629,0.207-1.15,0.62-1.563s0.934-0.62,1.563-0.62
		c0.629,0,1.15,0.207,1.563,0.62s0.62,0.935,0.62,1.563c0,0.63-0.207,1.15-0.62,1.563S253.145,220.905,252.516,220.905z
		 M263.018,220.905c-0.629,0-1.15-0.206-1.563-0.619s-0.62-0.934-0.62-1.563c0-0.629,0.207-1.15,0.62-1.563s0.934-0.62,1.563-0.62
		c0.629,0,1.15,0.207,1.563,0.62s0.62,0.935,0.62,1.563c0,0.63-0.207,1.15-0.62,1.563S263.646,220.905,263.018,220.905z"/>
	<path fill="#FFFFFF" d="M295.821,253.178c-1.22,1.062-2.577,1.947-4.071,2.655c-1.496,0.707-3.147,1.062-4.956,1.062
		c-1.85,0-3.561-0.305-5.133-0.914c-1.574-0.609-2.931-1.534-4.071-2.773c-1.141-1.239-2.036-2.782-2.685-4.632
		c-0.649-1.848-0.974-4.012-0.974-6.489c0-2.518,0.344-4.71,1.033-6.579c0.688-1.867,1.623-3.422,2.802-4.661
		c1.18-1.238,2.546-2.162,4.101-2.772c1.553-0.609,3.216-0.915,4.985-0.915c1.927,0,3.549,0.354,4.868,1.063
		c1.317,0.708,2.468,1.515,3.452,2.419l-1.475,1.77c-0.944-0.864-1.967-1.582-3.068-2.153c-1.102-0.569-2.36-0.855-3.776-0.855
		c-2.714,0-5.015,0.935-6.903,2.803c-1.888,1.868-2.99,4.553-3.304,8.054h15.222v2.124h-15.281c0.078,3.973,1.022,7.012,2.832,9.115
		c1.809,2.104,4.307,3.156,7.493,3.156c1.495,0,2.891-0.324,4.189-0.974c1.298-0.648,2.438-1.425,3.422-2.33L295.821,253.178z"/>
	<path fill="#FFFFFF" d="M333.757,256.187h-2.891l-7.788-13.629h-5.841v13.629h-2.36v-13.629h-5.841l-7.788,13.629h-2.891
		l8.85-15.163l-2.655-6.726c-0.394-0.944-0.767-1.711-1.121-2.302c-0.354-0.59-0.708-1.052-1.062-1.386s-0.718-0.551-1.092-0.649
		c-0.374-0.098-0.737-0.147-1.091-0.147c-0.197,0-0.345,0-0.442,0c-0.099,0-0.246,0.04-0.443,0.118l-0.59-2.537
		c0.393-0.156,0.845-0.236,1.357-0.236c1.219,0,2.36,0.424,3.422,1.269c1.062,0.847,2.084,2.469,3.068,4.868l2.773,6.962h5.546
		v-12.391h2.36v12.391h5.487l2.832-6.962c0.944-2.399,1.947-4.021,3.009-4.868c1.062-0.845,2.222-1.269,3.481-1.269
		c0.472,0,0.904,0.08,1.298,0.236l-0.531,2.537c-0.197-0.078-0.345-0.118-0.442-0.118c-0.099,0-0.246,0-0.442,0
		c-0.394,0-0.767,0.05-1.121,0.147c-0.354,0.099-0.708,0.315-1.062,0.649s-0.708,0.796-1.062,1.386
		c-0.354,0.591-0.729,1.357-1.121,2.302l-2.655,6.785L333.757,256.187z"/>
	<path fill="#FFFFFF" d="M340.188,227.867h2.596v12.272h16.402v-12.272h2.596v28.32h-2.596v-13.688h-16.402v13.688h-2.596V227.867z"
		/>
	<path fill="#FFFFFF" d="M397.535,239.136c3.343,0,5.968,0.698,7.876,2.095c1.907,1.396,2.861,3.51,2.861,6.342
		c0,2.872-0.954,5.025-2.861,6.461c-1.908,1.437-4.534,2.153-7.876,2.153h-7.257v-13.688h-15.045v13.688h-2.596v-28.32h2.596v12.272
		h15.045v-12.272h2.596v11.27H397.535z M396.944,253.945c2.95,0,5.133-0.501,6.549-1.504c1.417-1.003,2.124-2.626,2.124-4.868
		c0-2.202-0.707-3.785-2.124-4.749c-1.416-0.964-3.599-1.445-6.549-1.445h-4.071v12.566H396.944z"/>
	<path fill="#FFFFFF" d="M426.68,256.895c-1.691,0-3.303-0.335-4.838-1.003c-1.533-0.668-2.881-1.632-4.041-2.891
		s-2.086-2.803-2.773-4.632c-0.688-1.829-1.032-3.924-1.032-6.283c0-2.36,0.344-4.475,1.032-6.343
		c0.688-1.868,1.613-3.432,2.773-4.69s2.508-2.222,4.041-2.892c1.535-0.668,3.146-1.003,4.838-1.003s3.314,0.335,4.868,1.003
		c1.554,0.67,2.91,1.633,4.071,2.892c1.159,1.259,2.084,2.822,2.772,4.69s1.032,3.982,1.032,6.343c0,2.359-0.344,4.454-1.032,6.283
		s-1.613,3.373-2.772,4.632c-1.161,1.259-2.518,2.223-4.071,2.891S428.371,256.895,426.68,256.895z M426.68,254.594
		c1.416,0,2.744-0.305,3.982-0.915c1.24-0.609,2.302-1.465,3.187-2.566c0.886-1.101,1.583-2.419,2.095-3.953
		c0.511-1.533,0.768-3.225,0.768-5.073c0-1.889-0.257-3.6-0.768-5.134c-0.512-1.533-1.209-2.861-2.095-3.982
		c-0.885-1.121-1.946-1.985-3.187-2.596c-1.238-0.609-2.566-0.914-3.982-0.914s-2.734,0.305-3.953,0.914
		c-1.219,0.61-2.271,1.475-3.156,2.596s-1.584,2.449-2.094,3.982c-0.512,1.534-0.768,3.245-0.768,5.134
		c0,1.849,0.256,3.54,0.768,5.073c0.51,1.534,1.209,2.853,2.094,3.953c0.885,1.102,1.938,1.957,3.156,2.566
		C423.945,254.29,425.264,254.594,426.68,254.594z"/>
	<path fill="#FFFFFF" d="M447.92,227.867h21.004v28.32h-2.596v-26.078h-15.813v26.078h-2.596V227.867z"/>
	<path fill="#FFFFFF" d="M479.838,227.867h2.242l0.235,3.54h0.177c1.377-1.101,2.881-2.084,4.514-2.95
		c1.632-0.864,3.334-1.298,5.104-1.298c3.776,0,6.608,1.309,8.496,3.924c1.889,2.616,2.832,6.127,2.832,10.531
		c0,2.399-0.334,4.543-1.003,6.432c-0.669,1.888-1.583,3.491-2.743,4.808c-1.16,1.318-2.498,2.321-4.012,3.01
		c-1.516,0.688-3.098,1.032-4.75,1.032c-1.338,0-2.714-0.305-4.13-0.914s-2.872-1.465-4.366-2.567v15.576h-2.596V227.867z
		 M482.434,250.936c1.652,1.338,3.186,2.281,4.602,2.832s2.675,0.826,3.776,0.826c1.416,0,2.733-0.314,3.953-0.944
		c1.219-0.629,2.261-1.514,3.127-2.655c0.864-1.14,1.544-2.507,2.036-4.101c0.49-1.593,0.736-3.353,0.736-5.28
		c0-1.73-0.167-3.343-0.501-4.838c-0.335-1.494-0.855-2.782-1.563-3.864c-0.708-1.081-1.633-1.927-2.773-2.537
		c-1.141-0.609-2.518-0.914-4.129-0.914c-1.416,0-2.883,0.403-4.396,1.209c-1.514,0.807-3.137,1.957-4.867,3.451V250.936z"/>
	<path fill="#FFFFFF" d="M522.436,256.895c-1.85,0-3.551-0.335-5.104-1.003c-1.555-0.668-2.912-1.632-4.071-2.891
		c-1.161-1.259-2.065-2.803-2.714-4.632s-0.974-3.924-0.974-6.283c0-2.36,0.354-4.475,1.062-6.343
		c0.709-1.868,1.652-3.432,2.832-4.69c1.181-1.259,2.547-2.222,4.102-2.892c1.553-0.668,3.195-1.003,4.926-1.003
		c1.967,0,3.6,0.354,4.897,1.063s2.438,1.515,3.422,2.419l-1.534,1.829c-0.905-0.865-1.908-1.583-3.009-2.153
		c-1.102-0.57-2.341-0.855-3.718-0.855c-1.455,0-2.802,0.305-4.041,0.914c-1.238,0.61-2.321,1.475-3.244,2.596
		c-0.926,1.121-1.652,2.449-2.184,3.982c-0.531,1.534-0.797,3.245-0.797,5.134c0,1.849,0.246,3.54,0.738,5.073
		c0.49,1.534,1.18,2.853,2.064,3.953c0.885,1.102,1.967,1.957,3.245,2.566c1.278,0.61,2.685,0.915,4.218,0.915
		c1.495,0,2.881-0.314,4.16-0.944c1.277-0.629,2.408-1.396,3.393-2.301l1.357,1.829c-1.221,1.062-2.577,1.947-4.071,2.655
		C525.896,256.541,524.244,256.895,522.436,256.895z"/>
	<path fill="#FFFFFF" d="M12.39,298.666H0v-2.359h27.494v2.359h-12.39v36.521H12.39V298.666z"/>
	<path fill="#FFFFFF" d="M44.839,312.413c1.022-0.196,2.192-0.354,3.511-0.472c1.317-0.118,2.605-0.177,3.864-0.177
		c4.169,0,7.395,0.905,9.676,2.714c2.281,1.81,3.422,4.779,3.422,8.909v11.8h-2.655v-11.8c0-3.383-0.896-5.772-2.685-7.169
		c-1.791-1.396-4.455-2.095-7.995-2.095c-1.22,0-2.478,0.069-3.776,0.207c-1.298,0.139-2.419,0.305-3.363,0.501v20.355h-2.714
		v-36.521h-11.21v-2.359h28.261v2.359H44.839V312.413z"/>
	<path fill="#FFFFFF" d="M101.951,335.187h-3.068l-12.921-19.529h-8.024v19.529h-2.714v-38.881h2.714v17.051h8.142l5.664-10.384
		c0.826-1.573,1.563-2.842,2.212-3.806c0.649-0.963,1.269-1.711,1.858-2.242s1.18-0.885,1.77-1.062
		c0.59-0.178,1.258-0.266,2.006-0.266c0.55,0,1.062,0.099,1.534,0.295l-0.472,2.714c-0.197-0.078-0.404-0.138-0.619-0.177
		c-0.217-0.039-0.423-0.06-0.62-0.06c-0.434,0-0.826,0.06-1.18,0.178c-0.354,0.117-0.737,0.374-1.15,0.767
		c-0.413,0.394-0.876,0.964-1.387,1.711c-0.511,0.748-1.121,1.751-1.829,3.009l-5.605,10.385L101.951,335.187z M85.49,292.117
		l7.375-7.257l1.652,1.947l-7.847,6.667L85.49,292.117z"/>
	<path fill="#FFFFFF" d="M109.502,335.895c-0.708,0-1.289-0.04-1.74-0.118c-0.453-0.079-0.935-0.217-1.446-0.413l0.708-2.537
		c0.59,0.236,1.317,0.354,2.183,0.354c1.495,0,2.674-0.314,3.54-0.944c0.865-0.629,1.612-1.632,2.242-3.009l1.003-2.537
		l-13.334-30.385h2.891l8.85,20.768l2.773,6.667h0.236l2.537-6.667l8.142-20.768h2.832l-13.157,32.863
		c-0.826,2.124-1.879,3.775-3.157,4.956C113.328,335.305,111.626,335.895,109.502,335.895z"/>
	<path fill="#FFFFFF" d="M137.292,335.895c-0.708,0-1.289-0.04-1.74-0.118c-0.453-0.079-0.935-0.217-1.446-0.413l0.708-2.537
		c0.59,0.236,1.317,0.354,2.183,0.354c1.495,0,2.674-0.314,3.54-0.944c0.865-0.629,1.612-1.632,2.242-3.009l1.003-2.537
		l-13.334-30.385h2.891l8.85,20.768l2.773,6.667h0.236l2.537-6.667l8.142-20.768h2.832l-13.157,32.863
		c-0.826,2.124-1.879,3.775-3.157,4.956C141.117,335.305,139.416,335.895,137.292,335.895z M144.136,293.297
		c-1.495,0-2.744-0.227-3.747-0.679s-1.81-1.042-2.419-1.771c-0.61-0.727-1.053-1.533-1.328-2.419
		c-0.275-0.885-0.453-1.779-0.531-2.685h2.478c0.039,0.748,0.157,1.476,0.354,2.184c0.196,0.708,0.511,1.327,0.944,1.858
		c0.432,0.531,0.993,0.954,1.682,1.269c0.688,0.315,1.543,0.472,2.566,0.472c0.982,0,1.829-0.156,2.537-0.472
		c0.708-0.314,1.277-0.737,1.711-1.269c0.432-0.531,0.747-1.15,0.944-1.858c0.196-0.708,0.314-1.436,0.354-2.184h2.478
		c-0.079,0.905-0.256,1.8-0.531,2.685c-0.276,0.886-0.718,1.692-1.328,2.419c-0.61,0.729-1.416,1.318-2.419,1.771
		S145.63,293.297,144.136,293.297z"/>
	<path fill="#FFFFFF" d="M177.648,335.895c-1.652,0-3.265-0.246-4.838-0.737c-1.574-0.491-2.97-1.337-4.189-2.537
		c-1.22-1.199-2.193-2.803-2.921-4.809c-0.728-2.006-1.091-4.522-1.091-7.552v-23.954h2.714v23.659c0,2.596,0.285,4.749,0.855,6.46
		c0.57,1.711,1.328,3.089,2.271,4.13c0.944,1.043,2.036,1.78,3.275,2.213c1.239,0.434,2.546,0.649,3.923,0.649
		c1.416,0,2.763-0.216,4.042-0.649c1.278-0.433,2.398-1.17,3.363-2.213c0.963-1.041,1.741-2.419,2.331-4.13
		c0.59-1.711,0.885-3.864,0.885-6.46v-23.659h2.537v23.954c0,3.029-0.374,5.546-1.121,7.552c-0.748,2.006-1.731,3.609-2.95,4.809
		c-1.22,1.2-2.616,2.046-4.189,2.537C180.971,335.649,179.339,335.895,177.648,335.895z"/>
	<path fill="#FFFFFF" d="M218.652,301.38c5.428,0.079,9.617,1.356,12.567,3.835c2.95,2.478,4.425,5.939,4.425,10.384
		c0,4.484-1.475,8.005-4.425,10.561c-2.95,2.558-7.139,3.875-12.567,3.953v5.782h-2.419v-5.782
		c-5.428-0.078-9.617-1.396-12.567-3.953c-2.95-2.556-4.425-6.076-4.425-10.561c0-4.444,1.475-7.906,4.425-10.384
		c2.95-2.479,7.139-3.756,12.567-3.835v-5.782h2.419V301.38z M216.233,303.622c-4.682,0.04-8.231,1.121-10.65,3.245
		s-3.628,5.035-3.628,8.732c0,3.737,1.209,6.706,3.628,8.909s5.968,3.324,10.65,3.362V303.622z M218.652,327.871
		c4.68-0.038,8.23-1.159,10.649-3.362s3.628-5.172,3.628-8.909c0-3.697-1.209-6.608-3.628-8.732s-5.969-3.205-10.649-3.245V327.871z
		"/>
	<path fill="#FFFFFF" d="M249.804,315.068l-10.856-18.762h2.95l6.372,11.446c0.55,0.905,1.052,1.75,1.504,2.536
		c0.452,0.788,1.012,1.712,1.682,2.773h0.236c0.55-1.062,1.032-1.985,1.445-2.773c0.413-0.786,0.894-1.631,1.445-2.536l6.372-11.446
		h2.773l-10.856,18.88l11.682,20.001h-2.95l-6.785-11.918c-0.551-0.982-1.112-1.967-1.682-2.95
		c-0.571-0.982-1.209-2.064-1.917-3.245h-0.236c-0.63,1.181-1.201,2.263-1.711,3.245c-0.511,0.983-1.042,1.968-1.593,2.95
		l-6.785,11.918h-2.773L249.804,315.068z"/>
	<path fill="#FFFFFF" d="M300.543,332.827v1.534l-0.413,11.918h-2.301v-11.092h-26.55v-38.881h2.714v36.521H293.7v-36.521h2.714
		v36.521H300.543z"/>
	<path fill="#FFFFFF" d="M327.507,316.838c-1.023,0.157-2.154,0.305-3.393,0.442c-1.239,0.138-2.705,0.206-4.396,0.206
		c-2.124,0-4.042-0.206-5.752-0.619s-3.157-1.081-4.336-2.006c-1.18-0.924-2.085-2.134-2.714-3.629
		c-0.629-1.494-0.944-3.323-0.944-5.487v-9.439h2.655v9.439c0,1.771,0.255,3.256,0.767,4.455c0.511,1.2,1.249,2.163,2.213,2.891
		c0.963,0.729,2.153,1.239,3.569,1.534s3.009,0.442,4.779,0.442c1.652,0,3.098-0.059,4.336-0.177
		c1.239-0.118,2.311-0.274,3.216-0.472v-18.113h2.714v38.881h-2.714V316.838z"/>
	<path fill="#FFFFFF" d="M367.626,335.187H356.18l-0.354,11.092h-2.301v-11.092h-11.859v-38.881h2.714v36.521h20.532v-36.521h2.714
		V335.187z"/>
	<path fill="#FFFFFF" d="M379.072,296.306h2.714v36.521h14.927v-36.521h2.714v36.521h14.927v-36.521h2.715v38.881h-37.997V296.306z"
		/>
	<path fill="#FFFFFF" d="M470.58,332.827v1.534l-0.412,11.918h-2.242v-11.092h-39.412v-38.881h2.714v36.521h14.927v-36.521h2.715
		v36.521h14.926v-36.521h2.715v36.521H470.58z"/>
	<path fill="#FFFFFF" d="M486.156,298.666h-13.098v-2.359h15.813v16.933h7.67c2.084,0,3.991,0.207,5.723,0.62
		c1.73,0.413,3.215,1.053,4.455,1.917c1.238,0.866,2.201,1.947,2.891,3.245c0.688,1.298,1.032,2.853,1.032,4.661
		c0,3.855-1.181,6.736-3.54,8.644c-2.359,1.908-5.723,2.861-10.089,2.861h-10.856V298.666z M496.305,332.886
		c3.895,0,6.805-0.718,8.732-2.153c1.926-1.436,2.891-3.747,2.891-6.933c0-2.832-1.033-4.917-3.098-6.254s-5.064-2.007-8.998-2.007
		h-6.961v17.347H496.305z"/>
	<path fill="#FFFFFF" d="M519.196,296.306h2.714v16.933h7.316c2.123,0,4.031,0.197,5.723,0.59c1.69,0.394,3.146,1.023,4.365,1.889
		s2.154,1.957,2.803,3.274c0.649,1.318,0.975,2.882,0.975,4.69c0,3.855-1.181,6.736-3.541,8.644
		c-2.359,1.908-5.742,2.861-10.147,2.861h-10.207V296.306z M528.754,332.886c3.854,0,6.756-0.718,8.703-2.153s2.92-3.747,2.92-6.933
		c0-2.91-0.994-5.016-2.979-6.313c-1.986-1.298-4.946-1.947-8.88-1.947h-6.607v17.347H528.754z M550.23,296.306h2.714v38.881h-2.714
		V296.306z"/>
	<path fill="#FFFFFF" d="M564.39,296.306h2.714v16.933h8.378c2.124,0,4.031,0.197,5.724,0.59c1.689,0.394,3.146,1.023,4.365,1.889
		s2.154,1.957,2.803,3.274c0.648,1.318,0.974,2.882,0.974,4.69c0,3.855-1.181,6.736-3.54,8.644
		c-2.36,1.908-5.744,2.861-10.148,2.861H564.39V296.306z M575.01,332.886c3.854,0,6.756-0.718,8.702-2.153
		c1.947-1.436,2.921-3.747,2.921-6.933c0-2.91-0.994-5.016-2.98-6.313s-4.946-1.947-8.879-1.947h-7.67v17.347H575.01z"/>
	<path fill="#FFFFFF" d="M594.303,300.259c1.101-1.219,2.625-2.301,4.572-3.245s4.101-1.416,6.461-1.416
		c2.398,0,4.572,0.442,6.52,1.327c1.946,0.885,3.599,2.184,4.955,3.895c1.357,1.711,2.398,3.806,3.127,6.283s1.092,5.33,1.092,8.555
		c0,3.226-0.374,6.088-1.121,8.585c-0.748,2.498-1.81,4.612-3.186,6.343c-1.377,1.73-3.02,3.048-4.927,3.952
		c-1.908,0.904-4.042,1.357-6.401,1.357c-2.714,0-5.035-0.492-6.962-1.475c-1.928-0.983-3.679-2.34-5.251-4.071l1.593-1.711
		c1.495,1.573,3.067,2.764,4.72,3.569c1.652,0.807,3.579,1.21,5.782,1.21c3.973,0,7.118-1.515,9.44-4.544
		c2.32-3.028,3.52-7.413,3.599-13.156h-17.937v-2.36h17.877c-0.275-4.838-1.524-8.594-3.746-11.269
		c-2.223-2.675-5.301-4.013-9.233-4.013c-1.849,0-3.59,0.364-5.222,1.092c-1.633,0.729-3.02,1.702-4.159,2.921L594.303,300.259z"/>
	<path fill="#FFFFFF" d="M642.623,313.357c0.157-2.753,0.649-5.222,1.475-7.404c0.826-2.184,1.898-4.042,3.217-5.575
		c1.316-1.534,2.861-2.715,4.631-3.54c1.77-0.826,3.717-1.239,5.841-1.239c2.242,0,4.308,0.463,6.195,1.387s3.501,2.262,4.838,4.012
		c1.337,1.751,2.38,3.855,3.127,6.313c0.747,2.459,1.121,5.222,1.121,8.29s-0.374,5.851-1.121,8.349s-1.79,4.631-3.127,6.401
		c-1.337,1.77-2.95,3.137-4.838,4.101c-1.888,0.963-3.953,1.445-6.195,1.445c-2.241,0-4.298-0.472-6.165-1.416
		c-1.869-0.944-3.473-2.301-4.809-4.071c-1.338-1.77-2.381-3.894-3.127-6.372c-0.748-2.478-1.121-5.251-1.121-8.318h-9.912v19.47
		h-2.714v-38.881h2.714v17.051H642.623z M657.786,333.417c1.888,0,3.599-0.423,5.134-1.269c1.533-0.846,2.841-2.045,3.923-3.6
		c1.081-1.553,1.917-3.422,2.507-5.604c0.591-2.184,0.886-4.632,0.886-7.346c0-2.675-0.295-5.094-0.886-7.257
		c-0.59-2.163-1.426-4.002-2.507-5.517c-1.082-1.514-2.39-2.685-3.923-3.511c-1.535-0.826-3.246-1.239-5.134-1.239
		s-3.608,0.413-5.162,1.239c-1.555,0.826-2.872,1.997-3.953,3.511c-1.083,1.515-1.917,3.354-2.507,5.517
		c-0.591,2.163-0.886,4.582-0.886,7.257c0,2.714,0.295,5.162,0.886,7.346c0.59,2.183,1.424,4.052,2.507,5.604
		c1.081,1.555,2.398,2.754,3.953,3.6C654.178,332.995,655.898,333.417,657.786,333.417z"/>
	<path fill="#FFFFFF" d="M703.688,296.306v38.881h-2.713V317.31h-8.674l-11.15,17.877h-3.187l11.446-18.113
		c-1.416-0.196-2.705-0.561-3.865-1.091c-1.16-0.531-2.174-1.229-3.038-2.095c-0.865-0.865-1.534-1.907-2.006-3.127
		c-0.472-1.219-0.708-2.615-0.708-4.189c0-1.848,0.305-3.422,0.914-4.72s1.476-2.36,2.597-3.187c1.12-0.825,2.468-1.425,4.042-1.799
		c1.572-0.374,3.322-0.561,5.25-0.561H703.688z M700.975,298.607h-7.67c-3.463,0-6.107,0.601-7.936,1.8
		c-1.83,1.2-2.744,3.255-2.744,6.165c0,2.872,0.914,5.006,2.744,6.401c1.828,1.397,4.473,2.095,7.936,2.095h7.67V298.607z"/>
</g>
<g>
	<g>
		<path fill="#737F8A" d="M0.269,4.35V4.29h15.659v0.06L8.129,20.669h-0.06L0.269,4.35z"/>
		<path fill="#737F8A" d="M25.948,20.669l1.02-1.11c1.56,1.77,3.81,2.85,6.3,2.85c3.24,0,5.28-1.71,5.28-4.23
			c0-2.61-1.74-3.45-3.87-4.41l-3.24-1.44c-1.89-0.84-4.38-2.19-4.38-5.4c0-3.12,2.73-5.34,6.36-5.34c2.58,0,4.71,1.17,6,2.58
			l-0.93,1.11c-1.29-1.35-3-2.19-5.07-2.19c-2.82,0-4.68,1.47-4.68,3.75c0,2.459,2.13,3.39,3.689,4.08l3.24,1.44
			c2.43,1.08,4.53,2.43,4.53,5.73s-2.73,5.819-6.96,5.819C30.118,23.909,27.688,22.589,25.948,20.669z"/>
		<path fill="#737F8A" d="M43.198,15.659c0-5.22,3.3-8.25,7.08-8.25c3.81,0,7.109,3.03,7.109,8.25s-3.3,8.25-7.109,8.25
			C46.498,23.909,43.198,20.879,43.198,15.659z M55.708,15.659c0-4.05-2.31-6.87-5.43-6.87c-3.15,0-5.43,2.82-5.43,6.87
			c0,4.11,2.28,6.84,5.43,6.84C53.397,22.499,55.708,19.769,55.708,15.659z"/>
		<path fill="#737F8A" d="M61.798,17.849V7.8h1.56v9.87c0,3.27,1.05,4.8,3.54,4.8c1.83,0,3.12-0.93,4.919-3.15V7.8h1.62v15.719
			h-1.35l-0.18-2.61h-0.06c-1.53,1.8-3.15,3-5.31,3C63.298,23.909,61.798,21.929,61.798,17.849z"/>
		<path fill="#737F8A" d="M79.377,7.8h1.35l0.15,2.939h0.09c1.05-1.979,2.61-3.33,4.47-3.33c0.57,0,1.08,0.06,1.56,0.33l-0.42,1.35
			c-0.39-0.12-0.75-0.18-1.35-0.18c-1.41,0-3.06,1.05-4.23,3.99v10.62h-1.62V7.8z"/>
		<path fill="#737F8A" d="M88.258,15.659c0-5.22,3.39-8.25,7.2-8.25c2.13,0,3.54,0.87,4.62,1.92l-0.84,1.02
			c-0.96-0.93-2.16-1.56-3.69-1.56c-3.18,0-5.64,2.82-5.64,6.87c0,4.11,2.22,6.84,5.609,6.84c1.65,0,3.09-0.75,4.14-1.68l0.78,1.02
			c-1.35,1.29-3.03,2.07-5.04,2.07C91.318,23.909,88.258,20.879,88.258,15.659z"/>
		<path fill="#737F8A" d="M102.357,15.659c0-5.13,3.36-8.25,6.9-8.25c3.75,0,6.03,2.67,6.03,7.29c0,0.42-0.03,0.81-0.09,1.23h-11.22
			c0.12,4.11,2.61,6.6,5.82,6.6c1.71,0,3.09-0.48,4.2-1.26l0.63,1.11c-1.229,0.81-2.7,1.53-4.95,1.53
			C105.627,23.909,102.357,20.849,102.357,15.659z M104.008,14.579h9.779c0-3.84-1.77-5.819-4.53-5.819
			C106.888,8.76,104.397,10.589,104.008,14.579z"/>
		<path fill="#737F8A" d="M124.558,20.669l1.02-1.11c1.56,1.77,3.81,2.85,6.3,2.85c3.24,0,5.28-1.71,5.28-4.23
			c0-2.61-1.74-3.45-3.87-4.41l-3.24-1.44c-1.89-0.84-4.38-2.19-4.38-5.4c0-3.12,2.73-5.34,6.36-5.34c2.58,0,4.71,1.17,6,2.58
			l-0.93,1.11c-1.29-1.35-3-2.19-5.07-2.19c-2.82,0-4.68,1.47-4.68,3.75c0,2.459,2.13,3.39,3.689,4.08l3.24,1.44
			c2.43,1.08,4.53,2.43,4.53,5.73s-2.73,5.819-6.96,5.819C128.728,23.909,126.297,22.589,124.558,20.669z"/>
		<path fill="#737F8A" d="M141.987,19.589c0-3.54,3.15-5.16,10.11-5.94c0.03-2.37-0.66-4.86-3.66-4.86c-2.1,0-3.9,1.02-4.979,1.77
			l-0.72-1.14c1.14-0.84,3.33-2.01,5.88-2.01c3.75,0,5.04,2.67,5.04,6.09v10.02h-1.32l-0.18-2.04h-0.06
			c-1.59,1.32-3.51,2.43-5.52,2.43C144.057,23.909,141.987,22.529,141.987,19.589z M152.097,20.099v-5.22
			c-6.36,0.72-8.46,2.16-8.46,4.62c0,2.19,1.47,3,3.24,3C148.617,22.499,150.207,21.689,152.097,20.099z"/>
		<path fill="#737F8A" d="M159.207,7.8h1.35l0.15,2.4h0.09c1.59-1.56,3.209-2.79,5.37-2.79c3.27,0,4.8,1.98,4.8,6.03v10.08h-1.62
			v-9.87c0-3.27-1.02-4.8-3.51-4.8c-1.83,0-3.15,0.93-5.01,2.88v11.79h-1.62V7.8z"/>
		<path fill="#737F8A" d="M174.716,21.719l0.81-0.99c1.35,1.11,2.73,1.83,5.04,1.83c2.43,0,3.66-1.38,3.66-3
			c0-1.92-1.95-2.79-3.78-3.42c-2.4-0.87-4.89-1.86-4.89-4.53c0-2.28,1.83-4.2,5.1-4.2c1.83,0,3.42,0.69,4.56,1.62l-0.81,1.02
			c-1.05-0.78-2.22-1.32-3.75-1.32c-2.4,0-3.48,1.38-3.48,2.79c0,1.77,1.62,2.43,3.54,3.15c2.49,0.9,5.1,1.74,5.1,4.8
			c0,2.37-1.89,4.439-5.31,4.439C178.046,23.909,176.066,23.069,174.716,21.719z"/>
		<path fill="#737F8A" d="M196.676,1.98h5.52c4.86,0,7.83,1.59,7.83,6.03c0,4.26-2.94,6.33-7.71,6.33h-3.99v9.18h-1.65V1.98z
			 M201.926,12.959c4.35,0,6.419-1.44,6.419-4.95c0-3.51-2.16-4.62-6.54-4.62h-3.48v9.57H201.926z"/>
		<path fill="#737F8A" d="M214.525,7.8h1.35l0.15,2.939h0.09c1.05-1.979,2.61-3.33,4.47-3.33c0.57,0,1.08,0.06,1.56,0.33l-0.42,1.35
			c-0.39-0.12-0.75-0.18-1.35-0.18c-1.41,0-3.06,1.05-4.23,3.99v10.62h-1.62V7.8z"/>
		<path fill="#737F8A" d="M223.405,15.659c0-5.22,3.3-8.25,7.08-8.25c3.81,0,7.109,3.03,7.109,8.25s-3.3,8.25-7.109,8.25
			C226.706,23.909,223.405,20.879,223.405,15.659z M235.915,15.659c0-4.05-2.31-6.87-5.43-6.87c-3.15,0-5.43,2.82-5.43,6.87
			c0,4.11,2.28,6.84,5.43,6.84C233.605,22.499,235.915,19.769,235.915,15.659z"/>
		<path fill="#737F8A" d="M248.935,1.98h1.65v20.129h9.84v1.41h-11.49V1.98z"/>
		<path fill="#737F8A" d="M263.545,2.67c0-0.81,0.54-1.32,1.29-1.32s1.32,0.51,1.32,1.32c0,0.84-0.57,1.38-1.32,1.38
			S263.545,3.51,263.545,2.67z M264.085,7.8h1.62v15.719h-1.62V7.8z"/>
		<path fill="#737F8A" d="M271.584,29.279l0.69-1.2c1.56,1.14,3.21,1.59,4.83,1.59c3.18,0,4.8-1.92,4.86-5.069v-3.51
			c-1.29,1.29-3.06,2.43-5.1,2.43c-3.93,0-6.479-2.91-6.479-8.04c0-4.98,3.24-8.07,6.959-8.07c1.86,0,3.18,0.69,4.53,1.83h0.12
			l0.15-1.44h1.38v16.949c0,3.81-2.34,6.27-6.42,6.27C275.004,31.019,273.115,30.359,271.584,29.279z M281.964,19.559v-8.79
			c-1.65-1.44-3.03-1.98-4.53-1.98c-3.03,0-5.43,2.88-5.43,6.69c0,3.99,1.83,6.629,5.1,6.629
			C278.814,22.109,280.314,21.239,281.964,19.559z"/>
		<path fill="#737F8A" d="M289.464,0h1.62v6.81l-0.03,3.42c1.59-1.59,3.209-2.82,5.37-2.82c3.27,0,4.8,1.98,4.8,6.03v10.08h-1.62
			v-9.87c0-3.27-1.02-4.8-3.51-4.8c-1.83,0-3.15,0.93-5.01,2.88v11.79h-1.62V0z"/>
		<path fill="#737F8A" d="M307.194,19.109V9.149h-2.43v-1.23l2.459-0.12l0.21-5.22h1.35V7.8h4.53v1.35h-4.53v10.05
			c0,2.01,0.51,3.33,2.64,3.33c0.6,0,1.2-0.12,1.95-0.48l0.48,1.14c-0.87,0.45-1.83,0.72-2.7,0.72
			C308.125,23.909,307.194,21.989,307.194,19.109z"/>
	</g>
</g>
<g>
</g>
<g>
</g>
<g>
</g>
<g>
</g>
<g>
</g>
<g>
</g>
</svg>
