<?xml version="1.0" encoding="utf-8"?>
<!-- Generator: Adobe Illustrator 16.0.0, SVG Export Plug-In . SVG Version: 6.00 Build 0)  -->
<!DOCTYPE svg PUBLIC "-//W3C//DTD SVG 1.1//EN" "http://www.w3.org/Graphics/SVG/1.1/DTD/svg11.dtd">
<svg version="1.1" id="Layer_1" xmlns="http://www.w3.org/2000/svg" xmlns:xlink="http://www.w3.org/1999/xlink" x="0px" y="0px"
	 width="950px" height="352.682px" viewBox="0 0 950 352.682" enable-background="new 0 0 950 352.682" xml:space="preserve">
<g>
	<path fill="#FFFFFF" d="M8.025,65.586h-5.37v-1.889c2.537-0.53,4.13-1.298,5.665-2.478h2.36v25.077H8.025V65.586z M33.161,60.453
		h2.596l-23.602,43.9H9.559L33.161,60.453z M38.354,96.329h-11.27v-1.416l11.211-16.404h2.596v15.696h3.717v2.124h-3.717v7.258
		h-2.538V96.329z M38.354,94.205v-5.547l0.354-6.668h-0.295l-3.54,5.311l-4.662,6.904H38.354z"/>
	<path fill="#FFFFFF" d="M57.29,65.586h-5.37v-1.889c2.537-0.53,4.13-1.298,5.665-2.478h2.36v25.077H57.29V65.586z M80.951,60.453
		h2.596l-23.602,43.9h-2.596L80.951,60.453z M78.354,101.934c8.497-7.848,12.391-11.802,12.391-15.991c0-3.599-2.183-5.9-5.487-5.9
		c-2.301,0-4.367,1.829-5.783,3.954l-1.77-1.594c1.652-2.537,4.661-4.661,7.848-4.661c4.662,0,7.848,2.655,7.848,7.966
		c0,5.134-4.366,9.322-10.621,15.577h12.037v2.302H78.354V101.934z"/>
	<path fill="#FFFFFF" d="M100.653,82.226l1.888-1.476c1.534,2.36,4.13,4.071,6.904,4.071c3.127,0,5.783-1.946,5.783-5.251
		c0-3.245-3.363-5.074-8.733-5.074v-1.889c4.957,0,7.729-2.479,7.729-5.311c0-2.773-2.006-4.603-5.251-4.603
		c-2.006,0-4.012,1.357-5.665,3.305l-1.652-1.534c1.77-2.302,4.366-4.013,7.611-4.013c4.249,0,7.671,2.479,7.671,6.609
		c0,3.127-2.065,5.251-4.779,6.313c3.009,0.648,5.783,2.832,5.783,6.313c0,4.603-3.718,7.376-8.438,7.376
		C105.491,87.065,102.364,84.822,100.653,82.226z M136.057,60.453h2.596l-23.603,43.9h-2.596L136.057,60.453z M139.538,96.329
		h-11.329v-1.416l11.27-16.404h2.538v15.696h3.776v2.124h-3.776v7.258h-2.479V96.329z M139.538,94.205v-5.547l0.295-6.668h-0.236
		l-3.54,5.311l-4.662,6.904H139.538z"/>
	<path fill="#FFFFFF" d="M158.474,65.586h-5.37v-1.889c2.537-0.53,4.13-1.298,5.665-2.478h2.36v25.077h-2.655V65.586z
		 M181.722,60.453h2.596l-23.602,43.9h-2.596L181.722,60.453z M178.477,99.515l1.947-1.476c1.534,2.419,4.071,4.071,6.844,4.071
		c3.187,0,5.783-1.947,5.783-5.192c0-3.305-3.304-5.074-8.733-5.074v-1.947c4.957,0,7.73-2.479,7.73-5.311
		c0-2.715-2.006-4.603-5.192-4.603c-2.006,0-4.072,1.357-5.665,3.363l-1.711-1.593c1.829-2.302,4.367-4.013,7.612-4.013
		c4.249,0,7.729,2.479,7.729,6.608c0,3.127-2.065,5.252-4.838,6.313c3.009,0.649,5.783,2.832,5.783,6.313
		c0,4.603-3.717,7.376-8.438,7.376C183.374,104.353,180.188,102.111,178.477,99.515z"/>
	<path fill="#FFFFFF" d="M202.84,84.586c8.497-7.848,12.333-11.742,12.333-15.932c0-3.6-2.183-5.9-5.429-5.9
		c-2.36,0-4.366,1.77-5.783,3.895l-1.77-1.534c1.593-2.538,4.662-4.662,7.848-4.662c4.662,0,7.848,2.597,7.848,7.966
		c0,5.134-4.367,9.323-10.68,15.578h12.096v2.301H202.84V84.586z M235.648,60.453h2.596l-23.603,43.9h-2.596L235.648,60.453z
		 M230.396,99.515l1.889-1.476c1.534,2.419,4.13,4.071,6.903,4.071c3.127,0,5.783-1.947,5.783-5.192
		c0-3.305-3.363-5.074-8.733-5.074v-1.947c4.957,0,7.73-2.479,7.73-5.311c0-2.715-2.006-4.603-5.252-4.603
		c-2.006,0-4.012,1.357-5.665,3.363l-1.652-1.593c1.829-2.302,4.366-4.013,7.612-4.013c4.248,0,7.67,2.479,7.67,6.608
		c0,3.127-2.006,5.252-4.779,6.313c3.009,0.649,5.783,2.832,5.783,6.313c0,4.603-3.717,7.376-8.438,7.376
		C235.235,104.353,232.107,102.111,230.396,99.515z"/>
	<path fill="#FFFFFF" d="M261.015,65.586h-5.37v-1.889c2.537-0.53,4.13-1.298,5.665-2.478h2.36v25.077h-2.655V65.586z
		 M284.912,60.453h2.597l-23.603,43.9h-2.596L284.912,60.453z M281.549,97.332c0-3.187,2.301-5.782,4.78-7.14v-0.236
		c-2.184-1.475-3.717-3.009-3.717-5.724c0-3.776,3.245-6.49,7.375-6.49c4.249,0,7.553,2.537,7.553,6.49
		c0,3.187-2.301,5.134-3.776,6.313v0.236c2.95,1.476,4.662,3.363,4.662,6.373c0,4.13-3.659,7.198-8.438,7.198
		C284.854,104.353,281.549,101.167,281.549,97.332z M295.829,97.155c0-3.659-3.718-4.484-7.553-5.96
		c-2.714,1.534-4.131,3.6-4.131,5.96c0,2.596,2.243,5.074,5.842,5.074C293.232,102.229,295.829,99.927,295.829,97.155z
		 M294.943,84.232c0-2.596-2.242-4.248-5.016-4.248c-2.537,0-4.661,1.771-4.661,4.308c0,2.832,2.832,4.366,6.431,5.546
		C293.881,88.068,294.943,86.239,294.943,84.232z"/>
	<path fill="#FFFFFF" d="M304.379,82.226l1.888-1.476c1.534,2.36,4.13,4.071,6.904,4.071c3.127,0,5.783-1.946,5.783-5.251
		c0-3.245-3.364-5.074-8.733-5.074v-1.889c4.957,0,7.729-2.479,7.729-5.311c0-2.773-2.006-4.603-5.251-4.603
		c-1.947,0-4.012,1.357-5.665,3.305l-1.652-1.534c1.83-2.302,4.367-4.013,7.612-4.013c4.249,0,7.671,2.479,7.671,6.609
		c0,3.127-2.006,5.251-4.779,6.313c3.009,0.648,5.782,2.832,5.782,6.313c0,4.603-3.717,7.376-8.438,7.376
		C309.217,87.065,306.09,84.822,304.379,82.226z M338.13,60.453h2.537l-23.602,43.9h-2.538L338.13,60.453z M333.41,97.332
		c0-3.187,2.36-5.782,4.838-7.14v-0.236c-2.183-1.475-3.717-3.009-3.717-5.724c0-3.776,3.187-6.49,7.376-6.49
		c4.248,0,7.553,2.537,7.553,6.49c0,3.187-2.36,5.134-3.835,6.313v0.236c3.009,1.476,4.72,3.363,4.72,6.373
		c0,4.13-3.658,7.198-8.438,7.198C336.773,104.353,333.41,101.167,333.41,97.332z M347.689,97.155c0-3.659-3.658-4.484-7.494-5.96
		c-2.714,1.534-4.13,3.6-4.13,5.96c0,2.596,2.242,5.074,5.842,5.074C345.152,102.229,347.689,99.927,347.689,97.155z
		 M346.863,84.232c0-2.596-2.242-4.248-5.016-4.248c-2.596,0-4.662,1.771-4.662,4.308c0,2.832,2.773,4.366,6.432,5.546
		C345.801,88.068,346.863,86.239,346.863,84.232z"/>
	<path fill="#FFFFFF" d="M356.24,82.226l1.888-1.476c1.711,2.36,3.895,4.071,7.14,4.071c3.363,0,5.842-2.654,5.842-6.432
		c0-4.012-2.419-6.431-5.959-6.431c-2.301,0-3.835,1.121-5.252,2.242l-1.534-1.063l1.239-11.919h12.863v2.419h-10.562l-0.826,7.494
		c1.239-0.708,2.714-1.239,4.603-1.239c4.543,0,8.143,2.95,8.143,8.556c0,5.192-3.718,8.615-8.556,8.615
		C360.901,87.065,358.069,84.822,356.24,82.226z M389.991,60.453h2.537l-23.602,43.9h-2.538L389.991,60.453z M385.271,97.332
		c0-3.187,2.36-5.782,4.838-7.14v-0.236c-2.183-1.475-3.717-3.009-3.717-5.724c0-3.776,3.187-6.49,7.376-6.49
		c4.249,0,7.553,2.537,7.553,6.49c0,3.187-2.36,5.134-3.835,6.313v0.236c3.009,1.476,4.72,3.363,4.72,6.373
		c0,4.13-3.658,7.198-8.438,7.198C388.634,104.353,385.271,101.167,385.271,97.332z M399.55,97.155c0-3.659-3.658-4.484-7.494-5.96
		c-2.714,1.534-4.13,3.6-4.13,5.96c0,2.596,2.242,5.074,5.842,5.074C397.013,102.229,399.55,99.927,399.55,97.155z M398.724,84.232
		c0-2.596-2.242-4.248-5.016-4.248c-2.596,0-4.662,1.771-4.662,4.308c0,2.832,2.773,4.366,6.432,5.546
		C397.662,88.068,398.724,86.239,398.724,84.232z"/>
	<path fill="#FFFFFF" d="M432.881,104.294c-4.485-0.236-8.497-2.302-10.798-5.134l1.711-1.888c2.419,2.478,5.9,4.307,10.267,4.307
		c5.311,0,8.202-3.304,8.202-8.201c0-10.444-18.469-9.973-18.469-21.479c0-5.547,3.776-9.5,9.087-10.148v-6.314h2.655v6.314
		c4.071,0.354,6.844,2.242,8.851,4.72l-1.829,1.652c-1.947-2.301-4.366-3.717-8.32-3.717c-4.308,0-7.317,3.186-7.317,7.257
		c0,9.618,18.528,9.087,18.528,21.42c0,6.432-4.189,10.562-9.913,11.211v6.372h-2.655V104.294z"/>
	<path fill="#FFFFFF" d="M452.88,101.639c4.78-2.597,6.845-7.376,6.845-12.332c0-1.534-0.295-3.01-0.59-4.485h-6.373v-2.359
		l4.249-0.118h1.475c-0.885-3.187-2.006-6.313-2.006-9.56c0-6.845,4.249-11.093,10.975-11.093c4.484,0,7.494,2.006,9.441,4.779
		l-1.888,1.594c-1.711-2.302-4.013-3.658-7.376-3.658c-5.251,0-8.024,3.717-8.024,8.378c0,3.246,1.121,6.314,2.006,9.56h10.562
		v2.478h-9.972c0.236,1.417,0.472,2.892,0.472,4.485c0,5.251-1.652,8.378-4.603,11.27v0.236h18.941v2.773H452.88V101.639z"/>
	<path fill="#FFFFFF" d="M494.003,93.437h-10.68v-2.419h10.68v-4.779h-10.68v-2.42h9.736l-10.975-21.359h3.363l5.959,12.332
		c1.357,2.832,2.655,5.664,4.189,8.792h0.236c1.534-3.128,2.891-5.96,4.307-8.792l5.901-12.332h3.245l-11.152,21.359h9.795v2.42
		h-10.739v4.779h10.739v2.419h-10.739v10.149h-3.187V93.437z"/>
	<path fill="#FFFFFF" d="M516.834,87.95h-4.189v-2.124l3.953-0.236c-0.059-0.826-0.059-1.771-0.059-2.655
		c0-0.767,0-1.534,0.059-2.242h-3.953v-2.065l4.13-0.295c1.298-10.385,6.963-16.64,15.046-16.64c4.189,0,7.435,2.124,9.265,5.134
		l-1.889,1.475c-1.83-2.655-4.072-3.894-7.258-3.894c-6.609,0-10.798,5.31-11.801,13.925h17.702v2.36h-17.938
		c-0.059,0.708-0.059,1.416-0.059,2.184c0,0.885,0,1.888,0.059,2.714h15.4v2.36h-15.105c1.062,8.438,5.016,13.689,11.389,13.689
		c3.363,0,5.959-1.476,8.024-4.662l1.829,1.121c-2.301,3.954-5.488,6.255-10.09,6.255C523.502,104.353,518.132,98.098,516.834,87.95
		z"/>
	<path fill="#FFFFFF" d="M558.489,98.453c-7.258-0.708-12.451-6.078-12.451-14.869c0-8.852,5.488-14.103,12.451-14.87v-7.14h2.301
		v7.021c4.013,0.118,6.668,1.947,8.615,3.836l-1.652,2.006c-1.947-1.77-4.308-3.068-6.963-3.068v24.429
		c3.127-0.118,5.724-1.593,7.789-3.423l1.593,2.065c-2.537,2.242-5.724,3.895-9.382,4.071v6.904h-2.301V98.453z M558.489,95.679
		V71.487c-5.488,0.885-9.323,5.547-9.323,12.097C549.166,90.192,552.765,94.853,558.489,95.679z"/>
	<path fill="#FFFFFF" d="M571.289,117.334l0.708-2.419c0.768,0.235,2.065,0.648,3.187,0.648c3.423,0,4.071-2.773,4.071-6.727V75.323
		h-4.248v-2.42l4.248-0.235V66c0-6.137,2.773-9.441,7.848-9.441c1.476,0,3.246,0.473,4.543,1.121l-0.825,2.36
		c-1.298-0.53-2.479-0.767-3.6-0.767c-3.304,0-4.839,2.479-4.839,6.963v6.432h7.081v2.655h-7.081v33.751
		c0,6.077-2.123,9.205-7.139,9.205C573.885,118.279,572.233,117.866,571.289,117.334z"/>
	<path fill="#FFFFFF" d="M594.771,82.993h4.72c7.199,0,11.507-2.832,11.742-9.027h-16.462V71.9l4.308-0.354h11.919
		c-0.826-4.544-4.956-6.373-11.507-6.373h-4.72v-2.714h23.838v2.419h-9.382c2.537,1.239,4.543,3.6,5.074,6.668h4.308v2.419h-4.13
		c-0.178,6.903-4.544,10.798-10.976,11.624l12.804,17.997h-3.834l-12.451-17.82h-5.251V82.993z"/>
	<path fill="#FFFFFF" d="M629.286,85.943l-5.96,3.128l-1.062-2.006l7.021-3.718v-5.074l-5.96,3.068l-1.062-2.007l7.021-3.717V62.459
		h3.186V74.26l10.799-5.724l1.121,2.006l-11.92,6.373v5.074l10.799-5.724l1.121,2.007l-11.92,6.313v16.698
		c6.195-0.059,14.339-3.835,14.339-11.683c0-0.944,0-1.829-0.296-3.187l2.773-0.826c0.354,1.593,0.473,2.479,0.473,3.835
		c0,10.444-9.618,15.105-20.475,14.929V85.943z"/>
	<path fill="#FFFFFF" d="M660.495,92.847h-5.133v-2.124l5.133-0.236v-4.897h-5.133v-2.065l5.133-0.354V62.459h6.078
		c8.025,0,13.689,3.186,13.689,11.093c0,8.202-5.664,12.037-13.689,12.037h-3.068v4.897h13.217v2.36h-13.217v10.739h-3.01V92.847z
		 M665.865,83.17c7.258,0,11.271-3.068,11.271-9.5c0-6.491-4.013-8.733-11.271-8.733h-2.36V83.17H665.865z"/>
	<path fill="#FFFFFF" d="M698.194,73.67c0-8.497,3.481-13.218,9.087-13.218c5.665,0,9.146,4.721,9.146,13.218
		c0,8.556-3.48,13.395-9.146,13.395C701.675,87.065,698.194,82.226,698.194,73.67z M713.772,73.67c0-7.14-2.537-10.976-6.491-10.976
		c-3.835,0-6.432,3.836-6.432,10.976s2.597,11.151,6.432,11.151C711.235,84.822,713.772,80.81,713.772,73.67z M732.004,60.453h2.537
		l-23.602,43.9h-2.538L732.004,60.453z M726.812,90.958c0-8.496,3.54-13.217,9.087-13.217c5.664,0,9.146,4.721,9.146,13.217
		c0,8.557-3.481,13.395-9.146,13.395C730.352,104.353,726.812,99.515,726.812,90.958z M742.389,90.958
		c0-7.14-2.537-10.975-6.49-10.975c-3.836,0-6.432,3.835-6.432,10.975s2.596,11.152,6.432,11.152
		C739.852,102.111,742.389,98.098,742.389,90.958z"/>
	<path fill="#FFFFFF" d="M750.172,73.67c0-8.497,3.482-13.218,9.088-13.218c5.664,0,9.146,4.721,9.146,13.218
		c0,8.556-3.481,13.395-9.146,13.395C753.655,87.065,750.172,82.226,750.172,73.67z M765.75,73.67c0-7.14-2.537-10.976-6.49-10.976
		c-3.836,0-6.432,3.836-6.432,10.976s2.596,11.151,6.432,11.151C763.213,84.822,765.75,80.81,765.75,73.67z M783.983,60.453h2.537
		l-23.602,43.9h-2.537L783.983,60.453z M778.791,90.958c0-8.496,3.54-13.217,9.087-13.217c5.664,0,9.146,4.721,9.146,13.217
		c0,8.557-3.482,13.395-9.146,13.395C782.331,104.353,778.791,99.515,778.791,90.958z M794.368,90.958
		c0-7.14-2.537-10.975-6.49-10.975c-3.835,0-6.432,3.835-6.432,10.975s2.597,11.152,6.432,11.152
		C791.831,102.111,794.368,98.098,794.368,90.958z M801.803,90.958c0-8.496,3.54-13.217,9.146-13.217s9.087,4.721,9.087,13.217
		c0,8.557-3.481,13.395-9.087,13.395S801.803,99.515,801.803,90.958z M817.44,90.958c0-7.14-2.597-10.975-6.491-10.975
		c-3.894,0-6.432,3.835-6.432,10.975s2.538,11.152,6.432,11.152C814.843,102.111,817.44,98.098,817.44,90.958z"/>
	<path fill="#FFFFFF" d="M3.954,178.219v-41.894H7.14v42.248c0,1.475,0.531,2.006,1.475,2.006c0.236,0,0.472,0,1.003-0.118
		l0.531,2.42c-0.649,0.295-1.298,0.472-2.183,0.472C5.311,183.353,3.954,181.701,3.954,178.219z"/>
	<path fill="#FFFFFF" d="M19.352,178.219v-41.894h3.186v42.248c0,1.475,0.531,2.006,1.475,2.006c0.236,0,0.472,0,1.003-0.118
		l0.531,2.42c-0.649,0.295-1.298,0.472-2.183,0.472C20.709,183.353,19.352,181.701,19.352,178.219z"/>
	<path fill="#FFFFFF" d="M32.567,174.856c0-6.962,6.196-10.148,19.885-11.683c0.059-4.661-1.298-9.559-7.199-9.559
		c-4.13,0-7.671,2.006-9.795,3.48l-1.417-2.242c2.242-1.651,6.55-3.953,11.565-3.953c7.375,0,9.913,5.252,9.913,11.979v19.708
		h-2.597l-0.354-4.013h-0.118c-3.127,2.597-6.904,4.779-10.857,4.779C36.639,183.353,32.567,180.639,32.567,174.856z M52.452,175.86
		v-10.268c-12.509,1.416-16.64,4.249-16.64,9.087c0,4.308,2.891,5.9,6.373,5.9C45.607,180.58,48.735,178.987,52.452,175.86z"/>
	<path fill="#FFFFFF" d="M62.125,151.667h3.363l5.429,19.707c0.826,2.833,1.534,5.488,2.065,8.438h0.295
		c0.708-2.95,1.417-5.605,2.184-8.438l5.428-19.707h3.835l5.488,19.707c0.708,2.833,1.534,5.488,2.242,8.438h0.236
		c0.708-2.95,1.416-5.605,2.183-8.438l5.311-19.707h3.187l-8.792,30.919h-4.189l-5.251-18.882c-0.826-2.95-1.475-5.665-2.301-8.91
		H82.6c-0.708,3.245-1.417,6.077-2.419,9.027l-5.074,18.765h-3.895L62.125,151.667z"/>
	<path fill="#FFFFFF" d="M110.741,151.667h2.655l0.295,4.72h0.177c3.127-3.068,6.314-5.487,10.562-5.487
		c6.432,0,9.441,3.895,9.441,11.86v19.826h-3.186v-19.413c0-6.432-2.006-9.441-6.904-9.441c-3.599,0-6.196,1.829-9.854,5.665v23.189
		h-3.186V151.667z"/>
	<path fill="#FFFFFF" d="M155.403,167.126c0-9.972,6.313-16.227,13.63-16.227c3.717,0,6.196,1.416,9.264,3.776l-0.118-5.664v-12.687
		h3.068v46.261h-2.655l-0.295-4.013h-0.118c-2.537,2.597-5.959,4.779-10.031,4.779C160.418,183.353,155.403,177.571,155.403,167.126
		z M178.179,175.624v-18.115c-3.246-2.832-5.959-3.894-8.91-3.894c-5.959,0-10.621,5.9-10.621,13.512
		c0,8.202,3.541,13.453,9.972,13.453C171.983,180.58,174.934,178.869,178.179,175.624z"/>
	<path fill="#FFFFFF" d="M188.62,151.667h3.363l5.429,19.707c0.826,2.833,1.534,5.488,2.065,8.438h0.295
		c0.708-2.95,1.417-5.605,2.184-8.438l5.428-19.707h3.835l5.488,19.707c0.708,2.833,1.534,5.488,2.242,8.438h0.236
		c0.708-2.95,1.416-5.605,2.183-8.438l5.311-19.707h3.187l-8.792,30.919h-4.189l-5.251-18.882c-0.826-2.95-1.475-5.665-2.301-8.91
		h-0.236c-0.708,3.245-1.417,6.077-2.419,9.027l-5.074,18.765h-3.895L188.62,151.667z M200.185,144.41l7.494-9.205h3.068
		l7.494,9.205l-1.593,1.416l-7.317-8.025h-0.236l-7.317,8.025L200.185,144.41z"/>
	<path fill="#FFFFFF" d="M237.236,151.667h2.655l0.295,5.782h0.177c2.065-3.895,5.134-6.55,8.792-6.55
		c1.121,0,2.124,0.118,3.068,0.649l-0.826,2.655c-0.767-0.236-1.475-0.354-2.655-0.354c-2.773,0-6.019,2.065-8.32,7.848v20.889
		h-3.186V151.667z"/>
	<path fill="#FFFFFF" d="M270.628,193.916l1.357-2.36c3.068,2.242,6.314,3.127,9.5,3.127c6.255,0,9.441-3.776,9.559-9.972v-6.904
		c-2.537,2.538-6.019,4.78-10.031,4.78c-7.729,0-12.745-5.724-12.745-15.813c0-9.795,6.373-15.873,13.689-15.873
		c3.658,0,6.254,1.357,8.91,3.6h0.236l0.295-2.832h2.714v33.338c0,7.494-4.603,12.332-12.627,12.332
		C277.355,197.337,273.638,196.04,270.628,193.916z M291.044,174.797v-17.289c-3.246-2.832-5.959-3.894-8.91-3.894
		c-5.959,0-10.68,5.664-10.68,13.158c0,7.848,3.599,13.04,10.031,13.04C284.849,179.813,287.799,178.102,291.044,174.797z"/>
	<path fill="#FFFFFF" d="M303.255,167.126c0-10.09,6.609-16.227,13.571-16.227c7.376,0,11.86,5.252,11.86,14.339
		c0,0.826-0.059,1.593-0.177,2.419h-22.068c0.236,8.084,5.133,12.981,11.447,12.981c3.364,0,6.078-0.944,8.261-2.479l1.239,2.184
		c-2.419,1.593-5.311,3.009-9.736,3.009C309.687,183.353,303.255,177.334,303.255,167.126z M306.5,165.002h19.236
		c0-7.553-3.481-11.447-8.91-11.447C312.165,153.555,307.268,157.155,306.5,165.002z"/>
	<path fill="#FFFFFF" d="M336.944,151.667h2.655l0.295,5.782h0.177c2.065-3.895,5.134-6.55,8.792-6.55
		c1.121,0,2.124,0.118,3.068,0.649l-0.826,2.655c-0.767-0.236-1.475-0.354-2.655-0.354c-2.773,0-6.019,2.065-8.32,7.848v20.889
		h-3.186V151.667z"/>
	<path fill="#FFFFFF" d="M371.222,173.913v-19.59h-4.78v-2.42l4.838-0.235l0.413-10.268h2.655v10.268h8.91v2.655h-8.91v19.767
		c0,3.953,1.003,6.55,5.192,6.55c1.18,0,2.36-0.236,3.835-0.944l0.944,2.242c-1.711,0.885-3.6,1.416-5.311,1.416
		C373.051,183.353,371.222,179.577,371.222,173.913z"/>
	<path fill="#FFFFFF" d="M386.443,195.921l0.767-2.655c0.708,0.236,1.711,0.531,2.478,0.531c3.717,0,6.196-3.423,7.789-8.084
		l0.826-2.597l-12.686-31.449h3.363l7.317,19.177c1.003,2.596,2.183,5.9,3.363,8.674h0.236c0.944-2.773,1.947-6.078,2.833-8.674
		l6.432-19.177h3.245l-12.155,34.636c-1.829,5.311-4.957,10.326-10.562,10.326C388.449,196.629,387.269,196.334,386.443,195.921z
		 M390.691,144.41l7.494-9.205h3.068l7.435,9.205l-1.534,1.416l-7.317-8.025h-0.236l-7.376,8.025L390.691,144.41z"/>
	<path fill="#FFFFFF" d="M432.227,140.22h4.543l8.732,24.605c1.121,3.068,2.184,6.137,3.246,9.322h0.236
		c1.121-3.186,2.065-6.254,3.187-9.322l8.674-24.605h4.543v42.366h-3.068v-27.261c0-3.541,0.177-8.261,0.354-11.802h-0.236
		l-3.305,9.678l-8.91,24.841h-2.833l-9.028-24.841l-3.304-9.678h-0.295c0.236,3.541,0.472,8.261,0.472,11.802v27.261h-3.009V140.22z
		"/>
	<path fill="#FFFFFF" d="M475.236,174.856c0-6.962,6.196-10.148,19.885-11.683c0.059-4.661-1.298-9.559-7.199-9.559
		c-4.13,0-7.671,2.006-9.795,3.48l-1.417-2.242c2.242-1.651,6.55-3.953,11.565-3.953c7.375,0,9.913,5.252,9.913,11.979v19.708
		h-2.597l-0.354-4.013h-0.118c-3.127,2.597-6.904,4.779-10.857,4.779C479.308,183.353,475.236,180.639,475.236,174.856z
		 M495.122,175.86v-10.268c-12.509,1.416-16.64,4.249-16.64,9.087c0,4.308,2.891,5.9,6.373,5.9
		C488.277,180.58,491.404,178.987,495.122,175.86z"/>
	<path fill="#FFFFFF" d="M512.229,179.458h-0.177l-0.354,3.128h-2.596v-46.261h3.186v13.395l-0.236,5.9
		c3.127-2.537,6.845-4.721,10.562-4.721c8.32,0,12.391,6.195,12.391,15.755c0,10.503-6.313,16.698-13.63,16.698
		C518.425,183.353,515.121,181.819,512.229,179.458z M531.76,166.713c0-7.553-2.715-13.099-9.677-13.099
		c-3.009,0-6.254,1.77-9.795,5.074v18.056c3.246,2.832,6.55,3.835,8.851,3.835C527.334,180.58,531.76,174.974,531.76,166.713z"/>
	<path fill="#FFFFFF" d="M541.551,167.126c0-10.267,6.49-16.227,13.925-16.227c7.494,0,13.984,5.96,13.984,16.227
		c0,10.268-6.49,16.227-13.984,16.227C548.042,183.353,541.551,177.394,541.551,167.126z M566.157,167.126
		c0-7.966-4.544-13.512-10.681-13.512c-6.195,0-10.68,5.546-10.68,13.512c0,8.084,4.484,13.453,10.68,13.453
		C561.613,180.58,566.157,175.21,566.157,167.126z"/>
	<path fill="#FFFFFF" d="M578.544,151.667h2.655l0.295,4.72h0.177c3.128-3.068,6.313-5.487,10.562-5.487
		c6.432,0,9.441,3.895,9.441,11.86v19.826h-3.186v-19.413c0-6.432-2.007-9.441-6.904-9.441c-3.6,0-6.195,1.829-9.854,5.665v23.189
		h-3.187V151.667z"/>
	<path fill="#FFFFFF" d="M611.29,180.344c0-1.947,1.356-3.068,2.832-3.068c1.533,0,2.891,1.121,2.891,3.068
		c0,1.829-1.357,3.009-2.891,3.009C612.646,183.353,611.29,182.173,611.29,180.344z"/>
	<path fill="#FFFFFF" d="M1.77,253.856c0-6.962,6.196-10.148,19.885-11.683c0.059-4.661-1.298-9.559-7.199-9.559
		c-4.13,0-7.671,2.006-9.795,3.48l-1.417-2.242c2.242-1.651,6.55-3.953,11.565-3.953c7.375,0,9.913,5.252,9.913,11.979v19.708
		h-2.597l-0.354-4.013h-0.118c-3.127,2.597-6.904,4.779-10.857,4.779C5.842,262.353,1.77,259.639,1.77,253.856z M21.655,254.86
		v-10.268c-12.509,1.416-16.64,4.249-16.64,9.087c0,4.308,2.891,5.9,6.373,5.9C14.811,259.58,17.938,257.987,21.655,254.86z"/>
	<path fill="#FFFFFF" d="M33.57,243.176c0-22.245,7.375-24.959,19.295-26.789c3.363-0.53,4.071-0.825,5.9-1.77l0.767,3.068
		c-1.711,0.944-3.481,1.416-6.019,1.77c-10.385,1.652-15.695,2.833-16.64,18.057c3.068-3.895,7.199-5.96,11.329-5.96
		c7.789,0,12.627,5.782,12.627,14.574c0,9.972-6.019,16.227-13.041,16.227C38.822,262.353,33.57,255.568,33.57,243.176z
		 M47.732,259.58c5.546,0,9.854-5.429,9.854-13.453c0-6.845-3.481-11.919-9.972-11.919c-3.481,0-7.199,1.534-10.857,6.49
		c-0.059,0.886-0.059,1.771-0.059,2.833C36.698,253.443,40.297,259.58,47.732,259.58z"/>
	<path fill="#FFFFFF" d="M70.032,230.667h11.27c6.608,0,10.798,2.301,10.798,7.611c0,3.895-2.183,5.9-5.133,6.786v0.177
		c3.245,0.767,6.491,2.95,6.491,7.553c0,5.959-4.662,8.792-11.86,8.792H70.032V230.667z M80.181,244.002
		c6.313,0,8.733-2.124,8.733-5.369c0-3.481-2.479-5.488-8.202-5.488h-7.553v10.857H80.181z M81.066,259.048
		c6.078,0,9.146-2.242,9.146-6.431c0-3.776-3.363-5.96-9.677-5.96h-7.376v12.391H81.066z"/>
	<path fill="#FFFFFF" d="M102.069,230.667h18.232v2.655h-15.046v28.264h-3.186V230.667z"/>
	<path fill="#FFFFFF" d="M127.792,230.667h15.813l0.885-11.094h2.479l-0.531,13.749h-15.459v28.264h-3.186V230.667z"/>
	<path fill="#FFFFFF" d="M149.091,272.621h-2.655l-0.354-11.86v-1.889h1.298c1.888-0.944,3.363-3.127,4.72-13.748l1.711-14.456
		h17.23v28.204h4.249v1.889l-0.413,11.86h-2.655v-11.034h-23.13V272.621z M151.157,258.872h16.757v-25.549H156.29l-1.416,12.272
		C153.989,253.266,152.573,256.984,151.157,258.872z"/>
	<path fill="#FFFFFF" d="M192.634,275.453l0.708-2.479c0.59,0.236,1.652,0.59,2.596,0.59c5.075,0,8.851-5.841,8.851-22.422
		c0-11.86-2.891-16.227-8.851-16.227c-3.363,0-6.136,1.652-9.736,5.429v21.242h-3.186v-36.938h-4.957v-2.36l4.957-0.295v-6.609
		h3.186v6.609h12.155l-0.059,2.655h-12.096v6.254l-0.236,6.491c3.186-3.068,6.432-5.252,10.68-5.252
		c7.376,0,11.447,5.37,11.447,18.705c0,18.705-4.543,25.432-12.096,25.432C194.817,276.279,193.401,275.866,192.634,275.453z"/>
	<path fill="#FFFFFF" d="M217.413,230.667h18.232v2.655h-15.046v28.264h-3.186V230.667z M223.077,222.937l9.795-10.148l2.124,2.065
		l-10.149,9.677L223.077,222.937z"/>
	<path fill="#FFFFFF" d="M237.589,246.126c0-10.09,6.609-16.227,13.571-16.227c7.376,0,11.86,5.252,11.86,14.339
		c0,0.826-0.059,1.593-0.177,2.419h-22.068c0.236,8.084,5.133,12.981,11.447,12.981c3.363,0,6.077-0.944,8.261-2.479l1.239,2.184
		c-2.419,1.593-5.311,3.009-9.736,3.009C244.021,262.353,237.589,256.334,237.589,246.126z M240.835,244.002h19.236
		c0-7.553-3.481-11.447-8.91-11.447C246.5,232.555,241.602,236.155,240.835,244.002z"/>
	<path fill="#FFFFFF" d="M268.741,246.126c0-10.09,6.609-16.227,13.571-16.227c7.376,0,11.86,5.252,11.86,14.339
		c0,0.826-0.059,1.593-0.177,2.419h-22.068c0.236,8.084,5.133,12.981,11.447,12.981c3.364,0,6.078-0.944,8.261-2.479l1.239,2.184
		c-2.419,1.593-5.311,3.009-9.736,3.009C275.173,262.353,268.741,256.334,268.741,246.126z M271.987,244.002h19.236
		c0-7.553-3.481-11.447-8.91-11.447C277.651,232.555,272.754,236.155,271.987,244.002z M273.993,220.754
		c0-1.416,1.003-2.479,2.419-2.479s2.537,1.063,2.537,2.479s-1.121,2.419-2.537,2.419S273.993,222.17,273.993,220.754z
		 M285.499,220.754c0-1.416,1.121-2.479,2.537-2.479s2.419,1.063,2.419,2.479s-1.003,2.419-2.419,2.419
		S285.499,222.17,285.499,220.754z"/>
	<path fill="#FFFFFF" d="M299.893,246.126c0-10.916,6.55-16.227,14.162-16.227c4.249,0,6.962,1.829,9.087,3.776l-1.711,2.124
		c-2.006-1.888-4.249-3.245-7.258-3.245c-5.9,0-10.267,4.131-10.975,11.447h16.227v2.655H303.08
		c0.177,8.379,4.366,12.981,10.975,12.981c3.422,0,6.195-1.534,8.261-3.481l1.534,2.124c-2.655,2.419-5.959,4.071-9.913,4.071
		C305.853,262.353,299.893,257.042,299.893,246.126z"/>
	<path fill="#FFFFFF" d="M336.179,245.242l-2.833-7.317c-1.534-3.953-3.068-4.661-4.72-4.661c-0.413,0-0.531,0-0.944,0.177
		l-0.649-3.068c0.354-0.117,0.944-0.235,1.475-0.235c2.773,0,5.075,1.298,7.14,6.432l2.95,7.553h6.432v-13.453h2.833v13.453h6.432
		l2.891-7.553c2.065-5.134,4.426-6.432,7.14-6.432c0.59,0,1.18,0.118,1.534,0.235l-0.708,3.068
		c-0.354-0.177-0.472-0.177-0.944-0.177c-1.593,0-3.068,0.708-4.603,4.661l-2.892,7.317l9.559,16.345h-3.422l-8.261-14.811h-6.727
		v14.811h-2.833v-14.811h-6.667l-8.32,14.811h-3.481L336.179,245.242z"/>
	<path fill="#FFFFFF" d="M373.23,230.667h3.186v13.275h17.466v-13.275h3.127v30.919h-3.127v-14.811h-17.466v14.811h-3.186V230.667z"
		/>
	<path fill="#FFFFFF" d="M408.748,230.667h3.186v13.275h15.991v-13.275h3.127v12.214h4.957c7.317,0,11.801,3.009,11.801,9.264
		c0,6.313-4.484,9.441-11.801,9.441h-8.083v-14.811h-15.991v14.811h-3.186V230.667z M435.359,258.931
		c6.254,0,9.264-2.125,9.264-6.786s-3.01-6.668-9.264-6.668h-4.308v13.454H435.359z"/>
	<path fill="#FFFFFF" d="M454,246.126c0-10.267,6.491-16.227,13.925-16.227c7.494,0,13.984,5.96,13.984,16.227
		c0,10.268-6.49,16.227-13.984,16.227C460.491,262.353,454,256.394,454,246.126z M478.606,246.126
		c0-7.966-4.543-13.512-10.68-13.512c-6.195,0-10.68,5.546-10.68,13.512c0,8.084,4.484,13.453,10.68,13.453
		C474.063,259.58,478.606,254.21,478.606,246.126z"/>
	<path fill="#FFFFFF" d="M490.994,230.667h23.189v30.919h-3.186v-28.264H494.18v28.264h-3.186V230.667z"/>
	<path fill="#FFFFFF" d="M525.862,230.667h2.655l0.296,3.835h0.176c3.01-2.36,6.668-4.603,10.386-4.603
		c8.319,0,12.392,6.195,12.392,15.755c0,10.503-6.314,16.698-13.631,16.698c-2.891,0-6.019-1.357-9.146-3.776l0.06,5.665v11.211
		h-3.186V230.667z M548.52,245.713c0-7.553-2.714-13.099-9.677-13.099c-3.009,0-6.195,1.77-9.795,5.074v18.056
		c3.363,2.832,6.55,3.835,8.851,3.835C544.094,259.58,548.52,253.974,548.52,245.713z"/>
	<path fill="#FFFFFF" d="M558.371,246.126c0-10.267,6.668-16.227,14.161-16.227c4.189,0,6.963,1.711,9.088,3.776l-1.652,2.006
		c-1.889-1.829-4.249-3.067-7.258-3.067c-6.255,0-11.094,5.546-11.094,13.512c0,8.084,4.367,13.453,11.034,13.453
		c3.245,0,6.077-1.475,8.144-3.304l1.533,2.006c-2.654,2.537-5.959,4.071-9.912,4.071
		C564.389,262.353,558.371,256.394,558.371,246.126z"/>
	<path fill="#FFFFFF" d="M13.395,301.052H0v-2.832h30.093v2.832H16.64v39.534h-3.245V301.052z"/>
	<path fill="#FFFFFF" d="M45.962,301.052H33.807v-2.832h30.919v2.832H49.148v14.634c2.301-0.296,5.606-0.708,8.497-0.708
		c9.146,0,13.748,3.658,13.748,12.804v12.805h-3.186v-12.805c0-7.258-3.717-9.972-10.798-9.972c-2.832,0-6.136,0.413-8.261,0.708
		v22.068h-3.186V301.052z"/>
	<path fill="#FFFFFF" d="M82.127,298.22h3.245v18.527h8.615l6.078-11.27c3.541-6.727,5.311-7.789,8.615-7.789
		c0.649,0,1.298,0.118,1.771,0.295l-0.531,3.127c-0.531-0.117-1.003-0.235-1.416-0.235c-1.771,0-3.068,0.648-5.901,5.959
		l-5.959,11.152l14.87,22.6h-3.717l-13.867-21.124h-8.556v21.124h-3.245V298.22z M90.742,293.558l10.385-7.966l1.711,2.302
		l-10.68,7.258L90.742,293.558z"/>
	<path fill="#FFFFFF" d="M116.346,340.763l0.826-3.01c0.649,0.236,1.416,0.413,2.479,0.413c3.186,0,4.838-1.298,6.077-4.189
		l1.121-2.714l-14.456-33.043h3.363l9.5,22.186l3.009,7.436h0.236l2.833-7.436l8.674-22.186h3.363l-14.279,35.698
		c-1.888,4.603-4.426,7.435-9.205,7.435C118.353,341.353,117.467,341.176,116.346,340.763z"/>
	<path fill="#FFFFFF" d="M146.791,340.763l0.826-3.01c0.649,0.236,1.416,0.413,2.479,0.413c3.186,0,4.838-1.298,6.077-4.189
		l1.121-2.714l-14.456-33.043h3.363l9.5,22.186l3.009,7.436h0.236l2.833-7.436l8.674-22.186h3.363l-14.279,35.698
		c-1.888,4.603-4.426,7.435-9.205,7.435C148.797,341.353,147.912,341.176,146.791,340.763z M149.033,286.773h2.892
		c0.177,3.187,1.77,6.077,6.019,6.077c4.248,0,5.841-2.891,5.959-6.077h2.891c-0.295,3.835-2.242,8.143-8.851,8.143
		C151.334,294.916,149.387,290.608,149.033,286.773z"/>
	<path fill="#FFFFFF" d="M180.125,324.182V298.22h3.304v25.727c0,11.093,5.134,14.456,11.093,14.456
		c6.019,0,11.329-3.363,11.329-14.456V298.22h3.127v25.962c0,13.276-7.022,17.171-14.457,17.171
		C187.029,341.353,180.125,337.458,180.125,324.182z"/>
	<path fill="#FFFFFF" d="M236.531,335.04c-11.683-0.118-18.528-6.019-18.528-15.755c0-9.735,6.845-15.4,18.528-15.577v-6.255h2.891
		v6.255c11.801,0.177,18.528,5.842,18.528,15.577c0,9.736-6.727,15.637-18.528,15.755v6.313h-2.891V335.04z M236.531,332.443v-26.08
		c-9.972,0.118-15.224,4.956-15.224,12.922C221.307,327.31,226.677,332.443,236.531,332.443z M239.422,306.363v26.08
		c9.972-0.177,15.283-5.192,15.283-13.158C254.705,311.26,249.276,306.363,239.422,306.363z"/>
	<path fill="#FFFFFF" d="M273.169,318.636l-11.801-20.416h3.54l6.845,12.272c1.121,1.947,2.006,3.481,3.422,5.842h0.236
		c1.239-2.36,2.006-3.895,3.127-5.842l6.786-12.272h3.364l-11.801,20.651l12.686,21.715h-3.54l-7.258-12.805
		c-1.18-2.124-2.36-4.189-3.835-6.727h-0.295c-1.357,2.537-2.419,4.603-3.6,6.727l-7.199,12.805h-3.304L273.169,318.636z"/>
	<path fill="#FFFFFF" d="M325.799,340.586h-28.913V298.22h3.245v39.593h21.124V298.22h3.245v39.593h4.543v1.829l-0.472,13.04h-2.773
		V340.586z"/>
	<path fill="#FFFFFF" d="M358.19,321.822c-2.183,0.354-5.016,0.886-8.851,0.886c-9.618,0-14.575-3.363-14.575-12.923V298.22h3.246
		v11.564c0,7.73,4.248,10.091,11.565,10.091c3.717,0,6.608-0.413,8.615-0.826V298.22h3.304v42.366h-3.304V321.822z"/>
	<path fill="#FFFFFF" d="M386.687,340.586h-12.863V298.22h3.245v39.593h21.95V298.22h3.304v42.366h-12.45l-0.413,12.096h-2.773
		V340.586z"/>
	<path fill="#FFFFFF" d="M414.65,298.22h3.186v39.593h16.64V298.22h3.187v39.593h16.581V298.22h3.245v42.366H414.65V298.22z"/>
	<path fill="#FFFFFF" d="M469.874,298.22h3.186v39.593h16.64V298.22h3.187v39.593h16.581V298.22h3.245v39.593h3.895v1.829
		l-0.472,13.04h-2.714v-12.096h-43.546V298.22z"/>
	<path fill="#FFFFFF" d="M533.536,301.052h-14.22v-2.832h17.407v18.292h8.143c9.146,0,15.46,3.54,15.46,11.506
		c0,8.438-5.488,12.568-14.929,12.568h-11.86V301.052z M544.629,337.872c8.319,0,12.509-3.009,12.509-9.677
		c0-6.077-4.544-8.91-12.981-8.91h-7.435v18.587H544.629z"/>
	<path fill="#FFFFFF" d="M569.583,298.22h3.245v18.292h7.789c9.205,0,15.164,3.422,15.164,11.506
		c0,8.438-5.487,12.568-14.987,12.568h-11.211V298.22z M580.028,337.872c8.319,0,12.568-3.009,12.568-9.677
		c0-6.255-4.309-8.91-12.746-8.91h-7.021v18.587H580.028z M603.453,298.22h3.304v42.366h-3.304V298.22z"/>
	<path fill="#FFFFFF" d="M619.084,298.22h3.244v18.292h8.969c9.205,0,15.165,3.422,15.165,11.506
		c0,8.438-5.487,12.568-14.987,12.568h-12.391V298.22z M630.767,337.872c8.261,0,12.45-3.009,12.45-9.677
		c0-6.255-4.308-8.91-12.687-8.91h-8.202v18.587H630.767z"/>
	<path fill="#FFFFFF" d="M650.53,335.334l1.889-2.065c3.186,3.423,6.667,5.134,11.388,5.134c8.497,0,13.866-6.668,13.984-18.94
		h-19.354v-2.715h19.295c-0.59-10.385-5.547-16.345-13.984-16.345c-3.953,0-7.67,1.712-10.09,4.308l-1.889-2.183
		c2.361-2.597,6.963-5.075,12.097-5.075c10.562,0,17.171,7.848,17.171,21.892c0,14.043-6.904,22.009-17.111,22.009
		C658.083,341.353,653.952,339.111,650.53,335.334z"/>
	<path fill="#FFFFFF" d="M704.575,319.58h-10.621v21.007h-3.244V298.22h3.244v18.469h10.681
		c0.826-11.919,7.316-19.236,16.581-19.236c9.912,0,16.816,8.379,16.816,21.832c0,13.395-6.904,22.068-16.816,22.068
		C711.361,341.353,704.575,332.679,704.575,319.58z M734.609,319.285c0-11.624-5.251-18.882-13.394-18.882
		c-8.144,0-13.395,7.258-13.395,18.882c0,11.565,5.251,19.118,13.395,19.118C729.358,338.403,734.609,330.85,734.609,319.285z"/>
	<path fill="#FFFFFF" d="M768.354,321.292h-9.382l-11.919,19.295h-3.836l12.45-19.531c-6.077-1.063-10.385-4.721-10.385-11.506
		c0-8.261,5.605-11.329,14.044-11.329h12.272v42.366h-3.245V321.292z M768.354,318.577v-17.583h-8.261
		c-7.376,0-11.447,2.242-11.447,8.556c0,6.137,4.071,9.027,11.447,9.027H768.354z"/>
</g>
<g>
	<g>
		<path fill="#6FCACA" d="M0.092,6.149v-0.06h15.659v0.06L7.952,22.469h-0.06L0.092,6.149z"/>
		<path fill="#6FCACA" d="M35.071,21.389h-6.9v2.34h-1.41V2.25h8.31V21.389z M28.171,3.6v7.38h5.55V3.6H28.171z M33.721,20.039
			v-7.74h-5.55v7.74H33.721z M51.66,1.5c0,0,0,0.48-0.03,0.72c-0.39,6.69-0.72,9.06-1.5,9.899c-0.45,0.45-0.9,0.63-1.68,0.66
			c-0.63,0.06-1.95,0.03-3.3-0.06c-0.03-0.42-0.15-0.96-0.42-1.35c1.44,0.12,2.79,0.15,3.24,0.15c0.51,0,0.75-0.06,0.99-0.3
			c0.54-0.57,0.9-2.76,1.23-8.37H43.5c-0.72,4.5-2.37,8.55-7.049,10.709c-0.21-0.3-0.6-0.81-0.93-1.05
			c4.41-1.89,5.91-5.67,6.54-9.66h-5.669V1.5H51.66z M37.411,15.089H51.3v11.939h-1.41v-1.44h-11.1v1.56h-1.38V15.089z
			 M38.791,16.439v7.8h11.1v-7.8H38.791z"/>
		<path fill="#6FCACA" d="M60.781,12.659c-1.08-1.02-3.27-2.4-5.16-3.27l0.84-1.02c1.83,0.81,4.05,2.13,5.13,3.12L60.781,12.659z
			 M62.311,17.009c-1.32,3.15-3.15,7.02-4.65,9.719l-1.26-0.87c1.38-2.31,3.36-6.33,4.77-9.66L62.311,17.009z M62.131,4.919
			c-1.02-1.14-3.18-2.61-5.01-3.54l0.87-1.02c1.77,0.9,3.99,2.31,5.01,3.39L62.131,4.919z M75.27,16.529v8.939
			c0,0.84-0.18,1.26-0.87,1.47c-0.66,0.24-1.89,0.24-3.96,0.21c-0.09-0.33-0.3-0.87-0.45-1.26c1.62,0.06,2.97,0.03,3.36,0.03
			c0.42-0.03,0.54-0.15,0.54-0.45v-8.939h-5.76V6.479h5.01c0.33-1.11,0.66-2.61,0.84-3.72h-8.009v6.81
			c0,5.16-0.45,12.359-3.99,17.369c-0.24-0.21-0.84-0.6-1.17-0.72c3.42-4.92,3.75-11.7,3.75-16.649V1.41H82.62v1.35H75.09l0.48,0.12
			c-0.36,1.17-0.72,2.52-1.05,3.6h6.78v10.05H75.27z M70.86,18.839c-1.02,2.37-2.55,4.86-4.05,6.51c-0.27-0.21-0.87-0.63-1.23-0.81
			c1.59-1.59,3-3.84,3.93-6.06L70.86,18.839z M69.48,10.859H79.92v-3.15H69.48V10.859z M69.48,15.299H79.92v-3.21H69.48V15.299z
			 M79.2,18.299c1.56,1.83,3.24,4.35,3.899,6.03l-1.32,0.63c-0.63-1.65-2.25-4.23-3.81-6.12L79.2,18.299z"/>
		<path fill="#6FCACA" d="M112.53,19.889H86.041v-1.32h12.479v-3.42h-9.959v-1.26h9.959v-3.09h-9.39V1.23h20.099v9.569h-9.3v3.09
			h9.99v1.26h-9.99v3.42h12.6V19.889z M86.251,26.639c1.38-1.17,2.67-3.18,3.42-5.04l1.32,0.36c-0.78,1.86-2.01,4.02-3.48,5.34
			L86.251,26.639z M98.521,9.509V2.49h-8.01v7.02H98.521z M93.841,3.45c0.96,1.47,1.89,3.39,2.19,4.62l-1.14,0.48
			c-0.3-1.29-1.17-3.24-2.1-4.709L93.841,3.45z M96.09,22.109c0.39,1.5,0.69,3.54,0.69,4.68l-1.41,0.21c0-1.2-0.24-3.27-0.63-4.83
			L96.09,22.109z M107.79,2.49h-7.86v7.02h7.86V2.49z M102.33,21.959c0.72,1.47,1.47,3.48,1.8,4.68l-1.41,0.36
			c-0.3-1.23-1.02-3.27-1.74-4.8L102.33,21.959z M101.76,8.459c0.87-1.32,2.04-3.51,2.67-5.01l1.2,0.51
			c-0.9,1.68-2.01,3.69-2.91,4.98L101.76,8.459z M108.45,21.629c1.53,1.47,3.27,3.57,4.11,4.95l-1.32,0.6
			c-0.81-1.35-2.55-3.51-4.08-5.07L108.45,21.629z"/>
		<path fill="#6FCACA" d="M126.42,13.409V10.5h-8.819v2.91h-1.2V9.33h1.71V1.14h7.83v8.19h1.71v4.08H126.42z M125.94,25.559
			c0,0.78-0.18,1.17-0.72,1.38c-0.57,0.21-1.53,0.21-3.21,0.21c-0.06-0.3-0.3-0.81-0.48-1.17c1.29,0.03,2.37,0.03,2.64,0
			c0.33,0,0.45-0.09,0.45-0.42v-3.78h-5.25v5.4h-1.29v-14.25h7.859V25.559z M119.311,9.33h1.92v-4.62h3.45V2.34h-5.37V9.33z
			 M119.371,14.099v2.61h5.25v-2.61H119.371z M124.621,20.609v-2.7h-5.25v2.7H124.621z M124.681,5.819h-2.34v3.51h2.34V5.819z
			 M142.92,25.289v1.2h-15.54v-1.2h4.98c-0.15-0.99-0.6-2.31-1.14-3.33l1.14-0.36c0.6,1.05,1.08,2.49,1.23,3.45l-0.69,0.24h4.32
			l-0.6-0.24c0.48-0.99,1.08-2.49,1.38-3.48l1.26,0.45c-0.51,1.11-1.08,2.34-1.56,3.27H142.92z M142.77,14.249h-14.91v-1.2h14.91
			V14.249z M141.54,11.279h-12.6V2.91h3.69V0h1.2v2.91h2.64V0h1.2v2.91h3.87V11.279z M129.601,21.389v-5.4h11.279v5.4H129.601z
			 M130.14,6.479h2.61V4.05h-2.61V6.479z M130.14,10.139h2.61v-2.49h-2.61V10.139z M130.89,20.279h8.67v-3.18h-8.67V20.279z
			 M136.47,6.479V4.05h-2.64v2.43H136.47z M133.83,7.649v2.49h2.64v-2.49H133.83z M140.28,4.05h-2.729v2.43h2.729V4.05z
			 M140.28,7.649h-2.729v2.49h2.729V7.649z"/>
		<path fill="#6FCACA" d="M153.961,3.78h5.52c4.86,0,7.83,1.59,7.83,6.03c0,4.26-2.94,6.33-7.71,6.33h-3.99v9.18h-1.65V3.78z
			 M159.21,14.759c4.35,0,6.42-1.44,6.42-4.95c0-3.51-2.16-4.62-6.54-4.62h-3.48v9.57H159.21z"/>
		<path fill="#6FCACA" d="M171.991,3.78h6.24c4.29,0,7.11,1.56,7.11,5.76c0,3.39-2.1,5.37-5.46,5.85l5.94,9.93h-1.95l-5.729-9.81
			h-4.5v9.81h-1.65V3.78z M177.84,14.129c3.75,0,5.82-1.47,5.82-4.59c0-3.21-2.07-4.35-5.82-4.35h-4.2v8.94H177.84z"/>
		<path fill="#6FCACA" d="M188.491,14.489c0-6.84,3.72-11.1,8.91-11.1c5.22,0,8.91,4.26,8.91,11.1c0,6.81-3.69,11.219-8.91,11.219
			C192.21,25.708,188.491,21.299,188.491,14.489z M204.6,14.489c0-5.91-2.88-9.6-7.2-9.6c-4.29,0-7.17,3.69-7.17,9.6
			c0,5.88,2.88,9.72,7.17,9.72C201.72,24.209,204.6,20.369,204.6,14.489z"/>
	</g>
</g>
<g>
</g>
<g>
</g>
<g>
</g>
<g>
</g>
<g>
</g>
<g>
</g>
</svg>
