<?xml version="1.0" encoding="utf-8"?>
<!-- Generator: Adobe Illustrator 16.0.0, SVG Export Plug-In . SVG Version: 6.00 Build 0)  -->
<!DOCTYPE svg PUBLIC "-//W3C//DTD SVG 1.1//EN" "http://www.w3.org/Graphics/SVG/1.1/DTD/svg11.dtd" [
	<!ENTITY st0 "fill:#1B1B1E;">
]>
<svg version="1.1" id="Layer_1" xmlns="http://www.w3.org/2000/svg" xmlns:xlink="http://www.w3.org/1999/xlink" x="0px" y="0px"
	 width="572.568px" height="270.971px" viewBox="0 0 572.568 270.971" style="enable-background:new 0 0 572.568 270.971;"
	 xml:space="preserve">
<g>
	<path style="&st0;" d="M52.211,0h23.917c7.971,7.196,16.088,15.313,24.355,24.355c8.263,9.042,15.021,17.259,20.271,24.646h23.626
		c-2.142-5.25-5.104-11.13-8.896-17.646c-3.792-6.513-7.729-12.396-11.813-17.646l20.709-9.334
		c4.858,5.833,9.429,12.25,13.709,19.251c4.275,7,7.483,13.226,9.625,18.667l-14.001,6.709h27.71V0h25.667v49.002h27.71
		l-12.542-5.834c4.083-5.441,8.409-11.908,12.98-19.396c4.566-7.483,8.212-14.242,10.938-20.271l22.751,9.917
		c-8.167,13.226-16.143,25.085-23.918,35.585h29.168v52.211h-21.292v61.544h-44.919V185.8h56.294v23.043h-56.294v29.751h69.42
		v23.335H113.172v-19.543c-17.501,3.696-34.906,7.388-52.21,11.084c-17.31,3.691-32.96,6.9-46.961,9.625l-5.833-24.792l44.335-7.876
		v-84.004H11.084v-23.918h41.418V95.671H24.501V84.587l-7.583,7.292c-1.946-2.721-4.571-5.93-7.875-9.625
		C5.733,78.562,2.721,75.837,0,74.087c12.638-10.889,23.284-23.043,31.939-36.461C40.589,24.209,47.348,11.667,52.211,0z
		 M15.167,164.216l17.5-4.375c2.721,8.362,5.15,17.5,7.292,27.418c2.137,9.917,3.5,18.571,4.083,25.959l-18.376,4.959
		c-0.392-7.388-1.559-16.088-3.5-26.105C20.222,182.059,17.888,172.774,15.167,164.216z M128.048,185.8h53.669v-23.043h-42.293
		v-61.544h-21.876V57.461l-14.292,14.584c-3.696-6.222-8.851-13.709-15.459-22.46c-6.613-8.75-13.322-16.625-20.126-23.626
		c-4.083,7.196-8.75,14.73-14.001,22.605c-5.25,7.875-11.28,15.801-18.084,23.771h69.711v23.335H76.128v26.834h36.46v23.918h-36.46
		v79.629l40.835-7.875l1.458,20.417h63.294v-29.751h-53.669V185.8z M92.754,157.215l19.542,4.667
		c-2.142,8.56-4.33,17.456-6.563,26.689c-2.237,9.237-4.425,17.063-6.563,23.479l-17.209-4.375
		c1.358-4.667,2.721-9.963,4.084-15.896c1.358-5.93,2.67-11.959,3.938-18.084C91.246,167.57,92.171,162.078,92.754,157.215z
		 M142.923,93.046h104.713V71.17H142.923V93.046z M163.341,113.172v29.168h64.17v-29.168H163.341z"/>
	<path style="&st0;" d="M392.018,71.17h-55.418V59.211c-4.28,5.059-8.705,9.871-13.271,14.438
		c-4.571,4.571-9.288,8.801-14.146,12.688c-1.946-2.917-4.717-6.025-8.313-9.334c-3.601-3.304-6.563-5.638-8.896-7
		c13.222-10.305,24.305-21.775,33.252-34.418C334.165,22.946,341.07,11.084,345.933,0h26.835
		c5.055,4.476,10.596,9.771,16.625,15.896c6.025,6.125,11.813,12.301,17.355,18.521c5.542,6.226,9.867,11.959,12.98,17.209
		l-16.918,18.376c-2.917-4.667-6.518-9.816-10.793-15.459V71.17z M436.354,175.591l23.626,4.959
		c-3.309,12.446-7.729,24.646-13.271,36.605s-11.521,22.022-17.938,30.189l-12.834-8.459l4.959,11.376l-21.584,11.083
		c-1.363-3.695-2.821-7.487-4.375-11.375c-1.559-3.888-3.309-7.876-5.251-11.959c-14.976,5.834-27.126,10.596-36.46,14.292
		c-9.333,3.691-16.58,6.659-21.73,8.896c-5.155,2.233-8.997,4.084-11.521,5.542c-2.529,1.458-4.571,2.771-6.125,3.938
		c-0.583-3.309-1.8-7.488-3.646-12.542c-1.85-5.059-3.842-9.143-5.979-12.251c2.524-0.971,5.054-2.816,7.583-5.542
		c2.525-2.721,3.792-6.804,3.792-12.25V88.379h90.128v101.213h-66.794v44.919l42.294-16.043c-1.559-2.916-3.113-5.688-4.668-8.313
		c-1.559-2.625-3.112-5.104-4.666-7.438l20.709-9.334c3.5,5.642,6.9,11.621,10.209,17.938c3.305,6.321,6.316,12.496,9.042,18.521
		c5.638-7.191,10.546-15.847,14.729-25.96C430.762,193.775,434.02,184.342,436.354,175.591z M338.933,127.756h44.627v-18.959
		h-44.627V127.756z M338.933,169.466h44.627v-22.168h-44.627V169.466z M342.433,52.21h47.835c-4.279-5.441-8.8-10.888-13.563-16.334
		c-4.768-5.441-9.384-10.304-13.855-14.584c-2.529,4.667-5.541,9.676-9.041,15.021C350.309,41.664,346.516,46.96,342.433,52.21z
		 M503.148,162.174v80.796c0,6.221-0.729,11.129-2.188,14.729c-1.459,3.596-4.229,6.463-8.313,8.604
		c-3.893,1.941-8.852,3.208-14.877,3.792c-6.029,0.583-13.416,0.875-22.167,0.875c-0.392-3.5-1.458-7.584-3.208-12.251
		s-3.404-8.654-4.959-11.959c5.638,0.191,10.888,0.338,15.75,0.438c4.859,0.096,8.067,0.046,9.626-0.146
		c3.108,0,4.667-1.458,4.667-4.375v-80.504h-58.628V138.84h58.628v-28.002h-37.043V92.462c-6.029,6.03-12.06,11.185-18.084,15.459
		c-1.559-3.691-3.697-7.774-6.418-12.25c-2.725-4.471-5.35-8.263-7.875-11.376c9.334-6.608,18.376-14.629,27.127-24.063
		c8.75-9.43,16.625-19.442,23.625-30.043C465.813,19.593,471.355,9.529,475.438,0h25.668c5.833,10.309,12.638,20.663,20.418,31.063
		c7.774,10.405,16.042,20.03,24.792,28.877c8.751,8.851,17.502,16.092,26.252,21.729c-2.529,3.5-5.154,7.584-7.875,12.251
		c-2.727,4.667-5.155,9.042-7.293,13.125c-5.445-4.274-10.988-9.042-16.625-14.292v18.084h-37.627v28.002h60.378v23.334H503.148z
		 M445.688,87.504h89.838c-9.334-9.138-17.989-19.005-25.96-29.605c-7.976-10.597-14.78-20.855-20.418-30.772
		c-4.862,9.726-11.083,19.885-18.667,30.48C462.896,68.207,454.629,78.17,445.688,87.504z M518.607,180.842l21.876-7.876
		c4.083,6.81,8.067,14.197,11.959,22.168c3.888,7.976,7.337,15.705,10.354,23.188c3.013,7.488,5.2,14.146,6.563,19.98l-23.918,9.042
		c-1.166-5.638-3.162-12.297-5.979-19.98c-2.821-7.68-6.029-15.604-9.626-23.771C526.236,195.426,522.495,187.842,518.607,180.842z"
		/>
</g>
</svg>
