<?xml version="1.0" encoding="utf-8"?>
<!-- Generator: Adobe Illustrator 16.0.0, SVG Export Plug-In . SVG Version: 6.00 Build 0)  -->
<!DOCTYPE svg PUBLIC "-//W3C//DTD SVG 1.1//EN" "http://www.w3.org/Graphics/SVG/1.1/DTD/svg11.dtd">
<svg version="1.1" id="Layer_1" xmlns="http://www.w3.org/2000/svg" xmlns:xlink="http://www.w3.org/1999/xlink" x="0px" y="0px"
	 width="566.734px" height="330.173px" viewBox="0 0 566.734 330.173" style="enable-background:new 0 0 566.734 330.173;"
	 xml:space="preserve">
<style type="text/css">
<![CDATA[
	.st0{fill:#1B1B1E;}
	.st1{opacity:0.9;}
]]>
</style>
<g>
	<path class="st0" d="M72.045,72.035c-1.363,7.001-3.113,15.268-5.25,24.793c-2.143,9.53-4.477,19.643-7.001,30.335h21.293
		l14.292-15.167l26.543,23.334c-1.945,2.333-5.738,3.892-11.375,4.667c-2.143,19.251-5.205,38.114-9.188,56.586
		c-3.987,18.476-10.163,36.072-18.521,52.794c8.942,6.809,14.68,13.176,17.209,19.105c2.524,5.934,2.962,10.842,1.313,14.729
		c-1.654,3.892-4.571,6.321-8.751,7.292c-4.184,0.976-8.508,0.101-12.979-2.625c-2.727-4.858-6.322-9.917-10.793-15.168
		c-7.584,10.893-16.771,21.102-27.563,30.627s-23.581,18.084-38.356,25.668L0,325.214c12.441-9.143,23.188-19.396,32.23-30.772
		c9.042-11.375,16.671-23.576,22.896-36.605c-7.196-7.001-14.875-13.659-23.043-19.98c-8.166-6.316-15.851-11.813-23.043-16.479
		c3.305-10.108,7.001-22.897,11.084-38.356c4.084-15.459,7.876-31.255,11.376-47.397H2.625L0,127.163h33.543
		c2.916-13.608,5.542-26.543,7.875-38.794c2.334-12.25,3.983-22.358,4.959-30.334l37.335,7c-0.583,1.75-1.604,3.309-3.063,4.667
		C79.191,71.064,76.319,71.844,72.045,72.035z M33.543,223.709c5.834,2.143,11.275,4.375,16.334,6.709c5.055,2.333,9.721,4.667,14,7
		c5.639-15.751,10.014-32.181,13.126-49.294c3.108-17.108,5.347-34.609,6.709-52.502h-25.96c-3.5,14.976-7.393,30.188-11.667,45.647
		C41.806,196.729,37.627,210.875,33.543,223.709z M194.259,165.956c1.75-6.804,3.646-14.629,5.688-23.479
		c2.042-8.847,3.983-17.743,5.833-26.689c1.847-8.941,3.255-16.816,4.23-23.626h-45.795c-0.391,19.447-0.975,38.261-1.75,56.44
		c-0.779,18.185-2.529,35.686-5.25,52.502c-2.725,16.822-7,32.864-12.834,48.128c-5.833,15.268-13.904,29.655-24.209,43.168
		c-10.309,13.514-23.53,26.105-39.668,37.773l-4.084-4.667c15.168-15.947,26.93-32.86,35.293-50.753
		c8.359-17.888,14.293-36.651,17.793-56.294c3.5-19.639,5.588-40.006,6.271-61.107c0.678-21.097,1.02-42.826,1.02-65.19h-35.584
		l-2.625-8.458h109.088l12.543-14.001l28.875,23.043c-1.166,1.362-3.016,2.434-5.541,3.208c-2.529,0.779-5.446,1.363-8.75,1.75
		c-1.168,6.226-2.625,13.518-4.376,21.876c-1.75,8.363-3.646,16.918-5.688,25.668c-2.042,8.751-3.938,16.727-5.688,23.918h16.043
		l14.293-14.876l26.25,22.168c-1.166,1.167-2.675,2.188-4.521,3.063c-1.851,0.875-4.425,1.509-7.729,1.896
		c-1.363,39.865-3.792,70.929-7.292,93.192c-3.5,22.268-8.751,36.797-15.751,43.606c-8.559,7.971-20.322,11.959-35.293,11.959
		c0-4.084-0.438-7.685-1.313-10.793c-0.875-3.112-2.384-5.642-4.521-7.583c-2.333-2.143-6.08-4.038-11.229-5.688
		c-5.154-1.649-10.747-3.063-16.771-4.229l0.292-4.376c4.275,0.393,9.042,0.779,14.292,1.167c5.251,0.392,10.209,0.729,14.876,1.021
		c4.666,0.292,8.066,0.438,10.209,0.438c4.666,0,8.262-1.166,10.792-3.5c4.274-3.888,7.774-16.188,10.501-36.897
		c2.721-20.709,4.666-48.077,5.833-82.107h-18.667l-10.793,11.959l-25.668-17.793C186.188,169.652,189.979,167.707,194.259,165.956z
		"/>
	<path class="st0" d="M436.354,132.413c-8.751,13.81-20.564,27.272-35.439,40.397c-14.876,13.126-31.697,24.989-50.461,35.585
		c-18.768,10.602-38.456,19.105-59.064,25.522l-1.75-3.792c13.416-6.417,26.543-14.242,39.376-23.48
		c12.834-9.233,24.793-19.251,35.877-30.043s20.513-21.729,28.293-32.813c7.774-11.084,13.222-21.681,16.334-31.793l44.919,10.792
		c-0.584,3.309-4.959,5.351-13.126,6.125c8.555,11.28,19.639,21.247,33.252,29.897c13.608,8.654,28.438,15.996,44.481,22.021
		c16.042,6.029,31.938,10.893,47.689,14.584l-0.292,4.375c-6.226,1.75-11.33,5.155-15.313,10.209
		c-3.987,5.059-6.467,10.405-7.438,16.043c-24.31-9.525-45.939-22.168-64.898-37.919S445.688,153.807,436.354,132.413z
		 M293.139,95.078h72.628V59.201l37.335,3.209c-0.195,1.946-0.975,3.601-2.334,4.958c-1.362,1.363-3.892,2.334-7.583,2.917v24.793
		h67.962V59.201l37.918,3.209c-0.196,1.946-1.021,3.601-2.479,4.958c-1.458,1.363-4.038,2.334-7.729,2.917v24.793h29.168
		l16.334-21.293c6.608,5.446,12.201,10.113,16.771,14.001c4.566,3.893,8.605,7.584,12.105,11.084
		c-0.584,2.917-3.209,4.375-7.876,4.375h-66.503v23.918c0,1.362-2.238,2.821-6.709,4.375c-4.475,1.559-10.018,2.334-16.625,2.334
		h-4.375v-30.627h-67.962v25.376c0,1.363-2.333,2.821-7.001,4.376c-4.666,1.559-10.017,2.333-16.042,2.333h-4.375v-32.085H295.18
		L293.139,95.078z M339.224,220.501h74.67v-42.002l37.044,3.5c-0.393,1.75-1.217,3.309-2.479,4.667
		c-1.267,1.362-3.646,2.333-7.146,2.917v30.918h28.001l15.168-19.251c6.417,4.862,11.763,9.092,16.043,12.688
		c4.274,3.601,8.166,6.955,11.666,10.063c-0.779,3.112-3.309,4.667-7.583,4.667h-58.044c7.387,10.113,16.963,19.251,28.73,27.418
		c11.762,8.167,24.547,15.071,38.355,20.709c13.805,5.643,27.609,9.821,41.418,12.542l-0.583,3.209
		c-11.667,2.726-19.351,11.476-23.042,26.251c-20.418-8.167-38.261-19.543-53.523-34.127
		c-15.268-14.584-27.469-32.472-36.606-53.669v91.296c0,1.167-2.434,2.671-7.292,4.521c-4.863,1.846-9.821,2.771-14.875,2.771
		h-5.251v-80.795c-12.642,14.393-28.102,27.176-46.377,38.355c-18.28,11.185-38.311,20.659-60.086,28.438l-2.626-4.083
		c18.473-10.108,35.098-22.505,49.878-37.189c14.775-14.68,26.639-29.897,35.585-45.647h-48.711L339.224,220.501z"/>
</g>
<g class="st1">
	<path d="M236.482,2.209V20.73h-6.316v2.209h-2.01V2.209H236.482z M234.527,4.135h-4.361v6.23h4.361V4.135z M230.166,12.291v6.514
		h4.361v-6.514H230.166z M252.199,1.473c0,0,0,0.595-0.027,0.906c-0.313,6.259-0.652,8.609-1.359,9.459
		c-0.482,0.51-0.992,0.708-1.756,0.793c-0.68,0.057-1.955,0.057-3.201,0c-0.057-0.595-0.283-1.416-0.623-1.982
		c1.246,0.142,2.436,0.142,2.889,0.142s0.68-0.057,0.936-0.312c0.453-0.51,0.764-2.379,0.99-7.052h-5.607
		c-0.594,4.248-2.066,7.901-6.57,9.94c-0.254-0.481-0.82-1.218-1.273-1.586c3.992-1.699,5.238-4.843,5.748-8.354h-4.701V1.473
		H252.199z M251.832,14.472v11.526h-2.125v-1.246h-9.146v1.359h-2.039v-11.64H251.832z M249.707,22.798v-6.4h-9.146v6.4H249.707z"/>
	<path d="M256.615,8.015c1.557,0.821,3.709,2.039,4.814,2.832l-1.246,1.699c-1.076-0.793-3.201-2.152-4.787-3.03L256.615,8.015z
		 M260.297,15.378l1.699,1.189c-1.162,3.002-2.748,6.514-4.107,9.176l-1.896-1.189C257.238,22.345,259.021,18.606,260.297,15.378z
		 M258.031,0.396c1.529,0.906,3.652,2.209,4.758,3.03l-1.275,1.699c-1.047-0.878-3.172-2.266-4.729-3.257L258.031,0.396z
		 M281.254,1.473v1.926h-15.293v5.834c0,4.956-0.453,12.036-3.824,16.794c-0.367-0.368-1.273-0.906-1.756-1.133
		c3.201-4.56,3.512-10.988,3.512-15.661v-7.76H281.254z M270.52,18.606c-0.934,2.067-2.35,4.361-3.596,5.834
		c-0.396-0.312-1.219-0.821-1.699-1.104c1.303-1.388,2.549-3.37,3.398-5.268L270.52,18.606z M275.08,4.276
		c-0.369,0.821-0.736,1.671-1.105,2.407h6.203v9.799h-5.438v7.448c0,1.048-0.199,1.586-0.963,1.897
		c-0.766,0.312-2.012,0.312-3.881,0.283c-0.084-0.51-0.34-1.274-0.594-1.813c1.33,0.028,2.576,0.028,2.945,0.028
		c0.34-0.028,0.453-0.142,0.453-0.453v-7.392h-5.098V6.684h4.305c0.311-0.906,0.65-2.067,0.82-2.889L275.08,4.276z M269.529,10.762
		h8.666V8.326h-8.666V10.762z M269.529,14.84h8.666v-2.492h-8.666V14.84z M278.479,17.842c1.133,1.728,2.549,4.078,3.229,5.438
		l-1.955,0.878c-0.623-1.416-1.982-3.795-3.115-5.607L278.479,17.842z"/>
	<path d="M297.874,6.797v4.588h10.932v2.067h-9.317c2.492,3.823,6.655,7.533,10.535,9.374c-0.51,0.453-1.246,1.274-1.614,1.869
		c-3.823-2.124-7.901-6.061-10.535-10.252V26.14h-2.181V14.273c-2.577,4.418-6.599,8.411-10.535,10.62
		c-0.368-0.51-1.048-1.331-1.558-1.756c3.852-1.897,7.873-5.721,10.309-9.686h-9.147v-2.067h10.932V6.797H297.874z M296.968,0
		c0.595,1.02,1.274,2.322,1.671,3.342h10.082v5.976h-2.237V5.353h-19.399v3.965h-2.152V3.342h11.215
		c-0.34-0.878-0.821-1.926-1.274-2.747L296.968,0z"/>
	<path d="M314.325,8.949V1.076h7.986v7.873h1.671v4.106h-1.699v-2.549h-7.958v1.897h7.93v11.725c0,0.906-0.142,1.416-0.765,1.699
		s-1.529,0.312-3.059,0.312c-0.057-0.481-0.312-1.189-0.566-1.671c1.02,0.028,1.897,0.028,2.152,0.028
		c0.312-0.028,0.396-0.113,0.396-0.396v-2.974h-4.248v5.013h-1.841V13.056h-1.643V8.949H314.325z M320.612,4.531V2.69h-4.673v6.259
		h1.501V4.531H320.612z M320.414,15.944v-2.011h-4.248v2.011H320.414z M316.166,19.569h4.248v-2.067h-4.248V19.569z M320.612,5.891
		h-1.841v3.059h1.841V5.891z M335.197,21.099l-1.473,2.917h4.475v1.586h-14.642v-1.586h4.361c-0.198-0.878-0.623-2.011-1.104-2.86
		l1.529-0.51c0.623,0.963,1.104,2.322,1.274,3.229l-0.396,0.142h3.115l-0.255-0.085c0.481-0.935,1.048-2.379,1.331-3.342
		L335.197,21.099z M338.001,12.376v1.558h-13.934v-1.558H338.001z M328.315,2.69V0.085h1.586V2.69h2.039V0.085h1.586V2.69h3.54v8.27
		h-12.121V2.69H328.315z M336.528,15.293v5.296h-11.045v-5.296H336.528z M326.588,6.089h1.982V4.163h-1.982V6.089z M326.588,9.487
		h1.982V7.533h-1.982V9.487z M327.268,19.173h7.42v-2.464h-7.42V19.173z M329.901,6.089h2.039V4.163h-2.039V6.089z M329.901,9.487
		h2.039V7.533h-2.039V9.487z M333.271,6.089h2.067V4.163h-2.067V6.089z M333.271,9.487h2.067V7.533h-2.067V9.487z"/>
</g>
<g>
</g>
<g>
</g>
<g>
</g>
<g>
</g>
<g>
</g>
<g>
</g>
</svg>
