<?xml version="1.0" encoding="utf-8"?>
<!-- Generator: Adobe Illustrator 16.0.0, SVG Export Plug-In . SVG Version: 6.00 Build 0)  -->
<!DOCTYPE svg PUBLIC "-//W3C//DTD SVG 1.1//EN" "http://www.w3.org/Graphics/SVG/1.1/DTD/svg11.dtd">
<svg version="1.1" id="Layer_1" xmlns="http://www.w3.org/2000/svg" xmlns:xlink="http://www.w3.org/1999/xlink" x="0px" y="0px"
	 width="566.449px" height="331.127px" viewBox="0 0 566.449 331.127" style="enable-background:new 0 0 566.449 331.127;"
	 xml:space="preserve">
<style type="text/css">
<![CDATA[
	.st0{fill:#1B1B1E;}
	.st1{opacity:0.9;}
]]>
</style>
<g>
	<path class="st0" d="M31.794,136.572c5.542-30.044,10.209-59.213,11.667-76.714l37.044,6.417
		c-0.875,3.209-2.625,6.126-10.792,6.709c-2.917,16.043-7,38.211-11.959,62.129l25.96-1.75c0.583-10.792,0.583-21.584,0.583-32.377
		l39.669,6.709c-1.167,4.959-4.958,7.292-11.375,7.584l-0.875,15.751l22.168-2.042l0.583,4.375l-23.627,6.709
		c-3.5,38.503-10.792,75.547-26.543,107.925c43.753,26.543,22.751,52.503,3.792,41.419c-4.083-5.834-9.917-12.251-16.626-18.668
		c-15.751,23.627-37.336,43.752-67.38,59.504l-3.208-2.916c25.376-19.252,43.169-42.879,55.712-69.422
		c-14.584-11.959-30.919-23.043-44.92-30.627c4.958-16.335,10.5-41.712,15.751-67.963l-11.667,2.041
		c-1.75,3.792-4.958,6.126-7.875,6.418L0,137.447C7.875,137.447,18.959,137.155,31.794,136.572z M53.67,154.073
		c-5.542,25.669-11.959,52.212-18.085,73.505c11.084,3.501,21.002,7.001,29.46,10.501c10.209-28.294,15.459-59.212,17.793-90.715
		L53.67,154.073z M204.181,94.277h-32.085c-1.458,100.049-2.917,180.846-87.506,236.85l-3.792-4.666
		c63.879-61.255,62.712-140.302,63.004-232.184h-26.543l-2.625-8.459h86.923l13.709-13.709L242.1,97.194
		c-2.042,2.334-6.709,3.5-12.251,3.792c-2.917,18.376-7.584,47.545-11.084,67.963h15.751l14.584-14.876l26.543,22.46
		c-2.333,2.334-5.833,4.084-12.251,4.667c-2.625,77.881-8.75,120.175-22.751,133.593c-8.75,7.875-20.418,11.668-35.586,11.668
		c0-7.877-1.167-14.586-5.833-18.668c-4.667-4.084-16.334-7.876-28.002-9.918v-4.667c12.542,1.167,32.96,2.917,39.669,2.917
		c5.25,0,7.584-0.875,10.5-3.209c8.751-7.875,13.709-49.586,16.043-115.508H219.64l-11.084,12.543l-26.543-17.502
		c2.625-2.041,6.708-4.375,10.792-6.125C197.18,146.489,202.139,114.404,204.181,94.277z"/>
	<path class="st0" d="M296.93,222.328l-1.458-4.084c51.045-22.751,103.257-68.838,116.091-103.257l46.086,11.376
		c-0.875,3.5-4.375,5.25-13.709,6.125c26.251,26.544,79.047,44.629,122.508,51.337v4.376c-12.542,4.083-21.001,16.918-22.751,28.293
		c-45.211-15.167-85.464-44.628-104.424-80.797C413.605,170.408,354.685,205.994,296.93,222.328z M524.155,221.161
		c-0.875,3.209-3.5,4.667-7.584,4.667h-72.338v12.251c118.133,18.085,112.008,83.13,77.297,70.296
		c-15.459-21.876-49.878-48.128-77.297-64.17v78.172c0,2.332-12.542,7.875-23.335,7.875h-5.542v-76.713
		c-28.585,27.418-68.838,48.711-115.508,62.711l-2.333-4.375c44.336-20.417,81.089-52.794,102.674-86.047h-64.754l-2.333-8.459
		h82.256v-43.461l38.502,3.5c-0.875,3.792-2.917,6.417-9.625,7.292v32.669h37.919l14.584-17.209
		C496.736,200.16,513.654,211.827,524.155,221.161z M433.731,98.653c-0.583,3.208-3.5,4.667-7.583,4.667h-44.336v29.752
		c0,2.333-12.542,7.292-22.46,7.292h-5.542V103.32h-53.67l-2.333-8.459h56.004V58.983l36.169,3.5
		c-0.583,3.209-2.333,5.542-8.167,6.126v26.252h9.917l14.876-20.418C406.605,74.443,423.814,88.443,433.731,98.653z M566.158,98.653
		c-0.875,3.208-3.792,4.667-7.876,4.667h-56.004v27.71c0,2.333-12.834,7.292-23.335,7.292h-5.25V103.32h-32.377l-2.333-8.459h34.711
		V59.275l36.752,3.208c-0.583,3.209-2.333,5.542-8.167,6.417v25.961h21.877l14.876-20.418
		C539.031,74.443,556.24,88.443,566.158,98.653z"/>
</g>
<g>
	<path class="st0" d="M84.075,66.948c0-9.467,7.379-16.846,16.702-16.846c9.323,0,16.702,7.379,16.702,16.846
		c0,9.503-7.415,16.847-16.702,16.847C91.454,83.794,84.075,76.415,84.075,66.948z M116.327,66.948
		c0-8.891-6.947-15.766-15.55-15.766c-8.639,0-15.55,6.911-15.55,15.766c0,8.855,6.911,15.767,15.55,15.767
		C109.379,82.714,116.327,75.839,116.327,66.948z M94.693,75.911v-0.827l4.283-0.252l0.036-5.004V58.994l-3.6,0.539v-0.899
		l6.624-1.584l0.36,0.288l-0.108,4.247v8.243l0.036,5.004l4.14,0.252v0.827h-7.523H94.693z"/>
</g>
<g class="st1">
	<path d="M202.345,17.559c-0.651,2.322-1.699,5.268-3.115,7.137l-1.869-1.02c1.388-1.756,2.492-4.56,3.087-6.797L202.345,17.559z
		 M219.96,1.331v12.801H200.08V1.331H219.96z M202.09,6.825H209V3.229h-6.91V6.825z M202.09,12.234H209V8.609h-6.91V12.234z
		 M206.253,17.049v5.607c0,0.793,0.283,0.935,1.897,0.935c0.708,0,4.418,0,5.409,0c1.388,0,1.614-0.453,1.784-3.682
		c0.481,0.368,1.359,0.708,1.954,0.821c-0.283,3.88-0.963,4.814-3.568,4.814c-0.68,0-5.126,0-5.749,0
		c-3.059,0-3.852-0.623-3.852-2.889v-5.607H206.253z M208.151,14.642c2.124,1.076,4.701,2.775,6.004,4.021l-1.501,1.473
		c-1.218-1.246-3.767-3.03-5.919-4.191L208.151,14.642z M211.096,6.825h6.769V3.229h-6.769V6.825z M211.096,12.234h6.769V8.609
		h-6.769V12.234z M218.856,16.567c1.671,2.152,3.398,5.041,4.05,6.995l-2.067,0.878c-0.595-1.897-2.237-4.871-3.852-7.08
		L218.856,16.567z"/>
	<path d="M226.584,8.015c1.558,0.821,3.71,2.039,4.814,2.832l-1.246,1.699c-1.076-0.793-3.2-2.152-4.786-3.03L226.584,8.015z
		 M230.266,15.378l1.699,1.189c-1.161,3.002-2.747,6.514-4.106,9.176l-1.897-1.189C227.208,22.345,228.992,18.606,230.266,15.378z
		 M228,0.396c1.529,0.906,3.653,2.209,4.758,3.03l-1.274,1.699c-1.048-0.878-3.172-2.266-4.729-3.257L228,0.396z M251.223,1.473
		v1.926H235.93v5.834c0,4.956-0.453,12.036-3.823,16.794c-0.368-0.368-1.274-0.906-1.756-1.133c3.2-4.56,3.512-10.988,3.512-15.661
		v-7.76H251.223z M240.49,18.606c-0.935,2.067-2.351,4.361-3.597,5.834c-0.396-0.312-1.218-0.821-1.699-1.104
		c1.303-1.388,2.549-3.37,3.398-5.268L240.49,18.606z M245.049,4.276c-0.368,0.821-0.736,1.671-1.104,2.407h6.202v9.799h-5.438
		v7.448c0,1.048-0.198,1.586-0.963,1.897s-2.011,0.312-3.88,0.283c-0.085-0.51-0.34-1.274-0.595-1.813
		c1.331,0.028,2.577,0.028,2.945,0.028c0.34-0.028,0.453-0.142,0.453-0.453v-7.392h-5.098V6.684h4.305
		c0.312-0.906,0.651-2.067,0.821-2.889L245.049,4.276z M239.499,10.762h8.666V8.326h-8.666V10.762z M239.499,14.84h8.666v-2.492
		h-8.666V14.84z M248.448,17.842c1.133,1.728,2.549,4.078,3.229,5.438l-1.954,0.878c-0.623-1.416-1.982-3.795-3.115-5.607
		L248.448,17.842z"/>
	<path d="M267.844,6.797v4.588h10.932v2.067h-9.317c2.492,3.823,6.655,7.533,10.535,9.374c-0.51,0.453-1.246,1.274-1.614,1.869
		c-3.823-2.124-7.901-6.061-10.535-10.252V26.14h-2.181V14.273c-2.577,4.418-6.599,8.411-10.535,10.62
		c-0.368-0.51-1.048-1.331-1.558-1.756c3.852-1.897,7.873-5.721,10.309-9.686h-9.147v-2.067h10.932V6.797H267.844z M266.938,0
		c0.595,1.02,1.274,2.322,1.671,3.342h10.082v5.976h-2.237V5.353h-19.399v3.965h-2.152V3.342h11.215
		c-0.34-0.878-0.821-1.926-1.274-2.747L266.938,0z"/>
	<path d="M284.295,8.949V1.076h7.986v7.873h1.671v4.106h-1.699v-2.549h-7.958v1.897h7.93v11.725c0,0.906-0.142,1.416-0.765,1.699
		s-1.529,0.312-3.059,0.312c-0.057-0.481-0.312-1.189-0.566-1.671c1.02,0.028,1.897,0.028,2.152,0.028
		c0.312-0.028,0.396-0.113,0.396-0.396v-2.974h-4.248v5.013h-1.841V13.056h-1.643V8.949H284.295z M290.582,4.531V2.69h-4.673v6.259
		h1.501V4.531H290.582z M290.384,15.944v-2.011h-4.248v2.011H290.384z M286.136,19.569h4.248v-2.067h-4.248V19.569z M290.582,5.891
		h-1.841v3.059h1.841V5.891z M305.167,21.099l-1.473,2.917h4.475v1.586h-14.642v-1.586h4.361c-0.198-0.878-0.623-2.011-1.104-2.86
		l1.529-0.51c0.623,0.963,1.104,2.322,1.274,3.229l-0.396,0.142h3.115l-0.255-0.085c0.481-0.935,1.048-2.379,1.331-3.342
		L305.167,21.099z M307.971,12.376v1.558h-13.934v-1.558H307.971z M298.285,2.69V0.085h1.586V2.69h2.039V0.085h1.586V2.69h3.54v8.27
		h-12.121V2.69H298.285z M306.498,15.293v5.296h-11.045v-5.296H306.498z M296.558,6.089h1.982V4.163h-1.982V6.089z M296.558,9.487
		h1.982V7.533h-1.982V9.487z M297.237,19.173h7.42v-2.464h-7.42V19.173z M299.871,6.089h2.039V4.163h-2.039V6.089z M299.871,9.487
		h2.039V7.533h-2.039V9.487z M303.241,6.089h2.067V4.163h-2.067V6.089z M303.241,9.487h2.067V7.533h-2.067V9.487z"/>
	<path d="M339.544,2.011c-2.407,0.595-5.466,1.048-8.723,1.416v3.172h11.555v1.926h-8.949c3.483,1.897,7.25,4.248,9.289,6.004
		l-1.331,1.784c-2.266-2.067-6.712-4.928-10.563-7.023v5.522h7.873v11.243h-2.209V25.12h-13.254v0.991h-2.096V14.868
		c-1.02,0.566-2.039,1.076-3.002,1.473c-0.34-0.538-0.991-1.331-1.501-1.784c3.427-1.189,7.335-3.512,9.884-6.032h-9.374V6.599
		h11.47V3.653c-2.945,0.283-6.004,0.453-8.808,0.566c-0.057-0.538-0.312-1.331-0.51-1.813c6.57-0.312,14.387-1.02,18.663-2.124
		L339.544,2.011z M328.612,9.034c-1.954,2.181-4.645,4.248-7.363,5.777h7.363V9.034z M323.231,23.421h13.254v-6.882h-13.254v2.634
		h11.866v1.586h-11.866V23.421z"/>
	<path d="M346.083,7.93c1.728,0.68,3.852,1.897,4.899,2.832l-1.218,1.728c-1.02-0.935-3.115-2.209-4.871-2.974L346.083,7.93z
		 M366.19,0.113v3.37h4.248v1.926h-4.248v3.285h5.041v1.954h-5.041c1.246,2.379,3.313,4.645,5.466,5.777
		c-0.481,0.396-1.161,1.133-1.473,1.671c-1.331-0.821-2.605-2.067-3.71-3.512v5.296h-8.609v2.917c0,0.991,0.283,1.189,2.039,1.189
		c0.793,0,5.041,0,6.089,0c1.416,0,1.671-0.453,1.813-3.2c0.453,0.34,1.274,0.623,1.841,0.765c-0.283,3.398-0.906,4.305-3.512,4.305
		c-0.708,0-5.692,0-6.344,0c-3.03,0-3.908-0.595-3.908-3.03V15.18c-1.048,1.274-2.209,2.407-3.37,3.2
		c-0.198-0.312-0.538-0.708-0.878-1.048c-1.218,2.804-2.775,6.004-4.106,8.439l-1.869-1.303c1.331-2.181,3.229-5.919,4.616-9.119
		l1.359,1.02c1.897-1.303,3.767-3.483,4.956-5.721h-5.098V8.694h5.013V5.409h-3.823V3.483h3.823v-3.37h2.067v3.37h5.522v-3.37
		H366.19z M347.555,0.34c1.699,0.765,3.823,2.011,4.843,3.002l-1.246,1.756c-0.991-1.02-3.087-2.379-4.814-3.229L347.555,0.34z
		 M365.708,13.537c-0.623-0.935-1.161-1.897-1.614-2.889h-5.381c-0.453,0.991-0.991,1.954-1.614,2.889h0.765H365.708z
		 M357.864,18.182h6.684v-2.945h-6.684V18.182z M358.572,8.694h5.522V5.409h-5.522V8.694z"/>
</g>
<g>
	<path class="st0" d="M521.739,248.284c0-9.467,7.379-16.846,16.702-16.846c9.323,0,16.702,7.379,16.702,16.846
		c0,9.503-7.415,16.847-16.702,16.847C529.118,265.13,521.739,257.75,521.739,248.284z M553.991,248.284
		c0-8.891-6.947-15.766-15.55-15.766c-8.639,0-15.55,6.911-15.55,15.766c0,8.855,6.911,15.767,15.55,15.767
		C547.043,264.05,553.991,257.175,553.991,248.284z M531.998,255.555c7.667-7.703,9.035-9.395,9.035-12.238
		c0-2.448-1.296-4.104-3.635-4.104c-0.576,0-1.116,0.072-1.62,0.216c-0.72,3.348-1.152,3.708-2.231,3.708
		c-0.648,0-1.188-0.324-1.44-0.9c0.468-2.735,3.096-3.959,6.299-3.959c4.211,0,6.047,2.123,6.047,4.967
		c0,2.987-2.195,5.111-10.294,11.555h11.194v2.447h-13.354V255.555z"/>
</g>
<g>
</g>
<g>
</g>
<g>
</g>
<g>
</g>
<g>
</g>
<g>
</g>
</svg>
