<?xml version="1.0" encoding="utf-8"?>
<!-- Generator: Adobe Illustrator 16.0.0, SVG Export Plug-In . SVG Version: 6.00 Build 0)  -->
<!DOCTYPE svg PUBLIC "-//W3C//DTD SVG 1.1//EN" "http://www.w3.org/Graphics/SVG/1.1/DTD/svg11.dtd">
<svg version="1.1" id="Layer_1" xmlns="http://www.w3.org/2000/svg" xmlns:xlink="http://www.w3.org/1999/xlink" x="0px" y="0px"
	 width="1456.276px" height="1033.166px" viewBox="0 0 1456.276 1033.166" style="enable-background:new 0 0 1456.276 1033.166;"
	 xml:space="preserve">
<style type="text/css">
<![CDATA[
	.st0{fill:#1B1B1E;}
	.st1{fill:#57672D;}
]]>
</style>
<g>
	<g>
		<path class="st0" d="M44.248,126.6c5.542-30.044,10.209-59.213,11.667-76.714l37.044,6.417c-0.875,3.209-2.625,6.126-10.792,6.709
			c-2.917,16.043-7,38.211-11.959,62.129l25.96-1.75c0.583-10.792,0.583-21.584,0.583-32.377l39.669,6.709
			c-1.167,4.959-4.958,7.292-11.376,7.584l-0.875,15.751l22.168-2.042l0.583,4.375l-23.627,6.709
			c-3.5,38.503-10.792,75.547-26.543,107.925c43.753,26.543,22.751,52.503,3.792,41.419c-4.083-5.834-9.917-12.251-16.626-18.668
			c-15.751,23.627-37.336,43.753-67.38,59.504l-3.208-2.916c25.377-19.252,43.169-42.879,55.712-69.422
			c-14.584-11.959-30.918-23.043-44.919-30.627c4.958-16.335,10.5-41.712,15.751-67.963l-11.667,2.041
			c-1.75,3.792-4.958,6.126-7.875,6.418l-7.875-30.336C20.329,127.475,31.413,127.183,44.248,126.6z M66.124,144.101
			c-5.542,25.669-11.959,52.212-18.084,73.505c11.084,3.501,21.001,7.001,29.46,10.501c10.209-28.294,15.459-59.212,17.793-90.715
			L66.124,144.101z M216.634,84.305h-32.085c-1.458,100.049-2.917,180.846-87.506,236.85l-3.792-4.666
			c63.879-61.255,62.712-140.302,63.004-232.184h-26.544l-2.625-8.459h86.923l13.709-13.709l26.835,25.085
			c-2.042,2.334-6.709,3.5-12.251,3.792c-2.917,18.376-7.583,47.545-11.084,67.963h15.751l14.584-14.876l26.543,22.46
			c-2.333,2.334-5.833,4.084-12.251,4.667c-2.625,77.881-8.75,120.175-22.751,133.593c-8.75,7.876-20.418,11.668-35.586,11.668
			c0-7.876-1.167-14.585-5.833-18.668c-4.667-4.084-16.334-7.876-28.002-9.918v-4.667c12.542,1.167,32.96,2.917,39.669,2.917
			c5.25,0,7.584-0.875,10.5-3.209c8.751-7.875,13.709-49.586,16.043-115.508h-17.793l-11.084,12.543l-26.543-17.502
			c2.625-2.041,6.708-4.375,10.792-6.125C209.634,136.517,214.593,104.432,216.634,84.305z"/>
		<path class="st0" d="M309.384,212.356l-1.458-4.084c51.045-22.751,103.257-68.838,116.091-103.257l46.086,11.376
			c-0.875,3.5-4.375,5.25-13.709,6.125c26.252,26.544,79.047,44.629,122.509,51.337v4.376
			c-12.542,4.083-21.001,16.918-22.751,28.293c-45.211-15.167-85.464-44.628-104.424-80.797
			C426.059,160.436,367.138,196.022,309.384,212.356z M536.608,211.189c-0.875,3.209-3.5,4.667-7.584,4.667h-72.338v12.251
			c118.133,18.085,112.008,83.131,77.297,70.297c-15.459-21.877-49.878-48.129-77.297-64.171v78.172
			c0,2.333-12.542,7.875-23.335,7.875h-5.542v-76.713c-28.585,27.418-68.838,48.711-115.508,62.712l-2.333-4.375
			c44.336-20.418,81.089-52.795,102.674-86.048h-64.754l-2.333-8.459h82.256v-43.461l38.502,3.5
			c-0.875,3.792-2.917,6.417-9.625,7.292v32.669h37.919l14.584-17.209C509.189,190.188,526.107,201.855,536.608,211.189z
			 M446.185,88.681c-0.583,3.208-3.5,4.667-7.583,4.667h-44.336V123.1c0,2.333-12.543,7.292-22.46,7.292h-5.542V93.348h-53.67
			l-2.333-8.459h56.004V49.011l36.169,3.5c-0.583,3.209-2.333,5.542-8.167,6.126v26.252h9.917l14.876-20.418
			C419.058,64.471,436.268,78.471,446.185,88.681z M578.611,88.681c-0.875,3.208-3.792,4.667-7.875,4.667h-56.004v27.71
			c0,2.333-12.834,7.292-23.335,7.292h-5.25V93.348h-32.377l-2.333-8.459h34.711V49.303l36.752,3.208
			c-0.583,3.209-2.333,5.542-8.167,6.417v25.961h21.876l14.876-20.418C551.484,64.471,568.694,78.471,578.611,88.681z"/>
		<path class="st0" d="M694.404,130.975c2.334-2.042,5.542-3.792,8.751-5.25c3.208-21.585,6.417-57.463,6.708-74.672l33.252,5.25
			c-0.875,3.5-3.792,6.709-10.5,7.001l-1.75,21.001h15.459l11.667-15.751c0,0,13.126,11.376,20.71,19.543
			c-0.583,3.209-3.5,4.667-7.292,4.667h-41.42l-3.5,35.294h20.126l11.959-12.251l23.335,19.252
			c-2.042,2.333-5.251,3.792-11.085,4.375c-1.75,52.212-6.125,73.505-16.626,81.964c-6.417,5.542-15.459,7.876-25.376,7.876
			c0-6.417-0.583-11.959-3.792-15.168c-2.917-2.917-8.459-5.25-15.459-6.417v-2.042c-4.958,8.459-10.501,15.751-16.918,21.877
			l-4.375-2.625c9.042-19.252,15.167-47.545,17.209-75.256l31.794,6.709c-0.875,3.792-3.792,6.417-10.209,6.709
			c-4.083,14.584-9.334,28.294-16.042,39.961c6.708,0.583,16.626,1.167,21.001,1.167c4.083,0,5.833-0.584,7.584-2.334
			c4.958-4.375,8.167-23.626,9.625-65.338h-21.585l-9.917,11.668l-24.21-16.043c-0.875,2.625-3.208,3.5-6.417,3.5h-32.669
			l1.167,46.67h11.084l10.792-15.751c0,0,12.834,11.376,19.834,19.543c-0.583,3.209-3.5,4.667-7.292,4.667h-34.127l1.167,43.17
			h151.968l1.168-44.628h-30.627l-2.625-8.459h33.543l0.875-46.962h-28.001l-2.625-8.459h30.919l0.875-44.336h-35.003l-2.625-8.459
			h35.003l12.25-14.876l27.127,22.46c-2.041,2.625-4.668,3.5-10.5,4.375l-3.502,149.344h2.334l12.543-18.668
			c0,0,14.293,13.418,22.459,22.46c-0.875,3.208-3.791,4.667-7.584,4.667H600.189l-2.333-8.459h32.961l-4.083-168.595l28.002,9.042
			c9.917-9.042,20.418-20.127,25.668-26.252l23.918,23.043c-2.042,2.042-4.958,2.334-9.042,0.292
			c-9.042,4.084-26.252,9.917-42.295,14.293l1.167,41.419h10.792l10.5-15.167C675.444,112.016,687.404,122.808,694.404,130.975z
			 M703.155,269.527c-22.168,18.96-61.254,39.086-101.799,49.878l-1.75-3.5c32.377-16.918,64.754-46.378,79.047-68.255
			l39.669,17.501C716.281,268.652,711.905,270.402,703.155,269.527z M830.622,311.821c-11.959-17.209-35.002-38.502-73.797-54.837
			l1.75-4.375C904.419,274.194,856.874,338.073,830.622,311.821z"/>
		<path class="st0" d="M993.96,158.977c-0.584,3.209-3.5,4.667-7.293,4.667h-35.586v13.126
			c51.629,30.919,32.67,68.838,14.877,52.504c-1.459-12.834-7.877-28.877-14.877-41.711v124.55c0,2.917-10.209,7.876-19.543,7.876
			h-4.959v-99.466c-9.625,19.835-21.877,37.628-36.168,53.671l-4.084-3.792c16.334-29.752,27.418-69.422,33.836-106.758h-28.586
			l-2.334-8.459h37.336V49.011l34.42,3.792c-0.584,3.792-2.625,6.709-9.918,7.584v94.798h7.293l12.543-17.501
			C970.917,137.684,985.501,149.935,993.96,158.977z M900.327,133.6c1.168-19.251-4.666-43.753-10.209-60.379l4.084-1.167
			C937.663,112.891,916.954,151.685,900.327,133.6z M989.585,84.014c-8.752,17.501-19.545,38.502-29.461,53.67l-4.959-2.042
			c4.084-17.501,9.625-44.92,14-67.671l31.211,10.209C999.21,81.388,995.71,84.305,989.585,84.014z M1150.013,73.221
			c-0.584,3.209-3.793,4.667-7.877,4.667h-62.42v21.293h47.252l13.127-13.126l23.627,22.752c-2.334,2.042-5.25,2.625-11.084,2.917
			c-5.834,6.417-16.627,17.209-23.336,22.46l-2.916-1.167v2.334h-38.795v-8.168h38.795l2.625-19.543h-49.295v64.755
			c0,1.458-7.584,6.125-20.127,6.125h-4.084v-70.88h-45.795c0.875,13.418-3.209,23.335-9.625,27.711
			c-6.418,4.083-17.209,3.208-20.418-4.959c-2.625-7.876,2.334-14.293,9.334-18.085c6.125-3.792,12.834-14.001,12.25-22.46
			l4.668,0.292l2.334,9.042h47.252V77.888h-52.795l-2.334-8.459h106.758l15.168-18.96
			C1122.302,50.469,1139.511,63.595,1150.013,73.221z M1162.554,190.479c-0.875,3.209-3.791,4.668-7.875,4.668h-78.463
			c-6.127,8.167-13.711,17.209-20.418,23.918h62.711l11.377-13.709l27.711,20.418c-1.752,2.333-6.418,4.958-12.252,6.125v59.504
			c0,16.627-3.209,25.377-28.586,27.711c-0.291-6.417-0.875-11.959-3.207-15.168c-2.334-2.917-6.127-5.542-14.002-6.709v-2.917
			c-0.584,1.75-7,5.251-16.918,5.251h-3.209v-72.047h-20.418v70.005c0,1.167-6.416,5.542-16.918,5.542h-3.5v-75.547h-21.584v83.131
			c0,2.333-10.209,7.875-20.418,7.875h-3.5V208.272l25.668,10.793h24.209c1.75-7.292,4.084-16.335,5.543-23.918h-62.713
			l-2.334-8.459h137.969l14.293-17.793C1135.72,168.895,1152.054,181.145,1162.554,190.479z M1049.38,163.644h-44.336v-8.459h44.336
			V163.644z M1048.505,135.642h-37.336v-8.459h37.336V135.642z M1132.511,162.477h-45.504v-8.458h45.504V162.477z M1099.841,227.524
			v65.338l16.918,1.167c3.793,0,4.668-1.751,4.668-4.959v-61.546H1099.841z"/>
		<path class="st0" d="M1341.353,53.095c-0.875,4.083-2.918,7-10.793,8.167v100.049h70.881l18.084-22.168
			c0,0,20.127,15.167,32.668,25.96c-0.582,3.208-3.791,4.667-7.875,4.667h-109.09c27.127,43.461,76.422,79.047,121.049,95.09
			l-0.582,3.208c-11.377,1.751-20.418,10.793-24.502,24.21c-43.17-23.918-78.756-64.754-100.633-118.425v136.802
			c0,3.5-11.959,9.625-22.752,9.625h-5.541V201.272c-28.877,39.669-70.588,72.922-120.76,95.673l-2.916-3.792
			c46.67-30.335,85.756-78.463,107.633-123.383h-100.049l-2.334-8.459h118.426V49.303L1341.353,53.095z M1245.388,141.476
			c-3.793-23.335-21.293-50.754-36.754-68.838l2.918-1.75C1297.017,102.39,1273.972,163.644,1245.388,141.476z M1430.608,85.18
			c-1.75,3.209-6.125,5.251-12.25,4.084c-20.127,22.46-44.338,44.045-65.922,58.046l-3.5-2.917
			c12.834-18.376,30.336-49.879,43.461-78.172L1430.608,85.18z"/>
	</g>
	<g>
		<path class="st0" d="M31.794,485.897c5.542-30.044,10.209-59.213,11.667-76.714l37.044,6.417
			c-0.875,3.209-2.625,6.126-10.792,6.709c-2.917,16.043-7,38.211-11.959,62.129l25.96-1.75c0.583-10.792,0.583-21.584,0.583-32.377
			l39.669,6.709c-1.167,4.959-4.958,7.292-11.376,7.584l-0.875,15.751l22.168-2.042l0.583,4.375l-23.627,6.709
			c-3.5,38.503-10.792,75.547-26.543,107.925c43.753,26.543,22.751,52.503,3.792,41.419c-4.083-5.834-9.917-12.251-16.626-18.668
			c-15.751,23.627-37.336,43.753-67.38,59.504l-3.208-2.916c25.377-19.252,43.169-42.879,55.712-69.422
			c-14.584-11.959-30.918-23.043-44.919-30.627c4.958-16.335,10.5-41.712,15.751-67.963l-11.667,2.041
			c-1.75,3.792-4.958,6.126-7.875,6.418L0,486.772C7.875,486.772,18.959,486.48,31.794,485.897z M53.67,503.398
			c-5.542,25.669-11.959,52.212-18.084,73.505c11.084,3.501,21.001,7.001,29.46,10.501c10.209-28.294,15.459-59.212,17.793-90.715
			L53.67,503.398z M204.181,443.603h-32.085c-1.458,100.049-2.917,180.846-87.506,236.85l-3.792-4.666
			c63.879-61.255,62.712-140.302,63.004-232.184h-26.544l-2.625-8.459h86.923l13.709-13.709L242.1,446.52
			c-2.042,2.334-6.709,3.5-12.251,3.792c-2.917,18.376-7.583,47.545-11.084,67.963h15.751l14.584-14.876l26.543,22.46
			c-2.333,2.334-5.833,4.084-12.251,4.667c-2.625,77.881-8.75,120.175-22.751,133.593c-8.75,7.876-20.418,11.668-35.586,11.668
			c0-7.876-1.167-14.585-5.833-18.668c-4.667-4.084-16.334-7.876-28.002-9.918v-4.667c12.542,1.167,32.96,2.917,39.669,2.917
			c5.25,0,7.584-0.875,10.5-3.209c8.751-7.875,13.709-49.586,16.043-115.508H219.64l-11.084,12.543l-26.543-17.502
			c2.625-2.041,6.708-4.375,10.792-6.125C197.18,495.814,202.139,463.729,204.181,443.603z"/>
		<path class="st0" d="M295.472,571.653l-1.458-3.792c51.628-22.46,105.007-68.546,118.133-103.257l44.044,10.5
			c-0.875,3.792-4.375,5.251-13.126,6.126c25.96,27.127,79.339,46.378,123.967,53.962l-0.292,4.667
			c-11.959,3.5-20.126,15.46-21.876,26.252c-46.086-15.751-86.923-45.212-106.757-81.381
			C412.147,519.441,353.518,555.319,295.472,571.653z M395.813,609.281c-20.126,22.46-56.004,46.086-95.965,58.337l-2.333-3.792
			c31.794-18.668,61.546-50.462,75.255-76.13l34.127,18.376C405.146,608.989,402.521,610.448,395.813,609.281z M431.981,447.979
			c-0.583,3.208-3.5,4.667-7.584,4.667H381.52v28.293c0,2.334-12.542,7.292-22.168,7.292h-5.25v-35.585h-53.962l-2.333-8.459h56.295
			v-35.878l35.586,3.5c-0.583,3.209-2.333,5.542-8.167,6.126v26.252h10.209l14.293-19.252
			C406.021,424.935,422.356,438.353,431.981,447.979z M518.904,570.195c-0.875,3.208-3.792,4.667-7.875,4.667H443.94v95.965
			c0,2.333-12.542,7.875-23.335,7.875h-5.542v-103.84h-72.046l-2.333-8.459h74.38v-44.045l38.503,3.5
			c-0.583,3.792-2.625,6.417-9.626,7.292v33.253h32.669l14.876-17.502C491.486,548.901,508.403,560.861,518.904,570.195z
			 M562.949,447.979c-0.583,3.208-3.5,4.667-7.584,4.667H500.82v25.96c0,2.333-12.542,7-22.46,7h-5.25v-32.96h-33.252l-2.333-8.459
			h35.586v-35.586l35.877,3.208c-0.583,3.209-2.333,5.542-8.167,6.417v25.961h21.876l14.292-19.252
			C536.989,424.935,553.323,438.353,562.949,447.979z M522.696,662.076c-11.959-23.043-42.586-51.045-65.63-67.088l2.333-2.625
			C566.741,613.073,555.365,677.827,522.696,662.076z"/>
		<path class="st0" d="M681.95,490.272c2.334-2.042,5.542-3.792,8.751-5.25c3.208-21.585,6.417-57.463,6.708-74.672l33.252,5.25
			c-0.875,3.5-3.792,6.709-10.5,7.001l-1.75,21.001h15.459l11.667-15.751c0,0,13.126,11.376,20.71,19.543
			c-0.583,3.209-3.5,4.667-7.292,4.667h-41.42l-3.5,35.294h20.126l11.959-12.251l23.335,19.252
			c-2.042,2.333-5.251,3.792-11.084,4.375c-1.75,52.212-6.125,73.505-16.626,81.964c-6.417,5.542-15.459,7.876-25.376,7.876
			c0-6.417-0.583-11.959-3.792-15.168c-2.917-2.917-8.459-5.25-15.459-6.417v-2.042c-4.958,8.459-10.501,15.751-16.918,21.877
			l-4.375-2.625c9.042-19.252,15.167-47.545,17.209-75.256l31.794,6.709c-0.875,3.792-3.792,6.417-10.209,6.709
			c-4.083,14.584-9.334,28.294-16.042,39.961c6.708,0.583,16.626,1.167,21.001,1.167c4.083,0,5.833-0.584,7.584-2.334
			c4.958-4.375,8.167-23.626,9.625-65.338h-21.585l-9.917,11.668l-24.21-16.043c-0.875,2.625-3.208,3.5-6.417,3.5h-32.669
			l1.167,46.67h11.084l10.792-15.751c0,0,12.834,11.376,19.834,19.543c-0.583,3.209-3.5,4.667-7.292,4.667h-34.127l1.167,43.17
			h151.969l1.167-44.628h-30.627l-2.625-8.459h33.544l0.875-46.962h-28.002l-2.625-8.459h30.919l0.875-44.336h-35.003l-2.625-8.459
			h35.003l12.25-14.876l27.127,22.46c-2.041,2.625-4.667,3.5-10.5,4.375l-3.501,149.344h2.334l12.542-18.668
			c0,0,14.293,13.418,22.46,22.46c-0.875,3.208-3.792,4.667-7.584,4.667H587.735l-2.333-8.459h32.961l-4.083-168.595l28.002,9.042
			c9.917-9.042,20.418-20.127,25.668-26.252l23.918,23.043c-2.042,2.042-4.958,2.334-9.042,0.292
			c-9.042,4.084-26.252,9.917-42.295,14.293l1.167,41.419h10.792l10.5-15.167C662.991,471.313,674.95,482.105,681.95,490.272z
			 M690.701,628.824c-22.168,18.96-61.254,39.086-101.799,49.878l-1.75-3.5c32.377-16.918,64.754-46.378,79.047-68.255
			l39.669,17.501C703.827,627.949,699.452,629.699,690.701,628.824z M818.168,671.118c-11.959-17.209-35.002-38.502-73.796-54.837
			l1.75-4.375C891.965,633.491,844.42,697.37,818.168,671.118z"/>
		<path class="st0" d="M985.589,519.149c-0.875,3.209-3.5,4.667-7.583,4.667h-36.17V671.41c0,2.917-9.625,7.876-18.668,7.876h-4.667
			V550.943c-9.334,29.169-22.46,59.796-37.336,81.381l-4.667-2.333c8.168-24.211,16.627-61.838,21.585-94.215l20.418,6.125v-18.085
			h-38.502l-2.334-8.459h40.836V408.309l34.128,3.5c-0.875,4.376-3.209,7.001-10.793,8.168v95.381h7.584l12.834-16.626
			C962.254,498.731,976.839,510.399,985.589,519.149z M895.166,496.398c-0.291-19.835-8.167-45.795-15.167-63.005l4.083-1.167
			C932.502,474.229,912.668,514.774,895.166,496.398z M978.881,448.27c-9.334,17.501-20.71,38.503-30.919,53.379l-4.959-2.042
			c4.959-17.209,11.668-44.336,17.21-67.38l29.46,10.501C988.506,445.937,985.006,448.27,978.881,448.27z M957.296,606.656
			c0.291-20.71-7.001-47.837-13.126-65.922l4.083-1.458C995.215,583.904,974.797,625.615,957.296,606.656z M1146.018,431.644
			c-0.875,3.209-3.792,4.667-7.876,4.667h-61.838v22.168h43.462l12.251-12.542l22.46,21.876c-2.334,2.042-5.543,2.334-10.793,2.626
			c-3.5,4.083-8.751,9.625-13.418,14.292l2.334,1.459c-1.459,1.75-3.5,2.625-7.001,2.625l-0.291,0.292l-1.167-0.292l-4.667-0.875
			c-8.459,4.375-23.918,9.625-36.753,11.959l-2.333-4.375c10.792-6.126,22.751-17.21,28.585-24.794l12.834,8.459l0.876-12.251
			h-46.379v65.047c0,1.458-7.584,5.833-19.835,5.833h-3.791v-70.88h-49.587c0.291,4.376,0.291,8.459-0.292,11.959l1.75-2.333
			c50.462-5.542,46.378,28.002,28.294,22.46c-6.417-7.001-19.543-15.168-30.336-18.96c-1.166,7.584-4.667,13.418-9.334,16.626
			c-6.417,4.376-16.918,3.792-20.126-3.792c-2.917-7.292,1.458-14.001,8.459-17.501c6.709-4.375,14.001-16.334,12.834-26.543h4.667
			c1.167,3.208,2.042,6.708,2.625,9.625h51.046v-22.168h-57.463l-2.333-8.459h109.966l15.168-18.96
			C1118.016,408.892,1135.517,422.018,1146.018,431.644z M1038.093,664.701h-3.208v-77.88h-20.418v84.297
			c0,2.334-10.21,7.876-20.127,7.876h-3.5V567.569l25.377,10.793h24.793l5.542-23.918h-63.879l-2.334-8.459h132.718l12.542-15.752
			l-2.916-0.291c-8.751-7.292-26.836-16.335-40.545-20.418l1.75-3.792c51.921-5.834,57.171,21.001,44.337,24.21
			c3.792,2.917,16.334,12.251,24.21,19.834c-0.584,3.209-3.501,4.668-7.584,4.668h-70.297c-6.125,7.875-13.709,17.209-20.418,23.918
			h55.712l11.084-13.418l27.127,20.127c-2.041,2.333-6.708,4.667-12.542,5.833v60.38c0,16.043-2.917,24.502-27.419,26.835
			c-0.291-6.125-0.875-11.376-3.208-14.584c-2.334-2.626-5.834-4.959-13.418-6.417c-2.042,1.75-7.292,4.083-14.876,4.083h-3.209
			v-74.38h-19.543v72.338C1053.844,660.326,1047.719,664.701,1038.093,664.701z M1045.677,503.69l1.167,4.084
			c-8.167,4.958-21.002,13.125-38.211,22.459c-0.875,3.792-3.209,5.543-6.126,6.709l-11.376-23.043
			C1001.341,512.44,1024.092,508.065,1045.677,503.69z M1092.639,586.821v66.213l15.459,0.875c3.792,0,4.667-1.75,4.667-4.959
			v-62.129H1092.639z"/>
		<path class="st0" d="M1171.388,660.909l-2.625-2.625c31.502-28.585,61.546-78.755,72.63-111.424l39.086,15.751
			c-1.458,3.5-4.667,5.542-12.834,5.542C1248.393,600.238,1213.099,638.741,1171.388,660.909z M1438.864,525.275
			c-0.875,3.208-4.083,4.667-8.167,4.667h-111.425v140.01c0,3.208-12.542,9.625-24.21,9.625h-5.833V529.942h-112.883l-2.334-8.459
			h115.217V408.601l40.544,4.083c-0.583,4.084-2.917,7.001-10.501,8.168v100.632h66.797l18.668-23.919
			C1404.737,497.564,1426.03,513.899,1438.864,525.275z M1241.976,501.94c-7-23.335-29.46-52.504-46.378-71.464l2.917-2.042
			C1289.813,462.854,1270.853,521.774,1241.976,501.94z M1402.987,645.742c-11.959-29.461-44.337-66.797-69.13-91.59l3.208-2.334
			C1452.865,598.197,1436.239,667.327,1402.987,645.742z M1409.696,445.937c-20.127,24.502-44.92,45.795-68.255,59.212l-3.501-2.625
			c14.876-18.668,32.961-49.587,45.795-79.631l37.92,18.96C1419.905,445.062,1416.113,447.103,1409.696,445.937z"/>
	</g>
	<g>
		<path class="st0" d="M73.503,775.028c-1.362,7.001-3.113,15.268-5.25,24.793c-2.142,9.53-4.476,19.643-7,30.335h21.293
			l14.292-15.167l26.543,23.334c-1.946,2.333-5.738,3.892-11.375,4.667c-2.142,19.251-5.205,38.114-9.188,56.586
			c-3.988,18.476-10.163,36.072-18.521,52.794c8.942,6.809,14.68,13.176,17.209,19.105c2.525,5.934,2.962,10.842,1.313,14.729
			c-1.654,3.892-4.571,6.321-8.75,7.292c-4.184,0.976-8.509,0.101-12.979-2.625c-2.726-4.858-6.321-9.917-10.792-15.168
			c-7.583,10.893-16.771,21.102-27.563,30.627c-10.792,9.525-23.581,18.084-38.356,25.668l-2.917-3.792
			c12.442-9.143,23.188-19.396,32.231-30.772c9.042-11.375,16.671-23.576,22.896-36.605c-7.196-7.001-14.875-13.659-23.042-19.98
			c-8.167-6.316-15.851-11.813-23.043-16.479c3.304-10.108,7-22.897,11.084-38.356s7.875-31.255,11.375-47.397H4.083l-2.625-8.459
			h33.543c2.917-13.608,5.542-26.543,7.875-38.794c2.333-12.25,3.983-22.358,4.959-30.334l37.335,7
			c-0.583,1.75-1.604,3.309-3.063,4.667C80.649,774.058,77.778,774.837,73.503,775.028z M35.001,926.702
			c5.833,2.143,11.275,4.375,16.334,6.709c5.054,2.333,9.721,4.667,14,7c5.638-15.751,10.013-32.181,13.125-49.294
			c3.108-17.108,5.346-34.609,6.709-52.502H59.211c-3.5,14.976-7.393,30.188-11.667,45.647
			C43.264,899.722,39.085,913.868,35.001,926.702z M195.717,868.949c1.75-6.804,3.646-14.629,5.688-23.479
			c2.042-8.847,3.983-17.743,5.833-26.689c1.846-8.941,3.254-16.816,4.229-23.626h-45.794c-0.392,19.447-0.975,38.261-1.75,56.44
			c-0.779,18.185-2.529,35.686-5.25,52.502c-2.726,16.822-7,32.864-12.834,48.128c-5.833,15.268-13.905,29.655-24.209,43.168
			c-10.309,13.514-23.53,26.105-39.668,37.773l-4.083-4.667c15.167-15.947,26.93-32.86,35.293-50.753
			c8.359-17.888,14.292-36.651,17.792-56.294c3.5-19.639,5.588-40.006,6.271-61.107c0.679-21.097,1.021-42.826,1.021-65.19h-35.585
			l-2.625-8.458h109.088l12.542-14.001l28.876,23.043c-1.167,1.362-3.017,2.434-5.542,3.208c-2.53,0.779-5.446,1.363-8.75,1.75
			c-1.167,6.226-2.625,13.518-4.375,21.876c-1.75,8.363-3.646,16.918-5.688,25.668c-2.042,8.751-3.938,16.727-5.688,23.918h16.042
			l14.292-14.876l26.251,22.168c-1.167,1.167-2.675,2.188-4.521,3.063c-1.85,0.875-4.425,1.509-7.729,1.896
			c-1.363,39.865-3.792,70.929-7.292,93.192c-3.5,22.268-8.75,36.797-15.75,43.606c-8.559,7.971-20.322,11.959-35.293,11.959
			c0-4.084-0.438-7.685-1.313-10.793c-0.875-3.112-2.384-5.642-4.521-7.583c-2.333-2.143-6.08-4.038-11.23-5.688
			c-5.154-1.649-10.747-3.063-16.771-4.229l0.292-4.376c4.275,0.393,9.042,0.779,14.292,1.167c5.25,0.392,10.209,0.729,14.876,1.021
			c4.667,0.292,8.066,0.438,10.208,0.438c4.667,0,8.263-1.166,10.792-3.5c4.275-3.888,7.775-16.188,10.5-36.897
			c2.721-20.709,4.667-48.077,5.833-82.107h-18.667l-10.792,11.959l-25.667-17.793C187.646,872.646,191.438,870.7,195.717,868.949z"
			/>
		<path class="st0" d="M437.812,835.406c-8.75,13.81-20.563,27.272-35.439,40.397c-14.876,13.126-31.697,24.989-50.461,35.585
			c-18.768,10.602-38.456,19.105-59.065,25.522l-1.75-3.792c13.417-6.417,26.543-14.242,39.376-23.48
			c12.834-9.233,24.793-19.251,35.877-30.043s20.513-21.729,28.293-32.813c7.775-11.084,13.221-21.681,16.334-31.793l44.919,10.792
			c-0.583,3.309-4.959,5.351-13.126,6.125c8.555,11.28,19.639,21.247,33.252,29.897c13.608,8.654,28.438,15.996,44.481,22.021
			c16.042,6.029,31.939,10.893,47.69,14.584l-0.292,4.375c-6.226,1.75-11.33,5.155-15.313,10.209
			c-3.988,5.059-6.467,10.405-7.438,16.043c-24.31-9.525-45.939-22.168-64.899-37.919
			C461.292,875.366,447.146,856.8,437.812,835.406z M294.597,798.071h72.628v-35.877l37.335,3.209
			c-0.196,1.946-0.975,3.601-2.333,4.958c-1.363,1.363-3.892,2.334-7.583,2.917v24.793h67.961v-35.877l37.918,3.209
			c-0.196,1.946-1.021,3.601-2.479,4.958c-1.458,1.363-4.038,2.334-7.729,2.917v24.793h29.168l16.334-21.293
			c6.608,5.446,12.201,10.113,16.772,14.001c4.566,3.893,8.604,7.584,12.104,11.084c-0.583,2.917-3.208,4.375-7.875,4.375h-66.503
			v23.918c0,1.362-2.238,2.821-6.708,4.375c-4.476,1.559-10.018,2.334-16.626,2.334h-4.375v-30.627h-67.961v25.376
			c0,1.363-2.333,2.821-7,4.376c-4.667,1.559-10.017,2.333-16.042,2.333h-4.375v-32.085h-70.586L294.597,798.071z M340.682,923.494
			h74.67v-42.002l37.043,3.5c-0.392,1.75-1.217,3.309-2.479,4.667c-1.267,1.362-3.646,2.333-7.146,2.917v30.918h28.001
			l15.167-19.251c6.417,4.862,11.763,9.092,16.042,12.688c4.275,3.601,8.167,6.955,11.667,10.063
			c-0.779,3.112-3.309,4.667-7.583,4.667h-58.044c7.388,10.113,16.963,19.251,28.73,27.418
			c11.763,8.167,24.547,15.071,38.356,20.709c13.805,5.643,27.609,9.821,41.418,12.542l-0.583,3.209
			c-11.667,2.726-19.351,11.476-23.042,26.251c-20.417-8.167-38.26-19.543-53.523-34.127
			c-15.268-14.584-27.468-32.472-36.606-53.669v91.296c0,1.167-2.434,2.671-7.292,4.521c-4.863,1.846-9.821,2.771-14.875,2.771
			h-5.25v-80.795c-12.642,14.393-28.102,27.176-46.377,38.355c-18.28,11.185-38.311,20.659-60.086,28.438l-2.625-4.083
			c18.472-10.108,35.098-22.505,49.877-37.189c14.775-14.68,26.639-29.897,35.585-45.647h-48.71L340.682,923.494z"/>
		<path class="st0" d="M660.947,827.239c4.471,4.084,8.167,7.538,11.084,10.354c2.917,2.821,5.542,5.593,7.875,8.313
			c-0.779,3.112-3.113,4.667-7,4.667h-33.251l1.75,46.668h10.792l10.792-15.459c4.667,4.084,8.504,7.634,11.521,10.646
			c3.012,3.018,5.783,5.884,8.313,8.604c-0.583,3.113-3.017,4.667-7.292,4.667h-33.834l1.458,46.086h47.252v-77.879l29.751,3.208
			c-0.392,3.31-2.917,5.446-7.584,6.417v68.254h22.459v-94.213h-17.792l-8.167,9.625l-26.251-13.125
			c0.971-0.971,2.233-2.088,3.792-3.354c1.554-1.263,3.108-2.379,4.667-3.354v-86.046l35.001,3.5
			c-0.392,2.143-1.413,3.893-3.063,5.251c-1.654,1.362-4.229,2.333-7.729,2.917v30.334h21.001l12.542-16.042
			c5.25,4.279,9.625,7.926,13.126,10.938c3.5,3.018,6.708,5.979,9.625,8.896c-0.779,3.113-3.208,4.667-7.292,4.667h-49.002v37.335
			H732.7l11.667-11.959l23.334,18.084c-0.976,0.779-2.238,1.604-3.792,2.479c-1.559,0.875-3.404,1.509-5.542,1.896v92.171h40.252
			l1.75-46.961h-32.377l-2.625-8.459h35.585l1.75-46.669H767.41l-2.625-8.458h38.502l1.75-43.169h-38.794l-2.625-8.459h38.794
			l12.542-15.167l26.835,22.751c-1.559,2.142-5.155,3.601-10.793,4.375l-5.833,150.216h1.75l12.834-19.835
			c5.25,5.251,9.625,9.727,13.125,13.418c3.501,3.696,6.608,7.101,9.334,10.209c-0.583,3.112-3.112,4.666-7.583,4.666h-267.18
			l-2.333-8.458h32.668l-5.833-170.633l29.459,9.333c5.054-4.667,9.867-9.379,14.438-14.146c4.566-4.763,8.212-8.7,10.938-11.813
			l23.917,23.043c-2.142,2.142-5.25,2.237-9.333,0.291c-4.667,1.946-10.988,4.33-18.959,7.146
			c-7.976,2.821-16.042,5.301-24.209,7.438l1.167,39.669h11.083L660.947,827.239z M708.491,981.246
			c-1.946,3.501-7,4.667-15.167,3.501c-7.583,6.226-16.917,12.396-28.001,18.521c-11.084,6.125-23.188,11.713-36.314,16.771
			c-13.125,5.054-26.688,9.233-40.689,12.542l-1.75-3.792c11.667-5.25,22.993-11.621,33.981-19.104
			c10.983-7.483,21.001-15.359,30.043-23.626c9.042-8.263,16.088-15.992,21.147-23.188L708.491,981.246z M744.659,969.871
			c21.584,2.333,39.423,5.446,53.523,9.334c14.097,3.892,25.13,8.121,33.105,12.688c7.971,4.571,13.513,9.143,16.626,13.709
			c3.108,4.566,4.375,8.7,3.792,12.396c-0.584,3.691-2.384,6.608-5.396,8.751c-3.017,2.137-6.563,3.107-10.646,2.916
			c-4.083-0.195-8.071-2.041-11.959-5.542c-6.809-7.976-16.771-16.479-29.896-25.521c-13.126-9.042-29.998-17.159-50.607-24.355
			L744.659,969.871z"/>
		<path class="st0" d="M876.498,868.658h37.919V761.903l33.834,3.5c-0.195,1.946-0.975,3.601-2.333,4.958
			c-1.362,1.363-3.792,2.238-7.292,2.626v95.671h5.834l12.25-16.918c5.055,4.476,9.334,8.313,12.834,11.521
			c3.5,3.209,6.608,6.271,9.334,9.188c-0.779,3.112-3.309,4.666-7.584,4.666h-32.668V888.2
			c10.888,5.251,19.055,10.793,24.501,16.626c5.441,5.834,8.751,11.33,9.917,16.48c1.167,5.154,0.875,9.434-0.875,12.833
			c-1.75,3.405-4.329,5.446-7.729,6.126c-3.404,0.684-7.05-0.629-10.938-3.938c-0.779-6.222-2.58-12.784-5.396-19.688
			c-2.821-6.9-5.979-13.271-9.479-19.105v127.173c0,1.554-2.092,3.304-6.271,5.25c-4.184,1.941-8.509,2.917-12.979,2.917h-4.958
			V932.827c-10.113,18.668-22.46,35.489-37.044,50.461l-3.792-3.5c8.751-14.388,16.043-30.576,21.876-48.564
			c5.834-17.984,10.501-36.022,14.001-54.107h-30.626L876.498,868.658z M885.249,786.404c8.358,8.167,14.338,16.093,17.938,23.771
			c3.597,7.685,5.542,14.635,5.834,20.855c0.292,6.226-0.583,11.229-2.625,15.021s-4.667,5.884-7.876,6.271
			c-3.208,0.392-6.467-1.263-9.771-4.959c0.971-9.525,0.583-19.834-1.167-30.918s-3.893-20.709-6.417-28.876L885.249,786.404z
			 M952.918,782.904l32.085,10.208c-0.195,1.363-1.121,2.726-2.771,4.084c-1.654,1.362-4.038,1.946-7.146,1.75
			c-2.917,6.613-6.955,14.926-12.104,24.938c-5.154,10.018-10.551,19.302-16.188,27.855l-3.792-1.166
			c1.358-7.001,2.721-14.776,4.084-23.335c1.357-8.555,2.575-16.817,3.646-24.793C951.797,794.476,952.526,787.963,952.918,782.904z
			 M989.087,798.946l4.958,0.292c0.775,3.696,1.263,7.196,1.459,10.5h47.544v-21.584h-58.045l-2.333-8.167h116.38l14.584-17.501
			c6.025,4.667,11.18,8.654,15.459,11.959c4.275,3.309,8.167,6.417,11.668,9.334c-0.779,2.917-3.405,4.375-7.876,4.375h-65.628
			v21.584h49.294l12.251-12.542l23.042,21.876c-1.559,1.75-5.154,2.726-10.792,2.917c-3.112,2.142-7.05,4.717-11.813,7.729
			c-4.768,3.017-8.997,5.3-12.688,6.854l7.876,7c-0.78,3.113-3.209,4.667-7.293,4.667h-43.168l-2.042-8.167h21.876l10.792-13.417
			l7.876,6.417l4.666-14.876h-49.877v63.586c0,0.779-1.8,1.996-5.396,3.646c-3.601,1.654-8.51,2.479-14.73,2.479h-4.083v-69.712
			h-47.253c-0.195,6.029-1.07,11.28-2.625,15.751c-1.559,4.476-3.601,7.976-6.125,10.5c-2.529,2.334-5.884,3.601-10.063,3.792
			c-4.185,0.196-7.247-1.358-9.188-4.667c-1.559-2.721-1.704-5.638-0.438-8.75c1.263-3.108,3.45-5.733,6.563-7.876
			c3.305-2.524,6.608-6.563,9.918-12.104C987.141,809.301,988.891,804.005,989.087,798.946z M980.045,930.202V919.41l25.668,10.792
			h30.626c0.583-3.691,1.263-7.825,2.042-12.396c0.774-4.566,1.458-8.796,2.042-12.688h-67.67l-2.334-8.167h139.132l14.292-17.501
			c5.834,4.667,10.792,8.604,14.876,11.813c4.083,3.209,7.775,6.271,11.084,9.188c-0.779,3.112-3.404,4.667-7.876,4.667h-75.545
			c-2.529,4.083-5.351,8.363-8.459,12.834c-3.112,4.476-6.125,8.559-9.042,12.25h58.045l11.667-13.709l28.001,20.71
			c-0.779,0.975-2.288,2.041-4.521,3.208c-2.238,1.167-4.913,2.042-8.021,2.625v59.795c0,5.638-0.583,10.45-1.75,14.438
			c-1.167,3.983-3.792,7.192-7.875,9.626c-4.084,2.429-10.405,4.033-18.96,4.813c0-3.5-0.195-6.613-0.583-9.334
			c-0.392-2.725-1.167-4.958-2.334-6.708c-1.166-1.559-2.771-2.967-4.813-4.229c-2.042-1.268-5.009-2.188-8.896-2.771v-4.375
			c4.472,0.393,8.021,0.634,10.646,0.729c2.625,0.101,4.617,0.146,5.979,0.146c2.917,0,4.375-1.554,4.375-4.667v-62.128h-21.584
			v82.546c0,0.583-1.604,1.649-4.813,3.208c-3.209,1.555-7.634,2.334-13.271,2.334h-3.5v-88.088h-20.71v83.129
			c0,0.584-1.559,1.7-4.666,3.354c-3.113,1.65-7.393,2.479-12.834,2.479h-3.501v-88.963h-21.001v85.754
			c0,1.167-2.142,2.771-6.416,4.813c-4.28,2.041-8.947,3.063-14.001,3.063h-3.5V930.202z M985.587,868.949h23.917l10.793-12.834
			c4.274,3.501,7.921,6.518,10.938,9.043c3.013,2.529,5.688,5.059,8.021,7.583c-0.779,3.113-3.209,4.667-7.292,4.667H987.92
			L985.587,868.949z M991.42,840.073h19.834l9.918-13.126c4.083,3.696,7.533,6.81,10.354,9.334c2.816,2.529,5.296,5.059,7.438,7.584
			c-0.583,3.112-3.017,4.667-7.292,4.667h-37.918L991.42,840.073z M1071.632,868.949h27.418l10.792-13.709
			c4.667,3.696,8.555,6.905,11.668,9.626c3.108,2.726,5.929,5.351,8.458,7.875c-0.583,3.113-3.017,4.667-7.292,4.667h-48.71
			L1071.632,868.949z"/>
		<path class="st0" d="M1289.81,761.903l39.085,3.792c-0.392,1.945-1.313,3.646-2.771,5.104c-1.459,1.459-4.134,2.479-8.021,3.063
			v100.046h70.878l18.084-22.168c7.388,5.643,13.609,10.455,18.668,14.438c5.055,3.987,9.721,7.83,14.001,11.521
			c-0.584,3.112-3.209,4.667-7.876,4.667H1322.77c8.941,14.393,20.025,27.81,33.251,40.252
			c13.222,12.446,27.418,23.334,42.586,32.668c15.167,9.334,30.234,16.726,45.21,22.168l-0.583,3.208
			c-5.643,0.779-10.646,3.309-15.021,7.584c-4.375,4.279-7.538,9.821-9.479,16.626c-21.585-11.859-41.031-27.855-58.336-47.981
			c-17.31-20.126-31.406-43.606-42.294-70.441v136.798c0,1.167-1.167,2.479-3.5,3.938c-2.334,1.458-5.205,2.771-8.604,3.938
			c-3.405,1.166-6.955,1.75-10.646,1.75h-5.542V913.868c-14.393,19.834-31.844,37.873-52.356,54.106
			c-20.519,16.239-43.314,30.094-68.399,41.564l-2.917-3.791c15.555-10.109,30.139-21.922,43.752-35.439
			c13.609-13.513,25.814-27.806,36.606-42.877c10.792-15.067,19.88-30.089,27.271-45.064h-100.046l-2.333-8.459h118.422V761.903z
			 M1199.097,783.487c14.192,5.25,25.618,11.134,34.272,17.646c8.65,6.518,14.972,13.03,18.959,19.543
			c3.983,6.517,6.126,12.592,6.417,18.229c0.292,5.643-0.729,10.259-3.063,13.855c-2.333,3.6-5.496,5.642-9.479,6.125
			c-3.987,0.487-8.413-1.116-13.271-4.813c-1.167-7.775-3.696-15.797-7.584-24.063c-3.892-8.263-8.413-16.284-13.563-24.064
			c-5.154-7.774-10.354-14.68-15.605-20.709L1199.097,783.487z M1379.938,778.82l38.21,18.959c-0.779,1.559-2.237,2.771-4.375,3.646
			c-2.142,0.875-4.768,1.021-7.875,0.438c-10.113,11.279-20.905,22.021-32.377,32.23c-11.476,10.209-22.655,18.813-33.543,25.813
			l-3.5-2.916c4.274-6.222,8.941-13.609,14-22.168c5.055-8.555,10.159-17.692,15.313-27.418
			C1370.942,797.684,1375.659,788.154,1379.938,778.82z"/>
	</g>
	<g>
		<path class="st1" d="M9.5,23.336c1.359-1.699,2.407-4.361,3.03-6.627l2.351,0.878c-0.68,2.294-1.671,5.183-3.03,7.052L9.5,23.336z
			 M32.128,14.302H12.248V1.388h19.881V14.302z M14.74,6.74h6.202V3.682H14.74V6.74z M14.74,12.008h6.202V8.893H14.74V12.008z
			 M25.501,23.194c1.303,0,1.501-0.453,1.671-3.455c0.566,0.425,1.699,0.821,2.407,0.991c-0.34,3.908-1.133,4.843-3.88,4.843h-5.268
			c-3.313,0-4.163-0.736-4.163-3.313v-5.154h2.662v5.154c0,0.793,0.283,0.935,1.756,0.935H25.501z M24.652,20.221
			c-1.161-1.246-3.625-2.974-5.692-4.078l1.728-1.643c2.067,1.02,4.56,2.662,5.834,3.908L24.652,20.221z M29.523,3.682h-6.032V6.74
			h6.032V3.682z M29.523,8.893h-6.032v3.115h6.032V8.893z M31.279,16.454c1.586,2.124,3.257,4.928,3.852,6.882l-2.549,1.076
			c-0.538-1.897-2.096-4.786-3.653-6.967L31.279,16.454z"/>
		<path class="st1" d="M42.208,12.801c-1.048-0.793-3.144-2.096-4.673-2.974l1.529-1.897c1.473,0.793,3.597,1.982,4.729,2.747
			L42.208,12.801z M44.275,16.737c-1.104,2.945-2.549,6.344-3.852,9.006l-2.379-1.416c1.189-2.209,2.889-5.834,4.135-9.063
			L44.275,16.737z M43.539,5.381c-1.048-0.821-3.144-2.152-4.645-3.115l1.558-1.841c1.444,0.821,3.597,2.067,4.701,2.86
			L43.539,5.381z M48.551,9.289c0,4.928-0.51,12.093-3.823,16.766c-0.453-0.425-1.586-1.104-2.209-1.388
			c3.172-4.418,3.455-10.79,3.455-15.378V1.558h17.332v2.379H48.551V9.289z M53.026,18.748c-0.906,2.039-2.266,4.333-3.427,5.749
			c-0.481-0.34-1.501-0.963-2.096-1.274c1.218-1.331,2.436-3.313,3.172-5.126L53.026,18.748z M57.189,16.709v6.825
			c0,1.189-0.198,1.841-1.048,2.181c-0.821,0.396-2.067,0.425-3.908,0.396c-0.085-0.651-0.425-1.614-0.68-2.266
			c1.189,0.057,2.351,0.028,2.69,0.028s0.453-0.113,0.453-0.425v-6.74h-4.786V6.797h4.05c0.283-0.878,0.595-1.926,0.765-2.69
			l2.945,0.538c-0.368,0.765-0.765,1.473-1.104,2.152h5.806v9.912H57.189z M52.261,10.818h7.646V8.779h-7.646V10.818z
			 M52.261,14.755h7.646v-2.067h-7.646V14.755z M60.871,17.842c1.048,1.699,2.379,3.993,3.002,5.381l-2.407,1.048
			c-0.595-1.416-1.841-3.795-2.86-5.579L60.871,17.842z"/>
		<path class="st1" d="M82.079,13.82c2.407,3.483,6.315,6.882,10.054,8.666c-0.623,0.538-1.529,1.614-1.982,2.322
			c-3.625-2.011-7.307-5.579-9.884-9.431v10.733h-2.69V15.208c-2.521,4.078-6.202,7.731-9.912,9.827
			c-0.453-0.68-1.303-1.671-1.926-2.209c3.682-1.813,7.477-5.324,9.799-9.006h-8.638V11.3h10.677V6.967h2.69V11.3h10.677v2.521
			H82.079z M69.703,9.431h-2.662V3.2h10.96c-0.34-0.793-0.793-1.728-1.161-2.436L79.474,0c0.566,0.963,1.246,2.209,1.586,3.2h9.799
			v6.23h-2.804V5.692H69.703V9.431z"/>
		<path class="st1" d="M104.279,13.169v10.507c0,1.048-0.198,1.586-0.878,1.954c-0.68,0.34-1.671,0.368-3.2,0.368
			c-0.113-0.595-0.425-1.444-0.708-1.982c1.02,0.028,1.897,0.028,2.209,0c0.283,0,0.368-0.085,0.368-0.368v-3.2
			c-1.161,0.708-2.294,1.416-3.342,2.039L97.936,20.9c-0.255,1.897-0.708,3.852-1.728,5.353c-0.368-0.425-1.331-1.104-1.841-1.331
			c1.444-2.152,1.586-5.041,1.586-7.278v-4.475h-1.388V8.978h1.161V1.076h8.638v7.901h1.161v4.191H104.279z M103.515,10.818h-7.023
			v1.529h7.023V10.818z M97.794,8.978h1.444V4.531h2.945V3.03h-4.39V8.978z M98.105,17.672c0,0.906-0.028,1.926-0.142,3.002
			c1.133-0.481,2.577-1.218,4.106-1.982V14.16h-3.965v1.954l1.048-1.076c1.076,0.651,2.294,1.558,2.889,2.152l-1.189,1.359
			c-0.595-0.623-1.784-1.643-2.747-2.294V17.672z M102.184,8.978v-2.86h-1.501v2.86H102.184z M120.28,23.647v1.982h-14.755v-1.982
			h3.738c-0.255-0.765-0.566-1.643-0.878-2.379l1.897-0.566h-3.2V15.35h11.668v5.353h-3.313l2.152,0.595
			c-0.481,0.793-0.906,1.614-1.331,2.351H120.28z M120.025,14.188h-14.188v-1.954h14.188V14.188z M119.346,10.988h-12.999V2.266
			h3.455V0.17h2.096v2.096h1.699V0.17h2.096v2.096h3.653V10.988z M108.357,5.749h1.869V4.05h-1.869V5.749z M108.357,9.176h1.869
			V7.448h-1.869V9.176z M109.377,19.031h6.91v-1.982h-6.91V19.031z M110.368,20.702c0.453,0.935,0.935,2.096,1.218,2.945h2.492
			c0.425-0.935,0.878-2.124,1.133-2.945H110.368z M113.682,5.749V4.05h-1.784v1.699H113.682z M111.897,7.448v1.728h1.784V7.448
			H111.897z M117.278,4.05h-1.926v1.699h1.926V4.05z M117.278,7.448h-1.926v1.728h1.926V7.448z"/>
		<path class="st1" d="M146.5,8.949c3.172,1.728,6.485,3.795,8.354,5.324l-1.529,2.039c-2.124-1.926-6.372-4.588-10.025-6.57v4.531
			h-2.719V9.657c-2.662,2.775-6.4,5.098-9.969,6.372c-0.396-0.651-1.218-1.671-1.813-2.237c3.285-0.963,6.74-2.747,9.204-4.843
			h-8.524V6.57h11.102V4.05c-2.747,0.255-5.522,0.425-8.128,0.51c-0.057-0.623-0.396-1.643-0.651-2.209
			c6.259-0.283,13.565-0.963,17.7-2.067l1.926,2.124c-2.322,0.566-5.126,1.02-8.128,1.388V6.57h11.13v2.379H146.5z M133.586,14.953
			h17.162v11.158h-2.719v-0.906h-11.838v0.935h-2.605V14.953z M136.192,17.021v2.096h11.838v-2.096H136.192z M148.03,23.138v-2.152
			h-11.838v2.152H148.03z"/>
		<path class="st1" d="M161.762,12.999c-1.02-0.821-3.03-2.067-4.588-2.832l1.473-1.869c1.529,0.651,3.597,1.784,4.673,2.577
			L161.762,12.999z M170.513,20.107v2.322c0,0.991,0.283,1.189,1.982,1.189h5.749c1.388,0,1.614-0.453,1.784-3.059
			c0.538,0.368,1.501,0.708,2.124,0.85c-0.34,3.427-1.02,4.333-3.738,4.333h-6.061c-3.229,0-4.135-0.623-4.135-3.285v-6.712
			c-0.906,1.133-1.954,2.124-2.974,2.889c-0.34-0.51-0.991-1.246-1.501-1.699c-1.048,2.775-2.379,5.891-3.568,8.439l-2.351-1.501
			c1.133-2.096,2.719-5.522,3.88-8.581l1.813,1.331c1.926-1.274,3.88-3.568,5.041-5.891h-4.701V8.354h4.786V5.551h-3.625V3.2h3.625
			V0.17h2.549V3.2h4.814V0.17h2.577V3.2h3.965v2.351h-3.965v2.804h4.758v2.379h-4.758c1.161,2.124,3.059,4.163,4.984,5.268
			c-0.595,0.481-1.444,1.416-1.841,2.039c-1.048-0.68-2.067-1.643-2.974-2.747v4.814H170.513z M163.065,5.522
			c-0.935-0.878-2.86-2.152-4.333-3.002l1.586-1.813c1.444,0.736,3.398,1.926,4.361,2.775L163.065,5.522z M171.221,10.733
			c-0.396,0.935-0.906,1.897-1.444,2.804h7.731c-0.566-0.878-1.076-1.869-1.501-2.804H171.221z M176.659,15.491h-6.146v2.662h6.146
			V15.491z M171.193,8.354h4.814V5.551h-4.814V8.354z"/>
	</g>
	<g>
		<path class="st1" d="M9.5,379.818c1.359-1.699,2.407-4.361,3.03-6.627l2.351,0.878c-0.68,2.294-1.671,5.183-3.03,7.052
			L9.5,379.818z M32.128,370.784H12.248V357.87h19.881V370.784z M14.74,363.223h6.202v-3.059H14.74V363.223z M14.74,368.49h6.202
			v-3.115H14.74V368.49z M25.501,379.677c1.303,0,1.501-0.453,1.671-3.455c0.566,0.425,1.699,0.821,2.407,0.991
			c-0.34,3.908-1.133,4.843-3.88,4.843h-5.268c-3.313,0-4.163-0.736-4.163-3.313v-5.154h2.662v5.154
			c0,0.793,0.283,0.935,1.756,0.935H25.501z M24.652,376.703c-1.161-1.246-3.625-2.974-5.692-4.078l1.728-1.643
			c2.067,1.02,4.56,2.662,5.834,3.908L24.652,376.703z M29.523,360.164h-6.032v3.059h6.032V360.164z M29.523,365.375h-6.032v3.115
			h6.032V365.375z M31.279,372.937c1.586,2.124,3.257,4.928,3.852,6.882l-2.549,1.076c-0.538-1.897-2.096-4.786-3.653-6.967
			L31.279,372.937z"/>
		<path class="st1" d="M42.208,369.283c-1.048-0.793-3.144-2.096-4.673-2.974l1.529-1.897c1.473,0.793,3.597,1.982,4.729,2.747
			L42.208,369.283z M44.275,373.22c-1.104,2.945-2.549,6.344-3.852,9.006l-2.379-1.416c1.189-2.209,2.889-5.834,4.135-9.063
			L44.275,373.22z M43.539,361.863c-1.048-0.821-3.144-2.152-4.645-3.115l1.558-1.841c1.444,0.821,3.597,2.067,4.701,2.86
			L43.539,361.863z M48.551,365.771c0,4.928-0.51,12.093-3.823,16.766c-0.453-0.425-1.586-1.104-2.209-1.388
			c3.172-4.418,3.455-10.79,3.455-15.378v-7.731h17.332v2.379H48.551V365.771z M53.026,375.23c-0.906,2.039-2.266,4.333-3.427,5.749
			c-0.481-0.34-1.501-0.963-2.096-1.274c1.218-1.331,2.436-3.313,3.172-5.126L53.026,375.23z M57.189,373.191v6.825
			c0,1.189-0.198,1.841-1.048,2.181c-0.821,0.396-2.067,0.425-3.908,0.396c-0.085-0.651-0.425-1.614-0.68-2.266
			c1.189,0.057,2.351,0.028,2.69,0.028s0.453-0.113,0.453-0.425v-6.74h-4.786v-9.912h4.05c0.283-0.878,0.595-1.926,0.765-2.69
			l2.945,0.538c-0.368,0.765-0.765,1.473-1.104,2.152h5.806v9.912H57.189z M52.261,367.301h7.646v-2.039h-7.646V367.301z
			 M52.261,371.237h7.646v-2.067h-7.646V371.237z M60.871,374.324c1.048,1.699,2.379,3.993,3.002,5.381l-2.407,1.048
			c-0.595-1.416-1.841-3.795-2.86-5.579L60.871,374.324z"/>
		<path class="st1" d="M82.079,370.303c2.407,3.483,6.315,6.882,10.054,8.666c-0.623,0.538-1.529,1.614-1.982,2.322
			c-3.625-2.011-7.307-5.579-9.884-9.431v10.733h-2.69V371.69c-2.521,4.078-6.202,7.731-9.912,9.827
			c-0.453-0.68-1.303-1.671-1.926-2.209c3.682-1.813,7.477-5.324,9.799-9.006h-8.638v-2.521h10.677v-4.333h2.69v4.333h10.677v2.521
			H82.079z M69.703,365.913h-2.662v-6.23h10.96c-0.34-0.793-0.793-1.728-1.161-2.436l2.634-0.765c0.566,0.963,1.246,2.209,1.586,3.2
			h9.799v6.23h-2.804v-3.738H69.703V365.913z"/>
		<path class="st1" d="M104.279,369.651v10.507c0,1.048-0.198,1.586-0.878,1.954c-0.68,0.34-1.671,0.368-3.2,0.368
			c-0.113-0.595-0.425-1.444-0.708-1.982c1.02,0.028,1.897,0.028,2.209,0c0.283,0,0.368-0.085,0.368-0.368v-3.2
			c-1.161,0.708-2.294,1.416-3.342,2.039l-0.793-1.586c-0.255,1.897-0.708,3.852-1.728,5.353c-0.368-0.425-1.331-1.104-1.841-1.331
			c1.444-2.152,1.586-5.041,1.586-7.278v-4.475h-1.388v-4.191h1.161v-7.901h8.638v7.901h1.161v4.191H104.279z M103.515,367.301
			h-7.023v1.529h7.023V367.301z M97.794,365.46h1.444v-4.446h2.945v-1.501h-4.39V365.46z M98.105,374.154
			c0,0.906-0.028,1.926-0.142,3.002c1.133-0.481,2.577-1.218,4.106-1.982v-4.531h-3.965v1.954l1.048-1.076
			c1.076,0.651,2.294,1.558,2.889,2.152l-1.189,1.359c-0.595-0.623-1.784-1.643-2.747-2.294V374.154z M102.184,365.46v-2.86h-1.501
			v2.86H102.184z M120.28,380.13v1.982h-14.755v-1.982h3.738c-0.255-0.765-0.566-1.643-0.878-2.379l1.897-0.566h-3.2v-5.353h11.668
			v5.353h-3.313l2.152,0.595c-0.481,0.793-0.906,1.614-1.331,2.351H120.28z M120.025,370.671h-14.188v-1.954h14.188V370.671z
			 M119.346,367.471h-12.999v-8.723h3.455v-2.096h2.096v2.096h1.699v-2.096h2.096v2.096h3.653V367.471z M108.357,362.231h1.869
			v-1.699h-1.869V362.231z M108.357,365.658h1.869v-1.728h-1.869V365.658z M109.377,375.514h6.91v-1.982h-6.91V375.514z
			 M110.368,377.185c0.453,0.935,0.935,2.096,1.218,2.945h2.492c0.425-0.935,0.878-2.124,1.133-2.945H110.368z M113.682,362.231
			v-1.699h-1.784v1.699H113.682z M111.897,363.931v1.728h1.784v-1.728H111.897z M117.278,360.532h-1.926v1.699h1.926V360.532z
			 M117.278,363.931h-1.926v1.728h1.926V363.931z"/>
		<path class="st1" d="M146.557,359.541c2.662,2.407,5.976,5.891,7.448,8.213l-2.209,1.643c-0.425-0.708-0.991-1.501-1.643-2.322
			c-15.576,0.821-17.389,0.878-18.663,1.331c-0.113-0.538-0.566-1.841-0.85-2.577c0.68-0.113,1.388-0.708,2.322-1.614
			c0.991-0.935,4.191-4.418,6.259-7.845l2.634,1.133c-2.039,2.86-4.446,5.607-6.769,7.816l13.169-0.538
			c-1.218-1.359-2.521-2.719-3.738-3.852L146.557,359.541z M132.765,370.558h18.352v12.008h-2.804v-1.444h-12.886v1.501h-2.662
			V370.558z M135.427,373.078v5.494h12.886v-5.494H135.427z"/>
		<path class="st1" d="M161.167,369.17c-0.821-0.906-2.634-2.181-4.05-2.945l1.444-1.813c1.444,0.708,3.285,1.841,4.135,2.719
			L161.167,369.17z M157.684,380.951c1.02-2.181,2.464-5.806,3.512-8.978l2.096,1.359c-0.906,2.917-2.124,6.315-3.257,8.949
			L157.684,380.951z M161.649,361.892c-0.765-0.963-2.521-2.266-3.937-3.144l1.529-1.728c1.416,0.765,3.172,1.982,4.021,2.889
			L161.649,361.892z M164.962,367.244c-0.227,1.359-0.68,2.86-1.189,3.823c-0.255-0.255-0.85-0.623-1.218-0.821
			c0.538-0.963,0.85-2.181,1.02-3.342L164.962,367.244z M168.616,366.111c-0.057-0.255-0.17-0.566-0.283-0.85
			c-3.71,0.481-4.418,0.623-4.814,0.821c-0.085-0.255-0.368-0.878-0.566-1.218c0.453-0.057,0.85-0.425,1.331-0.935
			c0.283-0.283,0.935-1.048,1.586-1.982c-1.671,0.17-2.152,0.255-2.436,0.368c-0.085-0.283-0.34-0.906-0.566-1.189
			c0.34-0.057,0.623-0.34,0.935-0.736c0.255-0.425,1.274-2.039,1.671-3.54l1.558,0.538c-0.481,1.104-1.161,2.294-1.869,3.229
			l1.643-0.085c0.255-0.425,0.51-0.85,0.708-1.274l1.501,0.623c-0.906,1.529-2.067,3.059-3.257,4.333l2.067-0.255
			c-0.142-0.283-0.312-0.566-0.453-0.821l1.189-0.425c0.538,0.878,1.104,2.124,1.303,2.86L168.616,366.111z M182.04,376.816
			c0,0-0.057,0.68-0.17,0.991c-0.481,2.351-1.048,3.597-1.784,4.163c-0.651,0.481-1.303,0.623-2.351,0.651
			c-0.85,0-2.577,0-4.333-0.085c-0.028-0.623-0.34-1.444-0.708-2.011c1.728,0.17,3.568,0.198,4.276,0.198
			c0.623,0,0.906,0,1.218-0.198c0.396-0.283,0.708-0.906,1.02-2.011h-14.585c0.453-1.274,0.906-3.002,1.246-4.475h12.404v-1.218
			h-13.339v-1.586h15.803v4.39h-12.801l-0.34,1.189H182.04z M166.01,370.586c0-0.906-0.255-2.322-0.566-3.398l1.246-0.312
			c0.34,1.048,0.623,2.407,0.651,3.257L166.01,370.586z M168.474,369.878c-0.113-0.793-0.453-2.067-0.878-3.087l1.133-0.396
			c0.453,0.935,0.821,2.181,0.935,2.945L168.474,369.878z M176.177,360.9h-6.74v-1.473h2.86c-0.198-0.623-0.651-1.501-0.991-2.152
			l1.728-0.396c0.453,0.651,0.935,1.643,1.133,2.209l-1.303,0.34h3.313V360.9z M170.202,366.168h5.353v4.163h-5.353V366.168z
			 M175.526,363.138h-5.268v-1.331h5.268V363.138z M170.258,363.902h5.268v1.331h-5.268V363.902z M171.844,369.028h2.011v-1.558
			h-2.011V369.028z M178.131,367.131c-0.255,1.359-0.68,2.86-1.189,3.823c-0.283-0.255-0.85-0.651-1.218-0.85
			c0.538-0.935,0.821-2.152,1.02-3.313L178.131,367.131z M181.841,366.168c-0.085-0.255-0.198-0.595-0.34-0.963
			c-3.71,0.51-4.418,0.651-4.843,0.821c-0.085-0.227-0.368-0.878-0.538-1.218c0.396-0.057,0.821-0.396,1.331-0.963
			c0.255-0.283,0.906-1.02,1.558-1.954c-1.643,0.17-2.124,0.255-2.436,0.396c-0.085-0.283-0.34-0.906-0.538-1.218
			c0.312-0.028,0.595-0.312,0.906-0.736c0.283-0.396,1.274-2.011,1.699-3.512l1.529,0.538c-0.453,1.104-1.133,2.266-1.813,3.2
			l1.614-0.085c0.227-0.425,0.481-0.85,0.68-1.274l1.501,0.651c-0.906,1.529-2.039,3.059-3.257,4.333l2.067-0.255
			c-0.142-0.255-0.312-0.566-0.453-0.821l1.161-0.425c0.595,0.963,1.189,2.181,1.416,2.974L181.841,366.168z M179.151,370.813
			c0-0.906-0.255-2.464-0.595-3.653l1.246-0.312c0.34,1.161,0.623,2.634,0.651,3.54L179.151,370.813z M181.87,366.338
			c0.538,1.133,1.02,2.605,1.133,3.512l-1.218,0.538c-0.113-0.963-0.566-2.464-1.076-3.625L181.87,366.338z"/>
	</g>
	<g>
		<path class="st1" d="M34.395,714.494c0,0,0,0.68-0.028,1.048c-0.283,6.089-0.595,8.524-1.303,9.374
			c-0.538,0.595-1.048,0.821-1.869,0.906c-0.68,0.085-1.926,0.085-3.2,0.057c-0.057-0.736-0.34-1.756-0.765-2.436
			c1.189,0.113,2.294,0.113,2.747,0.113c0.425,0,0.68-0.057,0.935-0.312c0.396-0.453,0.651-2.152,0.878-6.372h-4.984
			c-0.595,4.191-2.011,7.675-6.485,9.686c-0.283-0.566-0.935-1.473-1.473-1.897v9.147h-6.032v2.181h-2.492V715.23h8.524v9.317
			c3.767-1.643,4.871-4.418,5.324-7.675h-4.22v-2.379H34.395z M12.814,717.609v5.607h3.653v-5.607H12.814z M16.468,731.43v-5.891
			h-3.653v5.891H16.468z M20.772,727.437h13.226v11.526h-2.605v-1.161h-8.1v1.274h-2.521V727.437z M23.293,729.787v5.636h8.1v-5.636
			H23.293z"/>
		<path class="st1" d="M42.208,725.766c-1.048-0.793-3.144-2.096-4.673-2.974l1.529-1.897c1.473,0.793,3.597,1.982,4.729,2.747
			L42.208,725.766z M44.275,729.702c-1.104,2.945-2.549,6.344-3.852,9.006l-2.379-1.416c1.189-2.209,2.889-5.834,4.135-9.063
			L44.275,729.702z M43.539,718.346c-1.048-0.821-3.144-2.152-4.645-3.115l1.558-1.841c1.444,0.821,3.597,2.067,4.701,2.86
			L43.539,718.346z M48.552,722.254c0,4.928-0.51,12.093-3.823,16.766c-0.453-0.425-1.586-1.104-2.209-1.388
			c3.172-4.418,3.455-10.79,3.455-15.378v-7.731h17.332v2.379H48.552V722.254z M53.026,731.713
			c-0.906,2.039-2.266,4.333-3.427,5.749c-0.481-0.34-1.501-0.963-2.096-1.274c1.218-1.331,2.436-3.313,3.172-5.126L53.026,731.713z
			 M57.189,729.674v6.825c0,1.189-0.198,1.841-1.048,2.181c-0.821,0.396-2.067,0.425-3.908,0.396
			c-0.085-0.651-0.425-1.614-0.68-2.266c1.189,0.057,2.351,0.028,2.69,0.028s0.453-0.113,0.453-0.425v-6.74h-4.786v-9.912h4.05
			c0.283-0.878,0.595-1.926,0.765-2.69l2.945,0.538c-0.368,0.765-0.765,1.473-1.104,2.152h5.806v9.912H57.189z M52.262,723.783
			h7.646v-2.039h-7.646V723.783z M52.262,727.72h7.646v-2.067h-7.646V727.72z M60.871,730.807c1.048,1.699,2.379,3.993,3.002,5.381
			l-2.407,1.048c-0.595-1.416-1.841-3.795-2.86-5.579L60.871,730.807z"/>
		<path class="st1" d="M82.08,726.785c2.407,3.483,6.315,6.882,10.054,8.666c-0.623,0.538-1.529,1.614-1.982,2.322
			c-3.625-2.011-7.307-5.579-9.884-9.431v10.733h-2.69v-10.903c-2.521,4.078-6.202,7.731-9.912,9.827
			c-0.453-0.68-1.303-1.671-1.926-2.209c3.682-1.813,7.477-5.324,9.799-9.006H66.9v-2.521h10.677v-4.333h2.69v4.333h10.677v2.521
			H82.08z M69.704,722.396h-2.662v-6.23h10.96c-0.34-0.793-0.793-1.728-1.161-2.436l2.634-0.765c0.566,0.963,1.246,2.209,1.586,3.2
			h9.799v6.23h-2.804v-3.738H69.704V722.396z"/>
		<path class="st1" d="M104.28,726.134v10.507c0,1.048-0.198,1.586-0.878,1.954c-0.68,0.34-1.671,0.368-3.2,0.368
			c-0.113-0.595-0.425-1.444-0.708-1.982c1.02,0.028,1.897,0.028,2.209,0c0.283,0,0.368-0.085,0.368-0.368v-3.2
			c-1.161,0.708-2.294,1.416-3.342,2.039l-0.793-1.586c-0.255,1.897-0.708,3.852-1.728,5.353c-0.368-0.425-1.331-1.104-1.841-1.331
			c1.444-2.152,1.586-5.041,1.586-7.278v-4.475h-1.388v-4.191h1.161v-7.901h8.638v7.901h1.161v4.191H104.28z M103.515,723.783
			h-7.023v1.529h7.023V723.783z M97.794,721.942h1.444v-4.446h2.945v-1.501h-4.39V721.942z M98.106,730.637
			c0,0.906-0.028,1.926-0.142,3.002c1.133-0.481,2.577-1.218,4.106-1.982v-4.531h-3.965v1.954l1.048-1.076
			c1.076,0.651,2.294,1.558,2.889,2.152l-1.189,1.359c-0.595-0.623-1.784-1.643-2.747-2.294V730.637z M102.184,721.942v-2.86h-1.501
			v2.86H102.184z M120.281,736.612v1.982h-14.755v-1.982h3.738c-0.255-0.765-0.566-1.643-0.878-2.379l1.897-0.566h-3.2v-5.353
			h11.668v5.353h-3.313l2.152,0.595c-0.481,0.793-0.906,1.614-1.331,2.351H120.281z M120.026,727.153h-14.188v-1.954h14.188V727.153
			z M119.346,723.953h-12.999v-8.723h3.455v-2.096h2.096v2.096h1.699v-2.096h2.096v2.096h3.653V723.953z M108.358,718.714h1.869
			v-1.699h-1.869V718.714z M108.358,722.141h1.869v-1.728h-1.869V722.141z M109.377,731.996h6.91v-1.982h-6.91V731.996z
			 M110.369,733.667c0.453,0.935,0.935,2.096,1.218,2.945h2.492c0.425-0.935,0.878-2.124,1.133-2.945H110.369z M113.682,718.714
			v-1.699h-1.784v1.699H113.682z M111.898,720.413v1.728h1.784v-1.728H111.898z M117.279,717.015h-1.926v1.699h1.926V717.015z
			 M117.279,720.413h-1.926v1.728h1.926V720.413z"/>
	</g>
</g>
<g>
</g>
<g>
</g>
<g>
</g>
<g>
</g>
<g>
</g>
<g>
</g>
</svg>
