<?xml version="1.0" encoding="utf-8"?>
<!-- Generator: Adobe Illustrator 16.0.0, SVG Export Plug-In . SVG Version: 6.00 Build 0)  -->
<!DOCTYPE svg PUBLIC "-//W3C//DTD SVG 1.1//EN" "http://www.w3.org/Graphics/SVG/1.1/DTD/svg11.dtd">
<svg version="1.1" id="Layer_1" xmlns="http://www.w3.org/2000/svg" xmlns:xlink="http://www.w3.org/1999/xlink" x="0px" y="0px"
	 width="1052.7px" height="285.172px" viewBox="0 0 1052.7 285.172" enable-background="new 0 0 1052.7 285.172"
	 xml:space="preserve">
<g>
	<g>
		<path fill="#FFFFFF" d="M54.2,82.672v140.5h-35v20.75H8.7V82.672H54.2z M19.2,211.922h25v-118h-25V211.922z M94.95,145.172
			l3.25-1.75l8.75,3.75c-7.25,11.5-19.25,31.75-28.5,45.25h21l2.25-0.5l5.5,2.25c-2.75,15.25-7,29.25-11.75,41.25
			c13.25,30,38.75,36.25,76.75,36.25c17.25,0,39.5-0.75,55.5-2c-2,2.5-3.25,8-3.75,11c-14.5,1-34.75,1.25-51.75,1.25
			c-41,0-66-6.5-81.75-35.75c-8.75,17.25-20,30-32.75,39c-1.25-2.75-5.25-6.75-7.5-8.75c20.75-13.75,37-39,44.5-73.5H78.45
			c-5.5,0-11.5,1.75-13.25,3.5c-0.75-2.75-3.75-9.5-5.25-11.75c3.5-1,6.75-3.25,9.75-6.5c4-4,13.75-21.25,20-32.25H60.95v-10.75
			H94.95z M97.7,130.672l-9.5,5.25c-4.75-8.75-15-23-23-33.25l8.75-4.25C82.95,108.422,92.95,122.172,97.7,130.672z M100.45,84.922
			h-34.5v-10.75h34.5v-16.5h11v16.5h28.25v10.75h-28.25v17.5h-11V84.922z M104.7,139.172c18.25-10.75,32.5-23.25,45.25-43l9.25,2.5
			c-2.75,5-6,9.25-9.25,13.25h49l2-1l6.75,4c-6.75,12.75-18,23.75-31.75,32.75c16,8,34.25,14.25,53.25,18c-2.5,1.75-5.75,5.75-7.5,8
			c-19.25-3.75-38.75-10.75-55.25-19.75c-17,9.5-37,16.75-58.25,21.5c-1.25-2.75-4-6.5-6.25-8.5c19.75-4,39-10,55-18.75
			c-9-5.25-17-11.75-23.5-18.25c-6.25,5.75-13.25,11-20.75,16C110.95,144.422,107.2,140.922,104.7,139.172z M160.45,262.922v-22.25
			H112.2v-9.25h48.25v-15.75h-36.5v-9.25h36.5v-16h-40.5v-9.25h40.5v-17h10.25v17h40v9.25h-40v16h36.25v9.25H170.7v15.75h47.25v9.25
			H170.7v22.25H160.45z M142.45,121.172c-0.75,0.75-1.5,1.5-2,2c6.75,7.25,15.75,13.75,26.25,19.75c9.75-6.25,18-13.5,24.75-21.75
			H142.45z M176.7,101.172v-16.25h-28.75v-10.75h28.75v-16.25h10.75v16.25h36.25v10.75h-36.25v16.25H176.7z"/>
		<path fill="#FFFFFF" d="M329.45,83.172v133h-35.5v20.75H283.7V83.172H329.45z M293.95,205.172h25.25v-111h-25.25V205.172z
			 M337.2,207.422l8.5,1.25c-0.75,21.5-3,45-11.75,58.5l-7.75-4.75C334.2,249.922,336.2,227.672,337.2,207.422z M405.7,66.922v10.5
			h-23v26.25h22.75v10.25H382.7v27.25h23v10.25h-23v27.75h27.75c0,0-0.25,4-0.25,5.5c-2.75,61.25-5,86-11,93.5
			c-3.25,4-6.25,4.75-12,5.25c-4.25,0.25-12.5,0.25-20-0.5c-0.25-2.75-1.25-7-3-10c8.75,1,17,1,19.75,1c3.5,0,5.25-0.25,7-2.75
			c2.75-3,4.75-13.5,6.75-37.25l-5,2c-2.25-8.5-8.75-21.75-14.5-31.75l6.5-2.5c5.25,7.5,10.5,17.25,13.25,24.5
			c1-9.25,1.75-23,2.25-36.75h-60.5v-122.5H405.7z M349.7,103.672h22.75v-26.25H349.7V103.672z M349.7,141.172h22.75v-27.25H349.7
			V141.172z M349.7,179.172h22.75v-27.75H349.7V179.172z M363.45,255.172l-8,1.25c0.25-12-1.25-30.75-3.75-45.25l7.5-1.25
			C361.95,224.672,363.7,243.172,363.45,255.172z M375.2,248.172c-1.25-10.75-5.25-27.25-10.5-39.75l7.25-2
			c5.25,12.75,10,29.25,11,39.75L375.2,248.172z M460.95,86.172h38.75v11h-40c-0.75,3.5-1.5,7-2.25,10.25
			c14.75,11.5,32.25,26.25,41.75,35.5l-7.25,8.75c-8.75-9-23.5-22.5-37.5-34c-6.75,17.75-18.25,28.25-38.5,36
			c-1.25-3-4.25-7-6.25-9.25c24.25-9,34.5-22,39.25-47.25h-36v-11h37.75c0.75-8,1.5-17,1.75-27.25h10.5
			C462.45,69.172,461.95,78.172,460.95,86.172z M502.2,168.672h-12.25v100.25c0,7.75-2.25,11-7.5,13c-5.25,1.75-15,1.75-31.75,1.75
			c-0.5-3-1.75-7-3-10.5c13.5,0.5,24.25,0.25,28,0c3.5,0,4.5-1,4.5-4.25v-100.25h-70.25v-10.75h92.25V168.672z M464.7,184.922v58.25
			h-32.25v15.75h-9.25v-74H464.7z M432.45,232.922h23v-37.5h-23V232.922z"/>
		<path fill="#FFFFFF" d="M607.95,82.922v132.5h-39v21.25H558.7V82.922H607.95z M568.95,204.672h28.75V93.922h-28.75V204.672z
			 M688.7,66.922v10.75h-36c-2.5,15.75-5.5,30.5-9.25,44.5h31l2.25-0.25l6.5,1.75c-8,78.75-31.5,131-65.25,159.5
			c-1.75-2.75-5.5-6.5-8.25-8.5c21.25-17,37-43.5,47.75-75.5c-7-8.5-19-19.5-29.75-27.5c-3.25,6.75-6.5,13-10,19.25
			c-1.75-1.5-6.75-5.5-9.25-6.75c17.25-26.75,27-66,33-106.5H613.7v-10.75H688.7z M631.45,162.422c11,7.5,22.5,17.25,29.5,25.25
			c5-17.25,8.5-35.75,10.5-54.5H641.2C638.45,143.422,634.95,153.172,631.45,162.422z M733.7,105.422h34.5v11.25h-34.5v47.5h44
			v11.25h-38.25c7.5,33.25,23.25,67.75,41.5,84.25c-2.5,2-6,6.25-7.75,9.25c-17.25-17.25-31.5-49.75-39.5-81.75v97h-10.25v-97.5
			c-8.25,31.5-25,66.25-43.75,84c-1.75-3-4.75-7.25-7-9.5c19.5-17.75,37-52.75,45.25-85.75h-35.5v-11.25h41v-47.5H702.7
			c-2.75,13-6.5,24.75-10.5,33.5c-2.5-1.25-7.25-3-10-3.75c9.75-20.5,15.75-54.25,16.5-82.25l10.75,1.25
			c-0.75,12.25-2.25,26.25-4.5,40h18.5v-46.5h10.25V105.422z"/>
		<path fill="#FFFFFF" d="M949.7,60.922c-4.75,19-11,37.75-17.75,55.5v167.5H920.7v-141.25c-7.5,15-15.5,28.25-24.25,39.5
			c-1.25-2.5-5.75-7.5-7.75-9.25v46.75h-44v18h-10.75V86.422h54.75v85c22.5-27.75,39.25-69.75,49.75-113L949.7,60.922z
			 M844.7,208.172h33.25V97.922H844.7V208.172z M998.95,58.172v70.25h52.75v11.5h-51c6.25,60.5,21,111.5,52,134.25
			c-2.75,2.25-7,6.5-9,10c-26-20.75-40-59.5-48.25-107.25c-4.25,37.25-16.25,75.5-48,107.25c-2.25-2.5-6.5-6-10.25-8.25
			c40.75-39.5,49.25-91,50.25-136h-43.5v-11.5h44v-70.25H998.95z M1024.7,62.922c10,15,21.25,35.5,26,47.75l-9.75,4.5
			c-4.5-12.5-15.25-33-25.5-48.5L1024.7,62.922z"/>
	</g>
</g>
<g>
	<g>
		<path fill="#6FCACA" d="M16.452,32.168L0,3.675h32.903L16.452,32.168z"/>
		<path fill="#6FCACA" d="M54.321,25.658H46.27v2.73h-1.645V3.325h9.696V25.658z M46.27,4.9v8.611h6.476V4.9H46.27z M52.746,24.083
			v-9.031H46.27v9.031H52.746z M73.678,2.45c0,0,0,0.56-0.035,0.84c-0.455,7.806-0.84,10.571-1.75,11.551
			c-0.525,0.525-1.05,0.735-1.96,0.77c-0.735,0.07-2.275,0.035-3.851-0.07c-0.035-0.49-0.175-1.12-0.49-1.575
			c1.68,0.14,3.255,0.175,3.78,0.175c0.595,0,0.875-0.07,1.155-0.35c0.63-0.665,1.05-3.22,1.435-9.766h-7.806
			c-0.84,5.25-2.766,9.976-8.226,12.496c-0.245-0.35-0.7-0.945-1.085-1.225c5.146-2.205,6.896-6.616,7.631-11.271h-6.616V2.45
			H73.678z M57.051,18.307h16.207v13.932h-1.645v-1.68H58.661v1.82h-1.61V18.307z M58.661,19.882v9.101h12.951v-9.101H58.661z"/>
		<path fill="#6FCACA" d="M84.315,15.471c-1.26-1.19-3.815-2.8-6.021-3.815l0.98-1.19c2.135,0.945,4.726,2.485,5.986,3.641
			L84.315,15.471z M86.1,20.547c-1.54,3.675-3.675,8.191-5.425,11.341l-1.47-1.015c1.61-2.695,3.92-7.386,5.565-11.271L86.1,20.547z
			 M85.89,6.44c-1.19-1.33-3.71-3.045-5.846-4.13l1.015-1.19c2.065,1.05,4.656,2.695,5.846,3.955L85.89,6.44z M101.222,19.987
			v10.431c0,0.98-0.21,1.47-1.015,1.715c-0.77,0.28-2.205,0.28-4.62,0.245c-0.105-0.385-0.35-1.015-0.525-1.47
			c1.89,0.07,3.465,0.035,3.92,0.035c0.49-0.035,0.63-0.175,0.63-0.525V19.987h-6.721V8.261h5.845
			c0.385-1.295,0.771-3.045,0.98-4.34h-9.346v7.946c0,6.021-0.525,14.421-4.655,20.267c-0.28-0.245-0.98-0.7-1.365-0.84
			c3.99-5.741,4.375-13.651,4.375-19.427V2.345h21.072V3.92h-8.786l0.56,0.14c-0.42,1.365-0.84,2.94-1.225,4.201h7.911v11.726
			H101.222z M96.076,22.682c-1.19,2.765-2.975,5.67-4.726,7.596c-0.315-0.245-1.015-0.735-1.435-0.945
			c1.855-1.855,3.5-4.48,4.585-7.071L96.076,22.682z M94.466,13.371h12.181V9.696H94.466V13.371z M94.466,18.552h12.181v-3.746
			H94.466V18.552z M105.807,22.052c1.82,2.135,3.781,5.075,4.551,7.036l-1.541,0.735c-0.735-1.925-2.625-4.936-4.445-7.141
			L105.807,22.052z"/>
		<path fill="#6FCACA" d="M144.693,23.907h-30.908v-1.54h14.562v-3.991h-11.622v-1.47h11.622v-3.605H117.39V2.135h23.453v11.166
			h-10.851v3.605h11.656v1.47h-11.656v3.991h14.702V23.907z M114.029,31.783c1.61-1.365,3.116-3.71,3.991-5.881l1.54,0.42
			c-0.91,2.17-2.345,4.69-4.061,6.23L114.029,31.783z M128.346,11.796V3.605H119v8.191H128.346z M122.885,4.725
			c1.12,1.715,2.206,3.956,2.556,5.391l-1.331,0.56c-0.35-1.505-1.365-3.78-2.45-5.496L122.885,4.725z M125.511,26.498
			c0.455,1.75,0.805,4.13,0.805,5.46l-1.646,0.245c0-1.4-0.28-3.815-0.735-5.636L125.511,26.498z M139.162,3.605h-9.171v8.191h9.171
			V3.605z M132.792,26.323c0.84,1.715,1.715,4.06,2.1,5.46l-1.645,0.42c-0.35-1.435-1.19-3.815-2.03-5.601L132.792,26.323z
			 M132.126,10.571c1.015-1.54,2.38-4.095,3.115-5.846l1.4,0.595c-1.05,1.96-2.346,4.306-3.396,5.811L132.126,10.571z
			 M139.932,25.938c1.785,1.715,3.815,4.166,4.795,5.775l-1.54,0.7c-0.945-1.575-2.975-4.095-4.76-5.916L139.932,25.938z"/>
		<path fill="#6FCACA" d="M160.896,16.347v-3.396h-10.291v3.396h-1.4v-4.761h1.995V2.03h9.136v9.556h1.996v4.761H160.896z
			 M160.335,30.523c0,0.91-0.21,1.365-0.84,1.61c-0.665,0.245-1.785,0.245-3.746,0.245c-0.07-0.35-0.35-0.945-0.56-1.365
			c1.505,0.035,2.766,0.035,3.081,0c0.385,0,0.525-0.105,0.525-0.49v-4.411h-6.125v6.301h-1.505V15.787h9.171V30.523z M152.6,11.586
			h2.24V6.195h4.025V3.43H152.6V11.586z M152.67,17.151v3.045h6.125v-3.045H152.67z M158.795,24.748v-3.15h-6.125v3.15H158.795z
			 M158.866,7.491h-2.73v4.095h2.73V7.491z M180.148,30.208v1.4h-18.132v-1.4h5.811c-0.175-1.155-0.7-2.695-1.331-3.885l1.331-0.42
			c0.7,1.225,1.26,2.905,1.435,4.025l-0.805,0.28h5.041l-0.7-0.28c0.56-1.155,1.26-2.905,1.61-4.06l1.47,0.525
			c-0.595,1.295-1.26,2.73-1.82,3.815H180.148z M179.973,17.327h-17.397v-1.4h17.397V17.327z M178.538,13.861h-14.702V4.095h4.306
			V0.7h1.4v3.396h3.081V0.7h1.4v3.396h4.516V13.861z M164.606,25.658v-6.301h13.162v6.301H164.606z M165.236,8.261h3.045V5.425
			h-3.045V8.261z M165.236,12.531h3.045V9.626h-3.045V12.531z M166.111,24.362h10.116v-3.71h-10.116V24.362z M172.622,8.261V5.425
			h-3.081v2.835H172.622z M169.542,9.626v2.905h3.081V9.626H169.542z M177.067,5.425h-3.185v2.835h3.185V5.425z M177.067,9.626
			h-3.185v2.905h3.185V9.626z"/>
		<path fill="#6FCACA" d="M197.821,27.933c-1.015-1.75-3.01-4.305-4.936-6.511v10.921h-1.61V21.387
			c-1.96,3.36-4.516,6.405-7.071,8.541c-0.28-0.28-0.945-0.77-1.33-1.015c2.94-2.24,5.67-5.53,7.491-9.066h-6.511v-1.54h7.421
			v-4.095h-7.736v-1.505h10.081c0.735-1.785,1.68-4.516,2.135-6.335l1.61,0.42c-0.63,1.89-1.47,4.235-2.17,5.916h4.9v1.505h-7.211
			v4.095h7.036v1.54h-6.546c2.17,2.345,4.516,5.25,5.67,7.176L197.821,27.933z M199.606,5.985h-15.261V4.48h7.315
			c-0.42-1.12-1.085-2.556-1.715-3.641l1.68-0.42c0.735,1.26,1.505,2.905,1.96,4.061h6.021V5.985z M188.405,12.216
			c-0.175-1.47-0.805-3.746-1.54-5.461l1.47-0.35c0.805,1.715,1.435,3.956,1.61,5.391L188.405,12.216z M215.148,14.211h-4.306
			v18.062h-1.645V14.211h-6.021v1.75c0,4.971-0.455,11.656-3.815,16.277c-0.28-0.35-0.91-0.805-1.295-0.98
			c3.22-4.375,3.535-10.536,3.535-15.297V4.095c4.026-0.595,8.716-1.61,11.271-2.555l1.435,1.225
			c-2.94,1.015-7.246,1.925-11.131,2.485v7.386h11.972V14.211z"/>
		<path fill="#6FCACA" d="M227.081,17.852c-0.49,3.115-1.365,5.811-2.451,8.051c2.416,3.886,7.141,4.48,14.072,4.48
			c3.57,0,8.296-0.14,11.656-0.42c-0.315,0.42-0.525,1.225-0.595,1.715c-3.081,0.175-7.386,0.28-11.061,0.28
			c-7.456,0-11.971-0.735-14.807-4.69c-1.295,2.275-2.905,4.025-4.726,5.321c-0.245-0.42-0.84-1.015-1.19-1.295
			c3.465-2.24,6.09-6.335,7.246-12.286h-4.271c-0.945,0-1.785,0.21-2.065,0.49c-0.105-0.49-0.525-1.4-0.735-1.82
			c0.455-0.14,1.05-0.385,1.645-1.015c0.91-0.945,3.431-4.235,4.971-6.441h-6.23V8.75h7.315l0.455-0.21l1.295,0.665
			c-1.54,2.101-4.48,6.021-6.546,8.331h4.795l0.315-0.035L227.081,17.852z M224.35,7.105c-0.945-1.435-2.8-3.85-4.34-5.565
			l1.295-0.735c1.575,1.715,3.465,3.991,4.375,5.391L224.35,7.105z M238.142,13.266h-10.186v-1.54h10.186V6.931h-5.671
			c-0.875,1.505-1.82,2.905-2.8,4.025c-0.35-0.245-1.05-0.665-1.435-0.84c2.135-2.205,3.92-5.496,5.041-8.786l1.575,0.35
			c-0.455,1.295-1.015,2.59-1.61,3.78h4.901V0.805h1.61V5.46h8.646v1.47h-8.646v4.795h10.011v1.54h-10.011v3.956h7.491v9.661H231
			v-9.661h7.141V13.266z M245.597,18.692h-12.986v6.721h12.986V18.692z"/>
		<path fill="#6FCACA" d="M284.098,21.247h-14.001v8.856c0,1.19-0.35,1.715-1.295,1.995c-0.98,0.315-2.625,0.315-5.566,0.315
			c-0.14-0.49-0.49-1.155-0.77-1.61c2.521,0.035,4.55,0.035,5.11,0c0.595-0.035,0.771-0.175,0.771-0.665v-8.891h-14.072v-1.645
			h14.072v-2.38c2.45-1.155,5.25-3.045,7.246-4.831h-15.717v-1.61h17.397l0.385-0.07l1.19,0.84c-2.275,2.38-5.706,4.761-8.751,6.336
			v1.715h14.001V21.247z M256.48,11.236h-1.646v-6.65h14.211c-0.49-1.12-1.33-2.521-2.1-3.57l1.575-0.561
			c0.98,1.26,1.995,2.906,2.45,4.131h12.671v6.65h-1.715V6.195H256.48V11.236z"/>
		<path fill="#6FCACA" d="M302.473,0l1.365,0.84c-4.305,4.411-6.65,9.766-6.65,15.717s2.345,11.306,6.65,15.716l-1.365,0.84
			c-4.445-4.585-7-10.081-7-16.557S298.027,4.585,302.473,0z"/>
		<path fill="#6FCACA" d="M324.872,10.396c3.22,3.395,8.401,6.721,12.776,8.296c-0.42,0.315-0.91,0.91-1.155,1.365
			c-4.621-1.891-10.221-5.741-13.546-9.661h-0.42v7.351h-1.68v-7.351h-0.385c-3.255,4.2-8.786,8.191-13.441,10.151
			c-0.245-0.42-0.735-1.015-1.155-1.33c4.446-1.68,9.556-5.146,12.707-8.821H306.39V8.821h14.457V4.41
			c-3.746,0.385-7.666,0.665-11.271,0.875c-0.07-0.42-0.28-1.05-0.455-1.47c8.016-0.42,17.747-1.365,22.752-2.73l1.4,1.33
			c-2.871,0.735-6.686,1.33-10.746,1.82v4.585h14.596v1.575H324.872z M311.605,18.797h20.722v13.546h-1.68v-1.295H313.25v1.365
			h-1.645V18.797z M313.25,20.232v3.92h17.397v-3.92H313.25z M330.647,29.613v-4.095H313.25v4.095H330.647z"/>
		<path fill="#6FCACA" d="M346.71,15.471c-1.26-1.225-3.85-2.8-6.056-3.815l0.98-1.225c2.17,0.945,4.761,2.485,6.021,3.641
			L346.71,15.471z M366.067,13.301c1.61,3.22,4.341,6.266,7.211,7.666c-0.385,0.35-0.945,0.91-1.19,1.331
			c-1.855-1.085-3.641-2.801-5.146-4.796v7.211h-11.341v4.34c0,1.155,0.35,1.4,2.625,1.4h8.366c1.82,0,2.135-0.595,2.275-4.166
			c0.42,0.315,1.05,0.525,1.541,0.665c-0.245,3.99-0.84,5.076-3.746,5.076h-8.436c-3.29,0-4.235-0.525-4.235-3.01V18.027
			c-1.47,1.855-3.15,3.465-4.76,4.55c-0.21-0.35-0.595-0.77-0.98-1.085c-1.505,3.465-3.5,7.491-5.146,10.396l-1.47-1.05
			c1.68-2.695,4.025-7.351,5.706-11.271l1.33,1.015l-0.21,0.455c2.555-1.646,5.25-4.69,6.826-7.736h-6.826v-1.61h6.476V6.755H350
			v-1.54h4.936v-4.48h1.645v4.48h7.946v-4.48h1.645v4.48h5.671v1.54h-5.671v4.936h6.616v1.61H366.067z M348.32,6.405
			c-1.225-1.295-3.746-3.045-5.916-4.095l1.015-1.19c2.135,1.015,4.691,2.66,5.916,3.92L348.32,6.405z M366.802,17.327
			c-0.945-1.26-1.75-2.625-2.345-4.025h-7.491c-0.63,1.365-1.47,2.73-2.416,4.025H366.802z M365.367,18.762h-9.766v4.516h9.766
			V18.762z M356.581,11.691h7.946V6.755h-7.946V11.691z"/>
		<path fill="#6FCACA" d="M404.917,29.683c0,1.4-0.42,1.96-1.435,2.275c-1.05,0.315-2.976,0.315-6.406,0.28
			c-0.035-0.455-0.35-1.19-0.595-1.646c2.73,0.07,5.146,0.035,5.846,0c0.665,0,0.91-0.21,0.91-0.91v-8.261h-10.606v10.711h-1.68
			V21.422h-9.696c-0.49,3.956-1.645,8.086-4.375,11.201c-0.245-0.385-0.91-0.98-1.295-1.19c3.885-4.375,4.271-10.571,4.271-15.507
			V3.255h25.063V29.683z M390.951,19.812v-6.756h-9.416v2.87c0,1.225-0.035,2.556-0.14,3.886H390.951z M381.535,4.865v6.581h9.416
			V4.865H381.535z M403.237,4.865h-10.606v6.581h10.606V4.865z M403.237,19.812v-6.756h-10.606v6.756H403.237z"/>
		<path fill="#6FCACA" d="M441.598,21.247h-14.001v8.856c0,1.19-0.35,1.715-1.295,1.995c-0.98,0.315-2.625,0.315-5.566,0.315
			c-0.14-0.49-0.49-1.155-0.77-1.61c2.521,0.035,4.55,0.035,5.11,0c0.595-0.035,0.771-0.175,0.771-0.665v-8.891h-14.072v-1.645
			h14.072v-2.38c2.45-1.155,5.25-3.045,7.246-4.831h-15.717v-1.61h17.397l0.385-0.07l1.19,0.84c-2.275,2.38-5.706,4.761-8.751,6.336
			v1.715h14.001V21.247z M413.98,11.236h-1.646v-6.65h14.211c-0.49-1.12-1.33-2.521-2.1-3.57l1.575-0.561
			c0.98,1.26,1.995,2.906,2.45,4.131h12.671v6.65h-1.715V6.195H413.98V11.236z"/>
		<path fill="#6FCACA" d="M445.97,33.113l-1.365-0.84c4.306-4.41,6.651-9.766,6.651-15.716S448.91,5.25,444.604,0.84L445.97,0
			c4.445,4.585,7.001,10.081,7.001,16.557S450.415,28.528,445.97,33.113z"/>
	</g>
</g>
<g>
</g>
<g>
</g>
<g>
</g>
<g>
</g>
<g>
</g>
<g>
</g>
</svg>
