<?xml version="1.0" encoding="utf-8"?>
<!-- Generator: Adobe Illustrator 16.0.0, SVG Export Plug-In . SVG Version: 6.00 Build 0)  -->
<!DOCTYPE svg PUBLIC "-//W3C//DTD SVG 1.1//EN" "http://www.w3.org/Graphics/SVG/1.1/DTD/svg11.dtd">
<svg version="1.1" id="Layer_1" xmlns="http://www.w3.org/2000/svg" xmlns:xlink="http://www.w3.org/1999/xlink" x="0px" y="0px"
	 width="1057.75px" height="284.673px" viewBox="0 0 1057.75 284.673" enable-background="new 0 0 1057.75 284.673"
	 xml:space="preserve">
<g>
	<g>
		<path fill="#FFFFFF" d="M209.25,119.422H39.5v22.75c0,43.5-3.5,101-28.75,141c-2.25-1.5-7.75-4.75-10.75-6
			c25.25-40,27.5-95,27.5-135v-72.25h181.75V119.422z M36.25,239.922c19-11,33.5-23.5,47.5-45.5l10,3.75
			c-3.25,4.75-6.5,9-9.25,12.75h33l2.25-0.25l6.25,2.75c-10.5,36-40,57.75-78.25,70.75c-1.5-2.25-5.25-6.5-7.5-8.5
			c18.25-5.5,33.75-13,46-22.25c-6.75-5.75-15.25-13.25-23.5-19.75c-5.25,4.75-11.5,9.25-18.5,14
			C42.5,245.672,38.5,241.922,36.25,239.922z M39.5,80.172v28.75h158v-28.75H39.5z M220.5,163.672h-69.75
			c19.5,15.25,46.25,27.5,74.75,33.25c-2.5,2-5.5,6-6.75,9c-27.25-7.25-61-22.25-80.25-42.25h-0.75v35.75h-11.5v-35.75H126
			c-18.75,18.75-52,35.25-76.75,43c-1.5-2.75-4.25-6.25-6.75-8.75c24.75-6,51.75-19,71.25-34.25H49v-9.75h43.25
			c-4.75-7.5-13.25-17.25-21.5-24l8.25-5c9,7.25,18.75,17.25,22.5,24.75l-6.5,4.25h31.25v-31h11.5v31h30l-5.75-3
			c7.75-7.25,17.5-19.25,22.75-27.75l10.25,4.75c-7,9-15.75,19-23,26h48.5V163.672z M76.5,220.672c-2.25,2.5-4.5,4.75-6.75,7.25
			c8.75,5.75,17.75,13.5,24.25,19c8.25-7.75,14.5-16.75,17.75-26.25H76.5z M170.75,197.922h10.75v14.25h35v9.75h-35v24.75h41.75
			v10.25H181.5v27.75h-10.75v-27.75h-41.5c4.75-11.5,7-21,10.75-35h-9.5v-9.75h40.25V197.922z M170.75,246.672v-24.75h-20.5
			c-3,10.25-4.25,14.5-7.75,24.75H170.75z"/>
		<path fill="#FFFFFF" d="M339.5,67.172v200.5c0,7.25-2,10.75-6.25,12.75c-5,1.75-13,2-27.25,1.75c-0.75-2.5-2.5-7.25-4.25-10.25
			c11.25,0.25,20.5,0.25,23.25,0c3,0,4.25-1,4.25-4v-77c-7,5.25-15,11.5-22,16.75l-6.5-10c7.5-4.5,18-12,28.5-19.75v-36.25l-8,5.25
			c-4.25-7.5-12.5-18.75-19.75-26.75l8.25-4.75c7.5,8,15.5,18.75,19.5,25.5v-62.5h-28.5v77.25c0,39.25-2,91.75-16.5,128.5
			c-2-2-6.75-5-9.25-6.25c14-35.75,15.25-85.75,15.25-122v-88.75H339.5z M382.75,115.422l3-1.5l8.75,3c-7,14.25-20.75,44-30,60.5h20
			l1.75-0.25l5.75,2.5c-3,20.75-7.75,39.5-13.75,55.25c13,30,36,37,74.5,37c17,0,39-0.75,54.5-2c-1.75,2.75-3.25,8-3.5,11.25
			c-14.5,1-34.25,1-51,1c-40.5,0-64.25-6.75-79.75-35.75c-7,16.25-15.75,29-25.75,38.25c-1.5-2.25-5.25-6.5-8-8.25
			c19.5-17.5,33.75-48.75,40.5-88.25h-15.5c-4.75,0-11,1.75-12.75,3.25c-0.75-3-3.75-9-5-11.75c3.25-1.25,6.75-2.75,9.75-7
			c4-5.5,15.5-31.25,22-46.5H347.5v-10.75H382.75z M376.75,103.172c-4.5-10.5-14-27-21.5-39.25l9.25-2.75
			c8.25,12,17.75,27.75,22,37.75L376.75,103.172z M443.5,226.922h-47v-10.5h47v-23h-38.25v-76.75h38.25v-22.25H398v-10.5h45.5
			v-26.25h10.75v26.25h44.25v10.5h-44.25v22.25H493v76.75h-38.75v23h47.5v10.5h-47.5v35.25H443.5V226.922z M415,149.922h29.25v-23.5
			H415V149.922z M415,183.672h29.25v-24H415V183.672z M483,126.422h-29.25v23.5H483V126.422z M483,159.672h-29.25v24H483V159.672z"
			/>
		<path fill="#FFFFFF" d="M603.25,90.922v-33.5h11.25v33.5H650v11h-35.5v38.25h38v11H617v38.5h35v11h-35v55.75
			c16.25,7.5,37.25,10,65.5,10h98.25c-2.25,2.75-4.5,8-5.25,11.25h-92.75c-60,0-89.25-10.75-106.5-52.5
			c-3,20.75-8.75,41.5-19.5,58.25c-2.25-1.75-6.25-5-8.75-6.25c19-30,21.75-73.75,21.75-107.5l10.5,0.75
			c-0.25,10.75-0.75,22.25-1.5,33.75c5.75,21,14.25,34.75,27,43.75v-96.75h-53v-11h50.5v-38.25H562.5v-11H603.25z M703.75,86.922
			c-2.75-7.75-7-16.5-10.25-24.5l10.75-2.5c4.5,8.75,9,18.75,11.75,27h44v80.75h-49.25c4.5,11.25,10.25,21.75,17.5,31.25
			c12.25-7.25,27.25-17.75,36-25.5l8.75,7.25c-11,9.25-26.25,18.75-39,25.5c12.75,14.75,28.25,26.5,44.75,32.5c-2.75,2.25-6,6.5-8,9
			c-30.5-13-57.25-41.75-71.75-80h-23.75v66.25l42.25-12c0,3.25,0.75,7.75,1.5,10c-50,14.75-56,17-59.5,19.5c-1-2.75-4-7-6-9.5
			c3.75-1.75,10.25-6,10.25-15v-140H703.75z M675.25,122.922h73.25v-25.5h-73.25V122.922z M675.25,157.422h73.25v-24.25h-73.25
			V157.422z"/>
		<path fill="#FFFFFF" d="M1057.75,173.672H1043v35.75h-28.5c10.25,23.25,27.75,47.75,43.25,59.75c-2.5,1.5-6.25,5.25-8.25,8.25
			c-13.75-12.25-29.5-34.5-40.25-56.5v62.75H999v-74.25h-26.25v74.5h-10v-60.75c-9,23-22.75,45.25-36,57.25c-1.5-2.25-4-4.75-6-6.75
			v6h-10.5v-15H843v18.25h-10v-166.5h26.25v-36.5H828v-10.5h96.5v10.5h-31v36.5h27.25v154c14.75-12.75,29-37.25,38-61h-27.5v-10
			h31.5v-25.75h-36v-10h36v-24h-30.5v-10h30.5v-21.75H929.5v-10.25h68.75c9.25-11.25,20.75-28.25,27-40l10.5,4.75
			c-7.25,11.75-16.5,25-25,35.25h43.5v10.25h-45v21.75H1043v34h14.75V173.672z M910.25,254.422v-72c-0.25,0-0.75,0-1.25,0h-13.25
			c-9,0-11.75-1.5-11.75-12v-43.25h-15.25v20.25c0,15.25-3.5,36.5-18.75,50.75c-1.25-1.75-4.5-4.25-6.75-5.5
			c14.5-14,17-31.75,17-45.25v-20.25H843v127.25H910.25z M900.25,213.172v10H854.5v-10H900.25z M884,79.922h-15.25v36.5H884V79.922z
			 M907.25,173.422c1.75,0,2.75,0,3-0.25v-46H892.5v43.25c0,2.5,0.5,3,3.75,3H907.25z M955.5,58.422
			c7.25,9.75,16.25,23.25,20.75,31.25l-10,5.25c-4.5-8.5-13.25-22.25-20.5-32.5L955.5,58.422z M972.75,129.672H999v-21.75h-26.25
			V129.672z M972.75,163.672H999v-24h-26.25V163.672z M999,199.422v-25.75h-26.25v25.75H999z M1009.25,139.672v24h23.25v-24H1009.25
			z M1032.5,173.672h-23.25v25.75h23.25V173.672z"/>
	</g>
</g>
<g>
	<g>
		<path fill="#6FCACA" d="M18.002,32.168L1.55,3.675h32.903L18.002,32.168z"/>
		<path fill="#6FCACA" d="M55.871,25.658H47.82v2.73h-1.645V3.325h9.696V25.658z M47.82,4.9v8.611h6.476V4.9H47.82z M54.296,24.083
			v-9.031H47.82v9.031H54.296z M75.228,2.45c0,0,0,0.56-0.035,0.84c-0.455,7.806-0.84,10.571-1.75,11.551
			c-0.525,0.525-1.05,0.735-1.96,0.77c-0.735,0.07-2.275,0.035-3.851-0.07c-0.035-0.49-0.175-1.12-0.49-1.575
			c1.68,0.14,3.255,0.175,3.78,0.175c0.595,0,0.875-0.07,1.155-0.35c0.63-0.665,1.05-3.22,1.435-9.766h-7.806
			c-0.84,5.25-2.766,9.976-8.226,12.496c-0.245-0.35-0.7-0.945-1.085-1.225c5.146-2.205,6.896-6.616,7.631-11.271h-6.616V2.45
			H75.228z M58.601,18.307h16.207v13.932h-1.645v-1.68H60.211v1.82h-1.61V18.307z M60.211,19.882v9.101h12.951v-9.101H60.211z"/>
		<path fill="#6FCACA" d="M85.865,15.471c-1.26-1.19-3.815-2.8-6.021-3.815l0.98-1.19c2.135,0.945,4.726,2.485,5.986,3.641
			L85.865,15.471z M87.65,20.547c-1.54,3.675-3.675,8.191-5.425,11.341l-1.47-1.015c1.61-2.695,3.92-7.386,5.565-11.271
			L87.65,20.547z M87.44,6.44c-1.19-1.33-3.71-3.045-5.846-4.13l1.015-1.19c2.065,1.05,4.656,2.695,5.846,3.955L87.44,6.44z
			 M102.772,19.987v10.431c0,0.98-0.21,1.47-1.015,1.715c-0.77,0.28-2.205,0.28-4.62,0.245c-0.105-0.385-0.35-1.015-0.525-1.47
			c1.89,0.07,3.465,0.035,3.92,0.035c0.49-0.035,0.63-0.175,0.63-0.525V19.987h-6.721V8.261h5.845
			c0.385-1.295,0.771-3.045,0.98-4.34h-9.346v7.946c0,6.021-0.525,14.421-4.655,20.267c-0.28-0.245-0.98-0.7-1.365-0.84
			c3.99-5.741,4.375-13.651,4.375-19.427V2.345h21.072V3.92h-8.786l0.56,0.14c-0.42,1.365-0.84,2.94-1.225,4.201h7.911v11.726
			H102.772z M97.626,22.682c-1.19,2.765-2.975,5.67-4.726,7.596c-0.315-0.245-1.015-0.735-1.435-0.945
			c1.855-1.855,3.5-4.48,4.585-7.071L97.626,22.682z M96.017,13.371h12.181V9.696H96.017V13.371z M96.017,18.552h12.181v-3.746
			H96.017V18.552z M107.357,22.052c1.82,2.135,3.781,5.075,4.551,7.036l-1.541,0.735c-0.735-1.925-2.625-4.936-4.445-7.141
			L107.357,22.052z"/>
		<path fill="#6FCACA" d="M146.243,23.907h-30.908v-1.54h14.562v-3.991h-11.622v-1.47h11.622v-3.605H118.94V2.135h23.453v11.166
			h-10.851v3.605h11.656v1.47h-11.656v3.991h14.702V23.907z M115.58,31.783c1.61-1.365,3.116-3.71,3.991-5.881l1.54,0.42
			c-0.91,2.17-2.345,4.69-4.061,6.23L115.58,31.783z M129.896,11.796V3.605h-9.346v8.191H129.896z M124.436,4.725
			c1.12,1.715,2.206,3.956,2.556,5.391l-1.331,0.56c-0.35-1.505-1.365-3.78-2.45-5.496L124.436,4.725z M127.061,26.498
			c0.455,1.75,0.805,4.13,0.805,5.46l-1.646,0.245c0-1.4-0.28-3.815-0.735-5.636L127.061,26.498z M140.712,3.605h-9.171v8.191h9.171
			V3.605z M134.342,26.323c0.84,1.715,1.715,4.06,2.1,5.46l-1.645,0.42c-0.35-1.435-1.19-3.815-2.03-5.601L134.342,26.323z
			 M133.677,10.571c1.015-1.54,2.38-4.095,3.115-5.846l1.4,0.595c-1.05,1.96-2.346,4.306-3.396,5.811L133.677,10.571z
			 M141.482,25.938c1.785,1.715,3.815,4.166,4.795,5.775l-1.54,0.7c-0.945-1.575-2.975-4.095-4.76-5.916L141.482,25.938z"/>
		<path fill="#6FCACA" d="M162.446,16.347v-3.396h-10.291v3.396h-1.4v-4.761h1.995V2.03h9.136v9.556h1.996v4.761H162.446z
			 M161.886,30.523c0,0.91-0.21,1.365-0.84,1.61c-0.665,0.245-1.785,0.245-3.746,0.245c-0.07-0.35-0.35-0.945-0.56-1.365
			c1.505,0.035,2.766,0.035,3.081,0c0.385,0,0.525-0.105,0.525-0.49v-4.411h-6.125v6.301h-1.505V15.787h9.171V30.523z
			 M154.15,11.586h2.24V6.195h4.025V3.43h-6.266V11.586z M154.22,17.151v3.045h6.125v-3.045H154.22z M160.346,24.748v-3.15h-6.125
			v3.15H160.346z M160.416,7.491h-2.73v4.095h2.73V7.491z M181.698,30.208v1.4h-18.132v-1.4h5.811
			c-0.175-1.155-0.7-2.695-1.331-3.885l1.331-0.42c0.7,1.225,1.26,2.905,1.435,4.025l-0.805,0.28h5.041l-0.7-0.28
			c0.56-1.155,1.26-2.905,1.61-4.06l1.47,0.525c-0.595,1.295-1.26,2.73-1.82,3.815H181.698z M181.523,17.327h-17.397v-1.4h17.397
			V17.327z M180.088,13.861h-14.702V4.095h4.306V0.7h1.4v3.396h3.081V0.7h1.4v3.396h4.516V13.861z M166.156,25.658v-6.301h13.162
			v6.301H166.156z M166.787,8.261h3.045V5.425h-3.045V8.261z M166.787,12.531h3.045V9.626h-3.045V12.531z M167.662,24.362h10.116
			v-3.71h-10.116V24.362z M174.172,8.261V5.425h-3.081v2.835H174.172z M171.092,9.626v2.905h3.081V9.626H171.092z M178.618,5.425
			h-3.185v2.835h3.185V5.425z M178.618,9.626h-3.185v2.905h3.185V9.626z"/>
		<path fill="#6FCACA" d="M199.371,27.933c-1.015-1.75-3.01-4.305-4.936-6.511v10.921h-1.61V21.387
			c-1.96,3.36-4.516,6.405-7.071,8.541c-0.28-0.28-0.945-0.77-1.33-1.015c2.94-2.24,5.67-5.53,7.491-9.066h-6.511v-1.54h7.421
			v-4.095h-7.736v-1.505h10.081c0.735-1.785,1.68-4.516,2.135-6.335l1.61,0.42c-0.63,1.89-1.47,4.235-2.17,5.916h4.9v1.505h-7.211
			v4.095h7.036v1.54h-6.546c2.17,2.345,4.516,5.25,5.67,7.176L199.371,27.933z M201.156,5.985h-15.261V4.48h7.315
			c-0.42-1.12-1.085-2.556-1.715-3.641l1.68-0.42c0.735,1.26,1.505,2.905,1.96,4.061h6.021V5.985z M189.955,12.216
			c-0.175-1.47-0.805-3.746-1.54-5.461l1.47-0.35c0.805,1.715,1.435,3.956,1.61,5.391L189.955,12.216z M216.698,14.211h-4.306
			v18.062h-1.645V14.211h-6.021v1.75c0,4.971-0.455,11.656-3.815,16.277c-0.28-0.35-0.91-0.805-1.295-0.98
			c3.22-4.375,3.535-10.536,3.535-15.297V4.095c4.026-0.595,8.716-1.61,11.271-2.555l1.435,1.225
			c-2.94,1.015-7.246,1.925-11.131,2.485v7.386h11.972V14.211z"/>
		<path fill="#6FCACA" d="M228.631,17.852c-0.49,3.115-1.365,5.811-2.451,8.051c2.416,3.886,7.141,4.48,14.072,4.48
			c3.57,0,8.296-0.14,11.656-0.42c-0.315,0.42-0.525,1.225-0.595,1.715c-3.081,0.175-7.386,0.28-11.061,0.28
			c-7.456,0-11.971-0.735-14.807-4.69c-1.295,2.275-2.905,4.025-4.726,5.321c-0.245-0.42-0.84-1.015-1.19-1.295
			c3.465-2.24,6.09-6.335,7.246-12.286h-4.271c-0.945,0-1.785,0.21-2.065,0.49c-0.105-0.49-0.525-1.4-0.735-1.82
			c0.455-0.14,1.05-0.385,1.645-1.015c0.91-0.945,3.431-4.235,4.971-6.441h-6.23V8.75h7.315l0.455-0.21l1.295,0.665
			c-1.54,2.101-4.48,6.021-6.546,8.331h4.795l0.315-0.035L228.631,17.852z M225.9,7.105c-0.945-1.435-2.8-3.85-4.34-5.565
			l1.295-0.735c1.575,1.715,3.465,3.991,4.375,5.391L225.9,7.105z M239.692,13.266h-10.186v-1.54h10.186V6.931h-5.671
			c-0.875,1.505-1.82,2.905-2.8,4.025c-0.35-0.245-1.05-0.665-1.435-0.84c2.135-2.205,3.92-5.496,5.041-8.786l1.575,0.35
			c-0.455,1.295-1.015,2.59-1.61,3.78h4.901V0.805h1.61V5.46h8.646v1.47h-8.646v4.795h10.011v1.54h-10.011v3.956h7.491v9.661
			h-16.242v-9.661h7.141V13.266z M247.147,18.692h-12.986v6.721h12.986V18.692z"/>
		<path fill="#6FCACA" d="M285.648,21.247h-14.001v8.856c0,1.19-0.35,1.715-1.295,1.995c-0.98,0.315-2.625,0.315-5.566,0.315
			c-0.14-0.49-0.49-1.155-0.77-1.61c2.521,0.035,4.55,0.035,5.11,0c0.595-0.035,0.771-0.175,0.771-0.665v-8.891h-14.072v-1.645
			h14.072v-2.38c2.45-1.155,5.25-3.045,7.246-4.831h-15.717v-1.61h17.397l0.385-0.07l1.19,0.84c-2.275,2.38-5.706,4.761-8.751,6.336
			v1.715h14.001V21.247z M258.03,11.236h-1.646v-6.65h14.211c-0.49-1.12-1.33-2.521-2.1-3.57l1.575-0.561
			c0.98,1.26,1.995,2.906,2.45,4.131h12.671v6.65h-1.715V6.195H258.03V11.236z"/>
		<path fill="#6FCACA" d="M304.023,0l1.365,0.84c-4.305,4.411-6.65,9.766-6.65,15.717s2.345,11.306,6.65,15.716l-1.365,0.84
			c-4.445-4.585-7-10.081-7-16.557S299.578,4.585,304.023,0z"/>
		<path fill="#6FCACA" d="M328.417,5.11c3.535,2.975,7.596,7.246,9.381,10.151l-1.435,1.05c-0.595-0.945-1.4-2.1-2.38-3.255
			c-20.967,1.225-22.717,1.33-23.873,1.75c-0.07-0.385-0.315-1.225-0.525-1.68c0.665-0.14,1.645-0.98,2.835-2.135
			c1.26-1.155,5.53-5.74,8.471-10.151l1.645,0.77c-3.115,4.166-6.511,8.086-9.836,11.096l20.092-1.05
			c-1.75-1.995-3.781-4.025-5.706-5.67L328.417,5.11z M312.455,18.097h21.632v14.211h-1.715v-1.89h-18.237v1.995h-1.68V18.097z
			 M314.135,19.742v9.031h18.237v-9.031H314.135z"/>
		<path fill="#6FCACA" d="M353.546,13.371l1.435-1.33c2.555,2.03,5.565,5.041,7.981,7.841l-1.575,1.33
			C359.077,18.342,356.031,15.366,353.546,13.371z"/>
		<path fill="#6FCACA" d="M402.442,10.081c-1.82,2.625-4.411,4.9-7.526,6.826c4.166,2.17,9.171,3.71,14.387,4.41
			c-0.385,0.42-0.805,1.085-1.05,1.575c-5.391-0.875-10.571-2.59-14.876-5.075c-2.8,1.575-5.916,2.905-8.996,3.92h18.272v10.571
			h-1.715v-1.19h-15.051v1.225h-1.646V21.772c-2.03,0.7-4.13,1.225-6.125,1.68c-0.175-0.49-0.525-1.085-0.84-1.47
			c4.795-0.98,10.046-2.73,14.562-5.075c-2.17-1.436-4.026-3.081-5.531-4.901c-1.715,1.541-3.78,2.94-6.125,4.13
			c-0.28-0.385-0.735-0.875-1.155-1.12c4.726-2.345,8.226-5.635,10.046-8.4l1.82,0.35c-0.525,0.805-1.19,1.61-1.925,2.45h12.042
			l0.35-0.105L402.442,10.081z M380.32,9.976h-1.645V4.06h14.526c-0.525-0.98-1.19-2.205-1.855-3.15l1.575-0.455
			c0.805,1.05,1.645,2.521,2.205,3.605h12.707v5.916h-1.68V5.635H380.32V9.976z M385.886,23.277v6.335h15.051v-6.335H385.886z
			 M387.461,10.956c1.505,1.925,3.5,3.605,5.916,5.041c2.555-1.47,4.76-3.221,6.406-5.146h-12.216L387.461,10.956z"/>
		<path fill="#6FCACA" d="M425.051,8.226H412.59V6.721h12.461V8.226z M413.99,12.636v-1.435h9.871v1.435H413.99z M423.861,17.187
			h-9.871v-1.47h9.871V17.187z M424.071,30.208h-8.541v1.75h-1.505V20.267h10.046V30.208z M415.53,21.772v6.931h7v-6.931H415.53z
			 M419.311,5.845c-0.56-1.26-1.68-3.185-2.695-4.55l1.33-0.735c1.05,1.4,2.205,3.185,2.765,4.445L419.311,5.845z M444.163,15.611
			v1.54h-19.322v-1.54h4.936c0.42-1.68,0.84-3.85,1.295-6.09h-4.516v-1.47h4.795c0.28-1.47,0.525-2.94,0.77-4.271h-6.371V2.275
			h17.747V3.78h-9.731c-0.21,1.33-0.49,2.8-0.77,4.271h7.701v7.561H444.163z M426.906,20.092h14.981v12.216h-1.645v-1.575h-11.726
			v1.715h-1.61V20.092z M428.517,21.632v7.561h11.726v-7.561H428.517z M432.717,9.521c-0.455,2.24-0.875,4.41-1.26,6.09h7.666v-6.09
			H432.717z"/>
		<path fill="#6FCACA" d="M478.148,21.247h-14.001v8.856c0,1.19-0.35,1.715-1.295,1.995c-0.98,0.315-2.625,0.315-5.566,0.315
			c-0.14-0.49-0.49-1.155-0.77-1.61c2.521,0.035,4.55,0.035,5.11,0c0.595-0.035,0.771-0.175,0.771-0.665v-8.891h-14.072v-1.645
			h14.072v-2.38c2.45-1.155,5.25-3.045,7.246-4.831h-15.717v-1.61h17.397l0.385-0.07l1.19,0.84c-2.275,2.38-5.706,4.761-8.751,6.336
			v1.715h14.001V21.247z M450.53,11.236h-1.646v-6.65h14.211c-0.49-1.12-1.33-2.521-2.1-3.57l1.575-0.561
			c0.98,1.26,1.995,2.906,2.45,4.131h12.671v6.65h-1.715V6.195H450.53V11.236z"/>
		<path fill="#6FCACA" d="M482.52,33.113l-1.365-0.84c4.306-4.41,6.651-9.766,6.651-15.716S485.46,5.25,481.155,0.84L482.52,0
			c4.445,4.585,7.001,10.081,7.001,16.557S486.965,28.528,482.52,33.113z"/>
	</g>
</g>
<g>
</g>
<g>
</g>
<g>
</g>
<g>
</g>
<g>
</g>
<g>
</g>
</svg>
