<?xml version="1.0" encoding="utf-8"?>
<!-- Generator: Adobe Illustrator 16.0.0, SVG Export Plug-In . SVG Version: 6.00 Build 0)  -->
<!DOCTYPE svg PUBLIC "-//W3C//DTD SVG 1.1//EN" "http://www.w3.org/Graphics/SVG/1.1/DTD/svg11.dtd">
<svg version="1.1" id="Layer_1" xmlns="http://www.w3.org/2000/svg" xmlns:xlink="http://www.w3.org/1999/xlink" x="0px" y="0px"
	 width="1056.25px" height="284.173px" viewBox="0 0 1056.25 284.173" enable-background="new 0 0 1056.25 284.173"
	 xml:space="preserve">
<g>
	<g>
		<path fill="#FFFFFF" d="M39.25,170.422H83.5v8.75H39.25V170.422c-8.75,7.25-19,14.5-31,21.25c-2-2.75-5.25-5.75-8.25-7.25
			c24.75-12.75,42.25-30.25,51.75-43.75H64c15.5,9,35,22.5,44.25,31.25l-7.75,8.5c-9.25-8.5-25.5-21.5-40.75-30.5
			C54.25,156.172,47.75,163.172,39.25,170.422z M83.5,57.672v21h21.25v9.75H83.5v35.5c0,8.5-3.75,10.5-9.25,13.25
			c-4,1.75-10.25,2-22.5,1.75c-0.5-2.5-2.5-6.5-4.25-9.25c8.75,0.5,16.75,0.25,18.5,0c5-0.25,6.75-1.5,6.75-6.25v-28.25
			c-13.75,15-37.5,31-58.75,39.25c-1.75-2.75-5-6.5-7.5-9c21.75-7.25,45.75-22.75,59-37h-57v-9.75h64.25v-21H83.5z M97,240.672H36.5
			v27.5l45.75-12c-2.75-4-5.5-8-7.75-11l8-4.5c9.25,11.75,19.75,28,24.5,37l-8.5,5.25c-2.75-5.5-6.75-12.25-10.75-18.75
			c-55,15.5-61.25,17.5-65.5,20c-0.75-2.25-2.75-7.25-4.75-9.75c3.25-1.25,8.25-4,8.25-11.75v-74.25H97V240.672z M36.5,210.172h50
			v-13h-50V210.172z M36.5,231.922h50v-13.5h-50V231.922z M203.25,70.172c0.5,93.75,2.25,199.5,21.5,199.5
			c4.25,0,5.75-14.5,6.25-35.25c2.5,2.75,5.75,6,8,7c-1.5,29.5-4,40-15.5,40c-28.5,0-29.75-85.5-31.5-200.5h-38v47.5h28.75v11H154
			v47h32.5v11H154v85.75h-11.25v-85.75h-32.5v-11h32.5v-47H112.5v-11h30.25v-47.5h-35v-10.75H203.25z"/>
		<path fill="#FFFFFF" d="M324,57.672v52.25h23v11.25h-23v55l20.75-8.25l2.25,11l-23,9.5v78.5c0,7.5-2,11-6.75,13s-13,2.25-27,2.25
			c-0.25-3-2-7.75-3.75-11.25c10.75,0.5,19.75,0.5,22.5,0.25c3,0,4.25-1,4.25-4v-74.5c-10.25,4.25-19.5,8.25-28,11.5l-4-11.5
			c9-3.25,20-7.5,32-12.25v-59.25h-30v-11.25h30v-52.25H324z M399.5,234.922l2,8.75c-16,8.5-32.75,16.75-46.75,24l-5-9.25
			C362.75,253.172,380.75,244.172,399.5,234.922z M506.75,78.172v10h-156v-10H397c-4-5.75-9.75-12.75-15.25-17.5l9.5-4.5
			c7.75,6.75,15.25,15.75,19.25,22h32.75c6-6,13.5-16,17.75-22l10.5,4.25c-4.75,6.25-10,12.75-15.25,17.75H506.75z M418.5,184.672
			l0.5,85c0,6.75-1.5,9.5-7,11.75c-5.25,1.5-14.5,1.5-28.5,1.5c-0.75-2.75-2.5-6.75-4-9.75c12,0.25,21.25,0.25,24.5,0
			c3,0,3.5-1,3.5-3.5v-74.5h-54v-10.5H418.5z M362.75,200.672c11.25,7.25,24.75,18,31.5,25.5l-7.75,6.75
			c-6.75-7.5-20-18.5-31.5-26.25L362.75,200.672z M426.5,164.922c0,5.75-1,8-4.75,10c-4.25,1.75-11,1.75-20.75,1.75
			c-0.5-3-2-6.25-3.5-9c8,0.25,14,0.25,15.75,0.25c2.25-0.25,2.75-1,2.75-3v-10.75h-42.75v23.25H363v-76h63.5V164.922z
			 M373.25,110.672v13.5H416v-13.5H373.25z M416,145.922v-13.25h-42.75v13.25H416z M428.25,257.922
			c12.75-5.25,30.5-14.25,48.75-23.5l2.5,8.75c-16.25,8.5-32,16.75-46,24L428.25,257.922z M429.25,185.422h70v84
			c0,6.75-1.25,9.75-6.5,11.75c-5.25,1.5-14.25,1.75-28.25,1.5c-0.75-2.75-2.5-6.5-4-9.75c12,0.5,21.25,0.5,24.25,0.25
			c2.75-0.25,3.5-1.25,3.5-3.5v-74h-59V185.422z M463.5,234.172c-6.25-7.5-18.25-18.75-28.75-26.5l7.75-6
			c10.25,7.5,23,18.5,29,25.75L463.5,234.172z M444.75,101.422H455v55h-10.25V101.422z M458,167.922c10,0.25,17.5,0.25,20,0
			c2.75,0,3.25-0.75,3.25-3.25v-66h10.5v66.25c0,6.25-1.25,8.75-5.5,10.5c-5,1.75-12.5,1.75-24.5,1.75
			C461.5,174.172,459.75,170.672,458,167.922z"/>
		<path fill="#FFFFFF" d="M571,214.422v-82.25c-2.5,3.75-5.25,7.75-8,11.5c-2.25-2.5-6-5.25-9-6.75c18.75-24,30.5-55.5,36.25-79
			l11.5,1.5c-1.75,6.25-4,13.5-6.75,20.5h32l2.25-0.75l8,4.75c-5,12.25-11.75,26-18.25,36.75h29.5v93.75H571z M582.75,230.172
			c-2.5,20.75-6.5,42-19.5,54l-8.5-5.25c11.75-10.75,16.75-31.25,18.75-50.75L582.75,230.172z M577.5,120.672h30
			c5.5-8.75,11-20.5,14.75-30.5H591.5C587.75,100.422,583,110.672,577.5,120.672z M581,162.172h23.25v-31.5H581V162.172z
			 M581,204.422h23.25v-32.25H581V204.422z M605.25,272.673l-9.5,1c1-11.75,0-29.75-3-44l9-1.25
			C604.5,242.672,605.75,260.672,605.25,272.673z M631.75,266.423l-8.75,2.25c-1-11-5-27-10-39.5l8.5-2
			C626.5,239.422,630.5,256.172,631.75,266.423z M614,162.172h24.25v-31.5H614V162.172z M614,204.422h24.25v-32.25H614V204.422z
			 M642.75,223.672c5.75,10,11.75,23.5,14.5,32.25l-9,3.25c-2.5-8.75-8.25-22.5-13.5-32.75L642.75,223.672z M706,216.422
			c1.5-5.75,2.25-11.5,3-18.25h11c-0.5,6.5-1.75,12.25-2.75,18.25h64v10.5h-55.5c9.5,25.25,29.25,41.25,60,47.25
			c-2.75,2.5-5.75,6.75-7.25,10c-33.5-8.25-54-26.75-63.5-57c-9.25,29.5-27.25,46.75-69.25,56.75c-1-2.25-4.25-7.25-6.5-9.25
			c37.75-8.25,55.25-23.25,63.5-47.75h-50.5v-10.5H706z M661.5,203.172v-121h38.75c3.25-7.75,6.75-18,8.75-24.75l12,3
			c-3,7.25-6.25,15.25-9.25,21.75h61.75v121h-11.25v-110.5h-90v110.5H661.5z M711.5,142.422v-29.25c-9.5,1.5-19.25,2.5-28.25,3.5
			c-0.5-2.25-1.75-5.25-3.25-7c21.75-2.5,47.5-6.75,61-11.25l8.5,6.75c-8.25,2.5-18.25,4.75-29,6.75v30.5h34.25v9H720.5v2
			c12,8.25,27.25,19.5,34.75,27.25l-6,6c-6.5-6.5-18.25-16.25-28.75-24v31h-9v-38c-7.25,13.75-18.75,28-29.75,36.25
			c-1.25-2.5-4-5.75-6.25-7.5c11-6.75,22.5-20.25,29.75-33h-26v-9H711.5z M695.5,140.922c-1.5-5.75-5.25-14.25-9.5-20l7-2.75
			c4.5,5.5,8.5,14.25,10,19.5L695.5,140.922z M733.25,140.172l-6-3.5c3.25-5.75,8.25-15.5,10.25-21.75l7.75,3.75
			C741.25,126.422,737,134.672,733.25,140.172z"/>
		<path fill="#FFFFFF" d="M832.5,204.672l-1.75-10.75c5-0.25,12.25-1,18.25-1.5v-107.5h22c3.25-8.5,6.75-19.75,8.75-27.5l12,2.75
			c-2.75,8-6.5,17.25-9.75,24.75h40.25v99.25c2.25-2.75,4.25-6,6.25-9l9.75,4.25c-4.75,7-10.25,14.25-16,20.75v66.75
			c0,8-2,11.75-7.5,13.75c-5.25,1.75-15,2-31.5,2c-0.75-2.75-2.5-7.75-4.25-11c12.75,0.5,24.75,0.25,27.75,0c3.75,0,4.75-1,4.75-4.5
			v-55.5c-22.25,22.75-49,42.25-76.25,57.75c-1.25-2.5-4.25-8-6.25-10.5c28-14.25,59.5-36.5,82.5-62v-0.5
			C883.75,199.422,853.25,202.672,832.5,204.672z M859.5,95.172v25.5h52v-25.5H859.5z M859.5,156.172h52v-25.5h-52V156.172z
			 M859.5,191.422c14.75-1.5,35-3.5,52-5.25v-20h-52V191.422z M968,122.172c-5.75,37.25-14.75,75-26,100.25
			c-2.25-1.5-7.5-4.25-10.5-5.75c12-25.25,19.5-61.5,25-96.5L968,122.172z M987.75,59.922h11.75v205.25c0,9.75-2.5,13.75-8.75,15.75
			c-6,2.25-17.75,2.25-34.75,2.25c-0.5-3.25-2.75-9-4.5-13c14.5,0.5,27.5,0.5,31.5,0.5c3.75-0.25,4.75-1.25,4.75-5.5V59.922z
			 M1027.5,118.172c12.75,31.25,24.75,71.75,28.75,98.25l-11.25,3.25c-3.75-26.75-15.5-67-27.75-98L1027.5,118.172z"/>
	</g>
</g>
<g>
	<g>
		<path fill="#6FCACA" d="M21.752,32.168L5.3,3.675h32.903L21.752,32.168z"/>
		<path fill="#6FCACA" d="M59.621,25.658H51.57v2.73h-1.645V3.325h9.696V25.658z M51.57,4.9v8.611h6.476V4.9H51.57z M58.046,24.083
			v-9.031H51.57v9.031H58.046z M78.978,2.45c0,0,0,0.56-0.035,0.84c-0.455,7.806-0.84,10.571-1.75,11.551
			c-0.525,0.525-1.05,0.735-1.96,0.77c-0.735,0.07-2.275,0.035-3.851-0.07c-0.035-0.49-0.175-1.12-0.49-1.575
			c1.68,0.14,3.255,0.175,3.78,0.175c0.595,0,0.875-0.07,1.155-0.35c0.63-0.665,1.05-3.22,1.435-9.766h-7.806
			c-0.84,5.25-2.766,9.976-8.226,12.496c-0.245-0.35-0.7-0.945-1.085-1.225c5.146-2.205,6.896-6.616,7.631-11.271h-6.616V2.45
			H78.978z M62.351,18.307h16.207v13.932h-1.645v-1.68H63.961v1.82h-1.61V18.307z M63.961,19.882v9.101h12.951v-9.101H63.961z"/>
		<path fill="#6FCACA" d="M89.615,15.471c-1.26-1.19-3.815-2.8-6.021-3.815l0.98-1.19c2.135,0.945,4.726,2.485,5.986,3.641
			L89.615,15.471z M91.4,20.547c-1.54,3.675-3.675,8.191-5.425,11.341l-1.47-1.015c1.61-2.695,3.92-7.386,5.565-11.271L91.4,20.547z
			 M91.19,6.44C90,5.11,87.48,3.395,85.345,2.31l1.015-1.19c2.065,1.05,4.656,2.695,5.846,3.955L91.19,6.44z M106.522,19.987v10.431
			c0,0.98-0.21,1.47-1.015,1.715c-0.77,0.28-2.205,0.28-4.62,0.245c-0.105-0.385-0.35-1.015-0.525-1.47
			c1.89,0.07,3.465,0.035,3.92,0.035c0.49-0.035,0.63-0.175,0.63-0.525V19.987h-6.721V8.261h5.845
			c0.385-1.295,0.771-3.045,0.98-4.34h-9.346v7.946c0,6.021-0.525,14.421-4.655,20.267c-0.28-0.245-0.98-0.7-1.365-0.84
			c3.99-5.741,4.375-13.651,4.375-19.427V2.345h21.072V3.92h-8.786l0.56,0.14c-0.42,1.365-0.84,2.94-1.225,4.201h7.911v11.726
			H106.522z M101.376,22.682c-1.19,2.765-2.975,5.67-4.726,7.596c-0.315-0.245-1.015-0.735-1.435-0.945
			c1.855-1.855,3.5-4.48,4.585-7.071L101.376,22.682z M99.767,13.371h12.181V9.696H99.767V13.371z M99.767,18.552h12.181v-3.746
			H99.767V18.552z M111.107,22.052c1.82,2.135,3.781,5.075,4.551,7.036l-1.541,0.735c-0.735-1.925-2.625-4.936-4.445-7.141
			L111.107,22.052z"/>
		<path fill="#6FCACA" d="M149.993,23.907h-30.908v-1.54h14.562v-3.991h-11.622v-1.47h11.622v-3.605H122.69V2.135h23.453v11.166
			h-10.851v3.605h11.656v1.47h-11.656v3.991h14.702V23.907z M119.33,31.783c1.61-1.365,3.116-3.71,3.991-5.881l1.54,0.42
			c-0.91,2.17-2.345,4.69-4.061,6.23L119.33,31.783z M133.646,11.796V3.605H124.3v8.191H133.646z M128.186,4.725
			c1.12,1.715,2.206,3.956,2.556,5.391l-1.331,0.56c-0.35-1.505-1.365-3.78-2.45-5.496L128.186,4.725z M130.811,26.498
			c0.455,1.75,0.805,4.13,0.805,5.46l-1.646,0.245c0-1.4-0.28-3.815-0.735-5.636L130.811,26.498z M144.462,3.605h-9.171v8.191h9.171
			V3.605z M138.092,26.323c0.84,1.715,1.715,4.06,2.1,5.46l-1.645,0.42c-0.35-1.435-1.19-3.815-2.03-5.601L138.092,26.323z
			 M137.427,10.571c1.015-1.54,2.38-4.095,3.115-5.846l1.4,0.595c-1.05,1.96-2.346,4.306-3.396,5.811L137.427,10.571z
			 M145.232,25.938c1.785,1.715,3.815,4.166,4.795,5.775l-1.54,0.7c-0.945-1.575-2.975-4.095-4.76-5.916L145.232,25.938z"/>
		<path fill="#6FCACA" d="M166.196,16.347v-3.396h-10.291v3.396h-1.4v-4.761h1.995V2.03h9.136v9.556h1.996v4.761H166.196z
			 M165.636,30.523c0,0.91-0.21,1.365-0.84,1.61c-0.665,0.245-1.785,0.245-3.746,0.245c-0.07-0.35-0.35-0.945-0.56-1.365
			c1.505,0.035,2.766,0.035,3.081,0c0.385,0,0.525-0.105,0.525-0.49v-4.411h-6.125v6.301h-1.505V15.787h9.171V30.523z M157.9,11.586
			h2.24V6.195h4.025V3.43H157.9V11.586z M157.97,17.151v3.045h6.125v-3.045H157.97z M164.096,24.748v-3.15h-6.125v3.15H164.096z
			 M164.166,7.491h-2.73v4.095h2.73V7.491z M185.448,30.208v1.4h-18.132v-1.4h5.811c-0.175-1.155-0.7-2.695-1.331-3.885l1.331-0.42
			c0.7,1.225,1.26,2.905,1.435,4.025l-0.805,0.28h5.041l-0.7-0.28c0.56-1.155,1.26-2.905,1.61-4.06l1.47,0.525
			c-0.595,1.295-1.26,2.73-1.82,3.815H185.448z M185.273,17.327h-17.397v-1.4h17.397V17.327z M183.838,13.861h-14.702V4.095h4.306
			V0.7h1.4v3.396h3.081V0.7h1.4v3.396h4.516V13.861z M169.906,25.658v-6.301h13.162v6.301H169.906z M170.537,8.261h3.045V5.425
			h-3.045V8.261z M170.537,12.531h3.045V9.626h-3.045V12.531z M171.412,24.362h10.116v-3.71h-10.116V24.362z M177.922,8.261V5.425
			h-3.081v2.835H177.922z M174.842,9.626v2.905h3.081V9.626H174.842z M182.368,5.425h-3.185v2.835h3.185V5.425z M182.368,9.626
			h-3.185v2.905h3.185V9.626z"/>
		<path fill="#6FCACA" d="M203.121,27.933c-1.015-1.75-3.01-4.305-4.936-6.511v10.921h-1.61V21.387
			c-1.96,3.36-4.516,6.405-7.071,8.541c-0.28-0.28-0.945-0.77-1.33-1.015c2.94-2.24,5.67-5.53,7.491-9.066h-6.511v-1.54h7.421
			v-4.095h-7.736v-1.505h10.081c0.735-1.785,1.68-4.516,2.135-6.335l1.61,0.42c-0.63,1.89-1.47,4.235-2.17,5.916h4.9v1.505h-7.211
			v4.095h7.036v1.54h-6.546c2.17,2.345,4.516,5.25,5.67,7.176L203.121,27.933z M204.906,5.985h-15.261V4.48h7.315
			c-0.42-1.12-1.085-2.556-1.715-3.641l1.68-0.42c0.735,1.26,1.505,2.905,1.96,4.061h6.021V5.985z M193.705,12.216
			c-0.175-1.47-0.805-3.746-1.54-5.461l1.47-0.35c0.805,1.715,1.435,3.956,1.61,5.391L193.705,12.216z M220.448,14.211h-4.306
			v18.062h-1.645V14.211h-6.021v1.75c0,4.971-0.455,11.656-3.815,16.277c-0.28-0.35-0.91-0.805-1.295-0.98
			c3.22-4.375,3.535-10.536,3.535-15.297V4.095c4.026-0.595,8.716-1.61,11.271-2.555l1.435,1.225
			c-2.94,1.015-7.246,1.925-11.131,2.485v7.386h11.972V14.211z"/>
		<path fill="#6FCACA" d="M232.381,17.852c-0.49,3.115-1.365,5.811-2.451,8.051c2.416,3.886,7.141,4.48,14.072,4.48
			c3.57,0,8.296-0.14,11.656-0.42c-0.315,0.42-0.525,1.225-0.595,1.715c-3.081,0.175-7.386,0.28-11.061,0.28
			c-7.456,0-11.971-0.735-14.807-4.69c-1.295,2.275-2.905,4.025-4.726,5.321c-0.245-0.42-0.84-1.015-1.19-1.295
			c3.465-2.24,6.09-6.335,7.246-12.286h-4.271c-0.945,0-1.785,0.21-2.065,0.49c-0.105-0.49-0.525-1.4-0.735-1.82
			c0.455-0.14,1.05-0.385,1.645-1.015c0.91-0.945,3.431-4.235,4.971-6.441h-6.23V8.75h7.315l0.455-0.21l1.295,0.665
			c-1.54,2.101-4.48,6.021-6.546,8.331h4.795l0.315-0.035L232.381,17.852z M229.65,7.105c-0.945-1.435-2.8-3.85-4.34-5.565
			l1.295-0.735c1.575,1.715,3.465,3.991,4.375,5.391L229.65,7.105z M243.442,13.266h-10.186v-1.54h10.186V6.931h-5.671
			c-0.875,1.505-1.82,2.905-2.8,4.025c-0.35-0.245-1.05-0.665-1.435-0.84c2.135-2.205,3.92-5.496,5.041-8.786l1.575,0.35
			c-0.455,1.295-1.015,2.59-1.61,3.78h4.901V0.805h1.61V5.46h8.646v1.47h-8.646v4.795h10.011v1.54h-10.011v3.956h7.491v9.661
			h-16.242v-9.661h7.141V13.266z M250.897,18.692h-12.986v6.721h12.986V18.692z"/>
		<path fill="#6FCACA" d="M289.398,21.247h-14.001v8.856c0,1.19-0.35,1.715-1.295,1.995c-0.98,0.315-2.625,0.315-5.566,0.315
			c-0.14-0.49-0.49-1.155-0.77-1.61c2.521,0.035,4.55,0.035,5.11,0c0.595-0.035,0.771-0.175,0.771-0.665v-8.891h-14.072v-1.645
			h14.072v-2.38c2.45-1.155,5.25-3.045,7.246-4.831h-15.717v-1.61h17.397l0.385-0.07l1.19,0.84c-2.275,2.38-5.706,4.761-8.751,6.336
			v1.715h14.001V21.247z M261.78,11.236h-1.646v-6.65h14.211c-0.49-1.12-1.33-2.521-2.1-3.57l1.575-0.561
			c0.98,1.26,1.995,2.906,2.45,4.131h12.671v6.65h-1.715V6.195H261.78V11.236z"/>
		<path fill="#6FCACA" d="M307.773,0l1.365,0.84c-4.305,4.411-6.65,9.766-6.65,15.717s2.345,11.306,6.65,15.716l-1.365,0.84
			c-4.445-4.585-7-10.081-7-16.557S303.328,4.585,307.773,0z"/>
		<path fill="#6FCACA" d="M320.651,22.647c-0.35,1.05-0.735,2.101-1.085,3.045h18.517c0,0-0.035,0.525-0.105,0.77
			c-0.56,3.326-1.05,4.726-1.855,5.391c-0.595,0.455-1.12,0.525-2.17,0.595c-0.91,0-3.01-0.035-5.216-0.175
			c-0.035-0.42-0.245-1.015-0.455-1.435c2.206,0.245,4.516,0.245,5.216,0.245c0.77,0,1.12,0,1.4-0.245
			c0.525-0.42,0.91-1.47,1.331-3.78h-18.937c0.595-1.225,1.19-2.87,1.715-4.411h-7.281v-1.365h30.559v1.365H320.651z M316.24,20.127
			h-1.54V3.15h10.256c0.385-0.875,0.84-1.925,1.085-2.625l1.82,0.35c-0.385,0.805-0.84,1.575-1.225,2.275h12.707v16.802h-1.575
			V4.445H316.24V20.127z M335.527,16.836c-1.82-0.98-5.076-2.415-7.876-3.535v3.71h-1.435v-4.201c-2.1,1.855-5.215,3.5-7.981,4.34
			c-0.21-0.315-0.63-0.805-0.98-1.12c2.94-0.7,6.196-2.31,8.191-4.095H318.2v-1.225h8.016v-3.43c-2.38,0.14-4.795,0.245-7.001,0.245
			c0-0.35-0.175-0.805-0.35-1.155c5.075-0.105,11.481-0.525,14.876-1.12l0.945,1.12c-1.855,0.35-4.375,0.595-7.036,0.84v3.5h8.331
			v1.225h-8.331v0.21c2.87,1.085,6.616,2.66,8.646,3.675L335.527,16.836z M322.471,10.676c-0.455-0.735-1.33-1.785-2.17-2.555
			l1.05-0.595c0.84,0.7,1.785,1.75,2.17,2.451L322.471,10.676z M320.301,17.782h13.406v1.225h-13.406V17.782z M330.207,10.186
			c0.735-0.84,1.75-2.17,2.275-2.976l1.225,0.525c-0.805,1.12-1.75,2.135-2.52,2.905L330.207,10.186z"/>
		<path fill="#6FCACA" d="M358.801,8.226H346.34V6.721h12.461V8.226z M347.74,12.636v-1.435h9.871v1.435H347.74z M357.611,17.187
			h-9.871v-1.47h9.871V17.187z M357.821,30.208h-8.541v1.75h-1.505V20.267h10.046V30.208z M349.28,21.772v6.931h7v-6.931H349.28z
			 M353.061,5.845c-0.56-1.26-1.68-3.185-2.695-4.55l1.33-0.735c1.05,1.4,2.205,3.185,2.765,4.445L353.061,5.845z M377.913,15.611
			v1.54h-19.322v-1.54h4.936c0.42-1.68,0.84-3.85,1.295-6.09h-4.516v-1.47h4.795c0.28-1.47,0.525-2.94,0.77-4.271h-6.371V2.275
			h17.747V3.78h-9.731c-0.21,1.33-0.49,2.8-0.77,4.271h7.701v7.561H377.913z M360.656,20.092h14.981v12.216h-1.645v-1.575h-11.726
			v1.715h-1.61V20.092z M362.267,21.632v7.561h11.726v-7.561H362.267z M366.467,9.521c-0.455,2.24-0.875,4.41-1.26,6.09h7.666v-6.09
			H366.467z"/>
		<path fill="#6FCACA" d="M384.385,23.067c-0.49,3.01-1.155,6.3-1.925,8.471c-0.315-0.14-0.945-0.42-1.33-0.56
			c0.805-2.205,1.4-5.32,1.785-8.156L384.385,23.067z M391.351,13.791c1.015,2.17,2.03,5.076,2.45,6.791l-1.4,0.525
			c-0.105-0.56-0.28-1.19-0.525-1.89c-8.401,1.295-9.416,1.54-9.976,1.855c-0.07-0.385-0.315-1.225-0.49-1.645
			c0.595-0.105,1.4-1.05,2.38-2.345c0.595-0.7,1.925-2.485,3.325-4.69c-4.271,0.525-5.005,0.7-5.391,0.91
			c-0.105-0.385-0.35-1.155-0.56-1.61c0.525-0.105,1.12-0.91,1.855-1.96c0.77-1.085,3.29-5.181,4.865-9.031l1.505,0.7
			c-1.68,3.535-3.675,7.211-5.741,9.941l4.411-0.42c0.945-1.54,1.855-3.22,2.66-4.866l1.47,0.771
			c-2.416,4.375-5.216,8.751-8.121,12.111l7.386-1.05c-0.455-1.26-0.945-2.555-1.435-3.71L391.351,13.791z M387.885,22.717
			c0.42,2.38,0.875,5.46,0.98,7.491l-1.4,0.315c-0.105-2.065-0.49-5.181-0.945-7.526L387.885,22.717z M391.631,21.947
			c0.805,2.17,1.715,5.005,2.1,6.826l-1.295,0.455c-0.385-1.891-1.295-4.726-2.065-6.896L391.631,21.947z M412.038,30.173
			c0,1.155-0.245,1.645-1.015,1.96c-0.735,0.28-2.135,0.315-4.201,0.28c-0.105-0.42-0.315-1.12-0.525-1.61
			c1.645,0.07,3.115,0.035,3.57,0.035c0.455-0.035,0.595-0.175,0.595-0.63V4.025h-14.316v28.458h-1.575V2.45h17.467V30.173z
			 M397.196,11.411h7.456c0.63-1.75,1.47-4.375,1.855-6.126l1.435,0.455c-0.595,1.82-1.33,4.025-1.995,5.671h3.71v1.47h-12.461
			V11.411z M406.962,23.977c0.63,0,1.61,0,2.17-0.14c0.035,0.455,0.105,1.05,0.175,1.4c-0.455,0.14-1.365,0.14-2.275,0.14h-5.53
			c-1.89,0-2.38-0.7-2.38-2.66v-4.235h-1.435v-1.47h5.496c-0.315-1.015-1.085-2.485-1.715-3.57l1.225-0.525
			c0.665,1.085,1.47,2.625,1.82,3.536l-1.085,0.56h5.601v1.47h-8.401v4.27c0,0.945,0.14,1.225,0.91,1.225H406.962z M399.962,5.215
			c0.98,1.575,1.855,3.78,2.17,5.215l-1.26,0.455c-0.315-1.435-1.155-3.64-2.1-5.285L399.962,5.215z"/>
		<path fill="#6FCACA" d="M428.276,10.781c-0.7,4.271-1.715,10.116-2.625,13.967c1.4-0.35,2.835-0.7,4.305-1.085l0.175,1.541
			c-4.726,1.26-9.731,2.59-13.302,3.535l-0.455-1.68c2.065-0.49,4.796-1.155,7.771-1.925c0.91-3.78,1.96-10.291,2.45-14.702
			L428.276,10.781z M416.83,7.561h13.302v1.575H416.83V7.561z M419.77,10.956c0.91,4.13,1.715,9.416,1.925,13.056l-1.47,0.21
			c-0.21-3.57-0.98-8.891-1.89-13.021L419.77,10.956z M423.516,6.791c-0.455-1.47-1.505-3.71-2.521-5.355l1.47-0.525
			c1.05,1.646,2.1,3.851,2.59,5.286L423.516,6.791z M438.602,10.046v7.491h7.666v14.702h-1.68v-1.505h-11.866v1.646h-1.646V17.537
			h5.811V0.7h1.715v7.736h9.311v1.61H438.602z M444.588,19.147h-11.866v9.976h11.866V19.147z"/>
		<path fill="#6FCACA" d="M481.898,21.247h-14.001v8.856c0,1.19-0.35,1.715-1.295,1.995c-0.98,0.315-2.625,0.315-5.566,0.315
			c-0.14-0.49-0.49-1.155-0.77-1.61c2.521,0.035,4.55,0.035,5.11,0c0.595-0.035,0.771-0.175,0.771-0.665v-8.891h-14.072v-1.645
			h14.072v-2.38c2.45-1.155,5.25-3.045,7.246-4.831h-15.717v-1.61h17.397l0.385-0.07l1.19,0.84c-2.275,2.38-5.706,4.761-8.751,6.336
			v1.715h14.001V21.247z M454.28,11.236h-1.646v-6.65h14.211c-0.49-1.12-1.33-2.521-2.1-3.57l1.575-0.561
			c0.98,1.26,1.995,2.906,2.45,4.131h12.671v6.65h-1.715V6.195H454.28V11.236z"/>
		<path fill="#6FCACA" d="M500.516,27.198c-5.005,1.155-10.221,2.275-14.001,3.115l-0.42-1.645c3.535-0.665,8.961-1.785,14.281-2.94
			L500.516,27.198z M500.096,4.375H486.55v-1.61h13.546V4.375z M499.256,17.362H487.53V8.226h11.726V17.362z M490.05,26.007
			c-0.07-1.785-0.665-4.55-1.47-6.721l1.435-0.315c0.84,2.1,1.47,4.866,1.54,6.686L490.05,26.007z M497.681,9.731h-8.576v6.161
			h8.576V9.731z M494.636,25.728c0.63-1.855,1.4-4.971,1.75-7.036l1.61,0.49c-0.56,2.345-1.365,5.181-1.995,7.036L494.636,25.728z
			 M507.202,27.863c-1.855,1.82-4.936,3.57-7.631,4.585c-0.21-0.315-0.771-0.875-1.155-1.19c2.73-0.945,5.775-2.661,7.176-4.236
			L507.202,27.863z M507.342,7.946c0.315-1.19,0.63-2.661,0.875-3.886h-7.141V2.52h16.837v1.54h-7.806
			c-0.35,1.33-0.735,2.73-1.12,3.886h7.596v18.027h-14.282V7.946H507.342z M514.973,9.381h-11.061v4.061h11.061V9.381z
			 M514.973,14.841h-11.061v4.13h11.061V14.841z M514.973,20.372h-11.061v4.166h11.061V20.372z M512.348,27.127
			c2.135,1.26,4.76,3.081,6.09,4.375l-1.365,0.945c-1.26-1.26-3.92-3.15-6.021-4.411L512.348,27.127z"/>
		<path fill="#6FCACA" d="M521.27,33.113l-1.365-0.84c4.306-4.41,6.651-9.766,6.651-15.716S524.21,5.25,519.905,0.84L521.27,0
			c4.445,4.585,7.001,10.081,7.001,16.557S525.715,28.528,521.27,33.113z"/>
	</g>
</g>
<g>
</g>
<g>
</g>
<g>
</g>
<g>
</g>
<g>
</g>
<g>
</g>
</svg>
