<?xml version="1.0" encoding="utf-8"?>
<!-- Generator: Adobe Illustrator 16.0.0, SVG Export Plug-In . SVG Version: 6.00 Build 0)  -->
<!DOCTYPE svg PUBLIC "-//W3C//DTD SVG 1.1//EN" "http://www.w3.org/Graphics/SVG/1.1/DTD/svg11.dtd">
<svg version="1.1" id="Layer_1" xmlns="http://www.w3.org/2000/svg" xmlns:xlink="http://www.w3.org/1999/xlink" x="0px" y="0px"
	 width="1061.5px" height="621.469px" viewBox="0 0 1061.5 621.469" enable-background="new 0 0 1061.5 621.469"
	 xml:space="preserve">
<g>
	<g>
		<path fill="#FFFFFF" d="M211.25,280.219c-3.5-8.75-9.25-20.25-15.75-32c-4.5,29-15,36.5-43,36.5H109c-39,0-48.5-10-48.5-40.75
			v-22.5c-7.5,20.25-17.5,44.5-26.75,61l-33.75-17c11-16.25,22.75-39.5,29.5-60.5l31,12.75v-16.25h36v42
			c0,8.25,2.25,9.25,16.25,9.25h36.75c10.75,0,12.75-3,14.25-21.5c6.75,4.75,19.5,9.25,29,11.75c-5.25-9.75-10.75-19.75-15.5-28.25
			l31.25-15.75c11.25,19.25,28.25,46,36.25,62.5L211.25,280.219z M4.25,157.469c9.5-1.75,21.25-4,34.25-6.5v-60.5H10v-30.25h91.25
			v30.25H75.5v52.5l29-6.5l4,33.75c-32.75,9.5-68.25,19-96,26.5L4.25,157.469z M122.75,181.969c12.5,12,31.75,29.75,41.25,40.75
			l-30,19.25c-8.5-11.25-26.75-30-39.5-43.25L122.75,181.969z M126.5,87.719H108v-30h104.25c-0.75,55-0.5,102.75,6.5,102.5
			c2.75,0,3.5-13.25,3.75-32.25c6,8,13.75,16.75,20.5,21.75c-2.25,29-7.5,43.5-27,43.5c-18.5,0-27.75-16.5-32.5-42.25l-13,20.75
			c-2.75-2.5-6.25-5.25-10.25-8.25v20.5H126.5v-43.25c-10.5-6.5-21-12.75-30-18.25l16.75-25.5l13.25,7.25V87.719z M160.25,87.719v36
			c7.75,4.75,15.25,9.25,21.25,13.5c-1.75-14.75-2.5-31.5-2.75-49.5H160.25z"/>
		<path fill="#FFFFFF" d="M508.25,123.219c-9.5,21.75-23,42.25-38.25,59.75c6,41.5,13.5,71.5,18.25,71.75c2.5,0,4.75-14.75,5-45
			c7,7.75,17.75,15.75,26.75,19.75c-4.5,48-14.25,58.75-36.75,58.75c-19.5,0-33-32.75-41.75-78l-8.25,6l-1.5-2
			c7.25,17.75,16,40.25,20,54l-25,11c-1.5-5.75-3.5-12.75-6-20.5c-3.25,21.5-10.25,27.75-25.25,27.75h-16.75
			c-22.5,0-27.5-7.75-27.5-30.75v-18c-2.25,16-5.75,32.75-11.25,44.5l-23-11.5c6.75-14.25,11-36.5,13-55.75l21.25,6.5v-10h20l-2.5-5
			l3.25-1.5h-30.75v-59.25h80.25v39c4.75-3.5,9.5-7.5,14-11.5c-2.75-21.75-5-44.5-6.25-67.25H332v16.25
			c0,45.25-4.25,120.75-27.5,168.5c-6-5.75-21.25-16-28.75-19.25c21.25-43.75,23-108,23-149.25v-45.75h129
			c-0.25-8.25-0.5-16.25-0.5-24H461c-0.25,7.75,0,16,0,24h14.5c-4.75-4.75-10-9.75-14.25-13.75l21.25-14.25
			c7.25,6,17.25,14.5,22.5,20l-11,8h17.75v29.5h-49.5c0.75,11,1.5,21.75,2.5,32.25c4.75-7.5,9-15.5,12.5-23.75L508.25,123.219z
			 M424.25,137.219H338.5v-23.5h85.75V137.219z M369.75,181.719h24v-13h-24V181.719z M392.25,262.719c4,0,5-3.5,5.5-23.75l-11.25,6
			c-1.5-4.5-4-10-6.75-16v26.5c0,6.5,0.5,7.25,4.25,7.25H392.25z M429.5,211.969c-2.25-2.75-5.25-5.75-8-8.5v1.5h-27
			c5.5,10,11.25,21,14.25,28.25l-9.5,5c4.5,3,11.25,5.75,17.25,7.75c-3-8.75-6.25-17.75-9.25-25.5L429.5,211.969z"/>
		<path fill="#FFFFFF" d="M603,158.469v131.5h-35.5v-229.5h97v98H603z M603,88.719v7.5h27.75v-7.5H603z M630.75,130.219v-7.75H603
			v7.75H630.75z M778,251.969c0,16-2.5,25.25-12,31.25s-21.5,6.75-38,6.75c-1.25-9-5.75-24-10.25-33c-0.5,11.5-3,18-11.25,22
			c-9,4.5-20.75,4.75-36.25,4.75c-1-8.25-4.75-19.75-8.5-27.25c8,0.5,18,0.5,20.75,0.25c3,0,4-0.75,4-3.5v-6.25h-31v38.75H625
			v-120.5h92.75v90.25c7.5,0.5,16.5,0.5,19.75,0.5s4.25-1.25,4.25-4.5v-93h-63v-98H778V251.969z M655.5,189.719v6.25h31v-6.25H655.5
			z M686.5,224.719v-6.5h-31v6.5H686.5z M712.75,88.719v7.5h29v-7.5H712.75z M741.75,130.219v-7.75h-29v7.75H741.75z"/>
		<path fill="#FFFFFF" d="M1061.5,118.719v27.5h-21.75v18.75H964.5v5.25h67.5v18.5h-67.5v40h46.75v19H964.5v41.5h-34.25v-41.5H885
			v-19h45.25v-40h-65v-18.5h65v-5.25H853v-17h77.25v-5.5h-99.5v-19.5h99.5v-5.5H856v-17h74.25v-7h34.25v7h75.25v18.25H1061.5z
			 M885.75,88.719H836v-24.75h49.75v-11.5h36v11.5h23.5v24.75h-23.5v8.75h-36V88.719z M879.5,253.719h42.75v34h-27v-15.25H879.5
			v17.75h-31.75v-98h31.75v11h15.75v-10h27v28.75H879.5V253.719z M975.25,88.719h-23v-24.75h23v-11.5h36.25v11.5h49v24.75h-49v8.75
			h-36.25V88.719z M964.5,122.969h41v-5.5h-41V122.969z M1005.5,147.969v-5.5h-41v5.5H1005.5z M1017.25,192.219h32.5v98h-32.5v-18
			H999.5v15.25h-27.25v-34h45v-31.5h-45v-28.75h27.25v10h17.75V192.219z"/>
	</g>
</g>
<g>
	<g>
		<path fill="#FFFFFF" d="M211.75,611.969c-3.5-9-9.75-21.25-16.5-33.75c-4.5,31.25-14.75,39.25-43.5,39.25h-43
			c-39,0-48.25-10-48.25-40.75v-24.25c-7.5,20.25-17.5,44.5-26.75,61l-33.75-17c11-16.25,22.75-39.5,29.5-60.5l31,12.75v-12.5h36v40
			c0,8.25,2.25,9.25,16.25,9.25h36c10.75,0,12.75-3,14.25-21.5c7.25,5,21.5,10,31.25,12.25c-5.75-10.25-11.5-20.75-16.5-29.75
			l31.25-15.75c11.25,19.25,28.25,46,36.25,62.5L211.75,611.969z M5,494.719c9.5-1.5,21-3.5,33.5-5.75v-67.5H10v-30.25h91.25v30.25
			H75.5v60.5l25-5l1.25,13.75c10.25-6.25,16.75-13.25,20.75-20.75c-9-5.5-18-10.75-26-15.25l15.25-23.5c5.5,2.75,11.5,6,17.75,9.5
			v-22H108v-30h104.25v94.75c0,4.5-0.25,7,0.25,7.75c0.25,1,0.75,1.25,1.5,1.25h1.5c0.75,0,1.25,0,1.75-0.75
			c0.5-0.5,0.75-2.25,1.25-6c0.25-4,0.5-12.5,0.75-22.75c6,5.25,17.25,11,25.75,14c-0.5,11-1.75,23.5-3.5,29
			c-2,5.75-5,9.75-9.5,12.25c-3.75,2.5-9.75,3.5-14.5,3.5h-13.75c-6.25,0-14-2.25-18.25-7.25c-4.75-5-6.75-11.25-6.75-29.75v-2
			L168,500.969c-4.5-3.75-10.25-8-17-12.5c-5.75,9.75-14,18.75-25.75,26.25c12.5,12,31,28.75,40,39.25l-25.5,24.75
			c-8.5-11.5-27-30-39.5-43.25l19.25-17.25l-3.75,1.75c-2.75-3.5-8.5-9-14-13.75c-31.25,7.75-64.25,15.25-90,21.5L5,494.719z
			 M162.75,438.219c0,6.75-0.5,13.75-1.5,20.75c6.5,3.75,12.5,7.75,17.5,11.25v-51.5h-16V438.219z"/>
		<path fill="#FFFFFF" d="M419,585.719c8.75,0,10.25-2.5,11.5-20.25c7,5.25,22.5,10.5,32,12.5c-4,31.75-13.75,39.75-40,39.75H387
			c-36,0-44-10-44-39.5v-28.75h33.75c-3-2.25-5.75-4.25-8.5-6l17-14h-50.5v-55.25h73v35c6.5-4.25,12.75-9,18.5-14.25
			c-7.5-17.25-13.25-38.25-17-61H332v10.25c0,31.75-5,77.5-29.25,106c-5.25-6.25-19.5-18.25-26.5-22
			c20.75-24.5,22.5-59.25,22.5-84.5v-38.25h107c-0.5-7.25-1-14.5-1.25-22h34c0.25,7.5,0.5,14.75,1.25,22H454c-4-2-8.25-3.75-12-5.25
			l17.75-19.75c11.5,3.75,26.5,10.5,34.5,16.5l-7.5,8.5h20.5v28.5H443.5c2,11,4.5,21.25,7.25,30.5c5-8.5,9.25-17.75,12.5-27.5
			l33.5,8c-7.25,20.25-17.5,38.75-30,54.75c4.75,6,9.75,9.5,14.5,9.5c5.25,0,7.25-8.25,8.5-29c7.25,6.5,18.5,13,27,15.75
			c-4.75,37.75-15,45.75-37.5,45.75c-13.5,0-25.25-6.5-35-17.5c-6.5,5.75-13,10.75-20,15.25c-3.5-4.5-10.25-12-16.5-18v8H400
			c10.75,7.25,22,16.5,28,23.75l-25.25,21.25c-4.75-6.75-14-15.5-23.75-23.25v26.5c0,7.25,1.75,8,12.75,8H419z M278.75,595.469
			c14.25-11.25,24.5-28.5,29.75-47.25l32.5,11.5c-6,21.25-15.25,42.25-32,56.25L278.75,595.469z M408,465.219h-72.25v-22.5H408
			V465.219z M378.5,496.719h-15v10.25h15V496.719z M478.75,543.719c15.5,15.5,31.75,36.75,38,53.25l-33.25,16.5
			c-5-15.5-20-38.25-35.25-54.75L478.75,543.719z"/>
		<path fill="#FFFFFF" d="M603,489.469v131.5h-35.5v-229.5h97v98H603z M603,419.719v7.5h27.75v-7.5H603z M630.75,461.219v-7.75H603
			v7.75H630.75z M778,582.969c0,16-2.5,25.25-12,31.25s-21.5,6.75-38,6.75c-1-8-4.75-20.5-8.75-29.75c-0.75,9.5-3.5,15.25-11,18.75
			c-9,4.5-20.75,4.75-36.25,4.75c-1-8.25-4.75-19.75-8.5-27.25c8,0.5,18,0.5,20.75,0.25c3,0,4-0.75,4-3.5v-6.25h-32.5
			c-2.5,14.5-7.25,28.25-16.25,38.5c-5.75-4.75-20-13.25-27.5-16.5c14.75-16.75,16-40,16-58.75v-45h91.5v90.5
			c7.25,0.25,15,0.25,18,0.25c3.25,0,4.25-1.25,4.25-4.5v-93h-63v-98H778V582.969z M688.25,555.719v-6.5H658.5l-0.25,6.5H688.25z
			 M658.5,520.719v6.25h29.75v-6.25H658.5z M712.75,419.719v7.5h29v-7.5H712.75z M741.75,461.219v-7.75h-29v7.75H741.75z"/>
		<path fill="#FFFFFF" d="M880.25,523.219v11h15v-10h27v28.75H880c-0.25,12.25-1.5,22.5-3.75,31.75h46v34h-27v-15.25H869.5
			c-3.5,6.5-7.75,12.5-13.25,18c-6.5-7-20.25-16.75-29.25-21.5c18.5-16.75,21-38.25,21-56.75v-20H880.25z M1061.5,449.719v27.5
			h-21.75v18.75H964.5v5.25h67.5v18.5h-67.5v40h46.75v19H964.5v41.5h-34.25v-41.5H885v-19h45.25v-40h-65v-18.5h65v-5.25H853v-17
			h77.25v-5.5h-99.5v-19.5h99.5v-5.5H856v-17h74.25v-7h34.25v7h75.25v18.25H1061.5z M885.75,419.719H836v-24.75h49.75v-11.5h36v11.5
			h23.5v24.75h-23.5v8.75h-36V419.719z M975.25,419.719h-23v-24.75h23v-11.5h36.25v11.5h49v24.75h-49v8.75h-36.25V419.719z
			 M964.5,453.969h41v-5.5h-41V453.969z M1005.5,478.969v-5.5h-41v5.5H1005.5z M1017.25,523.219h32.5v98h-32.5v-18H999.5v15.25
			h-27.25v-34h45v-31.5h-45v-28.75h27.25v10h17.75V523.219z"/>
	</g>
</g>
<g>
	<g>
		<path fill="#737F8A" d="M41.7,2.975l-16.45,28.49L8.8,2.975H41.7z"/>
		<path fill="#737F8A" d="M54.02,30.065l-1.505-0.805c0.606-0.747,1.16-1.61,1.663-2.59c0.501-0.98,0.939-1.983,1.313-3.01
			c0.373-1.026,0.688-1.983,0.945-2.87l1.47,0.525c-0.28,0.91-0.607,1.902-0.98,2.975c-0.374,1.074-0.799,2.112-1.277,3.115
			C55.168,28.408,54.626,29.295,54.02,30.065z M79.919,1.575v15.26H55.805V1.575H79.919z M57.45,3.15v5.285h9.695V3.15H57.45z
			 M57.45,9.94v5.355h9.695V9.94H57.45z M64.904,29.365h7.7c0.63,0,1.097-0.111,1.4-0.333c0.303-0.221,0.519-0.676,0.647-1.365
			c0.128-0.688,0.216-1.733,0.263-3.133c0.233,0.164,0.501,0.304,0.805,0.42c0.303,0.117,0.571,0.199,0.805,0.245
			c-0.093,1.54-0.251,2.725-0.472,3.553c-0.222,0.828-0.59,1.4-1.103,1.715c-0.514,0.315-1.272,0.473-2.275,0.473h-7.77
			c-1.633,0-2.742-0.181-3.325-0.542c-0.583-0.362-0.875-1.091-0.875-2.188v-7.665h1.68v7.665c0,0.467,0.151,0.776,0.455,0.927
			S63.831,29.365,64.904,29.365z M72.535,23.1l-1.155,1.19c-0.537-0.513-1.225-1.085-2.065-1.715s-1.738-1.254-2.695-1.873
			c-0.957-0.618-1.89-1.16-2.8-1.627l1.12-1.05c0.91,0.467,1.843,0.992,2.8,1.575c0.956,0.583,1.86,1.179,2.712,1.785
			C71.304,21.992,71.998,22.563,72.535,23.1z M78.274,8.435V3.15h-9.52v5.285H78.274z M78.274,15.295V9.94h-9.52v5.355H78.274z
			 M76.7,20.93l1.505-0.63c0.7,0.887,1.394,1.855,2.083,2.905c0.688,1.05,1.307,2.077,1.855,3.08
			c0.548,1.003,0.962,1.902,1.243,2.695l-1.61,0.735c-0.28-0.793-0.683-1.703-1.208-2.73c-0.525-1.026-1.126-2.07-1.802-3.133
			C78.087,22.791,77.399,21.817,76.7,20.93z"/>
		<path fill="#737F8A" d="M94.06,13.405l-0.945,1.365c-0.42-0.396-0.963-0.828-1.628-1.295c-0.665-0.466-1.377-0.921-2.135-1.365
			c-0.758-0.443-1.511-0.828-2.257-1.155l0.98-1.19c0.723,0.304,1.464,0.671,2.222,1.103c0.758,0.432,1.47,0.864,2.135,1.295
			C93.097,12.594,93.64,13.008,94.06,13.405z M93.569,18.9l1.33,0.945c-0.513,1.213-1.08,2.497-1.697,3.85
			c-0.619,1.354-1.249,2.677-1.89,3.973c-0.642,1.295-1.254,2.467-1.837,3.517l-1.47-1.015c0.537-0.91,1.132-1.995,1.785-3.255
			c0.653-1.26,1.313-2.59,1.978-3.99S93.033,20.183,93.569,18.9z M95.705,4.375L94.689,5.74c-0.397-0.443-0.916-0.916-1.558-1.417
			c-0.642-0.501-1.336-0.992-2.083-1.47c-0.747-0.478-1.482-0.892-2.205-1.242l1.015-1.19c0.7,0.35,1.423,0.752,2.17,1.208
			s1.447,0.922,2.1,1.4C94.783,3.506,95.308,3.955,95.705,4.375z M117.055,19.285h-7.035v10.43c0,0.49-0.07,0.869-0.21,1.137
			s-0.409,0.461-0.805,0.578c-0.374,0.14-0.934,0.222-1.68,0.245c-0.747,0.023-1.727,0.023-2.94,0
			c-0.047-0.187-0.123-0.42-0.228-0.7c-0.105-0.28-0.205-0.537-0.298-0.77c0.957,0.023,1.791,0.035,2.502,0.035s1.184,0,1.417,0
			c0.42-0.023,0.63-0.198,0.63-0.525v-10.43h-6.72V7.56h5.845c0.187-0.653,0.373-1.376,0.56-2.17c0.187-0.793,0.326-1.516,0.42-2.17
			h-9.345v7.945c0,1.494-0.052,3.115-0.157,4.865s-0.315,3.529-0.63,5.337c-0.315,1.809-0.782,3.57-1.4,5.285
			c-0.619,1.715-1.441,3.308-2.467,4.777c-0.14-0.117-0.356-0.269-0.647-0.455c-0.292-0.187-0.531-0.315-0.718-0.385
			c1.003-1.447,1.796-2.993,2.38-4.638c0.583-1.645,1.021-3.331,1.313-5.057c0.292-1.727,0.478-3.418,0.56-5.075
			c0.082-1.657,0.123-3.208,0.123-4.655v-9.52h21.07V3.22h-8.785l0.56,0.14c-0.21,0.677-0.42,1.389-0.63,2.135
			c-0.21,0.747-0.409,1.435-0.595,2.065h7.91V19.285z M103.299,21.56l1.575,0.42c-0.583,1.377-1.295,2.747-2.135,4.112
			c-0.84,1.365-1.704,2.526-2.59,3.482c-0.164-0.117-0.391-0.28-0.683-0.49c-0.292-0.21-0.542-0.362-0.752-0.455
			c0.933-0.933,1.797-2.024,2.59-3.272C102.098,24.109,102.763,22.843,103.299,21.56z M103.265,8.995v3.675h12.18V8.995H103.265z
			 M103.265,14.105v3.745h12.18v-3.745H103.265z M113.169,21.98l1.435-0.63c0.606,0.7,1.208,1.476,1.803,2.328
			c0.595,0.852,1.137,1.686,1.627,2.502c0.49,0.817,0.863,1.552,1.12,2.205l-1.54,0.735c-0.234-0.653-0.59-1.394-1.068-2.222
			c-0.479-0.828-1.009-1.674-1.592-2.538C114.371,23.497,113.776,22.703,113.169,21.98z"/>
		<path fill="#737F8A" d="M153.49,21.665v1.54h-30.905v-1.54h14.56v-3.99h-11.62v-1.47h11.62V12.6h-10.955V1.435h23.45V12.6h-10.85
			v3.605h11.655v1.47H138.79v3.99H153.49z M124.299,31.85l-1.47-0.77c0.816-0.677,1.575-1.557,2.275-2.642
			c0.7-1.085,1.271-2.164,1.715-3.238l1.54,0.42c-0.443,1.074-1.015,2.188-1.715,3.343C125.944,30.117,125.163,31.08,124.299,31.85z
			 M127.799,11.095h9.345v-8.19h-9.345V11.095z M130.459,4.48l1.225-0.455c0.56,0.863,1.085,1.797,1.575,2.8
			c0.49,1.003,0.816,1.867,0.98,2.59l-1.33,0.56c-0.164-0.746-0.479-1.633-0.945-2.66S130.996,5.343,130.459,4.48z M132.734,25.865
			l1.575-0.07c0.233,0.863,0.425,1.82,0.578,2.87c0.151,1.05,0.228,1.913,0.228,2.59L133.47,31.5c0-0.7-0.065-1.587-0.193-2.66
			C133.148,27.767,132.967,26.775,132.734,25.865z M147.959,11.095v-8.19h-9.17v8.19H147.959z M140.015,25.9l1.575-0.28
			c0.42,0.864,0.828,1.814,1.225,2.853c0.396,1.038,0.688,1.908,0.875,2.607l-1.645,0.42c-0.164-0.724-0.438-1.616-0.822-2.678
			C140.837,27.761,140.435,26.787,140.015,25.9z M142.044,10.43l-1.12-0.56c0.35-0.513,0.718-1.114,1.103-1.802
			c0.385-0.688,0.758-1.388,1.12-2.1c0.361-0.711,0.659-1.359,0.893-1.942l1.4,0.595c-0.514,0.98-1.073,2.007-1.68,3.08
			C143.152,8.773,142.581,9.683,142.044,10.43z M147.225,25.795l1.505-0.56c0.606,0.56,1.213,1.19,1.82,1.89
			c0.607,0.7,1.173,1.388,1.698,2.065c0.525,0.676,0.95,1.283,1.277,1.82l-1.54,0.7c-0.303-0.537-0.717-1.15-1.242-1.838
			c-0.525-0.688-1.091-1.388-1.698-2.1C148.438,27.061,147.831,26.402,147.225,25.795z"/>
		<path fill="#737F8A" d="M171.129,15.645h-1.435V12.25h-10.29v3.395h-1.4v-4.76H160V1.33h9.135v9.555h1.995V15.645z
			 M169.135,15.085V29.82c0,0.863-0.28,1.4-0.84,1.61c-0.327,0.117-0.788,0.187-1.382,0.21c-0.595,0.023-1.383,0.035-2.363,0.035
			c-0.023-0.187-0.093-0.409-0.21-0.665c-0.117-0.257-0.233-0.49-0.35-0.7c0.746,0.023,1.405,0.035,1.977,0.035
			s0.939-0.012,1.103-0.035c0.35,0,0.525-0.163,0.525-0.49v-4.41h-6.125v6.3h-1.505V15.085H169.135z M161.399,2.73v8.155h2.24v-5.39
			h4.025V2.73H161.399z M167.595,16.45h-6.125v3.045h6.125V16.45z M161.47,24.045h6.125v-3.15h-6.125V24.045z M167.665,10.885V6.79
			h-2.73v4.095H167.665z M182.854,29.505h6.09v1.4h-18.13v-1.4h5.81c-0.093-0.583-0.257-1.23-0.49-1.942
			c-0.234-0.712-0.514-1.359-0.84-1.943l1.33-0.42c0.35,0.607,0.653,1.29,0.91,2.047c0.256,0.759,0.431,1.417,0.525,1.978
			l-0.805,0.28h5.04l-0.7-0.28c0.28-0.583,0.577-1.26,0.892-2.03c0.315-0.77,0.554-1.446,0.718-2.03l1.47,0.525
			c-0.303,0.653-0.612,1.318-0.927,1.995C183.432,28.362,183.135,28.968,182.854,29.505z M188.77,15.225v1.4h-17.395v-1.4H188.77z
			 M187.334,3.395v9.765h-14.7V3.395h4.305V0h1.4v3.395h3.08V0h1.4v3.395H187.334z M186.564,24.955h-13.16v-6.3h13.16V24.955z
			 M174.035,4.725V7.56h3.045V4.725H174.035z M174.035,8.925v2.905h3.045V8.925H174.035z M174.91,19.95v3.71h10.115v-3.71H174.91z
			 M178.339,7.56h3.08V4.725h-3.08V7.56z M181.419,8.925h-3.08v2.905h3.08V8.925z M185.865,7.56V4.725h-3.185V7.56H185.865z
			 M185.865,11.83V8.925h-3.185v2.905H185.865z"/>
	</g>
</g>
<g>
	<g>
		<path fill="#6FCACA" d="M41.7,334.975l-16.45,28.49L8.8,334.975H41.7z"/>
		<path fill="#6FCACA" d="M63.12,334.625v22.33h-8.05v2.73h-1.645v-25.06H63.12z M61.544,336.2h-6.475v8.61h6.475V336.2z
			 M55.069,355.38h6.475v-9.03h-6.475V355.38z M64.66,333.75h17.815c0,0.42-0.012,0.7-0.035,0.84
			c-0.14,2.59-0.292,4.672-0.455,6.248c-0.164,1.575-0.344,2.771-0.542,3.587c-0.198,0.817-0.449,1.389-0.752,1.715
			c-0.49,0.49-1.144,0.747-1.96,0.77c-0.374,0.023-0.91,0.03-1.61,0.018c-0.7-0.011-1.447-0.041-2.24-0.087
			c-0.023-0.256-0.07-0.525-0.14-0.805c-0.07-0.28-0.187-0.536-0.35-0.77c0.84,0.07,1.615,0.117,2.327,0.14
			c0.712,0.023,1.196,0.035,1.453,0.035c0.537,0,0.921-0.117,1.155-0.35c0.21-0.233,0.396-0.7,0.56-1.4
			c0.163-0.7,0.32-1.727,0.472-3.08c0.151-1.353,0.286-3.115,0.403-5.285h-7.805c-0.28,1.75-0.718,3.418-1.313,5.005
			c-0.595,1.587-1.441,3.022-2.538,4.305c-1.097,1.284-2.555,2.345-4.375,3.185c-0.117-0.187-0.28-0.402-0.49-0.647
			c-0.21-0.245-0.409-0.438-0.595-0.578c1.727-0.747,3.103-1.703,4.13-2.87c1.026-1.167,1.808-2.473,2.345-3.92
			c0.537-1.446,0.921-2.94,1.155-4.48H64.66V333.75z M65.85,363.675v-14.07h16.205v13.93H80.41v-1.68h-12.95v1.82H65.85z
			 M80.41,351.18h-12.95v9.1h12.95V351.18z"/>
		<path fill="#6FCACA" d="M94.06,345.405l-0.945,1.365c-0.42-0.396-0.963-0.828-1.628-1.295c-0.665-0.466-1.377-0.921-2.135-1.365
			c-0.758-0.443-1.511-0.828-2.257-1.155l0.98-1.19c0.723,0.304,1.464,0.671,2.222,1.103c0.758,0.432,1.47,0.864,2.135,1.295
			C93.097,344.594,93.64,345.008,94.06,345.405z M93.569,350.9l1.33,0.945c-0.513,1.213-1.08,2.497-1.697,3.85
			c-0.619,1.354-1.249,2.677-1.89,3.973c-0.642,1.295-1.254,2.467-1.837,3.517l-1.47-1.015c0.537-0.91,1.132-1.995,1.785-3.255
			c0.653-1.26,1.313-2.59,1.978-3.99S93.033,352.183,93.569,350.9z M95.705,336.375l-1.015,1.365
			c-0.397-0.443-0.916-0.916-1.558-1.417c-0.642-0.501-1.336-0.992-2.083-1.47c-0.747-0.478-1.482-0.892-2.205-1.242l1.015-1.19
			c0.7,0.35,1.423,0.752,2.17,1.208s1.447,0.922,2.1,1.4C94.783,335.506,95.308,335.955,95.705,336.375z M117.055,351.285h-7.035
			v10.43c0,0.49-0.07,0.869-0.21,1.137s-0.409,0.461-0.805,0.578c-0.374,0.14-0.934,0.222-1.68,0.245
			c-0.747,0.023-1.727,0.023-2.94,0c-0.047-0.187-0.123-0.42-0.228-0.7c-0.105-0.28-0.205-0.537-0.298-0.77
			c0.957,0.023,1.791,0.035,2.502,0.035s1.184,0,1.417,0c0.42-0.023,0.63-0.198,0.63-0.525v-10.43h-6.72V339.56h5.845
			c0.187-0.653,0.373-1.376,0.56-2.17c0.187-0.793,0.326-1.516,0.42-2.17h-9.345v7.945c0,1.494-0.052,3.115-0.157,4.865
			s-0.315,3.529-0.63,5.337c-0.315,1.809-0.782,3.57-1.4,5.285c-0.619,1.715-1.441,3.308-2.467,4.777
			c-0.14-0.117-0.356-0.269-0.647-0.455c-0.292-0.187-0.531-0.315-0.718-0.385c1.003-1.447,1.796-2.993,2.38-4.638
			c0.583-1.645,1.021-3.331,1.313-5.057c0.292-1.727,0.478-3.418,0.56-5.075c0.082-1.657,0.123-3.208,0.123-4.655v-9.52h21.07v1.575
			h-8.785l0.56,0.14c-0.21,0.677-0.42,1.389-0.63,2.135c-0.21,0.747-0.409,1.435-0.595,2.065h7.91V351.285z M103.299,353.56
			l1.575,0.42c-0.583,1.377-1.295,2.747-2.135,4.112c-0.84,1.365-1.704,2.526-2.59,3.482c-0.164-0.117-0.391-0.28-0.683-0.49
			c-0.292-0.21-0.542-0.362-0.752-0.455c0.933-0.933,1.797-2.024,2.59-3.272C102.098,356.109,102.763,354.843,103.299,353.56z
			 M103.265,340.995v3.675h12.18v-3.675H103.265z M103.265,346.105v3.745h12.18v-3.745H103.265z M113.169,353.98l1.435-0.63
			c0.606,0.7,1.208,1.476,1.803,2.328c0.595,0.852,1.137,1.686,1.627,2.502c0.49,0.817,0.863,1.552,1.12,2.205l-1.54,0.735
			c-0.234-0.653-0.59-1.394-1.068-2.222c-0.479-0.828-1.009-1.674-1.592-2.538C114.371,355.497,113.776,354.703,113.169,353.98z"/>
		<path fill="#6FCACA" d="M153.49,353.665v1.54h-30.905v-1.54h14.56v-3.99h-11.62v-1.47h11.62V344.6h-10.955v-11.165h23.45V344.6
			h-10.85v3.605h11.655v1.47H138.79v3.99H153.49z M124.299,363.85l-1.47-0.77c0.816-0.677,1.575-1.557,2.275-2.642
			c0.7-1.085,1.271-2.164,1.715-3.238l1.54,0.42c-0.443,1.074-1.015,2.188-1.715,3.343
			C125.944,362.117,125.163,363.08,124.299,363.85z M127.799,343.095h9.345v-8.19h-9.345V343.095z M130.459,336.48l1.225-0.455
			c0.56,0.863,1.085,1.797,1.575,2.8c0.49,1.003,0.816,1.867,0.98,2.59l-1.33,0.56c-0.164-0.746-0.479-1.633-0.945-2.66
			S130.996,337.343,130.459,336.48z M132.734,357.865l1.575-0.07c0.233,0.863,0.425,1.82,0.578,2.87
			c0.151,1.05,0.228,1.913,0.228,2.59l-1.645,0.245c0-0.7-0.065-1.587-0.193-2.66C133.148,359.767,132.967,358.775,132.734,357.865z
			 M147.959,343.095v-8.19h-9.17v8.19H147.959z M140.015,357.9l1.575-0.28c0.42,0.864,0.828,1.814,1.225,2.853
			c0.396,1.038,0.688,1.908,0.875,2.607l-1.645,0.42c-0.164-0.724-0.438-1.616-0.822-2.678
			C140.837,359.761,140.435,358.787,140.015,357.9z M142.044,342.43l-1.12-0.56c0.35-0.513,0.718-1.114,1.103-1.802
			c0.385-0.688,0.758-1.388,1.12-2.1c0.361-0.711,0.659-1.359,0.893-1.942l1.4,0.595c-0.514,0.98-1.073,2.007-1.68,3.08
			C143.152,340.773,142.581,341.683,142.044,342.43z M147.225,357.795l1.505-0.56c0.606,0.56,1.213,1.19,1.82,1.89
			c0.607,0.7,1.173,1.388,1.698,2.065c0.525,0.676,0.95,1.283,1.277,1.82l-1.54,0.7c-0.303-0.537-0.717-1.15-1.242-1.838
			c-0.525-0.688-1.091-1.388-1.698-2.1C148.438,359.061,147.831,358.402,147.225,357.795z"/>
		<path fill="#6FCACA" d="M171.129,347.645h-1.435v-3.395h-10.29v3.395h-1.4v-4.76H160v-9.555h9.135v9.555h1.995V347.645z
			 M169.135,347.085v14.735c0,0.863-0.28,1.4-0.84,1.61c-0.327,0.117-0.788,0.187-1.382,0.21c-0.595,0.023-1.383,0.035-2.363,0.035
			c-0.023-0.187-0.093-0.409-0.21-0.665c-0.117-0.257-0.233-0.49-0.35-0.7c0.746,0.023,1.405,0.035,1.977,0.035
			s0.939-0.012,1.103-0.035c0.35,0,0.525-0.163,0.525-0.49v-4.41h-6.125v6.3h-1.505v-16.625H169.135z M161.399,334.73v8.155h2.24
			v-5.39h4.025v-2.765H161.399z M167.595,348.45h-6.125v3.045h6.125V348.45z M161.47,356.045h6.125v-3.15h-6.125V356.045z
			 M167.665,342.885v-4.095h-2.73v4.095H167.665z M182.854,361.505h6.09v1.4h-18.13v-1.4h5.81c-0.093-0.583-0.257-1.23-0.49-1.942
			c-0.234-0.712-0.514-1.359-0.84-1.943l1.33-0.42c0.35,0.607,0.653,1.29,0.91,2.047c0.256,0.759,0.431,1.417,0.525,1.978
			l-0.805,0.28h5.04l-0.7-0.28c0.28-0.583,0.577-1.26,0.892-2.03c0.315-0.77,0.554-1.446,0.718-2.03l1.47,0.525
			c-0.303,0.653-0.612,1.318-0.927,1.995C183.432,360.362,183.135,360.968,182.854,361.505z M188.77,347.225v1.4h-17.395v-1.4
			H188.77z M187.334,335.395v9.765h-14.7v-9.765h4.305V332h1.4v3.395h3.08V332h1.4v3.395H187.334z M186.564,356.955h-13.16v-6.3
			h13.16V356.955z M174.035,336.725v2.835h3.045v-2.835H174.035z M174.035,340.925v2.905h3.045v-2.905H174.035z M174.91,351.95v3.71
			h10.115v-3.71H174.91z M178.339,339.56h3.08v-2.835h-3.08V339.56z M181.419,340.925h-3.08v2.905h3.08V340.925z M185.865,339.56
			v-2.835h-3.185v2.835H185.865z M185.865,343.83v-2.905h-3.185v2.905H185.865z"/>
	</g>
</g>
<g>
</g>
<g>
</g>
<g>
</g>
<g>
</g>
<g>
</g>
<g>
</g>
</svg>
