<?xml version="1.0" encoding="utf-8"?>
<!-- Generator: Adobe Illustrator 16.0.0, SVG Export Plug-In . SVG Version: 6.00 Build 0)  -->
<!DOCTYPE svg PUBLIC "-//W3C//DTD SVG 1.1//EN" "http://www.w3.org/Graphics/SVG/1.1/DTD/svg11.dtd">
<svg version="1.1" id="Layer_1" xmlns="http://www.w3.org/2000/svg" xmlns:xlink="http://www.w3.org/1999/xlink" x="0px" y="0px"
	 width="1057.25px" height="616.969px" viewBox="0 0 1057.25 616.969" enable-background="new 0 0 1057.25 616.969"
	 xml:space="preserve">
<g>
	<g>
		<path fill="#FFFFFF" d="M99.5,156.719c-2.5,82.75-5,109.25-11.25,117.75c-3.75,4.25-7.5,5.75-13.75,6.25
			c-5.25,0.5-15,0.25-24.25-0.25c-0.5-3.5-1.5-8.5-3.5-11.5c10.5,1,20,1,24,1c3.25,0.25,5.25-0.5,7.25-3c4.75-6,7.25-32,9.75-105.25
			h-41c-3.5,49.5-12,95-37,123c-2-2.5-6.25-6.25-9.75-8c31.75-34.25,35.75-100.75,37-164.75H4v-11.5h107v11.5H48.75
			c-0.25,12.75-0.5,25.75-1.25,38.25h52V156.719z M62,96.469c-4-9.75-13.75-25-22.5-36l10.5-4c9,10.75,18.75,25.5,22.75,35.25
			L62,96.469z M231,104.469v11.25h-91c-8.25,16.5-17.5,30.75-27.25,41.75c-2.75-2.75-6.75-6.25-10-8.25
			c19.5-20.25,37.75-56.75,47-91.75l11.5,3.5c-4.5,14.5-9.75,29.5-16,43.5H231z M136,224.719c28.5,13.5,63.5,34.5,81,49.5l-8,10.75
			c-17.25-15.25-52-37-80.5-51L136,224.719z M151,149.969c19,11.75,43,29,55,40l-8.25,9.75c-11.75-11.25-35.5-29.25-54.75-41.5
			L151,149.969z"/>
		<path fill="#FFFFFF" d="M329.25,180.469c-8.25,25.75-23.25,56.5-42,76.25c-2-2-6.5-5.25-9.25-7c18-18.75,32.25-48.5,39.25-72.25
			L329.25,180.469z M429.75,155.469v112c0,8.75-2,12.25-8.5,14.5s-18,2.5-37,2.5c-0.75-3.75-3.25-8.75-5-12.25
			c15.75,0.5,29,0.25,33,0c4.25-0.25,5.25-1.25,5.25-4.5v-112.25H365v129h-12v-129h-70.25v-11.5h102.5v-41.5H303.5v-11.75h81.75
			v-32.25h12.25v32.25h82v11.75h-82v41.5h103.25v11.5H429.75z M464,176.969c16.25,21,34,49.25,42,66.75l-11.75,5.5
			c-7.5-17.75-24.75-46.75-41-67.75L464,176.969z"/>
		<path fill="#FFFFFF" d="M758,271.469c9,0,10.75-3.25,11.5-22.75c2.75,1.5,7.25,3.25,10.5,4c-1.25,23.5-5.25,29-21,29h-46.5
			c-20.25,0-25.5-3.5-25.5-17.75v-52.5h-68.25v20.25h57.5v9.5h-57.5v27.25l57.25-8c-0.25,3-0.25,7,0,9.25
			c-62.25,9.75-69.5,11-73.75,13.25c-0.75-3.25-2.25-8-4-10.75c3.5-1,9.25-2.25,9.25-10.5v-50.25H583c-2,24.75-7.5,52.75-21.75,74
			c-2-2.25-7-5.75-9.5-7c18.25-27.5,21-64.5,21-91.5v-43.5h93.5c-2.75-5.25-6-10.5-9.25-15.25l10.5-4c4.5,5.5,9,13,11.75,19.25h94
			v9.75H705v16.75h61.75v41.5H698.5v20.25h66v9.5h-66v22.75c0,6,2,7.5,14.25,7.5H758z M661.75,78.219H563.5v-9.75h98.25V78.219z
			 M644,135.969v-35.25h-59.25v35.75h-11v-44.75h81.5v44.25H644z M584,187.469c0,4.5,0,9.5-0.25,14.75h48.5v-22.75H584V187.469z
			 M584,153.219v16.75h48.25v-16.75H584z M590.5,124.469v-9.25h46.25v9.25H590.5z M694,153.219h-50.5v16.75H694V153.219z
			 M694,202.219v-22.75h-50.5v22.75H694z M774.5,78.219H676v-9.75h98.5V78.219z M754.75,135.969v-35.25H693.5v35.75h-11v-44.75H766
			v44.25H754.75z M700.75,124.219v-9H747v9H700.75z M705,179.469v22.75h50.25v-22.75H705z"/>
		<path fill="#FFFFFF" d="M867.25,159.969c-9.25-6.5-26-16.25-39.5-22.25l6.75-8.75c13.25,5.75,30.5,14.5,39.5,21L867.25,159.969z
			 M835,271.469c9-19.25,21.25-52.75,29.5-80.25l9.75,7.25c-7.5,25.75-18.75,57.5-28.25,79.75L835,271.469z M882.5,93.719
			c-9-6.75-26-17-40.25-23.75l7.25-8.5c13.75,6.25,31.75,16.25,40.75,22.75L882.5,93.719z M951,135.969
			c-14,28.25-34.25,52.5-64,68.5c-1.75-2.25-5-6.75-7.5-9c26.75-14.25,45.25-35,58.25-59.5H885.5v-11.25h57.75
			c5.5-12.75,9.75-26.5,12.5-40.25H896v-11.25h149.25v11.25h-77c-2.75,13.75-7,27.5-12.5,40.25H1053v11.25h-54.25
			c13.5,22.25,36,42.75,58.25,52.75c-2.75,2.25-6.25,6.25-8.25,9.5c-23.75-12.25-48.75-36.75-62.5-62.25H951z M886,255.969
			c15.75-15.75,27.5-41,34-60.5l9.75,4c-7.5,19.75-18.75,46-34.5,62.5L886,255.969z M949.5,165.969h11.25v118.5H949.5V165.969z
			 M988.25,197.219c8,17.5,15.25,40.5,17.5,55.5l-10.25,3.25c-2.25-15.25-9.25-38.25-17-55.75L988.25,197.219z M1018,189.469
			c15.5,20,31.25,46.75,37.75,64.25l-10.5,5c-6-18-21.75-45.25-36.75-65.25L1018,189.469z"/>
	</g>
</g>
<g>
	<g>
		<path fill="#FFFFFF" d="M3.75,430.969H108.5v11.5H44.75c-0.25,13-0.75,26.25-1.25,39h51c0,0.5,0,5-0.25,6.75
			C92,572.969,90.5,600.469,84,608.719c-3.5,4.75-7.75,6-13.75,6.5c-6.25,0.25-17,0-27.25-0.75c-0.5-3-1.5-8-3.75-11.25
			c11.75,1,22.5,1,26.5,1c4,0.25,6.25-0.25,8-3c4.75-5.5,7.25-32.5,8.75-108.5H43c-3.25,50-10.5,95-32,123
			c-2.25-2.25-7-5.75-10.25-7.5C28.5,573.469,32,507.469,33,442.469H3.75V430.969z M72.75,423.469l-11,5c-4-10-13.75-25.25-22.5-36
			l10.25-4C58.75,399.219,68.75,413.969,72.75,423.469z M105.75,493.469c-1.25-2.5-4.5-7.25-7-10c25.5-21,48.5-58,59-93.5h13
			c13.25,37.5,38,73.5,62,92.5c-2.25,3-5.25,7.75-7,10.75c-25-21.75-48.25-56.25-61-90C154,435.219,131.75,471.469,105.75,493.469z
			 M126.25,551.469c31.25,14,68.25,36.5,85.75,53.5l-7.25,10.25c-18-17-54.5-40.25-85.25-54.75L126.25,551.469z M146.75,485.969
			c17.5,10.25,38.25,26.25,48.25,37.5l-8.5,8.75c-9.5-11.75-29.75-28-47.75-38.75L146.75,485.969z"/>
		<path fill="#FFFFFF" d="M331.5,511.719c-9.5,22-26.75,47.5-45.25,63.75c-2.25-2.25-6.75-5.75-9.75-7.25
			c18.25-15.5,35.25-39.75,42.75-60L331.5,511.719z M429.25,485.969v112.5c0,8.5-2,12.25-8.5,14.5c-6.5,2-18.25,2-37.25,2
			c-0.75-3.25-2.75-8.25-4.75-12c16,0.5,29.25,0.25,33,0c4-0.25,5-1.25,5-4.25v-112.75h-45v17c0,35.5-5,80-55.75,114
			c-1.75-2.75-5.75-6.5-8.75-8.5c48.5-32,52.5-73.5,52.5-105.5v-17h-77.5v-11.5h103v-41.25h-78.5v-11.75h78.5v-32.25h12v32.25h85.25
			v11.75h-85.25v41.25H501.5v11.5H429.25z M462.5,507.469c16.75,19.5,35.5,46,44,62.75l-11.25,6c-8.25-16.75-26.75-44-43.25-63.75
			L462.5,507.469z"/>
		<path fill="#FFFFFF" d="M758.5,602.969c9.5,0,11.25-3.5,12-25.5c3,2,7,3.25,10.25,4.25c-1.25,25.25-5,31-21.25,31h-47
			c-20.25,0-25.5-3-25.5-17.5v-52.75h-68v20.25h57.25v9.5H619v27.75l58-8c0,2.75,0.25,6.5,0.5,8.75c-64.5,10-71.5,11.25-75.75,13.5
			c-1-2.75-3.5-7.5-5.5-10.25c4-1.5,11-4.75,11-13.5v-48H583c-2,24.75-7.5,52.75-21.75,74c-2-2.25-7-5.75-9.5-7
			c18.25-27.5,21-64.5,21-91.5v-43.5h93.5c-2.75-5.25-6-10.5-9.25-15.25l10.5-4c4.5,5.5,9,13,11.75,19.25h94v9.75H705v16.75h61.75
			v41.5H698.5v25.5c22.5-4.5,47.25-10.75,61-16.5l9,7.75c-18.25,7-45.75,13.5-70,17.25v19.25c0,5.75,2.25,7.25,14.25,7.25H758.5z
			 M661.75,409.219h-98v-9.75h98V409.219z M644,466.969v-35.25h-59.25v35.75h-11v-44.75h81.5v44.25H644z M584,518.469
			c0,4.5,0,9.5-0.25,14.75h48.5v-22.75H584V518.469z M584,484.219v16.75h48.25v-16.75H584z M607,436.969c7,6.25,15.25,15.5,19,22
			l-7.75,6c-3.75-6.5-11.5-16-18.75-23L607,436.969z M694,484.219h-50.5v16.75H694V484.219z M694,533.219v-22.75h-50.5v22.75H694z
			 M774.5,409.219H676v-9.75h98.5V409.219z M754.75,466.969v-35.25H693.5v35.75h-11v-44.75H766v44.25H754.75z M705,510.469v22.75
			h50.25v-22.75H705z M715.75,436.969c8,6,17,15,20.75,21.75l-7.25,6.25c-4.25-6.5-12.75-16-20.5-22.5L715.75,436.969z"/>
		<path fill="#FFFFFF" d="M870.25,492.969c-9-8-27.25-18.75-42.5-25.25l6.75-8.75c15.25,6.25,33.5,16.25,42.5,24.25L870.25,492.969z
			 M833.5,604.969c10-18,24.25-48.75,34.5-74.5l9.5,7c-9.5,24-22.5,53.5-33.25,74.5L833.5,604.969z M847,391.719
			c14.25,7,31.25,18.25,39.75,26.5l-7.25,10c-8.25-9-25.25-20.75-39.75-28L847,391.719z M950.25,466.719
			c-13.75,26.75-34,49.5-62.75,64.75c-1.5-2.75-5-6.75-7.25-9c25.25-13.25,43.75-33,56.5-55.75h-51v-11.25h56.75
			c6-12.5,10.5-26,13.5-39.75h-59v-11.5h148.25v11.5H969c-3.5,13.75-7.75,27-13.25,39.75h97.5v11.25h-54.5
			c13.5,22.25,36.25,42.5,58.5,52.25c-2.75,2.5-6.5,6.5-8.5,9.75c-23.75-12.25-48.75-36.25-62.75-62H950.25z M929.75,527.719
			c-6.25,20-16.5,44-33.25,58l-9.25-6.75c16.5-12.75,27.25-35.75,33-55L929.75,527.719z M951.25,496.719h11.5v103.75
			c0,7.75-1.75,11.25-7.5,13c-6,2-16.5,2.25-33.75,2.25c-0.5-3.25-2.25-7.75-4-11.25c14.25,0.5,25.75,0.25,29.5,0
			c3.25,0,4.25-1,4.25-3.75V496.719z M988.5,527.969c8,16.75,15,38.75,17.5,53l-10.5,3.5c-2.25-14.5-9.25-36.75-16.75-53.5
			L988.5,527.969z M1019,519.969c15.25,19,31.5,44.5,38.25,61.25l-10.25,5.25c-6.75-17.25-22.75-43.25-37.75-62L1019,519.969z"/>
	</g>
</g>
<g>
	<g>
		<path fill="#737F8A" d="M35.45,2.975L19,31.465L2.55,2.975H35.45z"/>
		<path fill="#737F8A" d="M47.77,30.065l-1.505-0.805c0.606-0.747,1.16-1.61,1.663-2.59c0.501-0.98,0.939-1.983,1.313-3.01
			c0.373-1.026,0.688-1.983,0.945-2.87l1.47,0.525c-0.28,0.91-0.607,1.902-0.98,2.975c-0.374,1.074-0.799,2.112-1.277,3.115
			C48.918,28.408,48.376,29.295,47.77,30.065z M73.669,1.575v15.26H49.555V1.575H73.669z M51.2,3.15v5.285h9.695V3.15H51.2z
			 M51.2,9.94v5.355h9.695V9.94H51.2z M58.654,29.365h7.7c0.63,0,1.097-0.111,1.4-0.333c0.303-0.221,0.519-0.676,0.647-1.365
			c0.128-0.688,0.216-1.733,0.263-3.133c0.233,0.164,0.501,0.304,0.805,0.42c0.303,0.117,0.571,0.199,0.805,0.245
			c-0.093,1.54-0.251,2.725-0.472,3.553c-0.222,0.828-0.59,1.4-1.103,1.715c-0.514,0.315-1.272,0.473-2.275,0.473h-7.77
			c-1.633,0-2.742-0.181-3.325-0.542c-0.583-0.362-0.875-1.091-0.875-2.188v-7.665h1.68v7.665c0,0.467,0.151,0.776,0.455,0.927
			S57.581,29.365,58.654,29.365z M66.285,23.1l-1.155,1.19c-0.537-0.513-1.225-1.085-2.065-1.715s-1.738-1.254-2.695-1.873
			c-0.957-0.618-1.89-1.16-2.8-1.627l1.12-1.05c0.91,0.467,1.843,0.992,2.8,1.575c0.956,0.583,1.86,1.179,2.712,1.785
			C65.054,21.992,65.748,22.563,66.285,23.1z M72.024,8.435V3.15h-9.52v5.285H72.024z M72.024,15.295V9.94h-9.52v5.355H72.024z
			 M70.45,20.93l1.505-0.63c0.7,0.887,1.394,1.855,2.083,2.905c0.688,1.05,1.307,2.077,1.855,3.08
			c0.548,1.003,0.962,1.902,1.243,2.695l-1.61,0.735c-0.28-0.793-0.683-1.703-1.208-2.73c-0.525-1.026-1.126-2.07-1.802-3.133
			C71.837,22.791,71.149,21.817,70.45,20.93z"/>
		<path fill="#737F8A" d="M87.81,13.405l-0.945,1.365c-0.42-0.396-0.963-0.828-1.628-1.295c-0.665-0.466-1.377-0.921-2.135-1.365
			c-0.758-0.443-1.511-0.828-2.257-1.155l0.98-1.19c0.723,0.304,1.464,0.671,2.222,1.103c0.758,0.432,1.47,0.864,2.135,1.295
			C86.847,12.594,87.39,13.008,87.81,13.405z M87.319,18.9l1.33,0.945c-0.513,1.213-1.08,2.497-1.697,3.85
			c-0.619,1.354-1.249,2.677-1.89,3.973c-0.642,1.295-1.254,2.467-1.837,3.517l-1.47-1.015c0.537-0.91,1.132-1.995,1.785-3.255
			c0.653-1.26,1.313-2.59,1.978-3.99S86.783,20.183,87.319,18.9z M89.455,4.375L88.439,5.74c-0.397-0.443-0.916-0.916-1.558-1.417
			c-0.642-0.501-1.336-0.992-2.083-1.47c-0.747-0.478-1.482-0.892-2.205-1.242l1.015-1.19c0.7,0.35,1.423,0.752,2.17,1.208
			s1.447,0.922,2.1,1.4C88.533,3.506,89.058,3.955,89.455,4.375z M110.805,19.285h-7.035v10.43c0,0.49-0.07,0.869-0.21,1.137
			s-0.409,0.461-0.805,0.578c-0.374,0.14-0.934,0.222-1.68,0.245c-0.747,0.023-1.727,0.023-2.94,0
			c-0.047-0.187-0.123-0.42-0.228-0.7c-0.105-0.28-0.205-0.537-0.298-0.77c0.957,0.023,1.791,0.035,2.502,0.035s1.184,0,1.417,0
			c0.42-0.023,0.63-0.198,0.63-0.525v-10.43h-6.72V7.56h5.845c0.187-0.653,0.373-1.376,0.56-2.17c0.187-0.793,0.326-1.516,0.42-2.17
			h-9.345v7.945c0,1.494-0.052,3.115-0.157,4.865s-0.315,3.529-0.63,5.337c-0.315,1.809-0.782,3.57-1.4,5.285
			c-0.619,1.715-1.441,3.308-2.467,4.777c-0.14-0.117-0.356-0.269-0.647-0.455c-0.292-0.187-0.531-0.315-0.718-0.385
			c1.003-1.447,1.796-2.993,2.38-4.638c0.583-1.645,1.021-3.331,1.313-5.057c0.292-1.727,0.478-3.418,0.56-5.075
			c0.082-1.657,0.123-3.208,0.123-4.655v-9.52h21.07V3.22h-8.785l0.56,0.14c-0.21,0.677-0.42,1.389-0.63,2.135
			c-0.21,0.747-0.409,1.435-0.595,2.065h7.91V19.285z M97.049,21.56l1.575,0.42c-0.583,1.377-1.295,2.747-2.135,4.112
			c-0.84,1.365-1.704,2.526-2.59,3.482c-0.164-0.117-0.391-0.28-0.683-0.49c-0.292-0.21-0.542-0.362-0.752-0.455
			c0.933-0.933,1.797-2.024,2.59-3.272C95.848,24.109,96.513,22.843,97.049,21.56z M97.015,8.995v3.675h12.18V8.995H97.015z
			 M97.015,14.105v3.745h12.18v-3.745H97.015z M106.919,21.98l1.435-0.63c0.606,0.7,1.208,1.476,1.803,2.328
			c0.595,0.852,1.137,1.686,1.627,2.502c0.49,0.817,0.863,1.552,1.12,2.205l-1.54,0.735c-0.234-0.653-0.59-1.394-1.068-2.222
			c-0.479-0.828-1.009-1.674-1.592-2.538C108.121,23.497,107.526,22.703,106.919,21.98z"/>
		<path fill="#737F8A" d="M147.24,21.665v1.54h-30.905v-1.54h14.56v-3.99h-11.62v-1.47h11.62V12.6h-10.955V1.435h23.45V12.6h-10.85
			v3.605h11.655v1.47H132.54v3.99H147.24z M118.049,31.85l-1.47-0.77c0.816-0.677,1.575-1.557,2.275-2.642
			c0.7-1.085,1.271-2.164,1.715-3.238l1.54,0.42c-0.443,1.074-1.015,2.188-1.715,3.343C119.694,30.117,118.913,31.08,118.049,31.85z
			 M121.549,11.095h9.345v-8.19h-9.345V11.095z M124.209,4.48l1.225-0.455c0.56,0.863,1.085,1.797,1.575,2.8
			c0.49,1.003,0.816,1.867,0.98,2.59l-1.33,0.56c-0.164-0.746-0.479-1.633-0.945-2.66S124.746,5.343,124.209,4.48z M126.484,25.865
			l1.575-0.07c0.233,0.863,0.425,1.82,0.578,2.87c0.151,1.05,0.228,1.913,0.228,2.59L127.22,31.5c0-0.7-0.065-1.587-0.193-2.66
			C126.898,27.767,126.717,26.775,126.484,25.865z M141.709,11.095v-8.19h-9.17v8.19H141.709z M133.765,25.9l1.575-0.28
			c0.42,0.864,0.828,1.814,1.225,2.853c0.396,1.038,0.688,1.908,0.875,2.607l-1.645,0.42c-0.164-0.724-0.438-1.616-0.822-2.678
			C134.587,27.761,134.185,26.787,133.765,25.9z M135.794,10.43l-1.12-0.56c0.35-0.513,0.718-1.114,1.103-1.802
			c0.385-0.688,0.758-1.388,1.12-2.1c0.361-0.711,0.659-1.359,0.893-1.942l1.4,0.595c-0.514,0.98-1.073,2.007-1.68,3.08
			C136.902,8.773,136.331,9.683,135.794,10.43z M140.975,25.795l1.505-0.56c0.606,0.56,1.213,1.19,1.82,1.89
			c0.607,0.7,1.173,1.388,1.698,2.065c0.525,0.676,0.95,1.283,1.277,1.82l-1.54,0.7c-0.303-0.537-0.717-1.15-1.242-1.838
			c-0.525-0.688-1.091-1.388-1.698-2.1C142.188,27.061,141.581,26.402,140.975,25.795z"/>
		<path fill="#737F8A" d="M164.879,15.645h-1.435V12.25h-10.29v3.395h-1.4v-4.76h1.995V1.33h9.135v9.555h1.995V15.645z
			 M162.885,15.085V29.82c0,0.863-0.28,1.4-0.84,1.61c-0.327,0.117-0.788,0.187-1.382,0.21c-0.595,0.023-1.383,0.035-2.363,0.035
			c-0.023-0.187-0.093-0.409-0.21-0.665c-0.117-0.257-0.233-0.49-0.35-0.7c0.746,0.023,1.405,0.035,1.977,0.035
			s0.939-0.012,1.103-0.035c0.35,0,0.525-0.163,0.525-0.49v-4.41h-6.125v6.3h-1.505V15.085H162.885z M155.149,2.73v8.155h2.24v-5.39
			h4.025V2.73H155.149z M161.345,16.45h-6.125v3.045h6.125V16.45z M155.22,24.045h6.125v-3.15h-6.125V24.045z M161.415,10.885V6.79
			h-2.73v4.095H161.415z M176.604,29.505h6.09v1.4h-18.13v-1.4h5.81c-0.093-0.583-0.257-1.23-0.49-1.942
			c-0.234-0.712-0.514-1.359-0.84-1.943l1.33-0.42c0.35,0.607,0.653,1.29,0.91,2.047c0.256,0.759,0.431,1.417,0.525,1.978
			l-0.805,0.28h5.04l-0.7-0.28c0.28-0.583,0.577-1.26,0.892-2.03c0.315-0.77,0.554-1.446,0.718-2.03l1.47,0.525
			c-0.303,0.653-0.612,1.318-0.927,1.995C177.182,28.362,176.885,28.968,176.604,29.505z M182.52,15.225v1.4h-17.395v-1.4H182.52z
			 M181.084,3.395v9.765h-14.7V3.395h4.305V0h1.4v3.395h3.08V0h1.4v3.395H181.084z M180.314,24.955h-13.16v-6.3h13.16V24.955z
			 M167.785,4.725V7.56h3.045V4.725H167.785z M167.785,8.925v2.905h3.045V8.925H167.785z M168.66,19.95v3.71h10.115v-3.71H168.66z
			 M172.089,7.56h3.08V4.725h-3.08V7.56z M175.169,8.925h-3.08v2.905h3.08V8.925z M179.615,7.56V4.725h-3.185V7.56H179.615z
			 M179.615,11.83V8.925h-3.185v2.905H179.615z"/>
	</g>
</g>
<g>
	<g>
		<path fill="#6FCACA" d="M35.45,334.975L19,363.465l-16.45-28.49H35.45z"/>
		<path fill="#6FCACA" d="M56.87,334.625v22.33h-8.05v2.73h-1.645v-25.06H56.87z M55.294,336.2h-6.475v8.61h6.475V336.2z
			 M48.819,355.38h6.475v-9.03h-6.475V355.38z M58.41,333.75h17.815c0,0.42-0.012,0.7-0.035,0.84
			c-0.14,2.59-0.292,4.672-0.455,6.248c-0.164,1.575-0.344,2.771-0.542,3.587c-0.198,0.817-0.449,1.389-0.752,1.715
			c-0.49,0.49-1.144,0.747-1.96,0.77c-0.374,0.023-0.91,0.03-1.61,0.018c-0.7-0.011-1.447-0.041-2.24-0.087
			c-0.023-0.256-0.07-0.525-0.14-0.805c-0.07-0.28-0.187-0.536-0.35-0.77c0.84,0.07,1.615,0.117,2.327,0.14
			c0.712,0.023,1.196,0.035,1.453,0.035c0.537,0,0.921-0.117,1.155-0.35c0.21-0.233,0.396-0.7,0.56-1.4
			c0.163-0.7,0.32-1.727,0.472-3.08c0.151-1.353,0.286-3.115,0.403-5.285h-7.805c-0.28,1.75-0.718,3.418-1.313,5.005
			c-0.595,1.587-1.441,3.022-2.538,4.305c-1.097,1.284-2.555,2.345-4.375,3.185c-0.117-0.187-0.28-0.402-0.49-0.647
			c-0.21-0.245-0.409-0.438-0.595-0.578c1.727-0.747,3.103-1.703,4.13-2.87c1.026-1.167,1.808-2.473,2.345-3.92
			c0.537-1.446,0.921-2.94,1.155-4.48H58.41V333.75z M59.6,363.675v-14.07h16.205v13.93H74.16v-1.68h-12.95v1.82H59.6z
			 M74.16,351.18h-12.95v9.1h12.95V351.18z"/>
		<path fill="#6FCACA" d="M87.81,345.405l-0.945,1.365c-0.42-0.396-0.963-0.828-1.628-1.295c-0.665-0.466-1.377-0.921-2.135-1.365
			c-0.758-0.443-1.511-0.828-2.257-1.155l0.98-1.19c0.723,0.304,1.464,0.671,2.222,1.103c0.758,0.432,1.47,0.864,2.135,1.295
			C86.847,344.594,87.39,345.008,87.81,345.405z M87.319,350.9l1.33,0.945c-0.513,1.213-1.08,2.497-1.697,3.85
			c-0.619,1.354-1.249,2.677-1.89,3.973c-0.642,1.295-1.254,2.467-1.837,3.517l-1.47-1.015c0.537-0.91,1.132-1.995,1.785-3.255
			c0.653-1.26,1.313-2.59,1.978-3.99S86.783,352.183,87.319,350.9z M89.455,336.375l-1.015,1.365
			c-0.397-0.443-0.916-0.916-1.558-1.417c-0.642-0.501-1.336-0.992-2.083-1.47c-0.747-0.478-1.482-0.892-2.205-1.242l1.015-1.19
			c0.7,0.35,1.423,0.752,2.17,1.208s1.447,0.922,2.1,1.4C88.533,335.506,89.058,335.955,89.455,336.375z M110.805,351.285h-7.035
			v10.43c0,0.49-0.07,0.869-0.21,1.137s-0.409,0.461-0.805,0.578c-0.374,0.14-0.934,0.222-1.68,0.245
			c-0.747,0.023-1.727,0.023-2.94,0c-0.047-0.187-0.123-0.42-0.228-0.7c-0.105-0.28-0.205-0.537-0.298-0.77
			c0.957,0.023,1.791,0.035,2.502,0.035s1.184,0,1.417,0c0.42-0.023,0.63-0.198,0.63-0.525v-10.43h-6.72V339.56h5.845
			c0.187-0.653,0.373-1.376,0.56-2.17c0.187-0.793,0.326-1.516,0.42-2.17h-9.345v7.945c0,1.494-0.052,3.115-0.157,4.865
			s-0.315,3.529-0.63,5.337c-0.315,1.809-0.782,3.57-1.4,5.285c-0.619,1.715-1.441,3.308-2.467,4.777
			c-0.14-0.117-0.356-0.269-0.647-0.455c-0.292-0.187-0.531-0.315-0.718-0.385c1.003-1.447,1.796-2.993,2.38-4.638
			c0.583-1.645,1.021-3.331,1.313-5.057c0.292-1.727,0.478-3.418,0.56-5.075c0.082-1.657,0.123-3.208,0.123-4.655v-9.52h21.07v1.575
			h-8.785l0.56,0.14c-0.21,0.677-0.42,1.389-0.63,2.135c-0.21,0.747-0.409,1.435-0.595,2.065h7.91V351.285z M97.049,353.56
			l1.575,0.42c-0.583,1.377-1.295,2.747-2.135,4.112c-0.84,1.365-1.704,2.526-2.59,3.482c-0.164-0.117-0.391-0.28-0.683-0.49
			c-0.292-0.21-0.542-0.362-0.752-0.455c0.933-0.933,1.797-2.024,2.59-3.272C95.848,356.109,96.513,354.843,97.049,353.56z
			 M97.015,340.995v3.675h12.18v-3.675H97.015z M97.015,346.105v3.745h12.18v-3.745H97.015z M106.919,353.98l1.435-0.63
			c0.606,0.7,1.208,1.476,1.803,2.328c0.595,0.852,1.137,1.686,1.627,2.502c0.49,0.817,0.863,1.552,1.12,2.205l-1.54,0.735
			c-0.234-0.653-0.59-1.394-1.068-2.222c-0.479-0.828-1.009-1.674-1.592-2.538C108.121,355.497,107.526,354.703,106.919,353.98z"/>
		<path fill="#6FCACA" d="M147.24,353.665v1.54h-30.905v-1.54h14.56v-3.99h-11.62v-1.47h11.62V344.6h-10.955v-11.165h23.45V344.6
			h-10.85v3.605h11.655v1.47H132.54v3.99H147.24z M118.049,363.85l-1.47-0.77c0.816-0.677,1.575-1.557,2.275-2.642
			c0.7-1.085,1.271-2.164,1.715-3.238l1.54,0.42c-0.443,1.074-1.015,2.188-1.715,3.343
			C119.694,362.117,118.913,363.08,118.049,363.85z M121.549,343.095h9.345v-8.19h-9.345V343.095z M124.209,336.48l1.225-0.455
			c0.56,0.863,1.085,1.797,1.575,2.8c0.49,1.003,0.816,1.867,0.98,2.59l-1.33,0.56c-0.164-0.746-0.479-1.633-0.945-2.66
			S124.746,337.343,124.209,336.48z M126.484,357.865l1.575-0.07c0.233,0.863,0.425,1.82,0.578,2.87
			c0.151,1.05,0.228,1.913,0.228,2.59l-1.645,0.245c0-0.7-0.065-1.587-0.193-2.66C126.898,359.767,126.717,358.775,126.484,357.865z
			 M141.709,343.095v-8.19h-9.17v8.19H141.709z M133.765,357.9l1.575-0.28c0.42,0.864,0.828,1.814,1.225,2.853
			c0.396,1.038,0.688,1.908,0.875,2.607l-1.645,0.42c-0.164-0.724-0.438-1.616-0.822-2.678
			C134.587,359.761,134.185,358.787,133.765,357.9z M135.794,342.43l-1.12-0.56c0.35-0.513,0.718-1.114,1.103-1.802
			c0.385-0.688,0.758-1.388,1.12-2.1c0.361-0.711,0.659-1.359,0.893-1.942l1.4,0.595c-0.514,0.98-1.073,2.007-1.68,3.08
			C136.902,340.773,136.331,341.683,135.794,342.43z M140.975,357.795l1.505-0.56c0.606,0.56,1.213,1.19,1.82,1.89
			c0.607,0.7,1.173,1.388,1.698,2.065c0.525,0.676,0.95,1.283,1.277,1.82l-1.54,0.7c-0.303-0.537-0.717-1.15-1.242-1.838
			c-0.525-0.688-1.091-1.388-1.698-2.1C142.188,359.061,141.581,358.402,140.975,357.795z"/>
		<path fill="#6FCACA" d="M164.879,347.645h-1.435v-3.395h-10.29v3.395h-1.4v-4.76h1.995v-9.555h9.135v9.555h1.995V347.645z
			 M162.885,347.085v14.735c0,0.863-0.28,1.4-0.84,1.61c-0.327,0.117-0.788,0.187-1.382,0.21c-0.595,0.023-1.383,0.035-2.363,0.035
			c-0.023-0.187-0.093-0.409-0.21-0.665c-0.117-0.257-0.233-0.49-0.35-0.7c0.746,0.023,1.405,0.035,1.977,0.035
			s0.939-0.012,1.103-0.035c0.35,0,0.525-0.163,0.525-0.49v-4.41h-6.125v6.3h-1.505v-16.625H162.885z M155.149,334.73v8.155h2.24
			v-5.39h4.025v-2.765H155.149z M161.345,348.45h-6.125v3.045h6.125V348.45z M155.22,356.045h6.125v-3.15h-6.125V356.045z
			 M161.415,342.885v-4.095h-2.73v4.095H161.415z M176.604,361.505h6.09v1.4h-18.13v-1.4h5.81c-0.093-0.583-0.257-1.23-0.49-1.942
			c-0.234-0.712-0.514-1.359-0.84-1.943l1.33-0.42c0.35,0.607,0.653,1.29,0.91,2.047c0.256,0.759,0.431,1.417,0.525,1.978
			l-0.805,0.28h5.04l-0.7-0.28c0.28-0.583,0.577-1.26,0.892-2.03c0.315-0.77,0.554-1.446,0.718-2.03l1.47,0.525
			c-0.303,0.653-0.612,1.318-0.927,1.995C177.182,360.362,176.885,360.968,176.604,361.505z M182.52,347.225v1.4h-17.395v-1.4
			H182.52z M181.084,335.395v9.765h-14.7v-9.765h4.305V332h1.4v3.395h3.08V332h1.4v3.395H181.084z M180.314,356.955h-13.16v-6.3
			h13.16V356.955z M167.785,336.725v2.835h3.045v-2.835H167.785z M167.785,340.925v2.905h3.045v-2.905H167.785z M168.66,351.95v3.71
			h10.115v-3.71H168.66z M172.089,339.56h3.08v-2.835h-3.08V339.56z M175.169,340.925h-3.08v2.905h3.08V340.925z M179.615,339.56
			v-2.835h-3.185v2.835H179.615z M179.615,343.83v-2.905h-3.185v2.905H179.615z"/>
	</g>
</g>
<g>
</g>
<g>
</g>
<g>
</g>
<g>
</g>
<g>
</g>
<g>
</g>
</svg>
