<?xml version="1.0" encoding="utf-8"?>
<!-- Generator: Adobe Illustrator 16.0.0, SVG Export Plug-In . SVG Version: 6.00 Build 0)  -->
<!DOCTYPE svg PUBLIC "-//W3C//DTD SVG 1.1//EN" "http://www.w3.org/Graphics/SVG/1.1/DTD/svg11.dtd">
<svg version="1.1" id="Layer_1" xmlns="http://www.w3.org/2000/svg" xmlns:xlink="http://www.w3.org/1999/xlink" x="0px" y="0px"
	 width="827.053px" height="126.914px" viewBox="0 0 827.053 126.914" enable-background="new 0 0 827.053 126.914"
	 xml:space="preserve">
<g>
	<g>
		<path fill="#737F8A" d="M135.129,82.206l-3.984-2.208c1.152-1.44,2.167-3.192,3.048-5.256c0.88-2.064,1.576-4.056,2.088-5.976
			l3.984,1.488c-0.384,1.28-0.824,2.648-1.32,4.104c-0.497,1.457-1.064,2.864-1.704,4.224
			C136.6,79.942,135.897,81.149,135.129,82.206z M169.497,42.797v21.888h-33.696V42.797H169.497z M140.025,46.686v5.184h10.512
			v-5.184H140.025z M140.025,55.518v5.28h10.512v-5.28H140.025z M150.105,79.757h8.16c0.736,0,1.288-0.136,1.656-0.408
			c0.367-0.271,0.631-0.824,0.792-1.656c0.16-0.832,0.288-2.095,0.384-3.792c0.48,0.353,1.128,0.68,1.944,0.984
			c0.816,0.304,1.527,0.536,2.136,0.696c-0.192,2.208-0.504,3.904-0.936,5.088s-1.088,2-1.968,2.448
			c-0.881,0.448-2.104,0.672-3.672,0.672h-8.928c-1.856,0-3.296-0.168-4.32-0.504c-1.025-0.336-1.736-0.912-2.136-1.728
			c-0.4-0.816-0.6-1.944-0.6-3.384v-8.736h4.512v8.736c0,0.672,0.184,1.104,0.552,1.296
			C148.048,79.662,148.857,79.757,150.105,79.757z M159.993,71.646l-3.168,3.072c-0.641-0.703-1.496-1.471-2.568-2.304
			c-1.073-0.832-2.225-1.656-3.456-2.472c-1.232-0.816-2.44-1.528-3.624-2.136l2.928-2.784c1.183,0.576,2.4,1.248,3.648,2.016
			s2.424,1.552,3.528,2.352C158.385,70.19,159.289,70.942,159.993,71.646z M165.081,51.87v-5.184h-10.224v5.184H165.081z
			 M165.081,60.797v-5.28h-10.224v5.28H165.081z M164.073,70.014l3.984-1.68c0.896,1.184,1.784,2.472,2.664,3.864
			c0.88,1.392,1.664,2.76,2.352,4.104c0.688,1.344,1.192,2.576,1.512,3.696l-4.32,1.824c-0.288-1.087-0.752-2.311-1.392-3.672
			c-0.641-1.36-1.376-2.751-2.208-4.176C165.833,72.55,164.968,71.23,164.073,70.014z"/>
		<path fill="#737F8A" d="M189.225,58.445l-2.64,3.648c-0.512-0.544-1.217-1.12-2.112-1.728c-0.896-0.608-1.848-1.2-2.856-1.776
			c-1.008-0.576-1.992-1.072-2.952-1.488l2.496-3.312c0.96,0.384,1.952,0.848,2.976,1.392c1.024,0.544,1.984,1.096,2.88,1.656
			C187.912,57.398,188.649,57.934,189.225,58.445z M186.537,66.27l3.6,2.496c-0.96,2.528-2.016,5.144-3.168,7.848
			c-1.152,2.705-2.288,5.192-3.408,7.464l-4.032-2.4c0.672-1.248,1.416-2.72,2.232-4.416c0.816-1.696,1.64-3.496,2.472-5.4
			C185.064,69.958,185.833,68.094,186.537,66.27z M191.529,46.014l-2.688,3.552c-0.544-0.543-1.256-1.135-2.136-1.776
			c-0.88-0.64-1.816-1.272-2.808-1.896c-0.992-0.624-1.968-1.16-2.928-1.608l2.544-3.216c0.928,0.417,1.904,0.905,2.928,1.464
			c1.023,0.56,1.992,1.136,2.904,1.728C190.257,44.854,190.984,45.438,191.529,46.014z M220.809,68.525h-8.832v11.808
			c0,0.992-0.113,1.784-0.336,2.376c-0.224,0.592-0.704,1.048-1.44,1.368c-0.704,0.319-1.592,0.511-2.664,0.576
			c-1.072,0.064-2.392,0.08-3.96,0.048c-0.064-0.544-0.216-1.185-0.456-1.92c-0.24-0.737-0.488-1.376-0.744-1.92
			c1.023,0.032,1.976,0.048,2.856,0.048c0.88,0,1.464,0,1.752,0c0.511,0,0.768-0.24,0.768-0.72V68.525h-8.112V51.773h7.344
			c0.16-0.736,0.312-1.52,0.456-2.352c0.144-0.832,0.264-1.6,0.36-2.304h-10.464v9.024c0,2.081-0.072,4.36-0.216,6.84
			c-0.144,2.48-0.44,5-0.888,7.56c-0.449,2.561-1.104,5.048-1.968,7.464c-0.864,2.417-2,4.616-3.408,6.6
			c-0.353-0.353-0.929-0.776-1.728-1.272c-0.8-0.497-1.457-0.856-1.968-1.08c1.344-1.888,2.408-3.936,3.192-6.144
			c0.784-2.208,1.359-4.479,1.728-6.816c0.367-2.335,0.607-4.624,0.72-6.864c0.112-2.24,0.168-4.336,0.168-6.288V43.085h29.424
			v4.032h-9.552c-0.256,0.8-0.504,1.592-0.744,2.376c-0.24,0.784-0.488,1.544-0.744,2.28h9.456V68.525z M200.937,70.83l3.984,1.008
			c-0.704,1.889-1.592,3.752-2.664,5.592c-1.073,1.84-2.168,3.416-3.288,4.728c-0.416-0.32-0.977-0.72-1.68-1.2
			c-0.705-0.48-1.313-0.848-1.824-1.104c1.152-1.152,2.2-2.527,3.144-4.128C199.552,74.126,200.329,72.494,200.937,70.83z
			 M203.625,55.085v3.456h12.96v-3.456H203.625z M203.625,61.662v3.6h12.96v-3.6H203.625z M214.377,71.934l3.84-1.584
			c0.704,0.96,1.399,2.008,2.088,3.144c0.688,1.136,1.312,2.249,1.872,3.336c0.56,1.088,0.984,2.064,1.272,2.928l-4.08,1.824
			c-0.256-0.864-0.656-1.855-1.2-2.976c-0.544-1.12-1.145-2.264-1.8-3.432C215.712,74.006,215.049,72.926,214.377,71.934z"/>
		<path fill="#737F8A" d="M231.753,84.894l-4.224-1.872c1.024-0.896,2-2.08,2.928-3.552c0.928-1.472,1.68-2.944,2.256-4.416
			l4.32,1.104c-0.576,1.568-1.32,3.144-2.232,4.728S232.873,83.805,231.753,84.894z M270.057,69.821v3.936h-42.384v-3.936h18.864
			v-3.504h-15.024v-3.552h15.024v-3.216h-14.256V42.414h33.072v17.136h-14.352v3.216h15.168v3.552h-15.168v3.504H270.057z
			 M236.505,55.854h10.032v-9.792h-10.032V55.854z M238.473,48.078l2.88-1.008c0.672,1.056,1.279,2.216,1.824,3.48
			c0.544,1.265,0.912,2.36,1.104,3.288l-3.024,1.152c-0.161-0.928-0.504-2.04-1.032-3.336
			C239.697,50.357,239.113,49.166,238.473,48.078z M240.921,76.542l4.176-0.336c0.288,1.248,0.528,2.6,0.72,4.056
			c0.192,1.456,0.288,2.68,0.288,3.672l-4.416,0.528c0-0.992-0.064-2.24-0.192-3.744C241.369,79.214,241.177,77.822,240.921,76.542z
			 M250.617,76.686l4.224-0.864c0.544,1.185,1.063,2.496,1.56,3.936c0.496,1.44,0.84,2.672,1.032,3.696l-4.416,1.056
			c-0.192-1.024-0.512-2.272-0.96-3.744C251.608,79.294,251.128,77.934,250.617,76.686z M260.841,55.854v-9.792h-9.84v9.792H260.841
			z M255.417,55.326l-2.784-1.104c0.544-0.992,1.128-2.176,1.752-3.552c0.624-1.375,1.111-2.607,1.464-3.696l3.408,1.248
			c-0.608,1.248-1.248,2.512-1.92,3.792C256.665,53.294,256.024,54.398,255.417,55.326z M260.169,76.445l4.128-1.392
			c0.736,0.833,1.496,1.736,2.28,2.712c0.784,0.977,1.52,1.937,2.208,2.88c0.688,0.943,1.24,1.8,1.656,2.568l-4.416,1.68
			c-0.353-0.768-0.848-1.64-1.488-2.616c-0.64-0.977-1.344-1.975-2.112-3C261.657,78.254,260.905,77.31,260.169,76.445z"/>
		<path fill="#737F8A" d="M295.401,62.766h-2.976v18c0,0.864-0.096,1.56-0.288,2.088s-0.576,0.936-1.152,1.224
			c-0.544,0.319-1.216,0.504-2.016,0.552c-0.8,0.048-1.808,0.072-3.024,0.072c-0.064-0.48-0.208-1.049-0.432-1.704
			c-0.224-0.656-0.464-1.224-0.72-1.704c0.736,0.032,1.399,0.048,1.992,0.048c0.592,0,1,0,1.224,0c0.384,0,0.576-0.208,0.576-0.624
			v-4.272h-6.288v8.304h-3.744V62.766h-2.832v-7.104h2.736V42.27h14.112v13.392h2.832V62.766z M291.945,61.374v-2.64h-12.864v2.64
			H291.945z M281.769,45.582v10.08h2.112v-7.536h5.232v-2.544H281.769z M288.585,67.374v-2.832h-6.288v2.832H288.585z
			 M282.297,73.326h6.288v-2.928h-6.288V73.326z M286.473,55.662h2.64v-4.848h-2.64V55.662z M311.961,80.717h7.008v3.264h-24.432
			v-3.264h6.816c-0.192-0.703-0.456-1.447-0.792-2.232c-0.336-0.784-0.681-1.512-1.032-2.184l2.832-1.008h-4.848V66.27h18.96v9.024
			h-5.136l3.12,0.816c-0.417,0.8-0.84,1.601-1.272,2.4C312.753,79.31,312.345,80.045,311.961,80.717z M318.585,61.182v3.168h-23.088
			v-3.168H318.585z M317.241,44.861v14.304h-20.544V44.861h5.52v-4.176h3.216v4.176h2.832v-4.176h3.264v4.176H317.241z
			 M300.105,47.837v2.736h2.688v-2.736H300.105z M300.105,53.406v2.784h2.688v-2.784H300.105z M301.161,69.054v3.456h11.472v-3.456
			H301.161z M310.713,75.293h-8.016c0.544,0.833,1.008,1.752,1.392,2.76c0.384,1.008,0.655,1.88,0.816,2.616l-0.144,0.048h3.84
			c0.384-0.768,0.776-1.663,1.176-2.688C310.177,77.006,310.489,76.094,310.713,75.293z M305.433,50.574h2.832v-2.736h-2.832V50.574
			z M308.265,53.406h-2.832v2.784h2.832V53.406z M313.737,50.574v-2.736h-2.88v2.736H313.737z M313.737,56.189v-2.784h-2.88v2.784
			H313.737z"/>
		<path fill="#737F8A" d="M376.809,55.613h-14.352c2.112,1.856,4.56,3.584,7.344,5.184c2.784,1.601,5.536,2.849,8.256,3.744
			c-0.512,0.417-1.048,0.984-1.608,1.704c-0.561,0.72-1,1.352-1.32,1.896c-0.736-0.288-1.496-0.616-2.28-0.984
			c-0.785-0.368-1.544-0.76-2.28-1.176v18.72h-4.608v-1.536h-20.064v1.584h-4.416V66.125c-0.833,0.48-1.688,0.92-2.568,1.32
			c-0.88,0.401-1.736,0.776-2.568,1.128c-0.32-0.544-0.768-1.168-1.344-1.872c-0.576-0.704-1.121-1.28-1.632-1.728
			c2.784-0.928,5.551-2.216,8.304-3.864c2.751-1.647,5.136-3.48,7.152-5.496h-14.304v-4.032h18.816V47.31
			c-2.336,0.224-4.664,0.408-6.984,0.552c-2.32,0.144-4.584,0.249-6.792,0.312c-0.032-0.543-0.168-1.183-0.408-1.92
			c-0.24-0.736-0.473-1.344-0.696-1.824c2.656-0.127,5.376-0.296,8.16-0.504c2.784-0.208,5.512-0.456,8.184-0.744
			c2.671-0.288,5.176-0.616,7.512-0.984c2.335-0.368,4.384-0.792,6.144-1.272l3.264,3.6c-1.952,0.48-4.097,0.912-6.432,1.296
			c-2.336,0.384-4.784,0.737-7.344,1.056v4.704h18.864V55.613z M342.009,65.79h28.176c-2.24-1.248-4.416-2.688-6.528-4.32
			c-2.112-1.632-4.017-3.344-5.712-5.136v8.304h-4.608v-8.4c-1.504,1.856-3.232,3.593-5.184,5.208
			C346.2,63.062,344.152,64.51,342.009,65.79z M365.96,72.846v-3.552h-20.064v3.552H365.96z M345.896,79.662h20.064v-3.648h-20.064
			V79.662z"/>
		<path fill="#737F8A" d="M392.121,58.302l-2.592,3.744c-0.545-0.543-1.272-1.111-2.184-1.704c-0.912-0.591-1.889-1.176-2.928-1.752
			c-1.04-0.576-2.056-1.072-3.048-1.488l2.448-3.36c0.96,0.353,1.968,0.792,3.024,1.32c1.056,0.528,2.056,1.072,3,1.632
			C390.784,57.254,391.544,57.79,392.121,58.302z M417.849,74.237h-13.681v4.176c0,0.864,0.193,1.416,0.576,1.656
			c0.385,0.24,1.297,0.36,2.736,0.36h9.36c0.768,0,1.344-0.127,1.728-0.384c0.385-0.256,0.664-0.751,0.84-1.488
			c0.176-0.736,0.296-1.824,0.36-3.264c0.512,0.32,1.136,0.624,1.872,0.912s1.393,0.512,1.968,0.672
			c-0.16,1.952-0.456,3.464-0.888,4.536s-1.08,1.824-1.943,2.256c-0.865,0.432-2.064,0.648-3.601,0.648h-10.032
			c-1.824,0-3.256-0.168-4.296-0.504s-1.769-0.928-2.184-1.776c-0.416-0.848-0.624-2.04-0.624-3.576v-11.28
			c-1.568,1.92-3.248,3.521-5.04,4.8c-0.192-0.288-0.432-0.607-0.72-0.96c-0.288-0.352-0.593-0.688-0.912-1.008
			c-0.992,2.368-2.088,4.792-3.288,7.272c-1.2,2.48-2.36,4.759-3.48,6.84l-3.984-2.64c0.768-1.248,1.6-2.712,2.496-4.392
			c0.896-1.68,1.8-3.464,2.712-5.352c0.912-1.888,1.768-3.744,2.568-5.568l2.4,1.872c1.536-1.12,3.016-2.503,4.44-4.152
			c1.424-1.648,2.6-3.352,3.528-5.112h-7.92V54.75h8.064v-4.704h-6.144v-3.984h6.144v-5.328h4.32v5.328h8.16v-5.328h4.367v5.328
			h6.721v3.984h-6.721v4.704h8.064v4.032h-7.871c1.023,1.856,2.303,3.608,3.84,5.256c1.535,1.648,3.15,2.936,4.848,3.864
			c-0.512,0.417-1.072,0.968-1.68,1.656c-0.609,0.688-1.089,1.32-1.44,1.896c-0.992-0.672-1.977-1.472-2.952-2.4
			c-0.977-0.928-1.881-1.936-2.712-3.024V74.237z M394.569,45.87l-2.64,3.648c-0.544-0.544-1.272-1.136-2.184-1.776
			s-1.889-1.264-2.928-1.872c-1.04-0.607-2.04-1.136-3-1.584l2.544-3.312c0.96,0.384,1.959,0.856,3,1.416
			c1.039,0.56,2.023,1.136,2.952,1.728C393.24,44.71,393.993,45.293,394.569,45.87z M413.576,58.782h-8.352
			c-0.32,0.736-0.672,1.472-1.057,2.208c-0.383,0.736-0.8,1.472-1.248,2.208h12.961c-0.416-0.736-0.824-1.472-1.225-2.208
			C414.256,60.254,413.896,59.518,413.576,58.782z M413.865,70.782v-4.128h-9.697v4.128H413.865z M405.225,50.045v4.704h8.16v-4.704
			H405.225z"/>
	</g>
</g>
<rect x="116.097" y="23.957" fill="none" stroke="#747F89" stroke-width="2" stroke-miterlimit="10" width="326.36" height="79"/>
<line fill="none" stroke="#747F89" stroke-width="2" stroke-miterlimit="10" x1="116.097" y1="63.457" x2="63.457" y2="63.457"/>
<line fill="none" stroke="#747F89" stroke-width="2" stroke-miterlimit="10" x1="63.457" y1="63.457" x2="0.707" y2="0.707"/>
<line fill="none" stroke="#747F89" stroke-width="2" stroke-miterlimit="10" x1="710.956" y1="63.457" x2="763.596" y2="63.457"/>
<line fill="none" stroke="#747F89" stroke-width="2" stroke-miterlimit="10" x1="763.596" y1="63.457" x2="826.346" y2="126.207"/>
<path fill="#737F8A" d="M710.956,102.957H481.954v-79h229.002V102.957z M518.971,47.069h7.151c-0.257,1.824-0.681,3.552-1.272,5.184
	c-0.592,1.632-1.496,3.113-2.711,4.44c-1.217,1.329-2.896,2.457-5.041,3.384V44.286H502.65V79.47h4.224v-3.696h10.224V60.27
	c0.448,0.353,0.92,0.856,1.416,1.512c0.496,0.656,0.855,1.224,1.08,1.704c2.527-1.152,4.536-2.551,6.024-4.2
	c1.487-1.648,2.608-3.504,3.36-5.568c0.751-2.064,1.287-4.279,1.607-6.648h8.448c-0.192,3.584-0.4,6.185-0.624,7.8
	c-0.225,1.616-0.512,2.616-0.864,3c-0.353,0.353-0.88,0.528-1.584,0.528c-0.384,0-1.001-0.007-1.848-0.024
	c-0.849-0.016-1.784-0.072-2.808-0.168c0.352,0.576,0.647,1.248,0.888,2.016c0.239,0.768,0.376,1.472,0.407,2.112
	c1.088,0.032,2.12,0.041,3.097,0.024c0.976-0.016,1.752-0.055,2.327-0.12c0.704-0.063,1.297-0.208,1.777-0.432
	c0.479-0.224,0.943-0.592,1.392-1.104c0.415-0.48,0.751-1.304,1.008-2.472c0.256-1.167,0.479-2.839,0.672-5.016
	c0.192-2.176,0.368-4.976,0.528-8.4c0.031-0.319,0.048-0.912,0.048-1.776h-24.479V47.069z M513.066,57.821h-6.192v-9.504h6.192
	V57.821z M506.874,61.757h6.192v9.984h-6.192V61.757z M524.635,84.702v-2.16h13.728v1.968h4.416V64.974h-22.416v19.728H524.635z
	 M538.362,78.509h-13.728v-9.552h13.728V78.509z M557.13,56.837c-0.896-0.56-1.856-1.111-2.88-1.656
	c-1.024-0.544-2.016-1.008-2.977-1.392l-2.495,3.312c0.96,0.416,1.944,0.912,2.952,1.488c1.008,0.576,1.959,1.168,2.855,1.776
	c0.896,0.608,1.6,1.184,2.112,1.728l2.64-3.648C558.762,57.934,558.025,57.398,557.13,56.837z M554.346,71.861
	c-0.832,1.904-1.656,3.705-2.472,5.4c-0.815,1.696-1.56,3.168-2.231,4.416l4.031,2.4c1.12-2.272,2.256-4.76,3.408-7.464
	c1.152-2.704,2.208-5.319,3.168-7.848l-3.6-2.496C555.945,68.094,555.178,69.958,554.346,71.861z M559.458,44.262
	c-0.912-0.592-1.88-1.168-2.903-1.728c-1.025-0.56-2.001-1.048-2.929-1.464l-2.544,3.216c0.96,0.448,1.936,0.984,2.928,1.608
	s1.928,1.256,2.809,1.896c0.879,0.641,1.592,1.232,2.136,1.776l2.688-3.552C561.098,45.438,560.37,44.854,559.458,44.262z
	 M590.922,51.773h-9.455c0.255-0.736,0.504-1.496,0.743-2.28c0.24-0.784,0.487-1.576,0.744-2.376h9.552v-4.032h-29.424v13.056
	c0,1.952-0.057,4.048-0.168,6.288c-0.112,2.24-0.353,4.528-0.72,6.864c-0.368,2.336-0.944,4.608-1.728,6.816
	c-0.785,2.208-1.849,4.256-3.193,6.144c0.512,0.224,1.168,0.583,1.969,1.08c0.799,0.496,1.375,0.919,1.729,1.272
	c1.407-1.984,2.543-4.184,3.407-6.6c0.864-2.416,1.52-4.903,1.968-7.464c0.448-2.56,0.744-5.08,0.889-7.56
	c0.144-2.479,0.216-4.759,0.216-6.84v-9.024h10.464c-0.096,0.704-0.216,1.472-0.359,2.304c-0.145,0.833-0.297,1.616-0.457,2.352
	h-7.344v16.752h8.112v11.664c0,0.48-0.257,0.72-0.769,0.72c-0.287,0-0.871,0-1.752,0c-0.88,0-1.832-0.016-2.855-0.048
	c0.256,0.544,0.504,1.184,0.744,1.92c0.24,0.735,0.391,1.375,0.455,1.92c1.568,0.031,2.889,0.016,3.961-0.048
	c1.071-0.064,1.959-0.256,2.664-0.576c0.735-0.32,1.215-0.776,1.439-1.368c0.224-0.592,0.336-1.384,0.336-2.376V68.525h8.832V51.773
	z M568.723,75.726c-0.945,1.601-1.992,2.976-3.145,4.128c0.512,0.256,1.119,0.624,1.824,1.104c0.703,0.48,1.264,0.88,1.68,1.2
	c1.119-1.312,2.215-2.888,3.288-4.728c1.071-1.84,1.96-3.704,2.664-5.592l-3.983-1.008
	C570.441,72.494,569.666,74.126,568.723,75.726z M586.698,55.085v3.456h-12.96v-3.456H586.698z M586.698,61.662v3.6h-12.96v-3.6
	H586.698z M586.482,75.173c0.655,1.168,1.256,2.313,1.8,3.432c0.544,1.121,0.943,2.112,1.2,2.976l4.08-1.824
	c-0.289-0.864-0.713-1.839-1.272-2.928c-0.56-1.087-1.185-2.2-1.872-3.336c-0.688-1.136-1.385-2.184-2.088-3.144l-3.84,1.584
	C585.162,72.926,585.826,74.006,586.482,75.173z M604.914,80.886c0.912-1.584,1.656-3.16,2.232-4.728l-4.32-1.104
	c-0.576,1.472-1.328,2.944-2.256,4.416c-0.929,1.472-1.904,2.656-2.928,3.552l4.224,1.872
	C602.986,83.805,604.002,82.47,604.914,80.886z M621.114,69.821v-3.504h15.168v-3.552h-15.168v-3.216h14.353V42.414h-33.072v17.136
	h14.256v3.216h-15.024v3.552h15.024v3.504h-18.864v3.936h42.384v-3.936H621.114z M606.618,46.062h10.032v9.792h-10.032V46.062z
	 M610.338,51.653c0.528,1.296,0.871,2.409,1.032,3.336l3.024-1.152c-0.192-0.928-0.561-2.023-1.104-3.288
	c-0.544-1.264-1.151-2.424-1.823-3.48l-2.881,1.008C609.227,49.166,609.811,50.357,610.338,51.653z M611.609,80.717
	c0.129,1.504,0.193,2.752,0.193,3.744l4.416-0.528c0-0.992-0.097-2.216-0.289-3.672c-0.191-1.456-0.432-2.808-0.72-4.056
	l-4.176,0.336C611.29,77.822,611.482,79.214,611.609,80.717z M622.17,80.766c0.447,1.471,0.768,2.719,0.96,3.744l4.416-1.056
	c-0.192-1.024-0.536-2.256-1.032-3.696c-0.496-1.44-1.016-2.751-1.56-3.936l-4.224,0.864
	C621.242,77.934,621.722,79.294,622.17,80.766z M621.114,55.854v-9.792h9.84v9.792H621.114z M627.45,52.014
	c0.672-1.28,1.312-2.544,1.92-3.792l-3.408-1.248c-0.353,1.088-0.84,2.32-1.464,3.696c-0.624,1.376-1.208,2.561-1.752,3.552
	l2.784,1.104C626.138,54.398,626.778,53.294,627.45,52.014z M632.538,79.277c0.769,1.025,1.472,2.023,2.112,3
	c0.64,0.976,1.135,1.848,1.488,2.616l4.416-1.68c-0.417-0.768-0.969-1.625-1.656-2.568c-0.689-0.943-1.425-1.903-2.209-2.88
	c-0.783-0.976-1.543-1.879-2.279-2.712l-4.128,1.392C631.018,77.31,631.77,78.254,632.538,79.277z M665.514,55.662h-2.832V42.27
	H648.57v13.392h-2.736v7.104h2.832V84.75h3.744v-8.304h6.288v4.272c0,0.416-0.192,0.624-0.576,0.624c-0.224,0-0.632,0-1.224,0
	c-0.593,0-1.256-0.016-1.992-0.048c0.256,0.48,0.496,1.048,0.72,1.704c0.224,0.655,0.368,1.224,0.433,1.704
	c1.215,0,2.223-0.024,3.023-0.072c0.8-0.048,1.472-0.232,2.016-0.552c0.576-0.288,0.961-0.696,1.152-1.224s0.288-1.224,0.288-2.088
	v-18h2.976V55.662z M649.194,61.374v-2.64h12.864v2.64H649.194z M659.227,45.582v2.544h-5.232v7.536h-2.111v-10.08H659.227z
	 M652.41,67.374v-2.832h6.288v2.832H652.41z M652.41,70.397h6.288v2.928h-6.288V70.397z M656.586,50.813h2.641v4.848h-2.641V50.813z
	 M683.299,78.509c0.432-0.799,0.855-1.6,1.271-2.4l-3.12-0.816h5.136V66.27h-18.96v9.024h4.849l-2.832,1.008
	c0.352,0.672,0.695,1.4,1.031,2.184c0.336,0.785,0.6,1.529,0.793,2.232h-6.816v3.264h24.432v-3.264h-7.008
	C682.458,80.045,682.866,79.31,683.299,78.509z M665.609,61.182v3.168h23.089v-3.168H665.609z M681.643,44.861v-4.176h-3.265v4.176
	h-2.832v-4.176h-3.216v4.176h-5.52v14.304h20.543V44.861H681.643z M672.906,47.837v2.736h-2.688v-2.736H672.906z M672.906,53.406
	v2.784h-2.688v-2.784H672.906z M682.746,69.054v3.456h-11.473v-3.456H682.746z M679.891,78.029c-0.4,1.025-0.793,1.92-1.177,2.688
	h-3.84l0.144-0.048c-0.16-0.736-0.432-1.608-0.815-2.616c-0.384-1.008-0.849-1.928-1.392-2.76h8.016
	C680.602,76.094,680.29,77.006,679.891,78.029z M675.546,47.837h2.832v2.736h-2.832V47.837z M678.378,56.189h-2.832v-2.784h2.832
	V56.189z M680.971,50.574v-2.736h2.879v2.736H680.971z M680.971,56.189v-2.784h2.879v2.784H680.971z"/>
<g>
</g>
<g>
</g>
<g>
</g>
<g>
</g>
<g>
</g>
<g>
</g>
</svg>
