<?xml version="1.0" encoding="utf-8"?>
<!-- Generator: Adobe Illustrator 16.0.0, SVG Export Plug-In . SVG Version: 6.00 Build 0)  -->
<!DOCTYPE svg PUBLIC "-//W3C//DTD SVG 1.1//EN" "http://www.w3.org/Graphics/SVG/1.1/DTD/svg11.dtd">
<svg version="1.1" id="Layer_1" xmlns="http://www.w3.org/2000/svg" xmlns:xlink="http://www.w3.org/1999/xlink" x="0px" y="0px"
	 width="1057.829px" height="633.111px" viewBox="0 0 1057.829 633.111" enable-background="new 0 0 1057.829 633.111"
	 xml:space="preserve">
<g>
	<path fill="#FFFFFF" d="M10.589,70.857c0.36-0.3,1.08-0.54,1.74-0.54c2.22,0,3.66,1.681,3.66,3.78c0,1.8-1.32,3.78-3.96,3.78
		c-2.52,0-4.62-2.28-4.62-5.521c0-5.279,3.6-9.359,7.379-11.1l1.14,2.16C12.749,65.038,10.649,68.097,10.589,70.857z M21.988,70.857
		c0.36-0.3,1.02-0.54,1.74-0.54c2.22,0,3.66,1.681,3.66,3.78c0,1.8-1.32,3.78-3.96,3.78c-2.52,0-4.62-2.28-4.62-5.521
		c0-5.279,3.6-9.359,7.319-11.1l1.2,2.16C24.088,65.038,21.988,68.097,21.988,70.857z"/>
	<path fill="#FFFFFF" d="M35.07,68.038h6.12l8.64,23.999c1.08,3.12,2.1,6.239,3.18,9.359h0.3c1.08-3.12,2.04-6.239,3.06-9.359
		l8.58-23.999h6.12v43.918h-4.62V86.577c0-3.72,0.36-8.88,0.6-12.72h-0.24l-3.48,9.96l-8.58,23.639h-3.42l-8.64-23.639l-3.479-9.96
		h-0.24c0.24,3.84,0.6,9,0.6,12.72v25.379h-4.5V68.038z"/>
	<path fill="#FFFFFF" d="M80.789,103.616c0-7.079,6.18-10.56,20.1-12.119c0.06-4.38-1.32-8.7-6.9-8.7c-3.9,0-7.38,1.86-9.839,3.601
		l-1.98-3.42c2.82-1.86,7.379-4.26,12.599-4.26c7.86,0,10.979,5.34,10.979,13.139v20.1h-4.02l-0.42-3.96h-0.18
		c-3.12,2.64-6.84,4.74-10.919,4.74C84.869,112.736,80.789,109.496,80.789,103.616z M100.889,104.276v-9.479
		c-11.46,1.319-15.359,4.08-15.359,8.52c0,3.899,2.7,5.46,6,5.46S97.589,107.215,100.889,104.276z"/>
	<path fill="#FFFFFF" d="M116.429,79.557h3.96l0.48,4.739h0.18c3.12-3.06,6.48-5.579,10.92-5.579c6.78,0,9.899,4.38,9.899,12.659
		v20.579h-4.92V91.976c0-6.239-1.92-8.999-6.419-8.999c-3.42,0-5.88,1.8-9.24,5.279v23.699h-4.86V79.557z"/>
	<path fill="#FFFFFF" d="M149.069,125.455l1.02-3.959c0.66,0.239,1.62,0.479,2.52,0.479c3.72,0,6.12-3.12,7.56-7.319l0.72-2.521
		l-13.08-32.578h5.1l6.899,18.539c1.02,2.82,2.16,6.18,3.24,9.119h0.3c0.9-2.939,1.86-6.299,2.76-9.119l6.06-18.539h4.8
		l-12.36,35.398c-2.16,6.18-5.52,11.159-11.819,11.159C151.349,126.115,150.089,125.875,149.069,125.455z"/>
	<path fill="#FFFFFF" d="M194.64,95.756c0-10.8,6.96-17.039,14.879-17.039c7.92,0,14.939,6.239,14.939,17.039
		c0,10.739-7.02,16.979-14.939,16.979C201.6,112.736,194.64,106.496,194.64,95.756z M219.419,95.756c0-7.68-4.08-12.899-9.9-12.899
		s-9.839,5.22-9.839,12.899c0,7.739,4.02,12.899,9.839,12.899S219.419,103.496,219.419,95.756z"/>
	<path fill="#FFFFFF" d="M233.999,83.577h-4.44v-3.72l4.44-0.3v-5.64c0-6.54,3-10.5,9.18-10.5c1.86,0,3.72,0.42,5.22,1.08
		l-1.08,3.78c-1.26-0.601-2.58-0.9-3.72-0.9c-3.18,0-4.68,2.28-4.68,6.6v5.58h6.96v4.02h-6.96v28.379h-4.919V83.577z"/>
	<path fill="#FFFFFF" d="M266.01,106.016V64.198h4.86v42.178c0,1.62,0.66,2.28,1.5,2.28c0.3,0,0.54,0,1.14-0.12l0.72,3.78
		c-0.78,0.239-1.56,0.42-2.94,0.42C267.57,112.736,266.01,110.335,266.01,106.016z"/>
	<path fill="#FFFFFF" d="M281.789,69.177c0-1.979,1.38-3.3,3.42-3.3c1.92,0,3.36,1.32,3.36,3.3c0,2.1-1.44,3.42-3.36,3.42
		C283.169,72.597,281.789,71.277,281.789,69.177z M282.749,79.557h4.86v32.398h-4.86V79.557z"/>
	<path fill="#FFFFFF" d="M299.609,83.577h-4.44v-3.72l4.44-0.3v-5.64c0-6.54,3-10.5,9.179-10.5c1.86,0,3.72,0.42,5.22,1.08
		l-1.08,3.78c-1.26-0.601-2.58-0.9-3.72-0.9c-3.18,0-4.68,2.28-4.68,6.6v5.58h6.96v4.02h-6.96v28.379h-4.919V83.577z"/>
	<path fill="#FFFFFF" d="M314.729,95.756c0-10.5,7.02-17.039,14.459-17.039c8.1,0,12.78,5.819,12.78,15.179
		c0,1.08-0.06,2.16-0.24,2.94h-22.139c0.3,7.199,4.62,11.999,11.1,11.999c3.18,0,5.82-1.02,8.22-2.64l1.8,3.24
		c-2.82,1.8-6.12,3.3-10.62,3.3C321.569,112.736,314.729,106.436,314.729,95.756z M337.648,93.237c0-6.9-3.12-10.561-8.4-10.561
		c-4.8,0-9.06,3.9-9.72,10.561H337.648z"/>
	<path fill="#FFFFFF" d="M352.29,68.517c-0.36,0.3-1.02,0.54-1.74,0.54c-2.22,0-3.66-1.68-3.66-3.779c0-1.801,1.32-3.84,3.96-3.84
		c2.52,0,4.62,2.34,4.62,5.579c0,5.28-3.6,9.36-7.32,11.04l-1.2-2.1C350.189,74.337,352.29,71.277,352.29,68.517z"/>
	<path fill="#FFFFFF" d="M376.409,108.295l2.46-3.3c2.82,2.28,5.7,3.9,9.78,3.9c4.5,0,6.72-2.4,6.72-5.4
		c0-3.479-3.9-5.039-7.56-6.359c-4.62-1.68-9.6-3.84-9.6-9.359c0-5.04,4.02-9.06,11.04-9.06c3.9,0,7.38,1.619,9.84,3.6l-2.4,3.18
		c-2.22-1.62-4.5-2.88-7.44-2.88c-4.32,0-6.3,2.28-6.3,4.92c0,3.24,3.36,4.5,7.08,5.819c4.74,1.86,10.02,3.721,10.02,9.9
		c0,5.159-4.08,9.479-11.58,9.479C383.849,112.736,379.469,110.816,376.409,108.295z"/>
	<path fill="#FFFFFF" d="M422.4,83.577h-4.44v-3.72l4.44-0.3v-5.64c0-6.54,3-10.5,9.18-10.5c1.86,0,3.72,0.42,5.22,1.08l-1.08,3.78
		c-1.26-0.601-2.58-0.9-3.72-0.9c-3.18,0-4.68,2.28-4.68,6.6v5.58h6.96v4.02h-6.96v28.379H422.4V83.577z"/>
	<path fill="#FFFFFF" d="M437.28,103.616c0-7.079,6.18-10.56,20.099-12.119c0.06-4.38-1.32-8.7-6.9-8.7c-3.9,0-7.38,1.86-9.84,3.601
		l-1.979-3.42c2.82-1.86,7.379-4.26,12.599-4.26c7.86,0,10.98,5.34,10.98,13.139v20.1h-4.02l-0.42-3.96h-0.18
		c-3.12,2.64-6.84,4.74-10.919,4.74C441.36,112.736,437.28,109.496,437.28,103.616z M457.379,104.276v-9.479
		c-11.459,1.319-15.359,4.08-15.359,8.52c0,3.899,2.7,5.46,6,5.46S454.079,107.215,457.379,104.276z"/>
	<path fill="#FFFFFF" d="M471.959,69.177c0-1.979,1.38-3.3,3.42-3.3c1.92,0,3.36,1.32,3.36,3.3c0,2.1-1.44,3.42-3.36,3.42
		C473.339,72.597,471.959,71.277,471.959,69.177z M472.919,79.557h4.86v32.398h-4.86V79.557z"/>
	<path fill="#FFFFFF" d="M489.059,106.016V64.198h4.86v42.178c0,1.62,0.66,2.28,1.5,2.28c0.3,0,0.54,0,1.14-0.12l0.72,3.78
		c-0.78,0.239-1.56,0.42-2.94,0.42C490.619,112.736,489.059,110.335,489.059,106.016z"/>
	<path fill="#FFFFFF" d="M505.318,100.136V79.557h4.86v19.979c0,6.18,1.86,8.94,6.42,8.94c3.419,0,5.879-1.74,9.12-5.7V79.557h4.859
		v32.398h-4.02l-0.42-5.16h-0.18c-3.06,3.54-6.3,5.94-10.799,5.94C508.378,112.736,505.318,108.416,505.318,100.136z"/>
	<path fill="#FFFFFF" d="M541.917,79.557h3.961l0.479,5.939h0.18c2.22-4.08,5.521-6.779,9.18-6.779c1.38,0,2.34,0.18,3.42,0.72
		l-0.96,4.26c-1.08-0.36-1.8-0.54-3.06-0.54c-2.761,0-6.12,2.04-8.34,7.68v21.119h-4.86V79.557z"/>
	<path fill="#FFFFFF" d="M561.478,95.756c0-10.5,7.021-17.039,14.46-17.039c8.1,0,12.78,5.819,12.78,15.179
		c0,1.08-0.061,2.16-0.24,2.94h-22.14c0.3,7.199,4.62,11.999,11.1,11.999c3.18,0,5.819-1.02,8.22-2.64l1.8,3.24
		c-2.819,1.8-6.12,3.3-10.62,3.3C568.317,112.736,561.478,106.436,561.478,95.756z M584.397,93.237c0-6.9-3.12-10.561-8.4-10.561
		c-4.799,0-9.059,3.9-9.719,10.561H584.397z"/>
	<path fill="#FFFFFF" d="M593.158,108.295l2.46-3.3c2.82,2.28,5.699,3.9,9.779,3.9c4.5,0,6.72-2.4,6.72-5.4
		c0-3.479-3.899-5.039-7.56-6.359c-4.619-1.68-9.6-3.84-9.6-9.359c0-5.04,4.02-9.06,11.039-9.06c3.9,0,7.381,1.619,9.84,3.6
		l-2.399,3.18c-2.22-1.62-4.5-2.88-7.44-2.88c-4.319,0-6.299,2.28-6.299,4.92c0,3.24,3.359,4.5,7.08,5.819
		c4.739,1.86,10.02,3.721,10.02,9.9c0,5.159-4.08,9.479-11.58,9.479C600.598,112.736,596.218,110.816,593.158,108.295z"/>
	<path fill="#FFFFFF" d="M636.33,103.616c0-7.079,6.18-10.56,20.099-12.119c0.061-4.38-1.32-8.7-6.899-8.7
		c-3.899,0-7.38,1.86-9.84,3.601l-1.979-3.42c2.82-1.86,7.379-4.26,12.6-4.26c7.859,0,10.979,5.34,10.979,13.139v20.1h-4.021
		l-0.42-3.96h-0.18c-3.119,2.64-6.84,4.74-10.92,4.74C640.409,112.736,636.33,109.496,636.33,103.616z M656.429,104.276v-9.479
		c-11.459,1.319-15.359,4.08-15.359,8.52c0,3.899,2.7,5.46,6,5.46S653.129,107.215,656.429,104.276z"/>
	<path fill="#FFFFFF" d="M671.97,79.557h3.959l0.48,5.939h0.18c2.221-4.08,5.52-6.779,9.18-6.779c1.38,0,2.34,0.18,3.42,0.72
		l-0.96,4.26c-1.08-0.36-1.8-0.54-3.06-0.54c-2.76,0-6.12,2.04-8.34,7.68v21.119h-4.859V79.557z"/>
	<path fill="#FFFFFF" d="M691.53,95.756c0-10.5,7.02-17.039,14.459-17.039c8.1,0,12.779,5.819,12.779,15.179
		c0,1.08-0.06,2.16-0.24,2.94H696.39c0.301,7.199,4.62,11.999,11.1,11.999c3.18,0,5.82-1.02,8.22-2.64l1.8,3.24
		c-2.82,1.8-6.119,3.3-10.619,3.3C698.37,112.736,691.53,106.436,691.53,95.756z M714.449,93.237c0-6.9-3.12-10.561-8.399-10.561
		c-4.801,0-9.061,3.9-9.721,10.561H714.449z"/>
	<path fill="#FFFFFF" d="M740.701,79.557h3.96l0.48,3.779h0.18c3-2.399,6.66-4.619,10.439-4.619c8.459,0,12.959,6.539,12.959,16.499
		c0,11.1-6.659,17.52-14.159,17.52c-3,0-6.06-1.38-9.12-3.78l0.121,5.7v11.22h-4.86V79.557z M763.62,95.276
		c0-7.319-2.52-12.419-9-12.419c-2.819,0-5.76,1.62-9.059,4.68v17.52c3.06,2.64,6.059,3.54,8.279,3.54
		C759.48,108.596,763.62,103.496,763.62,95.276z"/>
	<path fill="#FFFFFF" d="M775.081,95.756c0-10.5,7.02-17.039,14.459-17.039c8.1,0,12.779,5.819,12.779,15.179
		c0,1.08-0.06,2.16-0.24,2.94H779.94c0.301,7.199,4.62,11.999,11.1,11.999c3.18,0,5.82-1.02,8.22-2.64l1.8,3.24
		c-2.82,1.8-6.119,3.3-10.619,3.3C781.921,112.736,775.081,106.436,775.081,95.756z M798,93.237c0-6.9-3.12-10.561-8.399-10.561
		c-4.801,0-9.061,3.9-9.721,10.561H798z"/>
	<path fill="#FFFFFF" d="M808.021,95.756c0-10.8,6.96-17.039,14.879-17.039c7.92,0,14.939,6.239,14.939,17.039
		c0,10.739-7.02,16.979-14.939,16.979C814.98,112.736,808.021,106.496,808.021,95.756z M832.8,95.756c0-7.68-4.08-12.899-9.9-12.899
		c-5.819,0-9.839,5.22-9.839,12.899c0,7.739,4.02,12.899,9.839,12.899C828.72,108.656,832.8,103.496,832.8,95.756z"/>
	<path fill="#FFFFFF" d="M846.66,79.557h3.96l0.48,3.779h0.18c3-2.399,6.66-4.619,10.439-4.619c8.459,0,12.959,6.539,12.959,16.499
		c0,11.1-6.659,17.52-14.159,17.52c-3,0-6.06-1.38-9.12-3.78l0.121,5.7v11.22h-4.86V79.557z M869.579,95.276
		c0-7.319-2.52-12.419-9-12.419c-2.819,0-5.76,1.62-9.059,4.68v17.52c3.06,2.64,6.059,3.54,8.279,3.54
		C865.439,108.596,869.579,103.496,869.579,95.276z"/>
	<path fill="#FFFFFF" d="M883.56,106.016V64.198h4.859v42.178c0,1.62,0.66,2.28,1.5,2.28c0.301,0,0.541,0,1.141-0.12l0.72,3.78
		c-0.78,0.239-1.56,0.42-2.94,0.42C885.12,112.736,883.56,110.335,883.56,106.016z"/>
	<path fill="#FFFFFF" d="M897.778,95.756c0-10.5,7.02-17.039,14.46-17.039c8.1,0,12.779,5.819,12.779,15.179
		c0,1.08-0.061,2.16-0.24,2.94h-22.14c0.301,7.199,4.621,11.999,11.101,11.999c3.18,0,5.819-1.02,8.22-2.64l1.8,3.24
		c-2.82,1.8-6.12,3.3-10.62,3.3C904.618,112.736,897.778,106.436,897.778,95.756z M920.697,93.237c0-6.9-3.119-10.561-8.399-10.561
		c-4.8,0-9.06,3.9-9.72,10.561H920.697z"/>
	<path fill="#FFFFFF" d="M942.872,79.557h4.979l5.1,19.259c0.721,3.06,1.32,5.94,1.98,8.939h0.239c0.78-2.999,1.44-5.88,2.28-8.939
		l5.22-19.259h4.92l5.28,19.259c0.779,3.06,1.499,5.94,2.279,8.939h0.24c0.72-2.999,1.38-5.88,2.1-8.939l4.98-19.259h4.68
		l-8.88,32.398h-5.939l-4.92-18.06c-0.9-3.119-1.5-6.06-2.28-9.359h-0.3c-0.72,3.3-1.38,6.359-2.34,9.42l-4.74,17.999h-5.76
		L942.872,79.557z"/>
	<path fill="#FFFFFF" d="M994.411,64.198h4.859v13.259l-0.18,6.78c3.119-3,6.42-5.52,10.859-5.52c6.779,0,9.899,4.38,9.899,12.659
		v20.579h-4.92V91.976c0-6.239-1.92-8.999-6.42-8.999c-3.42,0-5.88,1.8-9.239,5.279v23.699h-4.859V64.198z"/>
	<path fill="#FFFFFF" d="M1028.01,95.756c0-10.8,6.96-17.039,14.88-17.039c7.919,0,14.939,6.239,14.939,17.039
		c0,10.739-7.021,16.979-14.939,16.979C1034.97,112.736,1028.01,106.496,1028.01,95.756z M1052.789,95.756
		c0-7.68-4.08-12.899-9.899-12.899c-5.82,0-9.84,5.22-9.84,12.899c0,7.739,4.02,12.899,9.84,12.899
		C1048.709,108.656,1052.789,103.496,1052.789,95.756z"/>
	<path fill="#FFFFFF" d="M2.19,174.756c0-10.439,6.66-17.039,14.1-17.039c3.84,0,6.36,1.439,9.299,3.84l-0.24-5.641v-12.719h4.86
		v47.758h-4.02l-0.42-3.899h-0.18c-2.58,2.579-6.06,4.68-10.02,4.68C7.41,191.736,2.19,185.616,2.19,174.756z M25.349,182.976
		v-17.52c-2.94-2.58-5.46-3.6-8.28-3.6c-5.52,0-9.779,5.34-9.779,12.899c0,7.979,3.36,12.84,9.299,12.84
		C19.709,187.596,22.469,186.036,25.349,182.976z"/>
	<path fill="#FFFFFF" d="M40.589,148.177c0-1.979,1.38-3.3,3.42-3.3c1.92,0,3.36,1.32,3.36,3.3c0,2.1-1.44,3.42-3.36,3.42
		C41.969,151.597,40.589,150.277,40.589,148.177z M41.549,158.557h4.86v32.398h-4.86V158.557z"/>
	<path fill="#FFFFFF" d="M55.229,174.756c0-10.439,6.66-17.039,14.1-17.039c3.84,0,6.36,1.439,9.299,3.84l-0.24-5.641v-12.719h4.86
		v47.758h-4.02l-0.42-3.899h-0.18c-2.58,2.579-6.06,4.68-10.02,4.68C60.449,191.736,55.229,185.616,55.229,174.756z M78.388,182.976
		v-17.52c-2.94-2.58-5.46-3.6-8.28-3.6c-5.52,0-9.779,5.34-9.779,12.899c0,7.979,3.36,12.84,9.299,12.84
		C72.749,187.596,75.508,186.036,78.388,182.976z"/>
	<path fill="#FFFFFF" d="M111.655,158.557h3.96l0.48,4.739h0.18c3.12-3.06,6.479-5.579,10.919-5.579c6.78,0,9.899,4.38,9.899,12.659
		v20.579h-4.92v-19.979c0-6.239-1.92-8.999-6.419-8.999c-3.42,0-5.88,1.8-9.24,5.279v23.699h-4.86V158.557z"/>
	<path fill="#FFFFFF" d="M145.435,174.756c0-10.8,6.96-17.039,14.879-17.039c7.92,0,14.939,6.239,14.939,17.039
		c0,10.739-7.02,16.979-14.939,16.979C152.395,191.736,145.435,185.496,145.435,174.756z M170.214,174.756
		c0-7.68-4.08-12.899-9.9-12.899c-5.819,0-9.839,5.22-9.839,12.899c0,7.739,4.02,12.899,9.839,12.899
		C166.134,187.656,170.214,182.496,170.214,174.756z"/>
	<path fill="#FFFFFF" d="M183.895,181.176v-18.6h-4.919v-3.72l5.1-0.3l0.6-9.18h4.08v9.18h8.939v4.02h-8.939v18.779
		c0,3.96,1.2,6.359,5.1,6.359c1.2,0,2.7-0.42,3.78-0.899l0.96,3.72c-1.8,0.6-3.96,1.2-5.76,1.2
		C186.055,191.736,183.895,187.476,183.895,181.176z"/>
	<path fill="#FFFFFF" d="M222.202,158.557h3.96l0.48,5.939h0.18c2.22-4.08,5.52-6.779,9.18-6.779c1.38,0,2.34,0.18,3.42,0.72
		l-0.96,4.26c-1.08-0.36-1.8-0.54-3.06-0.54c-2.76,0-6.12,2.04-8.34,7.68v21.119h-4.86V158.557z"/>
	<path fill="#FFFFFF" d="M241.762,174.756c0-10.5,7.02-17.039,14.459-17.039c8.1,0,12.78,5.819,12.78,15.179
		c0,1.08-0.06,2.16-0.24,2.94h-22.139c0.3,7.199,4.62,11.999,11.1,11.999c3.18,0,5.82-1.02,8.22-2.64l1.8,3.24
		c-2.82,1.8-6.12,3.3-10.62,3.3C248.602,191.736,241.762,185.436,241.762,174.756z M264.682,172.237c0-6.9-3.12-10.561-8.4-10.561
		c-4.8,0-9.06,3.9-9.72,10.561H264.682z"/>
	<path fill="#FFFFFF" d="M274.163,182.616c0-7.079,6.18-10.56,20.099-12.119c0.06-4.38-1.32-8.7-6.9-8.7
		c-3.9,0-7.38,1.86-9.84,3.601l-1.979-3.42c2.82-1.86,7.379-4.26,12.599-4.26c7.86,0,10.98,5.34,10.98,13.139v20.1h-4.02l-0.42-3.96
		h-0.18c-3.12,2.64-6.84,4.74-10.919,4.74C278.243,191.736,274.163,188.496,274.163,182.616z M294.262,183.276v-9.479
		c-11.459,1.319-15.359,4.08-15.359,8.52c0,3.899,2.7,5.46,6,5.46S290.962,186.215,294.262,183.276z"/>
	<path fill="#FFFFFF" d="M309.802,185.016v-41.818h4.86v42.178c0,1.62,0.66,2.28,1.5,2.28c0.3,0,0.54,0,1.14-0.12l0.72,3.78
		c-0.78,0.239-1.56,0.42-2.94,0.42C311.362,191.736,309.802,189.335,309.802,185.016z"/>
	<path fill="#FFFFFF" d="M325.582,148.177c0-1.979,1.38-3.3,3.42-3.3c1.92,0,3.36,1.32,3.36,3.3c0,2.1-1.44,3.42-3.36,3.42
		C326.962,151.597,325.582,150.277,325.582,148.177z M326.542,158.557h4.86v32.398h-4.86V158.557z"/>
	<path fill="#FFFFFF" d="M339.022,188.316l17.579-25.739h-15.659v-4.02h21.839v2.58l-17.579,25.799h18.119v4.02h-24.299V188.316z"/>
	<path fill="#FFFFFF" d="M367.582,174.756c0-10.5,7.02-17.039,14.459-17.039c8.1,0,12.78,5.819,12.78,15.179
		c0,1.08-0.06,2.16-0.24,2.94h-22.139c0.3,7.199,4.62,11.999,11.1,11.999c3.18,0,5.82-1.02,8.22-2.64l1.8,3.24
		c-2.82,1.8-6.12,3.3-10.62,3.3C374.421,191.736,367.582,185.436,367.582,174.756z M390.501,172.237c0-6.9-3.12-10.561-8.4-10.561
		c-4.8,0-9.06,3.9-9.72,10.561H390.501z"/>
	<path fill="#FFFFFF" d="M420.108,143.198h4.86v13.259l-0.18,6.78c3.12-3,6.42-5.52,10.86-5.52c6.78,0,9.899,4.38,9.899,12.659
		v20.579h-4.92v-19.979c0-6.239-1.92-8.999-6.419-8.999c-3.42,0-5.88,1.8-9.24,5.279v23.699h-4.86V143.198z"/>
	<path fill="#FFFFFF" d="M453.708,174.756c0-10.8,6.96-17.039,14.879-17.039c7.92,0,14.939,6.239,14.939,17.039
		c0,10.739-7.02,16.979-14.939,16.979C460.667,191.736,453.708,185.496,453.708,174.756z M478.487,174.756
		c0-7.68-4.08-12.899-9.9-12.899c-5.819,0-9.839,5.22-9.839,12.899c0,7.739,4.02,12.899,9.839,12.899
		C474.407,187.656,478.487,182.496,478.487,174.756z"/>
	<path fill="#FFFFFF" d="M488.027,158.557h4.979l5.1,19.259c0.72,3.06,1.32,5.94,1.98,8.939h0.24c0.78-2.999,1.44-5.88,2.28-8.939
		l5.22-19.259h4.92l5.28,19.259c0.78,3.06,1.5,5.94,2.28,8.939h0.24c0.72-2.999,1.38-5.88,2.1-8.939l4.98-19.259h4.68l-8.879,32.398
		h-5.94l-4.919-18.06c-0.9-3.119-1.5-6.06-2.28-9.359h-0.3c-0.72,3.3-1.38,6.359-2.34,9.42l-4.74,17.999h-5.76L488.027,158.557z"/>
	<path fill="#FFFFFF" d="M554.113,174.756c0-10.8,7.2-17.039,15.419-17.039c4.26,0,7.2,1.8,9.48,3.899l-2.58,3.18
		c-1.92-1.739-4.02-2.939-6.72-2.939c-6.06,0-10.56,5.22-10.56,12.899c0,7.739,4.199,12.899,10.439,12.899
		c3.061,0,5.82-1.5,7.859-3.3l2.16,3.24c-2.88,2.579-6.479,4.14-10.439,4.14C560.653,191.736,554.113,185.496,554.113,174.756z"/>
	<path fill="#FFFFFF" d="M586.993,185.016v-41.818h4.859v42.178c0,1.62,0.66,2.28,1.5,2.28c0.301,0,0.541,0,1.141-0.12l0.72,3.78
		c-0.78,0.239-1.56,0.42-2.94,0.42C588.554,191.736,586.993,189.335,586.993,185.016z"/>
	<path fill="#FFFFFF" d="M601.212,174.756c0-10.8,6.961-17.039,14.88-17.039c7.92,0,14.939,6.239,14.939,17.039
		c0,10.739-7.02,16.979-14.939,16.979C608.173,191.736,601.212,185.496,601.212,174.756z M625.991,174.756
		c0-7.68-4.08-12.899-9.899-12.899s-9.839,5.22-9.839,12.899c0,7.739,4.02,12.899,9.839,12.899S625.991,182.496,625.991,174.756z"/>
	<path fill="#FFFFFF" d="M636.071,187.295l2.461-3.3c2.819,2.28,5.699,3.9,9.779,3.9c4.5,0,6.72-2.4,6.72-5.4
		c0-3.479-3.899-5.039-7.56-6.359c-4.62-1.68-9.6-3.84-9.6-9.359c0-5.04,4.02-9.06,11.039-9.06c3.9,0,7.38,1.619,9.84,3.6l-2.4,3.18
		c-2.22-1.62-4.5-2.88-7.439-2.88c-4.32,0-6.3,2.28-6.3,4.92c0,3.24,3.36,4.5,7.08,5.819c4.739,1.86,10.02,3.721,10.02,9.9
		c0,5.159-4.08,9.479-11.579,9.479C643.512,191.736,639.132,189.816,636.071,187.295z"/>
	<path fill="#FFFFFF" d="M665.111,174.756c0-10.5,7.021-17.039,14.46-17.039c8.1,0,12.779,5.819,12.779,15.179
		c0,1.08-0.061,2.16-0.24,2.94h-22.139c0.3,7.199,4.619,11.999,11.1,11.999c3.18,0,5.819-1.02,8.219-2.64l1.801,3.24
		c-2.82,1.8-6.12,3.3-10.62,3.3C671.951,191.736,665.111,185.436,665.111,174.756z M688.03,172.237c0-6.9-3.119-10.561-8.399-10.561
		c-4.8,0-9.06,3.9-9.72,10.561H688.03z"/>
	<path fill="#FFFFFF" d="M718.538,181.176v-18.6h-4.92v-3.72l5.1-0.3l0.601-9.18h4.079v9.18h8.94v4.02h-8.94v18.779
		c0,3.96,1.201,6.359,5.101,6.359c1.2,0,2.7-0.42,3.78-0.899l0.959,3.72c-1.8,0.6-3.959,1.2-5.76,1.2
		C720.698,191.736,718.538,187.476,718.538,181.176z"/>
	<path fill="#FFFFFF" d="M739.777,143.198h4.86v13.259l-0.181,6.78c3.12-3,6.42-5.52,10.86-5.52c6.779,0,9.898,4.38,9.898,12.659
		v20.579h-4.92v-19.979c0-6.239-1.92-8.999-6.419-8.999c-3.42,0-5.88,1.8-9.239,5.279v23.699h-4.86V143.198z"/>
	<path fill="#FFFFFF" d="M773.376,174.756c0-10.5,7.021-17.039,14.46-17.039c8.1,0,12.78,5.819,12.78,15.179
		c0,1.08-0.061,2.16-0.24,2.94h-22.14c0.3,7.199,4.62,11.999,11.1,11.999c3.18,0,5.819-1.02,8.22-2.64l1.8,3.24
		c-2.819,1.8-6.12,3.3-10.62,3.3C780.216,191.736,773.376,185.436,773.376,174.756z M796.296,172.237c0-6.9-3.12-10.561-8.4-10.561
		c-4.799,0-9.059,3.9-9.719,10.561H796.296z"/>
	<path fill="#FFFFFF" d="M805.597,204.455l1.02-3.959c0.66,0.239,1.619,0.479,2.52,0.479c3.721,0,6.12-3.12,7.561-7.319l0.719-2.521
		l-13.079-32.578h5.101l6.898,18.539c1.021,2.82,2.16,6.18,3.24,9.119h0.301c0.899-2.939,1.859-6.299,2.76-9.119l6.06-18.539h4.8
		l-12.359,35.398c-2.16,6.18-5.52,11.159-11.82,11.159C807.876,205.115,806.616,204.875,805.597,204.455z"/>
	<path fill="#FFFFFF" d="M852.964,158.557h4.979l5.101,19.259c0.72,3.06,1.319,5.94,1.979,8.939h0.24
		c0.779-2.999,1.439-5.88,2.279-8.939l5.221-19.259h4.92l5.279,19.259c0.78,3.06,1.5,5.94,2.279,8.939h0.24
		c0.721-2.999,1.381-5.88,2.101-8.939l4.979-19.259h4.68l-8.879,32.398h-5.94l-4.92-18.06c-0.899-3.119-1.499-6.06-2.28-9.359
		h-0.299c-0.721,3.3-1.381,6.359-2.34,9.42l-4.74,17.999h-5.76L852.964,158.557z"/>
	<path fill="#FFFFFF" d="M901.742,174.756c0-10.5,7.021-17.039,14.46-17.039c8.1,0,12.779,5.819,12.779,15.179
		c0,1.08-0.061,2.16-0.24,2.94h-22.139c0.3,7.199,4.619,11.999,11.1,11.999c3.18,0,5.819-1.02,8.219-2.64l1.801,3.24
		c-2.82,1.8-6.12,3.3-10.62,3.3C908.582,191.736,901.742,185.436,901.742,174.756z M924.661,172.237
		c0-6.9-3.119-10.561-8.399-10.561c-4.8,0-9.06,3.9-9.72,10.561H924.661z"/>
	<path fill="#FFFFFF" d="M937.202,158.557h3.959l0.48,5.939h0.18c2.22-4.08,5.52-6.779,9.18-6.779c1.38,0,2.34,0.18,3.42,0.72
		l-0.96,4.26c-1.08-0.36-1.8-0.54-3.06-0.54c-2.76,0-6.12,2.04-8.34,7.68v21.119h-4.859V158.557z"/>
	<path fill="#FFFFFF" d="M956.762,174.756c0-10.5,7.02-17.039,14.46-17.039c8.1,0,12.779,5.819,12.779,15.179
		c0,1.08-0.061,2.16-0.24,2.94h-22.139c0.3,7.199,4.619,11.999,11.1,11.999c3.18,0,5.819-1.02,8.219-2.64l1.801,3.24
		c-2.82,1.8-6.12,3.3-10.62,3.3C963.602,191.736,956.762,185.436,956.762,174.756z M979.681,172.237
		c0-6.9-3.119-10.561-8.399-10.561c-4.8,0-9.06,3.9-9.72,10.561H979.681z"/>
	<path fill="#FFFFFF" d="M1010.189,181.176v-18.6h-4.92v-3.72l5.1-0.3l0.601-9.18h4.08v9.18h8.939v4.02h-8.939v18.779
		c0,3.96,1.199,6.359,5.1,6.359c1.199,0,2.699-0.42,3.779-0.899l0.96,3.72c-1.8,0.6-3.96,1.2-5.76,1.2
		C1012.35,191.736,1010.189,187.476,1010.189,181.176z"/>
	<path fill="#FFFFFF" d="M1028.01,174.756c0-10.8,6.96-17.039,14.88-17.039c7.919,0,14.939,6.239,14.939,17.039
		c0,10.739-7.021,16.979-14.939,16.979C1034.97,191.736,1028.01,185.496,1028.01,174.756z M1052.789,174.756
		c0-7.68-4.08-12.899-9.899-12.899c-5.82,0-9.84,5.22-9.84,12.899c0,7.739,4.02,12.899,9.84,12.899
		C1048.709,187.656,1052.789,182.496,1052.789,174.756z"/>
	<path fill="#FFFFFF" d="M0.87,266.295l2.46-3.3c2.82,2.28,5.7,3.9,9.779,3.9c4.5,0,6.72-2.4,6.72-5.4
		c0-3.479-3.899-5.039-7.56-6.359c-4.62-1.68-9.6-3.84-9.6-9.359c0-5.04,4.02-9.06,11.04-9.06c3.9,0,7.38,1.619,9.84,3.6l-2.4,3.18
		c-2.22-1.62-4.5-2.88-7.44-2.88c-4.32,0-6.3,2.28-6.3,4.92c0,3.24,3.36,4.5,7.08,5.819c4.74,1.86,10.02,3.721,10.02,9.9
		c0,5.159-4.08,9.479-11.58,9.479C8.31,270.736,3.93,268.816,0.87,266.295z"/>
	<path fill="#FFFFFF" d="M31.95,258.136v-20.579h4.86v19.979c0,6.18,1.86,8.94,6.42,8.94c3.42,0,5.879-1.74,9.12-5.7v-23.219h4.86
		v32.398h-4.02l-0.42-5.16h-0.18c-3.06,3.54-6.3,5.94-10.799,5.94C35.01,270.736,31.95,266.416,31.95,258.136z"/>
	<path fill="#FFFFFF" d="M66.029,253.756c0-10.8,7.2-17.039,15.419-17.039c4.26,0,7.2,1.8,9.48,3.899l-2.58,3.18
		c-1.92-1.739-4.02-2.939-6.72-2.939c-6.06,0-10.56,5.22-10.56,12.899c0,7.739,4.2,12.899,10.439,12.899c3.06,0,5.82-1.5,7.86-3.3
		l2.16,3.24c-2.88,2.579-6.479,4.14-10.439,4.14C72.569,270.736,66.029,264.496,66.029,253.756z"/>
	<path fill="#FFFFFF" d="M95.009,253.756c0-10.8,7.2-17.039,15.419-17.039c4.26,0,7.2,1.8,9.479,3.899l-2.58,3.18
		c-1.92-1.739-4.02-2.939-6.72-2.939c-6.06,0-10.56,5.22-10.56,12.899c0,7.739,4.2,12.899,10.439,12.899c3.06,0,5.82-1.5,7.86-3.3
		l2.16,3.24c-2.88,2.579-6.479,4.14-10.439,4.14C101.549,270.736,95.009,264.496,95.009,253.756z"/>
	<path fill="#FFFFFF" d="M123.99,253.756c0-10.5,7.02-17.039,14.459-17.039c8.1,0,12.78,5.819,12.78,15.179
		c0,1.08-0.06,2.16-0.24,2.94H128.85c0.3,7.199,4.62,11.999,11.1,11.999c3.18,0,5.82-1.02,8.22-2.64l1.8,3.24
		c-2.82,1.8-6.12,3.3-10.62,3.3C130.83,270.736,123.99,264.436,123.99,253.756z M146.909,251.237c0-6.9-3.12-10.561-8.4-10.561
		c-4.8,0-9.06,3.9-9.72,10.561H146.909z"/>
	<path fill="#FFFFFF" d="M155.67,266.295l2.46-3.3c2.82,2.28,5.7,3.9,9.779,3.9c4.5,0,6.72-2.4,6.72-5.4
		c0-3.479-3.899-5.039-7.56-6.359c-4.62-1.68-9.6-3.84-9.6-9.359c0-5.04,4.02-9.06,11.04-9.06c3.9,0,7.38,1.619,9.84,3.6l-2.4,3.18
		c-2.22-1.62-4.5-2.88-7.44-2.88c-4.32,0-6.3,2.28-6.3,4.92c0,3.24,3.36,4.5,7.08,5.819c4.74,1.86,10.02,3.721,10.02,9.9
		c0,5.159-4.08,9.479-11.58,9.479C163.109,270.736,158.73,268.816,155.67,266.295z"/>
	<path fill="#FFFFFF" d="M183.45,266.295l2.46-3.3c2.82,2.28,5.7,3.9,9.78,3.9c4.5,0,6.72-2.4,6.72-5.4
		c0-3.479-3.9-5.039-7.56-6.359c-4.62-1.68-9.6-3.84-9.6-9.359c0-5.04,4.02-9.06,11.04-9.06c3.9,0,7.38,1.619,9.84,3.6l-2.4,3.18
		c-2.22-1.62-4.5-2.88-7.44-2.88c-4.32,0-6.3,2.28-6.3,4.92c0,3.24,3.36,4.5,7.08,5.819c4.74,1.86,10.02,3.721,10.02,9.9
		c0,5.159-4.08,9.479-11.58,9.479C190.89,270.736,186.51,268.816,183.45,266.295z"/>
	<path fill="#FFFFFF" d="M224.309,237.557h4.979l5.1,19.259c0.72,3.06,1.32,5.94,1.979,8.939h0.24c0.78-2.999,1.44-5.88,2.28-8.939
		l5.22-19.259h4.92l5.28,19.259c0.78,3.06,1.5,5.94,2.28,8.939h0.24c0.72-2.999,1.38-5.88,2.1-8.939l4.979-19.259h4.68
		l-8.879,32.398h-5.94l-4.92-18.06c-0.9-3.119-1.5-6.06-2.28-9.359h-0.3c-0.72,3.3-1.38,6.359-2.34,9.42l-4.74,17.999h-5.76
		L224.309,237.557z"/>
	<path fill="#FFFFFF" d="M275.848,222.198h4.86v13.259l-0.18,6.78c3.12-3,6.42-5.52,10.86-5.52c6.78,0,9.899,4.38,9.899,12.659
		v20.579h-4.92v-19.979c0-6.239-1.92-8.999-6.419-8.999c-3.42,0-5.88,1.8-9.24,5.279v23.699h-4.86V222.198z"/>
	<path fill="#FFFFFF" d="M309.447,253.756c0-10.5,7.02-17.039,14.459-17.039c8.1,0,12.78,5.819,12.78,15.179
		c0,1.08-0.06,2.16-0.24,2.94h-22.139c0.3,7.199,4.62,11.999,11.1,11.999c3.18,0,5.82-1.02,8.22-2.64l1.8,3.24
		c-2.82,1.8-6.12,3.3-10.62,3.3C316.287,270.736,309.447,264.436,309.447,253.756z M332.366,251.237c0-6.9-3.12-10.561-8.4-10.561
		c-4.8,0-9.06,3.9-9.72,10.561H332.366z"/>
	<path fill="#FFFFFF" d="M344.907,237.557h3.96l0.48,4.739h0.18c3.12-3.06,6.48-5.579,10.92-5.579c6.78,0,9.899,4.38,9.899,12.659
		v20.579h-4.92v-19.979c0-6.239-1.92-8.999-6.419-8.999c-3.42,0-5.88,1.8-9.24,5.279v23.699h-4.86V237.557z"/>
	<path fill="#FFFFFF" d="M395.486,260.176v-18.6h-4.919v-3.72l5.1-0.3l0.6-9.18h4.08v9.18h8.939v4.02h-8.939v18.779
		c0,3.96,1.2,6.359,5.1,6.359c1.2,0,2.7-0.42,3.78-0.899l0.96,3.72c-1.8,0.6-3.96,1.2-5.76,1.2
		C397.646,270.736,395.486,266.476,395.486,260.176z"/>
	<path fill="#FFFFFF" d="M416.725,222.198h4.86v13.259l-0.18,6.78c3.12-3,6.42-5.52,10.86-5.52c6.78,0,9.899,4.38,9.899,12.659
		v20.579h-4.92v-19.979c0-6.239-1.92-8.999-6.419-8.999c-3.42,0-5.88,1.8-9.24,5.279v23.699h-4.86V222.198z"/>
	<path fill="#FFFFFF" d="M450.325,253.756c0-10.5,7.02-17.039,14.459-17.039c8.1,0,12.78,5.819,12.78,15.179
		c0,1.08-0.06,2.16-0.24,2.94h-22.139c0.3,7.199,4.62,11.999,11.1,11.999c3.18,0,5.82-1.02,8.22-2.64l1.8,3.24
		c-2.82,1.8-6.12,3.3-10.62,3.3C457.165,270.736,450.325,264.436,450.325,253.756z M473.244,251.237c0-6.9-3.12-10.561-8.4-10.561
		c-4.8,0-9.06,3.9-9.72,10.561H473.244z"/>
	<path fill="#FFFFFF" d="M482.544,283.455l1.02-3.959c0.66,0.239,1.62,0.479,2.52,0.479c3.72,0,6.12-3.12,7.56-7.319l0.72-2.521
		l-13.08-32.578h5.1l6.899,18.539c1.02,2.82,2.16,6.18,3.24,9.119h0.3c0.9-2.939,1.86-6.299,2.76-9.119l6.06-18.539h4.8
		l-12.36,35.398c-2.16,6.18-5.52,11.159-11.819,11.159C484.824,284.115,483.564,283.875,482.544,283.455z"/>
	<path fill="#FFFFFF" d="M527.724,276.255c0-2.76,1.8-5.46,4.8-7.439v-0.24c-1.68-1.021-2.94-2.76-2.94-5.34c0-2.7,1.98-4.8,3.6-6
		v-0.239c-2.1-1.681-4.2-4.86-4.2-8.76c0-6.96,5.46-11.52,12-11.52c1.799,0,3.359,0.42,4.499,0.84h11.22v3.779h-6.84
		c1.62,1.561,2.82,4.08,2.82,7.02c0,6.9-5.16,11.34-11.699,11.34c-1.621,0-3.48-0.42-4.98-1.2c-1.2,1.021-2.16,2.16-2.16,4.08
		c0,2.101,1.32,3.66,5.759,3.66h6.48c7.439,0,11.159,2.34,11.159,7.68c0,5.88-6.3,11.1-16.14,11.1
		C533.123,285.015,527.724,281.835,527.724,276.255z M552.442,274.635c0-3.18-2.34-4.26-6.779-4.26h-5.94
		c-1.02,0-2.64-0.18-4.14-0.54c-2.46,1.74-3.54,3.84-3.54,5.82c0,3.6,3.66,5.939,9.72,5.939
		C548.243,281.595,552.442,278.116,552.442,274.635z M548.243,248.237c0-4.86-3.301-7.86-7.26-7.86c-4.021,0-7.26,2.94-7.26,7.86
		s3.36,8.1,7.26,8.1C544.883,256.336,548.243,253.157,548.243,248.237z"/>
	<path fill="#FFFFFF" d="M560.603,261.616c0-7.079,6.18-10.56,20.1-12.119c0.06-4.38-1.32-8.7-6.9-8.7
		c-3.899,0-7.379,1.86-9.839,3.601l-1.979-3.42c2.819-1.86,7.379-4.26,12.599-4.26c7.86,0,10.979,5.34,10.979,13.139v20.1h-4.02
		l-0.42-3.96h-0.18c-3.12,2.64-6.84,4.74-10.92,4.74C564.683,270.736,560.603,267.496,560.603,261.616z M580.702,262.276v-9.479
		c-11.46,1.319-15.359,4.08-15.359,8.52c0,3.899,2.699,5.46,6,5.46C574.642,266.776,577.402,265.215,580.702,262.276z"/>
	<path fill="#FFFFFF" d="M591.322,237.557h5.101l6.419,18.839c0.96,3.18,2.04,6.479,3.06,9.54h0.24c1.02-3.061,2.1-6.36,3.061-9.54
		l6.42-18.839h4.799l-11.579,32.398h-5.7L591.322,237.557z"/>
	<path fill="#FFFFFF" d="M624.142,253.756c0-10.5,7.02-17.039,14.459-17.039c8.1,0,12.78,5.819,12.78,15.179
		c0,1.08-0.06,2.16-0.24,2.94h-22.14c0.301,7.199,4.621,11.999,11.1,11.999c3.181,0,5.82-1.02,8.221-2.64l1.799,3.24
		c-2.819,1.8-6.119,3.3-10.619,3.3C630.981,270.736,624.142,264.436,624.142,253.756z M647.062,251.237
		c0-6.9-3.121-10.561-8.4-10.561c-4.8,0-9.06,3.9-9.72,10.561H647.062z"/>
	<path fill="#FFFFFF" d="M672.501,258.136v-20.579h4.859v19.979c0,6.18,1.86,8.94,6.42,8.94c3.42,0,5.88-1.74,9.12-5.7v-23.219
		h4.859v32.398h-4.02l-0.42-5.16h-0.181c-3.06,3.54-6.299,5.94-10.799,5.94C675.562,270.736,672.501,266.416,672.501,258.136z"/>
	<path fill="#FFFFFF" d="M709.101,237.557h3.959l0.48,3.779h0.18c3-2.399,6.66-4.619,10.439-4.619c8.46,0,12.96,6.539,12.96,16.499
		c0,11.1-6.659,17.52-14.159,17.52c-3,0-6.061-1.38-9.12-3.78l0.12,5.7v11.22h-4.859V237.557z M732.019,253.276
		c0-7.319-2.52-12.419-8.999-12.419c-2.819,0-5.76,1.62-9.06,4.68v17.52c3.061,2.64,6.06,3.54,8.279,3.54
		C727.88,266.596,732.019,261.496,732.019,253.276z"/>
	<path fill="#FFFFFF" d="M744.021,266.896c0-2.4,1.68-3.96,3.66-3.96c2.039,0,3.72,1.56,3.72,3.96c0,2.279-1.681,3.84-3.72,3.84
		C745.7,270.736,744.021,269.175,744.021,266.896z"/>
	<path fill="#FFFFFF" d="M762.8,226.517c-0.359,0.3-1.02,0.54-1.739,0.54c-2.22,0-3.66-1.68-3.66-3.779
		c0-1.801,1.319-3.84,3.96-3.84c2.52,0,4.619,2.34,4.619,5.579c0,5.28-3.6,9.36-7.319,11.04l-1.2-2.1
		C760.7,232.337,762.8,229.277,762.8,226.517z M774.2,226.517c-0.36,0.3-1.08,0.54-1.74,0.54c-2.221,0-3.66-1.68-3.66-3.779
		c0-1.801,1.32-3.84,3.96-3.84c2.521,0,4.62,2.34,4.62,5.579c0,5.28-3.6,9.36-7.38,11.04l-1.14-2.1
		C772.04,232.337,774.14,229.277,774.2,226.517z"/>
</g>
<g>
	<path fill="#FFFFFF" d="M2.73,424.895c0-5.221,2.46-8.881,6.84-11.52l1.44,2.34c-3.24,2.279-4.92,4.559-4.92,8.279
		c0.18-0.061,0.36-0.061,0.6-0.061c1.68,0,3.3,1.141,3.3,3.24s-1.38,3.359-3.3,3.359C4.23,430.533,2.73,428.553,2.73,424.895z
		 M14.01,424.895c0-5.221,2.4-8.881,6.72-11.52l1.5,2.34c-3.24,2.279-4.92,4.559-4.92,8.279c0.18-0.061,0.36-0.061,0.54-0.061
		c1.74,0,3.36,1.141,3.36,3.24s-1.38,3.359-3.36,3.359C15.45,430.533,14.01,428.553,14.01,424.895z"/>
	<path fill="#FFFFFF" d="M32.489,416.135h6.12l8.64,23.998c1.08,3.121,2.1,6.24,3.18,9.359h0.3c1.08-3.119,2.04-6.238,3.06-9.359
		l8.58-23.998h6.12v43.918h-4.62v-25.379c0-3.721,0.36-8.881,0.6-12.721h-0.24l-3.48,9.961l-8.58,23.639h-3.42l-8.64-23.639
		l-3.479-9.961h-0.24c0.24,3.84,0.6,9,0.6,12.721v25.379h-4.5V416.135z"/>
	<path fill="#FFFFFF" d="M78.208,451.713c0-7.08,6.18-10.561,20.1-12.119c0.06-4.381-1.32-8.701-6.9-8.701
		c-3.9,0-7.38,1.861-9.839,3.602l-1.98-3.42c2.82-1.861,7.379-4.26,12.599-4.26c7.86,0,10.979,5.34,10.979,13.139v20.1h-4.02
		l-0.42-3.961h-0.18c-3.12,2.641-6.84,4.74-10.919,4.74C82.288,460.832,78.208,457.592,78.208,451.713z M98.308,452.373v-9.48
		c-11.46,1.32-15.359,4.08-15.359,8.52c0,3.9,2.7,5.461,6,5.461S95.008,455.313,98.308,452.373z"/>
	<path fill="#FFFFFF" d="M113.848,427.654h3.96l0.48,4.738h0.18c3.12-3.059,6.479-5.578,10.919-5.578
		c6.78,0,9.899,4.379,9.899,12.658v20.58h-4.92v-19.98c0-6.238-1.92-8.998-6.419-8.998c-3.42,0-5.88,1.799-9.24,5.279v23.699h-4.86
		V427.654z"/>
	<path fill="#FFFFFF" d="M146.488,473.551l1.02-3.959c0.66,0.24,1.62,0.48,2.52,0.48c3.72,0,6.12-3.121,7.56-7.32l0.72-2.52
		l-13.08-32.578h5.1l6.899,18.539c1.02,2.82,2.16,6.18,3.24,9.119h0.3c0.9-2.939,1.86-6.299,2.76-9.119l6.06-18.539h4.8
		l-12.36,35.398c-2.16,6.18-5.52,11.158-11.819,11.158C148.768,474.211,147.508,473.973,146.488,473.551z"/>
	<path fill="#FFFFFF" d="M195.469,443.854c0-10.801,6.96-17.039,14.879-17.039c7.92,0,14.939,6.238,14.939,17.039
		c0,10.738-7.02,16.979-14.939,16.979C202.429,460.832,195.469,454.592,195.469,443.854z M220.248,443.854
		c0-7.68-4.08-12.9-9.9-12.9s-9.839,5.221-9.839,12.9c0,7.738,4.02,12.898,9.839,12.898S220.248,451.592,220.248,443.854z"/>
	<path fill="#FFFFFF" d="M234.828,431.674h-4.44v-3.721l4.44-0.299v-5.641c0-6.539,3-10.5,9.18-10.5c1.86,0,3.72,0.42,5.22,1.08
		l-1.08,3.781c-1.26-0.602-2.58-0.9-3.72-0.9c-3.18,0-4.68,2.279-4.68,6.6v5.58h6.96v4.02h-6.96v28.379h-4.919V431.674z"/>
	<path fill="#FFFFFF" d="M270.249,454.113v-41.818h4.86v42.178c0,1.619,0.66,2.279,1.5,2.279c0.3,0,0.54,0,1.14-0.119l0.72,3.779
		c-0.78,0.24-1.56,0.42-2.94,0.42C271.809,460.832,270.249,458.432,270.249,454.113z"/>
	<path fill="#FFFFFF" d="M286.028,417.273c0-1.979,1.38-3.299,3.42-3.299c1.92,0,3.36,1.32,3.36,3.299c0,2.1-1.44,3.42-3.36,3.42
		C287.408,420.693,286.028,419.373,286.028,417.273z M286.988,427.654h4.86v32.398h-4.86V427.654z"/>
	<path fill="#FFFFFF" d="M303.848,431.674h-4.44v-3.721l4.44-0.299v-5.641c0-6.539,3-10.5,9.179-10.5c1.86,0,3.72,0.42,5.22,1.08
		l-1.08,3.781c-1.26-0.602-2.58-0.9-3.72-0.9c-3.18,0-4.68,2.279-4.68,6.6v5.58h6.96v4.02h-6.96v28.379h-4.919V431.674z"/>
	<path fill="#FFFFFF" d="M318.968,443.854c0-10.5,7.02-17.039,14.459-17.039c8.1,0,12.78,5.818,12.78,15.178
		c0,1.08-0.06,2.16-0.24,2.941h-22.139c0.3,7.199,4.62,11.998,11.1,11.998c3.18,0,5.82-1.02,8.22-2.639l1.8,3.24
		c-2.82,1.799-6.12,3.299-10.62,3.299C325.808,460.832,318.968,454.533,318.968,443.854z M341.887,441.334
		c0-6.9-3.12-10.561-8.4-10.561c-4.8,0-9.06,3.9-9.72,10.561H341.887z"/>
	<path fill="#FFFFFF" d="M352.208,428.193c3.24-2.279,4.92-4.619,4.92-8.34c-0.18,0.061-0.36,0.061-0.6,0.061
		c-1.68,0-3.3-1.08-3.3-3.18c0-2.16,1.38-3.42,3.3-3.42c2.4,0,3.9,2.039,3.9,5.639c0,5.221-2.4,8.941-6.78,11.58L352.208,428.193z"
		/>
	<path fill="#FFFFFF" d="M362.769,456.393l2.46-3.301c2.82,2.281,5.7,3.9,9.779,3.9c4.5,0,6.72-2.4,6.72-5.4
		c0-3.479-3.899-5.039-7.56-6.359c-4.62-1.68-9.6-3.84-9.6-9.359c0-5.039,4.02-9.059,11.04-9.059c3.9,0,7.38,1.619,9.84,3.6
		l-2.4,3.18c-2.22-1.621-4.5-2.881-7.44-2.881c-4.32,0-6.3,2.281-6.3,4.92c0,3.24,3.36,4.5,7.08,5.82
		c4.74,1.859,10.02,3.721,10.02,9.9c0,5.158-4.08,9.479-11.58,9.479C370.208,460.832,365.829,458.912,362.769,456.393z"/>
	<path fill="#FFFFFF" d="M412.17,431.674h-4.44v-3.721l4.44-0.299v-5.641c0-6.539,3-10.5,9.18-10.5c1.86,0,3.72,0.42,5.22,1.08
		l-1.08,3.781c-1.26-0.602-2.58-0.9-3.72-0.9c-3.18,0-4.68,2.279-4.68,6.6v5.58h6.96v4.02h-6.96v28.379h-4.919V431.674z"/>
	<path fill="#FFFFFF" d="M427.05,451.713c0-7.08,6.18-10.561,20.099-12.119c0.06-4.381-1.32-8.701-6.9-8.701
		c-3.9,0-7.38,1.861-9.84,3.602l-1.979-3.42c2.82-1.861,7.379-4.26,12.599-4.26c7.86,0,10.98,5.34,10.98,13.139v20.1h-4.02
		l-0.42-3.961h-0.18c-3.12,2.641-6.84,4.74-10.919,4.74C431.129,460.832,427.05,457.592,427.05,451.713z M447.149,452.373v-9.48
		c-11.459,1.32-15.359,4.08-15.359,8.52c0,3.9,2.7,5.461,6,5.461S443.849,455.313,447.149,452.373z"/>
	<path fill="#FFFFFF" d="M461.729,417.273c0-1.979,1.38-3.299,3.42-3.299c1.92,0,3.36,1.32,3.36,3.299c0,2.1-1.44,3.42-3.36,3.42
		C463.109,420.693,461.729,419.373,461.729,417.273z M462.689,427.654h4.86v32.398h-4.86V427.654z"/>
	<path fill="#FFFFFF" d="M478.829,454.113v-41.818h4.86v42.178c0,1.619,0.66,2.279,1.5,2.279c0.3,0,0.54,0,1.14-0.119l0.72,3.779
		c-0.78,0.24-1.56,0.42-2.94,0.42C480.389,460.832,478.829,458.432,478.829,454.113z"/>
	<path fill="#FFFFFF" d="M495.088,448.232v-20.578h4.86v19.979c0,6.18,1.86,8.939,6.42,8.939c3.419,0,5.879-1.74,9.12-5.699v-23.219
		h4.859v32.398h-4.02l-0.42-5.16h-0.18c-3.06,3.539-6.3,5.939-10.799,5.939C498.148,460.832,495.088,456.512,495.088,448.232z"/>
	<path fill="#FFFFFF" d="M531.687,427.654h3.96l0.48,5.939h0.18c2.22-4.08,5.521-6.779,9.18-6.779c1.38,0,2.34,0.18,3.42,0.719
		l-0.96,4.26c-1.08-0.359-1.8-0.539-3.06-0.539c-2.761,0-6.12,2.039-8.34,7.68v21.119h-4.86V427.654z"/>
	<path fill="#FFFFFF" d="M551.247,443.854c0-10.5,7.021-17.039,14.46-17.039c8.1,0,12.78,5.818,12.78,15.178
		c0,1.08-0.061,2.16-0.24,2.941h-22.14c0.3,7.199,4.62,11.998,11.1,11.998c3.18,0,5.819-1.02,8.22-2.639l1.8,3.24
		c-2.819,1.799-6.12,3.299-10.62,3.299C558.087,460.832,551.247,454.533,551.247,443.854z M574.167,441.334
		c0-6.9-3.12-10.561-8.4-10.561c-4.799,0-9.059,3.9-9.719,10.561H574.167z"/>
	<path fill="#FFFFFF" d="M582.928,456.393l2.46-3.301c2.82,2.281,5.699,3.9,9.779,3.9c4.5,0,6.72-2.4,6.72-5.4
		c0-3.479-3.899-5.039-7.56-6.359c-4.619-1.68-9.6-3.84-9.6-9.359c0-5.039,4.02-9.059,11.039-9.059c3.9,0,7.381,1.619,9.84,3.6
		l-2.399,3.18c-2.22-1.621-4.5-2.881-7.44-2.881c-4.319,0-6.299,2.281-6.299,4.92c0,3.24,3.359,4.5,7.08,5.82
		c4.739,1.859,10.02,3.721,10.02,9.9c0,5.158-4.08,9.479-11.58,9.479C590.367,460.832,585.987,458.912,582.928,456.393z"/>
	<path fill="#FFFFFF" d="M629.509,451.713c0-7.08,6.18-10.561,20.1-12.119c0.06-4.381-1.32-8.701-6.9-8.701
		c-3.899,0-7.379,1.861-9.839,3.602l-1.979-3.42c2.819-1.861,7.379-4.26,12.599-4.26c7.86,0,10.979,5.34,10.979,13.139v20.1h-4.02
		l-0.42-3.961h-0.18c-3.12,2.641-6.84,4.74-10.92,4.74C633.589,460.832,629.509,457.592,629.509,451.713z M649.608,452.373v-9.48
		c-11.46,1.32-15.359,4.08-15.359,8.52c0,3.9,2.699,5.461,6,5.461C643.548,456.873,646.309,455.313,649.608,452.373z"/>
	<path fill="#FFFFFF" d="M665.148,427.654h3.96l0.48,5.939h0.18c2.22-4.08,5.52-6.779,9.18-6.779c1.38,0,2.34,0.18,3.42,0.719
		l-0.961,4.26c-1.079-0.359-1.799-0.539-3.059-0.539c-2.761,0-6.121,2.039-8.34,7.68v21.119h-4.86V427.654z"/>
	<path fill="#FFFFFF" d="M684.709,443.854c0-10.5,7.021-17.039,14.46-17.039c8.1,0,12.779,5.818,12.779,15.178
		c0,1.08-0.061,2.16-0.24,2.941h-22.139c0.3,7.199,4.619,11.998,11.1,11.998c3.18,0,5.819-1.02,8.219-2.639l1.801,3.24
		c-2.82,1.799-6.12,3.299-10.62,3.299C691.549,460.832,684.709,454.533,684.709,443.854z M707.628,441.334
		c0-6.9-3.119-10.561-8.399-10.561c-4.8,0-9.06,3.9-9.72,10.561H707.628z"/>
	<path fill="#FFFFFF" d="M737.291,427.654h3.96l0.48,3.779h0.18c3-2.4,6.66-4.619,10.439-4.619c8.459,0,12.959,6.539,12.959,16.498
		c0,11.1-6.659,17.52-14.159,17.52c-3,0-6.06-1.379-9.12-3.779l0.121,5.699v11.221h-4.86V427.654z M760.21,443.373
		c0-7.32-2.52-12.42-9-12.42c-2.819,0-5.76,1.621-9.059,4.68v17.52c3.06,2.641,6.059,3.541,8.279,3.541
		C756.07,456.693,760.21,451.592,760.21,443.373z"/>
	<path fill="#FFFFFF" d="M771.671,443.854c0-10.5,7.02-17.039,14.459-17.039c8.1,0,12.779,5.818,12.779,15.178
		c0,1.08-0.06,2.16-0.24,2.941H776.53c0.301,7.199,4.62,11.998,11.1,11.998c3.18,0,5.82-1.02,8.22-2.639l1.8,3.24
		c-2.82,1.799-6.119,3.299-10.619,3.299C778.511,460.832,771.671,454.533,771.671,443.854z M794.59,441.334
		c0-6.9-3.12-10.561-8.399-10.561c-4.801,0-9.061,3.9-9.721,10.561H794.59z"/>
	<path fill="#FFFFFF" d="M804.61,443.854c0-10.801,6.96-17.039,14.879-17.039c7.92,0,14.939,6.238,14.939,17.039
		c0,10.738-7.02,16.979-14.939,16.979C811.57,460.832,804.61,454.592,804.61,443.854z M829.39,443.854c0-7.68-4.08-12.9-9.9-12.9
		c-5.819,0-9.839,5.221-9.839,12.9c0,7.738,4.02,12.898,9.839,12.898C825.31,456.752,829.39,451.592,829.39,443.854z"/>
	<path fill="#FFFFFF" d="M843.25,427.654h3.96l0.48,3.779h0.18c3-2.4,6.66-4.619,10.439-4.619c8.459,0,12.959,6.539,12.959,16.498
		c0,11.1-6.659,17.52-14.159,17.52c-3,0-6.06-1.379-9.12-3.779l0.121,5.699v11.221h-4.86V427.654z M866.169,443.373
		c0-7.32-2.52-12.42-9-12.42c-2.819,0-5.76,1.621-9.059,4.68v17.52c3.06,2.641,6.059,3.541,8.279,3.541
		C862.029,456.693,866.169,451.592,866.169,443.373z"/>
	<path fill="#FFFFFF" d="M880.149,454.113v-41.818h4.859v42.178c0,1.619,0.66,2.279,1.5,2.279c0.301,0,0.541,0,1.141-0.119
		l0.72,3.779c-0.78,0.24-1.56,0.42-2.94,0.42C881.71,460.832,880.149,458.432,880.149,454.113z"/>
	<path fill="#FFFFFF" d="M894.368,443.854c0-10.5,7.021-17.039,14.46-17.039c8.1,0,12.779,5.818,12.779,15.178
		c0,1.08-0.06,2.16-0.239,2.941h-22.14c0.3,7.199,4.62,11.998,11.1,11.998c3.18,0,5.819-1.02,8.22-2.639l1.8,3.24
		c-2.819,1.799-6.12,3.299-10.62,3.299C901.208,460.832,894.368,454.533,894.368,443.854z M917.288,441.334
		c0-6.9-3.12-10.561-8.4-10.561c-4.799,0-9.059,3.9-9.719,10.561H917.288z"/>
	<path fill="#FFFFFF" d="M942.87,427.654h4.979l5.1,19.258c0.721,3.061,1.32,5.941,1.98,8.939h0.239
		c0.78-2.998,1.44-5.879,2.28-8.939l5.22-19.258h4.92l5.28,19.258c0.779,3.061,1.499,5.941,2.279,8.939h0.24
		c0.72-2.998,1.38-5.879,2.1-8.939l4.98-19.258h4.68l-8.88,32.398h-5.939l-4.92-18.061c-0.9-3.119-1.5-6.059-2.28-9.359h-0.3
		c-0.72,3.301-1.38,6.359-2.34,9.42l-4.74,18h-5.76L942.87,427.654z"/>
	<path fill="#FFFFFF" d="M994.409,412.295h4.859v13.258l-0.18,6.781c3.119-3,6.42-5.52,10.859-5.52
		c6.779,0,9.899,4.379,9.899,12.658v20.58h-4.92v-19.98c0-6.238-1.92-8.998-6.42-8.998c-3.42,0-5.88,1.799-9.239,5.279v23.699
		h-4.859V412.295z"/>
	<path fill="#FFFFFF" d="M1028.008,443.854c0-10.801,6.96-17.039,14.88-17.039c7.919,0,14.939,6.238,14.939,17.039
		c0,10.738-7.021,16.979-14.939,16.979C1034.968,460.832,1028.008,454.592,1028.008,443.854z M1052.787,443.854
		c0-7.68-4.08-12.9-9.899-12.9c-5.82,0-9.84,5.221-9.84,12.9c0,7.738,4.02,12.898,9.84,12.898
		C1048.707,456.752,1052.787,451.592,1052.787,443.854z"/>
	<path fill="#FFFFFF" d="M2.19,522.854c0-10.439,6.66-17.039,14.1-17.039c3.84,0,6.36,1.439,9.299,3.84l-0.24-5.641v-12.719h4.86
		v47.758h-4.02l-0.42-3.9h-0.18c-2.58,2.58-6.06,4.68-10.02,4.68C7.41,539.832,2.19,533.713,2.19,522.854z M25.349,531.072v-17.52
		c-2.94-2.58-5.46-3.6-8.28-3.6c-5.52,0-9.779,5.34-9.779,12.9c0,7.979,3.36,12.84,9.299,12.84
		C19.709,535.693,22.469,534.133,25.349,531.072z"/>
	<path fill="#FFFFFF" d="M40.589,496.273c0-1.979,1.38-3.299,3.42-3.299c1.92,0,3.36,1.32,3.36,3.299c0,2.1-1.44,3.42-3.36,3.42
		C41.969,499.693,40.589,498.373,40.589,496.273z M41.549,506.654h4.86v32.398h-4.86V506.654z"/>
	<path fill="#FFFFFF" d="M55.229,522.854c0-10.439,6.66-17.039,14.1-17.039c3.84,0,6.36,1.439,9.299,3.84l-0.24-5.641v-12.719h4.86
		v47.758h-4.02l-0.42-3.9h-0.18c-2.58,2.58-6.06,4.68-10.02,4.68C60.449,539.832,55.229,533.713,55.229,522.854z M78.388,531.072
		v-17.52c-2.94-2.58-5.46-3.6-8.28-3.6c-5.52,0-9.779,5.34-9.779,12.9c0,7.979,3.36,12.84,9.299,12.84
		C72.749,535.693,75.508,534.133,78.388,531.072z"/>
	<path fill="#FFFFFF" d="M111.656,506.654h3.96l0.48,4.738h0.18c3.12-3.059,6.48-5.578,10.92-5.578c6.78,0,9.899,4.379,9.899,12.658
		v20.58h-4.92v-19.98c0-6.238-1.92-8.998-6.419-8.998c-3.42,0-5.88,1.799-9.24,5.279v23.699h-4.86V506.654z"/>
	<path fill="#FFFFFF" d="M145.436,522.854c0-10.801,6.96-17.039,14.879-17.039c7.92,0,14.939,6.238,14.939,17.039
		c0,10.738-7.02,16.979-14.939,16.979C152.396,539.832,145.436,533.592,145.436,522.854z M170.215,522.854
		c0-7.68-4.08-12.9-9.9-12.9s-9.839,5.221-9.839,12.9c0,7.738,4.02,12.898,9.839,12.898S170.215,530.592,170.215,522.854z"/>
	<path fill="#FFFFFF" d="M183.896,529.273v-18.6h-4.92v-3.721l5.1-0.299l0.6-9.18h4.08v9.18h8.94v4.02h-8.94v18.779
		c0,3.959,1.2,6.359,5.1,6.359c1.2,0,2.7-0.42,3.78-0.9l0.96,3.721c-1.8,0.6-3.96,1.199-5.76,1.199
		C186.056,539.832,183.896,535.572,183.896,529.273z"/>
	<path fill="#FFFFFF" d="M222.202,506.654h3.96l0.48,5.939h0.18c2.22-4.08,5.52-6.779,9.18-6.779c1.38,0,2.34,0.18,3.42,0.719
		l-0.96,4.26c-1.08-0.359-1.8-0.539-3.06-0.539c-2.76,0-6.12,2.039-8.34,7.68v21.119h-4.86V506.654z"/>
	<path fill="#FFFFFF" d="M241.762,522.854c0-10.5,7.02-17.039,14.459-17.039c8.1,0,12.78,5.818,12.78,15.178
		c0,1.08-0.06,2.16-0.24,2.941h-22.139c0.3,7.199,4.62,11.998,11.1,11.998c3.18,0,5.82-1.02,8.22-2.639l1.8,3.24
		c-2.82,1.799-6.12,3.299-10.62,3.299C248.602,539.832,241.762,533.533,241.762,522.854z M264.682,520.334
		c0-6.9-3.12-10.561-8.4-10.561c-4.8,0-9.06,3.9-9.72,10.561H264.682z"/>
	<path fill="#FFFFFF" d="M274.163,530.713c0-7.08,6.18-10.561,20.099-12.119c0.06-4.381-1.32-8.701-6.9-8.701
		c-3.9,0-7.38,1.861-9.84,3.602l-1.979-3.42c2.82-1.861,7.379-4.26,12.599-4.26c7.86,0,10.98,5.34,10.98,13.139v20.1h-4.02
		l-0.42-3.961h-0.18c-3.12,2.641-6.84,4.74-10.919,4.74C278.243,539.832,274.163,536.592,274.163,530.713z M294.262,531.373v-9.48
		c-11.459,1.32-15.359,4.08-15.359,8.52c0,3.9,2.7,5.461,6,5.461S290.962,534.313,294.262,531.373z"/>
	<path fill="#FFFFFF" d="M309.802,533.113v-41.818h4.86v42.178c0,1.619,0.66,2.279,1.5,2.279c0.3,0,0.54,0,1.14-0.119l0.72,3.779
		c-0.78,0.24-1.56,0.42-2.94,0.42C311.362,539.832,309.802,537.432,309.802,533.113z"/>
	<path fill="#FFFFFF" d="M325.582,496.273c0-1.979,1.38-3.299,3.42-3.299c1.92,0,3.36,1.32,3.36,3.299c0,2.1-1.44,3.42-3.36,3.42
		C326.962,499.693,325.582,498.373,325.582,496.273z M326.542,506.654h4.86v32.398h-4.86V506.654z"/>
	<path fill="#FFFFFF" d="M339.022,536.412l17.579-25.738h-15.659v-4.02h21.839v2.58l-17.579,25.799h18.119v4.02h-24.299V536.412z"/>
	<path fill="#FFFFFF" d="M367.582,522.854c0-10.5,7.02-17.039,14.459-17.039c8.1,0,12.78,5.818,12.78,15.178
		c0,1.08-0.06,2.16-0.24,2.941h-22.139c0.3,7.199,4.62,11.998,11.1,11.998c3.18,0,5.82-1.02,8.22-2.639l1.8,3.24
		c-2.82,1.799-6.12,3.299-10.62,3.299C374.421,539.832,367.582,533.533,367.582,522.854z M390.501,520.334
		c0-6.9-3.12-10.561-8.4-10.561c-4.8,0-9.06,3.9-9.72,10.561H390.501z"/>
	<path fill="#FFFFFF" d="M420.109,491.295h4.86v13.258l-0.18,6.781c3.12-3,6.42-5.52,10.86-5.52c6.78,0,9.899,4.379,9.899,12.658
		v20.58h-4.92v-19.98c0-6.238-1.92-8.998-6.419-8.998c-3.42,0-5.88,1.799-9.24,5.279v23.699h-4.86V491.295z"/>
	<path fill="#FFFFFF" d="M453.708,522.854c0-10.801,6.96-17.039,14.879-17.039c7.92,0,14.939,6.238,14.939,17.039
		c0,10.738-7.02,16.979-14.939,16.979C460.668,539.832,453.708,533.592,453.708,522.854z M478.487,522.854
		c0-7.68-4.08-12.9-9.9-12.9s-9.839,5.221-9.839,12.9c0,7.738,4.02,12.898,9.839,12.898S478.487,530.592,478.487,522.854z"/>
	<path fill="#FFFFFF" d="M488.028,506.654h4.979l5.1,19.258c0.72,3.061,1.32,5.941,1.979,8.939h0.24
		c0.78-2.998,1.44-5.879,2.28-8.939l5.22-19.258h4.92l5.28,19.258c0.78,3.061,1.5,5.941,2.28,8.939h0.24
		c0.72-2.998,1.38-5.879,2.1-8.939l4.979-19.258h4.68l-8.879,32.398h-5.94l-4.92-18.061c-0.9-3.119-1.5-6.059-2.28-9.359h-0.3
		c-0.72,3.301-1.38,6.359-2.34,9.42l-4.74,18h-5.76L488.028,506.654z"/>
	<path fill="#FFFFFF" d="M554.113,522.854c0-10.801,7.2-17.039,15.419-17.039c4.26,0,7.2,1.799,9.48,3.898l-2.58,3.18
		c-1.92-1.738-4.02-2.939-6.72-2.939c-6.06,0-10.56,5.221-10.56,12.9c0,7.738,4.199,12.898,10.439,12.898
		c3.061,0,5.82-1.5,7.859-3.299l2.16,3.24c-2.88,2.578-6.479,4.139-10.439,4.139C560.653,539.832,554.113,533.592,554.113,522.854z"
		/>
	<path fill="#FFFFFF" d="M586.993,533.113v-41.818h4.859v42.178c0,1.619,0.66,2.279,1.5,2.279c0.301,0,0.541,0,1.141-0.119
		l0.72,3.779c-0.78,0.24-1.56,0.42-2.94,0.42C588.554,539.832,586.993,537.432,586.993,533.113z"/>
	<path fill="#FFFFFF" d="M601.212,522.854c0-10.801,6.961-17.039,14.88-17.039c7.92,0,14.939,6.238,14.939,17.039
		c0,10.738-7.02,16.979-14.939,16.979C608.173,539.832,601.212,533.592,601.212,522.854z M625.991,522.854
		c0-7.68-4.08-12.9-9.899-12.9s-9.839,5.221-9.839,12.9c0,7.738,4.02,12.898,9.839,12.898S625.991,530.592,625.991,522.854z"/>
	<path fill="#FFFFFF" d="M636.071,535.393l2.461-3.301c2.819,2.281,5.699,3.9,9.779,3.9c4.5,0,6.72-2.4,6.72-5.4
		c0-3.479-3.899-5.039-7.56-6.359c-4.62-1.68-9.6-3.84-9.6-9.359c0-5.039,4.02-9.059,11.039-9.059c3.9,0,7.38,1.619,9.84,3.6
		l-2.4,3.18c-2.22-1.621-4.5-2.881-7.439-2.881c-4.32,0-6.3,2.281-6.3,4.92c0,3.24,3.36,4.5,7.08,5.82
		c4.739,1.859,10.02,3.721,10.02,9.9c0,5.158-4.08,9.479-11.579,9.479C643.512,539.832,639.132,537.912,636.071,535.393z"/>
	<path fill="#FFFFFF" d="M665.111,522.854c0-10.5,7.021-17.039,14.46-17.039c8.1,0,12.779,5.818,12.779,15.178
		c0,1.08-0.061,2.16-0.24,2.941h-22.139c0.3,7.199,4.619,11.998,11.1,11.998c3.18,0,5.819-1.02,8.219-2.639l1.801,3.24
		c-2.82,1.799-6.12,3.299-10.62,3.299C671.951,539.832,665.111,533.533,665.111,522.854z M688.03,520.334
		c0-6.9-3.119-10.561-8.399-10.561c-4.8,0-9.06,3.9-9.72,10.561H688.03z"/>
	<path fill="#FFFFFF" d="M718.538,529.273v-18.6h-4.919v-3.721l5.1-0.299l0.601-9.18h4.079v9.18h8.939v4.02h-8.939v18.779
		c0,3.959,1.2,6.359,5.1,6.359c1.2,0,2.7-0.42,3.78-0.9l0.96,3.721c-1.8,0.6-3.96,1.199-5.76,1.199
		C720.698,539.832,718.538,535.572,718.538,529.273z"/>
	<path fill="#FFFFFF" d="M739.778,491.295h4.859v13.258l-0.18,6.781c3.119-3,6.42-5.52,10.859-5.52
		c6.779,0,9.899,4.379,9.899,12.658v20.58h-4.92v-19.98c0-6.238-1.92-8.998-6.419-8.998c-3.42,0-5.881,1.799-9.24,5.279v23.699
		h-4.859V491.295z"/>
	<path fill="#FFFFFF" d="M773.377,522.854c0-10.5,7.021-17.039,14.46-17.039c8.1,0,12.779,5.818,12.779,15.178
		c0,1.08-0.061,2.16-0.24,2.941h-22.139c0.3,7.199,4.619,11.998,11.1,11.998c3.18,0,5.819-1.02,8.219-2.639l1.801,3.24
		c-2.82,1.799-6.12,3.299-10.62,3.299C780.217,539.832,773.377,533.533,773.377,522.854z M796.296,520.334
		c0-6.9-3.119-10.561-8.399-10.561c-4.8,0-9.06,3.9-9.72,10.561H796.296z"/>
	<path fill="#FFFFFF" d="M805.597,552.551l1.02-3.959c0.66,0.24,1.62,0.48,2.52,0.48c3.721,0,6.121-3.121,7.561-7.32l0.72-2.52
		l-13.079-32.578h5.1l6.899,18.539c1.021,2.82,2.16,6.18,3.24,9.119h0.3c0.9-2.939,1.859-6.299,2.76-9.119l6.061-18.539h4.799
		l-12.359,35.398c-2.16,6.18-5.52,11.158-11.819,11.158C807.876,553.211,806.616,552.973,805.597,552.551z"/>
	<path fill="#FFFFFF" d="M852.964,506.654h4.979l5.101,19.258c0.72,3.061,1.319,5.941,1.979,8.939h0.24
		c0.779-2.998,1.439-5.879,2.279-8.939l5.221-19.258h4.92l5.279,19.258c0.78,3.061,1.5,5.941,2.279,8.939h0.24
		c0.721-2.998,1.381-5.879,2.101-8.939l4.979-19.258h4.68l-8.879,32.398h-5.94l-4.92-18.061c-0.899-3.119-1.499-6.059-2.28-9.359
		h-0.299c-0.721,3.301-1.381,6.359-2.34,9.42l-4.74,18h-5.76L852.964,506.654z"/>
	<path fill="#FFFFFF" d="M901.742,522.854c0-10.5,7.021-17.039,14.46-17.039c8.1,0,12.779,5.818,12.779,15.178
		c0,1.08-0.061,2.16-0.24,2.941h-22.139c0.3,7.199,4.619,11.998,11.1,11.998c3.18,0,5.819-1.02,8.219-2.639l1.801,3.24
		c-2.82,1.799-6.12,3.299-10.62,3.299C908.582,539.832,901.742,533.533,901.742,522.854z M924.661,520.334
		c0-6.9-3.119-10.561-8.399-10.561c-4.8,0-9.06,3.9-9.72,10.561H924.661z"/>
	<path fill="#FFFFFF" d="M937.202,506.654h3.959l0.48,5.939h0.18c2.22-4.08,5.52-6.779,9.18-6.779c1.38,0,2.34,0.18,3.42,0.719
		l-0.96,4.26c-1.08-0.359-1.8-0.539-3.06-0.539c-2.76,0-6.12,2.039-8.34,7.68v21.119h-4.859V506.654z"/>
	<path fill="#FFFFFF" d="M956.763,522.854c0-10.5,7.02-17.039,14.46-17.039c8.1,0,12.779,5.818,12.779,15.178
		c0,1.08-0.061,2.16-0.24,2.941h-22.139c0.3,7.199,4.619,11.998,11.1,11.998c3.18,0,5.819-1.02,8.22-2.639l1.8,3.24
		c-2.82,1.799-6.12,3.299-10.62,3.299C963.603,539.832,956.763,533.533,956.763,522.854z M979.682,520.334
		c0-6.9-3.119-10.561-8.399-10.561c-4.8,0-9.06,3.9-9.72,10.561H979.682z"/>
	<path fill="#FFFFFF" d="M1010.189,529.273v-18.6h-4.92v-3.721l5.1-0.299l0.601-9.18h4.08v9.18h8.939v4.02h-8.939v18.779
		c0,3.959,1.199,6.359,5.1,6.359c1.199,0,2.699-0.42,3.779-0.9l0.96,3.721c-1.8,0.6-3.96,1.199-5.76,1.199
		C1012.35,539.832,1010.189,535.572,1010.189,529.273z"/>
	<path fill="#FFFFFF" d="M1028.01,522.854c0-10.801,6.96-17.039,14.88-17.039c7.919,0,14.939,6.238,14.939,17.039
		c0,10.738-7.021,16.979-14.939,16.979C1034.97,539.832,1028.01,533.592,1028.01,522.854z M1052.789,522.854
		c0-7.68-4.08-12.9-9.899-12.9c-5.82,0-9.84,5.221-9.84,12.9c0,7.738,4.02,12.898,9.84,12.898
		C1048.709,535.752,1052.789,530.592,1052.789,522.854z"/>
	<path fill="#FFFFFF" d="M0.87,614.393l2.46-3.301c2.82,2.281,5.7,3.9,9.779,3.9c4.5,0,6.72-2.4,6.72-5.4
		c0-3.479-3.899-5.039-7.56-6.359c-4.62-1.68-9.6-3.84-9.6-9.359c0-5.039,4.02-9.059,11.04-9.059c3.9,0,7.38,1.619,9.84,3.6
		l-2.4,3.18c-2.22-1.621-4.5-2.881-7.44-2.881c-4.32,0-6.3,2.281-6.3,4.92c0,3.24,3.36,4.5,7.08,5.82
		c4.74,1.859,10.02,3.721,10.02,9.9c0,5.158-4.08,9.479-11.58,9.479C8.31,618.832,3.93,616.912,0.87,614.393z"/>
	<path fill="#FFFFFF" d="M31.95,606.232v-20.578h4.86v19.979c0,6.18,1.86,8.939,6.42,8.939c3.42,0,5.879-1.74,9.12-5.699v-23.219
		h4.86v32.398h-4.02l-0.42-5.16h-0.18c-3.06,3.539-6.3,5.939-10.799,5.939C35.01,618.832,31.95,614.512,31.95,606.232z"/>
	<path fill="#FFFFFF" d="M66.029,601.854c0-10.801,7.2-17.039,15.419-17.039c4.26,0,7.2,1.799,9.48,3.898l-2.58,3.18
		c-1.92-1.738-4.02-2.939-6.72-2.939c-6.06,0-10.56,5.221-10.56,12.9c0,7.738,4.2,12.898,10.439,12.898c3.06,0,5.82-1.5,7.86-3.299
		l2.16,3.24c-2.88,2.578-6.479,4.139-10.439,4.139C72.569,618.832,66.029,612.592,66.029,601.854z"/>
	<path fill="#FFFFFF" d="M95.009,601.854c0-10.801,7.2-17.039,15.419-17.039c4.26,0,7.2,1.799,9.479,3.898l-2.58,3.18
		c-1.92-1.738-4.02-2.939-6.72-2.939c-6.06,0-10.56,5.221-10.56,12.9c0,7.738,4.2,12.898,10.439,12.898c3.06,0,5.82-1.5,7.86-3.299
		l2.16,3.24c-2.88,2.578-6.479,4.139-10.439,4.139C101.549,618.832,95.009,612.592,95.009,601.854z"/>
	<path fill="#FFFFFF" d="M123.99,601.854c0-10.5,7.02-17.039,14.459-17.039c8.1,0,12.78,5.818,12.78,15.178
		c0,1.08-0.06,2.16-0.24,2.941H128.85c0.3,7.199,4.62,11.998,11.1,11.998c3.18,0,5.82-1.02,8.22-2.639l1.8,3.24
		c-2.82,1.799-6.12,3.299-10.62,3.299C130.83,618.832,123.99,612.533,123.99,601.854z M146.909,599.334
		c0-6.9-3.12-10.561-8.4-10.561c-4.8,0-9.06,3.9-9.72,10.561H146.909z"/>
	<path fill="#FFFFFF" d="M155.67,614.393l2.46-3.301c2.82,2.281,5.7,3.9,9.779,3.9c4.5,0,6.72-2.4,6.72-5.4
		c0-3.479-3.899-5.039-7.56-6.359c-4.62-1.68-9.6-3.84-9.6-9.359c0-5.039,4.02-9.059,11.04-9.059c3.9,0,7.38,1.619,9.84,3.6
		l-2.4,3.18c-2.22-1.621-4.5-2.881-7.44-2.881c-4.32,0-6.3,2.281-6.3,4.92c0,3.24,3.36,4.5,7.08,5.82
		c4.74,1.859,10.02,3.721,10.02,9.9c0,5.158-4.08,9.479-11.58,9.479C163.109,618.832,158.73,616.912,155.67,614.393z"/>
	<path fill="#FFFFFF" d="M183.45,614.393l2.46-3.301c2.82,2.281,5.7,3.9,9.78,3.9c4.5,0,6.72-2.4,6.72-5.4
		c0-3.479-3.9-5.039-7.56-6.359c-4.62-1.68-9.6-3.84-9.6-9.359c0-5.039,4.02-9.059,11.04-9.059c3.9,0,7.38,1.619,9.84,3.6l-2.4,3.18
		c-2.22-1.621-4.5-2.881-7.44-2.881c-4.32,0-6.3,2.281-6.3,4.92c0,3.24,3.36,4.5,7.08,5.82c4.74,1.859,10.02,3.721,10.02,9.9
		c0,5.158-4.08,9.479-11.58,9.479C190.89,618.832,186.51,616.912,183.45,614.393z"/>
	<path fill="#FFFFFF" d="M224.309,585.654h4.979l5.1,19.258c0.72,3.061,1.32,5.941,1.979,8.939h0.24
		c0.78-2.998,1.44-5.879,2.28-8.939l5.22-19.258h4.92l5.28,19.258c0.78,3.061,1.5,5.941,2.28,8.939h0.24
		c0.72-2.998,1.38-5.879,2.1-8.939l4.979-19.258h4.68l-8.879,32.398h-5.94l-4.92-18.061c-0.9-3.119-1.5-6.059-2.28-9.359h-0.3
		c-0.72,3.301-1.38,6.359-2.34,9.42l-4.74,18h-5.76L224.309,585.654z"/>
	<path fill="#FFFFFF" d="M275.848,570.295h4.86v13.258l-0.18,6.781c3.12-3,6.42-5.52,10.86-5.52c6.78,0,9.899,4.379,9.899,12.658
		v20.58h-4.92v-19.98c0-6.238-1.92-8.998-6.419-8.998c-3.42,0-5.88,1.799-9.24,5.279v23.699h-4.86V570.295z"/>
	<path fill="#FFFFFF" d="M309.447,601.854c0-10.5,7.02-17.039,14.459-17.039c8.1,0,12.78,5.818,12.78,15.178
		c0,1.08-0.06,2.16-0.24,2.941h-22.139c0.3,7.199,4.62,11.998,11.1,11.998c3.18,0,5.82-1.02,8.22-2.639l1.8,3.24
		c-2.82,1.799-6.12,3.299-10.62,3.299C316.287,618.832,309.447,612.533,309.447,601.854z M332.366,599.334
		c0-6.9-3.12-10.561-8.4-10.561c-4.8,0-9.06,3.9-9.72,10.561H332.366z"/>
	<path fill="#FFFFFF" d="M344.907,585.654h3.96l0.48,4.738h0.18c3.12-3.059,6.48-5.578,10.92-5.578c6.78,0,9.899,4.379,9.899,12.658
		v20.58h-4.92v-19.98c0-6.238-1.92-8.998-6.419-8.998c-3.42,0-5.88,1.799-9.24,5.279v23.699h-4.86V585.654z"/>
	<path fill="#FFFFFF" d="M395.486,608.273v-18.6h-4.919v-3.721l5.1-0.299l0.6-9.18h4.08v9.18h8.939v4.02h-8.939v18.779
		c0,3.959,1.2,6.359,5.1,6.359c1.2,0,2.7-0.42,3.78-0.9l0.96,3.721c-1.8,0.6-3.96,1.199-5.76,1.199
		C397.646,618.832,395.486,614.572,395.486,608.273z"/>
	<path fill="#FFFFFF" d="M416.725,570.295h4.86v13.258l-0.18,6.781c3.12-3,6.42-5.52,10.86-5.52c6.78,0,9.899,4.379,9.899,12.658
		v20.58h-4.92v-19.98c0-6.238-1.92-8.998-6.419-8.998c-3.42,0-5.88,1.799-9.24,5.279v23.699h-4.86V570.295z"/>
	<path fill="#FFFFFF" d="M450.325,601.854c0-10.5,7.02-17.039,14.459-17.039c8.1,0,12.78,5.818,12.78,15.178
		c0,1.08-0.06,2.16-0.24,2.941h-22.139c0.3,7.199,4.62,11.998,11.1,11.998c3.18,0,5.82-1.02,8.22-2.639l1.8,3.24
		c-2.82,1.799-6.12,3.299-10.62,3.299C457.165,618.832,450.325,612.533,450.325,601.854z M473.244,599.334
		c0-6.9-3.12-10.561-8.4-10.561c-4.8,0-9.06,3.9-9.72,10.561H473.244z"/>
	<path fill="#FFFFFF" d="M482.544,631.551l1.02-3.959c0.66,0.24,1.62,0.48,2.52,0.48c3.72,0,6.12-3.121,7.56-7.32l0.72-2.52
		l-13.08-32.578h5.1l6.899,18.539c1.02,2.82,2.16,6.18,3.24,9.119h0.3c0.9-2.939,1.86-6.299,2.76-9.119l6.06-18.539h4.8
		l-12.36,35.398c-2.16,6.18-5.52,11.158-11.819,11.158C484.824,632.211,483.564,631.973,482.544,631.551z"/>
	<path fill="#FFFFFF" d="M527.724,624.352c0-2.76,1.8-5.459,4.8-7.439v-0.24c-1.68-1.02-2.94-2.76-2.94-5.34
		c0-2.699,1.98-4.799,3.6-6v-0.238c-2.1-1.682-4.2-4.861-4.2-8.76c0-6.961,5.46-11.52,12-11.52c1.799,0,3.359,0.42,4.499,0.84h11.22
		v3.779h-6.84c1.62,1.561,2.82,4.08,2.82,7.02c0,6.9-5.16,11.34-11.699,11.34c-1.621,0-3.48-0.42-4.98-1.201
		c-1.2,1.021-2.16,2.16-2.16,4.08c0,2.102,1.32,3.66,5.759,3.66h6.48c7.439,0,11.159,2.34,11.159,7.68c0,5.881-6.3,11.1-16.14,11.1
		C533.123,633.111,527.724,629.932,527.724,624.352z M552.442,622.732c0-3.18-2.34-4.26-6.779-4.26h-5.94
		c-1.02,0-2.64-0.18-4.14-0.541c-2.46,1.74-3.54,3.84-3.54,5.82c0,3.6,3.66,5.939,9.72,5.939
		C548.243,629.691,552.442,626.213,552.442,622.732z M548.243,596.334c0-4.861-3.301-7.861-7.26-7.861
		c-4.021,0-7.26,2.941-7.26,7.861s3.36,8.1,7.26,8.1C544.883,604.434,548.243,601.254,548.243,596.334z"/>
	<path fill="#FFFFFF" d="M560.603,609.713c0-7.08,6.18-10.561,20.1-12.119c0.06-4.381-1.32-8.701-6.9-8.701
		c-3.899,0-7.379,1.861-9.839,3.602l-1.979-3.42c2.819-1.861,7.379-4.26,12.599-4.26c7.86,0,10.979,5.34,10.979,13.139v20.1h-4.02
		l-0.42-3.961h-0.18c-3.12,2.641-6.84,4.74-10.92,4.74C564.683,618.832,560.603,615.592,560.603,609.713z M580.702,610.373v-9.48
		c-11.46,1.32-15.359,4.08-15.359,8.52c0,3.9,2.699,5.461,6,5.461C574.642,614.873,577.402,613.313,580.702,610.373z"/>
	<path fill="#FFFFFF" d="M591.322,585.654h5.101l6.419,18.838c0.96,3.18,2.04,6.48,3.06,9.541h0.24
		c1.02-3.061,2.1-6.361,3.061-9.541l6.42-18.838h4.799l-11.579,32.398h-5.7L591.322,585.654z"/>
	<path fill="#FFFFFF" d="M624.142,601.854c0-10.5,7.02-17.039,14.459-17.039c8.1,0,12.78,5.818,12.78,15.178
		c0,1.08-0.06,2.16-0.24,2.941h-22.14c0.301,7.199,4.621,11.998,11.1,11.998c3.181,0,5.82-1.02,8.221-2.639l1.799,3.24
		c-2.819,1.799-6.119,3.299-10.619,3.299C630.981,618.832,624.142,612.533,624.142,601.854z M647.062,599.334
		c0-6.9-3.121-10.561-8.4-10.561c-4.8,0-9.06,3.9-9.72,10.561H647.062z"/>
	<path fill="#FFFFFF" d="M672.501,606.232v-20.578h4.859v19.979c0,6.18,1.86,8.939,6.42,8.939c3.42,0,5.88-1.74,9.12-5.699v-23.219
		h4.859v32.398h-4.02l-0.42-5.16h-0.181c-3.06,3.539-6.299,5.939-10.799,5.939C675.562,618.832,672.501,614.512,672.501,606.232z"/>
	<path fill="#FFFFFF" d="M709.101,585.654h3.959l0.48,3.779h0.18c3-2.4,6.66-4.619,10.439-4.619c8.46,0,12.96,6.539,12.96,16.498
		c0,11.1-6.659,17.52-14.159,17.52c-3,0-6.061-1.379-9.12-3.779l0.12,5.699v11.221h-4.859V585.654z M732.019,601.373
		c0-7.32-2.52-12.42-8.999-12.42c-2.819,0-5.76,1.621-9.06,4.68v17.52c3.061,2.641,6.06,3.541,8.279,3.541
		C727.88,614.693,732.019,609.592,732.019,601.373z"/>
	<path fill="#FFFFFF" d="M744.021,614.992c0-2.4,1.68-3.959,3.66-3.959c2.039,0,3.72,1.559,3.72,3.959c0,2.279-1.681,3.84-3.72,3.84
		C745.7,618.832,744.021,617.271,744.021,614.992z"/>
	<path fill="#FFFFFF" d="M753.38,586.193c3.24-2.279,4.92-4.619,4.92-8.34c-0.18,0.061-0.359,0.061-0.6,0.061
		c-1.68,0-3.301-1.08-3.301-3.18c0-2.16,1.381-3.42,3.301-3.42c2.399,0,3.899,2.039,3.899,5.639c0,5.221-2.399,8.941-6.78,11.58
		L753.38,586.193z M764.54,586.193c3.299-2.279,4.979-4.619,4.979-8.34c-0.181,0.061-0.42,0.061-0.601,0.061
		c-1.739,0-3.299-1.08-3.299-3.18c0-2.16,1.379-3.42,3.299-3.42c2.461,0,3.9,2.039,3.9,5.639c0,5.221-2.4,8.941-6.779,11.58
		L764.54,586.193z"/>
</g>
<g>
	<g>
		<path fill="#737F8A" d="M32.9,2.975l-16.45,28.49L0,2.975H32.9z"/>
		<path fill="#737F8A" d="M45.22,30.065l-1.505-0.805c0.606-0.747,1.16-1.61,1.663-2.59c0.501-0.98,0.939-1.983,1.313-3.01
			c0.373-1.026,0.688-1.983,0.945-2.87l1.47,0.525c-0.28,0.91-0.607,1.902-0.98,2.975c-0.374,1.074-0.799,2.112-1.277,3.115
			C46.369,28.408,45.826,29.295,45.22,30.065z M71.12,1.575v15.26H47.005V1.575H71.12z M48.65,3.15v5.285h9.695V3.15H48.65z
			 M48.65,9.94v5.355h9.695V9.94H48.65z M56.104,29.365h7.7c0.63,0,1.097-0.111,1.4-0.333c0.303-0.221,0.519-0.676,0.647-1.365
			c0.128-0.688,0.216-1.733,0.263-3.133c0.233,0.164,0.501,0.304,0.805,0.42c0.303,0.117,0.571,0.199,0.805,0.245
			c-0.093,1.54-0.251,2.725-0.472,3.553c-0.222,0.828-0.59,1.4-1.103,1.715c-0.514,0.315-1.272,0.473-2.275,0.473h-7.77
			c-1.633,0-2.742-0.181-3.325-0.542c-0.583-0.362-0.875-1.091-0.875-2.188v-7.665h1.68v7.665c0,0.467,0.151,0.776,0.455,0.927
			S55.031,29.365,56.104,29.365z M63.735,23.1l-1.155,1.19c-0.537-0.513-1.225-1.085-2.065-1.715s-1.738-1.254-2.695-1.873
			c-0.957-0.618-1.89-1.16-2.8-1.627l1.12-1.05c0.91,0.467,1.843,0.992,2.8,1.575c0.956,0.583,1.86,1.179,2.712,1.785
			C62.504,21.992,63.198,22.563,63.735,23.1z M69.475,8.435V3.15h-9.52v5.285H69.475z M69.475,15.295V9.94h-9.52v5.355H69.475z
			 M67.9,20.93l1.505-0.63c0.7,0.887,1.394,1.855,2.083,2.905c0.688,1.05,1.307,2.077,1.855,3.08
			c0.548,1.003,0.962,1.902,1.243,2.695l-1.61,0.735c-0.28-0.793-0.683-1.703-1.208-2.73c-0.525-1.026-1.126-2.07-1.802-3.133
			C69.288,22.791,68.6,21.817,67.9,20.93z"/>
		<path fill="#737F8A" d="M85.26,13.405l-0.945,1.365c-0.42-0.396-0.963-0.828-1.628-1.295c-0.665-0.466-1.377-0.921-2.135-1.365
			c-0.758-0.443-1.511-0.828-2.257-1.155l0.98-1.19c0.723,0.304,1.464,0.671,2.222,1.103c0.758,0.432,1.47,0.864,2.135,1.295
			C84.297,12.594,84.84,13.008,85.26,13.405z M84.77,18.9l1.33,0.945c-0.513,1.213-1.08,2.497-1.697,3.85
			c-0.619,1.354-1.249,2.677-1.89,3.973c-0.642,1.295-1.254,2.467-1.837,3.517l-1.47-1.015c0.537-0.91,1.132-1.995,1.785-3.255
			c0.653-1.26,1.313-2.59,1.978-3.99S84.233,20.183,84.77,18.9z M86.905,4.375L85.89,5.74c-0.397-0.443-0.916-0.916-1.558-1.417
			c-0.642-0.501-1.336-0.992-2.083-1.47c-0.747-0.478-1.482-0.892-2.205-1.242l1.015-1.19c0.7,0.35,1.423,0.752,2.17,1.208
			s1.447,0.922,2.1,1.4C85.983,3.506,86.508,3.955,86.905,4.375z M108.255,19.285h-7.035v10.43c0,0.49-0.07,0.869-0.21,1.137
			s-0.409,0.461-0.805,0.578c-0.374,0.14-0.934,0.222-1.68,0.245c-0.747,0.023-1.727,0.023-2.94,0
			c-0.047-0.187-0.123-0.42-0.228-0.7c-0.105-0.28-0.205-0.537-0.298-0.77c0.957,0.023,1.791,0.035,2.502,0.035s1.184,0,1.417,0
			c0.42-0.023,0.63-0.198,0.63-0.525v-10.43h-6.72V7.56h5.845c0.187-0.653,0.373-1.376,0.56-2.17c0.187-0.793,0.326-1.516,0.42-2.17
			H90.37v7.945c0,1.494-0.052,3.115-0.157,4.865s-0.315,3.529-0.63,5.337c-0.315,1.809-0.782,3.57-1.4,5.285
			c-0.619,1.715-1.441,3.308-2.467,4.777c-0.14-0.117-0.356-0.269-0.647-0.455c-0.292-0.187-0.531-0.315-0.718-0.385
			c1.003-1.447,1.796-2.993,2.38-4.638c0.583-1.645,1.021-3.331,1.313-5.057c0.292-1.727,0.478-3.418,0.56-5.075
			c0.082-1.657,0.123-3.208,0.123-4.655v-9.52h21.07V3.22h-8.785l0.56,0.14c-0.21,0.677-0.42,1.389-0.63,2.135
			c-0.21,0.747-0.409,1.435-0.595,2.065h7.91V19.285z M94.5,21.56l1.575,0.42c-0.583,1.377-1.295,2.747-2.135,4.112
			c-0.84,1.365-1.704,2.526-2.59,3.482c-0.164-0.117-0.391-0.28-0.683-0.49c-0.292-0.21-0.542-0.362-0.752-0.455
			c0.933-0.933,1.797-2.024,2.59-3.272C93.298,24.109,93.963,22.843,94.5,21.56z M94.465,8.995v3.675h12.18V8.995H94.465z
			 M94.465,14.105v3.745h12.18v-3.745H94.465z M104.37,21.98l1.435-0.63c0.606,0.7,1.208,1.476,1.803,2.328
			c0.595,0.852,1.137,1.686,1.627,2.502c0.49,0.817,0.863,1.552,1.12,2.205l-1.54,0.735c-0.234-0.653-0.59-1.394-1.068-2.222
			c-0.479-0.828-1.009-1.674-1.592-2.538C105.571,23.497,104.976,22.703,104.37,21.98z"/>
		<path fill="#737F8A" d="M144.69,21.665v1.54h-30.905v-1.54h14.56v-3.99h-11.62v-1.47h11.62V12.6H117.39V1.435h23.45V12.6h-10.85
			v3.605h11.655v1.47H129.99v3.99H144.69z M115.5,31.85l-1.47-0.77c0.816-0.677,1.575-1.557,2.275-2.642
			c0.7-1.085,1.271-2.164,1.715-3.238l1.54,0.42c-0.443,1.074-1.015,2.188-1.715,3.343C117.145,30.117,116.363,31.08,115.5,31.85z
			 M119,11.095h9.345v-8.19H119V11.095z M121.66,4.48l1.225-0.455c0.56,0.863,1.085,1.797,1.575,2.8
			c0.49,1.003,0.816,1.867,0.98,2.59l-1.33,0.56c-0.164-0.746-0.479-1.633-0.945-2.66S122.196,5.343,121.66,4.48z M123.935,25.865
			l1.575-0.07c0.233,0.863,0.425,1.82,0.578,2.87c0.151,1.05,0.228,1.913,0.228,2.59L124.67,31.5c0-0.7-0.065-1.587-0.193-2.66
			C124.349,27.767,124.167,26.775,123.935,25.865z M139.16,11.095v-8.19h-9.17v8.19H139.16z M131.215,25.9l1.575-0.28
			c0.42,0.864,0.828,1.814,1.225,2.853c0.396,1.038,0.688,1.908,0.875,2.607l-1.645,0.42c-0.164-0.724-0.438-1.616-0.822-2.678
			C132.037,27.761,131.635,26.787,131.215,25.9z M133.245,10.43l-1.12-0.56c0.35-0.513,0.718-1.114,1.103-1.802
			c0.385-0.688,0.758-1.388,1.12-2.1c0.361-0.711,0.659-1.359,0.893-1.942l1.4,0.595c-0.514,0.98-1.073,2.007-1.68,3.08
			C134.353,8.773,133.781,9.683,133.245,10.43z M138.425,25.795l1.505-0.56c0.606,0.56,1.213,1.19,1.82,1.89
			c0.607,0.7,1.173,1.388,1.698,2.065c0.525,0.676,0.95,1.283,1.277,1.82l-1.54,0.7c-0.303-0.537-0.717-1.15-1.242-1.838
			c-0.525-0.688-1.091-1.388-1.698-2.1C139.638,27.061,139.031,26.402,138.425,25.795z"/>
		<path fill="#737F8A" d="M162.33,15.645h-1.435V12.25h-10.29v3.395h-1.4v-4.76h1.995V1.33h9.135v9.555h1.995V15.645z
			 M160.335,15.085V29.82c0,0.863-0.28,1.4-0.84,1.61c-0.327,0.117-0.788,0.187-1.382,0.21c-0.595,0.023-1.383,0.035-2.363,0.035
			c-0.023-0.187-0.093-0.409-0.21-0.665c-0.117-0.257-0.233-0.49-0.35-0.7c0.746,0.023,1.405,0.035,1.977,0.035
			s0.939-0.012,1.103-0.035c0.35,0,0.525-0.163,0.525-0.49v-4.41h-6.125v6.3h-1.505V15.085H160.335z M152.6,2.73v8.155h2.24v-5.39
			h4.025V2.73H152.6z M158.795,16.45h-6.125v3.045h6.125V16.45z M152.67,24.045h6.125v-3.15h-6.125V24.045z M158.865,10.885V6.79
			h-2.73v4.095H158.865z M174.055,29.505h6.09v1.4h-18.13v-1.4h5.81c-0.093-0.583-0.257-1.23-0.49-1.942
			c-0.234-0.712-0.514-1.359-0.84-1.943l1.33-0.42c0.35,0.607,0.653,1.29,0.91,2.047c0.256,0.759,0.431,1.417,0.525,1.978
			l-0.805,0.28h5.04l-0.7-0.28c0.28-0.583,0.577-1.26,0.892-2.03c0.315-0.77,0.554-1.446,0.718-2.03l1.47,0.525
			c-0.303,0.653-0.612,1.318-0.927,1.995C174.632,28.362,174.335,28.968,174.055,29.505z M179.97,15.225v1.4h-17.395v-1.4H179.97z
			 M178.535,3.395v9.765h-14.7V3.395h4.305V0h1.4v3.395h3.08V0h1.4v3.395H178.535z M177.765,24.955h-13.16v-6.3h13.16V24.955z
			 M165.235,4.725V7.56h3.045V4.725H165.235z M165.235,8.925v2.905h3.045V8.925H165.235z M166.11,19.95v3.71h10.115v-3.71H166.11z
			 M169.54,7.56h3.08V4.725h-3.08V7.56z M172.62,8.925h-3.08v2.905h3.08V8.925z M177.065,7.56V4.725h-3.185V7.56H177.065z
			 M177.065,11.83V8.925h-3.185v2.905H177.065z"/>
	</g>
</g>
<g>
	<g>
		<path fill="#6FCACA" d="M32.9,353.071l-16.45,28.49L0,353.071H32.9z"/>
		<path fill="#6FCACA" d="M54.32,352.722v22.33h-8.05v2.73h-1.645v-25.06H54.32z M52.745,354.296H46.27v8.61h6.475V354.296z
			 M46.27,373.477h6.475v-9.03H46.27V373.477z M55.86,351.847h17.815c0,0.42-0.012,0.7-0.035,0.84
			c-0.14,2.59-0.292,4.672-0.455,6.248c-0.164,1.575-0.344,2.771-0.542,3.587c-0.198,0.817-0.449,1.389-0.752,1.715
			c-0.49,0.49-1.144,0.747-1.96,0.77c-0.374,0.023-0.91,0.03-1.61,0.018c-0.7-0.011-1.447-0.041-2.24-0.087
			c-0.023-0.256-0.07-0.525-0.14-0.805c-0.07-0.28-0.187-0.536-0.35-0.77c0.84,0.07,1.615,0.117,2.327,0.14
			c0.712,0.023,1.196,0.035,1.453,0.035c0.537,0,0.921-0.117,1.155-0.35c0.21-0.233,0.396-0.7,0.56-1.4
			c0.163-0.7,0.32-1.727,0.472-3.08c0.151-1.353,0.286-3.115,0.403-5.285h-7.805c-0.28,1.75-0.718,3.418-1.313,5.005
			c-0.595,1.587-1.441,3.022-2.538,4.305c-1.097,1.284-2.555,2.345-4.375,3.185c-0.117-0.187-0.28-0.402-0.49-0.647
			c-0.21-0.245-0.409-0.438-0.595-0.578c1.727-0.747,3.103-1.703,4.13-2.87c1.026-1.167,1.808-2.473,2.345-3.92
			c0.537-1.446,0.921-2.94,1.155-4.48H55.86V351.847z M57.05,381.771v-14.07h16.205v13.93H71.61v-1.68H58.66v1.82H57.05z
			 M71.61,369.276H58.66v9.1h12.95V369.276z"/>
		<path fill="#6FCACA" d="M85.26,363.501l-0.945,1.365c-0.42-0.396-0.963-0.828-1.628-1.295c-0.665-0.466-1.377-0.921-2.135-1.365
			c-0.758-0.443-1.511-0.828-2.257-1.155l0.98-1.19c0.723,0.304,1.464,0.671,2.222,1.103c0.758,0.432,1.47,0.864,2.135,1.295
			C84.297,362.691,84.84,363.105,85.26,363.501z M84.77,368.997l1.33,0.945c-0.513,1.213-1.08,2.497-1.697,3.85
			c-0.619,1.354-1.249,2.677-1.89,3.973c-0.642,1.295-1.254,2.467-1.837,3.517l-1.47-1.015c0.537-0.91,1.132-1.995,1.785-3.255
			c0.653-1.26,1.313-2.59,1.978-3.99S84.233,370.28,84.77,368.997z M86.905,354.472l-1.015,1.365
			c-0.397-0.443-0.916-0.916-1.558-1.417c-0.642-0.501-1.336-0.992-2.083-1.47c-0.747-0.478-1.482-0.892-2.205-1.242l1.015-1.19
			c0.7,0.35,1.423,0.752,2.17,1.208s1.447,0.922,2.1,1.4C85.983,353.603,86.508,354.051,86.905,354.472z M108.255,369.381h-7.035
			v10.43c0,0.49-0.07,0.869-0.21,1.137s-0.409,0.461-0.805,0.578c-0.374,0.14-0.934,0.222-1.68,0.245
			c-0.747,0.023-1.727,0.023-2.94,0c-0.047-0.187-0.123-0.42-0.228-0.7c-0.105-0.28-0.205-0.537-0.298-0.77
			c0.957,0.023,1.791,0.035,2.502,0.035s1.184,0,1.417,0c0.42-0.023,0.63-0.198,0.63-0.525v-10.43h-6.72v-11.725h5.845
			c0.187-0.653,0.373-1.376,0.56-2.17c0.187-0.793,0.326-1.516,0.42-2.17H90.37v7.945c0,1.494-0.052,3.115-0.157,4.865
			s-0.315,3.529-0.63,5.337c-0.315,1.809-0.782,3.57-1.4,5.285c-0.619,1.715-1.441,3.308-2.467,4.777
			c-0.14-0.117-0.356-0.269-0.647-0.455c-0.292-0.187-0.531-0.315-0.718-0.385c1.003-1.447,1.796-2.993,2.38-4.638
			c0.583-1.645,1.021-3.331,1.313-5.057c0.292-1.727,0.478-3.418,0.56-5.075c0.082-1.657,0.123-3.208,0.123-4.655v-9.52h21.07v1.575
			h-8.785l0.56,0.14c-0.21,0.677-0.42,1.389-0.63,2.135c-0.21,0.747-0.409,1.435-0.595,2.065h7.91V369.381z M94.5,371.656
			l1.575,0.42c-0.583,1.377-1.295,2.747-2.135,4.112c-0.84,1.365-1.704,2.526-2.59,3.482c-0.164-0.117-0.391-0.28-0.683-0.49
			c-0.292-0.21-0.542-0.362-0.752-0.455c0.933-0.933,1.797-2.024,2.59-3.272C93.298,374.206,93.963,372.94,94.5,371.656z
			 M94.465,359.091v3.675h12.18v-3.675H94.465z M94.465,364.202v3.745h12.18v-3.745H94.465z M104.37,372.077l1.435-0.63
			c0.606,0.7,1.208,1.476,1.803,2.328c0.595,0.852,1.137,1.686,1.627,2.502c0.49,0.817,0.863,1.552,1.12,2.205l-1.54,0.735
			c-0.234-0.653-0.59-1.394-1.068-2.222c-0.479-0.828-1.009-1.674-1.592-2.538C105.571,373.593,104.976,372.8,104.37,372.077z"/>
		<path fill="#6FCACA" d="M144.69,371.761v1.54h-30.905v-1.54h14.56v-3.99h-11.62v-1.47h11.62v-3.605H117.39v-11.165h23.45v11.165
			h-10.85v3.605h11.655v1.47H129.99v3.99H144.69z M115.5,381.946l-1.47-0.77c0.816-0.677,1.575-1.557,2.275-2.642
			c0.7-1.085,1.271-2.164,1.715-3.238l1.54,0.42c-0.443,1.074-1.015,2.188-1.715,3.343
			C117.145,380.214,116.363,381.176,115.5,381.946z M119,361.191h9.345v-8.19H119V361.191z M121.66,354.577l1.225-0.455
			c0.56,0.863,1.085,1.797,1.575,2.8c0.49,1.003,0.816,1.867,0.98,2.59l-1.33,0.56c-0.164-0.746-0.479-1.633-0.945-2.66
			S122.196,355.44,121.66,354.577z M123.935,375.961l1.575-0.07c0.233,0.863,0.425,1.82,0.578,2.87
			c0.151,1.05,0.228,1.913,0.228,2.59l-1.645,0.245c0-0.7-0.065-1.587-0.193-2.66C124.349,377.863,124.167,376.872,123.935,375.961z
			 M139.16,361.191v-8.19h-9.17v8.19H139.16z M131.215,375.997l1.575-0.28c0.42,0.864,0.828,1.814,1.225,2.853
			c0.396,1.038,0.688,1.908,0.875,2.607l-1.645,0.42c-0.164-0.724-0.438-1.616-0.822-2.678
			C132.037,377.857,131.635,376.883,131.215,375.997z M133.245,360.526l-1.12-0.56c0.35-0.513,0.718-1.114,1.103-1.802
			c0.385-0.688,0.758-1.388,1.12-2.1c0.361-0.711,0.659-1.359,0.893-1.942l1.4,0.595c-0.514,0.98-1.073,2.007-1.68,3.08
			C134.353,358.87,133.781,359.78,133.245,360.526z M138.425,375.892l1.505-0.56c0.606,0.56,1.213,1.19,1.82,1.89
			c0.607,0.7,1.173,1.388,1.698,2.065c0.525,0.676,0.95,1.283,1.277,1.82l-1.54,0.7c-0.303-0.537-0.717-1.15-1.242-1.838
			c-0.525-0.688-1.091-1.388-1.698-2.1C139.638,377.158,139.031,376.499,138.425,375.892z"/>
		<path fill="#6FCACA" d="M162.33,365.742h-1.435v-3.395h-10.29v3.395h-1.4v-4.76h1.995v-9.555h9.135v9.555h1.995V365.742z
			 M160.335,365.182v14.735c0,0.863-0.28,1.4-0.84,1.61c-0.327,0.117-0.788,0.187-1.382,0.21c-0.595,0.023-1.383,0.035-2.363,0.035
			c-0.023-0.187-0.093-0.409-0.21-0.665c-0.117-0.257-0.233-0.49-0.35-0.7c0.746,0.023,1.405,0.035,1.977,0.035
			s0.939-0.012,1.103-0.035c0.35,0,0.525-0.163,0.525-0.49v-4.41h-6.125v6.3h-1.505v-16.625H160.335z M152.6,352.827v8.155h2.24
			v-5.39h4.025v-2.765H152.6z M158.795,366.546h-6.125v3.045h6.125V366.546z M152.67,374.142h6.125v-3.15h-6.125V374.142z
			 M158.865,360.981v-4.095h-2.73v4.095H158.865z M174.055,379.602h6.09v1.4h-18.13v-1.4h5.81c-0.093-0.583-0.257-1.23-0.49-1.942
			c-0.234-0.712-0.514-1.359-0.84-1.943l1.33-0.42c0.35,0.607,0.653,1.29,0.91,2.047c0.256,0.759,0.431,1.417,0.525,1.978
			l-0.805,0.28h5.04l-0.7-0.28c0.28-0.583,0.577-1.26,0.892-2.03c0.315-0.77,0.554-1.446,0.718-2.03l1.47,0.525
			c-0.303,0.653-0.612,1.318-0.927,1.995C174.632,378.458,174.335,379.065,174.055,379.602z M179.97,365.321v1.4h-17.395v-1.4
			H179.97z M178.535,353.492v9.765h-14.7v-9.765h4.305v-3.395h1.4v3.395h3.08v-3.395h1.4v3.395H178.535z M177.765,375.051h-13.16
			v-6.3h13.16V375.051z M165.235,354.821v2.835h3.045v-2.835H165.235z M165.235,359.021v2.905h3.045v-2.905H165.235z
			 M166.11,370.046v3.71h10.115v-3.71H166.11z M169.54,357.656h3.08v-2.835h-3.08V357.656z M172.62,359.021h-3.08v2.905h3.08
			V359.021z M177.065,357.656v-2.835h-3.185v2.835H177.065z M177.065,361.926v-2.905h-3.185v2.905H177.065z"/>
	</g>
</g>
<g>
</g>
<g>
</g>
<g>
</g>
<g>
</g>
<g>
</g>
<g>
</g>
</svg>
