<?xml version="1.0" encoding="utf-8"?>
<!-- Generator: Adobe Illustrator 16.0.0, SVG Export Plug-In . SVG Version: 6.00 Build 0)  -->
<!DOCTYPE svg PUBLIC "-//W3C//DTD SVG 1.1//EN" "http://www.w3.org/Graphics/SVG/1.1/DTD/svg11.dtd">
<svg version="1.1" id="Layer_1" xmlns="http://www.w3.org/2000/svg" xmlns:xlink="http://www.w3.org/1999/xlink" x="0px" y="0px"
	 width="1058.141px" height="731.364px" viewBox="0 0 1058.141 731.364" enable-background="new 0 0 1058.141 731.364"
	 xml:space="preserve">
<g>
	<path fill="#FFFFFF" d="M70.774,124.44v4.939H3.358v-4.939h31.085v-20.065H11.567V99.51h22.877V82.333H16.127
		c-2.356,4.94-5.168,9.196-8.056,12.692c-0.988-0.836-3.268-2.356-4.561-3.04c6.309-6.765,11.173-17.253,14.137-28.121l5.017,1.063
		c-1.216,4.257-2.66,8.513-4.333,12.465h16.113v-14.82h5.245v14.82h27.513v4.94H39.688V99.51h24.777v4.864H39.688v20.065H70.774z"/>
	<path fill="#FFFFFF" d="M95.124,96.014c-3.116-2.128-9.272-5.7-13.909-8.209l2.736-3.647c4.484,2.28,10.792,5.624,14.061,7.752
		L95.124,96.014z M83.116,127.328c4.028-5.776,10.032-15.885,14.365-24.474l3.724,3.345c-4.028,7.98-9.425,17.557-13.909,24.549
		L83.116,127.328z M99.076,75.417c-3.192-2.204-9.424-5.852-14.212-8.36l2.812-3.572c4.712,2.28,11.097,5.701,14.289,7.905
		L99.076,75.417z M128.946,89.553v13.073h15.961v28.653h-4.864v-2.813h-27.817v3.269h-4.636v-29.109h16.493V89.553h-22.117V84.69
		h22.117V71.769c-5.7,0.836-11.552,1.596-17.025,2.128c-0.228-1.292-0.912-3.192-1.444-4.332c13.148-1.444,28.729-3.725,37.09-6.688
		l4.028,3.952c-4.94,1.596-11.173,3.04-17.785,4.18V84.69h21.129v4.863H128.946z M140.042,107.262h-27.817v16.569h27.817V107.262z"
		/>
	<path fill="#FFFFFF" d="M182.406,107.491c-0.304-1.216-0.608-2.66-1.064-4.256c-16.113,2.964-18.317,3.496-19.609,4.332
		c-0.304-0.912-0.988-3.192-1.596-4.408c1.521-0.305,3.269-2.28,5.396-5.093c1.216-1.443,3.8-5.016,6.688-9.576
		c-8.36,1.063-10.033,1.52-11.021,2.052c-0.228-1.063-0.988-3.344-1.444-4.484c1.14-0.304,2.356-1.976,3.724-4.256
		c1.52-2.28,6.384-11.021,9.044-19.229l4.484,1.823c-2.964,7.373-6.84,14.974-10.716,20.749l8.512-0.836
		c1.9-3.268,3.876-6.764,5.472-10.26l4.18,2.128c-4.864,9.196-10.716,18.241-16.797,25.461l12.541-2.128
		c-0.76-2.356-1.596-4.788-2.432-6.841l3.648-0.987c2.052,4.712,4.104,10.868,4.94,14.517L182.406,107.491z M168.193,111.67
		c-0.988,6.385-2.736,13.529-4.484,18.165c-0.76-0.456-2.736-1.063-3.724-1.368c1.976-4.712,3.42-11.477,4.256-17.557
		L168.193,111.67z M174.882,110.834c0.836,5.169,1.748,11.781,2.052,16.189l-3.876,0.836c-0.152-4.408-0.988-11.097-1.9-16.265
		L174.882,110.834z M181.57,109.239c1.444,4.104,3.268,9.576,3.952,13.072l-3.648,1.141c-0.684-3.496-2.432-9.045-3.8-13.225
		L181.57,109.239z M185.826,124.896c2.584-3.648,4.256-9.957,5.245-14.897l3.8,1.368c-1.064,5.093-2.66,11.629-5.244,15.581
		L185.826,124.896z M225.424,104.451H190.69V69.109h11.629c0.912-2.204,1.9-5.017,2.432-6.917l4.788,1.064
		c-0.912,1.977-1.9,4.028-2.888,5.853h18.773V104.451z M221.092,73.365h-26.222v26.829h26.222V73.365z M204.751,81.042
		c-1.52,2.355-3.648,4.712-6.081,6.764c-0.684-0.836-1.9-1.672-2.736-2.204c4.104-3.191,6.992-7.448,8.436-11.096l3.648,0.531
		c-0.38,0.988-0.836,1.977-1.368,3.04h9.425l0.684-0.228l2.356,0.988c-1.444,4.332-3.724,7.98-6.46,11.097
		c2.356,1.824,4.408,3.647,5.776,5.092l-2.584,2.433c-1.292-1.521-3.344-3.269-5.548-5.169c-3.269,2.889-7.068,5.093-10.945,6.537
		c-0.456-0.685-1.444-2.053-2.28-2.736c3.648-1.292,7.296-3.269,10.489-5.929c-1.748-1.292-3.572-2.584-5.168-3.496l2.432-2.204
		c1.672,0.988,3.344,2.204,5.092,3.344c1.824-1.976,3.42-4.256,4.561-6.764H204.751z M214.252,125.808
		c2.356,0,2.736-0.837,2.964-7.677c0.988,0.836,2.813,1.52,4.104,1.824c-0.532,8.132-1.9,10.108-6.537,10.108h-10.185
		c-5.7,0-7.144-1.292-7.144-6.156v-14.061h4.408v13.984c0,1.672,0.456,1.977,3.192,1.977H214.252z M207.184,105.439
		c3.268,3.04,6.612,7.524,7.98,10.641l-3.876,1.672c-1.292-3.04-4.56-7.524-7.752-10.793L207.184,105.439z M220.864,108.327
		c3.648,4.561,7.068,10.793,8.36,15.049l-3.8,1.9c-1.292-4.257-4.636-10.564-8.132-15.277L220.864,108.327z"/>
	<path fill="#FFFFFF" d="M276.376,124.971c2.888,0.305,6.004,0.456,9.349,0.456c2.66,0.076,18.697,0,22.269-0.075
		c-0.684,1.216-1.52,3.42-1.824,4.864h-20.597c-15.581,0-25.233-2.433-31.313-13.149c-2.964,6.156-6.992,11.021-12.009,14.821
		c-0.76-0.912-2.736-2.813-3.876-3.572c7.98-5.244,12.92-13.833,14.973-25.157l5.017,0.76c-0.532,2.736-1.14,5.244-1.9,7.677
		c2.964,7.144,7.98,10.792,14.821,12.464v-23.484H239.97v-4.561h66.731v4.561h-30.326v8.968h25.385v4.561h-25.385V124.971z
		 M298.189,90.542h-50.163V65.764h50.163V90.542z M293.097,69.716h-40.13v6.537h40.13V69.716z M293.097,79.977h-40.13v6.688h40.13
		V79.977z"/>
	<path fill="#FFFFFF" d="M341.009,79.673h-23.637v-4.181h23.637V79.673z M338.957,127.328h-14.973v3.648h-3.876V105.59h18.849
		V127.328z M320.488,85.297h18.469v4.104h-18.469V85.297z M320.488,95.406h18.469v4.104h-18.469V95.406z M323.984,109.771v13.452
		h11.021v-13.452H323.984z M329.076,74.505c-0.608-2.736-2.356-6.993-4.256-10.185l3.724-1.217c1.976,3.192,3.8,7.297,4.408,9.957
		L329.076,74.505z M385.091,115.927c-2.813,2.052-6.385,4.028-9.5,5.548c3.192,2.813,7.22,5.017,11.78,6.232
		c-0.988,0.988-2.28,2.584-2.888,3.725c-9.576-3.116-16.493-10.033-20.217-19.306h-1.064c-1.976,1.9-4.484,3.648-7.145,5.245v8.284
		l11.781-2.356c-0.076,1.216,0,3.04,0.152,3.952c-13.453,3.116-15.429,3.725-16.645,4.484c-0.38-0.988-1.52-2.736-2.28-3.42
		c1.064-0.76,2.888-2.508,2.888-5.853V119.5c-2.888,1.444-5.928,2.584-8.74,3.572c-0.532-0.836-1.9-2.584-2.736-3.345
		c6.081-1.748,12.541-4.332,17.101-7.601h-15.961v-3.8h11.781v-4.408h-7.98v-3.496h7.98V96.09h-9.349v-3.572h9.349v-4.257h-7.829
		V75.645h16.645v12.616h-4.18v4.257h11.933v-4.257h-3.496V75.645h16.873v12.616h-8.74v4.257h10.413v3.572h-10.413v4.332h8.816v3.496
		h-8.816v4.408h12.009v3.8h-18.089c1.216,2.433,2.736,4.713,4.408,6.688c3.268-1.596,6.992-3.876,9.348-5.472L385.091,115.927z
		 M385.927,72.376h-43.322v-3.952h19.837c-0.684-1.748-1.596-3.572-2.432-5.092l4.104-1.292c1.216,1.899,2.584,4.408,3.344,6.384
		h18.469V72.376z M349.521,85.07h8.589v-6.232h-8.589V85.07z M358.034,100.422h11.933V96.09h-11.933V100.422z M358.034,108.327
		h11.933v-4.408h-11.933V108.327z M370.422,85.07h8.816v-6.232h-8.816V85.07z"/>
	<path fill="#FFFFFF" d="M460.592,95.406c-3.42,6.461-7.98,12.617-13.3,18.089c2.888,8.437,6.536,13.453,10.64,13.453
		c2.128,0,3.116-3.952,3.572-13.757c1.064,0.988,2.888,2.128,4.256,2.66c-0.912,12.465-2.812,16.188-8.285,16.188
		c-6.08,0-10.792-5.548-14.289-14.593c-5.016,4.408-10.641,8.361-16.341,11.477c-0.836-1.292-2.356-2.964-3.572-4.027
		c6.46-3.192,12.693-7.524,18.165-12.617c-1.824-6.384-3.268-13.984-4.256-22.421h-18.317v12.845
		c4.56-0.988,9.197-2.053,13.833-3.116l0.38,4.561l-14.213,3.344v17.557c0,3.496-0.912,5.017-3.116,5.853
		c-2.356,0.836-6.308,1.064-12.541,0.988c-0.228-1.444-1.14-3.648-1.9-5.093c4.94,0.152,9.425,0.076,10.717,0
		c1.368,0,1.824-0.38,1.824-1.748v-16.341c-5.853,1.444-11.477,2.66-16.113,3.725l-1.444-5.093
		c4.636-0.836,10.869-2.128,17.557-3.647V89.858h-16.569V85.07h16.569V72.225c-4.864,0.987-9.729,1.824-14.365,2.508
		c-0.228-1.216-0.988-2.964-1.596-4.181c10.564-1.672,22.953-4.332,30.021-6.992l3.648,4.181c-3.648,1.216-7.98,2.432-12.693,3.496
		V85.07h17.785c-0.608-6.917-0.988-14.365-1.064-21.89h5.245c0,7.753,0.304,15.049,0.988,21.89h22.573v4.788h-22.041
		c0.836,6.84,1.9,12.921,3.268,18.241c4.256-4.561,7.829-9.425,10.489-14.593L460.592,95.406z M458.312,80.206
		c-2.432-3.572-7.601-9.045-12.161-12.997l3.876-2.584c4.484,3.724,9.805,9.12,12.389,12.616L458.312,80.206z"/>
	<path fill="#FFFFFF" d="M494.367,64.245c-1.672,5.016-3.648,10.108-5.928,14.896v52.595h-4.864V88.261
		c-2.356,4.028-4.94,7.753-7.601,10.869c-0.456-1.141-1.824-3.801-2.736-5.017c6.688-7.676,12.769-19.305,16.493-31.161
		L494.367,64.245z M515.952,94.19h-15.429v37.394h-4.712V66.981h20.141V94.19z M500.523,71.084v7.373h11.325v-7.373H500.523z
		 M511.848,90.085v-7.752h-11.325v7.752H511.848z M541.717,124.896c0,3.496-0.836,5.092-3.268,5.928
		c-2.434,0.836-6.842,0.912-13.985,0.912c-0.304-1.368-1.14-3.572-1.9-4.94c5.625,0.229,10.868,0.152,12.313,0.076
		c1.52,0,2.051-0.456,2.051-2.052V94.19H520.74V66.981h20.977V124.896z M524.92,71.084v7.373h12.008v-7.373H524.92z M536.928,90.085
		v-7.752H524.92v7.752H536.928z"/>
	<path fill="#FFFFFF" d="M571.768,99.663c-0.912,6.232-2.355,11.704-4.104,16.341c4.939,8.816,14.82,10.108,29.641,10.185
		c7.904,0,18.697-0.305,26.298-0.988c-0.761,1.14-1.444,3.42-1.673,4.788c-6.992,0.38-16.492,0.532-24.701,0.532
		c-15.809,0-25.461-1.597-31.465-10.413c-2.508,5.017-5.549,8.893-9.121,11.705c-0.76-0.988-2.355-2.813-3.42-3.42
		c6.461-4.788,11.248-13.453,13.377-25.386h-7.068c-1.748,0-3.725,0.532-4.332,1.064c-0.381-1.217-1.369-3.725-1.9-4.789
		c1.064-0.38,2.204-0.836,3.496-2.204c1.672-1.823,6.08-8.132,9.121-12.844h-11.705v-4.181h14.668l0.988-0.456l3.496,1.521
		c-2.964,4.56-8.512,12.616-12.54,17.709h7.677l0.912-0.076L571.768,99.663z M565.917,76.937c-1.749-3.192-5.701-8.437-8.817-12.236
		l3.8-2.128c3.345,3.724,7.221,8.664,9.045,11.78L565.917,76.937z M582.029,85.83c-0.228,9.881-1.444,23.105-6.46,32.909
		c-0.836-0.836-2.889-2.204-3.877-2.659c5.244-10.185,5.853-23.941,5.853-33.366V70.172h17.86c-0.836-2.204-1.899-4.864-2.963-6.916
		l4.636-1.292c1.292,2.584,2.888,5.928,3.8,8.208h18.165V85.83H582.029z M582.029,74.049v7.904h32.302v-7.904H582.029z
		 M619.803,117.599c0,2.052-0.305,3.116-1.748,3.8c-1.293,0.685-3.27,0.761-6.309,0.761c-0.152-1.141-0.685-2.66-1.217-3.801
		c1.977,0.076,3.648,0.076,4.256,0.076c0.533-0.076,0.761-0.228,0.761-0.836v-9.881h-7.448v12.389h-3.725v-12.389h-7.221v12.389
		h-3.724v-12.389h-6.917v14.289h-4.256V91.454h37.547V117.599z M593.429,103.842v-8.437h-6.917v8.437H593.429z M604.374,103.842
		v-8.437h-7.221v8.437H604.374z M615.546,103.842v-8.437h-7.448v8.437H615.546z"/>
	<path fill="#FFFFFF" d="M659.658,96.85v-6.841h-21.509v6.841h-3.953V86.209h4.332V65.233h20.826v20.977h4.408V96.85H659.658z
		 M659.278,126.872c0,2.204-0.456,3.42-1.977,4.104c-1.596,0.684-4.027,0.76-8.133,0.76c-0.228-1.14-0.836-2.813-1.443-3.952
		c2.889,0.076,5.32,0.076,6.08,0s0.988-0.304,0.988-0.988v-8.437h-11.933v13.377h-4.333V95.33h20.75V126.872z M642.481,86.209h4.18
		v-11.78h8.589v-5.244h-12.769V86.209z M642.861,99.054v5.853h11.933v-5.853H642.861z M654.793,114.559v-6.004h-11.933v6.004
		H654.793z M655.25,77.773h-5.245v8.437h5.245V77.773z M701.917,126.339v3.952h-39.143v-3.952h11.933
		c-0.532-2.355-1.597-5.472-2.888-7.828l3.647-1.216c1.597,2.584,2.888,6.232,3.345,8.664l-1.064,0.38h8.74l-0.836-0.304
		c1.292-2.432,2.813-6.309,3.572-8.893l4.256,1.292c-1.367,2.736-2.736,5.624-3.951,7.904H701.917z M701.383,99.207h-37.317v-3.801
		h37.317V99.207z M698.647,91.377h-32.148V69.641h9.12v-7.068h3.876v7.068h5.776v-7.068h3.876v7.068h9.5V91.377z M668.094,116.991
		v-13.908h29.109v13.908H668.094z M670.526,78.761h5.701v-5.549h-5.701V78.761z M670.526,87.73h5.701v-5.473h-5.701V87.73z
		 M672.35,113.495h20.369v-6.992H672.35V113.495z M685.271,78.761v-5.549h-5.776v5.549H685.271z M679.495,82.257v5.473h5.776v-5.473
		H679.495z M694.543,73.212h-6.004v5.549h6.004V73.212z M694.543,82.257h-6.004v5.473h6.004V82.257z"/>
	<path fill="#FFFFFF" d="M714.79,87.122c-0.455,0.684-0.912,1.368-1.443,2.052c-0.608-0.987-2.053-2.279-3.041-2.812
		c5.473-7.221,8.893-16.646,10.641-23.714l4.181,0.608c-0.532,1.824-1.063,3.8-1.748,5.776h7.524l0.836-0.229l2.813,1.9
		c-1.293,3.572-2.965,7.601-4.637,10.869h6.916v29.186H714.79V87.122z M710.914,130.292c1.976-4.18,3.648-11.172,4.484-16.036
		l3.269,1.063c-0.912,5.017-2.356,12.161-4.332,16.417L710.914,130.292z M721.858,73.137c-0.988,2.812-2.279,5.7-3.8,8.437h7.753
		c1.063-2.356,2.279-5.625,3.191-8.437H721.858z M724.214,94.114v-8.36h-5.7v8.36H724.214z M718.514,98.142v8.437h5.7v-8.437
		H718.514z M723.987,115.091c0.684,4.408,1.14,10.032,1.14,13.757l-3.496,0.456c0-3.801-0.38-9.425-0.912-13.833L723.987,115.091z
		 M729.838,114.255c1.293,3.952,2.736,9.12,3.345,12.464l-3.345,0.912c-0.607-3.42-2.052-8.664-3.268-12.692L729.838,114.255z
		 M732.956,85.753h-5.245v8.36h5.245V85.753z M732.956,98.142h-5.245v8.437h5.245V98.142z M735.691,112.887
		c1.748,3.268,3.648,7.524,4.561,10.185l-3.269,1.292c-0.836-2.813-2.66-7.145-4.332-10.413L735.691,112.887z M756.668,100.422
		l2.508,0.912c-2.813,14.973-9.957,25.31-18.393,30.554c-0.608-0.988-1.748-2.509-2.66-3.269c3.876-2.204,7.447-5.776,10.412-10.412
		c-1.596-1.977-3.876-4.484-5.928-6.612c-0.988,1.292-1.977,2.508-3.041,3.572c-0.607-0.685-2.203-2.129-3.04-2.813
		c4.408-4.408,7.98-10.868,9.881-17.861l3.952,0.761c-0.532,1.823-1.141,3.647-1.824,5.396h7.221L756.668,100.422z M757.581,83.017
		c-4.713,5.093-11.249,9.652-16.949,12.313c-0.684-0.987-1.977-2.584-3.04-3.344c5.929-2.356,12.921-6.841,17.405-11.705h-15.506
		v-4.18h18.09V62.497h4.408v13.604h17.785v4.18h-15.201c5.852,3.421,12.389,7.677,15.885,10.793l-2.584,3.192
		c-3.572-3.116-9.957-7.601-15.885-11.173V96.09h-4.408V83.017z M749.448,75.341c-1.292-2.509-3.952-6.461-6.309-9.425l3.648-1.9
		c2.28,2.889,5.016,6.765,6.309,9.045L749.448,75.341z M746.788,104.678c-0.684,1.292-1.292,2.509-2.053,3.725
		c1.977,1.9,4.333,4.256,5.929,6.156c1.597-2.964,2.813-6.309,3.725-9.881H746.788z M774.833,116.155h5.549v4.104h-5.549v11.553
		h-3.951v-11.553h-11.173c0.911-4.18,1.976-10.488,2.735-15.809h-1.899v-3.801h10.337v-5.928h3.951v5.928h4.713v3.801h-4.713
		V116.155z M770.881,116.155v-11.704h-4.713c-0.531,3.8-1.292,8.132-1.9,11.704H770.881z M777.19,65.537
		c-2.509,3.496-5.473,7.372-7.829,9.956l-3.192-1.672c2.28-2.736,5.32-7.145,6.84-10.185L777.19,65.537z"/>
	<path fill="#FFFFFF" d="M811.952,64.168c-2.128,5.624-4.788,11.173-7.828,16.341v51.074h-4.864V88.11
		c-2.584,3.724-5.32,7.145-8.132,10.032c-0.533-1.14-1.977-3.8-2.965-4.864c7.601-7.372,14.744-18.772,19.077-30.478L811.952,64.168
		z M826.848,104.451c-1.063,1.596-2.203,3.192-3.496,4.712h33.975c0,0-0.076,1.444-0.229,2.128
		c-1.216,12.085-2.584,16.873-4.561,18.85c-1.14,1.063-2.355,1.52-4.18,1.596c-1.444,0.076-4.18,0.076-6.992-0.152
		c-0.076-1.14-0.532-2.888-1.217-4.027c2.889,0.304,5.396,0.304,6.461,0.304s1.748-0.076,2.204-0.608
		c1.368-1.292,2.584-5.168,3.647-14.288h-6.916c-3.191,7.904-8.512,14.668-14.364,19.229c-0.761-0.684-2.433-2.052-3.421-2.736
		c5.473-3.876,10.262-9.729,13.149-16.492h-8.437c-4.028,7.296-10.337,13.681-16.721,18.013c-0.685-0.76-2.28-2.356-3.345-3.04
		c5.929-3.572,11.629-8.893,15.353-14.973h-7.904c-2.888,2.888-6.08,5.396-9.12,7.448c-0.608-0.761-2.28-2.356-3.192-3.116
		c5.32-3.192,10.641-7.829,14.213-12.845H808.76v-3.952h50.922v3.952H826.848z M820.768,73.137
		c-2.508,4.483-5.396,8.588-8.208,11.628c-0.912-0.76-2.736-2.204-3.952-2.888c5.016-4.864,9.424-12.161,12.16-19.381l4.561,1.216
		c-0.684,1.824-1.52,3.648-2.432,5.396h34.81v4.028H820.768z M818.413,96.546V77.317h33.974v19.229H818.413z M823.048,85.297h24.474
		v-4.636h-24.474V85.297z M823.048,93.202h24.474v-4.788h-24.474V93.202z"/>
	<path fill="#FFFFFF" d="M876.661,107.718c5.929-2.508,9.197-6.156,9.577-11.628c-0.456,0.151-0.988,0.151-1.444,0.151
		c-2.964,0-5.396-1.672-5.396-5.168c0-3.42,2.584-5.168,5.473-5.168c4.028,0,6.156,3.268,6.156,8.437
		c0,8.132-5.092,14.213-12.769,17.024L876.661,107.718z"/>
	<path fill="#FFFFFF" d="M932.631,64.321c-2.205,5.7-4.941,11.248-7.98,16.416v50.923h-4.941V88.337
		c-2.584,3.648-5.396,7.068-8.209,9.957c-0.531-1.217-1.975-3.801-2.963-5.017c7.6-7.372,14.896-18.772,19.305-30.478
		L932.631,64.321z M979.374,123.908v4.788h-49.859v-4.788H979.374z M972.76,113.723h-36.633V68.044h36.633V113.723z M967.44,72.833
		h-26.145v15.505h26.145V72.833z M967.44,93.05h-26.145v15.96h26.145V93.05z"/>
	<path fill="#FFFFFF" d="M1012.54,118.967c5.32-0.988,10.793-1.9,16.113-2.964l0.303,4.408c-13.451,2.66-27.893,5.472-37.85,7.296
		l-1.064-4.712c4.713-0.836,10.869-1.9,17.635-3.116v-13.225h-14.975v-4.561h14.975v-8.437h4.863v8.437h15.43v4.561h-15.43V118.967z
		 M990.651,67.665h38.762v4.484h-20.598c-2.736,5.32-5.928,10.564-9.195,14.82l20.52-1.824c-1.975-2.735-4.027-5.472-5.928-7.828
		l3.648-2.204c4.256,5.093,9.348,12.009,11.553,16.265l-3.801,2.509c-0.684-1.368-1.672-3.04-2.887-4.864
		c-24.094,2.432-26.83,2.736-28.502,3.496c-0.305-1.064-1.064-3.496-1.748-4.788c1.215-0.229,2.355-1.597,3.648-3.345
		c1.215-1.596,4.559-6.612,7.068-12.236h-12.541V67.665z M1038.61,114.711h-4.713V69.033h4.713V114.711z M1053.809,63.865v59.511
		c0,3.344-0.836,4.864-2.963,5.7c-2.281,0.836-6.232,0.988-11.629,0.988c-0.305-1.368-1.141-3.648-1.977-5.093
		c4.561,0.152,8.74,0.152,10.033,0.076c1.291-0.076,1.596-0.38,1.596-1.596V63.865H1053.809z"/>
	<path fill="#FFFFFF" d="M24.335,178.37c-1.9,3.571-4.332,7.22-6.84,10.564v42.182h-4.788v-36.254
		c-2.508,2.889-5.244,5.473-7.829,7.753c-0.608-1.064-2.052-3.421-3.04-4.408c6.764-5.32,13.681-13.377,17.937-21.434L24.335,178.37
		z M22.511,163.321c-4.104,6.308-10.944,13.3-17.101,17.86c-0.608-0.988-1.976-2.736-2.736-3.572
		c5.625-4.18,12.084-10.641,15.277-16.036L22.511,163.321z M64.542,202.235c-2.888,6.536-7.524,11.933-13.148,16.265
		c6.156,3.724,13.376,6.536,21.129,8.057c-1.064,1.063-2.356,2.964-3.04,4.332c-8.208-1.9-15.733-5.244-22.117-9.577
		c-7.145,4.561-15.581,7.753-24.017,9.653c-0.38-1.292-1.52-3.269-2.508-4.333c7.829-1.52,15.809-4.332,22.573-8.36
		c-3.648-3.04-6.84-6.46-9.424-10.336c-3.041,2.66-6.232,5.092-9.349,6.992c-0.684-0.912-2.356-2.813-3.42-3.725
		c7.145-3.952,14.061-9.88,18.697-16.645c-11.249,0.76-13.149,0.988-14.593,1.52c-0.152-0.987-0.912-3.344-1.444-4.56
		c2.052-0.229,4.789-1.597,8.285-3.648c1.824-0.988,5.624-3.344,10.032-6.385c-11.933,0.608-13.984,0.912-15.201,1.368
		c-0.228-1.063-0.912-3.344-1.444-4.636c1.216-0.229,2.888-1.368,4.712-2.889c1.9-1.596,8.361-7.524,12.769-13.604l4.636,2.204
		c-4.408,5.093-9.349,10.108-14.137,13.909l14.593-0.456c3.496-2.584,7.068-5.396,10.26-8.36l4.333,2.508
		c-9.197,7.601-18.773,14.137-28.122,19.153l25.689-1.368c-1.824-2.356-3.8-4.788-5.776-6.765l3.876-2.128
		c4.864,5.017,10.261,11.933,12.769,16.493l-4.18,2.432c-0.912-1.748-2.28-3.952-3.876-6.309l-17.557,1.141
		c-1.292,2.28-2.964,4.56-4.636,6.612h19.457l0.912-0.229L64.542,202.235z M47.365,215.763c4.18-3.04,7.752-6.688,10.336-10.868
		l-20.597,0.075C39.688,208.999,43.185,212.647,47.365,215.763z"/>
	<path fill="#FFFFFF" d="M118.077,195.47c6.765,11.629,19.685,22.573,32.53,27.438c-1.292,1.063-2.888,3.116-3.648,4.484
		c-10.717-4.713-21.357-13.605-28.882-23.79v27.134h-5.092v-27.058c-7.601,10.033-18.241,18.621-28.502,23.409
		c-0.76-1.216-2.356-3.116-3.572-4.18c12.236-5.017,25.005-15.733,32.074-26.981v-18.697h-29.49v-4.94h29.49v-10.641h5.092v10.641
		h30.478v4.94h-30.478V195.47z M101.813,180.118c-0.836,3.268-1.824,6.308-3.04,9.12c3.268,2.888,6.992,6.385,8.893,8.664
		l-3.497,3.421c-1.672-2.053-4.56-5.017-7.448-7.677c-2.66,4.864-5.928,8.969-9.805,12.16c-0.836-0.836-2.888-2.432-3.952-3.268
		c6.917-5.168,11.705-13.453,13.909-23.333L101.813,180.118z M137.61,180.042c-0.684,3.192-1.596,6.232-2.66,9.12
		c4.864,3.801,10.792,8.816,13.909,12.009l-3.572,3.496c-2.66-2.964-7.676-7.524-12.313-11.324c-1.9,3.724-4.256,6.916-6.917,9.5
		c-0.988-0.836-3.04-2.204-4.256-2.812c5.624-4.713,9.196-12.161,10.868-20.825L137.61,180.042z"/>
	<path fill="#FFFFFF" d="M167.738,206.718c5.928-2.508,9.197-6.156,9.577-11.628c-0.456,0.151-0.988,0.151-1.444,0.151
		c-2.964,0-5.396-1.672-5.396-5.168c0-3.42,2.584-5.168,5.472-5.168c4.028,0,6.156,3.268,6.156,8.437
		c0,8.132-5.092,14.213-12.769,17.024L167.738,206.718z"/>
	<path fill="#FFFFFF" d="M235.26,168.26c-0.228,41.879-0.228,54.799-2.508,58.296c-1.292,2.128-2.66,2.812-4.864,3.116
		c-2.128,0.304-5.548,0.151-8.968,0c-0.076-1.597-0.532-3.801-1.444-5.32c3.572,0.304,6.764,0.304,8.132,0.304
		c1.216,0,1.9-0.229,2.584-1.292c0.836-1.521,1.368-6.385,1.672-17.709h-13.605c-1.9,10.032-5.32,18.316-11.249,25.081
		c-0.76-0.912-2.964-2.888-4.104-3.648c5.32-5.548,8.512-12.769,10.412-21.433h-9.272v-4.561h10.109
		c0.684-4.104,1.064-8.513,1.368-13.225H202.73v-4.561h11.021c0.152-4.256,0.228-8.664,0.304-13.301H201.59v-4.636h33.67V168.26z
		 M229.939,201.094c0.076-3.8,0.152-8.208,0.152-13.225h-11.629c-0.304,4.712-0.76,9.12-1.368,13.225H229.939z M219.071,170.008
		c-0.076,4.713-0.152,9.045-0.38,13.301h11.477l0.076-13.301H219.071z M268.93,167.804c-3.268,6.917-7.524,15.43-11.401,22.422
		c8.208,7.22,10.489,13.072,10.489,18.393c0.076,4.332-1.14,7.828-3.876,9.425c-1.368,0.912-3.192,1.444-5.168,1.672
		c-2.356,0.229-5.396,0.229-7.904,0c-0.152-1.368-0.76-3.344-1.596-4.788c2.812,0.304,5.548,0.304,7.524,0.152
		c1.368,0,2.736-0.305,3.876-0.837c1.824-0.912,2.356-3.344,2.356-6.004c0-4.864-2.584-10.412-10.945-17.329
		c3.572-6.46,7.296-14.517,9.88-20.445h-15.353v60.195h-4.788v-64.983h22.573l0.836-0.228L268.93,167.804z"/>
	<path fill="#FFFFFF" d="M314.257,197.218c-12.161,1.748-25.081,3.42-34.05,4.561l-0.608-4.94l5.092-0.532v-26.373h4.712v25.765
		l7.22-0.836v-33.214h4.94v13.225h12.161v4.637h-12.161v14.669l12.617-1.521L314.257,197.218z M280.664,223.82h66.808v5.016h-66.808
		V223.82z M289.1,207.25h50.847v4.864H289.1V207.25z M326.722,199.499c-6.917,0-8.816-1.672-8.816-7.904v-29.946h5.092v15.354
		c6.536-2.433,13.3-5.32,17.405-7.98l4.104,3.876c-6.004,3.192-13.984,6.232-21.509,8.588v10.109c0,2.584,0.608,3.116,4.18,3.116
		h12.464c3.116,0,3.648-1.521,4.028-10.033c1.14,0.836,3.192,1.672,4.636,2.053c-0.684,10.032-2.204,12.769-8.284,12.769H326.722z"
		/>
	<path fill="#FFFFFF" d="M415.676,198.89c-3.952,8.209-10.185,14.44-17.785,19.305c8.208,3.877,17.861,6.461,28.578,7.753
		c-1.064,1.216-2.432,3.344-3.116,4.712c-11.477-1.672-21.813-4.864-30.478-9.652c-9.197,4.788-19.913,7.828-30.934,9.652
		c-0.532-1.216-1.9-3.42-2.888-4.484c10.488-1.443,20.445-4.027,29.033-8.056c-6.612-4.333-12.008-9.805-15.96-16.266l0.38-0.151
		h-3.116v-4.713h41.954l1.064-0.228L415.676,198.89z M365.437,198.586h-4.788v-15.201h45.83c2.508-3.8,5.625-9.349,7.373-13.225
		l5.016,1.521c-2.128,3.876-4.864,8.284-7.296,11.704h13.453v15.201h-4.94V187.87h-54.647V198.586z M420.464,165.373
		c-14.821,3.192-38.306,5.092-57.839,5.929c-0.076-1.293-0.76-3.116-1.216-4.333c19.381-0.836,42.714-2.812,55.483-5.624
		L420.464,165.373z M371.973,171.681c2.28,3.191,4.636,7.372,5.548,10.185l-4.484,1.52c-0.912-2.812-3.192-7.22-5.396-10.488
		L371.973,171.681z M377.598,201.703c3.724,5.548,8.968,10.108,15.353,13.832c6.309-3.571,11.553-8.208,15.201-13.832H377.598z
		 M391.658,182.702c-0.456-2.965-2.128-7.829-3.876-11.4l4.484-0.988c1.9,3.496,3.648,8.284,4.18,11.248L391.658,182.702z"/>
	<path fill="#FFFFFF" d="M458.875,163.168c-2.128,5.624-4.789,11.173-7.829,16.341v51.074h-4.864V187.11
		c-2.584,3.724-5.32,7.145-8.132,10.032c-0.532-1.14-1.976-3.8-2.964-4.864c7.601-7.372,14.745-18.772,19.077-30.478
		L458.875,163.168z M473.771,203.451c-1.064,1.596-2.204,3.192-3.496,4.712h33.974c0,0-0.076,1.444-0.228,2.128
		c-1.216,12.085-2.584,16.873-4.56,18.85c-1.14,1.063-2.356,1.52-4.18,1.596c-1.444,0.076-4.18,0.076-6.993-0.152
		c-0.076-1.14-0.532-2.888-1.216-4.027c2.888,0.304,5.396,0.304,6.46,0.304s1.748-0.076,2.204-0.608
		c1.368-1.292,2.584-5.168,3.648-14.288h-6.916c-3.192,7.904-8.513,14.668-14.365,19.229c-0.76-0.684-2.432-2.052-3.42-2.736
		c5.472-3.876,10.261-9.729,13.149-16.492h-8.437c-4.028,7.296-10.337,13.681-16.721,18.013c-0.684-0.76-2.28-2.356-3.344-3.04
		c5.929-3.572,11.629-8.893,15.353-14.973h-7.904c-2.888,2.888-6.081,5.396-9.121,7.448c-0.608-0.761-2.28-2.356-3.192-3.116
		c5.32-3.192,10.641-7.829,14.213-12.845h-12.997v-3.952h50.923v3.952H473.771z M467.691,172.137
		c-2.508,4.483-5.396,8.588-8.208,11.628c-0.912-0.76-2.736-2.204-3.952-2.888c5.016-4.864,9.424-12.161,12.161-19.381l4.56,1.216
		c-0.684,1.824-1.52,3.648-2.432,5.396h34.81v4.028H467.691z M465.335,195.546v-19.229h33.974v19.229H465.335z M469.971,184.297
		h24.474v-4.636h-24.474V184.297z M469.971,192.202h24.474v-4.788h-24.474V192.202z"/>
	<path fill="#FFFFFF" d="M536.428,162.409c-1.216,3.724-2.66,7.98-4.028,11.248h12.845v49.099h-21.281v6.08h-4.636v-55.179h8.437
		c1.292-3.572,2.66-8.74,3.268-12.313L536.428,162.409z M540.608,178.217h-16.645v16.568h16.645V178.217z M540.608,218.195v-18.849
		h-16.645v18.849H540.608z M582.487,176.166c-1.217,34.886-2.28,46.514-5.32,50.162c-1.52,2.052-3.268,2.66-5.776,2.889
		c-2.584,0.228-6.917,0.075-11.173-0.152c-0.152-1.521-0.76-3.572-1.672-4.94c4.94,0.456,9.5,0.456,11.172,0.456
		c1.521,0,2.433-0.152,3.193-1.14c2.508-2.66,3.724-14.365,4.712-45.223h-19.913c-2.129,5.168-4.561,9.881-7.145,13.528
		c-0.912-0.76-3.116-2.128-4.256-2.812c5.168-6.765,9.271-17.253,11.629-27.742l4.863,1.064c-0.988,3.8-2.052,7.601-3.344,11.249
		h23.029V176.166z M566.297,210.367c-2.355-4.636-7.523-12.16-11.78-17.633l3.876-2.28c4.408,5.396,9.729,12.693,12.161,17.253
		L566.297,210.367z"/>
	<path fill="#FFFFFF" d="M618.085,203.147l0.987,4.483c-7.979,3.648-16.416,7.524-23.104,10.337l-1.899-5.017
		c2.888-1.14,6.611-2.584,10.64-4.256v-24.094h-9.349v-4.788h9.349v-17.404h4.712v17.404h8.361v4.788h-8.361v22.193L618.085,203.147
		z M653.655,224.427c4.484,0,5.244-2.052,5.777-11.021c1.215,0.912,3.115,1.748,4.56,1.977
		c-0.836,10.336-2.433,13.604-10.185,13.604h-19.152c-8.438,0-10.793-1.9-10.793-9.729v-24.701l-6.385,2.736l-1.976-4.408
		l8.36-3.496v-20.901h4.788v18.849l10.944-4.636v-21.205h4.789v19.229l12.16-5.168l3.877,1.292l-0.305,0.912
		c-0.76,10.717-2.204,24.701-4.104,33.29l-4.104-1.217c1.369-7.144,2.433-18.696,3.041-28.425l-10.564,4.484v28.121h-4.789V187.87
		l-10.944,4.637v26.829c0,4.104,0.988,5.092,6.081,5.092H653.655z"/>
	<path fill="#FFFFFF" d="M701.872,179.737c-0.229,4.181-0.608,8.361-1.141,12.617h32.302c0,0-0.075,1.748-0.151,2.508
		c-1.597,21.585-3.041,29.718-6.08,32.682c-1.597,1.748-3.345,2.28-6.157,2.433c-2.584,0.151-7.524,0.076-12.616-0.304
		c-0.152-1.521-0.836-3.572-1.748-4.864c5.396,0.455,10.717,0.531,12.692,0.531c1.672,0,2.66-0.151,3.572-0.912
		c2.204-1.976,3.647-9.424,5.017-27.209h-27.59c-2.432,13.528-8.133,26.222-22.573,33.746c-0.761-1.292-2.356-3.041-3.648-3.952
		c19.685-9.729,21.661-29.718,22.573-47.275h-20.824v-4.864h65.059v4.864H701.872z M709.016,174.721
		c-1.064-3.04-3.345-7.98-5.32-11.629l4.863-1.9c1.977,3.648,4.408,8.285,5.396,11.325L709.016,174.721z"/>
	<path fill="#FFFFFF" d="M821.302,192.658v5.473h-69.011v-5.473H821.302z"/>
	<path fill="#FFFFFF" d="M867.922,223.44c3.951,0.836,8.436,1.063,13.072,1.063c2.508,0,15.656,0,19.076-0.076
		c-0.836,1.292-1.672,3.648-1.899,5.093h-17.405c-16.112,0-27.741-2.736-34.658-16.189c-2.584,7.297-6.308,13.226-11.477,17.709
		c-0.836-0.912-2.888-2.66-4.104-3.42c8.512-6.612,12.693-17.48,14.365-31.237l5.092,0.532c-0.456,3.496-1.141,6.84-1.824,9.956
		c3.04,8.36,8.057,12.769,14.593,15.201V189.77h-19.306v-4.864h44.463v4.864h-19.988v12.921h22.877v4.788h-22.877V223.44z
		 M838.964,186.198h-4.94v-16.037h29.793c-0.912-2.356-2.355-5.32-3.724-7.677l4.94-1.367c1.748,2.812,3.648,6.612,4.561,9.044
		h27.209v16.037h-5.092v-11.173h-52.747V186.198z"/>
	<path fill="#FFFFFF" d="M948.135,163.092c-0.305,0.456-0.684,0.836-0.988,1.292c7.221,7.221,20.445,13.529,32.303,16.341
		c-1.141,0.912-2.357,2.66-3.117,3.952c-6.156-1.748-12.92-4.56-19-7.98v2.509h-25.994l0.076-2.28
		c-6.08,3.344-12.693,6.08-19.152,8.132c-0.533-0.987-1.977-3.04-2.889-4.027c13.68-3.725,27.361-10.413,34.506-19.686
		L948.135,163.092z M918.418,183.234h51.91v19.152h-51.91V183.234z M922.827,198.814h19.076v-12.009h-19.076V198.814z
		 M922.979,205.882h43.625v24.55h-4.939v-2.356H927.69v2.584h-4.711V205.882z M927.69,209.607v5.473h29.719v3.724H927.69v5.549
		h33.975v-14.745H927.69z M931.643,187.793c2.051,2.66,4.104,6.232,4.787,8.74l-3.951,1.521c-0.684-2.432-2.66-6.156-4.561-8.969
		L931.643,187.793z M955.356,175.481c-4.18-2.432-7.828-5.32-10.869-8.208c-3.115,3.04-6.764,5.776-10.717,8.208H955.356z
		 M965.768,186.805h-19.609v12.009h19.609V186.805z M951.327,196.762c1.521-2.584,3.496-6.612,4.484-9.196l4.332,1.368
		c-1.748,3.344-3.723,6.84-5.32,9.12L951.327,196.762z"/>
	<path fill="#FFFFFF" d="M1044.842,211.279c-3.801,4.332-8.969,7.753-14.898,10.488c8.59,2.509,18.318,4.181,27.895,5.017
		c-0.988,1.064-2.053,2.889-2.66,4.104c-10.717-1.141-21.586-3.345-31.162-6.688c-10.033,3.572-21.889,5.624-33.441,7.068
		c-0.457-1.141-1.596-3.269-2.432-4.332c10.412-0.912,20.9-2.509,29.945-5.169c-5.32-2.204-10.033-4.939-13.834-8.056
		c-3.646,2.888-7.828,5.244-11.779,7.068c-0.609-0.836-2.205-2.889-3.117-3.877c7.904-3.116,15.885-8.284,20.066-14.668l4.408,1.367
		c-0.836,1.293-1.674,2.509-2.736,3.725h43.93v3.952H1044.842z M994.754,193.038c-0.607,4.408-1.672,9.349-2.889,12.617
		c-0.684-0.38-2.203-1.368-3.039-1.824c1.215-3.269,1.9-7.524,2.432-11.477L994.754,193.038z M1008.055,190.91
		c-0.229-0.912-0.455-2.052-0.836-3.268c-13.453,1.976-15.428,2.432-16.568,3.04c-0.229-0.912-0.684-2.889-1.217-3.877
		c1.293-0.151,2.813-1.443,4.561-3.191c0.912-0.836,2.965-3.04,5.32-5.776c-6.232,0.532-7.752,0.836-8.588,1.216
		c-0.229-0.912-0.76-2.888-1.293-3.876c0.988-0.229,1.977-0.988,3.041-2.356c1.139-1.216,4.939-6.384,6.992-11.324l3.875,1.368
		c-2.203,4.332-5.092,8.664-7.752,11.856l6.537-0.38c1.443-1.977,2.963-3.952,4.18-6.005l3.725,1.672
		c-4.18,5.929-8.816,11.477-13.453,15.886l9.576-1.217c-0.607-1.672-1.291-3.344-1.975-4.788l3.115-0.836
		c1.748,3.496,3.496,8.057,3.953,10.793L1008.055,190.91z M999.086,203.602c-0.076-2.812-0.76-7.22-1.443-10.64l3.191-0.685
		c0.912,3.345,1.596,7.753,1.748,10.564L999.086,203.602z M1007.75,191.669c1.141,2.965,2.281,6.841,2.66,9.425l-3.268,1.064
		c-0.379-2.66-1.443-6.612-2.355-9.652L1007.75,191.669z M1007.6,211.279c4.18,3.345,9.805,6.232,16.34,8.589
		c5.854-2.28,10.869-5.093,14.594-8.589H1007.6z M1034.581,171.376h-23.408v-3.344h10.107c-0.684-1.824-1.672-3.725-2.66-5.396
		l3.877-1.216c1.291,1.9,2.66,4.636,3.344,6.612h8.74V171.376z M1033.061,178.065h-20.369v-3.116h20.369V178.065z M1032.985,184.906
		h-20.293v-3.192h20.293V184.906z M1013.147,202.539v-13.604h19.381v13.604H1013.147z M1016.567,199.346h12.389v-7.221h-12.389
		V199.346z M1053.659,190.758c-0.152-0.988-0.457-2.205-0.836-3.572c-13.605,1.976-15.582,2.432-16.723,3.04
		c-0.15-0.912-0.76-2.813-1.215-3.801c1.215-0.151,2.736-1.443,4.484-3.191c0.912-0.761,2.963-2.889,5.168-5.625
		c-6.309,0.532-7.828,0.836-8.588,1.141c-0.229-0.836-0.836-2.813-1.369-3.801c0.988-0.151,1.977-0.987,3.041-2.28
		c1.063-1.292,4.863-6.384,6.992-11.4l3.875,1.521c-2.279,4.332-5.168,8.588-7.904,11.78l6.613-0.38
		c1.52-1.9,3.039-4.028,4.256-6.08l3.648,1.672c-4.104,5.776-8.512,11.324-12.92,15.657l9.652-1.217
		c-0.609-1.596-1.293-3.344-1.977-4.788l3.268-0.836c1.748,3.572,3.42,8.284,3.877,11.173L1053.659,190.758z M1040.434,192.81
		c-0.609,3.952-1.674,8.664-2.66,11.78c-0.686-0.532-2.281-1.443-3.193-1.824c1.141-3.191,1.748-7.144,2.281-10.792L1040.434,192.81
		z M1044.993,203.298c-0.076-2.888-0.607-7.296-1.443-10.717l3.268-0.607c0.836,3.42,1.521,7.828,1.596,10.641L1044.993,203.298z
		 M1053.506,202.842c-0.533-2.964-1.748-7.524-2.813-11.097l3.039-0.76c1.293,3.42,2.51,7.98,3.041,10.944L1053.506,202.842z"/>
	<path fill="#FFFFFF" d="M66.138,286.186c-3.268,9.88-7.676,18.469-13.301,25.689c2.888,7.752,6.537,12.236,10.641,12.236
		c2.204,0,3.192-3.952,3.648-14.061c1.14,1.14,3.04,2.279,4.332,2.66c-0.912,12.692-2.812,16.492-8.36,16.492
		c-5.853,0-10.489-4.864-14.061-12.845c-4.712,5.093-10.108,9.425-16.265,12.997c-0.76-1.064-2.508-3.116-3.648-4.104
		c6.916-3.647,12.92-8.437,18.013-14.288c-2.964-8.741-4.788-19.838-5.7-32.302H14.303v10.26h19.533v2.28
		c-0.38,17.177-0.836,23.485-2.432,25.386c-1.064,1.444-2.28,1.9-4.332,2.128c-1.976,0.152-5.472,0.152-9.197-0.076
		c-0.076-1.52-0.608-3.42-1.444-4.712c3.648,0.304,6.992,0.304,8.36,0.304c1.064,0,1.824-0.076,2.356-0.76
		c1.064-1.216,1.444-6.156,1.749-19.913H14.303v1.368c0,10.488-1.14,25.385-8.057,35.342c-0.836-0.988-2.964-2.813-4.18-3.42
		c6.384-9.272,7.068-22.27,7.068-31.998v-21.129h31.922c-0.228-4.257-0.38-8.665-0.38-13.073h5.245
		c0,4.484,0.076,8.893,0.304,13.073H70.85v4.94H46.604c0.76,10.564,2.28,19.988,4.333,27.361c4.256-6.156,7.676-13.225,10.26-21.129
		L66.138,286.186z M63.706,273.265c-2.888-2.66-8.893-6.536-13.681-9.045l2.964-3.116c4.864,2.356,10.792,6.081,13.833,8.741
		L63.706,273.265z"/>
	<path fill="#FFFFFF" d="M142.746,293.406c-3.42,6.461-7.98,12.617-13.3,18.089c2.888,8.437,6.536,13.453,10.64,13.453
		c2.128,0,3.116-3.952,3.572-13.757c1.064,0.988,2.888,2.128,4.256,2.66c-0.912,12.465-2.812,16.188-8.285,16.188
		c-6.08,0-10.792-5.548-14.289-14.593c-5.016,4.408-10.641,8.361-16.341,11.477c-0.836-1.292-2.356-2.964-3.572-4.027
		c6.46-3.192,12.693-7.524,18.165-12.617c-1.824-6.384-3.268-13.984-4.256-22.421H101.02v12.845
		c4.56-0.988,9.196-2.053,13.833-3.116l0.38,4.561l-14.213,3.344v17.557c0,3.496-0.912,5.017-3.116,5.853
		c-2.356,0.836-6.308,1.064-12.541,0.988c-0.228-1.444-1.14-3.648-1.9-5.093c4.94,0.152,9.424,0.076,10.716,0
		c1.368,0,1.824-0.38,1.824-1.748v-16.341c-5.853,1.444-11.477,2.66-16.113,3.725l-1.444-5.093
		c4.636-0.836,10.869-2.128,17.557-3.647v-13.833H79.435v-4.788h16.569v-12.845c-4.864,0.987-9.729,1.824-14.365,2.508
		c-0.228-1.216-0.988-2.964-1.596-4.181c10.564-1.672,22.953-4.332,30.021-6.992l3.648,4.181c-3.648,1.216-7.98,2.432-12.693,3.496
		v13.833h17.785c-0.608-6.917-0.988-14.365-1.064-21.89h5.245c0,7.753,0.304,15.049,0.988,21.89h22.573v4.788h-22.041
		c0.836,6.84,1.9,12.921,3.268,18.241c4.256-4.561,7.829-9.425,10.489-14.593L142.746,293.406z M140.466,278.206
		c-2.432-3.572-7.601-9.045-12.161-12.997l3.876-2.584c4.484,3.724,9.805,9.12,12.389,12.616L140.466,278.206z"/>
	<path fill="#FFFFFF" d="M173.751,262.245c-1.672,5.016-3.648,10.108-5.928,14.896v52.595h-4.864v-43.475
		c-2.356,4.028-4.94,7.753-7.601,10.869c-0.456-1.141-1.824-3.801-2.736-5.017c6.688-7.676,12.769-19.305,16.493-31.161
		L173.751,262.245z M195.336,292.19h-15.429v37.394h-4.712v-64.603h20.141V292.19z M179.908,269.084v7.373h11.325v-7.373H179.908z
		 M191.232,288.085v-7.752h-11.325v7.752H191.232z M221.102,322.896c0,3.496-0.836,5.092-3.268,5.928
		c-2.433,0.836-6.841,0.912-13.985,0.912c-0.304-1.368-1.14-3.572-1.9-4.94c5.625,0.229,10.869,0.152,12.313,0.076
		c1.52,0,2.052-0.456,2.052-2.052v-30.63h-16.188v-27.209h20.977V322.896z M204.305,269.084v7.373h12.008v-7.373H204.305z
		 M216.313,288.085v-7.752h-12.008v7.752H216.313z"/>
	<path fill="#FFFFFF" d="M262.292,293.558v36.102h-4.712v-7.676c-9.5,1.443-19.077,2.735-26.221,3.647l-0.608-4.483
		c2.204-0.229,4.864-0.532,7.6-0.912v-26.678h-6.688v-4.256h66.427v4.256H262.292z M245.647,286.642h-4.94v-23.638h49.555v23.638
		h-5.092V266.88h-39.522V286.642z M257.58,293.558h-14.668v5.548h14.668V293.558z M257.58,302.983h-14.668v5.624h14.668V302.983z
		 M242.911,319.704c4.636-0.608,9.576-1.216,14.668-1.824v-5.396h-14.668V319.704z M281.065,275.013h-32.149v-3.496h32.149V275.013z
		 M281.141,283.07h-32.15v-3.496h32.15V283.07z M295.886,299.714c-2.28,7.145-6.232,12.997-11.097,17.709
		c4.408,3.269,9.577,5.776,15.353,7.221c-1.064,0.987-2.432,2.735-3.04,4.028c-5.928-1.749-11.173-4.637-15.657-8.285
		c-4.94,3.952-10.489,6.841-16.189,8.816c-0.532-1.216-1.824-3.04-2.736-4.028c5.396-1.596,10.717-4.256,15.429-7.904
		c-3.952-4.104-7.144-8.968-9.424-14.517h-3.268v-4.104h26.677l0.912-0.228L295.886,299.714z M273.084,302.754
		c2.052,4.408,4.789,8.36,8.208,11.629c3.496-3.269,6.46-7.145,8.437-11.629H273.084z"/>
	<path fill="#FFFFFF" d="M331.452,298.575c0,0-0.076,1.596-0.152,2.355c-1.14,17.329-2.204,23.714-4.333,25.993
		c-1.292,1.444-2.66,1.977-4.712,2.053c-1.9,0.228-5.245,0.151-8.741-0.076c-0.076-1.368-0.608-3.344-1.444-4.637
		c3.572,0.305,6.916,0.381,8.132,0.381c1.292,0,1.976-0.152,2.66-0.836c1.368-1.444,2.508-6.917,3.344-20.598h-19.229
		c0.988-5.548,2.128-14.44,2.736-21.129h16.189v-12.769h-18.165v-4.637h22.877v22.041h-16.721
		c-0.456,4.028-1.064,8.209-1.596,11.857H331.452z M371.582,330.268c-0.532-1.521-1.368-3.269-2.356-5.168
		c-13.148,1.063-26.981,2.052-36.558,2.735l-0.76-4.864c5.016-0.304,11.553-0.684,18.697-1.14v-11.78h-15.429V290.29h15.429v-7.676
		h4.864v7.676h16.037v19.762h-16.037v11.477c3.648-0.229,7.449-0.456,11.249-0.761c-1.521-2.432-3.192-4.939-4.864-7.068l4.18-1.823
		c4.028,5.016,8.284,11.704,9.957,16.265L371.582,330.268z M370.67,285.654c-0.836-1.444-2.052-3.345-3.496-5.244
		c-26.906,2.28-29.946,2.66-31.846,3.344c-0.228-0.912-1.064-3.269-1.596-4.484c1.14-0.228,2.508-1.444,3.952-3.192
		c1.596-1.823,6.84-8.588,9.957-15.124l5.244,1.368c-3.572,5.852-7.752,11.704-11.705,16.112l23.105-1.9
		c-1.976-2.432-3.953-4.788-5.929-6.84l3.648-2.204c4.636,4.788,10.033,11.324,12.465,15.581L370.67,285.654z M350.604,305.794
		v-11.248H339.66v11.248H350.604z M355.469,294.546v11.248h11.325v-11.248H355.469z"/>
	<path fill="#FFFFFF" d="M400.763,260.648h4.789v69.088h-4.789v-26.829h-9.196v2.128c0,6.688-0.912,17.253-5.776,24.854
		c-0.836-0.912-2.736-2.053-3.952-2.66c4.484-6.917,5.092-16.341,5.092-22.346v-1.976h-4.484v-4.637h18.317v-11.477h-14.973v-23.029
		h4.636v18.394h10.336V260.648z M432.533,290.594v31.77h17.405v4.864h-39.75v-4.864h17.329v-31.77h-19.153v-4.864h19.153v-25.082
		h5.017v25.082h19.229v4.864H432.533z"/>
	<path fill="#FFFFFF" d="M479.043,261.409c-1.216,3.724-2.66,7.98-4.028,11.248h12.845v49.099h-21.281v6.08h-4.636v-55.179h8.437
		c1.292-3.572,2.66-8.74,3.268-12.313L479.043,261.409z M483.224,277.217h-16.645v16.568h16.645V277.217z M483.224,317.195v-18.849
		h-16.645v18.849H483.224z M525.102,275.166c-1.216,34.886-2.28,46.514-5.32,50.162c-1.52,2.052-3.268,2.66-5.776,2.889
		c-2.584,0.228-6.917,0.075-11.173-0.152c-0.152-1.521-0.76-3.572-1.672-4.94c4.94,0.456,9.5,0.456,11.172,0.456
		c1.521,0,2.432-0.152,3.192-1.14c2.508-2.66,3.724-14.365,4.712-45.223h-19.913c-2.128,5.168-4.561,9.881-7.145,13.528
		c-0.912-0.76-3.116-2.128-4.256-2.812c5.168-6.765,9.272-17.253,11.629-27.742l4.864,1.064c-0.988,3.8-2.052,7.601-3.344,11.249
		h23.029V275.166z M508.913,309.367c-2.356-4.636-7.524-12.16-11.781-17.633l3.876-2.28c4.408,5.396,9.729,12.693,12.161,17.253
		L508.913,309.367z"/>
	<path fill="#FFFFFF" d="M557.932,302.147l0.988,4.483c-7.98,3.648-16.418,7.524-23.105,10.337l-1.9-5.017
		c2.889-1.14,6.612-2.584,10.641-4.256v-24.094h-9.349v-4.788h9.349v-17.404h4.712v17.404h8.36v4.788h-8.36v22.193L557.932,302.147z
		 M593.501,323.427c4.484,0,5.244-2.052,5.776-11.021c1.216,0.912,3.116,1.748,4.561,1.977
		c-0.836,10.336-2.433,13.604-10.186,13.604H574.5c-8.437,0-10.793-1.9-10.793-9.729v-24.701l-6.384,2.736l-1.976-4.408l8.359-3.496
		v-20.901h4.789v18.849l10.944-4.636v-21.205h4.788v19.229l12.16-5.168l3.877,1.292l-0.305,0.912
		c-0.76,10.717-2.203,24.701-4.104,33.29l-4.104-1.217c1.368-7.144,2.433-18.696,3.04-28.425l-10.564,4.484v28.121h-4.788V286.87
		l-10.944,4.637v26.829c0,4.104,0.988,5.092,6.08,5.092H593.501z"/>
	<path fill="#FFFFFF" d="M638.948,278.737c-0.229,4.181-0.607,8.361-1.141,12.617h32.303c0,0-0.076,1.748-0.152,2.508
		c-1.596,21.585-3.04,29.718-6.08,32.682c-1.596,1.748-3.344,2.28-6.156,2.433c-2.584,0.151-7.525,0.076-12.617-0.304
		c-0.152-1.521-0.836-3.572-1.748-4.864c5.396,0.455,10.717,0.531,12.693,0.531c1.672,0,2.66-0.151,3.572-0.912
		c2.203-1.976,3.647-9.424,5.016-27.209h-27.59c-2.432,13.528-8.132,26.222-22.572,33.746c-0.761-1.292-2.356-3.041-3.648-3.952
		c19.685-9.729,21.66-29.718,22.572-47.275h-20.824v-4.864h65.059v4.864H638.948z M646.092,273.721
		c-1.064-3.04-3.344-7.98-5.32-11.629l4.864-1.9c1.976,3.648,4.408,8.285,5.396,11.325L646.092,273.721z"/>
	<path fill="#FFFFFF" d="M713.657,295.23c0,6.309-5.168,11.477-11.477,11.477c-6.232,0-11.477-5.168-11.477-11.477
		s5.244-11.477,11.477-11.477C708.489,283.753,713.657,288.921,713.657,295.23z M710.008,295.23c0-4.332-3.42-7.828-7.828-7.828
		c-4.332,0-7.828,3.496-7.828,7.828c0,4.408,3.496,7.828,7.828,7.828C706.588,303.058,710.008,299.638,710.008,295.23z"/>
</g>
<g>
	<path fill="#FFFFFF" d="M70.774,525.536v4.939H3.358v-4.939h31.085v-20.064H11.567v-4.865h22.877V483.43H16.127
		c-2.356,4.94-5.168,9.196-8.056,12.692c-0.988-0.836-3.268-2.356-4.561-3.04c6.309-6.765,11.173-17.253,14.137-28.121l5.017,1.063
		c-1.216,4.257-2.66,8.513-4.333,12.465h16.113v-14.82h5.245v14.82h27.513v4.94H39.688v17.177h24.777v4.865H39.688v20.064H70.774z"
		/>
	<path fill="#FFFFFF" d="M98.521,497.111c-3.116-2.128-9.272-5.7-13.909-8.209l2.736-3.647c4.484,2.28,10.792,5.624,14.061,7.752
		L98.521,497.111z M86.513,528.425c4.028-5.777,10.032-15.885,14.365-24.474l3.724,3.345c-4.028,7.98-9.425,17.557-13.909,24.549
		L86.513,528.425z M102.474,476.513c-3.192-2.204-9.424-5.852-14.212-8.36l2.812-3.572c4.712,2.28,11.097,5.701,14.289,7.905
		L102.474,476.513z M132.343,490.65v13.073h15.961v28.653h-4.864v-2.813h-27.817v3.27h-4.636v-29.11h16.493V490.65h-22.117v-4.863
		h22.117v-12.921c-5.7,0.836-11.552,1.596-17.025,2.128c-0.228-1.292-0.912-3.192-1.444-4.332
		c13.148-1.444,28.729-3.725,37.09-6.688l4.028,3.952c-4.94,1.596-11.173,3.04-17.785,4.18v13.682h21.129v4.863H132.343z
		 M143.44,508.358h-27.817v16.57h27.817V508.358z"/>
	<path fill="#FFFFFF" d="M189.201,508.587c-0.304-1.215-0.608-2.66-1.064-4.255c-16.113,2.964-18.317,3.496-19.609,4.332
		c-0.304-0.912-0.988-3.191-1.596-4.408c1.521-0.305,3.269-2.28,5.396-5.093c1.216-1.443,3.8-5.016,6.688-9.576
		c-8.36,1.063-10.033,1.52-11.021,2.052c-0.228-1.063-0.988-3.344-1.444-4.484c1.14-0.304,2.356-1.976,3.724-4.256
		c1.52-2.28,6.384-11.021,9.044-19.229l4.484,1.823c-2.964,7.373-6.84,14.974-10.716,20.749l8.512-0.836
		c1.9-3.268,3.876-6.764,5.472-10.26l4.18,2.128c-4.864,9.196-10.716,18.241-16.797,25.461l12.541-2.128
		c-0.76-2.356-1.596-4.788-2.432-6.841l3.648-0.987c2.052,4.712,4.104,10.868,4.94,14.517L189.201,508.587z M174.988,512.767
		c-0.988,6.385-2.736,13.529-4.484,18.166c-0.76-0.457-2.736-1.064-3.724-1.369c1.976-4.711,3.42-11.477,4.256-17.557
		L174.988,512.767z M181.677,511.931c0.836,5.17,1.748,11.781,2.052,16.189l-3.876,0.836c-0.152-4.408-0.988-11.096-1.9-16.264
		L181.677,511.931z M188.365,510.335c1.444,4.105,3.268,9.576,3.952,13.072l-3.648,1.141c-0.684-3.496-2.432-9.045-3.8-13.225
		L188.365,510.335z M192.621,525.993c2.584-3.648,4.256-9.957,5.245-14.898l3.8,1.369c-1.064,5.092-2.66,11.629-5.244,15.58
		L192.621,525.993z M232.219,505.548h-34.734v-35.342h11.629c0.912-2.204,1.9-5.017,2.432-6.917l4.788,1.064
		c-0.912,1.977-1.9,4.028-2.888,5.853h18.773V505.548z M227.887,474.461h-26.222v26.829h26.222V474.461z M211.546,482.138
		c-1.52,2.355-3.648,4.712-6.081,6.764c-0.684-0.836-1.9-1.672-2.736-2.204c4.104-3.191,6.992-7.448,8.436-11.096l3.648,0.531
		c-0.38,0.988-0.836,1.977-1.368,3.04h9.425l0.684-0.228l2.356,0.988c-1.444,4.332-3.724,7.98-6.46,11.097
		c2.356,1.824,4.408,3.647,5.776,5.092l-2.584,2.433c-1.292-1.521-3.344-3.269-5.548-5.169c-3.269,2.889-7.068,5.093-10.945,6.537
		c-0.456-0.685-1.444-2.053-2.28-2.736c3.648-1.292,7.296-3.269,10.489-5.929c-1.748-1.292-3.572-2.584-5.168-3.496l2.432-2.204
		c1.672,0.988,3.344,2.204,5.092,3.344c1.824-1.976,3.42-4.256,4.561-6.764H211.546z M221.047,526.905
		c2.356,0,2.736-0.838,2.964-7.678c0.988,0.836,2.813,1.52,4.104,1.824c-0.532,8.133-1.9,10.109-6.537,10.109h-10.185
		c-5.7,0-7.144-1.293-7.144-6.156v-14.061h4.408v13.984c0,1.672,0.456,1.977,3.192,1.977H221.047z M213.979,506.536
		c3.268,3.039,6.612,7.523,7.98,10.641l-3.876,1.672c-1.292-3.041-4.56-7.525-7.752-10.793L213.979,506.536z M227.659,509.423
		c3.648,4.561,7.068,10.793,8.36,15.049l-3.8,1.9c-1.292-4.256-4.636-10.564-8.132-15.277L227.659,509.423z"/>
	<path fill="#FFFFFF" d="M286.568,526.067c2.888,0.305,6.004,0.457,9.349,0.457c2.66,0.076,18.697,0,22.269-0.076
		c-0.684,1.217-1.52,3.42-1.824,4.865h-20.597c-15.581,0-25.233-2.434-31.313-13.15c-2.964,6.156-6.992,11.021-12.009,14.822
		c-0.76-0.912-2.736-2.813-3.876-3.572c7.98-5.244,12.92-13.834,14.973-25.158l5.017,0.76c-0.532,2.736-1.14,5.244-1.9,7.677
		c2.964,7.143,7.98,10.791,14.821,12.463v-23.484h-31.313v-4.561h66.731v4.561h-30.326v8.968h25.385v4.561h-25.385V526.067z
		 M308.381,491.638h-50.163v-24.777h50.163V491.638z M303.289,470.813h-40.13v6.537h40.13V470.813z M303.289,481.074h-40.13v6.688
		h40.13V481.074z"/>
	<path fill="#FFFFFF" d="M354.598,480.77h-23.637v-4.181h23.637V480.77z M352.546,528.425h-14.973v3.648h-3.876v-25.387h18.849
		V528.425z M334.077,486.394h18.469v4.104h-18.469V486.394z M334.077,496.502h18.469v4.104h-18.469V496.502z M337.573,510.868
		v13.451h11.021v-13.451H337.573z M342.666,475.602c-0.608-2.736-2.356-6.993-4.256-10.185l3.724-1.217
		c1.976,3.192,3.8,7.297,4.408,9.957L342.666,475.602z M398.681,517.024c-2.813,2.051-6.385,4.027-9.5,5.547
		c3.192,2.813,7.22,5.018,11.78,6.232c-0.988,0.988-2.28,2.584-2.888,3.725c-9.576-3.115-16.493-10.033-20.217-19.305h-1.064
		c-1.976,1.9-4.484,3.648-7.145,5.244v8.285l11.781-2.357c-0.076,1.217,0,3.041,0.152,3.953
		c-13.453,3.115-15.429,3.725-16.645,4.484c-0.38-0.988-1.52-2.736-2.28-3.42c1.064-0.76,2.888-2.508,2.888-5.854v-2.963
		c-2.888,1.443-5.928,2.584-8.74,3.572c-0.532-0.836-1.9-2.584-2.736-3.346c6.081-1.748,12.541-4.332,17.101-7.6h-15.961v-3.801
		h11.781v-4.408h-7.98v-3.496h7.98v-4.332h-9.349v-3.572h9.349v-4.257h-7.829v-12.616h16.645v12.616h-4.18v4.257h11.933v-4.257
		h-3.496v-12.616h16.873v12.616h-8.741v4.257h10.413v3.572h-10.413v4.332h8.816v3.496h-8.816v4.408h12.009v3.801h-18.089
		c1.216,2.432,2.736,4.713,4.408,6.688c3.268-1.596,6.992-3.875,9.348-5.471L398.681,517.024z M399.517,473.473h-43.322v-3.952
		h19.837c-0.684-1.748-1.596-3.572-2.432-5.092l4.104-1.292c1.216,1.899,2.584,4.408,3.344,6.384h18.469V473.473z M363.11,486.167
		h8.589v-6.232h-8.589V486.167z M371.623,501.519h11.933v-4.332h-11.933V501.519z M371.623,509.423h11.933v-4.408h-11.933V509.423z
		 M384.012,486.167h8.816v-6.232h-8.816V486.167z"/>
	<path fill="#FFFFFF" d="M477.579,496.502c-3.42,6.461-7.98,12.618-13.3,18.088c2.888,8.438,6.536,13.453,10.64,13.453
		c2.128,0,3.116-3.951,3.572-13.756c1.064,0.988,2.888,2.127,4.256,2.66c-0.912,12.465-2.812,16.188-8.285,16.188
		c-6.08,0-10.792-5.547-14.289-14.592c-5.016,4.408-10.641,8.361-16.341,11.477c-0.836-1.293-2.356-2.965-3.572-4.027
		c6.46-3.193,12.693-7.525,18.165-12.617c-1.824-6.385-3.268-13.985-4.256-22.421h-18.317v12.845
		c4.56-0.988,9.197-2.053,13.833-3.116l0.38,4.561l-14.213,3.343v17.557c0,3.496-0.912,5.018-3.116,5.854
		c-2.356,0.836-6.308,1.064-12.541,0.988c-0.228-1.445-1.14-3.648-1.9-5.094c4.94,0.152,9.425,0.076,10.717,0
		c1.368,0,1.824-0.379,1.824-1.748v-16.34c-5.853,1.443-11.477,2.66-16.113,3.725l-1.444-5.094
		c4.636-0.836,10.869-2.127,17.557-3.647v-13.833h-16.569v-4.788h16.569v-12.845c-4.864,0.987-9.729,1.824-14.365,2.508
		c-0.228-1.216-0.988-2.964-1.596-4.181c10.564-1.672,22.953-4.332,30.021-6.992l3.648,4.181c-3.648,1.216-7.98,2.432-12.693,3.496
		v13.833h17.785c-0.608-6.917-0.988-14.365-1.064-21.89h5.245c0,7.753,0.304,15.049,0.988,21.89h22.573v4.788h-22.041
		c0.836,6.84,1.9,12.921,3.268,18.242c4.256-4.561,7.829-9.425,10.489-14.593L477.579,496.502z M475.299,481.302
		c-2.432-3.572-7.601-9.045-12.161-12.997l3.876-2.584c4.484,3.724,9.805,9.12,12.389,12.616L475.299,481.302z"/>
	<path fill="#FFFFFF" d="M514.751,465.341c-1.672,5.016-3.648,10.108-5.928,14.896v52.595h-4.864v-43.475
		c-2.356,4.028-4.94,7.753-7.601,10.869c-0.456-1.141-1.824-3.801-2.736-5.017c6.688-7.676,12.769-19.305,16.493-31.161
		L514.751,465.341z M536.336,495.287h-15.429v37.394h-4.712v-64.603h20.141V495.287z M520.908,472.181v7.373h11.325v-7.373H520.908z
		 M532.233,491.182v-7.752h-11.325v7.752H532.233z M562.102,525.993c0,3.496-0.836,5.092-3.268,5.928
		c-2.434,0.836-6.842,0.912-13.985,0.912c-0.304-1.369-1.14-3.572-1.9-4.941c5.624,0.229,10.868,0.152,12.313,0.076
		c1.52,0,2.051-0.455,2.051-2.051v-30.63h-16.188v-27.209h20.977V525.993z M545.305,472.181v7.373h12.008v-7.373H545.305z
		 M557.313,491.182v-7.752h-12.008v7.752H557.313z"/>
	<path fill="#FFFFFF" d="M595.473,500.759c-0.911,6.232-2.279,11.705-4.104,16.341c4.94,8.816,14.82,10.107,29.642,10.184
		c7.904,0,18.696-0.305,26.298-0.988c-0.761,1.141-1.369,3.42-1.597,4.789c-7.068,0.379-16.569,0.531-24.777,0.531
		c-15.809,0-25.462-1.596-31.39-10.412c-2.584,5.016-5.624,8.893-9.196,11.705c-0.761-0.988-2.356-2.813-3.421-3.42
		c6.461-4.789,11.249-13.453,13.377-25.386h-7.068c-1.748,0-3.724,0.532-4.332,1.064c-0.304-1.217-1.292-3.572-1.9-4.637
		c1.141-0.304,2.281-0.836,3.496-2.204c1.748-1.824,6.081-8.284,9.197-12.996h-11.781v-4.181h14.745l0.836-0.38l3.497,1.52
		c-3.041,4.484-8.514,12.541-12.465,17.634h7.828l0.836-0.076L595.473,500.759z M589.698,478.034
		c-1.748-3.192-5.701-8.437-8.74-12.236l3.8-2.128c3.269,3.724,7.145,8.664,8.968,11.78L589.698,478.034z M606.723,489.814
		c-0.381,9.501-1.977,21.281-7.373,29.871c-0.76-0.836-2.66-2.281-3.648-2.66c6.004-9.576,6.688-22.65,6.688-32.15v-16.113
		c12.692-0.76,28.122-2.204,36.558-4.256l3.192,3.572c-9.044,2.128-23.028,3.496-35.342,4.104v3.801h36.103v13.832H606.723z
		 M643.964,518.544c0,2.053-0.304,3.115-1.748,3.801c-1.216,0.684-3.192,0.684-6.156,0.684c-0.151-1.064-0.685-2.66-1.216-3.725
		c2.052,0.076,3.648,0.076,4.256,0c0.607,0,0.76-0.152,0.76-0.76v-8.209h-7.448v11.705h-3.8v-11.705h-7.221v11.705h-3.801v-11.705
		h-6.992v13.225h-4.104v-29.489h37.47V518.544z M606.798,479.706v5.244v1.141h31.542v-6.385H606.798z M617.59,506.536v-8.589h-6.992
		v8.589H617.59z M628.612,506.536v-8.589h-7.221v8.589H628.612z M639.86,506.536v-8.589h-7.448v8.589H639.86z"/>
	<path fill="#FFFFFF" d="M686.837,497.947v-6.841h-21.509v6.841h-3.953v-10.641h4.332V466.33h20.826v20.977h4.408v10.641H686.837z
		 M686.458,527.968c0,2.205-0.456,3.42-1.977,4.105c-1.596,0.684-4.027,0.76-8.133,0.76c-0.228-1.141-0.836-2.813-1.443-3.953
		c2.889,0.076,5.32,0.076,6.08,0s0.988-0.303,0.988-0.988v-8.436h-11.933v13.377h-4.333v-36.407h20.75V527.968z M669.661,487.306
		h4.18v-11.78h8.589v-5.244h-12.769V487.306z M670.041,500.151v5.852h11.933v-5.852H670.041z M681.973,515.655v-6.004h-11.933v6.004
		H681.973z M682.429,478.87h-5.245v8.437h5.245V478.87z M729.096,527.437v3.951h-39.143v-3.951h11.933
		c-0.532-2.355-1.597-5.473-2.888-7.828l3.647-1.217c1.597,2.584,2.888,6.232,3.345,8.664l-1.064,0.381h8.74l-0.836-0.305
		c1.292-2.432,2.813-6.309,3.572-8.893l4.256,1.293c-1.367,2.736-2.736,5.623-3.951,7.904H729.096z M728.563,500.303h-37.317v-3.801
		h37.317V500.303z M725.827,492.474h-32.148v-21.736h9.12v-7.068h3.876v7.068h5.776v-7.068h3.876v7.068h9.5V492.474z
		 M695.274,518.087v-13.908h29.109v13.908H695.274z M697.706,479.858h5.701v-5.549h-5.701V479.858z M697.706,488.827h5.701v-5.473
		h-5.701V488.827z M699.53,514.591h20.369v-6.992H699.53V514.591z M712.451,479.858v-5.549h-5.776v5.549H712.451z M706.674,483.354
		v5.473h5.776v-5.473H706.674z M721.723,474.309h-6.004v5.549h6.004V474.309z M721.723,483.354h-6.004v5.473h6.004V483.354z"/>
	<path fill="#FFFFFF" d="M745.367,488.218c-0.456,0.684-0.912,1.368-1.444,2.052c-0.607-0.987-2.052-2.279-3.04-2.812
		c5.472-7.221,8.893-16.646,10.641-23.714l4.181,0.608c-0.533,1.824-1.064,3.8-1.748,5.776h7.523l0.836-0.229l2.813,1.9
		c-1.292,3.572-2.964,7.601-4.637,10.869h6.917v29.186h-22.041V488.218z M741.491,531.388c1.976-4.18,3.648-11.172,4.484-16.035
		l3.268,1.063c-0.912,5.018-2.355,12.162-4.332,16.418L741.491,531.388z M752.435,474.234c-0.988,2.812-2.28,5.7-3.8,8.437h7.752
		c1.064-2.356,2.28-5.625,3.191-8.437H752.435z M754.792,495.21v-8.36h-5.701v8.36H754.792z M749.09,499.239v8.436h5.701v-8.436
		H749.09z M754.563,516.188c0.684,4.408,1.141,10.031,1.141,13.756l-3.496,0.457c0-3.801-0.381-9.426-0.912-13.834L754.563,516.188z
		 M760.416,515.353c1.292,3.951,2.735,9.119,3.345,12.463l-3.345,0.912c-0.608-3.42-2.052-8.664-3.269-12.691L760.416,515.353z
		 M763.532,486.85h-5.244v8.36h5.244V486.85z M763.532,499.239h-5.244v8.436h5.244V499.239z M766.268,513.983
		c1.748,3.268,3.648,7.525,4.561,10.186l-3.27,1.291c-0.836-2.813-2.66-7.145-4.332-10.412L766.268,513.983z M787.245,501.519
		l2.508,0.912c-2.812,14.972-9.956,25.31-18.393,30.554c-0.607-0.988-1.748-2.51-2.66-3.27c3.877-2.203,7.449-5.775,10.412-10.412
		c-1.596-1.977-3.875-4.484-5.928-6.611c-0.988,1.291-1.977,2.508-3.04,3.572c-0.608-0.686-2.204-2.129-3.04-2.813
		c4.408-4.408,7.98-10.869,9.881-17.862l3.951,0.761c-0.531,1.823-1.14,3.647-1.824,5.396h7.221L787.245,501.519z M788.157,484.114
		c-4.713,5.093-11.248,9.652-16.949,12.313c-0.684-0.987-1.976-2.584-3.039-3.344c5.928-2.356,12.92-6.841,17.404-11.705h-15.505
		v-4.18h18.089v-13.604h4.408v13.604h17.785v4.18h-15.201c5.853,3.421,12.389,7.677,15.885,10.793l-2.584,3.192
		c-3.572-3.116-9.957-7.601-15.885-11.173v12.997h-4.408V484.114z M780.024,476.438c-1.291-2.509-3.951-6.461-6.309-9.425l3.648-1.9
		c2.281,2.889,5.017,6.765,6.309,9.045L780.024,476.438z M777.364,505.774c-0.684,1.293-1.291,2.51-2.052,3.725
		c1.976,1.9,4.333,4.256,5.929,6.156c1.596-2.963,2.813-6.309,3.725-9.881H777.364z M805.41,517.251h5.548v4.105h-5.548v11.553
		h-3.952v-11.553h-11.172c0.911-4.18,1.976-10.488,2.735-15.809h-1.899v-3.801h10.336v-5.928h3.952v5.928h4.712v3.801h-4.712
		V517.251z M801.458,517.251v-11.703h-4.713c-0.531,3.799-1.291,8.131-1.899,11.703H801.458z M807.766,466.633
		c-2.508,3.496-5.473,7.372-7.828,9.956l-3.193-1.672c2.281-2.736,5.32-7.145,6.841-10.185L807.766,466.633z"/>
	<path fill="#FFFFFF" d="M845.926,465.265c-2.129,5.624-4.789,11.173-7.828,16.341v51.075h-4.865v-43.474
		c-2.584,3.724-5.32,7.145-8.132,10.032c-0.532-1.14-1.976-3.8-2.964-4.864c7.6-7.372,14.744-18.772,19.076-30.478L845.926,465.265z
		 M860.823,505.548c-1.064,1.596-2.204,3.191-3.496,4.711H891.3c0,0-0.075,1.445-0.228,2.129
		c-1.217,12.084-2.584,16.873-4.561,18.85c-1.141,1.063-2.355,1.52-4.18,1.596c-1.445,0.076-4.181,0.076-6.992-0.152
		c-0.076-1.141-0.533-2.889-1.217-4.027c2.889,0.303,5.396,0.303,6.461,0.303c1.063,0,1.748-0.076,2.203-0.607
		c1.369-1.293,2.584-5.168,3.648-14.289h-6.916c-3.192,7.904-8.513,14.668-14.365,19.229c-0.76-0.684-2.432-2.051-3.42-2.736
		c5.473-3.875,10.261-9.729,13.148-16.492h-8.436c-4.029,7.297-10.338,13.682-16.722,18.014c-0.685-0.76-2.28-2.357-3.345-3.041
		c5.93-3.572,11.629-8.893,15.354-14.973h-7.904c-2.889,2.889-6.08,5.396-9.121,7.449c-0.607-0.762-2.279-2.357-3.191-3.117
		c5.32-3.191,10.641-7.828,14.213-12.844h-12.997v-3.953h50.923v3.953H860.823z M854.743,474.234
		c-2.508,4.483-5.396,8.588-8.209,11.628c-0.912-0.76-2.736-2.204-3.951-2.888c5.016-4.864,9.424-12.161,12.16-19.381l4.561,1.216
		c-0.685,1.824-1.521,3.648-2.433,5.396h34.81v4.028H854.743z M852.386,497.643v-19.229h33.974v19.229H852.386z M857.022,486.394
		h24.475v-4.636h-24.475V486.394z M857.022,494.298h24.475v-4.788h-24.475V494.298z"/>
	<path fill="#FFFFFF" d="M933.034,508.815c5.928-2.508,9.195-6.157,9.576-11.628c-0.457,0.151-0.988,0.151-1.443,0.151
		c-2.965,0-5.396-1.672-5.396-5.168c0-3.42,2.584-5.168,5.473-5.168c4.027,0,6.156,3.268,6.156,8.437
		c0,8.132-5.094,14.212-12.77,17.025L933.034,508.815z"/>
	<path fill="#FFFFFF" d="M1011.399,465.417c-2.203,5.7-4.939,11.248-7.98,16.416v50.923h-4.939v-43.323
		c-2.584,3.648-5.396,7.068-8.209,9.957c-0.531-1.217-1.977-3.801-2.963-5.017c7.6-7.372,14.896-18.772,19.305-30.478
		L1011.399,465.417z M1058.141,525.005v4.787h-49.857v-4.787H1058.141z M1051.53,514.819h-36.635v-45.678h36.635V514.819z
		 M1046.209,473.929h-26.145v15.505h26.145V473.929z M1046.209,494.147h-26.145v15.959h26.145V494.147z"/>
	<path fill="#FFFFFF" d="M20.231,594.21h4.864v9.35H39.84v4.561H25.096v13.375c6.004-0.76,11.325-1.596,17.025-2.279l0.152,4.637
		c-14.213,2.053-29.109,4.18-39.142,5.549l-0.836-5.018c4.788-0.531,11.021-1.367,17.937-2.279V608.12H5.334v-4.561h14.897V594.21z
		 M42.044,567.837v4.484H21.295c-2.812,5.396-6.232,12.16-9.349,16.342l20.825-2.129c-1.9-2.66-4.028-5.32-5.928-7.676l3.648-2.205
		c4.18,4.941,9.349,12.16,11.629,16.342l-3.876,2.432c-0.76-1.293-1.9-2.965-3.116-4.789c-23.865,2.434-26.905,2.813-28.653,3.422
		c-0.304-0.988-1.064-3.498-1.596-4.713c1.064-0.229,2.356-1.596,3.648-3.42c0.912-1.445,4.712-8.057,7.372-13.605H3.207v-4.484
		H42.044z M45.389,571.638h4.788v41.727h-4.788V571.638z M68.342,564.722v60.043c0,3.725-0.912,5.32-3.344,6.156
		c-2.432,0.76-6.916,0.912-12.997,0.912c-0.228-1.369-1.064-3.801-1.9-5.32c5.244,0.229,10.032,0.152,11.477,0.152
		c1.368-0.076,1.748-0.457,1.748-1.824v-60.119H68.342z"/>
	<path fill="#FFFFFF" d="M106.502,579.466c-1.9,3.572-4.332,7.221-6.84,10.564v42.182h-4.788v-36.254
		c-2.508,2.889-5.245,5.473-7.829,7.754c-0.608-1.064-2.052-3.422-3.04-4.408c6.764-5.32,13.681-13.377,17.937-21.434
		L106.502,579.466z M104.678,564.417c-4.104,6.309-10.944,13.301-17.101,17.861c-0.608-0.988-1.976-2.736-2.736-3.572
		c5.625-4.18,12.085-10.641,15.277-16.037L104.678,564.417z M146.708,603.331c-2.888,6.537-7.524,11.934-13.148,16.266
		c6.156,3.723,13.376,6.535,21.129,8.057c-1.064,1.063-2.356,2.963-3.04,4.332c-8.208-1.9-15.733-5.244-22.117-9.578
		c-7.145,4.561-15.581,7.754-24.017,9.654c-0.38-1.293-1.52-3.27-2.508-4.334c7.829-1.52,15.809-4.332,22.573-8.359
		c-3.648-3.041-6.84-6.461-9.424-10.336c-3.041,2.66-6.232,5.092-9.349,6.992c-0.684-0.912-2.356-2.813-3.42-3.725
		c7.145-3.953,14.061-9.881,18.697-16.645c-11.249,0.76-13.149,0.988-14.593,1.52c-0.152-0.988-0.912-3.344-1.444-4.561
		c2.052-0.229,4.789-1.596,8.285-3.648c1.824-0.988,5.624-3.344,10.032-6.385c-11.933,0.609-13.984,0.912-15.201,1.369
		c-0.228-1.064-0.912-3.344-1.444-4.637c1.216-0.229,2.888-1.367,4.712-2.889c1.9-1.596,8.361-7.523,12.769-13.604l4.636,2.203
		c-4.408,5.094-9.349,10.109-14.137,13.91l14.593-0.457c3.496-2.584,7.068-5.396,10.26-8.359l4.333,2.508
		c-9.197,7.6-18.773,14.137-28.122,19.152l25.689-1.367c-1.824-2.357-3.8-4.789-5.776-6.766l3.876-2.127
		c4.864,5.016,10.261,11.932,12.769,16.492l-4.18,2.432c-0.912-1.748-2.28-3.951-3.876-6.309l-17.557,1.141
		c-1.292,2.281-2.964,4.561-4.636,6.613h19.457l0.912-0.229L146.708,603.331z M129.531,616.86c4.18-3.041,7.752-6.689,10.336-10.869
		l-20.597,0.076C121.855,610.095,125.351,613.743,129.531,616.86z"/>
	<path fill="#FFFFFF" d="M203.642,596.567c6.765,11.629,19.685,22.572,32.53,27.438c-1.292,1.063-2.888,3.115-3.648,4.484
		c-10.717-4.713-21.357-13.605-28.882-23.791v27.135h-5.092v-27.059c-7.601,10.033-18.241,18.621-28.502,23.41
		c-0.76-1.217-2.356-3.117-3.572-4.18c12.236-5.018,25.005-15.734,32.074-26.982v-18.697h-29.49v-4.939h29.49v-10.641h5.092v10.641
		h30.478v4.939h-30.478V596.567z M187.377,581.214c-0.836,3.268-1.824,6.309-3.04,9.121c3.268,2.887,6.992,6.385,8.893,8.664
		l-3.497,3.42c-1.672-2.053-4.56-5.016-7.448-7.676c-2.66,4.863-5.928,8.969-9.805,12.16c-0.836-0.836-2.888-2.432-3.952-3.268
		c6.917-5.168,11.705-13.453,13.909-23.334L187.377,581.214z M223.175,581.138c-0.684,3.193-1.596,6.232-2.66,9.121
		c4.864,3.801,10.792,8.816,13.909,12.008l-3.572,3.496c-2.66-2.963-7.676-7.523-12.313-11.324c-1.9,3.725-4.256,6.916-6.917,9.5
		c-0.988-0.836-3.04-2.203-4.256-2.811c5.624-4.713,9.196-12.162,10.868-20.826L223.175,581.138z"/>
	<path fill="#FFFFFF" d="M275.7,607.815c5.928-2.508,9.197-6.156,9.577-11.629c-0.456,0.152-0.988,0.152-1.444,0.152
		c-2.964,0-5.396-1.672-5.396-5.168c0-3.42,2.584-5.168,5.472-5.168c4.028,0,6.156,3.268,6.156,8.436
		c0,8.133-5.092,14.213-12.769,17.025L275.7,607.815z"/>
	<path fill="#FFFFFF" d="M365.619,569.356c-0.228,41.879-0.228,54.799-2.508,58.297c-1.292,2.127-2.66,2.811-4.864,3.115
		c-2.128,0.305-5.548,0.152-8.968,0c-0.076-1.596-0.532-3.801-1.444-5.32c3.572,0.305,6.764,0.305,8.132,0.305
		c1.216,0,1.9-0.229,2.584-1.293c0.836-1.52,1.368-6.385,1.672-17.709h-13.605c-1.9,10.033-5.32,18.316-11.249,25.082
		c-0.76-0.912-2.964-2.889-4.104-3.648c5.32-5.549,8.513-12.77,10.413-21.434h-9.272v-4.561h10.109
		c0.684-4.104,1.064-8.512,1.368-13.225h-10.792v-4.561h11.021c0.152-4.256,0.228-8.664,0.304-13.301h-12.465v-4.635h33.67V569.356z
		 M360.298,602.19c0.076-3.799,0.152-8.207,0.152-13.225h-11.628c-0.304,4.713-0.76,9.121-1.368,13.225H360.298z M349.43,571.104
		c-0.076,4.713-0.152,9.045-0.38,13.301h11.477l0.076-13.301H349.43z M399.289,568.901c-3.268,6.916-7.524,15.43-11.401,22.422
		c8.208,7.219,10.489,13.072,10.489,18.393c0.076,4.332-1.14,7.828-3.876,9.424c-1.368,0.912-3.192,1.445-5.168,1.672
		c-2.356,0.229-5.396,0.229-7.904,0c-0.152-1.367-0.76-3.344-1.596-4.787c2.812,0.303,5.548,0.303,7.524,0.152
		c1.368,0,2.736-0.305,3.876-0.838c1.824-0.912,2.356-3.344,2.356-6.004c0-4.863-2.584-10.412-10.945-17.328
		c3.572-6.461,7.296-14.518,9.88-20.445h-15.353v60.195h-4.788v-64.984h22.573l0.836-0.227L399.289,568.901z"/>
	<path fill="#FFFFFF" d="M448.014,598.315c-12.161,1.748-25.081,3.42-34.05,4.561l-0.608-4.941l5.092-0.531V571.03h4.712v25.764
		l7.221-0.836v-33.213h4.94v13.225h12.16v4.637h-12.16v14.668l12.616-1.52L448.014,598.315z M414.42,624.917h66.808v5.016H414.42
		V624.917z M422.856,608.347h50.847v4.865h-50.847V608.347z M460.479,600.595c-6.917,0-8.816-1.672-8.816-7.904v-29.945h5.092
		v15.354c6.536-2.434,13.3-5.32,17.405-7.98l4.104,3.875c-6.004,3.193-13.984,6.232-21.509,8.588v10.109
		c0,2.584,0.608,3.117,4.18,3.117h12.464c3.116,0,3.648-1.521,4.028-10.033c1.14,0.836,3.192,1.672,4.636,2.053
		c-0.684,10.031-2.204,12.768-8.284,12.768H460.479z"/>
	<path fill="#FFFFFF" d="M552.83,599.987c-3.952,8.209-10.185,14.439-17.785,19.305c8.208,3.877,17.86,6.461,28.577,7.752
		c-1.063,1.217-2.432,3.344-3.115,4.713c-11.477-1.672-21.813-4.865-30.478-9.652c-9.197,4.787-19.913,7.828-30.934,9.652
		c-0.532-1.217-1.9-3.42-2.888-4.484c10.488-1.443,20.445-4.027,29.033-8.057c-6.612-4.332-12.008-9.805-15.96-16.266l0.38-0.15
		h-3.116v-4.713h41.954l1.064-0.229L552.83,599.987z M502.591,599.683h-4.788v-15.201h45.831c2.508-3.799,5.624-9.348,7.372-13.225
		l5.017,1.521c-2.129,3.875-4.865,8.283-7.297,11.703h13.453v15.201h-4.94v-10.717h-54.647V599.683z M557.618,566.47
		c-14.82,3.191-38.306,5.092-57.839,5.928c-0.076-1.293-0.76-3.115-1.216-4.332c19.381-0.836,42.714-2.813,55.483-5.625
		L557.618,566.47z M509.127,572.778c2.28,3.191,4.636,7.371,5.548,10.184l-4.484,1.52c-0.912-2.811-3.192-7.219-5.396-10.488
		L509.127,572.778z M514.751,602.8c3.724,5.547,8.968,10.107,15.353,13.832c6.309-3.572,11.553-8.209,15.201-13.832H514.751z
		 M528.812,583.798c-0.456-2.965-2.128-7.828-3.876-11.4l4.484-0.988c1.9,3.496,3.648,8.285,4.18,11.248L528.812,583.798z"/>
	<path fill="#FFFFFF" d="M599.426,564.265c-2.129,5.625-4.789,11.174-7.828,16.342v51.074h-4.865v-43.475
		c-2.584,3.725-5.32,7.145-8.132,10.033c-0.532-1.141-1.976-3.801-2.964-4.865c7.6-7.371,14.744-18.771,19.076-30.477
		L599.426,564.265z M614.323,604.548c-1.064,1.596-2.204,3.191-3.496,4.711H644.8c0,0-0.075,1.445-0.228,2.129
		c-1.217,12.084-2.584,16.873-4.561,18.85c-1.141,1.063-2.355,1.52-4.18,1.596c-1.445,0.076-4.181,0.076-6.992-0.152
		c-0.076-1.141-0.533-2.889-1.217-4.027c2.889,0.303,5.396,0.303,6.461,0.303c1.063,0,1.748-0.076,2.203-0.607
		c1.369-1.293,2.584-5.168,3.648-14.289h-6.916c-3.192,7.904-8.513,14.668-14.365,19.229c-0.76-0.684-2.432-2.051-3.42-2.736
		c5.473-3.875,10.261-9.729,13.148-16.492h-8.436c-4.029,7.297-10.338,13.682-16.722,18.014c-0.685-0.76-2.28-2.357-3.345-3.041
		c5.93-3.572,11.629-8.893,15.354-14.973h-7.904c-2.889,2.889-6.08,5.396-9.121,7.449c-0.607-0.762-2.279-2.357-3.191-3.117
		c5.32-3.191,10.641-7.828,14.213-12.844h-12.997v-3.953h50.923v3.953H614.323z M608.243,573.233
		c-2.508,4.484-5.396,8.588-8.209,11.629c-0.912-0.76-2.736-2.205-3.951-2.889c5.016-4.863,9.424-12.16,12.16-19.381l4.561,1.217
		c-0.685,1.824-1.521,3.648-2.433,5.396h34.81v4.027H608.243z M605.886,596.644v-19.23h33.974v19.23H605.886z M610.522,585.394
		h24.475v-4.635h-24.475V585.394z M610.522,593.298h24.475v-4.787h-24.475V593.298z"/>
	<path fill="#FFFFFF" d="M680.377,563.505c-1.217,3.725-2.66,7.98-4.029,11.248h12.846v49.1h-21.281v6.08h-4.637v-55.18h8.437
		c1.292-3.572,2.66-8.74,3.269-12.313L680.377,563.505z M684.557,579.313h-16.645v16.568h16.645V579.313z M684.557,619.292v-18.85
		h-16.645v18.85H684.557z M726.436,577.263c-1.217,34.885-2.281,46.514-5.32,50.162c-1.521,2.051-3.269,2.66-5.777,2.889
		c-2.584,0.227-6.916,0.074-11.172-0.152c-0.152-1.521-0.76-3.572-1.672-4.941c4.939,0.457,9.5,0.457,11.172,0.457
		c1.521,0,2.432-0.152,3.192-1.141c2.509-2.66,3.724-14.365,4.712-45.223h-19.912c-2.129,5.168-4.561,9.881-7.145,13.529
		c-0.912-0.76-3.117-2.129-4.257-2.813c5.169-6.764,9.272-17.252,11.629-27.742l4.864,1.064c-0.988,3.801-2.053,7.602-3.344,11.25
		h23.029V577.263z M710.247,611.464c-2.355-4.637-7.524-12.16-11.781-17.633l3.877-2.281c4.408,5.396,9.729,12.693,12.16,17.254
		L710.247,611.464z"/>
	<path fill="#FFFFFF" d="M756.616,608.499c2.888-1.291,5.852-2.584,8.893-3.801l1.063,4.484
		c-8.132,3.725-16.646,7.525-23.257,10.414l-1.977-5.018c2.889-0.988,6.536-2.508,10.488-4.18v-24.701h-9.881v-4.789h9.881v-17.404
		h4.789v17.404h9.044v4.789h-9.044V608.499z M801.001,625.524c4.484,0,5.244-2.053,5.776-11.021
		c1.216,0.912,3.116,1.748,4.561,2.053c-0.836,10.26-2.433,13.529-10.186,13.529H782c-8.437,0-10.793-1.9-10.793-9.652v-24.777
		l-6.384,2.736l-1.976-4.408l8.359-3.496v-20.902h4.789v18.85l10.944-4.637v-21.205h4.788v19.229l10.793-4.559l1.14-0.988
		l0.912-0.836l3.572,1.443l-0.228,0.988c0,14.137-0.229,25.918-0.836,28.729c-0.457,3.041-1.9,4.332-4.105,4.789
		c-1.976,0.455-4.939,0.455-6.992,0.455c-0.228-1.367-0.607-3.268-1.216-4.408c1.9,0.152,4.484,0.152,5.32,0.152
		c1.14,0,1.976-0.379,2.356-2.127c0.455-1.977,0.607-10.945,0.607-23.258l-11.324,4.789v28.121h-4.788v-26.146l-10.944,4.637v26.83
		c0,4.104,0.988,5.092,6.08,5.092H801.001z"/>
	<path fill="#FFFFFF" d="M852.614,580.833c-0.228,4.182-0.607,8.361-1.14,12.617h32.302c0,0-0.076,1.748-0.152,2.508
		c-1.596,21.586-3.039,29.719-6.08,32.682c-1.596,1.748-3.344,2.281-6.156,2.434c-2.584,0.15-7.524,0.076-12.617-0.305
		c-0.151-1.52-0.836-3.572-1.748-4.863c5.396,0.455,10.717,0.531,12.693,0.531c1.672,0,2.66-0.152,3.572-0.912
		c2.204-1.977,3.648-9.424,5.016-27.209h-27.589c-2.433,13.527-8.132,26.221-22.573,33.746c-0.76-1.293-2.355-3.041-3.648-3.953
		c19.686-9.729,21.662-29.717,22.573-47.275h-20.825v-4.863h65.06v4.863H852.614z M859.758,575.817
		c-1.063-3.039-3.344-7.98-5.32-11.629l4.865-1.9c1.976,3.648,4.408,8.285,5.396,11.326L859.758,575.817z"/>
	<path fill="#FFFFFF" d="M975.444,593.755v5.473h-69.012v-5.473H975.444z"/>
	<path fill="#FFFFFF" d="M1025.459,624.536c3.953,0.836,8.438,1.064,13.074,1.064c2.508,0,15.656,0,19.076-0.076
		c-0.836,1.291-1.672,3.648-1.9,5.092h-17.404c-16.113,0-27.742-2.736-34.658-16.189c-2.584,7.297-6.309,13.227-11.477,17.709
		c-0.836-0.912-2.889-2.66-4.104-3.42c8.512-6.611,12.691-17.48,14.363-31.236l5.094,0.531c-0.457,3.496-1.141,6.84-1.824,9.957
		c3.039,8.359,8.057,12.768,14.592,15.201v-32.303h-19.305v-4.863h44.463v4.863h-19.99v12.922h22.879v4.787h-22.879V624.536z
		 M996.502,587.294h-4.939v-16.037h29.793c-0.912-2.355-2.355-5.32-3.725-7.676l4.941-1.367c1.748,2.811,3.648,6.611,4.561,9.043
		h27.209v16.037h-5.092v-11.172h-52.748V587.294z"/>
	<path fill="#FFFFFF" d="M38.7,661.593c8.437,8.285,21.813,15.43,33.518,19.002c-1.064,1.063-2.204,2.887-2.964,4.18
		c-6.08-2.129-12.845-5.32-19.001-8.969v3.42H23.956v-3.572c-5.853,3.648-12.617,7.068-19.381,9.652
		c-0.608-1.139-1.749-2.963-2.66-3.951c12.92-4.484,25.689-12.389,32.074-19.762H38.7z M11.719,683.558H62.87v18.85H11.719V683.558z
		 M16.051,698.835h18.545V687.13H16.051V698.835z M16.279,706.208h42.258v24.549h-5.016v-2.355H21.144v2.432h-4.864V706.208z
		 M24.64,688.194c2.128,2.66,4.104,6.232,4.788,8.664l-3.876,1.52c-0.684-2.432-2.584-6.156-4.561-8.967L24.64,688.194z
		 M21.144,709.931v5.396h32.377v-5.396H21.144z M53.521,724.677v-5.625H21.144v5.625H53.521z M49.797,675.501
		c-5.092-3.039-9.729-6.459-13.225-9.805c-3.04,3.27-7.373,6.613-12.389,9.805H49.797z M58.233,687.13H38.776v11.705h19.457V687.13z
		 M44.097,697.087c1.52-2.508,3.496-6.613,4.484-9.197l4.332,1.445c-1.748,3.344-3.724,6.764-5.244,9.043L44.097,697.087z"/>
	<path fill="#FFFFFF" d="M134.841,711.376c-3.8,4.332-8.968,7.752-14.897,10.488c8.589,2.508,18.317,4.18,27.894,5.016
		c-0.988,1.064-2.052,2.889-2.66,4.105c-10.716-1.141-21.585-3.346-31.162-6.689c-10.032,3.572-21.889,5.625-33.441,7.068
		c-0.456-1.141-1.596-3.268-2.432-4.332c10.412-0.912,20.901-2.508,29.945-5.168c-5.32-2.205-10.032-4.939-13.833-8.057
		c-3.648,2.889-7.829,5.244-11.781,7.068c-0.608-0.836-2.204-2.889-3.116-3.877c7.904-3.115,15.885-8.283,20.065-14.668l4.408,1.367
		c-0.836,1.293-1.672,2.51-2.736,3.725h43.93v3.953H134.841z M84.755,693.134c-0.608,4.408-1.672,9.35-2.888,12.617
		c-0.684-0.379-2.204-1.367-3.041-1.824c1.216-3.268,1.9-7.523,2.432-11.477L84.755,693.134z M98.056,691.007
		c-0.228-0.912-0.456-2.053-0.836-3.268c-13.453,1.975-15.429,2.432-16.569,3.039c-0.228-0.912-0.684-2.889-1.216-3.877
		c1.292-0.15,2.812-1.443,4.56-3.191c0.912-0.836,2.964-3.039,5.32-5.775c-6.232,0.531-7.752,0.836-8.588,1.215
		c-0.228-0.912-0.76-2.887-1.292-3.875c0.988-0.229,1.976-0.988,3.04-2.357c1.14-1.215,4.94-6.383,6.992-11.324l3.876,1.369
		c-2.204,4.332-5.092,8.664-7.752,11.855l6.536-0.379c1.444-1.977,2.964-3.953,4.18-6.006l3.725,1.672
		c-4.181,5.93-8.817,11.477-13.453,15.887l9.577-1.217c-0.608-1.672-1.292-3.344-1.976-4.789l3.116-0.836
		c1.748,3.496,3.496,8.057,3.952,10.793L98.056,691.007z M89.087,703.698c-0.076-2.811-0.76-7.219-1.444-10.639l3.192-0.686
		c0.912,3.346,1.596,7.754,1.748,10.564L89.087,703.698z M97.751,691.767c1.14,2.965,2.28,6.84,2.66,9.424l-3.268,1.064
		c-0.38-2.66-1.444-6.611-2.356-9.652L97.751,691.767z M97.6,711.376c4.18,3.344,9.804,6.232,16.341,8.588
		c5.852-2.279,10.868-5.092,14.593-8.588H97.6z M124.581,671.474h-23.41v-3.344h10.109c-0.684-1.824-1.672-3.725-2.66-5.396
		l3.876-1.217c1.292,1.9,2.66,4.637,3.344,6.613h8.741V671.474z M123.061,678.161h-20.369v-3.115h20.369V678.161z M122.985,685.003
		h-20.293v-3.193h20.293V685.003z M103.147,702.636V689.03h19.381v13.605H103.147z M106.568,699.442h12.389v-7.221h-12.389V699.442z
		 M143.658,690.854c-0.152-0.988-0.456-2.205-0.836-3.572c-13.604,1.977-15.581,2.432-16.721,3.041
		c-0.152-0.912-0.76-2.813-1.216-3.801c1.216-0.152,2.736-1.443,4.484-3.191c0.912-0.762,2.964-2.889,5.168-5.625
		c-6.308,0.531-7.828,0.836-8.588,1.141c-0.228-0.836-0.836-2.813-1.368-3.801c0.988-0.152,1.976-0.988,3.04-2.281
		c1.064-1.291,4.864-6.383,6.992-11.4l3.876,1.521c-2.28,4.332-5.168,8.588-7.905,11.779l6.612-0.379
		c1.521-1.9,3.041-4.029,4.256-6.08l3.648,1.672c-4.104,5.775-8.513,11.324-12.921,15.656l9.653-1.217
		c-0.608-1.596-1.292-3.344-1.977-4.787l3.269-0.836c1.748,3.572,3.42,8.283,3.876,11.172L143.658,690.854z M130.433,692.907
		c-0.608,3.951-1.672,8.664-2.66,11.779c-0.684-0.531-2.28-1.443-3.192-1.824c1.14-3.191,1.748-7.143,2.28-10.791L130.433,692.907z
		 M134.993,703.396c-0.076-2.889-0.608-7.297-1.444-10.717l3.268-0.607c0.836,3.42,1.52,7.828,1.596,10.641L134.993,703.396z
		 M143.506,702.938c-0.532-2.963-1.748-7.523-2.812-11.096l3.04-0.76c1.292,3.42,2.508,7.98,3.04,10.943L143.506,702.938z"/>
	<path fill="#FFFFFF" d="M218.138,687.282c-3.268,9.881-7.676,18.469-13.301,25.689c2.888,7.752,6.537,12.236,10.641,12.236
		c2.204,0,3.192-3.951,3.648-14.061c1.14,1.141,3.04,2.279,4.332,2.66c-0.912,12.693-2.812,16.492-8.36,16.492
		c-5.853,0-10.489-4.863-14.061-12.844c-4.712,5.092-10.108,9.424-16.265,12.996c-0.76-1.064-2.508-3.115-3.648-4.104
		c6.916-3.648,12.92-8.438,18.013-14.289c-2.964-8.74-4.788-19.838-5.7-32.301h-27.133v10.26h19.533v2.279
		c-0.38,17.178-0.836,23.486-2.432,25.387c-1.064,1.443-2.28,1.9-4.332,2.127c-1.976,0.152-5.472,0.152-9.197-0.076
		c-0.076-1.52-0.608-3.42-1.444-4.711c3.648,0.303,6.992,0.303,8.36,0.303c1.064,0,1.824-0.076,2.356-0.76
		c1.064-1.215,1.444-6.156,1.749-19.912h-14.593v1.367c0,10.488-1.14,25.385-8.057,35.342c-0.836-0.988-2.964-2.813-4.18-3.42
		c6.384-9.271,7.068-22.27,7.068-31.998v-21.129h31.922c-0.228-4.256-0.38-8.664-0.38-13.072h5.245
		c0,4.484,0.076,8.893,0.304,13.072h24.625v4.941h-24.246c0.76,10.564,2.28,19.988,4.333,27.361
		c4.256-6.156,7.676-13.225,10.26-21.129L218.138,687.282z M215.706,674.362c-2.888-2.66-8.893-6.537-13.681-9.045l2.964-3.117
		c4.864,2.357,10.792,6.082,13.833,8.742L215.706,674.362z"/>
	<path fill="#FFFFFF" d="M294.746,694.503c-3.42,6.461-7.98,12.617-13.3,18.088c2.888,8.438,6.536,13.453,10.64,13.453
		c2.128,0,3.116-3.951,3.572-13.756c1.064,0.988,2.888,2.127,4.256,2.66c-0.912,12.465-2.812,16.188-8.285,16.188
		c-6.08,0-10.792-5.547-14.289-14.592c-5.016,4.408-10.641,8.361-16.341,11.477c-0.836-1.293-2.356-2.965-3.572-4.027
		c6.46-3.193,12.693-7.525,18.165-12.617c-1.824-6.385-3.268-13.984-4.256-22.422H253.02V701.8c4.56-0.988,9.196-2.053,13.833-3.117
		l0.38,4.561l-14.213,3.344v17.557c0,3.496-0.912,5.018-3.116,5.854c-2.356,0.836-6.308,1.064-12.541,0.988
		c-0.228-1.445-1.14-3.648-1.9-5.094c4.94,0.152,9.424,0.076,10.716,0c1.368,0,1.824-0.379,1.824-1.748v-16.34
		c-5.853,1.443-11.477,2.66-16.113,3.725l-1.444-5.094c4.636-0.836,10.869-2.127,17.557-3.646v-13.834h-16.569v-4.787h16.569
		v-12.846c-4.864,0.988-9.729,1.824-14.365,2.508c-0.228-1.215-0.988-2.963-1.596-4.18c10.564-1.672,22.953-4.332,30.021-6.992
		l3.648,4.18c-3.648,1.217-7.98,2.432-12.693,3.496v13.834h17.785c-0.608-6.918-0.988-14.365-1.064-21.891h5.245
		c0,7.754,0.304,15.049,0.988,21.891h22.573v4.787h-22.041c0.836,6.84,1.9,12.922,3.268,18.242
		c4.256-4.561,7.829-9.426,10.489-14.594L294.746,694.503z M292.466,679.302c-2.432-3.572-7.601-9.045-12.161-12.996l3.876-2.584
		c4.484,3.723,9.805,9.119,12.389,12.615L292.466,679.302z"/>
	<path fill="#FFFFFF" d="M325.751,663.341c-1.672,5.016-3.648,10.109-5.928,14.896v52.596h-4.864v-43.475
		c-2.356,4.027-4.94,7.752-7.601,10.869c-0.456-1.141-1.824-3.801-2.736-5.018c6.688-7.676,12.769-19.305,16.493-31.16
		L325.751,663.341z M347.336,693.286h-15.429v37.395h-4.712v-64.604h20.141V693.286z M331.908,670.181v7.373h11.325v-7.373H331.908z
		 M343.232,689.183v-7.752h-11.325v7.752H343.232z M373.102,723.993c0,3.496-0.836,5.092-3.268,5.928
		c-2.433,0.836-6.841,0.912-13.985,0.912c-0.304-1.369-1.14-3.572-1.9-4.941c5.625,0.229,10.869,0.152,12.313,0.076
		c1.52,0,2.052-0.455,2.052-2.051v-30.631h-16.188v-27.209h20.977V723.993z M356.305,670.181v7.373h12.008v-7.373H356.305z
		 M368.313,689.183v-7.752h-12.008v7.752H368.313z"/>
	<path fill="#FFFFFF" d="M414.292,694.655v36.102h-4.712v-7.676c-9.5,1.443-19.077,2.734-26.221,3.646l-0.608-4.482
		c2.204-0.229,4.864-0.533,7.6-0.912v-26.678h-6.688v-4.256h66.427v4.256H414.292z M397.647,687.739h-4.94v-23.639h49.555v23.639
		h-5.092v-19.762h-39.522V687.739z M409.58,694.655h-14.668v5.547h14.668V694.655z M409.58,704.079h-14.668v5.625h14.668V704.079z
		 M394.911,720.8c4.636-0.607,9.576-1.215,14.668-1.824v-5.396h-14.668V720.8z M433.065,676.11h-32.149v-3.496h32.149V676.11z
		 M433.141,684.167h-32.15v-3.496h32.15V684.167z M447.886,700.812c-2.28,7.145-6.232,12.996-11.097,17.709
		c4.408,3.268,9.577,5.775,15.353,7.221c-1.064,0.986-2.432,2.734-3.04,4.027c-5.928-1.748-11.173-4.637-15.657-8.285
		c-4.94,3.953-10.489,6.842-16.189,8.816c-0.532-1.215-1.824-3.039-2.736-4.027c5.396-1.596,10.717-4.256,15.429-7.904
		c-3.952-4.104-7.144-8.969-9.424-14.518h-3.268v-4.104h26.677l0.912-0.229L447.886,700.812z M425.084,703.851
		c2.052,4.408,4.789,8.361,8.208,11.629c3.496-3.268,6.46-7.145,8.437-11.629H425.084z"/>
	<path fill="#FFFFFF" d="M483.452,699.671c0,0-0.076,1.596-0.152,2.355c-1.14,17.33-2.204,23.715-4.333,25.994
		c-1.292,1.443-2.66,1.977-4.712,2.053c-1.9,0.227-5.245,0.15-8.741-0.076c-0.076-1.369-0.608-3.344-1.444-4.637
		c3.572,0.305,6.916,0.381,8.132,0.381c1.292,0,1.976-0.152,2.66-0.836c1.368-1.445,2.508-6.918,3.344-20.598h-19.229
		c0.988-5.549,2.128-14.441,2.736-21.129h16.189v-12.77h-18.165v-4.637h22.877v22.041h-16.721
		c-0.456,4.029-1.064,8.209-1.596,11.857H483.452z M523.582,731.364c-0.532-1.52-1.368-3.268-2.356-5.168
		c-13.148,1.064-26.981,2.053-36.558,2.736l-0.76-4.865c5.016-0.303,11.553-0.684,18.697-1.139v-11.781h-15.429v-19.762h15.429
		v-7.676h4.864v7.676h16.037v19.762h-16.037v11.477c3.648-0.229,7.449-0.455,11.249-0.76c-1.521-2.432-3.192-4.939-4.864-7.068
		l4.18-1.824c4.028,5.016,8.284,11.705,9.957,16.266L523.582,731.364z M522.67,686.751c-0.836-1.445-2.052-3.346-3.496-5.244
		c-26.906,2.279-29.946,2.66-31.846,3.344c-0.228-0.912-1.064-3.27-1.596-4.484c1.14-0.229,2.508-1.445,3.952-3.193
		c1.596-1.822,6.84-8.588,9.957-15.123l5.244,1.367c-3.572,5.852-7.752,11.705-11.705,16.113l23.105-1.9
		c-1.976-2.432-3.953-4.789-5.929-6.84l3.648-2.205c4.636,4.789,10.033,11.324,12.465,15.582L522.67,686.751z M502.604,706.892
		v-11.248H491.66v11.248H502.604z M507.469,695.644v11.248h11.325v-11.248H507.469z"/>
	<path fill="#FFFFFF" d="M552.763,661.745h4.788v69.088h-4.788v-26.83h-9.196v2.129c0,6.688-0.912,17.252-5.776,24.854
		c-0.836-0.912-2.736-2.053-3.952-2.66c4.484-6.918,5.092-16.342,5.092-22.346v-1.977h-4.484v-4.637h18.317V687.89h-14.973V664.86
		h4.636v18.395h10.337V661.745z M584.534,691.69v31.77h17.404v4.865h-39.75v-4.865h17.328v-31.77h-19.152v-4.863h19.152v-25.082
		h5.018v25.082h19.229v4.863H584.534z"/>
	<path fill="#FFFFFF" d="M631.043,662.505c-1.216,3.725-2.66,7.98-4.028,11.248h12.845v49.1h-21.281v6.08h-4.637v-55.18h8.438
		c1.291-3.572,2.66-8.74,3.268-12.313L631.043,662.505z M635.223,678.313h-16.645v16.568h16.645V678.313z M635.223,718.292v-18.85
		h-16.645v18.85H635.223z M677.102,676.263c-1.217,34.885-2.28,46.514-5.32,50.162c-1.52,2.051-3.268,2.66-5.776,2.889
		c-2.584,0.227-6.917,0.074-11.173-0.152c-0.152-1.521-0.76-3.572-1.672-4.941c4.94,0.457,9.5,0.457,11.172,0.457
		c1.521,0,2.433-0.152,3.193-1.141c2.508-2.66,3.724-14.365,4.712-45.223h-19.913c-2.129,5.168-4.561,9.881-7.145,13.529
		c-0.912-0.76-3.116-2.129-4.256-2.813c5.168-6.764,9.271-17.252,11.629-27.742l4.863,1.064c-0.988,3.801-2.052,7.602-3.344,11.25
		h23.029V676.263z M660.913,710.464c-2.355-4.637-7.523-12.16-11.78-17.633l3.876-2.281c4.408,5.396,9.729,12.693,12.161,17.254
		L660.913,710.464z"/>
	<path fill="#FFFFFF" d="M701.116,707.499c2.888-1.291,5.852-2.584,8.893-3.801l1.063,4.484
		c-8.132,3.725-16.646,7.525-23.257,10.414l-1.977-5.018c2.889-0.988,6.536-2.508,10.488-4.18v-24.701h-9.881v-4.789h9.881v-17.404
		h4.789v17.404h9.044v4.789h-9.044V707.499z M745.501,724.524c4.484,0,5.244-2.053,5.776-11.021
		c1.216,0.912,3.116,1.748,4.561,2.053c-0.836,10.26-2.433,13.529-10.186,13.529H726.5c-8.437,0-10.793-1.9-10.793-9.652v-24.777
		l-6.384,2.736l-1.976-4.408l8.359-3.496v-20.902h4.789v18.85l10.944-4.637v-21.205h4.788v19.229l10.793-4.559l1.14-0.988
		l0.912-0.836l3.572,1.443l-0.228,0.988c0,14.137-0.229,25.918-0.836,28.729c-0.457,3.041-1.9,4.332-4.105,4.789
		c-1.976,0.455-4.939,0.455-6.992,0.455c-0.228-1.367-0.607-3.268-1.216-4.408c1.9,0.152,4.484,0.152,5.32,0.152
		c1.14,0,1.976-0.379,2.356-2.127c0.455-1.977,0.607-10.945,0.607-23.258l-11.324,4.789v28.121h-4.788v-26.146l-10.944,4.637v26.83
		c0,4.104,0.988,5.092,6.08,5.092H745.501z"/>
	<path fill="#FFFFFF" d="M790.948,679.833c-0.229,4.182-0.607,8.361-1.141,12.617h32.303c0,0-0.076,1.748-0.152,2.508
		c-1.596,21.586-3.04,29.719-6.08,32.682c-1.596,1.748-3.344,2.281-6.156,2.434c-2.584,0.15-7.525,0.076-12.617-0.305
		c-0.152-1.52-0.836-3.572-1.748-4.863c5.396,0.455,10.717,0.531,12.693,0.531c1.672,0,2.66-0.152,3.572-0.912
		c2.203-1.977,3.647-9.424,5.016-27.209h-27.59c-2.432,13.527-8.132,26.221-22.572,33.746c-0.761-1.293-2.356-3.041-3.648-3.953
		c19.685-9.729,21.66-29.717,22.572-47.275h-20.824v-4.863h65.059v4.863H790.948z M798.092,674.817
		c-1.064-3.039-3.344-7.98-5.32-11.629l4.864-1.9c1.976,3.648,4.408,8.285,5.396,11.326L798.092,674.817z"/>
	<path fill="#FFFFFF" d="M884.657,696.327c0,6.309-5.168,11.477-11.477,11.477c-6.232,0-11.477-5.168-11.477-11.477
		s5.244-11.477,11.477-11.477C879.489,684.851,884.657,690.019,884.657,696.327z M881.008,696.327c0-4.332-3.42-7.828-7.828-7.828
		c-4.332,0-7.828,3.496-7.828,7.828c0,4.408,3.496,7.828,7.828,7.828C877.588,704.155,881.008,700.735,881.008,696.327z"/>
</g>
<g>
	<g>
		<path fill="#737F8A" d="M32.9,2.975l-16.45,28.49L0,2.975H32.9z"/>
		<path fill="#737F8A" d="M45.22,30.065l-1.505-0.805c0.606-0.747,1.16-1.61,1.663-2.59c0.501-0.98,0.939-1.983,1.313-3.01
			c0.373-1.026,0.688-1.983,0.945-2.87l1.47,0.525c-0.28,0.91-0.607,1.902-0.98,2.975c-0.374,1.074-0.799,2.112-1.277,3.115
			C46.369,28.408,45.826,29.295,45.22,30.065z M71.12,1.575v15.26H47.005V1.575H71.12z M48.65,3.15v5.285h9.695V3.15H48.65z
			 M48.65,9.94v5.355h9.695V9.94H48.65z M56.104,29.365h7.7c0.63,0,1.097-0.111,1.4-0.333c0.303-0.221,0.519-0.676,0.647-1.365
			c0.128-0.688,0.216-1.733,0.263-3.133c0.233,0.164,0.501,0.304,0.805,0.42c0.303,0.117,0.571,0.199,0.805,0.245
			c-0.093,1.54-0.251,2.725-0.472,3.553c-0.222,0.828-0.59,1.4-1.103,1.715c-0.514,0.315-1.272,0.473-2.275,0.473h-7.77
			c-1.633,0-2.742-0.181-3.325-0.542c-0.583-0.362-0.875-1.091-0.875-2.188v-7.665h1.68v7.665c0,0.467,0.151,0.776,0.455,0.927
			S55.031,29.365,56.104,29.365z M63.735,23.1l-1.155,1.19c-0.537-0.513-1.225-1.085-2.065-1.715s-1.738-1.254-2.695-1.873
			c-0.957-0.618-1.89-1.16-2.8-1.627l1.12-1.05c0.91,0.467,1.843,0.992,2.8,1.575c0.956,0.583,1.86,1.179,2.712,1.785
			C62.504,21.992,63.198,22.563,63.735,23.1z M69.475,8.435V3.15h-9.52v5.285H69.475z M69.475,15.295V9.94h-9.52v5.355H69.475z
			 M67.9,20.93l1.505-0.63c0.7,0.887,1.394,1.855,2.083,2.905c0.688,1.05,1.307,2.077,1.855,3.08
			c0.548,1.003,0.962,1.902,1.243,2.695l-1.61,0.735c-0.28-0.793-0.683-1.703-1.208-2.73c-0.525-1.026-1.126-2.07-1.802-3.133
			C69.288,22.791,68.6,21.817,67.9,20.93z"/>
		<path fill="#737F8A" d="M85.26,13.405l-0.945,1.365c-0.42-0.396-0.963-0.828-1.628-1.295c-0.665-0.466-1.377-0.921-2.135-1.365
			c-0.758-0.443-1.511-0.828-2.257-1.155l0.98-1.19c0.723,0.304,1.464,0.671,2.222,1.103c0.758,0.432,1.47,0.864,2.135,1.295
			C84.297,12.594,84.84,13.008,85.26,13.405z M84.77,18.9l1.33,0.945c-0.513,1.213-1.08,2.497-1.697,3.85
			c-0.619,1.354-1.249,2.677-1.89,3.973c-0.642,1.295-1.254,2.467-1.837,3.517l-1.47-1.015c0.537-0.91,1.132-1.995,1.785-3.255
			c0.653-1.26,1.313-2.59,1.978-3.99S84.233,20.183,84.77,18.9z M86.905,4.375L85.89,5.74c-0.397-0.443-0.916-0.916-1.558-1.417
			c-0.642-0.501-1.336-0.992-2.083-1.47c-0.747-0.478-1.482-0.892-2.205-1.242l1.015-1.19c0.7,0.35,1.423,0.752,2.17,1.208
			s1.447,0.922,2.1,1.4C85.983,3.506,86.508,3.955,86.905,4.375z M108.255,19.285h-7.035v10.43c0,0.49-0.07,0.869-0.21,1.137
			s-0.409,0.461-0.805,0.578c-0.374,0.14-0.934,0.222-1.68,0.245c-0.747,0.023-1.727,0.023-2.94,0
			c-0.047-0.187-0.123-0.42-0.228-0.7c-0.105-0.28-0.205-0.537-0.298-0.77c0.957,0.023,1.791,0.035,2.502,0.035s1.184,0,1.417,0
			c0.42-0.023,0.63-0.198,0.63-0.525v-10.43h-6.72V7.56h5.845c0.187-0.653,0.373-1.376,0.56-2.17c0.187-0.793,0.326-1.516,0.42-2.17
			H90.37v7.945c0,1.494-0.052,3.115-0.157,4.865s-0.315,3.529-0.63,5.337c-0.315,1.809-0.782,3.57-1.4,5.285
			c-0.619,1.715-1.441,3.308-2.467,4.777c-0.14-0.117-0.356-0.269-0.647-0.455c-0.292-0.187-0.531-0.315-0.718-0.385
			c1.003-1.447,1.796-2.993,2.38-4.638c0.583-1.645,1.021-3.331,1.313-5.057c0.292-1.727,0.478-3.418,0.56-5.075
			c0.082-1.657,0.123-3.208,0.123-4.655v-9.52h21.07V3.22h-8.785l0.56,0.14c-0.21,0.677-0.42,1.389-0.63,2.135
			c-0.21,0.747-0.409,1.435-0.595,2.065h7.91V19.285z M94.5,21.56l1.575,0.42c-0.583,1.377-1.295,2.747-2.135,4.112
			c-0.84,1.365-1.704,2.526-2.59,3.482c-0.164-0.117-0.391-0.28-0.683-0.49c-0.292-0.21-0.542-0.362-0.752-0.455
			c0.933-0.933,1.797-2.024,2.59-3.272C93.298,24.109,93.963,22.843,94.5,21.56z M94.465,8.995v3.675h12.18V8.995H94.465z
			 M94.465,14.105v3.745h12.18v-3.745H94.465z M104.37,21.98l1.435-0.63c0.606,0.7,1.208,1.476,1.803,2.328
			c0.595,0.852,1.137,1.686,1.627,2.502c0.49,0.817,0.863,1.552,1.12,2.205l-1.54,0.735c-0.234-0.653-0.59-1.394-1.068-2.222
			c-0.479-0.828-1.009-1.674-1.592-2.538C105.571,23.497,104.976,22.703,104.37,21.98z"/>
		<path fill="#737F8A" d="M144.69,21.665v1.54h-30.905v-1.54h14.56v-3.99h-11.62v-1.47h11.62V12.6H117.39V1.435h23.45V12.6h-10.85
			v3.605h11.655v1.47H129.99v3.99H144.69z M115.5,31.85l-1.47-0.77c0.816-0.677,1.575-1.557,2.275-2.642
			c0.7-1.085,1.271-2.164,1.715-3.238l1.54,0.42c-0.443,1.074-1.015,2.188-1.715,3.343C117.145,30.117,116.363,31.08,115.5,31.85z
			 M119,11.095h9.345v-8.19H119V11.095z M121.66,4.48l1.225-0.455c0.56,0.863,1.085,1.797,1.575,2.8
			c0.49,1.003,0.816,1.867,0.98,2.59l-1.33,0.56c-0.164-0.746-0.479-1.633-0.945-2.66S122.196,5.343,121.66,4.48z M123.935,25.865
			l1.575-0.07c0.233,0.863,0.425,1.82,0.578,2.87c0.151,1.05,0.228,1.913,0.228,2.59L124.67,31.5c0-0.7-0.065-1.587-0.193-2.66
			C124.349,27.767,124.167,26.775,123.935,25.865z M139.16,11.095v-8.19h-9.17v8.19H139.16z M131.215,25.9l1.575-0.28
			c0.42,0.864,0.828,1.814,1.225,2.853c0.396,1.038,0.688,1.908,0.875,2.607l-1.645,0.42c-0.164-0.724-0.438-1.616-0.822-2.678
			C132.037,27.761,131.635,26.787,131.215,25.9z M133.245,10.43l-1.12-0.56c0.35-0.513,0.718-1.114,1.103-1.802
			c0.385-0.688,0.758-1.388,1.12-2.1c0.361-0.711,0.659-1.359,0.893-1.942l1.4,0.595c-0.514,0.98-1.073,2.007-1.68,3.08
			C134.353,8.773,133.781,9.683,133.245,10.43z M138.425,25.795l1.505-0.56c0.606,0.56,1.213,1.19,1.82,1.89
			c0.607,0.7,1.173,1.388,1.698,2.065c0.525,0.676,0.95,1.283,1.277,1.82l-1.54,0.7c-0.303-0.537-0.717-1.15-1.242-1.838
			c-0.525-0.688-1.091-1.388-1.698-2.1C139.638,27.061,139.031,26.402,138.425,25.795z"/>
		<path fill="#737F8A" d="M162.33,15.645h-1.435V12.25h-10.29v3.395h-1.4v-4.76h1.995V1.33h9.135v9.555h1.995V15.645z
			 M160.335,15.085V29.82c0,0.863-0.28,1.4-0.84,1.61c-0.327,0.117-0.788,0.187-1.382,0.21c-0.595,0.023-1.383,0.035-2.363,0.035
			c-0.023-0.187-0.093-0.409-0.21-0.665c-0.117-0.257-0.233-0.49-0.35-0.7c0.746,0.023,1.405,0.035,1.977,0.035
			s0.939-0.012,1.103-0.035c0.35,0,0.525-0.163,0.525-0.49v-4.41h-6.125v6.3h-1.505V15.085H160.335z M152.6,2.73v8.155h2.24v-5.39
			h4.025V2.73H152.6z M158.795,16.45h-6.125v3.045h6.125V16.45z M152.67,24.045h6.125v-3.15h-6.125V24.045z M158.865,10.885V6.79
			h-2.73v4.095H158.865z M174.055,29.505h6.09v1.4h-18.13v-1.4h5.81c-0.093-0.583-0.257-1.23-0.49-1.942
			c-0.234-0.712-0.514-1.359-0.84-1.943l1.33-0.42c0.35,0.607,0.653,1.29,0.91,2.047c0.256,0.759,0.431,1.417,0.525,1.978
			l-0.805,0.28h5.04l-0.7-0.28c0.28-0.583,0.577-1.26,0.892-2.03c0.315-0.77,0.554-1.446,0.718-2.03l1.47,0.525
			c-0.303,0.653-0.612,1.318-0.927,1.995C174.632,28.362,174.335,28.968,174.055,29.505z M179.97,15.225v1.4h-17.395v-1.4H179.97z
			 M178.535,3.395v9.765h-14.7V3.395h4.305V0h1.4v3.395h3.08V0h1.4v3.395H178.535z M177.765,24.955h-13.16v-6.3h13.16V24.955z
			 M165.235,4.725V7.56h3.045V4.725H165.235z M165.235,8.925v2.905h3.045V8.925H165.235z M166.11,19.95v3.71h10.115v-3.71H166.11z
			 M169.54,7.56h3.08V4.725h-3.08V7.56z M172.62,8.925h-3.08v2.905h3.08V8.925z M177.065,7.56V4.725h-3.185V7.56H177.065z
			 M177.065,11.83V8.925h-3.185v2.905H177.065z"/>
	</g>
</g>
<g>
	<g>
		<path fill="#6FCACA" d="M32.9,404.071l-16.45,28.49L0,404.071H32.9z"/>
		<path fill="#6FCACA" d="M54.32,403.722v22.33h-8.05v2.73h-1.645v-25.06H54.32z M52.745,405.296H46.27v8.61h6.475V405.296z
			 M46.27,424.477h6.475v-9.03H46.27V424.477z M55.86,402.847h17.815c0,0.42-0.012,0.7-0.035,0.84
			c-0.14,2.59-0.292,4.672-0.455,6.248c-0.164,1.575-0.344,2.771-0.542,3.587c-0.198,0.817-0.449,1.389-0.752,1.715
			c-0.49,0.49-1.144,0.747-1.96,0.77c-0.374,0.023-0.91,0.03-1.61,0.018c-0.7-0.011-1.447-0.041-2.24-0.087
			c-0.023-0.256-0.07-0.525-0.14-0.805c-0.07-0.28-0.187-0.536-0.35-0.77c0.84,0.07,1.615,0.117,2.327,0.14
			c0.712,0.023,1.196,0.035,1.453,0.035c0.537,0,0.921-0.117,1.155-0.35c0.21-0.233,0.396-0.7,0.56-1.4
			c0.163-0.7,0.32-1.727,0.472-3.08c0.151-1.353,0.286-3.115,0.403-5.285h-7.805c-0.28,1.75-0.718,3.418-1.313,5.005
			c-0.595,1.587-1.441,3.022-2.538,4.305c-1.097,1.284-2.555,2.345-4.375,3.185c-0.117-0.187-0.28-0.402-0.49-0.647
			c-0.21-0.245-0.409-0.438-0.595-0.578c1.727-0.747,3.103-1.703,4.13-2.87c1.026-1.167,1.808-2.473,2.345-3.92
			c0.537-1.446,0.921-2.94,1.155-4.48H55.86V402.847z M57.05,432.771v-14.07h16.205v13.93H71.61v-1.68H58.66v1.82H57.05z
			 M71.61,420.276H58.66v9.1h12.95V420.276z"/>
		<path fill="#6FCACA" d="M85.26,414.501l-0.945,1.365c-0.42-0.396-0.963-0.828-1.628-1.295c-0.665-0.466-1.377-0.921-2.135-1.365
			c-0.758-0.443-1.511-0.828-2.257-1.155l0.98-1.19c0.723,0.304,1.464,0.671,2.222,1.103c0.758,0.432,1.47,0.864,2.135,1.295
			C84.297,413.691,84.84,414.105,85.26,414.501z M84.77,419.997l1.33,0.945c-0.513,1.213-1.08,2.497-1.697,3.85
			c-0.619,1.354-1.249,2.677-1.89,3.973c-0.642,1.295-1.254,2.467-1.837,3.517l-1.47-1.015c0.537-0.91,1.132-1.995,1.785-3.255
			c0.653-1.26,1.313-2.59,1.978-3.99S84.233,421.28,84.77,419.997z M86.905,405.472l-1.015,1.365
			c-0.397-0.443-0.916-0.916-1.558-1.417c-0.642-0.501-1.336-0.992-2.083-1.47c-0.747-0.478-1.482-0.892-2.205-1.242l1.015-1.19
			c0.7,0.35,1.423,0.752,2.17,1.208s1.447,0.922,2.1,1.4C85.983,404.603,86.508,405.051,86.905,405.472z M108.255,420.381h-7.035
			v10.43c0,0.49-0.07,0.869-0.21,1.137s-0.409,0.461-0.805,0.578c-0.374,0.14-0.934,0.222-1.68,0.245
			c-0.747,0.023-1.727,0.023-2.94,0c-0.047-0.187-0.123-0.42-0.228-0.7c-0.105-0.28-0.205-0.537-0.298-0.77
			c0.957,0.023,1.791,0.035,2.502,0.035s1.184,0,1.417,0c0.42-0.023,0.63-0.198,0.63-0.525v-10.43h-6.72v-11.725h5.845
			c0.187-0.653,0.373-1.376,0.56-2.17c0.187-0.793,0.326-1.516,0.42-2.17H90.37v7.945c0,1.494-0.052,3.115-0.157,4.865
			s-0.315,3.529-0.63,5.337c-0.315,1.809-0.782,3.57-1.4,5.285c-0.619,1.715-1.441,3.308-2.467,4.777
			c-0.14-0.117-0.356-0.269-0.647-0.455c-0.292-0.187-0.531-0.315-0.718-0.385c1.003-1.447,1.796-2.993,2.38-4.638
			c0.583-1.645,1.021-3.331,1.313-5.057c0.292-1.727,0.478-3.418,0.56-5.075c0.082-1.657,0.123-3.208,0.123-4.655v-9.52h21.07v1.575
			h-8.785l0.56,0.14c-0.21,0.677-0.42,1.389-0.63,2.135c-0.21,0.747-0.409,1.435-0.595,2.065h7.91V420.381z M94.5,422.656
			l1.575,0.42c-0.583,1.377-1.295,2.747-2.135,4.112c-0.84,1.365-1.704,2.526-2.59,3.482c-0.164-0.117-0.391-0.28-0.683-0.49
			c-0.292-0.21-0.542-0.362-0.752-0.455c0.933-0.933,1.797-2.024,2.59-3.272C93.298,425.206,93.963,423.94,94.5,422.656z
			 M94.465,410.091v3.675h12.18v-3.675H94.465z M94.465,415.202v3.745h12.18v-3.745H94.465z M104.37,423.077l1.435-0.63
			c0.606,0.7,1.208,1.476,1.803,2.328c0.595,0.852,1.137,1.686,1.627,2.502c0.49,0.817,0.863,1.552,1.12,2.205l-1.54,0.735
			c-0.234-0.653-0.59-1.394-1.068-2.222c-0.479-0.828-1.009-1.674-1.592-2.538C105.571,424.593,104.976,423.8,104.37,423.077z"/>
		<path fill="#6FCACA" d="M144.69,422.761v1.54h-30.905v-1.54h14.56v-3.99h-11.62v-1.47h11.62v-3.605H117.39v-11.165h23.45v11.165
			h-10.85v3.605h11.655v1.47H129.99v3.99H144.69z M115.5,432.946l-1.47-0.77c0.816-0.677,1.575-1.557,2.275-2.642
			c0.7-1.085,1.271-2.164,1.715-3.238l1.54,0.42c-0.443,1.074-1.015,2.188-1.715,3.343
			C117.145,431.214,116.363,432.176,115.5,432.946z M119,412.191h9.345v-8.19H119V412.191z M121.66,405.577l1.225-0.455
			c0.56,0.863,1.085,1.797,1.575,2.8c0.49,1.003,0.816,1.867,0.98,2.59l-1.33,0.56c-0.164-0.746-0.479-1.633-0.945-2.66
			S122.196,406.44,121.66,405.577z M123.935,426.961l1.575-0.07c0.233,0.863,0.425,1.82,0.578,2.87
			c0.151,1.05,0.228,1.913,0.228,2.59l-1.645,0.245c0-0.7-0.065-1.587-0.193-2.66C124.349,428.863,124.167,427.872,123.935,426.961z
			 M139.16,412.191v-8.19h-9.17v8.19H139.16z M131.215,426.997l1.575-0.28c0.42,0.864,0.828,1.814,1.225,2.853
			c0.396,1.038,0.688,1.908,0.875,2.607l-1.645,0.42c-0.164-0.724-0.438-1.616-0.822-2.678
			C132.037,428.857,131.635,427.883,131.215,426.997z M133.245,411.526l-1.12-0.56c0.35-0.513,0.718-1.114,1.103-1.802
			c0.385-0.688,0.758-1.388,1.12-2.1c0.361-0.711,0.659-1.359,0.893-1.942l1.4,0.595c-0.514,0.98-1.073,2.007-1.68,3.08
			C134.353,409.87,133.781,410.78,133.245,411.526z M138.425,426.892l1.505-0.56c0.606,0.56,1.213,1.19,1.82,1.89
			c0.607,0.7,1.173,1.388,1.698,2.065c0.525,0.676,0.95,1.283,1.277,1.82l-1.54,0.7c-0.303-0.537-0.717-1.15-1.242-1.838
			c-0.525-0.688-1.091-1.388-1.698-2.1C139.638,428.158,139.031,427.499,138.425,426.892z"/>
		<path fill="#6FCACA" d="M162.33,416.742h-1.435v-3.395h-10.29v3.395h-1.4v-4.76h1.995v-9.555h9.135v9.555h1.995V416.742z
			 M160.335,416.182v14.735c0,0.863-0.28,1.4-0.84,1.61c-0.327,0.117-0.788,0.187-1.382,0.21c-0.595,0.023-1.383,0.035-2.363,0.035
			c-0.023-0.187-0.093-0.409-0.21-0.665c-0.117-0.257-0.233-0.49-0.35-0.7c0.746,0.023,1.405,0.035,1.977,0.035
			s0.939-0.012,1.103-0.035c0.35,0,0.525-0.163,0.525-0.49v-4.41h-6.125v6.3h-1.505v-16.625H160.335z M152.6,403.827v8.155h2.24
			v-5.39h4.025v-2.765H152.6z M158.795,417.546h-6.125v3.045h6.125V417.546z M152.67,425.142h6.125v-3.15h-6.125V425.142z
			 M158.865,411.981v-4.095h-2.73v4.095H158.865z M174.055,430.602h6.09v1.4h-18.13v-1.4h5.81c-0.093-0.583-0.257-1.23-0.49-1.942
			c-0.234-0.712-0.514-1.359-0.84-1.943l1.33-0.42c0.35,0.607,0.653,1.29,0.91,2.047c0.256,0.759,0.431,1.417,0.525,1.978
			l-0.805,0.28h5.04l-0.7-0.28c0.28-0.583,0.577-1.26,0.892-2.03c0.315-0.77,0.554-1.446,0.718-2.03l1.47,0.525
			c-0.303,0.653-0.612,1.318-0.927,1.995C174.632,429.458,174.335,430.065,174.055,430.602z M179.97,416.321v1.4h-17.395v-1.4
			H179.97z M178.535,404.492v9.765h-14.7v-9.765h4.305v-3.395h1.4v3.395h3.08v-3.395h1.4v3.395H178.535z M177.765,426.051h-13.16
			v-6.3h13.16V426.051z M165.235,405.821v2.835h3.045v-2.835H165.235z M165.235,410.021v2.905h3.045v-2.905H165.235z
			 M166.11,421.046v3.71h10.115v-3.71H166.11z M169.54,408.656h3.08v-2.835h-3.08V408.656z M172.62,410.021h-3.08v2.905h3.08
			V410.021z M177.065,408.656v-2.835h-3.185v2.835H177.065z M177.065,412.926v-2.905h-3.185v2.905H177.065z"/>
	</g>
</g>
<g>
</g>
<g>
</g>
<g>
</g>
<g>
</g>
<g>
</g>
<g>
</g>
</svg>
