<?xml version="1.0" encoding="utf-8"?>
<!-- Generator: Adobe Illustrator 16.0.0, SVG Export Plug-In . SVG Version: 6.00 Build 0)  -->
<!DOCTYPE svg PUBLIC "-//W3C//DTD SVG 1.1//EN" "http://www.w3.org/Graphics/SVG/1.1/DTD/svg11.dtd">
<svg version="1.1" id="Layer_1" xmlns="http://www.w3.org/2000/svg" xmlns:xlink="http://www.w3.org/1999/xlink" x="0px" y="0px"
	 width="1068.5px" height="622.719px" viewBox="0 0 1068.5 622.719" enable-background="new 0 0 1068.5 622.719"
	 xml:space="preserve">
<g>
	<g>
		<path fill="#FFFFFF" d="M225,128.469c-4,36-10.75,66-22.25,90.75c10.5,18,23.75,32.75,41.25,42.5c-7.25,6-17.75,19-22.5,28
			c-15.25-10.25-27.5-23.75-37-40c-13.25,17-30.25,30.5-52.25,41.5c-1.5-3.5-4.5-9.25-8-14.5l-8.75,7.75
			c-8.5-4.75-19.25-9.75-31.25-14.5c-16.25,8.25-38.75,15.25-70.5,19.75c-2.25-6.75-8.75-17.25-13.75-23
			c19.75-2.5,35.25-6,47.75-9.75c-9.75-3-19.5-5.75-28.75-8l-1.5-0.25c3.5-5.75,7-12.5,10.5-19.75H7.25v-23.75h31
			c1-2.75,2-5.5,2.75-8l19.5,3v-3.25H17.25v-46.75H60.5v-5.25H20.75v-27H3v-25.25h17.75v-26H60.5v-14.25h27.25v14.25h42v26h12.75
			v25.25h-12.75v27h-42v5.25H131c13-26.75,22.75-62.75,28.75-98l29.75,6c-2.5,12.75-5.5,26-9,38.75h60v31.5H225z M60.5,177.469
			v-7.75H46.75v7.75H60.5z M47.25,88.719v6H60.5v-6H47.25z M60.5,122.719v-6.75H47.25v6.75H60.5z M56.75,232.719
			c8.25,2.25,16.75,4.75,25,7.5c4.5-3.75,7.5-7.5,9.5-11.25H58.5L56.75,232.719z M121.25,228.969c-1.75,7-5,14.25-11,21.5
			c6.5,2.5,12.75,5,18.25,7.5c18-10.25,31.25-23.25,41.25-39.5c-5.75-15.25-10.25-32.25-14-50.5c-3,6.75-6.25,13-9.5,18.75
			c-2.75-3.75-8.5-9.75-14-15v25.25h-44.5v5.25H69l-1,3h27v-5.5h28v5.5h18.25v23.75H121.25z M87.75,88.719v6h13.75v-6H87.75z
			 M101.5,122.719v-6.75H87.75v6.75H101.5z M87.75,169.719v7.75H101v-7.75H87.75z M174.75,128.469c2.75,17.75,6.25,35,11.25,51
			c4-15.25,6.75-32.25,8.5-51H174.75z"/>
		<path fill="#FFFFFF" d="M464,237.969c-4.25,6.75-9.5,12.5-15.25,17.75c22,5,41.75,10,57.75,14.5l-28,19.75
			c-15.5-5.25-36-11-59.75-16.75c-27.75,10.75-65.75,14.25-117.25,16c-2.25-10-6.25-21.25-10.5-28c24.25,0,45-0.25,62.75-1.75
			c-14.25-2.75-28.75-5.25-43.75-7.75c4.25-4,8.75-8.75,13.25-13.75H282v-23h60.25c4.25-5.5,8-11.25,11.5-16.75H293.5v-41.25h19
			l-7-18.75c12.5-2,29.25-5,46.75-8.25c-11.25-2.75-24.75-5.75-35.75-7.75l6.25-13h-6.5v25.25h-32v-47.25h94v-4.5h-75.5v-24.5h187
			v24.5h-76v4.5h96v47.25h-33.5v-25.25h-11.5l9.75,14c-9.25,2.75-20.75,4.75-31.25,6c15.75,3.25,32,7.25,42,10.25l-5,17.5h21.25
			v41.25h-64v-41.25H474c-15.75-4.75-40.75-11.25-59-15l5.75-16.75l-6-9.25c10.5-1,25.25-4,37.5-6.75h-38.5v40.75h-35.5v-40.75
			H340.5c12.75,2.25,26,5.25,34.25,7.75l-4,9.5l3.25-0.5l1.75,17.75c-17,4.75-34,9.25-49.5,13.25H356v37.5l0.5-0.75l8.75,2.5v-39.25
			h63.25v41.25h-55.75l14.5,4c-2.5,4.25-5.5,8.5-8.75,12.75h62.25c1.75-3.75,3.25-7.5,4.5-11.75l32.75,4.75
			c-0.75,2.5-1.5,4.75-2.5,7h36.25v23H464z M330.5,172.469h-13v10h13V172.469z M409,247.219c5.25-2.75,10.25-5.75,14.5-9.25H360
			C376.5,240.719,393,243.969,409,247.219z M389.25,182.469H403v-10h-13.75V182.469z M476,172.469h-14.5v10H476V172.469z"/>
		<path fill="#FFFFFF" d="M788.75,232.969H726c20.75,9.75,42,20.5,55.25,28l-23.75,28c-15.75-10.25-43.5-26.5-68-37.75l14.25-18.25
			h-71.5l22,18.5c-22.5,13.5-54.25,28.75-79,38.25c-4.75-7.75-13.5-19.5-20.25-27.25c19.75-6.75,45.25-19,62.75-29.5h-62v-33.5H577
			l-4-127.75c16.25-4.75,35.25-12,49-18.25l15,29.5c-10.25,3-20.75,6-31.25,8.5l0.75,18h25.25v29.5h-24.5l0.5,15.75H633v29.5h-24.25
			l0.5,15.25H734l1-15h-21.5v-29.5h22.75l0.5-16h-21v-29.5h21.75l0.25-15.75h-25v-31H771c0,44.75-1,98.75-3.25,136.75h21V232.969z
			 M676.5,139.719H640v-85h30.5v14h38.25v29.5H670.5v13.75h25v0.25h11v61.75c0,11.75-2.25,17-9.75,20.5s-17.5,3.5-29.75,3.5
			c-1-5.5-3.5-12.25-5.75-17.75c-1.25,3.25-2.75,6.25-4.5,9c-5-4.25-16.25-11.25-22.5-14.25c5.5-8.5,6.25-20.25,6.75-32l26.5,4.5
			c-0.75,10.25-2.25,20.5-5,29.25c4.5,0.25,9.25,0.25,11,0c2.25,0,3-0.5,3-2.75V139.719z"/>
		<path fill="#FFFFFF" d="M968,68.219c24.75,13.5,64,27.75,98,35c-7.25,7-17.75,20.75-22.75,29.5c-20.25-6-42.5-15.25-62.25-25.25
			v19.25h-81.25v-11.5c-16,8-33,15-50.75,20.5c-4.75-9-16.25-25.25-23.75-32.75c45.25-10,94-30.5,119.75-53.25l27,14.5L968,68.219z
			 M1027,142.469c-11.75,13.5-23.75,26-36,38h68.5v27.75h-28l22.25,16.5c-9.75,6.75-21,13.25-31.5,18.75
			c12.25,9,23.5,17.5,31.25,24.25l-23.5,24c-17.25-17-54.5-45-80-64.75l20.25-18.75H954.5c-9.75,9.25-21.5,17.5-34.5,24.5v19.25
			l49.25-8.25c-2,8.75-3.5,22.5-3.5,29.75c-62.5,12-73.75,14.5-80.5,18.25c-1.75-7.75-7.5-21.5-12.25-27.75
			c5.25-2.75,11.75-7.75,12.5-16.75c-12,4-24.5,7.25-37.75,9.5c-4.25-8-13.5-20.75-20.25-27.5c28.25-3.75,55.25-11,76-21h-70.25
			v-27.75h89.5c-1.25-3.25-2.75-6.5-4-9.5l35.5-10c3.25,5.75,6.75,13,9,19.5h19.25l-20.5-11.25c4-3.75,8-7.75,12-11.75H867v-26h133
			l4.75-1.5L1027,142.469z M971.25,102.219c-9.25-5-17.75-10.25-25.25-15.25c-7.25,5.25-14.75,10.5-22.5,15.25H971.25z
			 M973.25,208.219c7.5,5.5,16.25,11.5,25,18c9.5-5.75,19.5-12.25,27-18H973.25z"/>
	</g>
</g>
<g>
	<g>
		<path fill="#FFFFFF" d="M227.75,462.219c-4,36.25-10.75,67-22.75,92.75c9.5,15.75,21.5,28.75,37,37.75c-7.75,6.5-18.5,20-23.5,29
			c-13.5-9-24.75-20.5-33.75-33.75c-11,13.25-24,24.75-40.25,34.25c-1.75-4.5-8.25-15-13.75-22.75l-19.5,19.5
			c-6.75-4.75-15.75-10.25-26-15.75c-15.5,9-36.25,14.5-63.25,18.75c-1.75-9.25-7.25-20.75-12.25-27.5
			c17.25-1.25,31.25-3.25,42.75-6.75c-10-4.25-21.25-7.75-33.5-11.25c4-5.75,6.75-10.25,11.25-17.5H4.5v-25.75h40.25
			c1-2,2.5-4.5,3.5-6.5h-34.5v-49.25H56.5v-5.75H18.25v-26.25H3v-25.25h15.25v-26H56.5v-10.75h30.75v10.75H128v26h15.75v25.25H128
			v26.25H87.25v5.75h45.25v5.25c5.5-10,10-23.25,13.75-37.25c5.5-21.5,9.25-45,11-62.25l34.5,5c-1.75,13.75-4,27.25-6.75,40.5h55.5
			v33.5H227.75z M43.25,505.719H56.5v-7H43.25V505.719z M47.75,416.219v6h8.75v-6H47.75z M56.5,449.469v-6h-8.75v6H56.5z
			 M63,558.969c-0.75,1.5-2,3.25-2.5,4.25c6.5,2.5,13.25,5,20,7.75c3-3.5,5.5-7.5,8-12H63z M120.75,558.969c-3,10-7,17.5-12.5,24.5
			c4,2,11.25,5.75,17.25,9c17.5-9.5,31.75-22.25,41.75-37.5c-5-12.25-9-25.5-12.5-39.5c-2.25,4-4.75,8-7.5,11.5
			c-2-3-8.5-10.5-14.75-17.25v17h-51c-1.25,2.75-2,4.25-3.25,6.5h64.5v25.75H120.75z M87.25,416.219v6h9.5v-6H87.25z M96.75,449.469
			v-6h-9.5v6H96.75z M87.25,498.719v7h14v-7H87.25z M176.75,462.219c0,0.25-0.25,0.75-0.25,1c2.5,16.5,5.5,32.25,9.75,47
			c3.75-14.5,6.5-30.5,8-48H176.75z"/>
		<path fill="#FFFFFF" d="M459.75,563.219c-3.25,6-6.75,11.5-11,16.25c23,4.75,43.5,10,59.75,15.25l-27.25,25.25
			c-16.5-6.25-38.25-12.25-63.25-18c-26.75,12.25-64.25,16.5-116.75,19c-2.25-10-6.5-21.25-10.5-27.75
			c25.5-0.25,46.75-0.75,64.75-2.75c-13.5-2-27.25-3.75-41.25-5.25l0.25-0.25c6-6.25,12.5-13.75,19-21.75H282v-25.25h70
			c3.25-4.75,6-9.5,8.5-14l4.75,1.5v-37.5h63.25v41.25H378l15,4.5l-2.5,4.25h121.25v25.25H459.75z M316.25,461.469h-32v-42h94v-5
			h-75.5v-23.75h187v23.75h-76v5h96v42h-33.5v-22.25h-62.5v43.25h-35.5v-43.25h-62V461.469z M293.5,487.969H356v41.25h-62.5V487.969
			z M373.25,480.719h-56.5v-15.5h56.5V480.719z M317.5,513.469h13v-10h-13V513.469z M373,444.469v15.5h-50.75v-15.5H373z
			 M370.25,565.969c14.5,2,29,4.25,42.75,6.5c3.75-2.75,7-5.75,10-9.25h-50.5L370.25,565.969z M389.25,513.469H403v-10h-13.75
			V513.469z M470,444.469v15.5h-50.75v-15.5H470z M419.25,465.219h56.5v15.5h-56.5V465.219z M501.5,529.219h-64v-41.25h64V529.219z
			 M476,503.469h-14.5v10H476V503.469z"/>
		<path fill="#FFFFFF" d="M788.75,563.969H726c20.75,9.75,42,20.5,55.25,28l-23.75,28c-15.75-10.25-43.5-26.5-68-37.75l14.25-18.25
			h-71.5l22,18.5c-22.5,13.5-54.25,28.75-79,38.25c-4.75-7.75-13.5-19.5-20.25-27.25c19.75-6.75,45.25-19,62.75-29.5h-62v-33.5H577
			l-4-127.75c16.25-4.75,35.25-12,49-18.25l15,29.5c-10.25,3-20.75,6-31.25,8.5l0.75,18h25.25v29.5h-24.5l0.5,15.75H633v29.5h-24.25
			l0.5,15.25h30v-43.5h28.5v43.5h8.75v-53.5H640v-91.25h30.5v19.5h38.25v29.5H670.5v14.5H707v81.25h27l1-15h-21.5v-29.5h22.75
			l0.5-16h-21v-29.5h21.75l0.25-15.75h-25v-31H771c0,44.75-1,98.75-3.25,136.75h21V563.969z"/>
		<path fill="#FFFFFF" d="M961.5,382.969c28.75,27.25,67.75,44.25,107,52.5c-7.5,8.25-15,20.25-20,29.75
			c-18-5.5-39.5-14.25-59.25-25v12.25H903.5v-11.75c-19,10.5-39.75,19-59.5,25.25c-3.5-8.25-11.5-21.25-17.75-28.25
			c41-10.75,81-32.75,101.5-54.75H961.5z M867.75,460.719H998l5.5-1.25l25.25,7c-5.5,14.75-13.75,32.5-22.25,45h53v27.75h-28
			l22.25,16.5c-11.5,8-24.75,15.5-36.75,21.5c13.25,7.25,29,12.25,47.75,15.5c-7.25,6.75-16.25,20.25-20.5,29
			c-35.25-8-60.75-23.25-79-46c-1.75,8.75-3.25,21.75-3.25,28.75c-62.5,12-73.75,14.5-80.5,18.25c-1.75-7.75-7.5-21.5-12.25-27.75
			c5-2.5,11.5-7.25,12.5-16.5c-12,4-23.75,7.25-34.75,9.25c-4.25-8-13.5-20.75-20.25-27.5c26.25-3.5,52.5-10.5,72.75-21h-66.25
			v-27.75h89.5c-1.25-3.25-2.5-6.5-4-9.5l35.5-10c2.75,5,6.5,12.75,9,19.5h25.5l-14.5-5c3.5-5.25,7.25-12.25,10.5-19.75h-117
			V460.719z M964.5,574.969c-7.25-9.25-13.5-19.75-18.5-31.5c-8.75,7.75-19,14.25-29.75,20.25v19.25L964.5,574.969z M924.5,427.719
			h43.75c-8.5-5.75-16.25-11.5-22.25-17.5C939.75,416.469,932.5,422.219,924.5,427.719z M1025,539.219h-47.25
			c4.5,8.25,10.75,15.75,15.75,20.75C1002.25,554.969,1016.25,545.969,1025,539.219z"/>
	</g>
</g>
<g>
	<g>
		<path fill="#737F8A" d="M40.7,2.975l-16.45,28.49L7.8,2.975H40.7z"/>
		<path fill="#737F8A" d="M53.02,30.065l-1.505-0.805c0.606-0.747,1.16-1.61,1.663-2.59c0.501-0.98,0.939-1.983,1.313-3.01
			c0.373-1.026,0.688-1.983,0.945-2.87l1.47,0.525c-0.28,0.91-0.607,1.902-0.98,2.975c-0.374,1.074-0.799,2.112-1.277,3.115
			C54.168,28.408,53.626,29.295,53.02,30.065z M78.919,1.575v15.26H54.805V1.575H78.919z M56.45,3.15v5.285h9.695V3.15H56.45z
			 M56.45,9.94v5.355h9.695V9.94H56.45z M63.904,29.365h7.7c0.63,0,1.097-0.111,1.4-0.333c0.303-0.221,0.519-0.676,0.647-1.365
			c0.128-0.688,0.216-1.733,0.263-3.133c0.233,0.164,0.501,0.304,0.805,0.42c0.303,0.117,0.571,0.199,0.805,0.245
			c-0.093,1.54-0.251,2.725-0.472,3.553c-0.222,0.828-0.59,1.4-1.103,1.715c-0.514,0.315-1.272,0.473-2.275,0.473h-7.77
			c-1.633,0-2.742-0.181-3.325-0.542c-0.583-0.362-0.875-1.091-0.875-2.188v-7.665h1.68v7.665c0,0.467,0.151,0.776,0.455,0.927
			S62.831,29.365,63.904,29.365z M71.535,23.1l-1.155,1.19c-0.537-0.513-1.225-1.085-2.065-1.715s-1.738-1.254-2.695-1.873
			c-0.957-0.618-1.89-1.16-2.8-1.627l1.12-1.05c0.91,0.467,1.843,0.992,2.8,1.575c0.956,0.583,1.86,1.179,2.712,1.785
			C70.304,21.992,70.998,22.563,71.535,23.1z M77.274,8.435V3.15h-9.52v5.285H77.274z M77.274,15.295V9.94h-9.52v5.355H77.274z
			 M75.7,20.93l1.505-0.63c0.7,0.887,1.394,1.855,2.083,2.905c0.688,1.05,1.307,2.077,1.855,3.08
			c0.548,1.003,0.962,1.902,1.243,2.695l-1.61,0.735c-0.28-0.793-0.683-1.703-1.208-2.73c-0.525-1.026-1.126-2.07-1.802-3.133
			C77.087,22.791,76.399,21.817,75.7,20.93z"/>
		<path fill="#737F8A" d="M93.06,13.405l-0.945,1.365c-0.42-0.396-0.963-0.828-1.628-1.295c-0.665-0.466-1.377-0.921-2.135-1.365
			c-0.758-0.443-1.511-0.828-2.257-1.155l0.98-1.19c0.723,0.304,1.464,0.671,2.222,1.103c0.758,0.432,1.47,0.864,2.135,1.295
			C92.097,12.594,92.64,13.008,93.06,13.405z M92.569,18.9l1.33,0.945c-0.513,1.213-1.08,2.497-1.697,3.85
			c-0.619,1.354-1.249,2.677-1.89,3.973c-0.642,1.295-1.254,2.467-1.837,3.517l-1.47-1.015c0.537-0.91,1.132-1.995,1.785-3.255
			c0.653-1.26,1.313-2.59,1.978-3.99S92.033,20.183,92.569,18.9z M94.705,4.375L93.689,5.74c-0.397-0.443-0.916-0.916-1.558-1.417
			c-0.642-0.501-1.336-0.992-2.083-1.47c-0.747-0.478-1.482-0.892-2.205-1.242l1.015-1.19c0.7,0.35,1.423,0.752,2.17,1.208
			s1.447,0.922,2.1,1.4C93.783,3.506,94.308,3.955,94.705,4.375z M116.055,19.285h-7.035v10.43c0,0.49-0.07,0.869-0.21,1.137
			s-0.409,0.461-0.805,0.578c-0.374,0.14-0.934,0.222-1.68,0.245c-0.747,0.023-1.727,0.023-2.94,0
			c-0.047-0.187-0.123-0.42-0.228-0.7c-0.105-0.28-0.205-0.537-0.298-0.77c0.957,0.023,1.791,0.035,2.502,0.035s1.184,0,1.417,0
			c0.42-0.023,0.63-0.198,0.63-0.525v-10.43h-6.72V7.56h5.845c0.187-0.653,0.373-1.376,0.56-2.17c0.187-0.793,0.326-1.516,0.42-2.17
			h-9.345v7.945c0,1.494-0.052,3.115-0.157,4.865s-0.315,3.529-0.63,5.337c-0.315,1.809-0.782,3.57-1.4,5.285
			c-0.619,1.715-1.441,3.308-2.467,4.777c-0.14-0.117-0.356-0.269-0.647-0.455c-0.292-0.187-0.531-0.315-0.718-0.385
			c1.003-1.447,1.796-2.993,2.38-4.638c0.583-1.645,1.021-3.331,1.313-5.057c0.292-1.727,0.478-3.418,0.56-5.075
			c0.082-1.657,0.123-3.208,0.123-4.655v-9.52h21.07V3.22h-8.785l0.56,0.14c-0.21,0.677-0.42,1.389-0.63,2.135
			c-0.21,0.747-0.409,1.435-0.595,2.065h7.91V19.285z M102.299,21.56l1.575,0.42c-0.583,1.377-1.295,2.747-2.135,4.112
			c-0.84,1.365-1.704,2.526-2.59,3.482c-0.164-0.117-0.391-0.28-0.683-0.49c-0.292-0.21-0.542-0.362-0.752-0.455
			c0.933-0.933,1.797-2.024,2.59-3.272C101.098,24.109,101.763,22.843,102.299,21.56z M102.265,8.995v3.675h12.18V8.995H102.265z
			 M102.265,14.105v3.745h12.18v-3.745H102.265z M112.169,21.98l1.435-0.63c0.606,0.7,1.208,1.476,1.803,2.328
			c0.595,0.852,1.137,1.686,1.627,2.502c0.49,0.817,0.863,1.552,1.12,2.205l-1.54,0.735c-0.234-0.653-0.59-1.394-1.068-2.222
			c-0.479-0.828-1.009-1.674-1.592-2.538C113.371,23.497,112.776,22.703,112.169,21.98z"/>
		<path fill="#737F8A" d="M152.49,21.665v1.54h-30.905v-1.54h14.56v-3.99h-11.62v-1.47h11.62V12.6h-10.955V1.435h23.45V12.6h-10.85
			v3.605h11.655v1.47H137.79v3.99H152.49z M123.299,31.85l-1.47-0.77c0.816-0.677,1.575-1.557,2.275-2.642
			c0.7-1.085,1.271-2.164,1.715-3.238l1.54,0.42c-0.443,1.074-1.015,2.188-1.715,3.343C124.944,30.117,124.163,31.08,123.299,31.85z
			 M126.799,11.095h9.345v-8.19h-9.345V11.095z M129.459,4.48l1.225-0.455c0.56,0.863,1.085,1.797,1.575,2.8
			c0.49,1.003,0.816,1.867,0.98,2.59l-1.33,0.56c-0.164-0.746-0.479-1.633-0.945-2.66S129.996,5.343,129.459,4.48z M131.734,25.865
			l1.575-0.07c0.233,0.863,0.425,1.82,0.578,2.87c0.151,1.05,0.228,1.913,0.228,2.59L132.47,31.5c0-0.7-0.065-1.587-0.193-2.66
			C132.148,27.767,131.967,26.775,131.734,25.865z M146.959,11.095v-8.19h-9.17v8.19H146.959z M139.015,25.9l1.575-0.28
			c0.42,0.864,0.828,1.814,1.225,2.853c0.396,1.038,0.688,1.908,0.875,2.607l-1.645,0.42c-0.164-0.724-0.438-1.616-0.822-2.678
			C139.837,27.761,139.435,26.787,139.015,25.9z M141.044,10.43l-1.12-0.56c0.35-0.513,0.718-1.114,1.103-1.802
			c0.385-0.688,0.758-1.388,1.12-2.1c0.361-0.711,0.659-1.359,0.893-1.942l1.4,0.595c-0.514,0.98-1.073,2.007-1.68,3.08
			C142.152,8.773,141.581,9.683,141.044,10.43z M146.225,25.795l1.505-0.56c0.606,0.56,1.213,1.19,1.82,1.89
			c0.607,0.7,1.173,1.388,1.698,2.065c0.525,0.676,0.95,1.283,1.277,1.82l-1.54,0.7c-0.303-0.537-0.717-1.15-1.242-1.838
			c-0.525-0.688-1.091-1.388-1.698-2.1C147.438,27.061,146.831,26.402,146.225,25.795z"/>
		<path fill="#737F8A" d="M170.129,15.645h-1.435V12.25h-10.29v3.395h-1.4v-4.76H159V1.33h9.135v9.555h1.995V15.645z
			 M168.135,15.085V29.82c0,0.863-0.28,1.4-0.84,1.61c-0.327,0.117-0.788,0.187-1.382,0.21c-0.595,0.023-1.383,0.035-2.363,0.035
			c-0.023-0.187-0.093-0.409-0.21-0.665c-0.117-0.257-0.233-0.49-0.35-0.7c0.746,0.023,1.405,0.035,1.977,0.035
			s0.939-0.012,1.103-0.035c0.35,0,0.525-0.163,0.525-0.49v-4.41h-6.125v6.3h-1.505V15.085H168.135z M160.399,2.73v8.155h2.24v-5.39
			h4.025V2.73H160.399z M166.595,16.45h-6.125v3.045h6.125V16.45z M160.47,24.045h6.125v-3.15h-6.125V24.045z M166.665,10.885V6.79
			h-2.73v4.095H166.665z M181.854,29.505h6.09v1.4h-18.13v-1.4h5.81c-0.093-0.583-0.257-1.23-0.49-1.942
			c-0.234-0.712-0.514-1.359-0.84-1.943l1.33-0.42c0.35,0.607,0.653,1.29,0.91,2.047c0.256,0.759,0.431,1.417,0.525,1.978
			l-0.805,0.28h5.04l-0.7-0.28c0.28-0.583,0.577-1.26,0.892-2.03c0.315-0.77,0.554-1.446,0.718-2.03l1.47,0.525
			c-0.303,0.653-0.612,1.318-0.927,1.995C182.432,28.362,182.135,28.968,181.854,29.505z M187.77,15.225v1.4h-17.395v-1.4H187.77z
			 M186.334,3.395v9.765h-14.7V3.395h4.305V0h1.4v3.395h3.08V0h1.4v3.395H186.334z M185.564,24.955h-13.16v-6.3h13.16V24.955z
			 M173.035,4.725V7.56h3.045V4.725H173.035z M173.035,8.925v2.905h3.045V8.925H173.035z M173.91,19.95v3.71h10.115v-3.71H173.91z
			 M177.339,7.56h3.08V4.725h-3.08V7.56z M180.419,8.925h-3.08v2.905h3.08V8.925z M184.865,7.56V4.725h-3.185V7.56H184.865z
			 M184.865,11.83V8.925h-3.185v2.905H184.865z"/>
	</g>
</g>
<g>
	<g>
		<path fill="#6FCACA" d="M40.7,334.975l-16.45,28.49L7.8,334.975H40.7z"/>
		<path fill="#6FCACA" d="M62.12,334.625v22.33h-8.05v2.73h-1.645v-25.06H62.12z M60.544,336.2h-6.475v8.61h6.475V336.2z
			 M54.069,355.38h6.475v-9.03h-6.475V355.38z M63.66,333.75h17.815c0,0.42-0.012,0.7-0.035,0.84
			c-0.14,2.59-0.292,4.672-0.455,6.248c-0.164,1.575-0.344,2.771-0.542,3.587c-0.198,0.817-0.449,1.389-0.752,1.715
			c-0.49,0.49-1.144,0.747-1.96,0.77c-0.374,0.023-0.91,0.03-1.61,0.018c-0.7-0.011-1.447-0.041-2.24-0.087
			c-0.023-0.256-0.07-0.525-0.14-0.805c-0.07-0.28-0.187-0.536-0.35-0.77c0.84,0.07,1.615,0.117,2.327,0.14
			c0.712,0.023,1.196,0.035,1.453,0.035c0.537,0,0.921-0.117,1.155-0.35c0.21-0.233,0.396-0.7,0.56-1.4
			c0.163-0.7,0.32-1.727,0.472-3.08c0.151-1.353,0.286-3.115,0.403-5.285h-7.805c-0.28,1.75-0.718,3.418-1.313,5.005
			c-0.595,1.587-1.441,3.022-2.538,4.305c-1.097,1.284-2.555,2.345-4.375,3.185c-0.117-0.187-0.28-0.402-0.49-0.647
			c-0.21-0.245-0.409-0.438-0.595-0.578c1.727-0.747,3.103-1.703,4.13-2.87c1.026-1.167,1.808-2.473,2.345-3.92
			c0.537-1.446,0.921-2.94,1.155-4.48H63.66V333.75z M64.85,363.675v-14.07h16.205v13.93H79.41v-1.68h-12.95v1.82H64.85z
			 M79.41,351.18h-12.95v9.1h12.95V351.18z"/>
		<path fill="#6FCACA" d="M93.06,345.405l-0.945,1.365c-0.42-0.396-0.963-0.828-1.628-1.295c-0.665-0.466-1.377-0.921-2.135-1.365
			c-0.758-0.443-1.511-0.828-2.257-1.155l0.98-1.19c0.723,0.304,1.464,0.671,2.222,1.103c0.758,0.432,1.47,0.864,2.135,1.295
			C92.097,344.594,92.64,345.008,93.06,345.405z M92.569,350.9l1.33,0.945c-0.513,1.213-1.08,2.497-1.697,3.85
			c-0.619,1.354-1.249,2.677-1.89,3.973c-0.642,1.295-1.254,2.467-1.837,3.517l-1.47-1.015c0.537-0.91,1.132-1.995,1.785-3.255
			c0.653-1.26,1.313-2.59,1.978-3.99S92.033,352.183,92.569,350.9z M94.705,336.375l-1.015,1.365
			c-0.397-0.443-0.916-0.916-1.558-1.417c-0.642-0.501-1.336-0.992-2.083-1.47c-0.747-0.478-1.482-0.892-2.205-1.242l1.015-1.19
			c0.7,0.35,1.423,0.752,2.17,1.208s1.447,0.922,2.1,1.4C93.783,335.506,94.308,335.955,94.705,336.375z M116.055,351.285h-7.035
			v10.43c0,0.49-0.07,0.869-0.21,1.137s-0.409,0.461-0.805,0.578c-0.374,0.14-0.934,0.222-1.68,0.245
			c-0.747,0.023-1.727,0.023-2.94,0c-0.047-0.187-0.123-0.42-0.228-0.7c-0.105-0.28-0.205-0.537-0.298-0.77
			c0.957,0.023,1.791,0.035,2.502,0.035s1.184,0,1.417,0c0.42-0.023,0.63-0.198,0.63-0.525v-10.43h-6.72V339.56h5.845
			c0.187-0.653,0.373-1.376,0.56-2.17c0.187-0.793,0.326-1.516,0.42-2.17h-9.345v7.945c0,1.494-0.052,3.115-0.157,4.865
			s-0.315,3.529-0.63,5.337c-0.315,1.809-0.782,3.57-1.4,5.285c-0.619,1.715-1.441,3.308-2.467,4.777
			c-0.14-0.117-0.356-0.269-0.647-0.455c-0.292-0.187-0.531-0.315-0.718-0.385c1.003-1.447,1.796-2.993,2.38-4.638
			c0.583-1.645,1.021-3.331,1.313-5.057c0.292-1.727,0.478-3.418,0.56-5.075c0.082-1.657,0.123-3.208,0.123-4.655v-9.52h21.07v1.575
			h-8.785l0.56,0.14c-0.21,0.677-0.42,1.389-0.63,2.135c-0.21,0.747-0.409,1.435-0.595,2.065h7.91V351.285z M102.299,353.56
			l1.575,0.42c-0.583,1.377-1.295,2.747-2.135,4.112c-0.84,1.365-1.704,2.526-2.59,3.482c-0.164-0.117-0.391-0.28-0.683-0.49
			c-0.292-0.21-0.542-0.362-0.752-0.455c0.933-0.933,1.797-2.024,2.59-3.272C101.098,356.109,101.763,354.843,102.299,353.56z
			 M102.265,340.995v3.675h12.18v-3.675H102.265z M102.265,346.105v3.745h12.18v-3.745H102.265z M112.169,353.98l1.435-0.63
			c0.606,0.7,1.208,1.476,1.803,2.328c0.595,0.852,1.137,1.686,1.627,2.502c0.49,0.817,0.863,1.552,1.12,2.205l-1.54,0.735
			c-0.234-0.653-0.59-1.394-1.068-2.222c-0.479-0.828-1.009-1.674-1.592-2.538C113.371,355.497,112.776,354.703,112.169,353.98z"/>
		<path fill="#6FCACA" d="M152.49,353.665v1.54h-30.905v-1.54h14.56v-3.99h-11.62v-1.47h11.62V344.6h-10.955v-11.165h23.45V344.6
			h-10.85v3.605h11.655v1.47H137.79v3.99H152.49z M123.299,363.85l-1.47-0.77c0.816-0.677,1.575-1.557,2.275-2.642
			c0.7-1.085,1.271-2.164,1.715-3.238l1.54,0.42c-0.443,1.074-1.015,2.188-1.715,3.343
			C124.944,362.117,124.163,363.08,123.299,363.85z M126.799,343.095h9.345v-8.19h-9.345V343.095z M129.459,336.48l1.225-0.455
			c0.56,0.863,1.085,1.797,1.575,2.8c0.49,1.003,0.816,1.867,0.98,2.59l-1.33,0.56c-0.164-0.746-0.479-1.633-0.945-2.66
			S129.996,337.343,129.459,336.48z M131.734,357.865l1.575-0.07c0.233,0.863,0.425,1.82,0.578,2.87
			c0.151,1.05,0.228,1.913,0.228,2.59l-1.645,0.245c0-0.7-0.065-1.587-0.193-2.66C132.148,359.767,131.967,358.775,131.734,357.865z
			 M146.959,343.095v-8.19h-9.17v8.19H146.959z M139.015,357.9l1.575-0.28c0.42,0.864,0.828,1.814,1.225,2.853
			c0.396,1.038,0.688,1.908,0.875,2.607l-1.645,0.42c-0.164-0.724-0.438-1.616-0.822-2.678
			C139.837,359.761,139.435,358.787,139.015,357.9z M141.044,342.43l-1.12-0.56c0.35-0.513,0.718-1.114,1.103-1.802
			c0.385-0.688,0.758-1.388,1.12-2.1c0.361-0.711,0.659-1.359,0.893-1.942l1.4,0.595c-0.514,0.98-1.073,2.007-1.68,3.08
			C142.152,340.773,141.581,341.683,141.044,342.43z M146.225,357.795l1.505-0.56c0.606,0.56,1.213,1.19,1.82,1.89
			c0.607,0.7,1.173,1.388,1.698,2.065c0.525,0.676,0.95,1.283,1.277,1.82l-1.54,0.7c-0.303-0.537-0.717-1.15-1.242-1.838
			c-0.525-0.688-1.091-1.388-1.698-2.1C147.438,359.061,146.831,358.402,146.225,357.795z"/>
		<path fill="#6FCACA" d="M170.129,347.645h-1.435v-3.395h-10.29v3.395h-1.4v-4.76H159v-9.555h9.135v9.555h1.995V347.645z
			 M168.135,347.085v14.735c0,0.863-0.28,1.4-0.84,1.61c-0.327,0.117-0.788,0.187-1.382,0.21c-0.595,0.023-1.383,0.035-2.363,0.035
			c-0.023-0.187-0.093-0.409-0.21-0.665c-0.117-0.257-0.233-0.49-0.35-0.7c0.746,0.023,1.405,0.035,1.977,0.035
			s0.939-0.012,1.103-0.035c0.35,0,0.525-0.163,0.525-0.49v-4.41h-6.125v6.3h-1.505v-16.625H168.135z M160.399,334.73v8.155h2.24
			v-5.39h4.025v-2.765H160.399z M166.595,348.45h-6.125v3.045h6.125V348.45z M160.47,356.045h6.125v-3.15h-6.125V356.045z
			 M166.665,342.885v-4.095h-2.73v4.095H166.665z M181.854,361.505h6.09v1.4h-18.13v-1.4h5.81c-0.093-0.583-0.257-1.23-0.49-1.942
			c-0.234-0.712-0.514-1.359-0.84-1.943l1.33-0.42c0.35,0.607,0.653,1.29,0.91,2.047c0.256,0.759,0.431,1.417,0.525,1.978
			l-0.805,0.28h5.04l-0.7-0.28c0.28-0.583,0.577-1.26,0.892-2.03c0.315-0.77,0.554-1.446,0.718-2.03l1.47,0.525
			c-0.303,0.653-0.612,1.318-0.927,1.995C182.432,360.362,182.135,360.968,181.854,361.505z M187.77,347.225v1.4h-17.395v-1.4
			H187.77z M186.334,335.395v9.765h-14.7v-9.765h4.305V332h1.4v3.395h3.08V332h1.4v3.395H186.334z M185.564,356.955h-13.16v-6.3
			h13.16V356.955z M173.035,336.725v2.835h3.045v-2.835H173.035z M173.035,340.925v2.905h3.045v-2.905H173.035z M173.91,351.95v3.71
			h10.115v-3.71H173.91z M177.339,339.56h3.08v-2.835h-3.08V339.56z M180.419,340.925h-3.08v2.905h3.08V340.925z M184.865,339.56
			v-2.835h-3.185v2.835H184.865z M184.865,343.83v-2.905h-3.185v2.905H184.865z"/>
	</g>
</g>
<g>
</g>
<g>
</g>
<g>
</g>
<g>
</g>
<g>
</g>
<g>
</g>
</svg>
