<?xml version="1.0" encoding="utf-8"?>
<!-- Generator: Adobe Illustrator 16.0.0, SVG Export Plug-In . SVG Version: 6.00 Build 0)  -->
<!DOCTYPE svg PUBLIC "-//W3C//DTD SVG 1.1//EN" "http://www.w3.org/Graphics/SVG/1.1/DTD/svg11.dtd">
<svg version="1.1" id="Layer_1" xmlns="http://www.w3.org/2000/svg" xmlns:xlink="http://www.w3.org/1999/xlink" x="0px" y="0px"
	 width="1057.25px" height="615.719px" viewBox="0 0 1057.25 615.719" enable-background="new 0 0 1057.25 615.719"
	 xml:space="preserve">
<g>
	<g>
		<path fill="#FFFFFF" d="M83,113.719l11.75-0.5l-0.25,10.5l-11.5,0.75v0.25c0,29.5-2,64-19,97.25c12,10.25,22.5,20,29.5,28
			l-7.5,9.75c-6.75-7.75-16.5-17.5-27.75-27.25c-11,18.25-27,36-50,51.75c-1.75-2.5-5.5-6.25-8.25-7.75
			c23-16,38.75-33.5,49.25-51.75c-12.75-10.75-26.5-21.25-39.25-29.75c6.25-17.5,13-41.75,19-67.25l-26,1.5l-1.25-11.75l29.5-1.25
			c4.5-20,8.5-40.5,10.5-57.25l11.5,1c-2.5,17-6.25,36.5-10.75,55.75l29.25-1.25v-20.75H83V113.719z M40.25,127.219
			c-5.75,23.5-11.75,46.25-17.25,63.5c10.25,7.25,21.25,15.5,31.75,23.75c15.25-31,17-62.75,17-89.25L40.25,127.219z M213.5,182.969
			c-16.75,49.75-52.75,84-110.5,101.25c-1.75-3.25-4.5-7.5-7.25-10.25c55.75-15.5,90.75-47.5,106.75-94.75L213.5,182.969z
			 M130.75,102.719c-5,29.5-12.75,60-22.25,80c-2.25-1.5-7.5-4.25-10.25-5.25c10-19.75,16.5-48.5,21-76.75L130.75,102.719z
			 M166.25,187.469c0,7.5-1.75,10.25-6.75,12.25c-5.25,2-13.75,2.25-29.5,2c-0.5-2.75-2.5-7.25-4-10.25c11.75,0.25,22,0.25,24.5,0
			c3.25-0.25,4.25-1,4.25-4v-128.5h11.5V187.469z M196.25,98.469c13.25,20.75,26.25,48.75,31,67.25l-10.75,3.75
			c-5-18.25-17.5-46.75-30.25-67.5L196.25,98.469z"/>
		<path fill="#FFFFFF" d="M404.25,151.219c-1.75,1.75-3.75,3.25-6,5c22.25,14.75,66.5,31.5,107.25,39c-2.75,2.5-6,7.25-7.75,10.25
			c-41-8.5-85-27.5-107.75-43.5c-29.25,19.5-69,35.25-102.5,45.5c-2.25-2.5-6.25-7.25-9.5-9.5c41.75-11,88.25-29.5,115.25-52
			L404.25,151.219z M397,145.969h-11.75v-39.75H299v32.5h-11.25v-42.25h97.5v-17.25h-84.5v-10.25H481.5v10.25H397v17.25h97.5v42.25
			H483v-32.5h-86V145.969z M307.25,148.219c16.5-3.25,39.25-9,62.5-14.25l1,8.5c-21,6-41.25,11.25-58.75,16L307.25,148.219z
			 M453.25,213.219l8.25,5.25c-13,16.25-36.75,33.75-55,44.75c8.75,4.25,16.25,8.5,21.75,12l-4.75,9.75
			c-17.25-10.5-49.75-28-75.25-39.75l5-8c13,5.75,28,13,42,20c14.75-7.75,33.75-21.25,46.5-33H309.5v-10.25h142L453.25,213.219z
			 M319.25,110.969c16,2.75,37.5,8,49,12.25l-3.75,8.75c-11.5-4.5-32.75-10-49.25-13.5L319.25,110.969z M440.75,190.219v9.5h-98
			v-9.5H440.75z M473.5,158.719c-14.25-6-40.75-13.25-61.5-17.5l3.75-7.75c20.5,3.25,47.25,10.25,61.5,16L473.5,158.719z
			 M469.5,118.969c-14.75,5.5-36.5,10-52.25,12.5l-4.75-7c15.25-2.75,38-9.5,51-13.5L469.5,118.969z"/>
		<path fill="#FFFFFF" d="M665,229.719l2.25,11c-38.75,15.75-80.75,32-110.75,43.75l-5.5-12c19.5-6.75,46.25-16.75,74.5-27.5v-93.75
			h-67v-12.25h67v-76h12v177.25L665,229.719z M752.75,266.469c12,0,13.75-10.5,15.25-51.5c3.25,2.75,7.75,5,11.5,6
			c-1.75,42.75-5.25,57.25-26.5,57.25h-42.25c-19.5,0-25.5-5.5-25.5-27v-188h12.25v89.5c25.5-11,53.75-24.75,70-37.25l8,10
			c-19.75,13.75-51,27.25-78,38.5v87.75c0,12,2.25,14.75,13.75,14.75H752.75z"/>
		<path fill="#FFFFFF" d="M890,214.969c-20.5,9.5-41.75,18.75-58.75,26l-4.75-11.75c8-2.5,17.5-6.5,27.75-10.75v-87.75H830.5v-11.5
			h23.75v-58.75h11.5v58.75h22.75v11.5h-22.75v83l21.75-9.25L890,214.969z M1047.25,216.719c-12,10-28.25,20-42,27
			c13.25,11.5,29.5,20.25,47.75,25c-2.75,2.25-6.25,6.75-7.5,10c-34.75-10.5-61.75-34.5-76-65.75c-9.75,6.25-20.5,12.5-32.75,18v36
			l46-14.5c0.25,3,0.75,7,1,9.5c-50.75,17.5-56.75,20-60.25,22.75c-1-2.75-3.75-7.75-5.75-10c3-1.75,8-6.5,8-16.25v-22.5
			c-10,4-20.75,8-32.5,11.75c-1.75-2.75-5-6.75-7.75-8.5c37.25-10.5,66.75-25,83.25-38.75l13.25,2.75c-1.5,1.25-2.75,2.25-4.25,3.5
			c4.75,11,11.5,21,20,30.25c13.75-8.25,31-19.25,41.25-27.75L1047.25,216.719z M1051.5,88.219h-157v-10.5H967
			c-2-5.75-4.5-12.25-7.25-17.5l11.25-2.5c3.5,6,7.25,14,9,20h71.5V88.219z M901.5,198.719c13-3.5,30.25-9,48.75-14.75l1.75,8.75
			c-16.25,5.75-32.25,10.75-46,15.5L901.5,198.719z M906.25,157.969c14.5,3,34.5,8,45,11.75l-3.25,9c-10.75-3.75-30.25-9.5-45.5-13
			L906.25,157.969z M1041.75,150.969H907v-48h134.75V150.969z M947.75,112.219H918v29.25h29.75V112.219z M988.75,112.219h-31v29.25
			h31V112.219z M967.25,196.469v-38.5h11.25v38.5H967.25z M1041,204.969c-11.5-4.5-32.5-11-49-14.75l4.25-8c16,3.5,37,9,48.25,13.75
			L1041,204.969z M993.5,167.219c12.5-2.25,31.5-8,42.25-11l5.25,9c-12.75,4.5-31.25,7.75-43.75,9.5L993.5,167.219z M1030.5,112.219
			h-31.75v29.25h31.75V112.219z"/>
	</g>
</g>
<g>
	<g>
		<path fill="#FFFFFF" d="M86.5,442.469c-3,45.75-10.5,81.75-22.5,109.75c11.5,10,21.5,19.75,27.75,27.75l-7.5,10
			c-6-7.75-15-17-25.25-26.25c-12,23.75-27.75,40.5-46.25,52c-1.5-2.75-5-7.25-7.75-10c18-10,33.25-26.75,45-50.75
			c-11.75-9.75-26.25-21.5-39.25-29.75c5.75-21.75,9.75-40,16.5-72H2.75v-11.5h27c3.75-19,7.25-37.25,10.25-53l11.75,1.5
			c-3,15.25-6.75,33.25-10.75,51.5h36.5l2.25-0.5L86.5,442.469z M38.75,453.219c-5,23.75-10.75,47.5-15.5,67.75
			c10.5,6.75,21.5,15,31.5,23.25c10-23.75,17-53.75,19.75-91H38.75z M130.5,428.969c-7.5,31.25-19.25,62-32.75,82.25
			c-2.25-1.5-8-4.75-11.25-6.25c14.5-19.5,25.5-50.25,32.25-78.25L130.5,428.969z M211,514.719c-15,51.75-50.5,85.25-113.75,100.75
			c-1.5-3-4.75-7.75-7.5-10.5c61.75-14,95.25-45,109.75-94L211,514.719z M165.25,521.469c0,7.25-2,11-7,13c-6,2-15.5,2.25-33,2
			c-0.75-3-2.75-8-4.25-10.75c13.5,0.25,24.75,0.25,28,0c3.5-0.25,4.75-1,4.75-4.25v-132.75h11.5V521.469z M197.25,426.219
			c14.5,23,28.75,53.25,33.5,72.75l-11,4.25c-4.25-19.5-18.25-50.5-32.5-73.5L197.25,426.219z"/>
		<path fill="#FFFFFF" d="M394.75,479.469c27.75,23.75,73.25,42.25,111.5,50.75c-2.25,2.75-5,7.5-6.5,10
			c-37.75-9.5-82.75-29-109.75-51c-23.5,20-65,40.5-107,53.5c-1.25-2.75-3.75-6.75-6-9.5c43-12,84.5-32,106.75-53.75H394.75z
			 M299.25,469.219h-11.5v-41.75h96.75v-17.5h-83.75v-10H481.5v10h-85.25v17.5h98.25v41.75H483v-32.25h-86.75v35.25H384.5v-35.25
			h-85.25V469.219z M308.25,478.219h61v9h-61V478.219z M309.75,544.719h141.5l2-0.75l7.75,5.5c-12.5,15.75-36.25,33-54.25,44.75
			c7.75,4,15.25,8,21.75,11.75l-5.25,9.75c-16.75-10.75-51.25-28.25-75-39.75l5-8c11.75,5.5,27,12.75,42,20.5
			c14.5-8.25,34.25-22.25,46-33.5h-131.5V544.719z M369,453.469v9h-55.5v-9H369z M346,518.969h90.5v9.75H346V518.969z
			 M468.75,453.469v9h-57.5v-9H468.75z M411.25,478.219H475v9h-63.75V478.219z"/>
		<path fill="#FFFFFF" d="M625.75,393.719h12v219.75h-12v-59c-24.25,10.25-49,20.75-68,28.75l-6-11.5c18.75-6.5,46.5-17.75,74-29
			v-76h-67v-12h67V393.719z M755.5,597.469c12.75,0,14.5-11,16-53.25c3.25,2.75,8.25,5.25,11.5,6c-1.75,44-5.25,59-27.25,59H711.5
			c-20,0-26.25-5.75-26.25-27.5v-187.75h12.25v88c25.25-15.25,52.25-33.75,68.25-49.25l9.5,10c-20.5,17.25-50.5,35.75-77.75,51.5
			v87.75c0,12.75,2.5,15.5,14.5,15.5H755.5z"/>
		<path fill="#FFFFFF" d="M871,391.719v58h26.75v11.25H871v80c8.25-3.75,19.25-8.75,27.75-12.75l2.75,11
			c-24.75,11.5-50.75,23.5-70.75,32.5l-4.25-11.5c9.25-3.75,20.5-8.5,33-14.25v-85h-29v-11.25h29v-58H871z M977,537.469
			c4.75,10.75,10.75,20.25,18.25,29c14.5-7.25,32-18,43.25-26.5l8,7.5c-13,9.5-30,18.75-44.75,26.25
			c14.75,14.75,33.5,25.5,55.5,31.25c-2.75,2.5-6.25,6.75-8,9.75c-37.5-11.5-66-38-80.5-71.25c-9.25,6.25-19.25,11.75-30,17.25v37.5
			l47-14.5c0,3,0.25,7,0.5,9.25c-51.25,17.5-57.75,20-61.5,22.5c-0.75-2.5-3-7.5-5-10c2.75-1.5,8-5.5,8-15.75v-24.25
			c-13,6-26.75,11-40.75,15c-1.25-2.75-4.5-6.25-7.25-8.5c39.75-10.5,70.5-26.25,88.75-41l12.75,3
			C979.75,535.219,978.5,536.219,977,537.469z M967,408.469c-1.75-5.5-5-12.25-7.5-17.25l11-2.75c3.75,5.75,7.25,14.25,9,20h72v10.5
			H894v-10.5H967z M953,527.969h-54v-9.5h54V527.969z M953,503.969h-51.5v-9.5H953V503.969z M1041.5,481.469h-135v-47.75h135
			V481.469z M947.25,442.969H917.5v29.25h29.75V442.969z M988.5,442.969h-31v29.25h31V442.969z M978.25,527.469H967v-38.5h11.25
			V527.469z M992.5,494.469h53v9.5h-53V494.469z M992.5,518.469h55.25v9.5H992.5V518.469z M1030,442.969h-31.5v29.25h31.5V442.969z"
			/>
	</g>
</g>
<g>
	<g>
		<path fill="#737F8A" d="M34.95,2.975L18.5,31.465L2.05,2.975H34.95z"/>
		<path fill="#737F8A" d="M47.27,30.065l-1.505-0.805c0.606-0.747,1.16-1.61,1.663-2.59c0.501-0.98,0.939-1.983,1.313-3.01
			c0.373-1.026,0.688-1.983,0.945-2.87l1.47,0.525c-0.28,0.91-0.607,1.902-0.98,2.975c-0.374,1.074-0.799,2.112-1.277,3.115
			C48.418,28.408,47.876,29.295,47.27,30.065z M73.169,1.575v15.26H49.055V1.575H73.169z M50.7,3.15v5.285h9.695V3.15H50.7z
			 M50.7,9.94v5.355h9.695V9.94H50.7z M58.154,29.365h7.7c0.63,0,1.097-0.111,1.4-0.333c0.303-0.221,0.519-0.676,0.647-1.365
			c0.128-0.688,0.216-1.733,0.263-3.133c0.233,0.164,0.501,0.304,0.805,0.42c0.303,0.117,0.571,0.199,0.805,0.245
			c-0.093,1.54-0.251,2.725-0.472,3.553c-0.222,0.828-0.59,1.4-1.103,1.715c-0.514,0.315-1.272,0.473-2.275,0.473h-7.77
			c-1.633,0-2.742-0.181-3.325-0.542c-0.583-0.362-0.875-1.091-0.875-2.188v-7.665h1.68v7.665c0,0.467,0.151,0.776,0.455,0.927
			S57.081,29.365,58.154,29.365z M65.785,23.1l-1.155,1.19c-0.537-0.513-1.225-1.085-2.065-1.715s-1.738-1.254-2.695-1.873
			c-0.957-0.618-1.89-1.16-2.8-1.627l1.12-1.05c0.91,0.467,1.843,0.992,2.8,1.575c0.956,0.583,1.86,1.179,2.712,1.785
			C64.554,21.992,65.248,22.563,65.785,23.1z M71.524,8.435V3.15h-9.52v5.285H71.524z M71.524,15.295V9.94h-9.52v5.355H71.524z
			 M69.95,20.93l1.505-0.63c0.7,0.887,1.394,1.855,2.083,2.905c0.688,1.05,1.307,2.077,1.855,3.08
			c0.548,1.003,0.962,1.902,1.243,2.695l-1.61,0.735c-0.28-0.793-0.683-1.703-1.208-2.73c-0.525-1.026-1.126-2.07-1.802-3.133
			C71.337,22.791,70.649,21.817,69.95,20.93z"/>
		<path fill="#737F8A" d="M87.31,13.405l-0.945,1.365c-0.42-0.396-0.963-0.828-1.628-1.295c-0.665-0.466-1.377-0.921-2.135-1.365
			c-0.758-0.443-1.511-0.828-2.257-1.155l0.98-1.19c0.723,0.304,1.464,0.671,2.222,1.103c0.758,0.432,1.47,0.864,2.135,1.295
			C86.347,12.594,86.89,13.008,87.31,13.405z M86.819,18.9l1.33,0.945c-0.513,1.213-1.08,2.497-1.697,3.85
			c-0.619,1.354-1.249,2.677-1.89,3.973c-0.642,1.295-1.254,2.467-1.837,3.517l-1.47-1.015c0.537-0.91,1.132-1.995,1.785-3.255
			c0.653-1.26,1.313-2.59,1.978-3.99S86.283,20.183,86.819,18.9z M88.955,4.375L87.939,5.74c-0.397-0.443-0.916-0.916-1.558-1.417
			c-0.642-0.501-1.336-0.992-2.083-1.47c-0.747-0.478-1.482-0.892-2.205-1.242l1.015-1.19c0.7,0.35,1.423,0.752,2.17,1.208
			s1.447,0.922,2.1,1.4C88.033,3.506,88.558,3.955,88.955,4.375z M110.305,19.285h-7.035v10.43c0,0.49-0.07,0.869-0.21,1.137
			s-0.409,0.461-0.805,0.578c-0.374,0.14-0.934,0.222-1.68,0.245c-0.747,0.023-1.727,0.023-2.94,0
			c-0.047-0.187-0.123-0.42-0.228-0.7c-0.105-0.28-0.205-0.537-0.298-0.77c0.957,0.023,1.791,0.035,2.502,0.035s1.184,0,1.417,0
			c0.42-0.023,0.63-0.198,0.63-0.525v-10.43h-6.72V7.56h5.845c0.187-0.653,0.373-1.376,0.56-2.17c0.187-0.793,0.326-1.516,0.42-2.17
			h-9.345v7.945c0,1.494-0.052,3.115-0.157,4.865s-0.315,3.529-0.63,5.337c-0.315,1.809-0.782,3.57-1.4,5.285
			c-0.619,1.715-1.441,3.308-2.467,4.777c-0.14-0.117-0.356-0.269-0.647-0.455c-0.292-0.187-0.531-0.315-0.718-0.385
			c1.003-1.447,1.796-2.993,2.38-4.638c0.583-1.645,1.021-3.331,1.313-5.057c0.292-1.727,0.478-3.418,0.56-5.075
			c0.082-1.657,0.123-3.208,0.123-4.655v-9.52h21.07V3.22h-8.785l0.56,0.14c-0.21,0.677-0.42,1.389-0.63,2.135
			c-0.21,0.747-0.409,1.435-0.595,2.065h7.91V19.285z M96.549,21.56l1.575,0.42c-0.583,1.377-1.295,2.747-2.135,4.112
			c-0.84,1.365-1.704,2.526-2.59,3.482c-0.164-0.117-0.391-0.28-0.683-0.49c-0.292-0.21-0.542-0.362-0.752-0.455
			c0.933-0.933,1.797-2.024,2.59-3.272C95.348,24.109,96.013,22.843,96.549,21.56z M96.515,8.995v3.675h12.18V8.995H96.515z
			 M96.515,14.105v3.745h12.18v-3.745H96.515z M106.419,21.98l1.435-0.63c0.606,0.7,1.208,1.476,1.803,2.328
			c0.595,0.852,1.137,1.686,1.627,2.502c0.49,0.817,0.863,1.552,1.12,2.205l-1.54,0.735c-0.234-0.653-0.59-1.394-1.068-2.222
			c-0.479-0.828-1.009-1.674-1.592-2.538C107.621,23.497,107.026,22.703,106.419,21.98z"/>
		<path fill="#737F8A" d="M146.74,21.665v1.54h-30.905v-1.54h14.56v-3.99h-11.62v-1.47h11.62V12.6h-10.955V1.435h23.45V12.6h-10.85
			v3.605h11.655v1.47H132.04v3.99H146.74z M117.549,31.85l-1.47-0.77c0.816-0.677,1.575-1.557,2.275-2.642
			c0.7-1.085,1.271-2.164,1.715-3.238l1.54,0.42c-0.443,1.074-1.015,2.188-1.715,3.343C119.194,30.117,118.413,31.08,117.549,31.85z
			 M121.049,11.095h9.345v-8.19h-9.345V11.095z M123.709,4.48l1.225-0.455c0.56,0.863,1.085,1.797,1.575,2.8
			c0.49,1.003,0.816,1.867,0.98,2.59l-1.33,0.56c-0.164-0.746-0.479-1.633-0.945-2.66S124.246,5.343,123.709,4.48z M125.984,25.865
			l1.575-0.07c0.233,0.863,0.425,1.82,0.578,2.87c0.151,1.05,0.228,1.913,0.228,2.59L126.72,31.5c0-0.7-0.065-1.587-0.193-2.66
			C126.398,27.767,126.217,26.775,125.984,25.865z M141.209,11.095v-8.19h-9.17v8.19H141.209z M133.265,25.9l1.575-0.28
			c0.42,0.864,0.828,1.814,1.225,2.853c0.396,1.038,0.688,1.908,0.875,2.607l-1.645,0.42c-0.164-0.724-0.438-1.616-0.822-2.678
			C134.087,27.761,133.685,26.787,133.265,25.9z M135.294,10.43l-1.12-0.56c0.35-0.513,0.718-1.114,1.103-1.802
			c0.385-0.688,0.758-1.388,1.12-2.1c0.361-0.711,0.659-1.359,0.893-1.942l1.4,0.595c-0.514,0.98-1.073,2.007-1.68,3.08
			C136.402,8.773,135.831,9.683,135.294,10.43z M140.475,25.795l1.505-0.56c0.606,0.56,1.213,1.19,1.82,1.89
			c0.607,0.7,1.173,1.388,1.698,2.065c0.525,0.676,0.95,1.283,1.277,1.82l-1.54,0.7c-0.303-0.537-0.717-1.15-1.242-1.838
			c-0.525-0.688-1.091-1.388-1.698-2.1C141.688,27.061,141.081,26.402,140.475,25.795z"/>
		<path fill="#737F8A" d="M164.379,15.645h-1.435V12.25h-10.29v3.395h-1.4v-4.76h1.995V1.33h9.135v9.555h1.995V15.645z
			 M162.385,15.085V29.82c0,0.863-0.28,1.4-0.84,1.61c-0.327,0.117-0.788,0.187-1.382,0.21c-0.595,0.023-1.383,0.035-2.363,0.035
			c-0.023-0.187-0.093-0.409-0.21-0.665c-0.117-0.257-0.233-0.49-0.35-0.7c0.746,0.023,1.405,0.035,1.977,0.035
			s0.939-0.012,1.103-0.035c0.35,0,0.525-0.163,0.525-0.49v-4.41h-6.125v6.3h-1.505V15.085H162.385z M154.649,2.73v8.155h2.24v-5.39
			h4.025V2.73H154.649z M160.845,16.45h-6.125v3.045h6.125V16.45z M154.72,24.045h6.125v-3.15h-6.125V24.045z M160.915,10.885V6.79
			h-2.73v4.095H160.915z M176.104,29.505h6.09v1.4h-18.13v-1.4h5.81c-0.093-0.583-0.257-1.23-0.49-1.942
			c-0.234-0.712-0.514-1.359-0.84-1.943l1.33-0.42c0.35,0.607,0.653,1.29,0.91,2.047c0.256,0.759,0.431,1.417,0.525,1.978
			l-0.805,0.28h5.04l-0.7-0.28c0.28-0.583,0.577-1.26,0.892-2.03c0.315-0.77,0.554-1.446,0.718-2.03l1.47,0.525
			c-0.303,0.653-0.612,1.318-0.927,1.995C176.682,28.362,176.385,28.968,176.104,29.505z M182.02,15.225v1.4h-17.395v-1.4H182.02z
			 M180.584,3.395v9.765h-14.7V3.395h4.305V0h1.4v3.395h3.08V0h1.4v3.395H180.584z M179.814,24.955h-13.16v-6.3h13.16V24.955z
			 M167.285,4.725V7.56h3.045V4.725H167.285z M167.285,8.925v2.905h3.045V8.925H167.285z M168.16,19.95v3.71h10.115v-3.71H168.16z
			 M171.589,7.56h3.08V4.725h-3.08V7.56z M174.669,8.925h-3.08v2.905h3.08V8.925z M179.115,7.56V4.725h-3.185V7.56H179.115z
			 M179.115,11.83V8.925h-3.185v2.905H179.115z"/>
	</g>
</g>
<g>
	<g>
		<path fill="#6FCACA" d="M34.95,334.975l-16.45,28.49l-16.45-28.49H34.95z"/>
		<path fill="#6FCACA" d="M56.37,334.625v22.33h-8.05v2.73h-1.645v-25.06H56.37z M54.794,336.2h-6.475v8.61h6.475V336.2z
			 M48.319,355.38h6.475v-9.03h-6.475V355.38z M57.91,333.75h17.815c0,0.42-0.012,0.7-0.035,0.84
			c-0.14,2.59-0.292,4.672-0.455,6.248c-0.164,1.575-0.344,2.771-0.542,3.587c-0.198,0.817-0.449,1.389-0.752,1.715
			c-0.49,0.49-1.144,0.747-1.96,0.77c-0.374,0.023-0.91,0.03-1.61,0.018c-0.7-0.011-1.447-0.041-2.24-0.087
			c-0.023-0.256-0.07-0.525-0.14-0.805c-0.07-0.28-0.187-0.536-0.35-0.77c0.84,0.07,1.615,0.117,2.327,0.14
			c0.712,0.023,1.196,0.035,1.453,0.035c0.537,0,0.921-0.117,1.155-0.35c0.21-0.233,0.396-0.7,0.56-1.4
			c0.163-0.7,0.32-1.727,0.472-3.08c0.151-1.353,0.286-3.115,0.403-5.285h-7.805c-0.28,1.75-0.718,3.418-1.313,5.005
			c-0.595,1.587-1.441,3.022-2.538,4.305c-1.097,1.284-2.555,2.345-4.375,3.185c-0.117-0.187-0.28-0.402-0.49-0.647
			c-0.21-0.245-0.409-0.438-0.595-0.578c1.727-0.747,3.103-1.703,4.13-2.87c1.026-1.167,1.808-2.473,2.345-3.92
			c0.537-1.446,0.921-2.94,1.155-4.48H57.91V333.75z M59.1,363.675v-14.07h16.205v13.93H73.66v-1.68h-12.95v1.82H59.1z
			 M73.66,351.18h-12.95v9.1h12.95V351.18z"/>
		<path fill="#6FCACA" d="M87.31,345.405l-0.945,1.365c-0.42-0.396-0.963-0.828-1.628-1.295c-0.665-0.466-1.377-0.921-2.135-1.365
			c-0.758-0.443-1.511-0.828-2.257-1.155l0.98-1.19c0.723,0.304,1.464,0.671,2.222,1.103c0.758,0.432,1.47,0.864,2.135,1.295
			C86.347,344.594,86.89,345.008,87.31,345.405z M86.819,350.9l1.33,0.945c-0.513,1.213-1.08,2.497-1.697,3.85
			c-0.619,1.354-1.249,2.677-1.89,3.973c-0.642,1.295-1.254,2.467-1.837,3.517l-1.47-1.015c0.537-0.91,1.132-1.995,1.785-3.255
			c0.653-1.26,1.313-2.59,1.978-3.99S86.283,352.183,86.819,350.9z M88.955,336.375l-1.015,1.365
			c-0.397-0.443-0.916-0.916-1.558-1.417c-0.642-0.501-1.336-0.992-2.083-1.47c-0.747-0.478-1.482-0.892-2.205-1.242l1.015-1.19
			c0.7,0.35,1.423,0.752,2.17,1.208s1.447,0.922,2.1,1.4C88.033,335.506,88.558,335.955,88.955,336.375z M110.305,351.285h-7.035
			v10.43c0,0.49-0.07,0.869-0.21,1.137s-0.409,0.461-0.805,0.578c-0.374,0.14-0.934,0.222-1.68,0.245
			c-0.747,0.023-1.727,0.023-2.94,0c-0.047-0.187-0.123-0.42-0.228-0.7c-0.105-0.28-0.205-0.537-0.298-0.77
			c0.957,0.023,1.791,0.035,2.502,0.035s1.184,0,1.417,0c0.42-0.023,0.63-0.198,0.63-0.525v-10.43h-6.72V339.56h5.845
			c0.187-0.653,0.373-1.376,0.56-2.17c0.187-0.793,0.326-1.516,0.42-2.17h-9.345v7.945c0,1.494-0.052,3.115-0.157,4.865
			s-0.315,3.529-0.63,5.337c-0.315,1.809-0.782,3.57-1.4,5.285c-0.619,1.715-1.441,3.308-2.467,4.777
			c-0.14-0.117-0.356-0.269-0.647-0.455c-0.292-0.187-0.531-0.315-0.718-0.385c1.003-1.447,1.796-2.993,2.38-4.638
			c0.583-1.645,1.021-3.331,1.313-5.057c0.292-1.727,0.478-3.418,0.56-5.075c0.082-1.657,0.123-3.208,0.123-4.655v-9.52h21.07v1.575
			h-8.785l0.56,0.14c-0.21,0.677-0.42,1.389-0.63,2.135c-0.21,0.747-0.409,1.435-0.595,2.065h7.91V351.285z M96.549,353.56
			l1.575,0.42c-0.583,1.377-1.295,2.747-2.135,4.112c-0.84,1.365-1.704,2.526-2.59,3.482c-0.164-0.117-0.391-0.28-0.683-0.49
			c-0.292-0.21-0.542-0.362-0.752-0.455c0.933-0.933,1.797-2.024,2.59-3.272C95.348,356.109,96.013,354.843,96.549,353.56z
			 M96.515,340.995v3.675h12.18v-3.675H96.515z M96.515,346.105v3.745h12.18v-3.745H96.515z M106.419,353.98l1.435-0.63
			c0.606,0.7,1.208,1.476,1.803,2.328c0.595,0.852,1.137,1.686,1.627,2.502c0.49,0.817,0.863,1.552,1.12,2.205l-1.54,0.735
			c-0.234-0.653-0.59-1.394-1.068-2.222c-0.479-0.828-1.009-1.674-1.592-2.538C107.621,355.497,107.026,354.703,106.419,353.98z"/>
		<path fill="#6FCACA" d="M146.74,353.665v1.54h-30.905v-1.54h14.56v-3.99h-11.62v-1.47h11.62V344.6h-10.955v-11.165h23.45V344.6
			h-10.85v3.605h11.655v1.47H132.04v3.99H146.74z M117.549,363.85l-1.47-0.77c0.816-0.677,1.575-1.557,2.275-2.642
			c0.7-1.085,1.271-2.164,1.715-3.238l1.54,0.42c-0.443,1.074-1.015,2.188-1.715,3.343
			C119.194,362.117,118.413,363.08,117.549,363.85z M121.049,343.095h9.345v-8.19h-9.345V343.095z M123.709,336.48l1.225-0.455
			c0.56,0.863,1.085,1.797,1.575,2.8c0.49,1.003,0.816,1.867,0.98,2.59l-1.33,0.56c-0.164-0.746-0.479-1.633-0.945-2.66
			S124.246,337.343,123.709,336.48z M125.984,357.865l1.575-0.07c0.233,0.863,0.425,1.82,0.578,2.87
			c0.151,1.05,0.228,1.913,0.228,2.59l-1.645,0.245c0-0.7-0.065-1.587-0.193-2.66C126.398,359.767,126.217,358.775,125.984,357.865z
			 M141.209,343.095v-8.19h-9.17v8.19H141.209z M133.265,357.9l1.575-0.28c0.42,0.864,0.828,1.814,1.225,2.853
			c0.396,1.038,0.688,1.908,0.875,2.607l-1.645,0.42c-0.164-0.724-0.438-1.616-0.822-2.678
			C134.087,359.761,133.685,358.787,133.265,357.9z M135.294,342.43l-1.12-0.56c0.35-0.513,0.718-1.114,1.103-1.802
			c0.385-0.688,0.758-1.388,1.12-2.1c0.361-0.711,0.659-1.359,0.893-1.942l1.4,0.595c-0.514,0.98-1.073,2.007-1.68,3.08
			C136.402,340.773,135.831,341.683,135.294,342.43z M140.475,357.795l1.505-0.56c0.606,0.56,1.213,1.19,1.82,1.89
			c0.607,0.7,1.173,1.388,1.698,2.065c0.525,0.676,0.95,1.283,1.277,1.82l-1.54,0.7c-0.303-0.537-0.717-1.15-1.242-1.838
			c-0.525-0.688-1.091-1.388-1.698-2.1C141.688,359.061,141.081,358.402,140.475,357.795z"/>
		<path fill="#6FCACA" d="M164.379,347.645h-1.435v-3.395h-10.29v3.395h-1.4v-4.76h1.995v-9.555h9.135v9.555h1.995V347.645z
			 M162.385,347.085v14.735c0,0.863-0.28,1.4-0.84,1.61c-0.327,0.117-0.788,0.187-1.382,0.21c-0.595,0.023-1.383,0.035-2.363,0.035
			c-0.023-0.187-0.093-0.409-0.21-0.665c-0.117-0.257-0.233-0.49-0.35-0.7c0.746,0.023,1.405,0.035,1.977,0.035
			s0.939-0.012,1.103-0.035c0.35,0,0.525-0.163,0.525-0.49v-4.41h-6.125v6.3h-1.505v-16.625H162.385z M154.649,334.73v8.155h2.24
			v-5.39h4.025v-2.765H154.649z M160.845,348.45h-6.125v3.045h6.125V348.45z M154.72,356.045h6.125v-3.15h-6.125V356.045z
			 M160.915,342.885v-4.095h-2.73v4.095H160.915z M176.104,361.505h6.09v1.4h-18.13v-1.4h5.81c-0.093-0.583-0.257-1.23-0.49-1.942
			c-0.234-0.712-0.514-1.359-0.84-1.943l1.33-0.42c0.35,0.607,0.653,1.29,0.91,2.047c0.256,0.759,0.431,1.417,0.525,1.978
			l-0.805,0.28h5.04l-0.7-0.28c0.28-0.583,0.577-1.26,0.892-2.03c0.315-0.77,0.554-1.446,0.718-2.03l1.47,0.525
			c-0.303,0.653-0.612,1.318-0.927,1.995C176.682,360.362,176.385,360.968,176.104,361.505z M182.02,347.225v1.4h-17.395v-1.4
			H182.02z M180.584,335.395v9.765h-14.7v-9.765h4.305V332h1.4v3.395h3.08V332h1.4v3.395H180.584z M179.814,356.955h-13.16v-6.3
			h13.16V356.955z M167.285,336.725v2.835h3.045v-2.835H167.285z M167.285,340.925v2.905h3.045v-2.905H167.285z M168.16,351.95v3.71
			h10.115v-3.71H168.16z M171.589,339.56h3.08v-2.835h-3.08V339.56z M174.669,340.925h-3.08v2.905h3.08V340.925z M179.115,339.56
			v-2.835h-3.185v2.835H179.115z M179.115,343.83v-2.905h-3.185v2.905H179.115z"/>
	</g>
</g>
<g>
</g>
<g>
</g>
<g>
</g>
<g>
</g>
<g>
</g>
<g>
</g>
</svg>
