<?xml version="1.0" encoding="utf-8"?>
<!-- Generator: Adobe Illustrator 16.0.0, SVG Export Plug-In . SVG Version: 6.00 Build 0)  -->
<!DOCTYPE svg PUBLIC "-//W3C//DTD SVG 1.1//EN" "http://www.w3.org/Graphics/SVG/1.1/DTD/svg11.dtd">
<svg version="1.1" id="Layer_1" xmlns="http://www.w3.org/2000/svg" xmlns:xlink="http://www.w3.org/1999/xlink" x="0px" y="0px"
	 width="1058.42px" height="361.416px" viewBox="0 0 1058.42 361.416" enable-background="new 0 0 1058.42 361.416"
	 xml:space="preserve">
<g>
	<path fill="#FFFFFF" d="M13.466,110.432c-4.485-0.236-8.497-2.302-10.798-5.134l1.711-1.888c2.419,2.478,5.9,4.307,10.267,4.307
		c5.311,0,8.202-3.304,8.202-8.201c0-10.444-18.469-9.973-18.469-21.479c0-5.547,3.776-9.5,9.087-10.148v-6.314h2.655v6.314
		c4.071,0.354,6.844,2.242,8.851,4.72l-1.829,1.652c-1.947-2.301-4.366-3.717-8.32-3.717c-4.308,0-7.317,3.186-7.317,7.257
		c0,9.618,18.528,9.087,18.528,21.42c0,6.432-4.189,10.562-9.913,11.211v6.372h-2.655V110.432z"/>
	<path fill="#FFFFFF" d="M33.464,107.777c4.78-2.597,6.845-7.376,6.845-12.332c0-1.534-0.295-3.01-0.59-4.485h-6.373V88.6
		l4.249-0.118h1.475c-0.885-3.187-2.006-6.313-2.006-9.56c0-6.845,4.249-11.093,10.975-11.093c4.484,0,7.494,2.006,9.441,4.779
		l-1.888,1.594c-1.711-2.302-4.013-3.658-7.376-3.658c-5.251,0-8.024,3.717-8.024,8.378c0,3.246,1.121,6.314,2.006,9.56h10.562
		v2.478h-9.972c0.236,1.417,0.472,2.892,0.472,4.485c0,5.251-1.652,8.378-4.603,11.27v0.236h18.941v2.773H33.464V107.777z"/>
	<path fill="#FFFFFF" d="M74.587,99.575h-10.68v-2.419h10.68v-4.779h-10.68v-2.42h9.736L62.668,68.597h3.363l5.959,12.332
		c1.357,2.832,2.655,5.664,4.189,8.792h0.236c1.534-3.128,2.891-5.96,4.307-8.792l5.901-12.332h3.245L78.718,89.957h9.795v2.42
		H77.774v4.779h10.739v2.419H77.774v10.149h-3.187V99.575z"/>
	<path fill="#FFFFFF" d="M97.419,94.087h-4.189v-2.124l3.953-0.236c-0.059-0.826-0.059-1.771-0.059-2.655
		c0-0.767,0-1.534,0.059-2.242h-3.953v-2.065l4.13-0.295c1.298-10.385,6.963-16.64,15.046-16.64c4.189,0,7.435,2.124,9.264,5.134
		l-1.888,1.475c-1.83-2.655-4.072-3.894-7.258-3.894c-6.609,0-10.798,5.31-11.801,13.925h17.702v2.36h-17.938
		c-0.059,0.708-0.059,1.416-0.059,2.184c0,0.885,0,1.888,0.059,2.714h15.4v2.36h-15.105c1.062,8.438,5.016,13.689,11.388,13.689
		c3.363,0,5.959-1.476,8.025-4.662l1.829,1.121c-2.301,3.954-5.488,6.255-10.09,6.255C104.086,110.491,98.717,104.236,97.419,94.087
		z"/>
	<path fill="#FFFFFF" d="M139.073,104.59c-7.257-0.708-12.45-6.078-12.45-14.869c0-8.852,5.488-14.103,12.45-14.87v-7.14h2.301
		v7.021c4.013,0.118,6.668,1.947,8.615,3.836l-1.652,2.006c-1.947-1.77-4.308-3.068-6.963-3.068v24.429
		c3.127-0.118,5.724-1.593,7.789-3.423l1.593,2.065c-2.537,2.242-5.723,3.895-9.382,4.071v6.904h-2.301V104.59z M139.073,101.817
		V77.625c-5.487,0.885-9.323,5.547-9.323,12.097C129.75,96.33,133.35,100.991,139.073,101.817z"/>
	<path fill="#FFFFFF" d="M151.873,123.472l0.708-2.419c0.767,0.235,2.065,0.648,3.187,0.648c3.422,0,4.071-2.773,4.071-6.727V81.46
		h-4.248v-2.42l4.248-0.235v-6.668c0-6.137,2.773-9.441,7.848-9.441c1.476,0,3.246,0.473,4.543,1.121l-0.826,2.36
		c-1.298-0.53-2.479-0.767-3.6-0.767c-3.304,0-4.838,2.479-4.838,6.963v6.432h7.081v2.655h-7.081v33.751
		c0,6.077-2.124,9.205-7.14,9.205C154.47,124.417,152.817,124.003,151.873,123.472z"/>
	<path fill="#FFFFFF" d="M175.355,89.13h4.72c7.199,0,11.506-2.832,11.742-9.027h-16.462v-2.065l4.307-0.354h11.919
		c-0.826-4.544-4.957-6.373-11.506-6.373h-4.72v-2.714h23.838v2.419h-9.382c2.537,1.239,4.543,3.6,5.075,6.668h4.307v2.419h-4.13
		c-0.177,6.903-4.543,10.798-10.975,11.624l12.804,17.997h-3.835l-12.45-17.82h-5.251V89.13z"/>
	<path fill="#FFFFFF" d="M209.87,92.081l-5.959,3.128l-1.062-2.006l7.021-3.718v-5.074l-5.959,3.068l-1.062-2.007l7.021-3.717
		V68.597h3.187v11.801l10.798-5.724l1.121,2.006l-11.919,6.373v5.074l10.798-5.724l1.121,2.007l-11.919,6.313v16.698
		c6.195-0.059,14.338-3.835,14.338-11.683c0-0.944,0-1.829-0.295-3.187l2.773-0.826c0.354,1.593,0.472,2.479,0.472,3.835
		c0,10.444-9.618,15.105-20.475,14.929V92.081z"/>
	<path fill="#FFFFFF" d="M241.08,98.985h-5.133v-2.124l5.133-0.236v-4.897h-5.133v-2.065l5.133-0.354V68.597h6.078
		c8.025,0,13.689,3.186,13.689,11.093c0,8.202-5.665,12.037-13.689,12.037h-3.068v4.897h13.217v2.36h-13.217v10.739h-3.009V98.985z
		 M246.449,89.308c7.258,0,11.27-3.068,11.27-9.5c0-6.491-4.012-8.733-11.27-8.733h-2.36v18.233H246.449z"/>
	<path fill="#FFFFFF" d="M292.385,79.808c0-8.497,3.481-13.218,9.087-13.218c5.665,0,9.146,4.721,9.146,13.218
		c0,8.556-3.481,13.395-9.146,13.395C295.866,93.203,292.385,88.364,292.385,79.808z M307.962,79.808
		c0-7.14-2.537-10.976-6.491-10.976c-3.835,0-6.432,3.836-6.432,10.976s2.596,11.151,6.432,11.151
		C305.425,90.959,307.962,86.948,307.962,79.808z M326.195,66.59h2.537l-23.602,43.9h-2.538L326.195,66.59z M321.003,97.096
		c0-8.496,3.54-13.217,9.086-13.217c5.665,0,9.146,4.721,9.146,13.217c0,8.557-3.481,13.395-9.146,13.395
		C324.543,110.491,321.003,105.653,321.003,97.096z M336.58,97.096c0-7.14-2.537-10.975-6.491-10.975
		c-3.835,0-6.432,3.835-6.432,10.975s2.597,11.152,6.432,11.152C334.043,108.249,336.58,104.236,336.58,97.096z"/>
	<path fill="#FFFFFF" d="M344.364,79.808c0-8.497,3.481-13.218,9.087-13.218c5.665,0,9.146,4.721,9.146,13.218
		c0,8.556-3.481,13.395-9.146,13.395C347.845,93.203,344.364,88.364,344.364,79.808z M359.941,79.808
		c0-7.14-2.537-10.976-6.491-10.976c-3.835,0-6.432,3.836-6.432,10.976s2.596,11.151,6.432,11.151
		C357.404,90.959,359.941,86.948,359.941,79.808z M378.174,66.59h2.537l-23.602,43.9h-2.538L378.174,66.59z M372.981,97.096
		c0-8.496,3.541-13.217,9.087-13.217c5.665,0,9.146,4.721,9.146,13.217c0,8.557-3.481,13.395-9.146,13.395
		C376.522,110.491,372.981,105.653,372.981,97.096z M388.559,97.096c0-7.14-2.537-10.975-6.491-10.975
		c-3.835,0-6.432,3.835-6.432,10.975s2.597,11.152,6.432,11.152C386.022,108.249,388.559,104.236,388.559,97.096z M395.994,97.096
		c0-8.496,3.54-13.217,9.146-13.217s9.087,4.721,9.087,13.217c0,8.557-3.481,13.395-9.087,13.395S395.994,105.653,395.994,97.096z
		 M411.63,97.096c0-7.14-2.596-10.975-6.491-10.975c-3.894,0-6.432,3.835-6.432,10.975s2.538,11.152,6.432,11.152
		C409.034,108.249,411.63,104.236,411.63,97.096z"/>
	<path fill="#FFFFFF" d="M453.196,71.724h-5.37v-1.889c2.537-0.53,4.13-1.298,5.665-2.478h2.36v25.077h-2.655V71.724z
		 M478.332,66.59h2.596l-23.602,43.9h-2.596L478.332,66.59z M483.524,102.466h-11.27v-1.416l11.211-16.404h2.596v15.696h3.717v2.124
		h-3.717v7.258h-2.538V102.466z M483.524,100.342v-5.547l0.354-6.668h-0.295l-3.54,5.311l-4.662,6.904H483.524z"/>
	<path fill="#FFFFFF" d="M502.46,71.724h-5.37v-1.889c2.537-0.53,4.13-1.298,5.665-2.478h2.36v25.077h-2.655V71.724z M526.122,66.59
		h2.596l-23.602,43.9h-2.596L526.122,66.59z M523.525,108.072c8.497-7.848,12.391-11.802,12.391-15.991c0-3.599-2.183-5.9-5.487-5.9
		c-2.301,0-4.367,1.829-5.783,3.954l-1.77-1.594c1.652-2.537,4.661-4.661,7.848-4.661c4.662,0,7.847,2.655,7.847,7.966
		c0,5.134-4.366,9.322-10.621,15.577h12.037v2.302h-16.462V108.072z"/>
	<path fill="#FFFFFF" d="M545.823,88.364l1.889-1.476c1.534,2.36,4.131,4.071,6.904,4.071c3.127,0,5.782-1.946,5.782-5.251
		c0-3.245-3.363-5.074-8.733-5.074v-1.889c4.957,0,7.73-2.479,7.73-5.311c0-2.773-2.006-4.603-5.252-4.603
		c-2.006,0-4.012,1.357-5.664,3.305l-1.652-1.534c1.77-2.302,4.366-4.013,7.611-4.013c4.248,0,7.671,2.479,7.671,6.609
		c0,3.127-2.065,5.251-4.779,6.313c3.009,0.648,5.782,2.832,5.782,6.313c0,4.603-3.717,7.376-8.438,7.376
		C550.662,93.203,547.535,90.959,545.823,88.364z M581.228,66.59h2.596l-23.602,43.9h-2.597L581.228,66.59z M584.708,102.466H573.38
		v-1.416l11.27-16.404h2.537v15.696h3.777v2.124h-3.777v7.258h-2.479V102.466z M584.708,100.342v-5.547l0.296-6.668h-0.236
		l-3.54,5.311l-4.662,6.904H584.708z"/>
	<path fill="#FFFFFF" d="M603.645,71.724h-5.37v-1.889c2.537-0.53,4.131-1.298,5.665-2.478h2.36v25.077h-2.655V71.724z
		 M626.893,66.59h2.597l-23.603,43.9h-2.597L626.893,66.59z M623.647,105.653l1.947-1.476c1.534,2.419,4.071,4.071,6.845,4.071
		c3.187,0,5.782-1.947,5.782-5.192c0-3.305-3.305-5.074-8.732-5.074v-1.947c4.956,0,7.729-2.479,7.729-5.311
		c0-2.715-2.007-4.603-5.192-4.603c-2.006,0-4.072,1.357-5.664,3.363l-1.712-1.593c1.829-2.302,4.366-4.013,7.612-4.013
		c4.248,0,7.729,2.479,7.729,6.608c0,3.127-2.065,5.252-4.839,6.313c3.01,0.649,5.783,2.832,5.783,6.313
		c0,4.603-3.718,7.376-8.438,7.376C628.545,110.491,625.358,108.249,623.647,105.653z"/>
	<path fill="#FFFFFF" d="M648.011,90.724c8.498-7.848,12.333-11.742,12.333-15.932c0-3.6-2.183-5.9-5.429-5.9
		c-2.36,0-4.366,1.77-5.782,3.895l-1.771-1.534c1.594-2.538,4.662-4.662,7.848-4.662c4.662,0,7.848,2.597,7.848,7.966
		c0,5.134-4.366,9.323-10.68,15.578h12.096v2.301h-16.463V90.724z M680.819,66.59h2.596l-23.603,43.9h-2.597L680.819,66.59z
		 M675.567,105.653l1.888-1.476c1.534,2.419,4.131,4.071,6.903,4.071c3.128,0,5.783-1.947,5.783-5.192
		c0-3.305-3.363-5.074-8.732-5.074v-1.947c4.956,0,7.729-2.479,7.729-5.311c0-2.715-2.007-4.603-5.252-4.603
		c-2.006,0-4.013,1.357-5.665,3.363l-1.651-1.593c1.829-2.302,4.366-4.013,7.612-4.013c4.248,0,7.67,2.479,7.67,6.608
		c0,3.127-2.006,5.252-4.779,6.313c3.01,0.649,5.783,2.832,5.783,6.313c0,4.603-3.718,7.376-8.438,7.376
		C680.405,110.491,677.278,108.249,675.567,105.653z"/>
	<path fill="#FFFFFF" d="M706.187,71.724h-5.37v-1.889c2.537-0.53,4.13-1.298,5.665-2.478h2.359v25.077h-2.654V71.724z
		 M730.083,66.59h2.597l-23.603,43.9h-2.596L730.083,66.59z M726.72,103.469c0-3.187,2.301-5.782,4.779-7.14v-0.236
		c-2.183-1.475-3.717-3.009-3.717-5.724c0-3.776,3.245-6.49,7.375-6.49c4.249,0,7.553,2.537,7.553,6.49
		c0,3.187-2.301,5.134-3.775,6.313v0.236c2.949,1.476,4.661,3.363,4.661,6.373c0,4.13-3.659,7.198-8.438,7.198
		C730.024,110.491,726.72,107.304,726.72,103.469z M740.999,103.292c0-3.659-3.717-4.484-7.553-5.96
		c-2.714,1.534-4.13,3.6-4.13,5.96c0,2.596,2.242,5.074,5.841,5.074C738.403,108.367,740.999,106.065,740.999,103.292z
		 M740.114,90.37c0-2.596-2.242-4.248-5.016-4.248c-2.537,0-4.661,1.771-4.661,4.308c0,2.832,2.832,4.366,6.432,5.546
		C739.052,94.206,740.114,92.376,740.114,90.37z"/>
	<path fill="#FFFFFF" d="M749.55,88.364l1.889-1.476c1.533,2.36,4.13,4.071,6.903,4.071c3.128,0,5.782-1.946,5.782-5.251
		c0-3.245-3.363-5.074-8.732-5.074v-1.889c4.957,0,7.729-2.479,7.729-5.311c0-2.773-2.006-4.603-5.251-4.603
		c-1.947,0-4.013,1.357-5.665,3.305l-1.652-1.534c1.829-2.302,4.366-4.013,7.612-4.013c4.248,0,7.67,2.479,7.67,6.609
		c0,3.127-2.006,5.251-4.779,6.313c3.01,0.648,5.783,2.832,5.783,6.313c0,4.603-3.718,7.376-8.438,7.376
		C754.388,93.203,751.261,90.959,749.55,88.364z M783.302,66.59h2.537l-23.603,43.9h-2.538L783.302,66.59z M778.581,103.469
		c0-3.187,2.359-5.782,4.838-7.14v-0.236c-2.184-1.475-3.717-3.009-3.717-5.724c0-3.776,3.186-6.49,7.375-6.49
		c4.249,0,7.553,2.537,7.553,6.49c0,3.187-2.359,5.134-3.835,6.313v0.236c3.009,1.476,4.72,3.363,4.72,6.373
		c0,4.13-3.658,7.198-8.438,7.198C781.944,110.491,778.581,107.304,778.581,103.469z M792.86,103.292
		c0-3.659-3.658-4.484-7.494-5.96c-2.715,1.534-4.131,3.6-4.131,5.96c0,2.596,2.242,5.074,5.842,5.074
		C790.323,108.367,792.86,106.065,792.86,103.292z M792.034,90.37c0-2.596-2.242-4.248-5.016-4.248
		c-2.596,0-4.662,1.771-4.662,4.308c0,2.832,2.773,4.366,6.432,5.546C790.972,94.206,792.034,92.376,792.034,90.37z"/>
	<path fill="#FFFFFF" d="M801.411,88.364l1.888-1.476c1.712,2.36,3.895,4.071,7.14,4.071c3.363,0,5.842-2.654,5.842-6.432
		c0-4.012-2.42-6.431-5.959-6.431c-2.302,0-3.836,1.121-5.252,2.242l-1.534-1.063l1.239-11.919h12.863v2.419h-10.563l-0.826,7.494
		c1.239-0.708,2.715-1.239,4.603-1.239c4.544,0,8.144,2.95,8.144,8.556c0,5.192-3.719,8.615-8.557,8.615
		C806.072,93.203,803.239,90.959,801.411,88.364z M835.162,66.59h2.537l-23.603,43.9h-2.537L835.162,66.59z M830.441,103.469
		c0-3.187,2.36-5.782,4.839-7.14v-0.236c-2.184-1.475-3.718-3.009-3.718-5.724c0-3.776,3.187-6.49,7.376-6.49
		c4.248,0,7.553,2.537,7.553,6.49c0,3.187-2.36,5.134-3.836,6.313v0.236c3.01,1.476,4.721,3.363,4.721,6.373
		c0,4.13-3.658,7.198-8.438,7.198C833.805,110.491,830.441,107.304,830.441,103.469z M844.721,103.292
		c0-3.659-3.658-4.484-7.493-5.96c-2.715,1.534-4.131,3.6-4.131,5.96c0,2.596,2.242,5.074,5.842,5.074
		C842.184,108.367,844.721,106.065,844.721,103.292z M843.896,90.37c0-2.596-2.242-4.248-5.016-4.248
		c-2.597,0-4.662,1.771-4.662,4.308c0,2.832,2.773,4.366,6.432,5.546C842.833,94.206,843.896,92.376,843.896,90.37z"/>
	<path fill="#FFFFFF" d="M862.005,63.05h-5.37v-1.889c2.537-0.53,4.13-1.298,5.665-2.478h2.359v25.077h-2.654V63.05z"/>
	<path fill="#FFFFFF" d="M877.638,82.05c8.498-7.848,12.333-11.742,12.333-15.932c0-3.6-2.183-5.9-5.429-5.9
		c-2.36,0-4.366,1.77-5.782,3.895l-1.771-1.534c1.594-2.597,4.662-4.721,7.848-4.721c4.662,0,7.848,2.655,7.848,8.024
		c0,5.134-4.366,9.323-10.68,15.519h12.096v2.36h-16.463V82.05z"/>
	<path fill="#FFFFFF" d="M899.999,79.69l1.889-1.476c1.533,2.36,4.13,4.071,6.903,4.071c3.127,0,5.782-1.946,5.782-5.251
		c0-3.245-3.363-5.074-8.732-5.074v-1.947c4.957,0,7.729-2.42,7.729-5.252c0-2.773-2.006-4.603-5.251-4.603
		c-1.947,0-4.013,1.299-5.665,3.305l-1.652-1.534c1.829-2.302,4.366-4.071,7.612-4.071c4.248,0,7.67,2.537,7.67,6.667
		c0,3.128-2.006,5.252-4.779,6.314c3.01,0.59,5.783,2.832,5.783,6.254c0,4.662-3.718,7.435-8.438,7.435
		C904.837,84.528,901.71,82.286,899.999,79.69z"/>
	<path fill="#FFFFFF" d="M935.046,76.445h-11.329v-1.416l11.271-16.345h2.537v15.637h3.776v2.124h-3.776v7.316h-2.479V76.445z
		 M935.046,74.321v-5.488l0.295-6.727h-0.235l-3.541,5.37l-4.661,6.845H935.046z"/>
	<path fill="#FFFFFF" d="M946.728,79.69l1.888-1.476c1.711,2.36,3.895,4.071,7.14,4.071c3.363,0,5.842-2.655,5.842-6.432
		c0-4.012-2.419-6.432-5.96-6.432c-2.301,0-3.835,1.122-5.251,2.243l-1.534-1.063l1.239-11.919h12.863v2.419h-10.563l-0.826,7.435
		c1.239-0.708,2.715-1.18,4.603-1.18c4.544,0,8.143,2.95,8.143,8.556c0,5.192-3.717,8.614-8.556,8.614
		C951.389,84.528,948.557,82.286,946.728,79.69z"/>
	<path fill="#FFFFFF" d="M970.622,72.137c0-10.268,5.016-14.279,10.563-14.279c2.537,0,4.071,0.648,5.547,1.652l-1.239,2.124
		c-1.121-0.826-2.537-1.476-4.367-1.476c-3.717,0-7.375,3.068-7.788,10.798c1.947-1.888,4.248-2.832,6.785-2.832
		c5.075,0,7.848,3.423,7.848,8.025c0,4.72-3.422,8.378-8.024,8.378C974.458,84.528,970.622,79.985,970.622,72.137z M973.337,73.495
		c0.354,5.605,2.773,8.791,6.727,8.791c3.127,0,5.311-2.655,5.311-6.077s-1.947-5.96-5.605-5.96
		C977.526,70.249,975.579,71.075,973.337,73.495z"/>
	<path fill="#FFFFFF" d="M1007.853,60.985h-13.749v-2.301h16.816v1.534c-6.313,8.083-7.906,14.574-8.378,23.543h-2.833
		C1000.358,74.616,1002.424,68.184,1007.853,60.985z"/>
	<path fill="#FFFFFF" d="M1017.29,77.506c0-3.245,2.36-5.782,4.839-7.14v-0.235c-2.184-1.534-3.718-3.068-3.718-5.724
		c0-3.836,3.187-6.55,7.376-6.55c4.248,0,7.553,2.596,7.553,6.55c0,3.186-2.36,5.133-3.836,6.254v0.295
		c3.01,1.476,4.721,3.305,4.721,6.373c0,4.071-3.658,7.198-8.438,7.198C1020.653,84.528,1017.29,81.283,1017.29,77.506z
		 M1031.569,77.33c0-3.658-3.658-4.543-7.494-6.019c-2.714,1.534-4.13,3.6-4.13,6.019c0,2.537,2.242,5.074,5.842,5.074
		C1029.032,82.404,1031.569,80.103,1031.569,77.33z M1030.743,64.408c0-2.597-2.242-4.249-5.016-4.249
		c-2.537,0-4.661,1.771-4.661,4.308c0,2.832,2.832,4.366,6.432,5.487C1029.682,68.243,1030.743,66.355,1030.743,64.408z"/>
	<path fill="#FFFFFF" d="M1041.479,82.876l1.18-2.124c1.181,0.885,2.597,1.533,4.367,1.533c3.717,0,7.435-3.127,7.788-10.856
		c-1.947,1.888-4.189,2.832-6.727,2.832c-5.074,0-7.848-3.363-7.848-8.024c0-4.662,3.363-8.379,8.024-8.379
		c5.488,0,9.265,4.543,9.265,12.391c0,10.268-5.016,14.279-10.563,14.279C1044.488,84.528,1042.896,83.879,1041.479,82.876z
		 M1048.442,72.137c2.242,0,4.13-0.826,6.372-3.245c-0.295-5.605-2.773-8.733-6.608-8.733c-3.245,0-5.369,2.597-5.369,6.019
		C1042.837,69.6,1044.725,72.137,1048.442,72.137z"/>
	<path fill="#FFFFFF" d="M5.146,146.358h4.543l8.732,24.605c1.121,3.068,2.184,6.137,3.246,9.322h0.236
		c1.121-3.186,2.065-6.254,3.187-9.322l8.674-24.605h4.543v42.366h-3.068v-27.261c0-3.541,0.177-8.261,0.354-11.802h-0.236
		l-3.305,9.678l-8.91,24.841H20.31l-9.028-24.841l-3.304-9.678H7.683c0.236,3.541,0.472,8.261,0.472,11.802v27.261H5.146V146.358z"
		/>
	<path fill="#FFFFFF" d="M49.926,177.572v-19.767h3.068v19.412c0,6.432,2.065,9.441,6.963,9.441c3.6,0,6.137-1.829,9.677-6.195
		v-22.658h3.187v30.919h-2.655l-0.354-5.134h-0.118c-3.009,3.54-6.195,5.9-10.444,5.9C52.876,189.491,49.926,185.596,49.926,177.572
		z"/>
	<path fill="#FFFFFF" d="M81.903,200.82c5.488-0.354,7.199-1.416,7.199-3.304c0-1.889-1.829-2.655-4.897-2.951l0.826-2.006
		c5.016,0.768,6.727,2.006,6.727,4.779c0,3.423-3.304,5.134-9.441,5.547L81.903,200.82z M84.5,184.357v-41.894h3.186v42.248
		c0,1.475,0.531,2.006,1.475,2.006c0.236,0,0.472,0,1.003-0.118l0.531,2.42c-0.649,0.295-1.298,0.472-2.183,0.472
		C85.857,189.491,84.5,187.838,84.5,184.357z"/>
	<path fill="#FFFFFF" d="M99.898,142.463h3.127v33.811h0.177l14.987-18.469h3.6l-10.09,12.272l11.683,18.646h-3.481l-10.09-16.345
		l-6.786,7.906v8.438h-3.127V142.463z M105.622,200.82c5.547-0.354,7.199-1.416,7.199-3.304c0-1.889-1.77-2.655-4.897-2.951
		l0.885-2.006c5.016,0.768,6.727,2.006,6.727,4.779c0,3.423-3.363,5.134-9.441,5.547L105.622,200.82z"/>
	<path fill="#FFFFFF" d="M127.097,180.994c0-6.962,6.196-10.148,19.885-11.683c0.059-4.661-1.298-9.559-7.199-9.559
		c-4.13,0-7.671,2.006-9.795,3.48l-1.417-2.242c2.242-1.651,6.55-3.953,11.565-3.953c7.375,0,9.913,5.252,9.913,11.979v19.708
		h-2.597l-0.354-4.013h-0.118c-3.127,2.597-6.904,4.779-10.857,4.779C131.168,189.491,127.097,186.777,127.097,180.994z
		 M146.982,181.998V171.73c-12.509,1.416-16.64,4.249-16.64,9.087c0,4.308,2.891,5.9,6.373,5.9
		C140.137,186.717,143.265,185.125,146.982,181.998z"/>
	<path fill="#FFFFFF" d="M171.491,142.463h3.186v13.395l-0.059,6.727c3.127-3.128,6.314-5.547,10.562-5.547
		c6.432,0,9.441,3.895,9.441,11.86v19.826h-3.186v-19.413c0-6.432-2.006-9.441-6.904-9.441c-3.599,0-6.196,1.829-9.854,5.665v23.189
		h-3.186V142.463z"/>
	<path fill="#FFFFFF" d="M204.529,147.714c0-1.593,1.063-2.596,2.538-2.596s2.596,1.003,2.596,2.596
		c0,1.652-1.121,2.715-2.596,2.715S204.529,149.367,204.529,147.714z M205.592,157.805h3.186v30.919h-3.186V157.805z"/>
	<path fill="#FFFFFF" d="M220.46,157.805h2.655l0.295,3.835h0.177c3.009-2.36,6.668-4.603,10.385-4.603
		c8.32,0,12.391,6.195,12.391,15.755c0,10.503-6.313,16.698-13.63,16.698c-2.891,0-6.019-1.357-9.146-3.776l0.059,5.665v11.211
		h-3.186V157.805z M243.118,172.851c0-7.553-2.714-13.099-9.677-13.099c-3.009,0-6.195,1.77-9.795,5.074v18.056
		c3.363,2.832,6.55,3.835,8.851,3.835C238.692,186.717,243.118,181.112,243.118,172.851z"/>
	<path fill="#FFFFFF" d="M254.443,147.714c0-1.593,1.063-2.596,2.538-2.596s2.596,1.003,2.596,2.596
		c0,1.652-1.121,2.715-2.596,2.715S254.443,149.367,254.443,147.714z M255.506,157.805h3.186v30.919h-3.186V157.805z"/>
	<path fill="#FFFFFF" d="M262.408,202.472l0.649-2.419c0.826,0.235,2.124,0.648,3.186,0.648c3.481,0,4.131-2.773,4.131-6.727v-36.17
		h3.186v36.406c0,6.077-2.183,9.205-7.14,9.205C265.063,203.417,263.352,203.003,262.408,202.472z M269.371,147.714
		c0-1.593,1.062-2.596,2.537-2.596c1.476,0,2.597,1.003,2.597,2.596c0,1.652-1.121,2.715-2.597,2.715
		C270.433,150.429,269.371,149.367,269.371,147.714z"/>
	<path fill="#FFFFFF" d="M284.18,147.714c0-1.593,1.063-2.596,2.538-2.596s2.596,1.003,2.596,2.596c0,1.652-1.121,2.715-2.596,2.715
		S284.18,149.367,284.18,147.714z M285.242,157.805h3.186v30.919h-3.186V157.805z"/>
	<path fill="#FFFFFF" d="M310.639,157.805h2.655l0.295,4.72h0.177c2.773-3.068,6.255-5.487,9.736-5.487
		c4.957,0,7.435,2.479,8.556,6.195c3.481-3.776,6.904-6.195,10.503-6.195c6.137,0,9.264,3.895,9.264,11.86v19.826h-3.186v-19.413
		c0-6.432-2.124-9.441-6.786-9.441c-2.833,0-5.724,1.829-9.087,5.665v23.189h-3.127v-19.413c0-6.432-2.124-9.441-6.786-9.441
		c-2.773,0-5.724,1.829-9.028,5.665v23.189h-3.186V157.805z"/>
	<path fill="#FFFFFF" d="M360.434,173.264c0-10.09,6.609-16.227,13.571-16.227c7.376,0,11.86,5.252,11.86,14.339
		c0,0.826-0.059,1.593-0.177,2.419h-22.068c0.236,8.084,5.133,12.981,11.447,12.981c3.364,0,6.078-0.944,8.261-2.479l1.239,2.184
		c-2.419,1.593-5.311,3.009-9.736,3.009C366.866,189.491,360.434,183.472,360.434,173.264z M363.68,171.14h19.236
		c0-7.553-3.481-11.447-8.91-11.447C369.344,159.693,364.447,163.292,363.68,171.14z M365.922,147.301h15.99v2.538h-15.99V147.301z"
		/>
	<path fill="#FFFFFF" d="M394.005,200.053l1.357-2.36c3.068,2.242,6.314,3.127,9.5,3.127c6.255,0,9.441-3.776,9.559-9.972v-6.904
		c-2.537,2.538-6.019,4.78-10.031,4.78c-7.729,0-12.745-5.724-12.745-15.813c0-9.795,6.373-15.873,13.689-15.873
		c3.658,0,6.254,1.357,8.91,3.6h0.236l0.295-2.832h2.714v33.338c0,7.494-4.603,12.332-12.627,12.332
		C400.731,203.475,397.014,202.177,394.005,200.053z M414.421,180.935v-17.289c-3.246-2.832-5.959-3.894-8.91-3.894
		c-5.959,0-10.68,5.664-10.68,13.158c0,7.848,3.599,13.04,10.031,13.04C408.225,185.951,411.175,184.24,414.421,180.935z
		 M401.793,146.771c0-3.363,3.363-5.134,9.441-5.429l0.472,1.947c-5.546,0.413-7.199,1.534-7.199,3.304
		c0,1.947,1.77,2.715,4.897,2.951l-0.885,2.006C403.505,150.783,401.793,149.544,401.793,146.771z"/>
	<path fill="#FFFFFF" d="M428.106,147.714c0-1.593,1.063-2.596,2.538-2.596s2.596,1.003,2.596,2.596
		c0,1.652-1.121,2.715-2.596,2.715S428.106,149.367,428.106,147.714z M429.169,157.805h3.186v30.919h-3.186V157.805z"/>
	<path fill="#FFFFFF" d="M444.037,157.805h2.655l0.295,4.72h0.177c3.127-3.068,6.314-5.487,10.562-5.487
		c6.432,0,9.441,3.895,9.441,11.86v19.826h-3.186v-19.413c0-6.432-2.006-9.441-6.904-9.441c-3.599,0-6.196,1.829-9.854,5.665v23.189
		h-3.186V157.805z"/>
	<path fill="#FFFFFF" d="M476.133,180.994c0-6.962,6.196-10.148,19.885-11.683c0.059-4.661-1.298-9.559-7.199-9.559
		c-4.13,0-7.671,2.006-9.795,3.48l-1.417-2.242c2.242-1.651,6.55-3.953,11.565-3.953c7.375,0,9.913,5.252,9.913,11.979v19.708
		h-2.597l-0.354-4.013h-0.118c-3.127,2.597-6.904,4.779-10.857,4.779C480.205,189.491,476.133,186.777,476.133,180.994z
		 M496.018,181.998V171.73c-12.509,1.416-16.64,4.249-16.64,9.087c0,4.308,2.891,5.9,6.373,5.9
		C489.173,186.717,492.301,185.125,496.018,181.998z"/>
	<path fill="#FFFFFF" d="M523.653,185.596h-0.177l-0.354,3.128h-2.596v-46.261h3.186v13.395l-0.236,5.9
		c3.127-2.537,6.845-4.721,10.562-4.721c8.32,0,12.391,6.195,12.391,15.755c0,10.503-6.313,16.698-13.63,16.698
		C529.849,189.491,526.545,187.957,523.653,185.596z M543.185,172.851c0-7.553-2.715-13.099-9.677-13.099
		c-3.009,0-6.254,1.77-9.795,5.074v18.056c3.246,2.832,6.55,3.835,8.851,3.835C538.759,186.717,543.185,181.112,543.185,172.851z"/>
	<path fill="#FFFFFF" d="M555.513,157.805h2.655l0.295,5.782h0.177c2.065-3.895,5.134-6.55,8.792-6.55
		c1.121,0,2.124,0.118,3.068,0.649l-0.826,2.655c-0.767-0.236-1.476-0.354-2.655-0.354c-2.773,0-6.019,2.065-8.32,7.848v20.889
		h-3.186V157.805z"/>
	<path fill="#FFFFFF" d="M569.671,147.301h15.932v2.538h-15.932V147.301z M576.162,157.805h3.187v30.919h-3.187V157.805z"/>
	<path fill="#FFFFFF" d="M585.956,157.805h3.363l6.785,19.177c1.063,2.95,2.124,6.077,3.127,8.909h0.236
		c1.004-2.832,2.125-5.959,3.127-8.909l6.846-19.177h3.127l-11.389,30.919h-3.658L585.956,157.805z"/>
	<path fill="#FFFFFF" d="M618.11,147.714c0-1.593,1.063-2.596,2.537-2.596c1.476,0,2.597,1.003,2.597,2.596
		c0,1.652-1.121,2.715-2.597,2.715C619.173,150.429,618.11,149.367,618.11,147.714z M619.173,157.805h3.186v30.919h-3.186V157.805z"
		/>
	<path fill="#FFFFFF" d="M644.569,157.805h2.654l0.295,4.72h0.178c3.127-3.068,6.313-5.487,10.562-5.487
		c6.432,0,9.44,3.895,9.44,11.86v19.826h-3.186v-19.413c0-6.432-2.006-9.441-6.904-9.441c-3.599,0-6.195,1.829-9.854,5.665v23.189
		h-3.186V157.805z"/>
	<path fill="#FFFFFF" d="M676.311,173.264c0-10.267,6.491-16.227,13.925-16.227c7.494,0,13.984,5.96,13.984,16.227
		c0,10.268-6.49,16.227-13.984,16.227C682.802,189.491,676.311,183.532,676.311,173.264z M700.916,173.264
		c0-7.966-4.544-13.512-10.681-13.512c-6.195,0-10.68,5.546-10.68,13.512c0,8.084,4.484,13.453,10.68,13.453
		C696.372,186.717,700.916,181.348,700.916,173.264z"/>
	<path fill="#FFFFFF" d="M713.187,200.053l1.356-2.36c3.068,2.242,6.313,3.127,9.5,3.127c6.255,0,9.44-3.776,9.56-9.972v-6.904
		c-2.538,2.538-6.02,4.78-10.031,4.78c-7.73,0-12.746-5.724-12.746-15.813c0-9.795,6.373-15.873,13.689-15.873
		c3.658,0,6.255,1.357,8.91,3.6h0.236l0.295-2.832h2.715v33.338c0,7.494-4.604,12.332-12.628,12.332
		C719.913,203.475,716.195,202.177,713.187,200.053z M733.603,180.935v-17.289c-3.246-2.832-5.96-3.894-8.91-3.894
		c-5.96,0-10.68,5.664-10.68,13.158c0,7.848,3.599,13.04,10.03,13.04C727.406,185.951,730.356,184.24,733.603,180.935z"/>
	<path fill="#FFFFFF" d="M746.165,180.994c0-6.962,6.196-10.148,19.886-11.683c0.059-4.661-1.298-9.559-7.198-9.559
		c-4.131,0-7.672,2.006-9.795,3.48l-1.417-2.242c2.242-1.651,6.55-3.953,11.565-3.953c7.375,0,9.913,5.252,9.913,11.979v19.708
		h-2.597l-0.354-4.013h-0.118c-3.128,2.597-6.903,4.779-10.857,4.779C750.237,189.491,746.165,186.777,746.165,180.994z
		 M766.051,181.998V171.73c-12.509,1.416-16.64,4.249-16.64,9.087c0,4.308,2.891,5.9,6.373,5.9
		C759.206,186.717,762.333,185.125,766.051,181.998z"/>
	<path fill="#FFFFFF" d="M780.032,157.805h2.654l0.295,5.782h0.178c2.064-3.895,5.133-6.55,8.791-6.55
		c1.121,0,2.125,0.118,3.068,0.649l-0.826,2.655c-0.767-0.236-1.475-0.354-2.654-0.354c-2.773,0-6.02,2.065-8.32,7.848v20.889
		h-3.186V157.805z"/>
	<path fill="#FFFFFF" d="M796.905,185.183l1.592-1.947c2.656,2.184,5.37,3.6,9.914,3.6c4.779,0,7.198-2.714,7.198-5.9
		c0-3.776-3.835-5.487-7.435-6.727c-4.721-1.711-9.618-3.658-9.618-8.91c0-4.484,3.6-8.261,10.031-8.261
		c3.599,0,6.727,1.357,8.969,3.187l-1.593,2.006c-2.065-1.534-4.367-2.596-7.376-2.596c-4.721,0-6.845,2.714-6.845,5.487
		c0,3.481,3.186,4.779,6.963,6.195c4.896,1.771,10.031,3.423,10.031,9.441c0,4.661-3.718,8.732-10.445,8.732
		C803.454,189.491,799.56,187.838,796.905,185.183z M799.028,142.7l1.535-1.417l7.316,7.966h0.295l7.316-7.966l1.534,1.417
		l-7.435,9.146h-3.127L799.028,142.7z"/>
	<path fill="#FFFFFF" d="M824.339,173.264c0-10.267,6.49-16.227,13.926-16.227c7.494,0,13.984,5.96,13.984,16.227
		c0,10.268-6.49,16.227-13.984,16.227C830.829,189.491,824.339,183.532,824.339,173.264z M848.944,173.264
		c0-7.966-4.543-13.512-10.68-13.512c-6.195,0-10.68,5.546-10.68,13.512c0,8.084,4.484,13.453,10.68,13.453
		C844.401,186.717,848.944,181.348,848.944,173.264z"/>
	<path fill="#FFFFFF" d="M861.273,180.05v-19.59h-4.779v-2.42l4.839-0.235l0.412-10.268h2.656v10.268h8.91v2.655h-8.91v19.767
		c0,3.953,1.003,6.55,5.191,6.55c1.181,0,2.361-0.236,3.836-0.944l0.944,2.242c-1.712,0.885-3.6,1.416-5.311,1.416
		C863.103,189.491,861.273,185.714,861.273,180.05z"/>
	<path fill="#FFFFFF" d="M888.733,173.264c0-10.267,6.668-16.227,14.162-16.227c4.189,0,6.963,1.711,9.087,3.776l-1.652,2.006
		c-1.888-1.829-4.249-3.067-7.258-3.067c-6.255,0-11.093,5.546-11.093,13.512c0,8.084,4.366,13.453,11.033,13.453
		c3.246,0,6.078-1.475,8.144-3.304l1.534,2.006c-2.655,2.537-5.959,4.071-9.913,4.071
		C894.753,189.491,888.733,183.532,888.733,173.264z"/>
	<path fill="#FFFFFF" d="M916.465,173.264c0-10.09,6.608-16.227,13.571-16.227c7.375,0,11.859,5.252,11.859,14.339
		c0,0.826-0.059,1.593-0.177,2.419H919.65c0.236,8.084,5.134,12.981,11.447,12.981c3.363,0,6.078-0.944,8.261-2.479l1.239,2.184
		c-2.419,1.593-5.311,3.009-9.735,3.009C922.896,189.491,916.465,183.472,916.465,173.264z M919.71,171.14h19.235
		c0-7.553-3.481-11.447-8.909-11.447C925.374,159.693,920.477,163.292,919.71,171.14z"/>
	<path fill="#FFFFFF" d="M950.154,184.357v-41.894h3.187v42.248c0,1.475,0.53,2.006,1.475,2.006c0.236,0,0.472,0,1.003-0.118
		l0.531,2.42c-0.649,0.295-1.298,0.472-2.184,0.472C951.511,189.491,950.154,187.838,950.154,184.357z"/>
	<path fill="#FFFFFF" d="M963.016,173.264c0-10.267,6.49-16.227,13.925-16.227c7.494,0,13.984,5.96,13.984,16.227
		c0,10.268-6.49,16.227-13.984,16.227C969.506,189.491,963.016,183.532,963.016,173.264z M987.621,173.264
		c0-7.966-4.544-13.512-10.681-13.512c-6.195,0-10.68,5.546-10.68,13.512c0,8.084,4.484,13.453,10.68,13.453
		C983.077,186.717,987.621,181.348,987.621,173.264z"/>
	<path fill="#FFFFFF" d="M1000.48,160.46h-4.248v-2.42l4.248-0.235v-6.668c0-6.137,2.773-9.441,7.848-9.441
		c1.476,0,3.245,0.473,4.544,1.121l-0.826,2.36c-1.298-0.53-2.479-0.767-3.6-0.767c-3.305,0-4.838,2.479-4.838,6.963v6.432h7.08
		v2.655h-7.08v28.264h-3.128V160.46z"/>
	<path fill="#FFFFFF" d="M1013.638,180.994c0-6.962,6.195-10.148,19.885-11.683c0.06-4.661-1.298-9.559-7.198-9.559
		c-4.131,0-7.671,2.006-9.795,3.48l-1.416-2.242c2.242-1.651,6.55-3.953,11.564-3.953c7.376,0,9.913,5.252,9.913,11.979v19.708
		h-2.596l-0.354-4.013h-0.118c-3.127,2.597-6.903,4.779-10.856,4.779C1017.709,189.491,1013.638,186.777,1013.638,180.994z
		 M1033.522,181.998V171.73c-12.509,1.416-16.64,4.249-16.64,9.087c0,4.308,2.892,5.9,6.373,5.9
		C1026.678,186.717,1029.806,185.125,1033.522,181.998z M1018.948,147.301h15.932v2.538h-15.932V147.301z"/>
	<path fill="#FFFFFF" d="M1044.317,171.317h14.103v2.655h-14.103V171.317z"/>
	<path fill="#FFFFFF" d="M4.792,236.805h2.655l0.295,4.721h0.177c3.127-3.068,6.314-5.488,10.562-5.488
		c6.432,0,9.441,3.895,9.441,11.861v19.826h-3.186v-19.414c0-6.432-2.006-9.441-6.904-9.441c-3.599,0-6.196,1.83-9.854,5.666v23.189
		H4.792V236.805z"/>
	<path fill="#FFFFFF" d="M36.887,259.994c0-6.963,6.196-10.148,19.885-11.684c0.059-4.66-1.298-9.559-7.199-9.559
		c-4.13,0-7.671,2.006-9.795,3.48l-1.417-2.242c2.242-1.65,6.55-3.953,11.565-3.953c7.375,0,9.913,5.252,9.913,11.979v19.709h-2.597
		l-0.354-4.014h-0.118c-3.127,2.598-6.904,4.779-10.857,4.779C40.959,268.49,36.887,265.777,36.887,259.994z M56.772,260.998V250.73
		c-12.509,1.416-16.64,4.248-16.64,9.086c0,4.309,2.891,5.9,6.373,5.9C49.928,265.717,53.055,264.125,56.772,260.998z"/>
	<path fill="#FFFFFF" d="M100.278,266.072l17.997-26.611h-16.049v-2.656h20.062v1.652l-17.997,26.553h18.646v2.715h-22.658V266.072z
		 M103.877,221.7l1.534-1.417l7.316,7.965h0.236l7.375-7.965l1.534,1.417l-7.494,9.146h-3.068L103.877,221.7z"/>
	<path fill="#FFFFFF" d="M130.427,236.805h2.655l0.295,4.721h0.177c3.127-3.068,6.314-5.488,10.562-5.488
		c6.432,0,9.441,3.895,9.441,11.861v19.826h-3.186v-19.414c0-6.432-2.006-9.441-6.904-9.441c-3.599,0-6.196,1.83-9.854,5.666v23.189
		h-3.186V236.805z M136.682,279.82c5.546-0.354,7.199-1.416,7.199-3.305s-1.829-2.654-4.897-2.951l0.826-2.006
		c5.015,0.768,6.786,2.006,6.786,4.779c0,3.424-3.363,5.135-9.441,5.547L136.682,279.82z"/>
	<path fill="#FFFFFF" d="M162.522,259.994c0-6.963,6.196-10.148,19.885-11.684c0.059-4.66-1.298-9.559-7.199-9.559
		c-4.13,0-7.671,2.006-9.795,3.48l-1.417-2.242c2.242-1.65,6.55-3.953,11.565-3.953c7.375,0,9.913,5.252,9.913,11.979v19.709h-2.597
		l-0.354-4.014h-0.118c-3.127,2.598-6.904,4.779-10.857,4.779C166.594,268.49,162.522,265.777,162.522,259.994z M182.408,260.998
		V250.73c-12.509,1.416-16.64,4.248-16.64,9.086c0,4.309,2.891,5.9,6.373,5.9C175.563,265.717,178.69,264.125,182.408,260.998z"/>
	<path fill="#FFFFFF" d="M195.975,256.572v-19.768h3.068v19.412c0,6.432,2.065,9.441,6.963,9.441c3.6,0,6.137-1.828,9.677-6.195
		v-22.658h3.187v30.92h-2.655l-0.354-5.135h-0.118c-3.009,3.541-6.195,5.9-10.444,5.9
		C198.925,268.49,195.975,264.596,195.975,256.572z"/>
	<path fill="#FFFFFF" d="M228.07,252.264c0-9.971,6.313-16.227,13.63-16.227c3.717,0,6.196,1.416,9.264,3.777l-0.118-5.664v-12.687
		h3.068v46.261h-2.655l-0.295-4.014h-0.118c-2.537,2.598-5.959,4.779-10.031,4.779C233.086,268.49,228.07,262.709,228.07,252.264z
		 M250.847,260.762v-18.115c-3.246-2.832-5.959-3.895-8.91-3.895c-5.959,0-10.621,5.9-10.621,13.512
		c0,8.203,3.541,13.453,9.972,13.453C244.651,265.717,247.601,264.006,250.847,260.762z"/>
	<path fill="#FFFFFF" d="M261.582,266.072l17.997-26.611h-16.049v-2.656h20.062v1.652l-17.997,26.553h18.646v2.715h-22.658V266.072z
		"/>
	<path fill="#FFFFFF" d="M288.545,252.264c0-10.09,6.609-16.227,13.571-16.227c7.376,0,11.86,5.252,11.86,14.34
		c0,0.826-0.059,1.592-0.177,2.418h-22.068c0.236,8.084,5.133,12.982,11.447,12.982c3.363,0,6.077-0.945,8.261-2.479l1.239,2.184
		c-2.419,1.592-5.311,3.008-9.736,3.008C294.977,268.49,288.545,262.473,288.545,252.264z M291.791,250.141h19.236
		c0-7.553-3.481-11.447-8.91-11.447C297.455,238.693,292.558,242.293,291.791,250.141z M294.033,226.301h15.99v2.539h-15.99V226.301
		z"/>
	<path fill="#FFFFFF" d="M314.269,281.473l0.649-2.42c0.826,0.236,2.124,0.648,3.186,0.648c3.481,0,4.131-2.773,4.131-6.727v-36.17
		h3.186v36.406c0,6.078-2.183,9.205-7.14,9.205C316.924,282.416,315.213,282.004,314.269,281.473z M321.231,226.715
		c0-1.594,1.062-2.596,2.537-2.596c1.476,0,2.597,1.002,2.597,2.596c0,1.652-1.121,2.715-2.597,2.715
		C322.293,229.43,321.231,228.367,321.231,226.715z"/>
	<path fill="#FFFFFF" d="M334.565,252.264c0-10.266,6.668-16.227,14.162-16.227c4.189,0,6.962,1.711,9.087,3.777l-1.652,2.006
		c-1.888-1.83-4.249-3.068-7.258-3.068c-6.254,0-11.093,5.547-11.093,13.512c0,8.084,4.366,13.453,11.034,13.453
		c3.246,0,6.078-1.475,8.143-3.303l1.534,2.006c-2.655,2.537-5.959,4.07-9.913,4.07C340.584,268.49,334.565,262.531,334.565,252.264
		z M339.699,221.7l1.534-1.417l7.316,7.965h0.295l7.317-7.965l1.534,1.417l-7.435,9.146h-3.127L339.699,221.7z"/>
	<path fill="#FFFFFF" d="M365.541,256.572v-19.768h3.068v19.412c0,6.432,2.065,9.441,6.963,9.441c3.6,0,6.137-1.828,9.677-6.195
		v-22.658h3.187v30.92h-2.655l-0.354-5.135h-0.118c-3.009,3.541-6.195,5.9-10.444,5.9
		C368.491,268.49,365.541,264.596,365.541,256.572z M369.14,226.301h15.932v2.539H369.14V226.301z"/>
	<path fill="#FFFFFF" d="M396.338,264.184l1.593-1.947c2.655,2.184,5.37,3.6,9.913,3.6c4.779,0,7.199-2.715,7.199-5.9
		c0-3.777-3.835-5.488-7.435-6.727c-4.721-1.711-9.618-3.658-9.618-8.91c0-4.484,3.6-8.262,10.031-8.262
		c3.599,0,6.727,1.357,8.969,3.188l-1.593,2.006c-2.065-1.535-4.366-2.596-7.375-2.596c-4.721,0-6.845,2.713-6.845,5.486
		c0,3.482,3.186,4.779,6.962,6.195c4.897,1.771,10.031,3.424,10.031,9.441c0,4.662-3.717,8.732-10.444,8.732
		C402.888,268.49,398.993,266.838,396.338,264.184z"/>
	<path fill="#FFFFFF" d="M426.31,221.463h3.127v33.81h0.177l14.987-18.469h3.6l-10.09,12.273l11.683,18.646h-3.481l-10.09-16.346
		l-6.786,7.906v8.439h-3.127V221.463z"/>
	<path fill="#FFFFFF" d="M455.219,256.572v-19.768h3.068v19.412c0,6.432,2.065,9.441,6.963,9.441c3.6,0,6.137-1.828,9.677-6.195
		v-22.658h3.187v30.92h-2.655l-0.354-5.135h-0.118c-3.009,3.541-6.195,5.9-10.444,5.9
		C458.169,268.49,455.219,264.596,455.219,256.572z"/>
	<path fill="#FFFFFF" d="M488.259,265.482c0-1.947,1.357-3.068,2.832-3.068c1.534,0,2.891,1.121,2.891,3.068
		c0,1.828-1.357,3.008-2.891,3.008C489.616,268.49,488.259,267.311,488.259,265.482z"/>
	<path fill="#FFFFFF" d="M535.307,246.422c0-13.453,7.317-21.832,17.524-21.832c10.268,0,17.525,8.379,17.525,21.832
		c0,13.395-7.258,22.068-17.525,22.068C542.624,268.49,535.307,259.816,535.307,246.422z M566.993,246.422
		c0-11.623-5.664-18.881-14.162-18.881c-8.438,0-14.102,7.258-14.102,18.881c0,11.566,5.664,19.119,14.102,19.119
		C561.329,265.541,566.993,257.988,566.993,246.422z M545.161,243.826h15.4v2.891h-15.4V243.826z"/>
	<path fill="#FFFFFF" d="M577.256,252.264c0-9.971,6.313-16.227,13.689-16.227c3.658,0,6.255,1.416,9.087,3.777h0.177l0.177-3.01
		h2.715v26.906c0,1.357,0.59,2.006,1.357,2.006c0.235,0,0.472,0,1.062-0.117l0.531,2.596c-0.591,0.119-1.181,0.295-2.065,0.295
		c-2.242,0-3.6-1.061-3.776-4.779h-0.118c-2.537,2.537-5.959,4.779-10.09,4.779C582.271,268.49,577.256,262.709,577.256,252.264z
		 M600.032,260.762v-18.115c-3.246-2.832-5.959-3.895-8.91-3.895c-5.959,0-10.621,5.9-10.621,13.512
		c0,8.203,3.541,13.453,9.973,13.453C593.837,265.717,596.786,264.006,600.032,260.762z"/>
	<path fill="#FFFFFF" d="M663.069,278.168c2.479-3.068,3.245-4.012,3.245-5.842c0-1.947-1.534-2.951-7.729-4.072
		c-6.609-1.297-12.273-4.189-12.273-12.508c0-6.49,4.603-11.447,10.031-12.863v-0.236c-3.836-1.652-6.904-4.898-6.904-9.736
		c0-4.248,2.125-7.258,5.547-8.91c-3.953,0.059-5.724,0.059-9.795,0.178v-2.714h23.307v2.714h-6.902
		c-4.485,0-8.852,3.244-8.852,8.791c0,5.43,5.252,8.91,9.264,8.91c1.594,0,2.242,0,3.777-0.354v3.186
		c-1.477-0.295-2.538-0.354-4.072-0.354c-5.842,0-12.155,4.012-12.155,11.211c0,7.021,5.252,9.088,10.976,10.09
		c5.842,1.063,8.674,2.242,8.674,6.195c0,1.711-1.063,4.367-3.541,7.613L663.069,278.168z"/>
	<path fill="#FFFFFF" d="M672.685,259.404c0-4.604,3.246-7.08,6.668-7.967v-0.234c-3.305-1.299-5.016-4.014-5.016-7.141
		c0-5.369,5.016-8.025,10.975-8.025c3.777,0,6.904,1.357,9.678,3.541l-1.416,2.184c-2.597-2.006-5.134-3.068-8.262-3.068
		c-4.307,0-7.789,1.828-7.789,5.664c0,3.305,2.479,5.783,8.498,5.783c1.18,0,2.006,0,3.599-0.119v2.951
		c-1.711-0.178-3.009-0.178-4.425-0.178c-6.078,0-9.323,2.361-9.323,6.373c0,4.072,3.599,6.609,9.44,6.609
		c3.6,0,6.137-0.945,9.323-3.541l1.593,2.242c-3.717,2.951-6.667,4.012-11.211,4.012
		C677.522,268.49,672.685,264.832,672.685,259.404z"/>
	<path fill="#FFFFFF" d="M717.173,267.725c-8.438-0.295-16.404-6.137-16.404-16.463c0-10.268,7.966-16.051,16.404-16.287v-8.438
		h3.304v8.438c8.733,0.178,16.403,5.961,16.403,16.287c0,10.385-7.965,16.168-16.403,16.463v11.092h-3.304V267.725z
		 M717.173,264.951v-27.203c-6.904,0.178-12.805,5.311-12.805,13.514C704.368,259.521,710.269,264.715,717.173,264.951z
		 M720.477,237.748v27.203c6.903-0.236,12.863-5.371,12.863-13.689C733.34,243,727.853,237.926,720.477,237.748z"/>
	<path fill="#FFFFFF" d="M744.782,256.748c0-4.012,0.295-8.023,0.295-11.977c0-2.539,0-4.84-0.472-7.967h3.128
		c0.354,2.184,0.354,4.367,0.354,7.021c0,3.953-0.354,9.322-0.354,13.041c0,6.668,3.895,8.85,8.201,8.85
		c5.074,0,9.146-4.129,9.146-13.039c0-5.074-0.59-10.09-2.832-15.756l3.067-0.885c2.124,5.547,3.009,10.977,3.009,16.641
		c0,10.502-5.546,15.813-12.508,15.813C749.444,268.49,744.782,265.068,744.782,256.748z M753.811,231.258l3.009-12.332l3.541,0.708
		l-4.248,12.155L753.811,231.258z"/>
	<path fill="#FFFFFF" d="M780.36,276.104c0-2.773,1.533-6.137,3.895-10.799l-11.271-28.5h3.363l6.786,18.291
		c1.062,3.068,2.123,5.371,3.127,8.203h0.236c1.003-2.832,2.124-5.135,3.127-8.203l6.845-18.291h3.127l-11.093,28.5
		c2.419,4.662,3.895,8.025,3.895,10.799c0,3.775-2.006,6.432-6.019,6.432S780.36,279.879,780.36,276.104z M789.446,276.279
		c0-2.596-1.062-5.664-2.949-8.969h-0.236c-1.829,3.305-2.892,6.373-2.892,8.969c0,2.125,0.886,3.777,3.01,3.777
		C788.562,280.057,789.446,278.404,789.446,276.279z"/>
	<path fill="#FFFFFF" d="M804.019,253.916c0-6.313,2.537-12.922,6.018-17.879l2.656,1.535c-3.718,5.016-5.665,10.621-5.665,16.639
		c0,7.258,2.833,11.506,6.728,11.506c3.127,0,6.785-2.713,6.785-11.742c0-2.064-0.059-4.424-0.295-7.258h3.658
		c-0.236,2.834-0.354,5.193-0.354,7.258c0,9.146,3.775,11.742,6.902,11.742c4.072,0,6.551-4.012,6.551-12.037
		c0-5.842-1.535-10.916-5.252-16.285l2.773-1.357c3.6,5.193,5.723,11.094,5.723,17.643c0,9.736-3.599,14.811-9.381,14.811
		c-3.953,0-7.671-2.773-8.615-8.613h-0.295c-1.004,5.84-4.543,8.613-8.615,8.613C808.09,268.49,804.019,263.357,804.019,253.916z"/>
	<path fill="#FFFFFF" d="M883.339,235.625h3.423v19.707c0,5.961,1.947,9.441,6.668,9.441c3.187,0,6.195-0.885,9.735-7.021v-22.127
		h3.423c-0.06,9.027-0.236,18.174-0.236,26.848c0,1.652,0.886,2.418,2.065,2.418c0.59,0,1.063-0.117,1.889-0.412l0.531,2.715
		c-0.768,0.354-1.712,0.648-3.01,0.648c-3.187,0-4.367-1.947-4.484-6.49h-0.118c-2.597,4.426-5.96,6.432-9.677,6.432
		c-3.068,0-5.429-0.65-7.141-3.719c0.06,6.904,0.06,9.561,0.414,14.752h-3.482V235.625z"/>
	<path fill="#FFFFFF" d="M916.497,259.404c0-4.604,3.245-7.08,6.667-7.967v-0.234c-3.304-1.299-5.016-4.014-5.016-7.141
		c0-5.369,5.016-8.025,10.976-8.025c3.776,0,6.903,1.357,9.677,3.541l-1.416,2.184c-2.597-2.006-5.134-3.068-8.261-3.068
		c-4.308,0-7.789,1.828-7.789,5.664c0,3.305,2.479,5.783,8.497,5.783c1.18,0,2.006,0,3.6-0.119v2.951
		c-1.712-0.178-3.01-0.178-4.426-0.178c-6.077,0-9.323,2.361-9.323,6.373c0,4.072,3.6,6.609,9.441,6.609
		c3.6,0,6.137-0.945,9.323-3.541l1.593,2.242c-3.718,2.951-6.668,4.012-11.211,4.012
		C921.335,268.49,916.497,264.832,916.497,259.404z"/>
	<path fill="#FFFFFF" d="M980.655,235.271c0-8.793,4.248-14.576,11.919-14.576c5.664,0,10.857,3.66,10.857,10.857
		c0,5.016-2.833,9.324-7.14,11.152v0.236c5.192,0.768,10.798,4.131,10.798,12.568c0,7.848-5.311,12.98-11.979,12.98
		c-4.071,0-8.319-1.416-11.506-4.896l0.236,6.785v11.211h-3.187V235.271z M1003.903,255.451c0-6.963-4.839-10.916-12.863-10.916
		h-1.239v-2.715h0.295c6.845,0,10.149-4.307,10.149-10.031c0-5.547-3.423-8.378-7.553-8.378c-5.429,0-8.851,4.189-8.851,12.746
		v24.311c3.245,4.189,7.257,5.25,10.856,5.25C999.832,265.717,1003.903,261.705,1003.903,255.451z"/>
	<path fill="#FFFFFF" d="M1015.76,262.943v-26.139h3.187c-0.06,8.969-0.236,17.938-0.236,26.553c0,1.652,0.767,2.359,1.947,2.359
		c0.59,0,1.121-0.117,1.829-0.354l0.472,2.537c-0.708,0.295-1.593,0.59-2.832,0.59C1017.176,268.49,1015.76,266.779,1015.76,262.943
		z M1015.818,231.258l3.068-12.332l3.481,0.708l-4.189,12.155L1015.818,231.258z"/>
	<path fill="#FFFFFF" d="M1028.798,252.264c0-9.971,6.313-16.227,13.689-16.227c3.658,0,6.255,1.416,9.087,3.777h0.177l0.177-3.01
		h2.715v26.906c0,1.357,0.59,2.006,1.357,2.006c0.235,0,0.472,0,1.062-0.117l0.531,2.596c-0.59,0.119-1.181,0.295-2.065,0.295
		c-2.242,0-3.6-1.061-3.776-4.779h-0.118c-2.537,2.537-5.959,4.779-10.09,4.779C1033.813,268.49,1028.798,262.709,1028.798,252.264z
		 M1051.574,260.762v-18.115c-3.245-2.832-5.96-3.895-8.91-3.895c-5.959,0-10.621,5.9-10.621,13.512
		c0,8.203,3.541,13.453,9.973,13.453C1045.379,265.717,1048.329,264.006,1051.574,260.762z"/>
	<path fill="#FFFFFF" d="M2.608,338.994c0-6.963,6.196-10.148,19.885-11.684c0.059-4.66-1.298-9.559-7.199-9.559
		c-4.13,0-7.671,2.006-9.795,3.48l-1.417-2.242c2.242-1.65,6.55-3.953,11.565-3.953c7.375,0,9.913,5.252,9.913,11.979v19.709h-2.597
		l-0.354-4.014h-0.118c-3.127,2.598-6.904,4.779-10.857,4.779C6.68,347.49,2.608,344.777,2.608,338.994z M22.494,339.998V329.73
		c-12.509,1.416-16.64,4.248-16.64,9.086c0,4.309,2.891,5.9,6.373,5.9C15.649,344.717,18.776,343.125,22.494,339.998z"/>
	<path fill="#FFFFFF" d="M34.409,328.314c0-22.246,7.375-24.959,19.295-26.789c3.363-0.531,4.071-0.826,5.9-1.77l0.767,3.068
		c-1.711,0.943-3.481,1.416-6.019,1.77c-10.385,1.652-15.695,2.832-16.64,18.057c3.068-3.895,7.199-5.961,11.329-5.961
		c7.789,0,12.627,5.783,12.627,14.574c0,9.973-6.019,16.227-13.041,16.227C39.66,347.49,34.409,340.705,34.409,328.314z
		 M48.57,344.717c5.546,0,9.854-5.428,9.854-13.453c0-6.844-3.481-11.918-9.972-11.918c-3.481,0-7.199,1.533-10.857,6.49
		c-0.059,0.885-0.059,1.77-0.059,2.832C37.536,338.58,41.135,344.717,48.57,344.717z"/>
	<path fill="#FFFFFF" d="M70.871,315.805h11.27c6.608,0,10.798,2.301,10.798,7.611c0,3.895-2.183,5.9-5.133,6.787v0.176
		c3.245,0.768,6.491,2.951,6.491,7.553c0,5.959-4.662,8.793-11.86,8.793H70.871V315.805z M81.02,329.141
		c6.313,0,8.733-2.125,8.733-5.369c0-3.482-2.479-5.488-8.202-5.488h-7.553v10.857H81.02z M81.904,344.186
		c6.078,0,9.146-2.242,9.146-6.43c0-3.777-3.363-5.961-9.677-5.961h-7.376v12.391H81.904z"/>
	<path fill="#FFFFFF" d="M102.908,315.805h18.232v2.656h-15.046v28.264h-3.186V315.805z"/>
	<path fill="#FFFFFF" d="M128.631,315.805h15.813l0.885-11.094h2.479l-0.531,13.75h-15.459v28.264h-3.186V315.805z"/>
	<path fill="#FFFFFF" d="M149.93,357.758h-2.655l-0.354-11.859v-1.889h1.298c1.888-0.945,3.363-3.127,4.72-13.748l1.711-14.457
		h17.23v28.205h4.249v1.889l-0.413,11.859h-2.655v-11.033h-23.13V357.758z M151.995,344.01h16.757v-25.549h-11.624l-1.416,12.271
		C154.827,338.404,153.411,342.121,151.995,344.01z"/>
	<path fill="#FFFFFF" d="M193.472,360.59l0.708-2.479c0.59,0.236,1.652,0.59,2.596,0.59c5.075,0,8.851-5.84,8.851-22.422
		c0-11.859-2.891-16.227-8.851-16.227c-3.363,0-6.136,1.652-9.736,5.43v21.242h-3.186v-36.938h-4.957v-2.361l4.957-0.295v-6.609
		h3.186v6.609h12.155l-0.059,2.656h-12.096v6.254l-0.236,6.49c3.186-3.068,6.432-5.252,10.68-5.252
		c7.376,0,11.447,5.371,11.447,18.705c0,18.705-4.543,25.432-12.096,25.432C195.655,361.416,194.239,361.004,193.472,360.59z"/>
	<path fill="#FFFFFF" d="M218.251,315.805h18.232v2.656h-15.046v28.264h-3.186V315.805z M223.916,308.074l9.795-10.148l2.124,2.066
		l-10.149,9.676L223.916,308.074z"/>
	<path fill="#FFFFFF" d="M238.428,331.264c0-10.09,6.609-16.227,13.571-16.227c7.376,0,11.86,5.252,11.86,14.34
		c0,0.826-0.059,1.592-0.177,2.418h-22.068c0.236,8.084,5.133,12.982,11.447,12.982c3.363,0,6.077-0.945,8.261-2.479l1.239,2.184
		c-2.419,1.592-5.311,3.008-9.736,3.008C244.859,347.49,238.428,341.473,238.428,331.264z M241.673,329.141h19.236
		c0-7.553-3.481-11.447-8.91-11.447C247.338,317.693,242.44,321.293,241.673,329.141z"/>
	<path fill="#FFFFFF" d="M269.58,331.264c0-10.09,6.609-16.227,13.571-16.227c7.376,0,11.86,5.252,11.86,14.34
		c0,0.826-0.059,1.592-0.177,2.418h-22.068c0.236,8.084,5.133,12.982,11.447,12.982c3.364,0,6.078-0.945,8.261-2.479l1.239,2.184
		c-2.419,1.592-5.311,3.008-9.736,3.008C276.011,347.49,269.58,341.473,269.58,331.264z M272.825,329.141h19.236
		c0-7.553-3.481-11.447-8.91-11.447C278.49,317.693,273.592,321.293,272.825,329.141z M274.831,305.893
		c0-1.416,1.003-2.479,2.419-2.479s2.537,1.063,2.537,2.479s-1.121,2.418-2.537,2.418S274.831,307.309,274.831,305.893z
		 M286.337,305.893c0-1.416,1.121-2.479,2.537-2.479s2.419,1.063,2.419,2.479s-1.003,2.418-2.419,2.418
		S286.337,307.309,286.337,305.893z"/>
	<path fill="#FFFFFF" d="M300.731,331.264c0-10.916,6.55-16.227,14.162-16.227c4.249,0,6.962,1.83,9.087,3.777l-1.711,2.123
		c-2.006-1.887-4.249-3.244-7.258-3.244c-5.9,0-10.267,4.131-10.975,11.447h16.227v2.654h-16.345
		c0.177,8.379,4.366,12.982,10.975,12.982c3.422,0,6.195-1.535,8.261-3.482l1.534,2.125c-2.655,2.418-5.959,4.07-9.913,4.07
		C306.691,347.49,300.731,342.18,300.731,331.264z"/>
	<path fill="#FFFFFF" d="M337.017,330.379l-2.833-7.316c-1.534-3.953-3.068-4.662-4.72-4.662c-0.413,0-0.531,0-0.944,0.178
		l-0.649-3.068c0.354-0.117,0.944-0.236,1.475-0.236c2.773,0,5.075,1.299,7.14,6.432l2.95,7.553h6.432v-13.453h2.833v13.453h6.432
		l2.891-7.553c2.065-5.133,4.426-6.432,7.14-6.432c0.59,0,1.18,0.119,1.534,0.236l-0.708,3.068
		c-0.354-0.178-0.472-0.178-0.944-0.178c-1.593,0-3.068,0.709-4.603,4.662l-2.892,7.316l9.559,16.346h-3.422l-8.261-14.811H348.7
		v14.811h-2.833v-14.811H339.2l-8.32,14.811h-3.481L337.017,330.379z"/>
	<path fill="#FFFFFF" d="M374.069,315.805h3.186v13.275h17.466v-13.275h3.127v30.92h-3.127v-14.811h-17.466v14.811h-3.186V315.805z"
		/>
	<path fill="#FFFFFF" d="M409.586,315.805h3.186v13.275h15.991v-13.275h3.127v12.215h4.957c7.317,0,11.801,3.008,11.801,9.264
		c0,6.313-4.484,9.441-11.801,9.441h-8.083v-14.811h-15.991v14.811h-3.186V315.805z M436.198,344.068
		c6.254,0,9.264-2.125,9.264-6.785c0-4.662-3.01-6.668-9.264-6.668h-4.308v13.453H436.198z"/>
	<path fill="#FFFFFF" d="M454.839,331.264c0-10.266,6.491-16.227,13.925-16.227c7.494,0,13.984,5.961,13.984,16.227
		c0,10.268-6.49,16.227-13.984,16.227C461.33,347.49,454.839,341.531,454.839,331.264z M479.444,331.264
		c0-7.965-4.543-13.512-10.68-13.512c-6.195,0-10.68,5.547-10.68,13.512c0,8.084,4.484,13.453,10.68,13.453
		C474.901,344.717,479.444,339.348,479.444,331.264z"/>
	<path fill="#FFFFFF" d="M491.833,315.805h23.189v30.92h-3.186v-28.264h-16.817v28.264h-3.186V315.805z"/>
	<path fill="#FFFFFF" d="M526.701,315.805h2.655l0.295,3.836h0.177c3.009-2.361,6.668-4.604,10.385-4.604
		c8.319,0,12.392,6.195,12.392,15.756c0,10.502-6.314,16.697-13.631,16.697c-2.891,0-6.019-1.357-9.146-3.775l0.059,5.664v11.211
		h-3.186V315.805z M549.358,330.852c0-7.553-2.714-13.1-9.677-13.1c-3.009,0-6.195,1.77-9.795,5.074v18.057
		c3.363,2.832,6.55,3.834,8.851,3.834C544.933,344.717,549.358,339.111,549.358,330.852z"/>
	<path fill="#FFFFFF" d="M559.209,331.264c0-10.266,6.668-16.227,14.161-16.227c4.189,0,6.963,1.711,9.088,3.777l-1.652,2.006
		c-1.889-1.83-4.249-3.068-7.258-3.068c-6.255,0-11.094,5.547-11.094,13.512c0,8.084,4.367,13.453,11.034,13.453
		c3.245,0,6.077-1.475,8.144-3.303l1.533,2.006c-2.654,2.537-5.959,4.07-9.912,4.07C565.228,347.49,559.209,341.531,559.209,331.264
		z"/>
	<path fill="#FFFFFF" d="M610.304,318.461H599.27v-2.656h25.195v2.656h-11.034v28.264h-3.127V318.461z"/>
	<path fill="#FFFFFF" d="M631.307,309.787h-4.956v-2.361l4.956-0.295v-6.609h3.187v6.609h12.096v2.656h-12.096v6.254l-0.06,6.785
		c3.187-3.186,6.313-5.547,10.562-5.547c6.432,0,9.441,3.836,9.441,11.801v17.645h-3.186v-17.172c0-6.432-2.007-9.5-6.904-9.5
		c-3.6,0-6.195,1.889-9.854,5.664v21.008h-3.187V309.787z"/>
	<path fill="#FFFFFF" d="M665.407,315.805h3.127v13.453h7.789l3.305-7.553c2.36-5.605,4.426-6.432,7.199-6.432
		c0.53,0,1.18,0.119,1.475,0.236l-0.648,3.068c-0.354-0.178-0.473-0.178-0.945-0.178c-1.593,0-2.949,0.531-4.779,4.662l-3.127,7.375
		l10.09,16.287h-3.48l-8.91-14.811h-7.967v14.811h-3.127V315.805z M671.603,308.074l9.795-10.148l2.066,2.066l-10.149,9.676
		L671.603,308.074z"/>
	<path fill="#FFFFFF" d="M690.481,360.059l0.768-2.654c0.708,0.236,1.711,0.531,2.479,0.531c3.717,0,6.195-3.424,7.789-8.084
		l0.825-2.598l-12.687-31.449h3.363l7.317,19.178c1.003,2.596,2.183,5.9,3.363,8.674h0.235c0.945-2.773,1.947-6.078,2.833-8.674
		l6.432-19.178h3.245l-12.155,34.637c-1.829,5.311-4.956,10.326-10.562,10.326C692.487,360.768,691.308,360.473,690.481,360.059z"/>
	<path fill="#FFFFFF" d="M718.802,360.059l0.768-2.654c0.707,0.236,1.711,0.531,2.478,0.531c3.718,0,6.196-3.424,7.789-8.084
		l0.825-2.598l-12.686-31.449h3.363l7.316,19.178c1.004,2.596,2.184,5.9,3.363,8.674h0.236c0.944-2.773,1.947-6.078,2.832-8.674
		l6.432-19.178h3.246l-12.156,34.637c-1.828,5.311-4.956,10.326-10.562,10.326C720.808,360.768,719.628,360.473,718.802,360.059z
		 M722.519,300.463h2.773c0.178,3.658,1.771,7.377,6.786,7.377c5.015,0,6.608-3.719,6.727-7.377h2.772
		c-0.235,4.248-2.359,9.5-9.499,9.5S722.813,304.711,722.519,300.463z"/>
	<path fill="#FFFFFF" d="M750.957,335.572v-19.768h3.068v19.412c0,6.432,2.065,9.441,6.962,9.441c3.6,0,6.137-1.828,9.678-6.195
		v-22.658h3.186v30.92h-2.654l-0.354-5.135h-0.118c-3.01,3.541-6.195,5.9-10.443,5.9
		C753.907,347.49,750.957,343.596,750.957,335.572z"/>
	<path fill="#FFFFFF" d="M800.99,349.557l0.059-4.662c-1.829,1.535-3.894,2.596-6.432,2.596c-7.081,0-11.565-5.781-11.565-16.227
		c0-9.971,5.134-16.227,11.565-16.227c2.36,0,4.366,1.063,6.432,2.479l-0.059-4.543v-12.51h3.127v12.51l-0.06,4.602
		c2.007-1.533,4.485-2.537,6.904-2.537c7.376,0,11.094,6.195,11.094,15.756c0,10.502-5.252,16.697-11.566,16.697
		c-2.006,0-4.307-0.943-6.432-2.596l0.06,4.662v11.033h-3.127V349.557z M801.049,342.004v-21.656
		c-2.065-1.947-4.13-2.596-6.195-2.596c-4.956,0-8.556,5.9-8.556,13.512c0,8.203,3.186,13.453,8.851,13.453
		C797.096,344.717,798.925,344.068,801.049,342.004z M818.81,330.852c0-7.553-2.359-13.1-8.438-13.1
		c-1.947,0-4.071,0.59-6.314,2.596v21.832c2.243,2.006,4.604,2.537,6.196,2.537C815.329,344.717,818.81,339.111,818.81,330.852z"/>
	<path fill="#FFFFFF" d="M835.917,330.557l-9.618-14.752h3.481l4.897,7.73c1.062,1.711,2.124,3.363,3.245,5.074h0.236
		c1.121-1.711,2.124-3.363,3.127-5.074l4.721-7.73h3.305l-9.618,15.047l10.503,15.873h-3.481l-5.429-8.32
		c-1.062-1.889-2.301-3.836-3.6-5.664h-0.235c-1.239,1.828-2.302,3.775-3.54,5.664l-5.134,8.32h-3.304L835.917,330.557z"/>
</g>
<g>
	<g>
		<path fill="#6FCACA" d="M32.9,2.975l-16.45,28.49L0,2.975H32.9z"/>
		<path fill="#6FCACA" d="M54.32,2.625v22.33h-8.05v2.73h-1.645V2.625H54.32z M52.745,4.2H46.27v8.61h6.475V4.2z M46.27,23.38h6.475
			v-9.03H46.27V23.38z M55.86,1.75h17.815c0,0.42-0.012,0.7-0.035,0.84c-0.14,2.59-0.292,4.672-0.455,6.248
			c-0.164,1.575-0.344,2.771-0.542,3.587c-0.198,0.817-0.449,1.389-0.752,1.715c-0.49,0.49-1.144,0.747-1.96,0.77
			c-0.374,0.023-0.91,0.03-1.61,0.018c-0.7-0.011-1.447-0.041-2.24-0.087c-0.023-0.256-0.07-0.525-0.14-0.805
			c-0.07-0.28-0.187-0.536-0.35-0.77c0.84,0.07,1.615,0.117,2.327,0.14c0.712,0.023,1.196,0.035,1.453,0.035
			c0.537,0,0.921-0.117,1.155-0.35c0.21-0.233,0.396-0.7,0.56-1.4c0.163-0.7,0.32-1.727,0.472-3.08
			c0.151-1.353,0.286-3.115,0.403-5.285h-7.805c-0.28,1.75-0.718,3.418-1.313,5.005c-0.595,1.587-1.441,3.022-2.538,4.305
			c-1.097,1.284-2.555,2.345-4.375,3.185c-0.117-0.187-0.28-0.402-0.49-0.647c-0.21-0.245-0.409-0.438-0.595-0.578
			c1.727-0.747,3.103-1.703,4.13-2.87c1.026-1.167,1.808-2.473,2.345-3.92c0.537-1.446,0.921-2.94,1.155-4.48H55.86V1.75z
			 M57.05,31.675v-14.07h16.205v13.93H71.61v-1.68H58.66v1.82H57.05z M71.61,19.18H58.66v9.1h12.95V19.18z"/>
		<path fill="#6FCACA" d="M85.26,13.405l-0.945,1.365c-0.42-0.396-0.963-0.828-1.628-1.295c-0.665-0.466-1.377-0.921-2.135-1.365
			c-0.758-0.443-1.511-0.828-2.257-1.155l0.98-1.19c0.723,0.304,1.464,0.671,2.222,1.103c0.758,0.432,1.47,0.864,2.135,1.295
			C84.297,12.594,84.84,13.008,85.26,13.405z M84.77,18.9l1.33,0.945c-0.513,1.213-1.08,2.497-1.697,3.85
			c-0.619,1.354-1.249,2.677-1.89,3.973c-0.642,1.295-1.254,2.467-1.837,3.517l-1.47-1.015c0.537-0.91,1.132-1.995,1.785-3.255
			c0.653-1.26,1.313-2.59,1.978-3.99S84.233,20.183,84.77,18.9z M86.905,4.375L85.89,5.74c-0.397-0.443-0.916-0.916-1.558-1.417
			c-0.642-0.501-1.336-0.992-2.083-1.47c-0.747-0.478-1.482-0.892-2.205-1.242l1.015-1.19c0.7,0.35,1.423,0.752,2.17,1.208
			s1.447,0.922,2.1,1.4C85.983,3.506,86.508,3.955,86.905,4.375z M108.255,19.285h-7.035v10.43c0,0.49-0.07,0.869-0.21,1.137
			s-0.409,0.461-0.805,0.578c-0.374,0.14-0.934,0.222-1.68,0.245c-0.747,0.023-1.727,0.023-2.94,0
			c-0.047-0.187-0.123-0.42-0.228-0.7c-0.105-0.28-0.205-0.537-0.298-0.77c0.957,0.023,1.791,0.035,2.502,0.035s1.184,0,1.417,0
			c0.42-0.023,0.63-0.198,0.63-0.525v-10.43h-6.72V7.56h5.845c0.187-0.653,0.373-1.376,0.56-2.17c0.187-0.793,0.326-1.516,0.42-2.17
			H90.37v7.945c0,1.494-0.052,3.115-0.157,4.865s-0.315,3.529-0.63,5.337c-0.315,1.809-0.782,3.57-1.4,5.285
			c-0.619,1.715-1.441,3.308-2.467,4.777c-0.14-0.117-0.356-0.269-0.647-0.455c-0.292-0.187-0.531-0.315-0.718-0.385
			c1.003-1.447,1.796-2.993,2.38-4.638c0.583-1.645,1.021-3.331,1.313-5.057c0.292-1.727,0.478-3.418,0.56-5.075
			c0.082-1.657,0.123-3.208,0.123-4.655v-9.52h21.07V3.22h-8.785l0.56,0.14c-0.21,0.677-0.42,1.389-0.63,2.135
			c-0.21,0.747-0.409,1.435-0.595,2.065h7.91V19.285z M94.5,21.56l1.575,0.42c-0.583,1.377-1.295,2.747-2.135,4.112
			c-0.84,1.365-1.704,2.526-2.59,3.482c-0.164-0.117-0.391-0.28-0.683-0.49c-0.292-0.21-0.542-0.362-0.752-0.455
			c0.933-0.933,1.797-2.024,2.59-3.272C93.298,24.109,93.963,22.843,94.5,21.56z M94.465,8.995v3.675h12.18V8.995H94.465z
			 M94.465,14.105v3.745h12.18v-3.745H94.465z M104.37,21.98l1.435-0.63c0.606,0.7,1.208,1.476,1.803,2.328
			c0.595,0.852,1.137,1.686,1.627,2.502c0.49,0.817,0.863,1.552,1.12,2.205l-1.54,0.735c-0.234-0.653-0.59-1.394-1.068-2.222
			c-0.479-0.828-1.009-1.674-1.592-2.538C105.571,23.497,104.976,22.703,104.37,21.98z"/>
		<path fill="#6FCACA" d="M144.69,21.665v1.54h-30.905v-1.54h14.56v-3.99h-11.62v-1.47h11.62V12.6H117.39V1.435h23.45V12.6h-10.85
			v3.605h11.655v1.47H129.99v3.99H144.69z M115.5,31.85l-1.47-0.77c0.816-0.677,1.575-1.557,2.275-2.642
			c0.7-1.085,1.271-2.164,1.715-3.238l1.54,0.42c-0.443,1.074-1.015,2.188-1.715,3.343C117.145,30.117,116.363,31.08,115.5,31.85z
			 M119,11.095h9.345v-8.19H119V11.095z M121.66,4.48l1.225-0.455c0.56,0.863,1.085,1.797,1.575,2.8
			c0.49,1.003,0.816,1.867,0.98,2.59l-1.33,0.56c-0.164-0.746-0.479-1.633-0.945-2.66S122.196,5.343,121.66,4.48z M123.935,25.865
			l1.575-0.07c0.233,0.863,0.425,1.82,0.578,2.87c0.151,1.05,0.228,1.913,0.228,2.59L124.67,31.5c0-0.7-0.065-1.587-0.193-2.66
			C124.349,27.767,124.167,26.775,123.935,25.865z M139.16,11.095v-8.19h-9.17v8.19H139.16z M131.215,25.9l1.575-0.28
			c0.42,0.864,0.828,1.814,1.225,2.853c0.396,1.038,0.688,1.908,0.875,2.607l-1.645,0.42c-0.164-0.724-0.438-1.616-0.822-2.678
			C132.037,27.761,131.635,26.787,131.215,25.9z M133.245,10.43l-1.12-0.56c0.35-0.513,0.718-1.114,1.103-1.802
			c0.385-0.688,0.758-1.388,1.12-2.1c0.361-0.711,0.659-1.359,0.893-1.942l1.4,0.595c-0.514,0.98-1.073,2.007-1.68,3.08
			C134.353,8.773,133.781,9.683,133.245,10.43z M138.425,25.795l1.505-0.56c0.606,0.56,1.213,1.19,1.82,1.89
			c0.607,0.7,1.173,1.388,1.698,2.065c0.525,0.676,0.95,1.283,1.277,1.82l-1.54,0.7c-0.303-0.537-0.717-1.15-1.242-1.838
			c-0.525-0.688-1.091-1.388-1.698-2.1C139.638,27.061,139.031,26.402,138.425,25.795z"/>
		<path fill="#6FCACA" d="M162.33,15.645h-1.435V12.25h-10.29v3.395h-1.4v-4.76h1.995V1.33h9.135v9.555h1.995V15.645z
			 M160.335,15.085V29.82c0,0.863-0.28,1.4-0.84,1.61c-0.327,0.117-0.788,0.187-1.382,0.21c-0.595,0.023-1.383,0.035-2.363,0.035
			c-0.023-0.187-0.093-0.409-0.21-0.665c-0.117-0.257-0.233-0.49-0.35-0.7c0.746,0.023,1.405,0.035,1.977,0.035
			s0.939-0.012,1.103-0.035c0.35,0,0.525-0.163,0.525-0.49v-4.41h-6.125v6.3h-1.505V15.085H160.335z M152.6,2.73v8.155h2.24v-5.39
			h4.025V2.73H152.6z M158.795,16.45h-6.125v3.045h6.125V16.45z M152.67,24.045h6.125v-3.15h-6.125V24.045z M158.865,10.885V6.79
			h-2.73v4.095H158.865z M174.055,29.505h6.09v1.4h-18.13v-1.4h5.81c-0.093-0.583-0.257-1.23-0.49-1.942
			c-0.234-0.712-0.514-1.359-0.84-1.943l1.33-0.42c0.35,0.607,0.653,1.29,0.91,2.047c0.256,0.759,0.431,1.417,0.525,1.978
			l-0.805,0.28h5.04l-0.7-0.28c0.28-0.583,0.577-1.26,0.892-2.03c0.315-0.77,0.554-1.446,0.718-2.03l1.47,0.525
			c-0.303,0.653-0.612,1.318-0.927,1.995C174.632,28.362,174.335,28.968,174.055,29.505z M179.97,15.225v1.4h-17.395v-1.4H179.97z
			 M178.535,3.395v9.765h-14.7V3.395h4.305V0h1.4v3.395h3.08V0h1.4v3.395H178.535z M177.765,24.955h-13.16v-6.3h13.16V24.955z
			 M165.235,4.725V7.56h3.045V4.725H165.235z M165.235,8.925v2.905h3.045V8.925H165.235z M166.11,19.95v3.71h10.115v-3.71H166.11z
			 M169.54,7.56h3.08V4.725h-3.08V7.56z M172.62,8.925h-3.08v2.905h3.08V8.925z M177.065,7.56V4.725h-3.185V7.56H177.065z
			 M177.065,11.83V8.925h-3.185v2.905H177.065z"/>
		<path fill="#6FCACA" d="M193.199,29.155V3.64h6.615c1.937,0,3.599,0.234,4.987,0.7c1.388,0.467,2.456,1.219,3.203,2.257
			c0.747,1.039,1.12,2.445,1.12,4.218c0,2.543-0.817,4.439-2.45,5.688c-1.634,1.249-3.874,1.873-6.72,1.873h-4.655v10.78H193.199z
			 M195.299,16.625h4.235c2.52,0,4.393-0.455,5.618-1.365s1.837-2.392,1.837-4.445c0-2.077-0.63-3.5-1.89-4.27
			c-1.26-0.77-3.162-1.155-5.705-1.155h-4.095V16.625z"/>
		<path fill="#6FCACA" d="M214.619,29.155V3.64h7.455c1.703,0,3.19,0.222,4.462,0.665c1.271,0.444,2.263,1.167,2.975,2.17
			c0.711,1.004,1.067,2.333,1.067,3.99c0,2.03-0.578,3.628-1.732,4.795c-1.155,1.167-2.701,1.902-4.638,2.205l6.895,11.69h-2.38
			l-6.79-11.515h-5.215v11.515H214.619z M216.719,15.89h4.865c2.217,0,3.914-0.443,5.093-1.33c1.178-0.886,1.768-2.251,1.768-4.095
			c0-1.867-0.59-3.179-1.768-3.938c-1.179-0.758-2.876-1.138-5.093-1.138h-4.865V15.89z"/>
		<path fill="#6FCACA" d="M244.858,29.61c-2.053,0-3.874-0.542-5.46-1.627c-1.587-1.085-2.835-2.625-3.745-4.62
			c-0.91-1.995-1.365-4.346-1.365-7.053c0-2.706,0.455-5.04,1.365-7c0.91-1.96,2.158-3.47,3.745-4.532
			c1.586-1.062,3.407-1.593,5.46-1.593c2.077,0,3.914,0.531,5.513,1.593c1.598,1.062,2.846,2.572,3.745,4.532
			c0.898,1.96,1.347,4.294,1.347,7c0,2.707-0.449,5.058-1.347,7.053c-0.899,1.995-2.147,3.535-3.745,4.62
			C248.772,29.067,246.935,29.61,244.858,29.61z M244.858,27.72c1.703,0,3.185-0.466,4.445-1.4c1.26-0.933,2.24-2.257,2.94-3.973
			c0.7-1.715,1.05-3.728,1.05-6.038c0-2.31-0.35-4.305-1.05-5.985c-0.7-1.68-1.68-2.975-2.94-3.885
			c-1.26-0.91-2.742-1.365-4.445-1.365c-1.68,0-3.145,0.455-4.393,1.365c-1.249,0.91-2.222,2.205-2.922,3.885
			c-0.7,1.68-1.05,3.675-1.05,5.985c0,2.31,0.35,4.323,1.05,6.038c0.7,1.715,1.674,3.04,2.922,3.973
			C241.714,27.253,243.179,27.72,244.858,27.72z"/>
	</g>
</g>
<g>
</g>
<g>
</g>
<g>
</g>
<g>
</g>
<g>
</g>
<g>
</g>
</svg>
