<?xml version="1.0" encoding="utf-8"?>
<!-- Generator: Adobe Illustrator 16.0.0, SVG Export Plug-In . SVG Version: 6.00 Build 0)  -->
<!DOCTYPE svg PUBLIC "-//W3C//DTD SVG 1.1//EN" "http://www.w3.org/Graphics/SVG/1.1/DTD/svg11.dtd">
<svg version="1.1" id="Layer_1" xmlns="http://www.w3.org/2000/svg" xmlns:xlink="http://www.w3.org/1999/xlink" x="0px" y="0px"
	 width="1059.775px" height="520.117px" viewBox="0 0 1059.775 520.117" enable-background="new 0 0 1059.775 520.117"
	 xml:space="preserve">
<g>
	<path fill="#FFFFFF" d="M13.702,111.783c-4.367-0.354-8.438-2.597-10.975-5.016l1.77-2.419c2.538,2.301,6.019,4.543,10.385,4.543
		c5.37,0,8.261-3.127,8.261-7.729c0-12.391-18.764-9.087-18.764-22.245c0-5.605,3.894-9.677,9.323-10.326V62.1h2.832v6.49
		c4.249,0.354,6.786,2.302,8.969,4.721l-1.947,2.124c-2.419-2.479-4.425-3.895-8.32-3.895c-4.425,0-7.376,3.068-7.376,7.199
		c0,10.975,18.705,7.435,18.705,22.186c0,6.196-4.13,10.208-10.031,10.857v6.49h-2.832V111.783z"/>
	<path fill="#FFFFFF" d="M34.173,108.951c4.721-2.655,6.904-7.435,6.904-12.45c0-1.534-0.236-3.01-0.59-4.484h-6.491v-2.42
		l4.366-0.177h1.475c-0.944-3.187-2.006-6.255-2.006-9.559c0-6.963,4.366-11.329,11.329-11.329c4.484,0,7.553,2.124,9.559,4.721
		l-2.183,2.064c-1.711-2.183-3.953-3.776-7.317-3.776c-5.192,0-7.965,3.6-7.965,8.32c0,3.304,1.121,6.313,2.006,9.559h10.68v2.597
		H43.85c0.295,1.416,0.472,2.891,0.472,4.484c0,5.251-1.652,8.379-4.543,11.27v0.236h19.059v3.068H34.173V108.951z"/>
	<path fill="#FFFFFF" d="M76.063,100.335H65.266v-2.36h10.798v-4.543H65.266v-2.419h9.795L63.908,69.298h3.717l5.901,12.332
		c1.357,2.892,2.714,5.783,4.189,8.97h0.295c1.534-3.246,2.832-6.078,4.307-8.97l5.96-12.332h3.54l-11.27,21.715h9.854v2.419H79.545
		v4.543h10.857v2.36H79.545v10.739h-3.481V100.335z"/>
	<path fill="#FFFFFF" d="M99.426,95.203h-4.249v-2.125l4.012-0.354c-0.059-0.826-0.059-1.711-0.059-2.597
		c0-0.767,0-1.534,0.059-2.242h-4.012v-2.124l4.249-0.295c1.298-10.503,7.081-16.935,15.459-16.935c3.953,0,7.316,2.36,9.382,5.134
		l-2.183,2.006c-1.888-2.537-4.249-4.189-7.258-4.189c-6.609,0-10.739,5.251-11.801,13.984h17.879v2.419h-18.056
		c-0.059,0.708-0.059,1.416-0.059,2.184c0,0.885,0,1.829,0.059,2.655h15.4v2.479h-15.165c1.121,8.496,5.016,13.748,11.093,13.748
		c3.481,0,6.078-1.711,8.556-5.134l2.183,1.947c-2.773,3.776-6.195,6.077-11.034,6.077
		C106.271,111.841,100.783,105.528,99.426,95.203z"/>
	<path fill="#FFFFFF" d="M141.966,105.882c-7.435-0.768-12.746-6.137-12.746-15.105c0-9.028,5.724-14.279,12.746-15.165v-7.198
		h2.478v7.081c3.954,0.117,6.667,1.947,8.792,3.894l-1.829,2.184c-1.947-1.829-4.367-3.127-6.963-3.127v24.605
		c3.127-0.118,5.783-1.652,7.789-3.423l1.711,2.184c-2.596,2.36-5.783,4.012-9.5,4.189v6.963h-2.478V105.882z M141.966,102.873
		V78.622c-5.488,1.003-9.264,5.605-9.264,12.155C132.702,97.385,136.301,101.988,141.966,102.873z"/>
	<path fill="#FFFFFF" d="M157.599,116.385l0.826-2.597c1.062,0.531,2.183,0.708,3.422,0.708c4.543,0,6.254-4.366,6.903-10.62
		l1.771-16.522h-6.078v-2.537l4.366-0.235h2.065l0.413-4.072c0.885-8.261,3.658-13.217,9.795-13.217c2.124,0,3.717,0.59,4.956,1.18
		l-0.885,2.715c-1.003-0.473-2.242-0.944-4.013-0.944c-4.366,0-5.9,4.897-6.49,10.031l-0.472,4.308h8.851v2.772h-9.146
		l-1.829,16.935c-0.885,8.025-3.541,13.159-10.149,13.159C160.195,117.448,158.72,117.035,157.599,116.385z"/>
	<path fill="#FFFFFF" d="M194.237,59.15h47.205v59.006h-47.205V59.15z M197.188,112.786l18.764-24.133l-18.764-24.134V112.786z
		 M236.604,62.1h-37.527l18.764,24.133L236.604,62.1z M236.604,115.206L217.84,91.072l-18.764,24.134H236.604z M238.492,112.786
		V64.519l-18.764,24.134L238.492,112.786z"/>
	<path fill="#FFFFFF" d="M253.237,59.15h47.205v59.006h-47.205V59.15z M256.188,112.786l18.764-24.133l-18.764-24.134V112.786z
		 M295.604,62.1h-37.527l18.764,24.133L295.604,62.1z M295.604,115.206L276.84,91.072l-18.764,24.134H295.604z M297.492,112.786
		V64.519l-18.764,24.134L297.492,112.786z"/>
	<path fill="#FFFFFF" d="M312.237,59.15h47.205v59.006h-47.205V59.15z M315.188,112.786l18.764-24.133l-18.764-24.134V112.786z
		 M354.604,62.1h-37.527l18.764,24.133L354.604,62.1z M354.604,115.206L335.84,91.072l-18.764,24.134H354.604z M356.492,112.786
		V64.519l-18.764,24.134L356.492,112.786z"/>
	<path fill="#FFFFFF" d="M435.609,80.687c0-8.556,3.6-13.395,9.323-13.395c5.782,0,9.323,4.839,9.323,13.395
		c0,8.732-3.541,13.63-9.323,13.63C439.209,94.317,435.609,89.419,435.609,80.687z M451.423,80.687c0-7.14-2.596-11.034-6.49-11.034
		c-3.895,0-6.432,3.895-6.432,11.034c0,7.198,2.537,11.27,6.432,11.27C448.827,91.957,451.423,87.885,451.423,80.687z
		 M470.069,67.292h2.714l-23.957,44.549h-2.714L470.069,67.292z M464.758,98.27c0-8.614,3.6-13.453,9.382-13.453
		c5.665,0,9.323,4.839,9.323,13.453c0,8.733-3.659,13.571-9.323,13.571C468.358,111.841,464.758,107.003,464.758,98.27z
		 M480.572,98.27c0-7.198-2.596-11.093-6.432-11.093c-3.953,0-6.491,3.895-6.491,11.093c0,7.199,2.538,11.212,6.491,11.212
		C477.976,109.482,480.572,105.469,480.572,98.27z"/>
	<path fill="#FFFFFF" d="M503.283,80.392c0,9.027-3.717,12.863-7.553,12.863c-3.953,0-7.612-4.131-7.612-12.923
		c0-8.969,3.776-13.04,7.671-12.981C499.684,67.351,503.283,71.482,503.283,80.392z M490.774,80.333
		c0,4.013,0.826,10.739,4.897,10.739c4.249,0,5.016-6.845,5.016-10.68c0-3.836-0.826-10.857-5.074-10.799
		C491.541,69.593,490.774,76.556,490.774,80.333z M518.743,66.938l-22.481,45.199h-2.537l22.54-45.199H518.743z M524.348,98.801
		c0,9.028-3.717,12.923-7.611,12.923c-3.895,0-7.553-4.189-7.553-12.981c0-8.969,3.717-13.04,7.611-12.981
		C520.69,85.761,524.348,89.892,524.348,98.801z M511.839,98.801c0,3.954,0.767,10.681,4.897,10.681
		c4.189,0,4.956-6.845,4.956-10.681c0-3.835-0.767-10.856-5.015-10.798C512.606,88.003,511.839,94.966,511.839,98.801z
		 M542.876,98.801c0,9.028-3.717,12.923-7.611,12.923c-3.954,0-7.553-4.189-7.553-12.981c0-8.969,3.717-13.04,7.611-12.981
		C539.218,85.761,542.876,89.892,542.876,98.801z M530.308,98.801c0,3.836,0.649,10.681,4.957,10.681
		c4.189,0,4.956-6.845,4.956-10.681c0-3.776-0.767-10.856-5.074-10.798C531.134,88.003,530.308,94.966,530.308,98.801z"/>
	<path fill="#FFFFFF" d="M622.761,72.603h-5.429v-2.006c2.537-0.531,4.249-1.299,5.841-2.538h2.479V93.55h-2.891V72.603z
		 M648.31,67.292h2.773l-23.956,44.549h-2.773L648.31,67.292z M653.68,103.758h-11.507v-1.476l11.389-16.698h2.832v15.932h3.776
		v2.242h-3.776v7.316h-2.714V103.758z M653.68,101.516v-5.488l0.295-6.845h-0.295l-3.54,5.37l-4.604,6.963H653.68z"/>
	<path fill="#FFFFFF" d="M672.97,72.603h-5.429v-2.006c2.537-0.531,4.249-1.299,5.841-2.538h2.479V93.55h-2.891V72.603z
		 M697.044,67.292h2.773l-23.957,44.549h-2.773L697.044,67.292z M694.565,109.304c8.497-7.906,12.45-11.859,12.45-16.049
		c0-3.659-2.124-5.96-5.487-5.96c-2.301,0-4.367,1.771-5.783,3.953l-1.888-1.652c1.712-2.655,4.779-4.779,8.024-4.779
		c4.779,0,8.025,2.715,8.025,8.084c0,5.192-4.426,9.382-10.68,15.637h12.154v2.537h-16.816V109.304z"/>
	<path fill="#FFFFFF" d="M717.101,89.419l2.124-1.593c1.593,2.419,4.071,4.13,6.962,4.13c3.128,0,5.725-1.947,5.725-5.251
		c0-3.305-3.305-5.134-8.733-5.134v-2.006c4.956,0,7.789-2.42,7.789-5.252c0-2.714-2.124-4.661-5.311-4.661
		c-2.007,0-4.071,1.416-5.605,3.363l-1.888-1.652c1.888-2.36,4.543-4.071,7.848-4.071c4.307,0,7.848,2.537,7.848,6.727
		c0,3.127-2.125,5.252-4.839,6.373c3.009,0.648,5.841,2.832,5.841,6.372c0,4.721-3.834,7.553-8.614,7.553
		C722.175,94.317,718.93,92.075,717.101,89.419z M753.153,67.292h2.714l-23.956,44.549h-2.715L753.153,67.292z M756.752,103.758
		h-11.506v-1.476l11.329-16.698h2.832v15.932h3.836v2.242h-3.836v7.316h-2.655V103.758z M756.752,101.516v-5.488l0.296-6.845h-0.296
		l-3.54,5.37l-4.603,6.963H756.752z"/>
	<path fill="#FFFFFF" d="M771.853,59.15h47.204v59.006h-47.204V59.15z M774.803,112.786l18.764-24.133l-18.764-24.134V112.786z
		 M814.218,62.1H776.69l18.764,24.133L814.218,62.1z M814.218,115.206l-18.764-24.134l-18.764,24.134H814.218z M816.106,112.786
		V64.519l-18.764,24.134L816.106,112.786z"/>
	<path fill="#FFFFFF" d="M830.853,59.15h47.204v59.006h-47.204V59.15z M833.803,112.786l18.764-24.133l-18.764-24.134V112.786z
		 M873.218,62.1H835.69l18.764,24.133L873.218,62.1z M873.218,115.206l-18.764-24.134l-18.764,24.134H873.218z M875.106,112.786
		V64.519l-18.764,24.134L875.106,112.786z"/>
	<path fill="#FFFFFF" d="M889.853,59.15h47.204v59.006h-47.204V59.15z M892.803,112.786l18.764-24.133l-18.764-24.134V112.786z
		 M932.219,62.1H894.69l18.764,24.133L932.219,62.1z M932.219,115.206l-18.765-24.134l-18.764,24.134H932.219z M934.106,112.786
		V64.519l-18.764,24.134L934.106,112.786z"/>
	<path fill="#FFFFFF" d="M948.853,59.15h47.205v59.006h-47.205V59.15z M951.803,112.786l18.764-24.133l-18.764-24.134V112.786z
		 M991.219,62.1h-37.527l18.764,24.133L991.219,62.1z M991.219,115.206l-18.764-24.134l-18.764,24.134H991.219z M993.107,112.786
		V64.519l-18.765,24.134L993.107,112.786z"/>
	<path fill="#FFFFFF" d="M1007.853,59.15h47.205v59.006h-47.205V59.15z M1010.803,112.786l18.764-24.133l-18.764-24.134V112.786z
		 M1050.219,62.1h-37.527l18.764,24.133L1050.219,62.1z M1050.219,115.206l-18.764-24.134l-18.764,24.134H1050.219z
		 M1052.107,112.786V64.519l-18.765,24.134L1052.107,112.786z"/>
	<path fill="#FFFFFF" d="M10.397,142.752H4.969v-1.947c2.596-0.531,4.249-1.357,5.842-2.597h2.478v25.49h-2.891V142.752z"/>
	<path fill="#FFFFFF" d="M26.326,161.929c8.556-7.907,12.45-11.86,12.45-16.05c0-3.658-2.124-5.96-5.487-5.96
		c-2.301,0-4.367,1.829-5.842,4.013l-1.829-1.652c1.711-2.714,4.721-4.838,8.025-4.838c4.779,0,8.025,2.714,8.025,8.083
		c0,5.193-4.426,9.441-10.68,15.637h12.155v2.537H26.326V161.929z"/>
	<path fill="#FFFFFF" d="M48.923,159.627l2.125-1.593c1.534,2.419,4.071,4.071,6.962,4.071c3.127,0,5.724-1.947,5.724-5.252
		c0-3.304-3.304-5.074-8.733-5.074v-2.065c4.897,0,7.73-2.359,7.73-5.251c0-2.715-2.065-4.661-5.251-4.661
		c-2.006,0-4.072,1.416-5.665,3.422l-1.83-1.652c1.888-2.36,4.485-4.13,7.848-4.13c4.307,0,7.848,2.537,7.848,6.727
		c0,3.187-2.124,5.311-4.838,6.432c3.009,0.648,5.782,2.832,5.782,6.372c0,4.721-3.776,7.494-8.615,7.494
		C53.998,164.466,50.752,162.283,48.923,159.627z"/>
	<path fill="#FFFFFF" d="M84.619,156.382H73.113v-1.475l11.329-16.699h2.833v15.932h3.835v2.242h-3.835v7.316h-2.655V156.382z
		 M84.619,154.14v-5.487l0.295-6.845h-0.295l-3.541,5.369l-4.603,6.963H84.619z"/>
	<path fill="#FFFFFF" d="M99.722,138.15h47.205v59.006H99.722V138.15z M102.672,191.786l18.764-24.133l-18.764-24.134V191.786z
		 M142.088,141.1h-37.527l18.764,24.133L142.088,141.1z M142.088,194.206l-18.764-24.134l-18.764,24.134H142.088z M143.976,191.786
		v-48.267l-18.764,24.134L143.976,191.786z"/>
	<path fill="#FFFFFF" d="M158.722,138.15h47.205v59.006h-47.205V138.15z M161.672,191.786l18.764-24.133l-18.764-24.134V191.786z
		 M201.088,141.1h-37.527l18.764,24.133L201.088,141.1z M201.088,194.206l-18.764-24.134l-18.764,24.134H201.088z M202.976,191.786
		v-48.267l-18.764,24.134L202.976,191.786z"/>
	<path fill="#FFFFFF" d="M217.722,138.15h47.205v59.006h-47.205V138.15z M220.672,191.786l18.764-24.133l-18.764-24.134V191.786z
		 M260.088,141.1h-37.527l18.764,24.133L260.088,141.1z M260.088,194.206l-18.764-24.134l-18.764,24.134H260.088z M261.976,191.786
		v-48.267l-18.764,24.134L261.976,191.786z"/>
	<path fill="#FFFFFF" d="M276.722,138.15h47.205v59.006h-47.205V138.15z M279.672,191.786l18.764-24.133l-18.764-24.134V191.786z
		 M319.088,141.1h-37.527l18.764,24.133L319.088,141.1z M319.088,194.206l-18.764-24.134l-18.764,24.134H319.088z M320.976,191.786
		v-48.267l-18.764,24.134L320.976,191.786z"/>
	<path fill="#FFFFFF" d="M335.722,138.15h47.205v59.006h-47.205V138.15z M338.672,191.786l18.764-24.133l-18.764-24.134V191.786z
		 M378.088,141.1h-37.527l18.764,24.133L378.088,141.1z M378.088,194.206l-18.764-24.134l-18.764,24.134H378.088z M379.976,191.786
		v-48.267l-18.764,24.134L379.976,191.786z"/>
	<path fill="#FFFFFF" d="M422.73,147.059h4.721l8.851,24.724c1.121,3.128,2.242,6.313,3.363,9.441h0.236
		c1.121-3.128,2.124-6.313,3.187-9.441l8.851-24.724h4.721v43.016h-3.364v-27.261c0-3.54,0.236-8.261,0.413-11.86h-0.236
		l-3.363,9.618l-9.028,24.9h-2.833l-9.087-24.9l-3.363-9.618h-0.236c0.177,3.6,0.413,8.32,0.413,11.86v27.261h-3.246V147.059z"/>
	<path fill="#FFFFFF" d="M468.336,178.746v-20.121h3.422v19.708c0,6.432,2.006,9.441,6.844,9.441c3.659,0,6.255-1.889,9.795-6.137
		v-23.013h3.422v31.45h-2.891l-0.295-5.192h-0.177c-3.068,3.54-6.254,5.959-10.621,5.959
		C471.287,190.841,468.336,186.83,468.336,178.746z"/>
	<path fill="#FFFFFF" d="M503.618,138.15h47.205v59.006h-47.205V138.15z M506.568,191.786l18.764-24.133l-18.764-24.134V191.786z
		 M545.983,141.1h-37.527l18.764,24.133L545.983,141.1z M545.983,194.206l-18.763-24.134l-18.764,24.134H545.983z M547.872,191.786
		v-48.267l-18.764,24.134L547.872,191.786z"/>
	<path fill="#FFFFFF" d="M562.618,138.15h47.204v59.006h-47.204V138.15z M565.568,191.786l18.764-24.133l-18.764-24.134V191.786z
		 M604.983,141.1h-37.527l18.764,24.133L604.983,141.1z M604.983,194.206l-18.764-24.134l-18.764,24.134H604.983z M606.872,191.786
		v-48.267l-18.764,24.134L606.872,191.786z"/>
	<path fill="#FFFFFF" d="M619.435,182.167c0-6.962,6.195-10.267,20.063-11.859c0.117-4.662-1.24-9.5-7.199-9.5
		c-4.131,0-7.729,1.947-9.913,3.599l-1.534-2.478c2.42-1.652,6.785-4.131,11.92-4.131c7.493,0,10.148,5.37,10.148,12.332v19.944
		h-2.891l-0.354-4.013h-0.118c-3.187,2.597-6.963,4.779-10.975,4.779C623.506,190.841,619.435,188.009,619.435,182.167z
		 M639.497,183.053v-10.208c-12.392,1.416-16.641,4.308-16.641,9.146c0,4.308,2.951,5.96,6.432,5.96
		C632.771,187.951,635.779,186.298,639.497,183.053z"/>
	<path fill="#FFFFFF" d="M681.545,143.166h3.423v13.453l-0.06,6.845c3.187-3.187,6.432-5.665,10.739-5.665
		c6.55,0,9.559,4.071,9.559,12.155v20.121h-3.422v-19.648c0-6.55-2.065-9.56-6.904-9.56c-3.658,0-6.254,1.889-9.912,5.665v23.543
		h-3.423V143.166z"/>
	<path fill="#FFFFFF" d="M715.292,148.358c0-1.652,1.181-2.715,2.773-2.715c1.535,0,2.715,1.063,2.715,2.715
		c0,1.77-1.18,2.891-2.715,2.891C716.473,151.249,715.292,150.127,715.292,148.358z M716.296,158.625h3.422v31.45h-3.422V158.625z"
		/>
	<path fill="#FFFFFF" d="M731.458,158.625h2.832l0.413,3.836h0.118c3.068-2.36,6.668-4.662,10.503-4.662
		c8.378,0,12.627,6.373,12.627,16.05c0,10.739-6.491,16.993-13.866,16.993c-2.95,0-6.078-1.356-9.264-3.835l0.059,5.782v11.329
		h-3.422V158.625z M754.293,173.848c0-7.553-2.597-13.04-9.618-13.04c-3.01,0-6.137,1.77-9.795,5.016v18.174
		c3.363,2.832,6.609,3.835,8.91,3.835C749.927,187.833,754.293,182.286,754.293,173.848z"/>
	<path fill="#FFFFFF" d="M766.149,148.358c0-1.652,1.18-2.715,2.773-2.715c1.534,0,2.714,1.063,2.714,2.715
		c0,1.77-1.18,2.891-2.714,2.891C767.329,151.249,766.149,150.127,766.149,148.358z M767.152,158.625h3.423v31.45h-3.423V158.625z"
		/>
	<path fill="#FFFFFF" d="M774.172,204.059l0.767-2.714c0.826,0.295,2.007,0.648,3.246,0.648c3.48,0,4.13-2.773,4.13-6.727v-36.643
		h3.481v36.761c0,6.255-2.301,9.5-7.435,9.5C776.769,204.885,775.175,204.531,774.172,204.059z M781.253,148.358
		c0-1.652,1.121-2.715,2.714-2.715s2.714,1.063,2.714,2.715c0,1.77-1.121,2.891-2.714,2.891S781.253,150.127,781.253,148.358z"/>
	<path fill="#FFFFFF" d="M796.533,148.358c0-1.652,1.181-2.715,2.773-2.715c1.534,0,2.714,1.063,2.714,2.715
		c0,1.77-1.18,2.891-2.714,2.891C797.714,151.249,796.533,150.127,796.533,148.358z M797.536,158.625h3.422v31.45h-3.422V158.625z"
		/>
	<path fill="#FFFFFF" d="M840.353,158.625h2.832l0.414,4.779h0.117c2.832-3.127,6.373-5.605,9.913-5.605
		c5.016,0,7.553,2.537,8.674,6.373c3.54-3.836,6.963-6.373,10.621-6.373c6.313,0,9.44,4.071,9.44,12.155v20.121h-3.422v-19.648
		c0-6.55-2.184-9.56-6.785-9.56c-2.832,0-5.725,1.889-9.088,5.665v23.543h-3.422v-19.648c0-6.55-2.124-9.56-6.785-9.56
		c-2.773,0-5.783,1.889-9.088,5.665v23.543h-3.422V158.625z"/>
	<path fill="#FFFFFF" d="M891.092,174.379c0-10.208,6.727-16.581,13.808-16.581c7.611,0,12.155,5.429,12.155,14.634
		c0,0.885-0.06,1.711-0.178,2.479h-22.304c0.178,7.67,4.721,13.04,11.506,13.04c3.363,0,6.019-1.063,8.379-2.715l1.298,2.538
		c-2.537,1.593-5.487,3.067-10.03,3.067C897.642,190.841,891.092,184.706,891.092,174.379z M913.927,172.196
		c0-7.611-3.48-11.447-8.969-11.447c-5.133,0-9.736,4.249-10.385,11.447H913.927z M896.697,147.885h16.403v2.655h-16.403V147.885z"
		/>
	<path fill="#FFFFFF" d="M925.43,138.15h47.205v59.006H925.43V138.15z M928.38,191.786l18.764-24.133l-18.764-24.134V191.786z
		 M967.796,141.1h-37.527l18.764,24.133L967.796,141.1z M967.796,194.206l-18.764-24.134l-18.764,24.134H967.796z M969.685,191.786
		v-48.267l-18.765,24.134L969.685,191.786z"/>
	<path fill="#FFFFFF" d="M983.427,148.358c0-1.652,1.18-2.715,2.773-2.715c1.534,0,2.714,1.063,2.714,2.715
		c0,1.77-1.18,2.891-2.714,2.891C984.606,151.249,983.427,150.127,983.427,148.358z M984.43,158.625h3.423v31.45h-3.423V158.625z"/>
	<path fill="#FFFFFF" d="M999.592,158.625h2.832l0.413,4.779h0.118c3.187-3.127,6.432-5.605,10.739-5.605
		c6.55,0,9.559,4.071,9.559,12.155v20.121h-3.422v-19.648c0-6.55-2.065-9.56-6.903-9.56c-3.659,0-6.255,1.889-9.913,5.665v23.543
		h-3.423V158.625z"/>
	<path fill="#FFFFFF" d="M1032.396,182.167c0-6.962,6.195-10.267,20.062-11.859c0.118-4.662-1.239-9.5-7.198-9.5
		c-4.131,0-7.73,1.947-9.913,3.599l-1.534-2.478c2.419-1.652,6.785-4.131,11.919-4.131c7.493,0,10.148,5.37,10.148,12.332v19.944
		h-2.891l-0.354-4.013h-0.118c-3.186,2.597-6.962,4.779-10.975,4.779C1036.467,190.841,1032.396,188.009,1032.396,182.167z
		 M1052.457,183.053v-10.208c-12.392,1.416-16.64,4.308-16.64,9.146c0,4.308,2.95,5.96,6.432,5.96
		S1048.739,186.298,1052.457,183.053z"/>
	<path fill="#FFFFFF" d="M8.155,265.888H8.037l-0.413,3.187H4.851v-46.909h3.422v13.453l-0.177,6.019
		c3.127-2.655,6.845-4.839,10.621-4.839c8.378,0,12.627,6.373,12.627,16.05c0,10.739-6.491,16.993-13.866,16.993
		C14.528,269.841,11.046,268.308,8.155,265.888z M27.686,252.848c0-7.553-2.596-13.04-9.618-13.04c-3.009,0-6.254,1.77-9.795,5.016
		v18.174c3.246,2.832,6.609,3.835,8.91,3.835C23.319,266.833,27.686,261.286,27.686,252.848z"/>
	<path fill="#FFFFFF" d="M40.427,237.625h2.833l0.413,5.842h0.118c2.125-3.953,5.252-6.668,8.91-6.668
		c1.239,0,2.183,0.177,3.186,0.708l-0.708,3.068c-1.062-0.413-1.652-0.531-2.891-0.531c-2.773,0-6.137,2.065-8.438,7.907v21.124
		h-3.422V237.625z"/>
	<path fill="#FFFFFF" d="M55.176,226.885h16.345v2.655H55.176V226.885z M61.608,237.625h3.422v31.45h-3.422V237.625z"/>
	<path fill="#FFFFFF" d="M71.637,237.625h3.717l6.786,19.295c1.003,3.068,2.065,6.255,3.127,9.087h0.236
		c1.003-2.832,2.125-6.019,3.127-9.087l6.845-19.295h3.481l-11.565,31.45H83.32L71.637,237.625z"/>
	<path fill="#FFFFFF" d="M104.618,227.358c0-1.652,1.18-2.715,2.773-2.715c1.534,0,2.714,1.063,2.714,2.715
		c0,1.77-1.18,2.891-2.714,2.891C105.798,230.249,104.618,229.127,104.618,227.358z M105.621,237.625h3.422v31.45h-3.422V237.625z"
		/>
	<path fill="#FFFFFF" d="M135.359,237.625h2.833l0.413,4.779h0.118c3.187-3.127,6.432-5.605,10.739-5.605
		c6.55,0,9.559,4.071,9.559,12.155v20.121h-3.422v-19.648c0-6.55-2.065-9.56-6.904-9.56c-3.658,0-6.254,1.889-9.913,5.665v23.543
		h-3.422V237.625z"/>
	<path fill="#FFFFFF" d="M167.749,253.379c0-10.503,6.609-16.581,14.221-16.581c7.611,0,14.22,6.078,14.22,16.581
		c0,10.443-6.609,16.462-14.22,16.462C174.358,269.841,167.749,263.823,167.749,253.379z M192.649,253.379
		c0-8.025-4.543-13.571-10.68-13.571c-6.137,0-10.621,5.546-10.621,13.571c0,8.024,4.484,13.512,10.621,13.512
		C188.106,266.891,192.649,261.404,192.649,253.379z"/>
	<path fill="#FFFFFF" d="M202.735,275.448c0-2.773,1.83-5.547,4.721-7.494v-0.295c-1.593-0.944-2.833-2.597-2.833-5.074
		c0-2.715,2.065-4.78,3.481-5.842v-0.236c-2.006-1.652-4.012-4.779-4.012-8.556c0-6.55,5.074-11.152,11.27-11.152
		c1.711,0,3.187,0.413,4.189,0.826h10.739v2.832h-7.081c1.888,1.652,3.246,4.367,3.246,7.553c0,6.491-4.897,11.094-11.093,11.094
		c-1.711,0-3.658-0.473-5.075-1.299c-1.298,1.063-2.478,2.36-2.478,4.367c0,2.242,1.357,3.953,5.9,3.953h6.609
		c7.14,0,10.503,2.242,10.503,7.258c0,5.487-5.9,10.68-15.105,10.68C207.869,284.062,202.735,280.758,202.735,275.448z
		 M227.4,273.854c0-3.363-2.478-4.603-7.14-4.603h-6.432c-0.708,0-2.36-0.177-3.954-0.531c-2.714,1.889-3.894,4.189-3.894,6.314
		c0,3.835,3.717,6.432,10.149,6.432C222.975,281.466,227.4,277.63,227.4,273.854z M223.151,247.951c0-5.192-3.54-8.379-7.789-8.379
		c-4.308,0-7.848,3.187-7.848,8.379c0,5.134,3.658,8.556,7.848,8.556C219.493,256.506,223.151,253.084,223.151,247.951z"/>
	<path fill="#FFFFFF" d="M234.301,261.167c0-6.962,6.196-10.267,20.062-11.859c0.118-4.662-1.239-9.5-7.199-9.5
		c-4.13,0-7.729,1.947-9.913,3.599l-1.534-2.478c2.419-1.652,6.786-4.131,11.919-4.131c7.494,0,10.149,5.37,10.149,12.332v19.944
		h-2.891l-0.354-4.013h-0.118c-3.187,2.597-6.963,4.779-10.975,4.779C238.373,269.841,234.301,267.009,234.301,261.167z
		 M254.363,262.053v-10.208c-12.391,1.416-16.64,4.308-16.64,9.146c0,4.308,2.95,5.96,6.432,5.96S250.646,265.298,254.363,262.053z"
		/>
	<path fill="#FFFFFF" d="M268.757,237.625h2.833l0.413,5.842h0.118c2.125-3.953,5.252-6.668,8.91-6.668
		c1.239,0,2.183,0.177,3.186,0.708l-0.708,3.068c-1.062-0.413-1.652-0.531-2.891-0.531c-2.773,0-6.137,2.065-8.438,7.907v21.124
		h-3.422V237.625z"/>
	<path fill="#FFFFFF" d="M289.938,217.15h47.205v59.006h-47.205V217.15z M292.889,270.786l18.764-24.133l-18.764-24.134V270.786z
		 M332.304,220.1h-37.527l18.764,24.133L332.304,220.1z M332.304,273.206l-18.764-24.134l-18.764,24.134H332.304z M334.192,270.786
		v-48.267l-18.764,24.134L334.192,270.786z"/>
	<path fill="#FFFFFF" d="M346.342,253.379c0-10.503,6.609-16.581,14.221-16.581c7.611,0,14.22,6.078,14.22,16.581
		c0,10.443-6.609,16.462-14.22,16.462C352.951,269.841,346.342,263.823,346.342,253.379z M371.242,253.379
		c0-8.025-4.543-13.571-10.68-13.571c-6.137,0-10.621,5.546-10.621,13.571c0,8.024,4.484,13.512,10.621,13.512
		C366.699,266.891,371.242,261.404,371.242,253.379z"/>
	<path fill="#FFFFFF" d="M383.866,260.106v-19.59h-4.897v-2.597l5.016-0.295l0.413-9.087h2.891v9.087h9.028v2.892h-9.028v19.826
		c0,3.953,1.062,6.549,5.251,6.549c1.18,0,2.714-0.413,3.835-0.943l0.826,2.714c-1.829,0.649-3.835,1.18-5.251,1.18
		C385.754,269.841,383.866,265.948,383.866,260.106z"/>
	<path fill="#FFFFFF" d="M415.846,253.379c0-10.503,6.786-16.581,14.575-16.581c4.189,0,7.021,1.889,9.205,3.836l-1.947,2.36
		c-1.947-1.83-4.248-3.187-7.198-3.187c-6.255,0-11.034,5.546-11.034,13.571c0,8.024,4.366,13.512,10.975,13.512
		c3.245,0,6.078-1.593,8.202-3.48l1.711,2.359c-2.773,2.36-6.136,4.071-10.09,4.071
		C422.042,269.841,415.846,263.823,415.846,253.379z"/>
	<path fill="#FFFFFF" d="M444.047,253.379c0-10.208,6.727-16.581,13.808-16.581c7.612,0,12.155,5.429,12.155,14.634
		c0,0.885-0.059,1.711-0.177,2.479h-22.304c0.177,7.67,4.721,13.04,11.506,13.04c3.363,0,6.019-1.063,8.378-2.715l1.298,2.538
		c-2.537,1.593-5.488,3.067-10.031,3.067C450.597,269.841,444.047,263.706,444.047,253.379z M466.883,251.196
		c0-7.611-3.481-11.447-8.969-11.447c-5.134,0-9.736,4.249-10.385,11.447H466.883z"/>
	<path fill="#FFFFFF" d="M478.385,264.414v-42.248h3.422v42.602c0,1.476,0.59,2.124,1.417,2.124c0.236,0,0.472,0,1.121-0.117
		l0.531,2.714c-0.59,0.177-1.18,0.354-2.301,0.354C479.743,269.841,478.385,268.072,478.385,264.414z"/>
	<path fill="#FFFFFF" d="M491.542,253.379c0-10.503,6.609-16.581,14.221-16.581c7.611,0,14.22,6.078,14.22,16.581
		c0,10.443-6.609,16.462-14.22,16.462C498.151,269.841,491.542,263.823,491.542,253.379z M516.442,253.379
		c0-8.025-4.543-13.571-10.68-13.571c-6.137,0-10.621,5.546-10.621,13.571c0,8.024,4.484,13.512,10.621,13.512
		C511.899,266.891,516.442,261.404,516.442,253.379z"/>
	<path fill="#FFFFFF" d="M529.715,240.516h-4.366v-2.597l4.366-0.295v-6.608c0-6.255,2.773-9.618,8.084-9.618
		c1.592,0,3.244,0.413,4.72,1.003l-0.826,2.773c-1.298-0.59-2.537-0.885-3.718-0.885c-3.363,0-4.838,2.479-4.838,6.903v6.432h7.14
		v2.892h-7.14v28.559h-3.422V240.516z"/>
	<path fill="#FFFFFF" d="M543.285,261.167c0-6.962,6.196-10.267,20.062-11.859c0.119-4.662-1.238-9.5-7.198-9.5
		c-4.13,0-7.729,1.947-9.913,3.599l-1.534-2.478c2.419-1.652,6.786-4.131,11.919-4.131c7.494,0,10.149,5.37,10.149,12.332v19.944
		h-2.892l-0.354-4.013h-0.118c-3.187,2.597-6.963,4.779-10.976,4.779C547.356,269.841,543.285,267.009,543.285,261.167z
		 M563.347,262.053v-10.208c-12.391,1.416-16.639,4.308-16.639,9.146c0,4.308,2.949,5.96,6.432,5.96
		C556.62,266.951,559.63,265.298,563.347,262.053z M548.596,226.885h16.345v2.655h-16.345V226.885z"/>
	<path fill="#FFFFFF" d="M577.741,237.625h2.832l0.414,4.779h0.117c3.187-3.127,6.432-5.605,10.739-5.605
		c6.55,0,9.56,4.071,9.56,12.155v20.121h-3.423v-19.648c0-6.55-2.065-9.56-6.903-9.56c-3.658,0-6.255,1.889-9.914,5.665v23.543
		h-3.422V237.625z"/>
	<path fill="#FFFFFF" d="M610.544,261.167c0-6.962,6.196-10.267,20.063-11.859c0.118-4.662-1.239-9.5-7.199-9.5
		c-4.13,0-7.729,1.947-9.912,3.599l-1.535-2.478c2.42-1.652,6.786-4.131,11.92-4.131c7.494,0,10.148,5.37,10.148,12.332v19.944
		h-2.891l-0.354-4.013h-0.119c-3.186,2.597-6.963,4.779-10.975,4.779C614.616,269.841,610.544,267.009,610.544,261.167z
		 M630.606,262.053v-10.208c-12.391,1.416-16.64,4.308-16.64,9.146c0,4.308,2.95,5.96,6.432,5.96S626.89,265.298,630.606,262.053z"
		/>
	<path fill="#FFFFFF" d="M659.575,217.15h47.205v59.006h-47.205V217.15z M662.526,270.786l18.764-24.133l-18.764-24.134V270.786z
		 M701.942,220.1h-37.527l18.764,24.133L701.942,220.1z M701.942,273.206l-18.764-24.134l-18.764,24.134H701.942z M703.83,270.786
		v-48.267l-18.764,24.134L703.83,270.786z"/>
	<path fill="#FFFFFF" d="M718.575,217.15h47.205v59.006h-47.205V217.15z M721.526,270.786l18.764-24.133l-18.764-24.134V270.786z
		 M760.942,220.1h-37.527l18.764,24.133L760.942,220.1z M760.942,273.206l-18.764-24.134l-18.764,24.134H760.942z M762.83,270.786
		v-48.267l-18.764,24.134L762.83,270.786z"/>
	<path fill="#FFFFFF" d="M775.393,261.167c0-6.962,6.196-10.267,20.062-11.859c0.119-4.662-1.238-9.5-7.198-9.5
		c-4.13,0-7.729,1.947-9.913,3.599l-1.534-2.478c2.419-1.652,6.786-4.131,11.919-4.131c7.494,0,10.149,5.37,10.149,12.332v19.944
		h-2.892l-0.354-4.013h-0.118c-3.187,2.597-6.963,4.779-10.976,4.779C779.464,269.841,775.393,267.009,775.393,261.167z
		 M795.454,262.053v-10.208c-12.391,1.416-16.639,4.308-16.639,9.146c0,4.308,2.949,5.96,6.432,5.96
		C788.728,266.951,791.737,265.298,795.454,262.053z"/>
	<path fill="#FFFFFF" d="M809.377,257.746v-20.121h3.423v19.708c0,6.432,2.006,9.441,6.844,9.441c3.658,0,6.255-1.889,9.795-6.137
		v-23.013h3.422v31.45h-2.891l-0.295-5.192h-0.178c-3.068,3.54-6.254,5.959-10.621,5.959
		C812.327,269.841,809.377,265.83,809.377,257.746z"/>
	<path fill="#FFFFFF" d="M842.062,253.379c0-10.149,6.491-16.581,13.926-16.581c3.776,0,6.314,1.416,9.383,3.836l-0.236-5.665
		v-12.804h3.422v46.909h-2.832l-0.354-3.953h-0.178c-2.537,2.537-6.019,4.72-10.09,4.72
		C847.196,269.841,842.062,263.941,842.062,253.379z M865.134,261.876v-18.174c-3.128-2.833-5.842-3.895-8.793-3.895
		c-6.018,0-10.62,5.842-10.62,13.571c0,8.143,3.599,13.453,9.972,13.453C859.056,266.833,862.006,265.122,865.134,261.876z"/>
	<path fill="#FFFFFF" d="M876.341,267.246l18.115-26.729h-16.168v-2.892h20.593v1.829l-18.114,26.671h18.705v2.95h-23.131V267.246z"
		/>
	<path fill="#FFFFFF" d="M903.835,253.379c0-10.208,6.727-16.581,13.807-16.581c7.612,0,12.155,5.429,12.155,14.634
		c0,0.885-0.059,1.711-0.177,2.479h-22.305c0.178,7.67,4.721,13.04,11.507,13.04c3.363,0,6.019-1.063,8.379-2.715l1.298,2.538
		c-2.537,1.593-5.487,3.067-10.031,3.067C910.384,269.841,903.835,263.706,903.835,253.379z M926.67,251.196
		c0-7.611-3.481-11.447-8.969-11.447c-5.134,0-9.736,4.249-10.386,11.447H926.67z M909.44,226.885h16.403v2.655H909.44V226.885z"/>
	<path fill="#FFFFFF" d="M930.029,283.059l0.767-2.714c0.826,0.295,2.007,0.648,3.246,0.648c3.481,0,4.13-2.773,4.13-6.727v-36.643
		h3.481v36.761c0,6.255-2.301,9.5-7.435,9.5C932.626,283.885,931.032,283.531,930.029,283.059z M937.11,227.358
		c0-1.652,1.121-2.715,2.714-2.715s2.714,1.063,2.714,2.715c0,1.77-1.121,2.891-2.714,2.891S937.11,229.127,937.11,227.358z"/>
	<path fill="#FFFFFF" d="M953.394,217.15h47.205v59.006h-47.205V217.15z M956.344,270.786l18.764-24.133l-18.764-24.134V270.786z
		 M995.76,220.1h-37.527l18.764,24.133L995.76,220.1z M995.76,273.206l-18.764-24.134l-18.764,24.134H995.76z M997.648,270.786
		v-48.267l-18.765,24.134L997.648,270.786z"/>
	<path fill="#FFFFFF" d="M1011.922,257.746v-20.121h3.422v19.708c0,6.432,2.007,9.441,6.845,9.441c3.658,0,6.255-1.889,9.795-6.137
		v-23.013h3.423v31.45h-2.892l-0.295-5.192h-0.177c-3.068,3.54-6.255,5.959-10.621,5.959
		C1014.872,269.841,1011.922,265.83,1011.922,257.746z M1015.58,226.885h16.403v2.655h-16.403V226.885z"/>
	<path fill="#FFFFFF" d="M1043.958,251.314h14.516v2.892h-14.516V251.314z"/>
	<path fill="#FFFFFF" d="M1.016,344.535l1.829-2.479c2.714,2.242,5.605,3.953,9.913,3.953c4.78,0,7.199-2.715,7.199-5.959
		c0-3.719-3.953-5.43-7.611-6.727c-4.662-1.652-9.618-3.6-9.618-9.029c0-4.602,3.658-8.496,10.326-8.496
		c3.481,0,6.845,1.475,9.146,3.363l-1.829,2.359c-2.124-1.592-4.307-2.832-7.375-2.832c-4.721,0-6.845,2.596-6.845,5.43
		c0,3.48,3.422,4.779,7.081,6.137c4.838,1.828,10.149,3.539,10.149,9.617c0,4.838-3.835,8.969-10.798,8.969
		C7.978,348.842,3.907,346.895,1.016,344.535z"/>
	<path fill="#FFFFFF" d="M31.519,301.166h3.422v33.986h0.118l15.046-18.527H54l-10.267,12.51l11.919,18.939h-3.776l-10.149-16.521
		l-6.786,8.025v8.496h-3.422V301.166z"/>
	<path fill="#FFFFFF" d="M61.02,336.746v-20.121h3.422v19.707c0,6.432,2.006,9.441,6.844,9.441c3.659,0,6.255-1.889,9.795-6.137
		v-23.012h3.422v31.449h-2.891l-0.295-5.191H81.14c-3.068,3.539-6.254,5.959-10.621,5.959C63.97,348.842,61.02,344.83,61.02,336.746
		z"/>
	<path fill="#FFFFFF" d="M94.767,345.656c0-2.008,1.417-3.246,3.009-3.246c1.593,0,3.009,1.238,3.009,3.246
		c0,1.947-1.416,3.186-3.009,3.186C96.183,348.842,94.767,347.604,94.767,345.656z"/>
	<path fill="#FFFFFF" d="M221.707,326.42c0-13.631,7.435-22.127,17.819-22.127c10.503,0,17.879,8.496,17.879,22.127
		c0,13.689-7.375,22.422-17.879,22.422C229.141,348.842,221.707,340.109,221.707,326.42z M253.747,326.42
		c0-11.684-5.665-18.941-14.221-18.941c-8.497,0-14.102,7.258-14.102,18.941s5.605,19.236,14.102,19.236
		C248.082,345.656,253.747,338.104,253.747,326.42z M231.796,323.705h15.578v3.068h-15.578V323.705z"/>
	<path fill="#FFFFFF" d="M264.304,333.088c0-10.977,6.491-17.289,13.749-17.289c4.071,0,8.497,2.479,10.149,9.205h0.118l1.534-8.379
		h3.422c-1.771,8.732-3.895,19.59-3.895,25.844c0,2.125,1.416,3.422,3.127,3.422c0.767,0,1.593-0.234,2.242-0.471l0.59,2.713
		c-0.767,0.355-1.829,0.709-3.363,0.709c-3.422,0-5.9-2.301-5.311-6.904h-0.236c-2.479,4.545-6.019,6.904-10.267,6.904
		C269.202,348.842,264.304,343.473,264.304,333.088z M286.667,334.74l0.472-6.197c-1.947-8.318-5.842-9.734-8.91-9.734
		c-5.311,0-10.326,5.074-10.326,14.279c0,7.848,3.245,12.744,8.851,12.744C281.475,345.832,286.136,340.758,286.667,334.74z"/>
	<path fill="#FFFFFF" d="M429.891,358.578c2.479-2.951,3.245-4.014,3.245-5.842c0-2.006-1.534-2.951-7.729-4.131
		c-6.786-1.297-12.509-4.248-12.509-12.686c0-6.551,4.721-11.566,10.149-13.041v-0.236c-3.894-1.652-6.962-4.955-6.962-9.795
		c0-4.248,2.124-7.316,5.546-8.969c-3.954,0-5.783,0-9.854,0.236v-2.949h24.133v2.949h-7.375c-4.484,0-8.851,3.127-8.851,8.793
		c0,5.311,5.192,8.969,9.205,8.969c1.593,0,2.36-0.061,4.012-0.355v3.246c-1.534-0.295-2.655-0.295-4.249-0.295
		c-5.9,0-12.155,3.953-12.155,11.152c0,7.08,5.133,9.145,10.975,10.148c6.019,1.121,8.851,2.359,8.851,6.373
		c0,1.828-1.062,4.543-3.599,7.848L429.891,358.578z"/>
	<path fill="#FFFFFF" d="M439.624,339.52c0-4.604,3.246-7.082,6.727-7.967v-0.295c-3.304-1.299-5.074-4.07-5.074-7.199
		c0-5.486,5.133-8.26,11.27-8.26c3.835,0,7.081,1.416,9.913,3.541l-1.534,2.418c-2.655-1.947-5.251-3.01-8.32-3.01
		c-4.308,0-7.848,1.83-7.848,5.666c0,3.303,2.478,5.781,8.497,5.781c1.18,0,2.125,0,3.717-0.117v3.01
		c-1.829-0.119-3.186-0.178-4.661-0.178c-6.019,0-9.146,2.359-9.146,6.373c0,4.131,3.599,6.668,9.5,6.668
		c3.54,0,6.136-0.945,9.323-3.6l1.652,2.479c-3.717,2.891-6.786,4.012-11.388,4.012C444.639,348.842,439.624,345.125,439.624,339.52
		z"/>
	<path fill="#FFFFFF" d="M483.875,348.725c-8.438-0.295-16.404-6.137-16.404-16.463c0-10.268,7.966-16.051,16.404-16.287v-8.438
		h3.304v8.438c8.733,0.178,16.404,5.961,16.404,16.287c0,10.385-7.966,16.168-16.404,16.463v11.092h-3.304V348.725z
		 M483.875,345.951v-27.203c-6.904,0.178-12.804,5.311-12.804,13.514C471.071,340.521,476.972,345.715,483.875,345.951z
		 M487.18,318.748v27.203c6.904-0.236,12.863-5.371,12.863-13.689C500.043,324,494.556,318.926,487.18,318.748z"/>
	<path fill="#FFFFFF" d="M512.784,296.15h47.205v59.006h-47.205V296.15z M515.734,349.785l18.764-24.133l-18.764-24.133V349.785z
		 M555.149,299.1h-37.527l18.764,24.133L555.149,299.1z M555.149,352.205l-18.763-24.133l-18.764,24.133H555.149z M557.038,349.785
		V301.52l-18.764,24.133L557.038,349.785z"/>
	<path fill="#FFFFFF" d="M579.278,352.383c0-11.625-6.668-27.674-12.805-35.521l3.422-1.063c4.426,6.018,9.618,17.76,11.271,28.027
		h0.295c4.484-8.615,8.851-17.879,9.677-27.201h3.481c-1.593,10.563-5.016,18.764-12.628,31.391
		c0.414,3.658,0.591,8.084,0.591,11.801h-3.481C579.278,356.807,579.278,355.451,579.278,352.383z"/>
	<path fill="#FFFFFF" d="M599.396,333.795c0-7.375,2.715-12.922,6.255-17.996l3.009,1.652c-3.775,5.191-5.9,9.676-5.9,16.934
		c0,7.494,3.187,11.506,7.081,11.506c3.245,0,6.432-2.064,6.432-8.791c0-2.479-0.06-5.252-0.354-8.496h3.953
		c-0.295,3.244-0.354,6.018-0.354,8.496c0,6.785,3.245,8.791,6.432,8.791c4.012,0,7.021-3.775,7.021-12.096
		c0-7.08-1.77-11.033-5.547-16.463l3.068-1.533c3.658,5.252,5.96,10.148,5.96,17.879c0,10.385-4.189,15.164-10.09,15.164
		c-3.54,0-6.786-1.77-8.319-5.605h-0.236c-1.476,3.836-4.662,5.605-8.143,5.605C604.058,348.842,599.396,344.004,599.396,333.795z"
		/>
	<path fill="#FFFFFF" d="M759.079,316.625h3.423v19.707c0,5.961,1.947,9.441,6.668,9.441c3.187,0,6.195-0.885,9.735-7.021v-22.127
		h3.423c-0.06,9.027-0.236,18.174-0.236,26.848c0,1.652,0.886,2.418,2.065,2.418c0.59,0,1.063-0.117,1.889-0.412l0.531,2.715
		c-0.768,0.354-1.712,0.648-3.01,0.648c-3.187,0-4.367-1.947-4.484-6.49h-0.118c-2.597,4.426-5.96,6.432-9.677,6.432
		c-3.068,0-5.429-0.65-7.141-3.719c0.06,6.904,0.06,9.561,0.414,14.752h-3.482V316.625z"/>
	<path fill="#FFFFFF" d="M792.237,339.52c0-4.604,3.245-7.082,6.727-7.967v-0.295c-3.305-1.299-5.074-4.07-5.074-7.199
		c0-5.486,5.133-8.26,11.27-8.26c3.836,0,7.08,1.416,9.913,3.541l-1.534,2.418c-2.655-1.947-5.252-3.01-8.32-3.01
		c-4.307,0-7.848,1.83-7.848,5.666c0,3.303,2.479,5.781,8.497,5.781c1.181,0,2.124,0,3.718-0.117v3.01
		c-1.83-0.119-3.187-0.178-4.662-0.178c-6.018,0-9.146,2.359-9.146,6.373c0,4.131,3.599,6.668,9.5,6.668
		c3.54,0,6.136-0.945,9.323-3.6l1.652,2.479c-3.718,2.891-6.786,4.012-11.389,4.012C797.253,348.842,792.237,345.125,792.237,339.52
		z"/>
	<path fill="#FFFFFF" d="M936.228,315.209c0-8.557,3.894-14.811,12.096-14.811c5.724,0,10.975,3.658,10.975,11.033
		c0,4.84-2.537,8.732-6.785,11.33v0.295c6.903,0.826,10.857,5.664,10.857,12.568c0,8.143-5.783,13.217-12.273,13.217
		c-4.131,0-8.379-1.357-11.624-5.074c0.118,5.486,0.177,10.502,0.177,16.049h-3.422V315.209z M959.771,335.506
		c0-5.842-3.305-10.148-10.208-10.148c-1.121,0-2.36,0.117-3.6,0.414l-0.59-2.834c7.493-1.652,10.444-6.844,10.444-11.328
		c0-5.547-3.423-8.32-7.376-8.32c-5.37,0-8.851,4.309-8.851,12.746c-0.06,8.143-0.06,16.227-0.06,24.428
		c3.363,4.248,7.376,5.369,11.034,5.369C955.699,345.832,959.771,341.879,959.771,335.506z"/>
	<path fill="#FFFFFF" d="M972.334,296.15h47.205v59.006h-47.205V296.15z M975.284,349.785l18.764-24.133l-18.764-24.133V349.785z
		 M1014.7,299.1h-37.527l18.764,24.133L1014.7,299.1z M1014.7,352.205l-18.764-24.133l-18.764,24.133H1014.7z M1016.589,349.785
		V301.52l-18.765,24.133L1016.589,349.785z"/>
	<path fill="#FFFFFF" d="M1028.738,333.088c0-10.977,6.49-17.289,13.748-17.289c4.071,0,8.497,2.479,10.148,9.205h0.118l1.534-8.379
		h3.423c-1.771,8.732-3.895,19.59-3.895,25.844c0,2.125,1.416,3.422,3.127,3.422c0.768,0,1.594-0.234,2.242-0.471l0.591,2.713
		c-0.768,0.355-1.83,0.709-3.364,0.709c-3.422,0-5.9-2.301-5.31-6.904h-0.236c-2.479,4.545-6.019,6.904-10.268,6.904
		C1033.636,348.842,1028.738,343.473,1028.738,333.088z M1051.102,334.74l0.472-6.197c-1.947-8.318-5.842-9.734-8.91-9.734
		c-5.311,0-10.326,5.074-10.326,14.279c0,7.848,3.246,12.744,8.852,12.744C1045.908,345.832,1050.57,340.758,1051.102,334.74z"/>
	<path fill="#FFFFFF" d="M2.667,419.168c0-6.963,6.196-10.268,20.062-11.859c0.118-4.662-1.239-9.5-7.199-9.5
		c-4.13,0-7.729,1.947-9.913,3.598l-1.534-2.477c2.419-1.652,6.786-4.131,11.919-4.131c7.494,0,10.149,5.369,10.149,12.332v19.943
		h-2.891l-0.354-4.012h-0.118c-3.187,2.596-6.963,4.779-10.975,4.779C6.739,427.842,2.667,425.01,2.667,419.168z M22.729,420.053
		v-10.207c-12.391,1.416-16.64,4.307-16.64,9.145c0,4.309,2.95,5.961,6.432,5.961S19.012,423.299,22.729,420.053z"/>
	<path fill="#FFFFFF" d="M35,408.311c0-22.48,7.553-25.313,19.708-27.201c3.363-0.531,4.13-0.826,6.019-1.77l0.767,3.303
		c-1.711,1.063-3.541,1.477-6.078,1.889c-10.562,1.711-15.873,2.832-16.875,17.996c3.127-3.893,7.316-6.018,11.506-6.018
		c7.848,0,12.863,5.9,12.863,14.869c0,10.148-6.195,16.463-13.394,16.463C40.369,427.842,35,420.879,35,408.311z M49.515,424.891
		c5.487,0,9.795-5.545,9.795-13.512c0-6.904-3.422-11.979-9.913-11.979c-3.481,0-7.258,1.594-10.975,6.492
		c-0.059,0.885-0.059,1.828-0.059,2.832C38.363,418.695,42.021,424.891,49.515,424.891z"/>
	<path fill="#FFFFFF" d="M72.169,395.625h11.506c6.786,0,11.093,2.359,11.093,7.789c0,3.895-2.243,5.9-5.252,6.844v0.236
		c3.364,0.768,6.609,2.951,6.609,7.611c0,6.137-4.779,8.969-12.096,8.969h-11.86V395.625z M82.554,409.195
		c6.313,0,8.674-2.064,8.674-5.486c0-3.424-2.419-5.43-8.084-5.43h-7.553v10.916H82.554z M83.439,424.361
		c6.077,0,9.205-2.242,9.205-6.432c0-3.777-3.363-6.02-9.677-6.02h-7.376v12.451H83.439z"/>
	<path fill="#FFFFFF" d="M104.736,395.625h18.646v2.891h-15.224v28.559h-3.422V395.625z"/>
	<path fill="#FFFFFF" d="M130.932,375.15h47.205v59.006h-47.205V375.15z M133.882,428.785l18.764-24.133l-18.764-24.133V428.785z
		 M173.298,378.1h-37.527l18.764,24.133L173.298,378.1z M173.298,431.205l-18.764-24.133l-18.764,24.133H173.298z M175.186,428.785
		V380.52l-18.764,24.133L175.186,428.785z"/>
	<path fill="#FFFFFF" d="M188.929,438.285h-3.009l-0.354-12.096v-2.064h1.298c1.889-0.945,3.422-3.188,4.78-13.926l1.77-14.574
		h17.761v28.5h4.308v2.064l-0.354,12.096h-2.951v-11.211h-23.248V438.285z M190.935,424.125h16.757v-25.609h-11.565l-1.416,12.215
		C193.885,418.4,192.469,422.119,190.935,424.125z"/>
	<path fill="#FFFFFF" d="M223.148,375.15h47.205v59.006h-47.205V375.15z M226.099,428.785l18.764-24.133l-18.764-24.133V428.785z
		 M265.514,378.1h-37.527l18.764,24.133L265.514,378.1z M265.514,431.205l-18.764-24.133l-18.764,24.133H265.514z M267.402,428.785
		V380.52l-18.764,24.133L267.402,428.785z"/>
	<path fill="#FFFFFF" d="M282.148,375.15h47.205v59.006h-47.205V375.15z M285.099,428.785l18.764-24.133l-18.764-24.133V428.785z
		 M324.514,378.1h-37.527l18.764,24.133L324.514,378.1z M324.514,431.205l-18.764-24.133l-18.764,24.133H324.514z M326.402,428.785
		V380.52l-18.764,24.133L326.402,428.785z"/>
	<path fill="#FFFFFF" d="M338.552,411.379c0-10.207,6.727-16.58,13.808-16.58c7.612,0,12.155,5.428,12.155,14.633
		c0,0.885-0.059,1.711-0.177,2.479h-22.304c0.177,7.67,4.721,13.041,11.506,13.041c3.363,0,6.019-1.063,8.378-2.715l1.298,2.537
		c-2.537,1.594-5.488,3.068-10.031,3.068C345.102,427.842,338.552,421.705,338.552,411.379z M361.387,409.195
		c0-7.611-3.481-11.447-8.969-11.447c-5.134,0-9.736,4.25-10.385,11.447H361.387z"/>
	<path fill="#FFFFFF" d="M370.293,411.379c0-10.207,6.727-16.58,13.808-16.58c7.612,0,12.155,5.428,12.155,14.633
		c0,0.885-0.059,1.711-0.177,2.479h-22.304c0.177,7.67,4.721,13.041,11.506,13.041c3.363,0,6.019-1.063,8.378-2.715l1.298,2.537
		c-2.537,1.594-5.488,3.068-10.031,3.068C376.843,427.842,370.293,421.705,370.293,411.379z M393.129,409.195
		c0-7.611-3.481-11.447-8.969-11.447c-5.134,0-9.736,4.25-10.385,11.447H393.129z M375.545,385.594c0-1.475,1.18-2.656,2.596-2.656
		c1.476,0,2.655,1.182,2.655,2.656c0,1.416-1.18,2.537-2.655,2.537C376.725,388.131,375.545,387.01,375.545,385.594z
		 M387.405,385.594c0-1.475,1.121-2.656,2.596-2.656s2.596,1.182,2.596,2.656c0,1.416-1.121,2.537-2.596,2.537
		S387.405,387.01,387.405,385.594z"/>
	<path fill="#FFFFFF" d="M404.631,375.15h47.205v59.006h-47.205V375.15z M407.582,428.785l18.764-24.133l-18.764-24.133V428.785z
		 M446.998,378.1H409.47l18.764,24.133L446.998,378.1z M446.998,431.205l-18.764-24.133l-18.764,24.133H446.998z M448.886,428.785
		V380.52l-18.764,24.133L448.886,428.785z"/>
	<path fill="#FFFFFF" d="M468.647,410.494l-2.891-7.375c-1.593-4.131-3.068-4.898-4.78-4.898c-0.413,0-0.531,0.059-0.944,0.178
		l-0.767-3.305c0.413-0.178,1.062-0.295,1.593-0.295c2.891,0,5.251,1.357,7.494,6.785l2.891,7.611h5.959v-13.57h3.127v13.57h5.959
		l2.951-7.611c2.124-5.428,4.602-6.785,7.435-6.785c0.59,0,1.239,0.117,1.593,0.295l-0.708,3.305
		c-0.413-0.119-0.531-0.178-1.003-0.178c-1.652,0-3.186,0.768-4.779,4.898l-2.892,7.375l9.913,16.58h-3.835l-8.438-14.986h-6.196
		v14.986h-3.127v-14.986h-6.136l-8.556,14.986h-3.717L468.647,410.494z"/>
	<path fill="#FFFFFF" d="M505.757,395.625h3.422v13.395h17.525v-13.395h3.422v31.449h-3.422v-14.928h-17.525v14.928h-3.422V395.625z
		"/>
	<path fill="#FFFFFF" d="M541.923,375.15h47.205v59.006h-47.205V375.15z M544.874,428.785l18.764-24.133l-18.764-24.133V428.785z
		 M584.29,378.1h-37.527l18.764,24.133L584.29,378.1z M584.29,431.205l-18.764-24.133l-18.764,24.133H584.29z M586.178,428.785
		V380.52l-18.764,24.133L586.178,428.785z"/>
	<path fill="#FFFFFF" d="M598.327,411.379c0-10.502,6.609-16.58,14.221-16.58s14.221,6.078,14.221,16.58
		c0,10.443-6.609,16.463-14.221,16.463S598.327,421.822,598.327,411.379z M623.228,411.379c0-8.025-4.543-13.57-10.68-13.57
		s-10.621,5.545-10.621,13.57s4.484,13.512,10.621,13.512S623.228,419.404,623.228,411.379z"/>
	<path fill="#FFFFFF" d="M635.969,395.625h23.721v31.449h-3.423v-28.559h-16.875v28.559h-3.423V395.625z"/>
	<path fill="#FFFFFF" d="M671.486,395.625h2.833l0.412,3.836h0.118c3.068-2.361,6.668-4.662,10.503-4.662
		c8.379,0,12.627,6.373,12.627,16.049c0,10.74-6.49,16.994-13.865,16.994c-2.951,0-6.078-1.357-9.265-3.836l0.06,5.783v11.328
		h-3.423V395.625z M694.321,410.848c0-7.553-2.596-13.039-9.617-13.039c-3.01,0-6.137,1.77-9.795,5.016v18.174
		c3.363,2.832,6.608,3.834,8.91,3.834C689.955,424.832,694.321,419.285,694.321,410.848z"/>
	<path fill="#FFFFFF" d="M704.585,411.379c0-10.502,6.785-16.58,14.574-16.58c4.189,0,7.021,1.889,9.205,3.836l-1.947,2.359
		c-1.947-1.83-4.248-3.186-7.198-3.186c-6.255,0-11.034,5.545-11.034,13.57s4.366,13.512,10.975,13.512
		c3.246,0,6.078-1.592,8.202-3.48l1.711,2.359c-2.772,2.361-6.136,4.072-10.09,4.072
		C710.78,427.842,704.585,421.822,704.585,411.379z"/>
	<path fill="#FFFFFF" d="M803.95,398.516h-11.094v-2.891h25.668v2.891h-11.094v28.559h-3.48V398.516z"/>
	<path fill="#FFFFFF" d="M826.133,375.15h47.204v59.006h-47.204V375.15z M829.083,428.785l18.764-24.133l-18.764-24.133V428.785z
		 M868.499,378.1h-37.527l18.764,24.133L868.499,378.1z M868.499,431.205l-18.764-24.133l-18.764,24.133H868.499z M870.388,428.785
		V380.52l-18.764,24.133L870.388,428.785z"/>
	<path fill="#FFFFFF" d="M885.133,375.15h47.205v59.006h-47.205V375.15z M888.083,428.785l18.764-24.133l-18.764-24.133V428.785z
		 M927.499,378.1h-37.527l18.764,24.133L927.499,378.1z M927.499,431.205l-18.764-24.133l-18.764,24.133H927.499z M929.388,428.785
		V380.52l-18.764,24.133L929.388,428.785z"/>
	<path fill="#FFFFFF" d="M939.885,440.588l0.767-2.893c0.649,0.236,1.652,0.473,2.537,0.473c3.776,0,6.314-3.422,7.849-7.967
		l0.825-2.654l-12.863-31.922h3.718l7.316,19.236c1.004,2.713,2.184,6.018,3.305,8.85h0.295c0.944-2.832,1.947-6.137,2.832-8.85
		l6.432-19.236h3.481l-12.273,35.107c-1.829,5.43-5.074,10.504-10.856,10.504C942.009,441.236,940.77,441,939.885,440.588z"/>
	<path fill="#FFFFFF" d="M973.042,375.15h47.205v59.006h-47.205V375.15z M975.992,428.785l18.764-24.133l-18.764-24.133V428.785z
		 M1015.408,378.1h-37.527l18.764,24.133L1015.408,378.1z M1015.408,431.205l-18.764-24.133l-18.764,24.133H1015.408z
		 M1017.297,428.785V380.52l-18.765,24.133L1017.297,428.785z"/>
	<path fill="#FFFFFF" d="M1031.57,415.746v-20.121h3.422v19.707c0,6.432,2.007,9.441,6.845,9.441c3.658,0,6.255-1.889,9.795-6.137
		v-23.012h3.423v31.449h-2.892l-0.295-5.191h-0.177c-3.068,3.539-6.255,5.959-10.621,5.959
		C1034.521,427.842,1031.57,423.83,1031.57,415.746z"/>
	<path fill="#FFFFFF" d="M20.546,509.025l0.059-4.779c-1.771,1.475-3.895,2.596-6.491,2.596c-7.199,0-11.86-5.9-11.86-16.463
		c0-10.148,5.311-16.58,11.86-16.58c2.419,0,4.484,1.121,6.491,2.537l-0.059-4.662v-12.508h3.422v12.508l-0.118,4.779
		c2.124-1.592,4.662-2.654,7.021-2.654c7.553,0,11.329,6.373,11.329,16.049c0,10.74-5.369,16.994-11.801,16.994
		c-2.006,0-4.308-0.943-6.55-2.537l0.118,4.721v11.092h-3.422V509.025z M20.605,501.178v-21.832
		c-2.006-1.889-4.072-2.537-6.196-2.537c-4.897,0-8.497,5.842-8.497,13.57c0,8.143,3.127,13.453,8.732,13.453
		C16.77,503.832,18.54,503.184,20.605,501.178z M38.661,489.848c0-7.553-2.419-13.039-8.438-13.039c-1.947,0-4.071,0.59-6.373,2.596
		v21.891c2.301,2.006,4.662,2.537,6.255,2.537C35.18,503.832,38.661,498.285,38.661,489.848z"/>
	<path fill="#FFFFFF" d="M56.181,489.611l-9.736-14.986h3.776l4.838,7.729c1.063,1.771,2.184,3.482,3.364,5.193h0.236
		c1.062-1.711,2.065-3.422,3.127-5.193l4.661-7.729h3.6l-9.736,15.342l10.621,16.107h-3.835l-5.37-8.318
		c-1.062-1.947-2.301-3.895-3.6-5.725h-0.295c-1.18,1.83-2.301,3.777-3.54,5.725l-5.075,8.318H45.56L56.181,489.611z"/>
</g>
<g>
	<g>
		<path fill="#737F8A" d="M32.9,2.975l-16.45,28.49L0,2.975H32.9z"/>
		<path fill="#737F8A" d="M45.22,30.065l-1.505-0.805c0.606-0.747,1.16-1.61,1.663-2.59c0.501-0.98,0.939-1.983,1.313-3.01
			c0.373-1.026,0.688-1.983,0.945-2.87l1.47,0.525c-0.28,0.91-0.607,1.902-0.98,2.975c-0.374,1.074-0.799,2.112-1.277,3.115
			C46.369,28.408,45.826,29.295,45.22,30.065z M71.12,1.575v15.26H47.005V1.575H71.12z M48.65,3.15v5.285h9.695V3.15H48.65z
			 M48.65,9.94v5.355h9.695V9.94H48.65z M56.104,29.365h7.7c0.63,0,1.097-0.111,1.4-0.333c0.303-0.221,0.519-0.676,0.647-1.365
			c0.128-0.688,0.216-1.733,0.263-3.133c0.233,0.164,0.501,0.304,0.805,0.42c0.303,0.117,0.571,0.199,0.805,0.245
			c-0.093,1.54-0.251,2.725-0.472,3.553c-0.222,0.828-0.59,1.4-1.103,1.715c-0.514,0.315-1.272,0.473-2.275,0.473h-7.77
			c-1.633,0-2.742-0.181-3.325-0.542c-0.583-0.362-0.875-1.091-0.875-2.188v-7.665h1.68v7.665c0,0.467,0.151,0.776,0.455,0.927
			S55.031,29.365,56.104,29.365z M63.735,23.1l-1.155,1.19c-0.537-0.513-1.225-1.085-2.065-1.715s-1.738-1.254-2.695-1.873
			c-0.957-0.618-1.89-1.16-2.8-1.627l1.12-1.05c0.91,0.467,1.843,0.992,2.8,1.575c0.956,0.583,1.86,1.179,2.712,1.785
			C62.504,21.992,63.198,22.563,63.735,23.1z M69.475,8.435V3.15h-9.52v5.285H69.475z M69.475,15.295V9.94h-9.52v5.355H69.475z
			 M67.9,20.93l1.505-0.63c0.7,0.887,1.394,1.855,2.083,2.905c0.688,1.05,1.307,2.077,1.855,3.08
			c0.548,1.003,0.962,1.902,1.243,2.695l-1.61,0.735c-0.28-0.793-0.683-1.703-1.208-2.73c-0.525-1.026-1.126-2.07-1.802-3.133
			C69.288,22.791,68.6,21.817,67.9,20.93z"/>
		<path fill="#737F8A" d="M85.26,13.405l-0.945,1.365c-0.42-0.396-0.963-0.828-1.628-1.295c-0.665-0.466-1.377-0.921-2.135-1.365
			c-0.758-0.443-1.511-0.828-2.257-1.155l0.98-1.19c0.723,0.304,1.464,0.671,2.222,1.103c0.758,0.432,1.47,0.864,2.135,1.295
			C84.297,12.594,84.84,13.008,85.26,13.405z M84.77,18.9l1.33,0.945c-0.513,1.213-1.08,2.497-1.697,3.85
			c-0.619,1.354-1.249,2.677-1.89,3.973c-0.642,1.295-1.254,2.467-1.837,3.517l-1.47-1.015c0.537-0.91,1.132-1.995,1.785-3.255
			c0.653-1.26,1.313-2.59,1.978-3.99S84.233,20.183,84.77,18.9z M86.905,4.375L85.89,5.74c-0.397-0.443-0.916-0.916-1.558-1.417
			c-0.642-0.501-1.336-0.992-2.083-1.47c-0.747-0.478-1.482-0.892-2.205-1.242l1.015-1.19c0.7,0.35,1.423,0.752,2.17,1.208
			s1.447,0.922,2.1,1.4C85.983,3.506,86.508,3.955,86.905,4.375z M108.255,19.285h-7.035v10.43c0,0.49-0.07,0.869-0.21,1.137
			s-0.409,0.461-0.805,0.578c-0.374,0.14-0.934,0.222-1.68,0.245c-0.747,0.023-1.727,0.023-2.94,0
			c-0.047-0.187-0.123-0.42-0.228-0.7c-0.105-0.28-0.205-0.537-0.298-0.77c0.957,0.023,1.791,0.035,2.502,0.035s1.184,0,1.417,0
			c0.42-0.023,0.63-0.198,0.63-0.525v-10.43h-6.72V7.56h5.845c0.187-0.653,0.373-1.376,0.56-2.17c0.187-0.793,0.326-1.516,0.42-2.17
			H90.37v7.945c0,1.494-0.052,3.115-0.157,4.865s-0.315,3.529-0.63,5.337c-0.315,1.809-0.782,3.57-1.4,5.285
			c-0.619,1.715-1.441,3.308-2.467,4.777c-0.14-0.117-0.356-0.269-0.647-0.455c-0.292-0.187-0.531-0.315-0.718-0.385
			c1.003-1.447,1.796-2.993,2.38-4.638c0.583-1.645,1.021-3.331,1.313-5.057c0.292-1.727,0.478-3.418,0.56-5.075
			c0.082-1.657,0.123-3.208,0.123-4.655v-9.52h21.07V3.22h-8.785l0.56,0.14c-0.21,0.677-0.42,1.389-0.63,2.135
			c-0.21,0.747-0.409,1.435-0.595,2.065h7.91V19.285z M94.5,21.56l1.575,0.42c-0.583,1.377-1.295,2.747-2.135,4.112
			c-0.84,1.365-1.704,2.526-2.59,3.482c-0.164-0.117-0.391-0.28-0.683-0.49c-0.292-0.21-0.542-0.362-0.752-0.455
			c0.933-0.933,1.797-2.024,2.59-3.272C93.298,24.109,93.963,22.843,94.5,21.56z M94.465,8.995v3.675h12.18V8.995H94.465z
			 M94.465,14.105v3.745h12.18v-3.745H94.465z M104.37,21.98l1.435-0.63c0.606,0.7,1.208,1.476,1.803,2.328
			c0.595,0.852,1.137,1.686,1.627,2.502c0.49,0.817,0.863,1.552,1.12,2.205l-1.54,0.735c-0.234-0.653-0.59-1.394-1.068-2.222
			c-0.479-0.828-1.009-1.674-1.592-2.538C105.571,23.497,104.976,22.703,104.37,21.98z"/>
		<path fill="#737F8A" d="M144.69,21.665v1.54h-30.905v-1.54h14.56v-3.99h-11.62v-1.47h11.62V12.6H117.39V1.435h23.45V12.6h-10.85
			v3.605h11.655v1.47H129.99v3.99H144.69z M115.5,31.85l-1.47-0.77c0.816-0.677,1.575-1.557,2.275-2.642
			c0.7-1.085,1.271-2.164,1.715-3.238l1.54,0.42c-0.443,1.074-1.015,2.188-1.715,3.343C117.145,30.117,116.363,31.08,115.5,31.85z
			 M119,11.095h9.345v-8.19H119V11.095z M121.66,4.48l1.225-0.455c0.56,0.863,1.085,1.797,1.575,2.8
			c0.49,1.003,0.816,1.867,0.98,2.59l-1.33,0.56c-0.164-0.746-0.479-1.633-0.945-2.66S122.196,5.343,121.66,4.48z M123.935,25.865
			l1.575-0.07c0.233,0.863,0.425,1.82,0.578,2.87c0.151,1.05,0.228,1.913,0.228,2.59L124.67,31.5c0-0.7-0.065-1.587-0.193-2.66
			C124.349,27.767,124.167,26.775,123.935,25.865z M139.16,11.095v-8.19h-9.17v8.19H139.16z M131.215,25.9l1.575-0.28
			c0.42,0.864,0.828,1.814,1.225,2.853c0.396,1.038,0.688,1.908,0.875,2.607l-1.645,0.42c-0.164-0.724-0.438-1.616-0.822-2.678
			C132.037,27.761,131.635,26.787,131.215,25.9z M133.245,10.43l-1.12-0.56c0.35-0.513,0.718-1.114,1.103-1.802
			c0.385-0.688,0.758-1.388,1.12-2.1c0.361-0.711,0.659-1.359,0.893-1.942l1.4,0.595c-0.514,0.98-1.073,2.007-1.68,3.08
			C134.353,8.773,133.781,9.683,133.245,10.43z M138.425,25.795l1.505-0.56c0.606,0.56,1.213,1.19,1.82,1.89
			c0.607,0.7,1.173,1.388,1.698,2.065c0.525,0.676,0.95,1.283,1.277,1.82l-1.54,0.7c-0.303-0.537-0.717-1.15-1.242-1.838
			c-0.525-0.688-1.091-1.388-1.698-2.1C139.638,27.061,139.031,26.402,138.425,25.795z"/>
		<path fill="#737F8A" d="M162.33,15.645h-1.435V12.25h-10.29v3.395h-1.4v-4.76h1.995V1.33h9.135v9.555h1.995V15.645z
			 M160.335,15.085V29.82c0,0.863-0.28,1.4-0.84,1.61c-0.327,0.117-0.788,0.187-1.382,0.21c-0.595,0.023-1.383,0.035-2.363,0.035
			c-0.023-0.187-0.093-0.409-0.21-0.665c-0.117-0.257-0.233-0.49-0.35-0.7c0.746,0.023,1.405,0.035,1.977,0.035
			s0.939-0.012,1.103-0.035c0.35,0,0.525-0.163,0.525-0.49v-4.41h-6.125v6.3h-1.505V15.085H160.335z M152.6,2.73v8.155h2.24v-5.39
			h4.025V2.73H152.6z M158.795,16.45h-6.125v3.045h6.125V16.45z M152.67,24.045h6.125v-3.15h-6.125V24.045z M158.865,10.885V6.79
			h-2.73v4.095H158.865z M174.055,29.505h6.09v1.4h-18.13v-1.4h5.81c-0.093-0.583-0.257-1.23-0.49-1.942
			c-0.234-0.712-0.514-1.359-0.84-1.943l1.33-0.42c0.35,0.607,0.653,1.29,0.91,2.047c0.256,0.759,0.431,1.417,0.525,1.978
			l-0.805,0.28h5.04l-0.7-0.28c0.28-0.583,0.577-1.26,0.892-2.03c0.315-0.77,0.554-1.446,0.718-2.03l1.47,0.525
			c-0.303,0.653-0.612,1.318-0.927,1.995C174.632,28.362,174.335,28.968,174.055,29.505z M179.97,15.225v1.4h-17.395v-1.4H179.97z
			 M178.535,3.395v9.765h-14.7V3.395h4.305V0h1.4v3.395h3.08V0h1.4v3.395H178.535z M177.765,24.955h-13.16v-6.3h13.16V24.955z
			 M165.235,4.725V7.56h3.045V4.725H165.235z M165.235,8.925v2.905h3.045V8.925H165.235z M166.11,19.95v3.71h10.115v-3.71H166.11z
			 M169.54,7.56h3.08V4.725h-3.08V7.56z M172.62,8.925h-3.08v2.905h3.08V8.925z M177.065,7.56V4.725h-3.185V7.56H177.065z
			 M177.065,11.83V8.925h-3.185v2.905H177.065z"/>
		<path fill="#737F8A" d="M199.22,18.06c-0.583,0-1.115-0.221-1.592-0.665c-0.479-0.443-0.718-1.003-0.718-1.68
			s0.239-1.23,0.718-1.663c0.478-0.432,1.009-0.647,1.592-0.647c0.606,0,1.143,0.216,1.61,0.647c0.467,0.432,0.7,0.986,0.7,1.663
			s-0.233,1.237-0.7,1.68S199.826,18.06,199.22,18.06z"/>
		<path fill="#737F8A" d="M229.32,2.625v22.33h-8.05v2.73h-1.645V2.625H229.32z M227.745,4.2h-6.475v8.61h6.475V4.2z M221.27,23.38
			h6.475v-9.03h-6.475V23.38z M230.86,1.75h17.815c0,0.42-0.012,0.7-0.035,0.84c-0.14,2.59-0.292,4.672-0.455,6.248
			c-0.164,1.575-0.344,2.771-0.542,3.587c-0.198,0.817-0.449,1.389-0.752,1.715c-0.49,0.49-1.144,0.747-1.96,0.77
			c-0.374,0.023-0.91,0.03-1.61,0.018c-0.7-0.011-1.447-0.041-2.24-0.087c-0.023-0.256-0.07-0.525-0.14-0.805
			c-0.07-0.28-0.187-0.536-0.35-0.77c0.84,0.07,1.615,0.117,2.327,0.14c0.712,0.023,1.196,0.035,1.453,0.035
			c0.537,0,0.921-0.117,1.155-0.35c0.21-0.233,0.396-0.7,0.56-1.4c0.163-0.7,0.32-1.727,0.472-3.08
			c0.151-1.353,0.286-3.115,0.403-5.285h-7.805c-0.28,1.75-0.718,3.418-1.313,5.005c-0.595,1.587-1.441,3.022-2.538,4.305
			c-1.097,1.284-2.555,2.345-4.375,3.185c-0.117-0.187-0.28-0.402-0.49-0.647c-0.21-0.245-0.409-0.438-0.595-0.578
			c1.727-0.747,3.103-1.703,4.13-2.87c1.026-1.167,1.808-2.473,2.345-3.92c0.537-1.446,0.921-2.94,1.155-4.48h-6.615V1.75z
			 M232.05,31.675v-14.07h16.205v13.93h-1.645v-1.68h-12.95v1.82H232.05z M246.61,19.18h-12.95v9.1h12.95V19.18z"/>
		<path fill="#737F8A" d="M260.26,13.405l-0.945,1.365c-0.42-0.396-0.963-0.828-1.628-1.295c-0.665-0.466-1.377-0.921-2.135-1.365
			c-0.758-0.443-1.511-0.828-2.257-1.155l0.98-1.19c0.723,0.304,1.464,0.671,2.222,1.103c0.758,0.432,1.47,0.864,2.135,1.295
			C259.297,12.594,259.84,13.008,260.26,13.405z M259.77,18.9l1.33,0.945c-0.513,1.213-1.08,2.497-1.697,3.85
			c-0.619,1.354-1.249,2.677-1.89,3.973c-0.642,1.295-1.254,2.467-1.837,3.517l-1.47-1.015c0.537-0.91,1.132-1.995,1.785-3.255
			c0.653-1.26,1.313-2.59,1.978-3.99S259.233,20.183,259.77,18.9z M261.905,4.375L260.89,5.74c-0.397-0.443-0.916-0.916-1.558-1.417
			c-0.642-0.501-1.336-0.992-2.083-1.47c-0.747-0.478-1.482-0.892-2.205-1.242l1.015-1.19c0.7,0.35,1.423,0.752,2.17,1.208
			s1.447,0.922,2.1,1.4C260.983,3.506,261.508,3.955,261.905,4.375z M283.255,19.285h-7.035v10.43c0,0.49-0.07,0.869-0.21,1.137
			s-0.409,0.461-0.805,0.578c-0.374,0.14-0.934,0.222-1.68,0.245c-0.747,0.023-1.727,0.023-2.94,0
			c-0.047-0.187-0.123-0.42-0.228-0.7c-0.105-0.28-0.205-0.537-0.298-0.77c0.957,0.023,1.791,0.035,2.502,0.035s1.184,0,1.417,0
			c0.42-0.023,0.63-0.198,0.63-0.525v-10.43h-6.72V7.56h5.845c0.187-0.653,0.373-1.376,0.56-2.17c0.187-0.793,0.326-1.516,0.42-2.17
			h-9.345v7.945c0,1.494-0.052,3.115-0.157,4.865s-0.315,3.529-0.63,5.337c-0.315,1.809-0.782,3.57-1.4,5.285
			c-0.619,1.715-1.441,3.308-2.467,4.777c-0.14-0.117-0.356-0.269-0.647-0.455c-0.292-0.187-0.531-0.315-0.718-0.385
			c1.003-1.447,1.796-2.993,2.38-4.638c0.583-1.645,1.021-3.331,1.313-5.057c0.292-1.727,0.478-3.418,0.56-5.075
			c0.082-1.657,0.123-3.208,0.123-4.655v-9.52h21.07V3.22h-8.785l0.56,0.14c-0.21,0.677-0.42,1.389-0.63,2.135
			c-0.21,0.747-0.409,1.435-0.595,2.065h7.91V19.285z M269.5,21.56l1.575,0.42c-0.583,1.377-1.295,2.747-2.135,4.112
			c-0.84,1.365-1.704,2.526-2.59,3.482c-0.164-0.117-0.391-0.28-0.683-0.49c-0.292-0.21-0.542-0.362-0.752-0.455
			c0.933-0.933,1.797-2.024,2.59-3.272C268.298,24.109,268.963,22.843,269.5,21.56z M269.465,8.995v3.675h12.18V8.995H269.465z
			 M269.465,14.105v3.745h12.18v-3.745H269.465z M279.37,21.98l1.435-0.63c0.606,0.7,1.208,1.476,1.803,2.328
			c0.595,0.852,1.137,1.686,1.627,2.502c0.49,0.817,0.863,1.552,1.12,2.205l-1.54,0.735c-0.234-0.653-0.59-1.394-1.068-2.222
			c-0.479-0.828-1.009-1.674-1.592-2.538C280.571,23.497,279.976,22.703,279.37,21.98z"/>
		<path fill="#737F8A" d="M319.69,21.665v1.54h-30.905v-1.54h14.56v-3.99h-11.62v-1.47h11.62V12.6H292.39V1.435h23.45V12.6h-10.85
			v3.605h11.655v1.47H304.99v3.99H319.69z M290.5,31.85l-1.47-0.77c0.816-0.677,1.575-1.557,2.275-2.642
			c0.7-1.085,1.271-2.164,1.715-3.238l1.54,0.42c-0.443,1.074-1.015,2.188-1.715,3.343C292.145,30.117,291.363,31.08,290.5,31.85z
			 M294,11.095h9.345v-8.19H294V11.095z M296.66,4.48l1.225-0.455c0.56,0.863,1.085,1.797,1.575,2.8
			c0.49,1.003,0.816,1.867,0.98,2.59l-1.33,0.56c-0.164-0.746-0.479-1.633-0.945-2.66S297.196,5.343,296.66,4.48z M298.935,25.865
			l1.575-0.07c0.233,0.863,0.425,1.82,0.578,2.87c0.151,1.05,0.228,1.913,0.228,2.59L299.67,31.5c0-0.7-0.065-1.587-0.193-2.66
			C299.349,27.767,299.167,26.775,298.935,25.865z M314.16,11.095v-8.19h-9.17v8.19H314.16z M306.215,25.9l1.575-0.28
			c0.42,0.864,0.828,1.814,1.225,2.853c0.396,1.038,0.688,1.908,0.875,2.607l-1.645,0.42c-0.164-0.724-0.438-1.616-0.822-2.678
			C307.037,27.761,306.635,26.787,306.215,25.9z M308.245,10.43l-1.12-0.56c0.35-0.513,0.718-1.114,1.103-1.802
			c0.385-0.688,0.758-1.388,1.12-2.1c0.361-0.711,0.659-1.359,0.893-1.942l1.4,0.595c-0.514,0.98-1.073,2.007-1.68,3.08
			C309.353,8.773,308.781,9.683,308.245,10.43z M313.425,25.795l1.505-0.56c0.606,0.56,1.213,1.19,1.82,1.89
			c0.607,0.7,1.173,1.388,1.698,2.065c0.525,0.676,0.95,1.283,1.277,1.82l-1.54,0.7c-0.303-0.537-0.717-1.15-1.242-1.838
			c-0.525-0.688-1.091-1.388-1.698-2.1C314.638,27.061,314.031,26.402,313.425,25.795z"/>
		<path fill="#737F8A" d="M337.33,15.645h-1.435V12.25h-10.29v3.395h-1.4v-4.76h1.995V1.33h9.135v9.555h1.995V15.645z
			 M335.335,15.085V29.82c0,0.863-0.28,1.4-0.84,1.61c-0.327,0.117-0.788,0.187-1.382,0.21c-0.595,0.023-1.383,0.035-2.363,0.035
			c-0.023-0.187-0.093-0.409-0.21-0.665c-0.117-0.257-0.233-0.49-0.35-0.7c0.746,0.023,1.405,0.035,1.977,0.035
			s0.939-0.012,1.103-0.035c0.35,0,0.525-0.163,0.525-0.49v-4.41h-6.125v6.3h-1.505V15.085H335.335z M327.6,2.73v8.155h2.24v-5.39
			h4.025V2.73H327.6z M333.795,16.45h-6.125v3.045h6.125V16.45z M327.67,24.045h6.125v-3.15h-6.125V24.045z M333.865,10.885V6.79
			h-2.73v4.095H333.865z M349.055,29.505h6.09v1.4h-18.13v-1.4h5.81c-0.093-0.583-0.257-1.23-0.49-1.942
			c-0.234-0.712-0.514-1.359-0.84-1.943l1.33-0.42c0.35,0.607,0.653,1.29,0.91,2.047c0.256,0.759,0.431,1.417,0.525,1.978
			l-0.805,0.28h5.04l-0.7-0.28c0.28-0.583,0.577-1.26,0.892-2.03c0.315-0.77,0.554-1.446,0.718-2.03l1.47,0.525
			c-0.303,0.653-0.612,1.318-0.927,1.995C349.632,28.362,349.335,28.968,349.055,29.505z M354.97,15.225v1.4h-17.395v-1.4H354.97z
			 M353.535,3.395v9.765h-14.7V3.395h4.305V0h1.4v3.395h3.08V0h1.4v3.395H353.535z M352.765,24.955h-13.16v-6.3h13.16V24.955z
			 M340.235,4.725V7.56h3.045V4.725H340.235z M340.235,8.925v2.905h3.045V8.925H340.235z M341.11,19.95v3.71h10.115v-3.71H341.11z
			 M344.54,7.56h3.08V4.725h-3.08V7.56z M347.62,8.925h-3.08v2.905h3.08V8.925z M352.065,7.56V4.725h-3.185V7.56H352.065z
			 M352.065,11.83V8.925h-3.185v2.905H352.065z"/>
	</g>
</g>
<g>
</g>
<g>
</g>
<g>
</g>
<g>
</g>
<g>
</g>
<g>
</g>
</svg>
