<?xml version="1.0" encoding="utf-8"?>
<!-- Generator: Adobe Illustrator 16.0.0, SVG Export Plug-In . SVG Version: 6.00 Build 0)  -->
<!DOCTYPE svg PUBLIC "-//W3C//DTD SVG 1.1//EN" "http://www.w3.org/Graphics/SVG/1.1/DTD/svg11.dtd">
<svg version="1.1" id="Layer_1" xmlns="http://www.w3.org/2000/svg" xmlns:xlink="http://www.w3.org/1999/xlink" x="0px" y="0px"
	 width="1048px" height="220.75px" viewBox="0 0 1048 220.75" enable-background="new 0 0 1048 220.75" xml:space="preserve">
<g>
	<g>
		<path fill="#FFFFFF" d="M86.25,166c-12.25,13.5-25,26-37.75,36l124.75-6.25c-9.25-8.25-19.5-17-28.75-23.75l9.25-5.5
			c19.25,14,42.25,34.25,53.5,48L197,220.75c-3.25-4.75-8.25-10-13.75-15.5C48,212.5,36.5,213,29.25,215.75c-0.75-2.75-2.5-9-4-12.5
			c4-0.5,8.5-3.5,13.5-7.5C43.5,192.25,57.5,180,69.5,166H0v-10.5h220.25V166H86.25z M18.25,79.25H7V27.5h97.5V10.25H20V0h180.75
			v10.25h-84.5V27.5h97.5v51.75h-11.5V37h-86v72.25H104.5V37H18.25V79.25z M24.5,102.25C40.75,97,64,88,86.75,79.5l2.25,9
			c-20.5,8.75-41.5,17.5-58.75,24.25L24.5,102.25z M191,133.25H27.75V123H191V133.25z M37,46.25c16.75,5,38.5,13.25,50,18.75
			l-4.75,8.5c-11.25-5.75-33-14.25-50-20L37,46.25z M190.75,55c-15.5,7.5-38.75,14.25-55,17.75l-5.25-7
			c16.25-4.25,40.25-13.25,53.5-19L190.75,55z M194.75,112c-14.5-7.25-42-18-63.5-24.5L136,80c21.25,5.75,48.5,15.75,63.25,23.5
			L194.75,112z"/>
		<path fill="#FFFFFF" d="M293.75,69.75H282.5V29.5h96.25V13.75h-83.5v-10H475.5v10h-85V29.5h97.25v40.25h-11.5V39H390.5v48.5
			h-11.75V39h-85V69.75z M303,195.75v23.5h-11.5v-122h85.75v40H303V157h70.5v9.75H303V186h72.25v9.75H303z M302,75.75
			c15.5-2.25,37.25-6,59.5-10l0.75,9c-20,4-39.5,8-56,11.75L302,75.75z M303,106.75V128h62.75v-21.25H303z M311,43.5
			c17.5,1.5,40,6.25,52.25,10.5l-3.5,9.25c-12.25-4.5-34.75-9.5-52.5-11.75L311,43.5z M484.75,156.75
			c-7.75,15.75-20.75,28-36.25,37.5c15.25,6.75,32.5,11.25,50.25,14c-2.5,2.25-5.5,6.25-7,9.75c-19.5-3.75-38-9.5-54-17.75
			c-18,9-39,14.75-59.5,18.75c-1.25-3-3.75-7-6-9.5c18.75-3,37.75-7.75,54.5-15.5c-12.5-7.75-23-17-30.25-27.75l8.75-3.25H389.5
			v-9.5h85.75l2.25-0.75L484.75,156.75z M467.75,127.5v-21H393.5v-9.25H479v39.5h-86.25v-9.25H467.75z M463.5,87.5
			c-14-5-39.25-11-59.25-13.75l3.75-8.5c19.5,2.5,45,7.75,59,12.75L463.5,87.5z M406.75,163c7,10,17.75,18.5,30.75,25.75
			c12.5-7,23-15.25,30.75-25.75H406.75z M463.5,51.25c-14.5,5-36,8-51.5,9.75l-4.75-7c15-2,37.25-7.25,50-10.5L463.5,51.25z"/>
		<path fill="#FFFFFF" d="M673.5,86c-1.75,1.75-3.75,3.25-6,5c22.25,14.75,66.5,31.5,107.25,39c-2.75,2.5-6,7.25-7.75,10.25
			c-41-8.5-85-27.5-107.75-43.5c-29.25,19.5-69,35.25-102.5,45.5c-2.25-2.5-6.25-7.25-9.5-9.5c41.75-11,88.25-29.5,115.25-52
			L673.5,86z M666.25,80.75H654.5V41h-86.25v32.5H557V31.25h97.5V14H570V3.75h180.75V14h-84.5v17.25h97.5V73.5h-11.5V41h-86V80.75z
			 M576.5,83c16.5-3.25,39.25-9,62.5-14.25l1,8.5c-21,6-41.25,11.25-58.75,16L576.5,83z M722.5,148l8.25,5.25
			c-13,16.25-36.75,33.75-55,44.75c8.75,4.25,16.25,8.5,21.75,12l-4.75,9.75c-17.25-10.5-49.75-28-75.25-39.75l5-8
			c13,5.75,28,13,42,20c14.75-7.75,33.75-21.25,46.5-33H578.75v-10.25h142L722.5,148z M588.5,45.75c16,2.75,37.5,8,49,12.25
			l-3.75,8.75c-11.5-4.5-32.75-10-49.25-13.5L588.5,45.75z M710,125v9.5h-98V125H710z M742.75,93.5c-14.25-6-40.75-13.25-61.5-17.5
			l3.75-7.75c20.5,3.25,47.25,10.25,61.5,16L742.75,93.5z M738.75,53.75c-14.75,5.5-36.5,10-52.25,12.5l-4.75-7
			c15.25-2.75,38-9.5,51-13.5L738.75,53.75z"/>
		<path fill="#FFFFFF" d="M928.5,42H842v42.25h-11v-52h97.5V13H843V3.25h184.25V13h-87v19.25H1040v52h-11.25V42h-88.5v53.5H928.5V42
			z M913,91.5c-20.5,3.75-41,7.25-58,10l-3.5-10.25c16.25-2,38-5,61-8.5L913,91.5z M1020.25,205.75c13.25,0,15.75-5,17-31.75
			c3,2,7.5,4,10.75,4.5c-1.75,29.75-5.75,37.5-27.5,37.5h-60.75c-24,0-31-3.75-31-21.25v-11.5h-64v15H853v-82h75.75v-14.5h11.75
			v14.5h78.75v67H940.5v11.5c0,8.75,3,11,19.25,11H1020.25z M909.25,74.25c-12.25-5.75-34.75-12.5-52.5-16L861,50.5
			c17.5,3,40,9.5,52,14.75L909.25,74.25z M864.75,126v19.5h64V126H864.75z M928.75,173.5v-18.75h-64v18.75H928.75z M940.5,126v19.5
			h67V126H940.5z M1007.5,173.5v-18.75h-67v18.75H1007.5z M1014.25,104c-14-4.75-39.5-10.75-59.5-13.5l3.75-8.5
			c20,2.25,45.5,7.5,59.75,12.5L1014.25,104z M1014.5,58.25c-15,6.25-37,12-52.5,15.5l-5-7.5c15.25-3.5,38.25-11.25,51-16.25
			L1014.5,58.25z"/>
	</g>
</g>
<g>
</g>
<g>
</g>
<g>
</g>
<g>
</g>
<g>
</g>
<g>
</g>
</svg>
