<?xml version="1.0" encoding="utf-8"?>
<!-- Generator: Adobe Illustrator 16.0.0, SVG Export Plug-In . SVG Version: 6.00 Build 0)  -->
<!DOCTYPE svg PUBLIC "-//W3C//DTD SVG 1.1//EN" "http://www.w3.org/Graphics/SVG/1.1/DTD/svg11.dtd">
<svg version="1.1" id="Layer_1" xmlns="http://www.w3.org/2000/svg" xmlns:xlink="http://www.w3.org/1999/xlink" x="0px" y="0px"
	 width="1048.25px" height="217.5px" viewBox="0 0 1048.25 217.5" enable-background="new 0 0 1048.25 217.5" xml:space="preserve">
<g>
	<g>
		<path fill="#FFFFFF" d="M220.5,162.75h-136c-5.668,6.668-11.586,13.043-17.75,19.125C60.582,187.961,54.5,193.5,48.5,198.5
			l124.25-6c-9.5-9-19.086-16.914-28.75-23.75l9.5-5.5c6.5,4.5,13.164,9.586,20,15.25c6.832,5.668,13.207,11.336,19.125,17
			c5.914,5.664,10.707,10.832,14.375,15.5l-10.25,6.5c-1.668-2.336-3.668-4.836-6-7.5c-2.336-2.668-4.918-5.336-7.75-8
			c-26.836,1.5-49.168,2.707-67,3.625c-17.836,0.914-32.168,1.707-43,2.375c-10.836,0.664-19.125,1.25-24.875,1.75
			s-9.875,0.957-12.375,1.375c-2.5,0.414-4.5,0.875-6,1.375c-0.336-1.336-0.918-3.293-1.75-5.875
			c-0.836-2.586-1.668-4.711-2.5-6.375c2-0.336,4.082-1.168,6.25-2.5c2.164-1.332,4.5-3,7-5c1.5-1.164,3.832-3.25,7-6.25
			c3.164-3,6.75-6.539,10.75-10.625c4-4.082,7.832-8.457,11.5-13.125H0v-10.5h220.5V162.75z M18.25,43v41.75H7v-52h96.5v-22.5H19V0
			h182.5v10.25h-86.25v22.5h98.5v52h-11.5V43h-87v63.75H103.5V43H18.25z M28,100.25V90.5h60.25v9.75H28z M28,130v-10.25h163.25V130
			H28z M33.25,61.75H88v9.5H33.25V61.75z M131,61.75h55.75v9.5H131V61.75z M194.25,90.5v9.75H131V90.5H194.25z"/>
		<path fill="#FFFFFF" d="M293.75,35.75V66.5H282.5V26.25h96.25V10.5h-83.5v-10H475.5v10h-85v15.75h97.25V66.5h-11.5V35.75H390.5
			V84.5h-11.75V35.75H293.75z M375.25,192.5H303V216h-11.5V94h85.75v40H303v19.75h70.5v9.75H303v19.25h72.25V192.5z M365.75,103.5
			H303v21.25h62.75V103.5z M306.5,79.25v-8.5h55v8.5H306.5z M362,48.5v8.75h-52.25V48.5H362z M477.5,149.5l7.25,4
			c-3.836,7.836-8.875,14.836-15.125,21c-6.25,6.168-13.293,11.668-21.125,16.5c7.664,3.336,15.75,6.168,24.25,8.5
			s17.164,4.164,26,5.5c-1.168,1.164-2.418,2.625-3.75,4.375c-1.336,1.75-2.418,3.539-3.25,5.375
			c-9.668-1.836-19.086-4.211-28.25-7.125c-9.168-2.918-17.75-6.461-25.75-10.625c-9,4.5-18.586,8.25-28.75,11.25
			c-10.168,3-20.418,5.5-30.75,7.5c-1.5-3.5-3.5-6.668-6-9.5c9.332-1.5,18.664-3.5,28-6c9.332-2.5,18.164-5.664,26.5-9.5
			c-6.168-3.832-11.836-8.082-17-12.75c-5.168-4.664-9.586-9.664-13.25-15l8.75-3.25H389.5v-9.5h85.75L477.5,149.5z M392.75,124.25
			h75v-21H393.5V94H479v39.5h-86.25V124.25z M468.25,159.75h-61.5c3.5,5,7.875,9.625,13.125,13.875S431,181.836,437.5,185.5
			c6.332-3.5,12.082-7.375,17.25-11.625C459.914,169.625,464.414,164.918,468.25,159.75z M407.5,48.5h52.75v8.75H407.5V48.5z
			 M407.5,79.25v-8.5h55.75v8.5H407.5z"/>
		<path fill="#FFFFFF" d="M653,80h11c9.332,7.836,20.207,15.086,32.625,21.75c12.414,6.668,25.5,12.461,39.25,17.375
			c13.75,4.918,26.957,8.793,39.625,11.625c-1.168,1.336-2.336,3-3.5,5c-1.168,2-2.168,3.668-3,5c-12.5-3.164-25.5-7.332-39-12.5
			c-13.5-5.164-26.418-11.039-38.75-17.625c-12.336-6.582-23-13.539-32-20.875c-7.836,6.668-17.418,13.293-28.75,19.875
			c-11.336,6.586-23.711,12.75-37.125,18.5c-13.418,5.75-27.125,10.793-41.125,15.125c-1.5-3.332-3.5-6.5-6-9.5
			c14.332-4,28.25-8.789,41.75-14.375c13.5-5.582,25.875-11.75,37.125-18.5S645.664,87.168,653,80z M568.5,37.5v32.25H557V28h96.75
			V10.5H570v-10h180.75v10H665.5V28h98.25v41.75h-11.5V37.5H665.5v35.25h-11.75V37.5H568.5z M577.5,87.75v-9h61v9H577.5z M579,155.5
			v-10.25h141.5l2-0.75l7.75,5.5c-4.168,5.168-9.336,10.461-15.5,15.875c-6.168,5.418-12.668,10.586-19.5,15.5
			c-6.836,4.918-13.25,9.375-19.25,13.375c3.832,2,7.625,4,11.375,6s7.207,3.914,10.375,5.75l-5.25,9.75
			c-5.5-3.668-12.625-7.836-21.375-12.5c-8.75-4.668-17.875-9.414-27.375-14.25c-9.5-4.832-18.25-9.164-26.25-13l5-8
			c5.832,2.668,12.414,5.793,19.75,9.375c7.332,3.586,14.75,7.293,22.25,11.125c4.832-2.832,10.082-6.125,15.75-9.875
			c5.664-3.75,11.164-7.707,16.5-11.875c5.332-4.164,9.914-8.082,13.75-11.75H579z M582.75,54h55.5v9h-55.5V54z M615.25,129.25
			v-9.75h90.5v9.75H615.25z M680.5,54H738v9h-57.5V54z M680.5,87.75v-9h63.75v9H680.5z"/>
		<path fill="#FFFFFF" d="M843.5,40v37.25H832V30h96.5V11.25H845V1h180.75v10.25H940.5V30h98.25v47.25h-11.5V40H940.5v49.5h-12V40
			H843.5z M959.25,202.25H1020c4.664,0,8.164-0.75,10.5-2.25c2.332-1.5,3.957-4.539,4.875-9.125
			c0.914-4.582,1.539-11.457,1.875-20.625c3.332,2.5,7,4,11,4.5c-0.668,10-1.793,17.793-3.375,23.375
			c-1.586,5.582-4.25,9.457-8,11.625c-3.75,2.164-9.211,3.25-16.375,3.25h-61.25c-7.836,0-14-0.543-18.5-1.625
			c-4.5-1.086-7.668-3.086-9.5-6c-1.836-2.918-2.836-7.125-3-12.625V180.5H864.5v14.25h-11.75v-85h75.5v-14H940v14h79.5v70.75H940
			V193c0.164,3.836,1.375,6.332,3.625,7.5C945.875,201.664,951.082,202.25,959.25,202.25z M853.5,91.75V82.5h60v9.25H853.5z
			 M913.5,56.5V66h-55v-9.5H913.5z M928.25,119.5H864.5v21h63.75V119.5z M864.5,150v20.75h63.75V150H864.5z M1007.75,140.5v-21H940
			v21H1007.75z M940,170.75h67.75V150H940V170.75z M955.75,56.5h56.75V66h-56.75V56.5z M955.75,91.75V82.5h63v9.25H955.75z"/>
	</g>
</g>
<g>
</g>
<g>
</g>
<g>
</g>
<g>
</g>
<g>
</g>
<g>
</g>
</svg>
