<?xml version="1.0" encoding="utf-8"?>
<!-- Generator: Adobe Illustrator 16.0.0, SVG Export Plug-In . SVG Version: 6.00 Build 0)  -->
<!DOCTYPE svg PUBLIC "-//W3C//DTD SVG 1.1//EN" "http://www.w3.org/Graphics/SVG/1.1/DTD/svg11.dtd">
<svg version="1.1" id="Layer_1" xmlns="http://www.w3.org/2000/svg" xmlns:xlink="http://www.w3.org/1999/xlink" x="0px" y="0px"
	 width="1051.7px" height="616.219px" viewBox="0 0 1051.7 616.219" enable-background="new 0 0 1051.7 616.219"
	 xml:space="preserve">
<g>
	<g>
		<path fill="#FFFFFF" d="M37.95,89.719c-8.25,14-17.75,26.25-27.75,36c-1.75-2.25-5.75-7.75-8.25-10.25
			c15.75-13.75,30-35.5,38-58.25l11.75,3c-2.25,6.25-4.75,12.5-7.75,18.5h69.75v11H37.95z M79.45,218.719
			c13.75,17,30.75,39.25,39,53.25l-10.25,5.75c-3.5-5.75-8.25-13.5-14-21.5c-66.25,16.25-73.25,18-78,21c-1-3-3.75-7.75-6-10.5
			c3.5-2,9.25-6.25,9.25-16.5v-119.5h88.5v80.5H30.7v49l57.25-13c-6.25-8.5-12.5-16.75-18.25-23.75L79.45,218.719z M30.7,141.219v25
			h65.75v-25H30.7z M96.45,200.969v-24.75H30.7v24.75H96.45z M69.45,125.719c-3.5-7-11.25-17.75-18.25-25.25l8.5-6
			c7,7.25,15,17.5,18.75,24L69.45,125.719z M226.95,78.719v11h-89c-6.25,15-13.75,28-22.75,38.25c-2-2.25-6.75-6.25-9.75-8.25
			c14-15,24.75-37.75,30.75-62l12,2.5c-1.75,6.25-3.5,12.5-5.75,18.5H226.95z M214.7,238.469c0,8-1.75,11.75-8.25,14
			c-6.75,2-19,2.25-39.5,2.25c-0.75-3.5-2.5-8.25-4.5-11.5c17.5,0.25,31.25,0.25,35.5,0c4.25,0,5.25-1.25,5.25-5v-96.25h-61.25
			v142.5h-11.5v-153.75h84.25V238.469z M164.7,93.969c8,7.25,17.25,17.75,21,24.75l-8.75,6.75c-4.25-7-12.75-17.75-20.5-25.5
			L164.7,93.969z"/>
		<path fill="#FFFFFF" d="M358.45,117.719c-9-10.75-24-24.5-37.5-36c-8.75,15-19.25,29-29.75,40.25h61.75v10.75H326.7v33h32.75
			v10.75H326.7v75.75l32.5-8.25l0.5,10.5c-28.5,7.25-59.25,15.5-80.75,21l-3-11.25c10.5-2.5,24.5-5.75,40-9.25v-78.5H278.2v-10.75
			h37.75v-33H290.7v-10.25c-3.75,4-7.25,7.5-11,10.75c-1-3-4.25-9-6-11.75c18.5-15.25,37.25-39.25,48-64.5l9.5,4.25
			c-1.75,3.75-3.5,7.5-5.25,11.25c14.5,11,29.25,24.75,38.75,35.25L358.45,117.719z M292.7,192.219c4.75,15,8.75,35,9.75,48
			l-8.75,2.75c-1-13.25-5-33.25-9.25-48.5L292.7,192.219z M333.45,236.969c4.5-12.75,9.75-33.75,12.25-48l9.25,3.75
			c-4.25,15.75-9.5,35.25-13.75,47.75L333.45,236.969z M502.7,266.969v10.75H366.2v-10.75h62v-35.5h-46v-10.75h46v-26.25h-38.25
			v-56.75h90.5v56.75h-40.5v26.25h47v10.75h-47v35.5H502.7z M381.7,141.969h-11.25v-37.75h57.75v-46h11.75v46h15.5
			c8.5-11.5,19.25-29.5,25-41.75l10.5,5c-7,12.25-15.25,26-23,36.75h32v37.75H488.2v-27.25H381.7V141.969z M398.7,98.969
			c-3-8.5-11-21.75-18.5-31l9.25-4.5c7.75,9.5,16.25,22.25,19.25,30.5L398.7,98.969z M401.45,184.469h67.25v-36.75h-67.25V184.469z"
			/>
		<path fill="#FFFFFF" d="M591.95,99.469c-10,12.5-20.75,23.75-31.5,32.75c-1.75-2.25-6-6.75-8.5-9c21.25-16,41.5-40.5,54-65.75
			l10.75,3c-4.75,9.5-10.25,19-16.25,27.75h165v11.25H591.95z M773.7,207.719v11.25H553.95v-11.25h41v-48.75H563.2v-11.25h31.75v-31
			h11v31h31.25v-31h11v31h34.75v-31h11v31h32.75v-31h11.5v31h30.75v11.25H738.2v48.75H773.7z M561.7,279.719
			c8.75-12,18-31.5,24-47.25l10.75,2.75c-6,15.5-15,36-24,49L561.7,279.719z M605.95,207.719h31.25v-48.75h-31.25V207.719z
			 M638.45,236.969c3,14,5.5,32.75,5.75,43.5l-11.5,1.75c-0.25-11.25-2.25-30.25-5.5-44.5L638.45,236.969z M648.2,158.969v48.75
			h34.75v-48.75H648.2z M690.2,234.969c7.25,14.25,14.25,33,16.75,44.5l-11.5,2.75c-2.75-11.5-9.25-30.75-16.5-45L690.2,234.969z
			 M693.95,158.969v48.75h32.75v-48.75H693.95z M741.95,231.969c9,14.75,19.75,34.75,25,46.75l-11.5,4.75c-5-12-15.5-32.75-24.5-48
			L741.95,231.969z"/>
		<path fill="#FFFFFF" d="M910.7,116.969c-8.75-10.5-23.25-24-36.75-35.5c-9.25,15-20.5,29-32,40.5h62.5v10.75h-28v33h34.75v10.75
			h-34.75v76.5l34-7.75l0.75,10.25c-29,7-59.75,14.5-81.5,19.75l-3-11.25c10.75-2.25,24.5-5,39.75-8.75v-78.75h-37.5v-10.75h37.5
			v-33h-25v-10.25c-3.75,3.75-7.5,7.25-11.5,10.5c-1-2.75-4-8.75-6.25-11.5c19.75-15.5,40-39.5,51.5-64.75l10,4.25
			c-1.75,3.75-3.5,7.5-5.75,11.5c14,11,28.5,24.75,37.75,35L910.7,116.969z M844.2,192.219c5,15,9,35,10.25,47.75l-9,2.75
			c-1-13.25-5.5-33-9.75-48.5L844.2,192.219z M884.45,236.969c4.5-12.75,10.5-33.75,13-48l9.75,3.75c-4.5,15.5-10,35-14.75,47.25
			L884.45,236.969z M971.95,104.219c-5,16-10.75,31.25-17.5,45.25h32.75v-30h10.25v30h38.25v0.25h3.75v91.5c0,6-1,9.5-5,11.75
			s-10.25,2.25-20.25,2.25c-0.5-3.25-2.25-8-3.75-11.25h16c2.25,0,2.75-0.75,2.75-2.75v-80.25h-31.75v123.25H987.2v-123.25h-31.25
			v94H945.7v-88.25c-5.75,10.25-12,19.75-18.75,28.25c-1.75-2.5-5.25-7.5-7.5-10c17-20.25,31-48.75,41.5-80.75h-37v-11.75h40.5
			c3.25-10.75,6.25-22,8.5-33.25l10.5,2.25c-2.25,10.5-5,21-8,31h75.75v11.75H971.95z"/>
	</g>
</g>
<g>
	<g>
		<path fill="#FFFFFF" d="M33.7,421.969c-7.25,12.5-15.25,24-23.5,32.75c-2-1.75-7-5.25-9.75-6.75c15-15,28-37.25,36-59.75l11.25,3
			c-2.25,6.75-5.25,14-8.75,20.5h72.25v10.25h-46c5.75,9.5,11,20.75,13.25,28.25l-10.25,4.25c-2.75-8.75-9-21.75-15.25-32.5H33.7z
			 M79.45,549.719c13.75,17,30.75,39.25,38.75,53.25l-10,6c-3.5-6-8.25-13.5-14-21.75c-66,16.25-73.25,18.25-77.75,21.25v-1
			c-0.25,0.25-0.25,0.75-0.25,1c-1-2.75-4.25-7.75-6.5-10.5c3.5-1.75,9.75-6.75,9.75-17v-119.25h89v81H30.7v48.5l57.25-13
			c-6.25-8.25-12.25-16.75-18.25-23.75L79.45,549.719z M30.7,472.219v25h66.25v-25H30.7z M96.95,532.469v-25.5H30.7v25.5H96.95z
			 M225.45,411.469v10.25h-51.5c7.25,9.75,14.5,21,18.25,28.5l-10.5,4.75c-4-8.75-12.75-22.5-20.25-33.25H140.2
			c-8.25,12.5-18,23.75-28,32.5c-2.25-2-7-5.75-10-7.25c18-14.25,33.75-35.25,42.25-58.75l11.5,3c-2.75,7-5.75,13.75-9.5,20.25
			H225.45z M214.7,569.469c0,8-1.75,11.75-8.25,14c-6.75,2-19,2.25-39.75,2.25c-0.5-3.5-2.25-8.25-4.25-11.5
			c17.5,0.25,31.25,0.25,35.5,0c4.25,0,5.25-1.25,5.25-5v-96.25h-58.25v142.5h-11.5v-153.75h81.25V569.469z"/>
		<path fill="#FFFFFF" d="M359.7,442.469c-7.25-11.25-21.5-29.5-34.75-42.5c-9.75,19-25,43.25-47,63c-2-2.5-5.5-5.75-8.25-7.5
			c23-19.75,39.25-46.25,47.75-66.5h12.25c14.5,13.75,31.25,32.75,39.25,45.25L359.7,442.469z M370.45,586.219
			c-32.5,7.25-66.25,15-91.25,20.25l-3.25-11.25c11.75-2.25,26.5-5.25,42.5-8.5v-82.75H276.7v-11h41.75v-31.5H291.2v-11h66.25v11
			h-28v31.5h35v11h-35v80.5l40.5-8.5L370.45,586.219z M293.95,519.469c5.75,15.75,10.25,36.25,11,49.5l-9.75,2.5
			c-0.75-13.5-5-33.75-10.5-49.75L293.95,519.469z M339.2,564.219c4.25-12.5,9-34,11.25-47.75l10.25,3
			c-3.75,15.5-8.5,35-12.75,47.25L339.2,564.219z M502.45,596.719v10.75H363.2v-10.75h63.25v-35.25h-50v-10.75h50v-26.25H387.7
			v-57.75h92.25v57.75h-42v26.25h52v10.75h-52v35.25H502.45z M368.95,472.469v-41.25h57.5v-42.25h11.5v42.25h61.25v41.25h-11.5
			v-30.5H380.45v30.5H368.95z M385.95,393.219c8.5,10.25,16.75,24,20.5,33.25l-10.25,4.75c-3.5-9.5-11.75-23.75-19.5-33.75
			L385.95,393.219z M398.7,514.219h69.75v-37.25H398.7V514.219z M490.2,397.719c-7,11.75-15.25,24.75-22.25,33.25l-8.75-4.5
			c7-9,16-23.75,21-33.75L490.2,397.719z"/>
		<path fill="#FFFFFF" d="M588.95,436.969c-8.5,11-18,20.75-27.25,28.5c-2.25-2.25-6.75-6-9.75-8c21.25-16.75,41.75-42.25,54-68.5
			l11.75,3.25c-4.5,9.25-9.75,18.5-15.5,27h163.25v11.25h-27.5v48.25h28.75v11.25h-28.75v48.75h35.75v11.25H553.95v-11.25h35v-48.75
			H561.2v-11.25h27.75V436.969z M551.95,610.969c12.75-11,25.25-29.5,32.5-47.25l11.25,3c-7.75,17.5-19.75,37-33,49L551.95,610.969z
			 M600.2,478.719h33.75v-48.25H600.2V478.719z M600.2,538.719h33.75v-48.75H600.2V538.719z M638.7,567.969
			c3,14.25,5.5,33,5.75,43.75l-11.5,1.75c-0.25-11.25-2.25-30.25-5.5-44.5L638.7,567.969z M679.95,478.719v-48.25H644.7v48.25
			H679.95z M644.7,489.969v48.75h35.25v-48.75H644.7z M690.2,566.469c7,14.25,14.25,33,16.75,44.5l-11.5,2.75
			c-2.75-11.75-9.5-30.75-16.5-45L690.2,566.469z M726.45,430.469H690.7v48.25h35.75V430.469z M726.45,489.969H690.7v48.75h35.75
			V489.969z M741.7,562.469c13,15.25,28,35.75,35,48.75l-11.5,5c-6.75-13-21.25-34.5-34.5-49.5L741.7,562.469z"/>
		<path fill="#FFFFFF" d="M879.45,388.969c15,14,32.25,33.75,41,46.25l-9.25,8c-7.75-11.75-22.75-30.5-36.25-43.5
			c-8.5,17.75-26,44.5-46.75,63.5c-2-2.75-5.75-6.5-8.25-7.75c23-19.75,39-46.25,47.75-66.5H879.45z M841.2,450.469h67v10.75h-29.75
			v31.5h34.25v11.25h-34.25v80.5c12.5-2.5,25-5.5,38-8.25l0.75,10.5c-32,7-64.5,14.5-89,19.5l-3-11c11.5-2.25,26.5-5.5,42.5-8.5
			v-82.75h-41v-11.25h41v-31.5h-26.5V450.469z M843.2,519.469c5.25,15.75,10,36.25,11,49.5l-9.75,2.5c-0.5-13.5-5-34-10.25-50
			L843.2,519.469z M888.2,564.219c4.25-12.75,9.25-34.25,11.5-47.75l10.25,2.75c-3.5,15.5-8.75,35-12.75,47.25L888.2,564.219z
			 M981.7,389.969c-2.5,12.5-5.5,24.75-9.25,36.75h79.25v11.25h-83c-6,16.5-13.5,32.5-23.25,47.25h39.5v-33h11v33h50v78.25
			c0,6.75-1.5,10.5-6.25,12.75c-5.5,2-14.5,1.75-29,1.75c-0.5-2.75-2-7.5-3.75-11.25c12,0.25,21.75,0.25,24,0c3,0,4-0.75,4-3.25
			v-67.25h-39v119h-11v-119h-36v83.5H937.7v-83.25c-6,8-13,16-20.5,23c-1.5-1.75-6.5-6-8.75-8c22-19.5,38-45,49-73.5H920.7v-11.25
			h40.75c4.25-12.5,7.5-25.5,9.5-38.5L981.7,389.969z"/>
	</g>
</g>
<g>
	<g>
		<path fill="#737F8A" d="M32.9,2.975l-16.45,28.49L0,2.975H32.9z"/>
		<path fill="#737F8A" d="M45.22,30.065l-1.505-0.805c0.606-0.747,1.16-1.61,1.663-2.59c0.501-0.98,0.939-1.983,1.313-3.01
			c0.373-1.026,0.688-1.983,0.945-2.87l1.47,0.525c-0.28,0.91-0.607,1.902-0.98,2.975c-0.374,1.074-0.799,2.112-1.277,3.115
			C46.369,28.408,45.826,29.295,45.22,30.065z M71.12,1.575v15.26H47.005V1.575H71.12z M48.65,3.15v5.285h9.695V3.15H48.65z
			 M48.65,9.94v5.355h9.695V9.94H48.65z M56.104,29.365h7.7c0.63,0,1.097-0.111,1.4-0.333c0.303-0.221,0.519-0.676,0.647-1.365
			c0.128-0.688,0.216-1.733,0.263-3.133c0.233,0.164,0.501,0.304,0.805,0.42c0.303,0.117,0.571,0.199,0.805,0.245
			c-0.093,1.54-0.251,2.725-0.472,3.553c-0.222,0.828-0.59,1.4-1.103,1.715c-0.514,0.315-1.272,0.473-2.275,0.473h-7.77
			c-1.633,0-2.742-0.181-3.325-0.542c-0.583-0.362-0.875-1.091-0.875-2.188v-7.665h1.68v7.665c0,0.467,0.151,0.776,0.455,0.927
			S55.031,29.365,56.104,29.365z M63.735,23.1l-1.155,1.19c-0.537-0.513-1.225-1.085-2.065-1.715s-1.738-1.254-2.695-1.873
			c-0.957-0.618-1.89-1.16-2.8-1.627l1.12-1.05c0.91,0.467,1.843,0.992,2.8,1.575c0.956,0.583,1.86,1.179,2.712,1.785
			C62.504,21.992,63.198,22.563,63.735,23.1z M69.475,8.435V3.15h-9.52v5.285H69.475z M69.475,15.295V9.94h-9.52v5.355H69.475z
			 M67.9,20.93l1.505-0.63c0.7,0.887,1.394,1.855,2.083,2.905c0.688,1.05,1.307,2.077,1.855,3.08
			c0.548,1.003,0.962,1.902,1.243,2.695l-1.61,0.735c-0.28-0.793-0.683-1.703-1.208-2.73c-0.525-1.026-1.126-2.07-1.802-3.133
			C69.288,22.791,68.6,21.817,67.9,20.93z"/>
		<path fill="#737F8A" d="M85.26,13.405l-0.945,1.365c-0.42-0.396-0.963-0.828-1.628-1.295c-0.665-0.466-1.377-0.921-2.135-1.365
			c-0.758-0.443-1.511-0.828-2.257-1.155l0.98-1.19c0.723,0.304,1.464,0.671,2.222,1.103c0.758,0.432,1.47,0.864,2.135,1.295
			C84.297,12.594,84.84,13.008,85.26,13.405z M84.77,18.9l1.33,0.945c-0.513,1.213-1.08,2.497-1.697,3.85
			c-0.619,1.354-1.249,2.677-1.89,3.973c-0.642,1.295-1.254,2.467-1.837,3.517l-1.47-1.015c0.537-0.91,1.132-1.995,1.785-3.255
			c0.653-1.26,1.313-2.59,1.978-3.99S84.233,20.183,84.77,18.9z M86.905,4.375L85.89,5.74c-0.397-0.443-0.916-0.916-1.558-1.417
			c-0.642-0.501-1.336-0.992-2.083-1.47c-0.747-0.478-1.482-0.892-2.205-1.242l1.015-1.19c0.7,0.35,1.423,0.752,2.17,1.208
			s1.447,0.922,2.1,1.4C85.983,3.506,86.508,3.955,86.905,4.375z M108.255,19.285h-7.035v10.43c0,0.49-0.07,0.869-0.21,1.137
			s-0.409,0.461-0.805,0.578c-0.374,0.14-0.934,0.222-1.68,0.245c-0.747,0.023-1.727,0.023-2.94,0
			c-0.047-0.187-0.123-0.42-0.228-0.7c-0.105-0.28-0.205-0.537-0.298-0.77c0.957,0.023,1.791,0.035,2.502,0.035s1.184,0,1.417,0
			c0.42-0.023,0.63-0.198,0.63-0.525v-10.43h-6.72V7.56h5.845c0.187-0.653,0.373-1.376,0.56-2.17c0.187-0.793,0.326-1.516,0.42-2.17
			H90.37v7.945c0,1.494-0.052,3.115-0.157,4.865s-0.315,3.529-0.63,5.337c-0.315,1.809-0.782,3.57-1.4,5.285
			c-0.619,1.715-1.441,3.308-2.467,4.777c-0.14-0.117-0.356-0.269-0.647-0.455c-0.292-0.187-0.531-0.315-0.718-0.385
			c1.003-1.447,1.796-2.993,2.38-4.638c0.583-1.645,1.021-3.331,1.313-5.057c0.292-1.727,0.478-3.418,0.56-5.075
			c0.082-1.657,0.123-3.208,0.123-4.655v-9.52h21.07V3.22h-8.785l0.56,0.14c-0.21,0.677-0.42,1.389-0.63,2.135
			c-0.21,0.747-0.409,1.435-0.595,2.065h7.91V19.285z M94.5,21.56l1.575,0.42c-0.583,1.377-1.295,2.747-2.135,4.112
			c-0.84,1.365-1.704,2.526-2.59,3.482c-0.164-0.117-0.391-0.28-0.683-0.49c-0.292-0.21-0.542-0.362-0.752-0.455
			c0.933-0.933,1.797-2.024,2.59-3.272C93.298,24.109,93.963,22.843,94.5,21.56z M94.465,8.995v3.675h12.18V8.995H94.465z
			 M94.465,14.105v3.745h12.18v-3.745H94.465z M104.37,21.98l1.435-0.63c0.606,0.7,1.208,1.476,1.803,2.328
			c0.595,0.852,1.137,1.686,1.627,2.502c0.49,0.817,0.863,1.552,1.12,2.205l-1.54,0.735c-0.234-0.653-0.59-1.394-1.068-2.222
			c-0.479-0.828-1.009-1.674-1.592-2.538C105.571,23.497,104.976,22.703,104.37,21.98z"/>
		<path fill="#737F8A" d="M144.69,21.665v1.54h-30.905v-1.54h14.56v-3.99h-11.62v-1.47h11.62V12.6H117.39V1.435h23.45V12.6h-10.85
			v3.605h11.655v1.47H129.99v3.99H144.69z M115.5,31.85l-1.47-0.77c0.816-0.677,1.575-1.557,2.275-2.642
			c0.7-1.085,1.271-2.164,1.715-3.238l1.54,0.42c-0.443,1.074-1.015,2.188-1.715,3.343C117.145,30.117,116.363,31.08,115.5,31.85z
			 M119,11.095h9.345v-8.19H119V11.095z M121.66,4.48l1.225-0.455c0.56,0.863,1.085,1.797,1.575,2.8
			c0.49,1.003,0.816,1.867,0.98,2.59l-1.33,0.56c-0.164-0.746-0.479-1.633-0.945-2.66S122.196,5.343,121.66,4.48z M123.935,25.865
			l1.575-0.07c0.233,0.863,0.425,1.82,0.578,2.87c0.151,1.05,0.228,1.913,0.228,2.59L124.67,31.5c0-0.7-0.065-1.587-0.193-2.66
			C124.349,27.767,124.167,26.775,123.935,25.865z M139.16,11.095v-8.19h-9.17v8.19H139.16z M131.215,25.9l1.575-0.28
			c0.42,0.864,0.828,1.814,1.225,2.853c0.396,1.038,0.688,1.908,0.875,2.607l-1.645,0.42c-0.164-0.724-0.438-1.616-0.822-2.678
			C132.037,27.761,131.635,26.787,131.215,25.9z M133.245,10.43l-1.12-0.56c0.35-0.513,0.718-1.114,1.103-1.802
			c0.385-0.688,0.758-1.388,1.12-2.1c0.361-0.711,0.659-1.359,0.893-1.942l1.4,0.595c-0.514,0.98-1.073,2.007-1.68,3.08
			C134.353,8.773,133.781,9.683,133.245,10.43z M138.425,25.795l1.505-0.56c0.606,0.56,1.213,1.19,1.82,1.89
			c0.607,0.7,1.173,1.388,1.698,2.065c0.525,0.676,0.95,1.283,1.277,1.82l-1.54,0.7c-0.303-0.537-0.717-1.15-1.242-1.838
			c-0.525-0.688-1.091-1.388-1.698-2.1C139.638,27.061,139.031,26.402,138.425,25.795z"/>
		<path fill="#737F8A" d="M162.33,15.645h-1.435V12.25h-10.29v3.395h-1.4v-4.76h1.995V1.33h9.135v9.555h1.995V15.645z
			 M160.335,15.085V29.82c0,0.863-0.28,1.4-0.84,1.61c-0.327,0.117-0.788,0.187-1.382,0.21c-0.595,0.023-1.383,0.035-2.363,0.035
			c-0.023-0.187-0.093-0.409-0.21-0.665c-0.117-0.257-0.233-0.49-0.35-0.7c0.746,0.023,1.405,0.035,1.977,0.035
			s0.939-0.012,1.103-0.035c0.35,0,0.525-0.163,0.525-0.49v-4.41h-6.125v6.3h-1.505V15.085H160.335z M152.6,2.73v8.155h2.24v-5.39
			h4.025V2.73H152.6z M158.795,16.45h-6.125v3.045h6.125V16.45z M152.67,24.045h6.125v-3.15h-6.125V24.045z M158.865,10.885V6.79
			h-2.73v4.095H158.865z M174.055,29.505h6.09v1.4h-18.13v-1.4h5.81c-0.093-0.583-0.257-1.23-0.49-1.942
			c-0.234-0.712-0.514-1.359-0.84-1.943l1.33-0.42c0.35,0.607,0.653,1.29,0.91,2.047c0.256,0.759,0.431,1.417,0.525,1.978
			l-0.805,0.28h5.04l-0.7-0.28c0.28-0.583,0.577-1.26,0.892-2.03c0.315-0.77,0.554-1.446,0.718-2.03l1.47,0.525
			c-0.303,0.653-0.612,1.318-0.927,1.995C174.632,28.362,174.335,28.968,174.055,29.505z M179.97,15.225v1.4h-17.395v-1.4H179.97z
			 M178.535,3.395v9.765h-14.7V3.395h4.305V0h1.4v3.395h3.08V0h1.4v3.395H178.535z M177.765,24.955h-13.16v-6.3h13.16V24.955z
			 M165.235,4.725V7.56h3.045V4.725H165.235z M165.235,8.925v2.905h3.045V8.925H165.235z M166.11,19.95v3.71h10.115v-3.71H166.11z
			 M169.54,7.56h3.08V4.725h-3.08V7.56z M172.62,8.925h-3.08v2.905h3.08V8.925z M177.065,7.56V4.725h-3.185V7.56H177.065z
			 M177.065,11.83V8.925h-3.185v2.905H177.065z"/>
	</g>
</g>
<g>
	<g>
		<path fill="#6FCACA" d="M32.9,334.975l-16.45,28.49L0,334.975H32.9z"/>
		<path fill="#6FCACA" d="M54.32,334.625v22.33h-8.05v2.73h-1.645v-25.06H54.32z M52.745,336.2H46.27v8.61h6.475V336.2z
			 M46.27,355.38h6.475v-9.03H46.27V355.38z M55.86,333.75h17.815c0,0.42-0.012,0.7-0.035,0.84c-0.14,2.59-0.292,4.672-0.455,6.248
			c-0.164,1.575-0.344,2.771-0.542,3.587c-0.198,0.817-0.449,1.389-0.752,1.715c-0.49,0.49-1.144,0.747-1.96,0.77
			c-0.374,0.023-0.91,0.03-1.61,0.018c-0.7-0.011-1.447-0.041-2.24-0.087c-0.023-0.256-0.07-0.525-0.14-0.805
			c-0.07-0.28-0.187-0.536-0.35-0.77c0.84,0.07,1.615,0.117,2.327,0.14c0.712,0.023,1.196,0.035,1.453,0.035
			c0.537,0,0.921-0.117,1.155-0.35c0.21-0.233,0.396-0.7,0.56-1.4c0.163-0.7,0.32-1.727,0.472-3.08
			c0.151-1.353,0.286-3.115,0.403-5.285h-7.805c-0.28,1.75-0.718,3.418-1.313,5.005c-0.595,1.587-1.441,3.022-2.538,4.305
			c-1.097,1.284-2.555,2.345-4.375,3.185c-0.117-0.187-0.28-0.402-0.49-0.647c-0.21-0.245-0.409-0.438-0.595-0.578
			c1.727-0.747,3.103-1.703,4.13-2.87c1.026-1.167,1.808-2.473,2.345-3.92c0.537-1.446,0.921-2.94,1.155-4.48H55.86V333.75z
			 M57.05,363.675v-14.07h16.205v13.93H71.61v-1.68H58.66v1.82H57.05z M71.61,351.18H58.66v9.1h12.95V351.18z"/>
		<path fill="#6FCACA" d="M85.26,345.405l-0.945,1.365c-0.42-0.396-0.963-0.828-1.628-1.295c-0.665-0.466-1.377-0.921-2.135-1.365
			c-0.758-0.443-1.511-0.828-2.257-1.155l0.98-1.19c0.723,0.304,1.464,0.671,2.222,1.103c0.758,0.432,1.47,0.864,2.135,1.295
			C84.297,344.594,84.84,345.008,85.26,345.405z M84.77,350.9l1.33,0.945c-0.513,1.213-1.08,2.497-1.697,3.85
			c-0.619,1.354-1.249,2.677-1.89,3.973c-0.642,1.295-1.254,2.467-1.837,3.517l-1.47-1.015c0.537-0.91,1.132-1.995,1.785-3.255
			c0.653-1.26,1.313-2.59,1.978-3.99S84.233,352.183,84.77,350.9z M86.905,336.375l-1.015,1.365
			c-0.397-0.443-0.916-0.916-1.558-1.417c-0.642-0.501-1.336-0.992-2.083-1.47c-0.747-0.478-1.482-0.892-2.205-1.242l1.015-1.19
			c0.7,0.35,1.423,0.752,2.17,1.208s1.447,0.922,2.1,1.4C85.983,335.506,86.508,335.955,86.905,336.375z M108.255,351.285h-7.035
			v10.43c0,0.49-0.07,0.869-0.21,1.137s-0.409,0.461-0.805,0.578c-0.374,0.14-0.934,0.222-1.68,0.245
			c-0.747,0.023-1.727,0.023-2.94,0c-0.047-0.187-0.123-0.42-0.228-0.7c-0.105-0.28-0.205-0.537-0.298-0.77
			c0.957,0.023,1.791,0.035,2.502,0.035s1.184,0,1.417,0c0.42-0.023,0.63-0.198,0.63-0.525v-10.43h-6.72V339.56h5.845
			c0.187-0.653,0.373-1.376,0.56-2.17c0.187-0.793,0.326-1.516,0.42-2.17H90.37v7.945c0,1.494-0.052,3.115-0.157,4.865
			s-0.315,3.529-0.63,5.337c-0.315,1.809-0.782,3.57-1.4,5.285c-0.619,1.715-1.441,3.308-2.467,4.777
			c-0.14-0.117-0.356-0.269-0.647-0.455c-0.292-0.187-0.531-0.315-0.718-0.385c1.003-1.447,1.796-2.993,2.38-4.638
			c0.583-1.645,1.021-3.331,1.313-5.057c0.292-1.727,0.478-3.418,0.56-5.075c0.082-1.657,0.123-3.208,0.123-4.655v-9.52h21.07v1.575
			h-8.785l0.56,0.14c-0.21,0.677-0.42,1.389-0.63,2.135c-0.21,0.747-0.409,1.435-0.595,2.065h7.91V351.285z M94.5,353.56l1.575,0.42
			c-0.583,1.377-1.295,2.747-2.135,4.112c-0.84,1.365-1.704,2.526-2.59,3.482c-0.164-0.117-0.391-0.28-0.683-0.49
			c-0.292-0.21-0.542-0.362-0.752-0.455c0.933-0.933,1.797-2.024,2.59-3.272C93.298,356.109,93.963,354.843,94.5,353.56z
			 M94.465,340.995v3.675h12.18v-3.675H94.465z M94.465,346.105v3.745h12.18v-3.745H94.465z M104.37,353.98l1.435-0.63
			c0.606,0.7,1.208,1.476,1.803,2.328c0.595,0.852,1.137,1.686,1.627,2.502c0.49,0.817,0.863,1.552,1.12,2.205l-1.54,0.735
			c-0.234-0.653-0.59-1.394-1.068-2.222c-0.479-0.828-1.009-1.674-1.592-2.538C105.571,355.497,104.976,354.703,104.37,353.98z"/>
		<path fill="#6FCACA" d="M144.69,353.665v1.54h-30.905v-1.54h14.56v-3.99h-11.62v-1.47h11.62V344.6H117.39v-11.165h23.45V344.6
			h-10.85v3.605h11.655v1.47H129.99v3.99H144.69z M115.5,363.85l-1.47-0.77c0.816-0.677,1.575-1.557,2.275-2.642
			c0.7-1.085,1.271-2.164,1.715-3.238l1.54,0.42c-0.443,1.074-1.015,2.188-1.715,3.343C117.145,362.117,116.363,363.08,115.5,363.85
			z M119,343.095h9.345v-8.19H119V343.095z M121.66,336.48l1.225-0.455c0.56,0.863,1.085,1.797,1.575,2.8
			c0.49,1.003,0.816,1.867,0.98,2.59l-1.33,0.56c-0.164-0.746-0.479-1.633-0.945-2.66S122.196,337.343,121.66,336.48z
			 M123.935,357.865l1.575-0.07c0.233,0.863,0.425,1.82,0.578,2.87c0.151,1.05,0.228,1.913,0.228,2.59l-1.645,0.245
			c0-0.7-0.065-1.587-0.193-2.66C124.349,359.767,124.167,358.775,123.935,357.865z M139.16,343.095v-8.19h-9.17v8.19H139.16z
			 M131.215,357.9l1.575-0.28c0.42,0.864,0.828,1.814,1.225,2.853c0.396,1.038,0.688,1.908,0.875,2.607l-1.645,0.42
			c-0.164-0.724-0.438-1.616-0.822-2.678C132.037,359.761,131.635,358.787,131.215,357.9z M133.245,342.43l-1.12-0.56
			c0.35-0.513,0.718-1.114,1.103-1.802c0.385-0.688,0.758-1.388,1.12-2.1c0.361-0.711,0.659-1.359,0.893-1.942l1.4,0.595
			c-0.514,0.98-1.073,2.007-1.68,3.08C134.353,340.773,133.781,341.683,133.245,342.43z M138.425,357.795l1.505-0.56
			c0.606,0.56,1.213,1.19,1.82,1.89c0.607,0.7,1.173,1.388,1.698,2.065c0.525,0.676,0.95,1.283,1.277,1.82l-1.54,0.7
			c-0.303-0.537-0.717-1.15-1.242-1.838c-0.525-0.688-1.091-1.388-1.698-2.1C139.638,359.061,139.031,358.402,138.425,357.795z"/>
		<path fill="#6FCACA" d="M162.33,347.645h-1.435v-3.395h-10.29v3.395h-1.4v-4.76h1.995v-9.555h9.135v9.555h1.995V347.645z
			 M160.335,347.085v14.735c0,0.863-0.28,1.4-0.84,1.61c-0.327,0.117-0.788,0.187-1.382,0.21c-0.595,0.023-1.383,0.035-2.363,0.035
			c-0.023-0.187-0.093-0.409-0.21-0.665c-0.117-0.257-0.233-0.49-0.35-0.7c0.746,0.023,1.405,0.035,1.977,0.035
			s0.939-0.012,1.103-0.035c0.35,0,0.525-0.163,0.525-0.49v-4.41h-6.125v6.3h-1.505v-16.625H160.335z M152.6,334.73v8.155h2.24
			v-5.39h4.025v-2.765H152.6z M158.795,348.45h-6.125v3.045h6.125V348.45z M152.67,356.045h6.125v-3.15h-6.125V356.045z
			 M158.865,342.885v-4.095h-2.73v4.095H158.865z M174.055,361.505h6.09v1.4h-18.13v-1.4h5.81c-0.093-0.583-0.257-1.23-0.49-1.942
			c-0.234-0.712-0.514-1.359-0.84-1.943l1.33-0.42c0.35,0.607,0.653,1.29,0.91,2.047c0.256,0.759,0.431,1.417,0.525,1.978
			l-0.805,0.28h5.04l-0.7-0.28c0.28-0.583,0.577-1.26,0.892-2.03c0.315-0.77,0.554-1.446,0.718-2.03l1.47,0.525
			c-0.303,0.653-0.612,1.318-0.927,1.995C174.632,360.362,174.335,360.968,174.055,361.505z M179.97,347.225v1.4h-17.395v-1.4
			H179.97z M178.535,335.395v9.765h-14.7v-9.765h4.305V332h1.4v3.395h3.08V332h1.4v3.395H178.535z M177.765,356.955h-13.16v-6.3
			h13.16V356.955z M165.235,336.725v2.835h3.045v-2.835H165.235z M165.235,340.925v2.905h3.045v-2.905H165.235z M166.11,351.95v3.71
			h10.115v-3.71H166.11z M169.54,339.56h3.08v-2.835h-3.08V339.56z M172.62,340.925h-3.08v2.905h3.08V340.925z M177.065,339.56
			v-2.835h-3.185v2.835H177.065z M177.065,343.83v-2.905h-3.185v2.905H177.065z"/>
	</g>
</g>
<g>
</g>
<g>
</g>
<g>
</g>
<g>
</g>
<g>
</g>
<g>
</g>
</svg>
