<?xml version="1.0" encoding="utf-8"?>
<!-- Generator: Adobe Illustrator 16.0.0, SVG Export Plug-In . SVG Version: 6.00 Build 0)  -->
<!DOCTYPE svg PUBLIC "-//W3C//DTD SVG 1.1//EN" "http://www.w3.org/Graphics/SVG/1.1/DTD/svg11.dtd">
<svg version="1.1" id="Layer_1" xmlns="http://www.w3.org/2000/svg" xmlns:xlink="http://www.w3.org/1999/xlink" x="0px" y="0px"
	 width="1062.5px" height="619.719px" viewBox="0 0 1062.5 619.719" enable-background="new 0 0 1062.5 619.719"
	 xml:space="preserve">
<g>
	<g>
		<path fill="#FFFFFF" d="M139.25,64.469c-1.75,2-3.5,3.75-5.25,5.75c25.5,19.5,67.5,37.5,104.25,46.25
			c-6.75,6-15.25,17.75-19.25,24.75c-9-2.75-17.75-6-27-9.75v81.25H73.5v41.25l57.75-6.25c-0.75,7.5-1,18.75-0.5,24.75
			c-66.75,9-78,11-85.5,14.5c-2-6.25-8.5-16.75-12.75-21.25c5.25-3.25,11.5-10,11.5-21.25v-112.75c-7.75,3.25-15.25,6.25-23.25,9
			c-3.75-7-11.5-17-18.25-23.75c42.5-12.25,87.25-35.75,110.25-65.5L139.25,64.469z M189.5,130.469
			c-12.5-5.5-25.25-11.5-37.25-18.75v12H85v-13.25c-12,7.5-25,14-38,20H189.5z M161.75,151.469H73.5v10.5h88.25V151.469z
			 M161.75,191.469v-10.5H73.5v10.5H161.75z M139.5,103.969c-8-5.25-16-11-23-16.5c-6.75,5.75-14,11.25-21.5,16.5H139.5z
			 M223.25,223.719c-11.75,7.75-25.25,15.75-38.25,22.75c13,7.25,24.5,14.5,33,20.75l-21,19.75c-19.75-15.5-61.25-39.75-92.75-55
			l19.25-17.25c11.25,5.25,24.25,11.5,37.25,18.25c14.75-8,30.25-18.5,41-27.25L223.25,223.719z"/>
		<path fill="#FFFFFF" d="M311.5,108.469c-8,7.75-16.25,14.25-25,20c-1.75-6.25-8-21.5-12-28.25c19.5-11.25,39.25-29.5,50-49
			l24.75,8.75c-1.25,2.25-2.5,4.25-4,6.5c11.75,5.25,24.5,11.75,32,16.5l-12.25,24c-7.5-5.5-21.75-13.5-34.25-19.5
			c-4,4.75-8.25,9.5-12.25,14h37v19.5h-44V108.469z M353.25,220.969c8,15.5,19,36.5,23.75,49l-23.25,11.5
			c-1.75-5-4.25-11.5-7.25-18.25c-44,16.5-52.25,20-57.25,24.25c-1.25-7.25-5.75-19.75-9.75-26c5-2.25,10.75-5.75,10.75-15.25
			v-116.25h76.25v89.5H317v30l20-6.75c-2-4.25-4-8.5-6-12L353.25,220.969z M317,151.469v12.75h24v-12.75H317z M341,198.219v-13.5
			h-24v13.5H341z M454.75,197.219v62.5c0,13.25-2.25,19.25-10.5,23.25c-7.5,4.25-18,4.5-32.75,4.5c-1-7.25-5.25-17.75-8.5-24.5
			c8.25,0.5,17.25,0.25,20,0.25c3,0,4-1,4-3.75v-62.25h-50.25v-26H427v-19.75h-35v-23.5c-3.25,2-6.25,3.75-9.5,5.5
			c-3.5-7-10.75-16.25-17-21.75c27-12.5,55-34,69.75-59.25L458,62.719c-1.5,2.25-3.25,5-4.75,7.5c17.25,17.75,37.25,29.25,59.25,39
			c-7,7-14.75,16.25-18.5,24.75c-2.25-1.25-4.25-2.5-6.5-4v21.5h-32.75v19.75h50v26H454.75z M416.5,213.219
			c-6.5,18.5-16.25,40.5-24,54.25c-5-4-15.25-10.5-21.25-13.5c7.5-12.5,15.75-31.5,21-48L416.5,213.219z M480.5,125.469
			c-15-10.25-28.75-21.75-42-36c-12.5,14-27.25,26-42.5,36H480.5z M486.25,203.969c8.25,16.5,19.75,38.5,25,51.75l-24,11.5
			c-4.5-13.75-15.25-36.75-23.25-54L486.25,203.969z"/>
		<path fill="#FFFFFF" d="M590.5,112.219c-8.5,9.25-18,17.5-27.25,24.5c-3-5.25-10.75-16.5-15.25-21.5
			c22.5-14.75,44.5-38.5,56.75-63.5l23,7.5c-1.25,2.5-2.5,4.75-3.75,7c15.25,9.25,33,20.75,42.5,28.5l-13.5,22.75
			c-3.5-3.5-8.75-8-14.75-12.25v16.75H590.5V112.219z M779.5,129.219c-5,41-14.75,74.75-29.25,101.5
			c11,14.5,24.25,26.25,39.75,34.25c-6,5-14.25,15.25-18.25,22.25c-14.25-8.5-26.5-19.75-36.75-32.75
			c-10.5,13.5-22.75,24.75-36.75,33.75c-4-6.5-11-16-16.75-21c-2.75,7.5-6,15-10,21.5c-4.75-4.5-16-11.75-22.5-14.25l0.25-0.25
			l-14,6c-1.25-5-3-10.75-5.25-17c-47.25,17-55.5,20.75-60.75,25.25c-1.5-6.75-5.25-17.75-9-23.25c4.5-1.75,10-5.5,10-15v-118H653
			v86h-58.5v32.75l27.75-9.25c-2-5-4-10-5.75-14.25l21.25-7.75c5.75,13.25,12.75,30.25,17.25,42.75c14-32.5,15.25-74.5,15.25-106.25
			v-80.75l-0.25-0.5c34.25-1.75,73-6.5,95.75-14.75l18.5,21.25c-23.75,8.5-57.25,13.25-88.25,15.25v28.75h62l4.5-1L779.5,129.219z
			 M594.5,152.969v12.25h35.25v-12.25H594.5z M629.75,197.719v-12.5H594.5v12.5H629.75z M635.75,103.219
			c-7.75-5.75-16.25-11.75-24.25-16.75c-4,5.5-8.5,11.25-12.75,16.75H635.75z M719.25,230.469c-9.75-17.75-17.25-38-23.5-60.25
			c-0.5,29.75-3.5,66.5-14,96.25C696,258.219,708.5,246.219,719.25,230.469z M715.25,151.219c4.5,18.75,10.75,36.75,18.75,52.75
			c6.75-15.75,12.25-33.5,16-52.75H715.25z"/>
		<path fill="#FFFFFF" d="M861.5,106.469c-8.25,8-16.5,14.75-25.25,20.5c-1.75-5.75-8-20.25-11.5-26.75c19.25-11.25,39-29.5,50-49
			l23.25,8.5c-1.25,2.5-2.75,4.5-4.25,7c12.75,6,28.25,13.25,36.5,18.25l-12,23c-8.75-5.5-25-14.25-38.75-21
			c-3.75,4.75-8.25,9.75-13,14.5h39v19.5h-44V106.469z M1044.75,224.219c-8.5,11-19.25,21-31.75,29.5c6.25,5.75,13,8.75,19.25,8.75
			c5.75,0,7.5-5,9-19.75c5.25,5,13.5,9,20.25,11c-4,27.5-11.75,34-30.75,33.75c-15.5,0-29.25-7.25-41.25-19.5
			c-16.25,8.25-34.25,15-51.75,20.25c-2.75-5-9.25-14.25-14.5-20l1.5,4.25l-22.75,8.75c-1.25-5-3.25-11-5.5-17.75
			c-43.5,16-51.75,19.75-56.75,24c-1.25-7.25-5.5-19.25-9.75-25.5c5-2,10-6,10-15.25v-116.75h77.25v89.25H866.5v30.5l22.25-7.5
			c-2-4.75-3.75-9.25-5.5-13.5l21.5-7.75c6.25,14.25,13.5,32.5,18,45.25c18.25-4.25,36.75-10,52.75-17.5c-4.5-8.25-8.75-17-11.75-27
			l-32.25,3l-2-23.75l28-2.5c-2.25-10-3.75-20.5-4.5-31.5c-3.75,1.25-7.25,2.25-11,3.25c-3-5.75-10.75-16.25-16-21.25
			c17.5-3.75,35.25-8.75,50.75-15.5c-4-6.5-7.5-13.5-10.25-21.75l-33.75,3.25l-2-23.75l29-2.5c-2.25-10.75-3.75-22-4.5-33.75h26.5
			c0.5,11.25,2.25,21.75,4.5,31.75l32.75-3c-6.5-4.75-16.75-10.5-24.75-14l14.25-15.75c10,4,23,10.75,29.75,15.75l-11.75,13.5
			l28-2.5l2,23l-33.25,3l21.25,7.25c-7.5,9.25-17.5,17.5-28.5,24.75c4.75,3.5,10,5.25,15,5.25c5.75,0,7.25-3.75,8.5-16
			c5,4.75,13.5,8.25,20,10.25c-4,24.75-11.75,30.5-29.75,30.5c-14.25,0-27.25-6-38.25-16.5c-8.75,4-18,7.75-27.25,11h15.25
			c0.5,11.75,2,22.75,4.5,33l34.25-3c-7.5-4.75-19-10.75-27.5-14.75l13.75-15.75c10.75,4.5,25,11.25,32.25,16.25l-11.25,13.75
			l31.75-2.75l1.75,23l-36.5,3.25L1044.75,224.219z M866.5,151.219v13h24.75v-13H866.5z M891.25,197.969v-13.25H866.5v13.25H891.25z
			 M991,219.219c2,6,4.75,11.25,7.5,16c8.25-5.25,15.25-11.75,20.25-18.5L991,219.219z M994.25,109.469c2,4.5,4.25,8.75,6.5,12.25
			c6.75-4.25,13-9.25,18-14.5L994.25,109.469z"/>
	</g>
</g>
<g>
	<g>
		<path fill="#FFFFFF" d="M0,455.719c41-16.25,81.5-45.25,101.25-71H131c28,31,67.75,55.75,106.75,68.25
			c-7,7.25-13.75,17.75-18.75,26.5c-9-4-17.75-8.25-26.75-13.25v77.25c3.75-2.75,7-5.25,9.5-7.25l22,15.75
			c-13.25,9.25-29.25,18.5-43.75,26.25c15.25,6.5,33.5,11,54,13.5c-6,6-14,18-17.75,25.75c-35.25-5.5-63.75-16.5-85.25-34.25
			c-0.5,7-0.75,17.5-0.25,22c-66.75,9-78,11-85.5,14.5c-2-6.25-8.5-16.75-12.75-21.25c5.25-3.5,11.5-10,11.5-21.25v-110.5
			c-8.75,4.75-17.5,9-26.75,13.25C13.5,473.219,6,461.719,0,455.719z M80,444.219c-10.5,7.75-22,15-33.75,21.25h144.5
			c-12.25-6.75-24.5-14.25-35.75-22.5v13H80V444.219z M73.5,486.719v12.25h88.75v-12.25H73.5z M73.5,531.969h88.75v-13.5H73.5
			V531.969z M73.5,587.219l54.5-6.5c-9-8-16.75-17.25-22.75-27.5H73.5V587.219z M90.25,436.219H146c-11-8-20.5-16.75-28.5-25.5
			C109.25,419.719,100.25,428.469,90.25,436.219z M154.5,567.219c8.25-4.5,17.25-9.75,25.25-15l-43.25,1
			C141.5,558.469,147.5,562.969,154.5,567.219z"/>
		<path fill="#FFFFFF" d="M315.5,385.469h28.25c12,10.75,31.25,29.75,39.25,43.5l-17.75,19.5c-2.25-4-5.25-8.25-8.25-12.5v13.25
			h-45.5v-9.5c-6.5,8.25-14,15.75-21.25,21.25c-4.25-6-13.25-14.5-18.25-17.5C293.5,426.719,307.75,404.219,315.5,385.469z
			 M371,550.219h-55v32l29.5-10.5c-2-4-4-7.5-5.75-10.75l22-9.75c4.5,8,9.5,17.75,14,27.25c8.25-12.25,14.75-29.25,18-42.75l25,5.5
			c-5.75,21.75-15.5,43.5-26.75,57.75c-1.5-1.25-5.75-4.25-10.25-7.25c1.25,3,2.25,5.75,3.25,8l-23.25,11.25
			c-1.75-5.25-4.5-11.75-7-18.25c-49.25,17.75-57.75,22-63.5,26.25c-1.25-7.25-5.75-19.75-9.75-26c4.75-2.25,10-6.5,10-15.75v-116.5
			H371V550.219z M348,494.469v-12.25h-32v12.25H348z M348,528.969v-14h-32v14H348z M319.75,429.469h32.5
			c-6.25-7.75-13-15.25-19-21.25C330,414.469,325.25,421.969,319.75,429.469z M371.5,454.219c23.25-15.5,45.25-45.5,55.5-68.75h27.5
			c14.25,25.75,36.25,53.5,58.75,66.5c-5.5,7.75-11.75,18.5-15.75,27.5c-4.25-3-8.5-6.75-12.75-10.5v14.25H456v18.75h49v25h-49
			v63.25c0,12.5-2,19.5-10,23.75c-7.75,4.25-17.75,5-32.5,5c-1-7.5-5.25-18.5-8.5-25.75c8.25,0.5,17,0.5,19.75,0.25
			c2.75,0,3.75-0.75,3.75-3.5v-63h-47.25v-25h47.25v-18.75H400v-14.25c-4.5,4-9,7.75-13.75,11
			C383,471.969,376.75,460.719,371.5,454.219z M410.25,458.719h64c-13.25-14-24.75-30-32.75-44.5
			C434,428.469,423,444.719,410.25,458.719z M487.75,533.969c10,17.5,20,40.25,23.5,55.25l-25.5,9.25c-3-14.75-12-38.5-21.5-56.5
			L487.75,533.969z"/>
		<path fill="#FFFFFF" d="M593.5,385.469H622c14.25,12.5,32.25,30,41,43l-17.5,20.25c-2.75-4.25-6-8.75-9.5-13.5v14.25h-48.75v-8.5
			c-6.5,7.5-13.5,14.5-21.25,20.5c-4.5-5.5-13.75-15-19-18C569.75,426.719,585,404.469,593.5,385.469z M694.75,427.719v33h65.5
			l5-0.75l17.25,6c-5.75,38.75-17.25,71-32.25,96.25c10.75,13,23.5,23.75,38,31.25c-6.25,5.5-15,16.25-19.5,23.5
			c-13.5-8-25.25-18-35.75-30.5c-10.5,13-23,23-36.25,30.75c-3.25-5.5-13.5-18.75-19.25-22.75c13.75-6.75,28.75-19.25,39-32.25
			c-6.25-9-15.5-30.25-22.75-50c-2.25,44.5-12.5,84.25-30.75,106.25c-2.5-3-9.25-8.25-15.5-12.25l-9,4.25
			c-1.75-4.75-4.25-10.75-7-17.75c-50.25,18.25-58,22-63.5,26.25c-1.5-7.25-6-19.75-10.25-26c5-2.25,10.25-6.5,10.25-15.75v-116.5
			h81.5v89.5h-54v31.25l26.75-9.5c-1.75-3.5-3.5-6.75-5.25-10.5l22-9.5c4.25,8,9.5,18,14,27.25c12.75-30.25,13.75-68.75,13.75-96.25
			v-77c34.25-1.75,76.5-7,99.25-15.75l18.5,21.25C760.75,420.219,725.5,425.719,694.75,427.719z M622.75,494.469v-12.25H595.5v12.25
			H622.75z M622.75,528.969v-14H595.5v14H622.75z M597,429.469h34.5c-6.25-8-13.25-16-19.75-21.5
			C607.5,414.969,602.75,422.219,597,429.469z M712,487.469c4.75,16.75,13,36,20.5,49c8.25-13.75,14.25-30.25,18.75-49H712z"/>
		<path fill="#FFFFFF" d="M864.75,385.469h27.5c11.25,10.25,24.75,24.25,34.75,37.25l-0.25-3.75l23.5-2
			c-2.5-9.75-4.25-20.25-5.25-31.25h26.5c0.75,10,2.5,20,5.5,29l26-2.25c-6.25-3.5-12.5-7.5-18.75-11l14.5-15.75
			c9.5,4.75,23,12.5,30,18l-6.25,7l29.25-2.25l2,22.25l-67.75,6c3,5.75,6.25,10.75,10,15.25c7.5-4.25,17-12,22.25-17.5l23.75,8.75
			c-7.5,8.75-17.25,16.75-27.75,23.75c5.5,3.5,11.5,5.75,16.5,5.75c6.5,0,8.25-3.75,9.25-16.25c5.5,4.25,14,8.25,20.5,10.5
			c-4,25.25-12,30.75-30.5,30.75c-15,0-29-6-41.5-16.25c-8.25,4-24,10-37.25,14.5H971c0.75,10.25,2.25,19.5,4.5,28.75l27-2.25
			c-8-5.25-18-11.75-22.25-13.5l14.25-16c10.5,5,24,12.75,31.25,18l-8.5,10l38.75-3.25l2.25,22.75l-75.25,6.75
			c3.25,7.5,6.75,14,11,20c8.5-6,18.5-14.25,23.5-21.75l24.75,9c-8.25,11.5-19,21.5-31.75,29.75c6.75,6,14,9.25,20.5,9.25
			c6.5-0.25,8.75-6,10-22.5c5.75,5,14.5,9.5,21.5,11.25c-4.25,30-12.75,36.75-32.5,36.75c-16,0-31-7.5-44.25-19.75
			c-15.5,8.25-32.75,14.5-49.75,19.75c-2-3.75-7.25-11.5-12-17.5l-17.5,8.25c-1.5-4.75-3.75-10.5-6.5-16.25
			c-44,16.25-53.75,20.75-58.75,24.75c-1.5-7-5.5-18.5-9.25-24.5c4.5-2,9.75-6,9.75-15.25v-117.5H919v89.5h-52v31l23.75-9.25
			c-2-3.5-3.75-7-6.25-11.25l20.25-8.5c7.75,13.75,16.25,30,21.75,42.75c15-4,30.25-9.5,43.25-15.5c-5.75-8.75-10.75-19-14.5-29.75
			l-29,2.5l-2.25-23.25l24.5-2.25c-1.5-7.5-3.75-19.5-4.5-28.75c-1.75,0.5-3.25,1-4.75,1.5c-3.75-6.25-10.5-16-15.75-21.5
			c16.5-3.5,33-8.5,48.25-15c-5.25-6.75-10-15-13.75-24l-29,2.75l-0.75-7l-13.75,15c-2.5-4.25-5.5-8.75-8.5-13.25v12.75h-45.75
			v-9.75c-5.75,7.5-12.25,14.5-19.25,20.5c-4.25-5.5-13.25-13.75-18.25-17C842.75,426.219,856.75,403.719,864.75,385.469z
			 M893,494.969v-12.5h-26v12.5H893z M893,529.219v-13.75h-26v13.75H893z M868.5,429.469h32c-6-7.75-12.5-15.5-18.5-21.25
			C878.25,414.969,873.75,422.219,868.5,429.469z"/>
	</g>
</g>
<g>
	<g>
		<path fill="#737F8A" d="M37.45,2.975L21,31.465L4.55,2.975H37.45z"/>
		<path fill="#737F8A" d="M49.77,30.065l-1.505-0.805c0.606-0.747,1.16-1.61,1.663-2.59c0.501-0.98,0.939-1.983,1.313-3.01
			c0.373-1.026,0.688-1.983,0.945-2.87l1.47,0.525c-0.28,0.91-0.607,1.902-0.98,2.975c-0.374,1.074-0.799,2.112-1.277,3.115
			C50.918,28.408,50.376,29.295,49.77,30.065z M75.669,1.575v15.26H51.555V1.575H75.669z M53.2,3.15v5.285h9.695V3.15H53.2z
			 M53.2,9.94v5.355h9.695V9.94H53.2z M60.654,29.365h7.7c0.63,0,1.097-0.111,1.4-0.333c0.303-0.221,0.519-0.676,0.647-1.365
			c0.128-0.688,0.216-1.733,0.263-3.133c0.233,0.164,0.501,0.304,0.805,0.42c0.303,0.117,0.571,0.199,0.805,0.245
			c-0.093,1.54-0.251,2.725-0.472,3.553c-0.222,0.828-0.59,1.4-1.103,1.715c-0.514,0.315-1.272,0.473-2.275,0.473h-7.77
			c-1.633,0-2.742-0.181-3.325-0.542c-0.583-0.362-0.875-1.091-0.875-2.188v-7.665h1.68v7.665c0,0.467,0.151,0.776,0.455,0.927
			S59.581,29.365,60.654,29.365z M68.285,23.1l-1.155,1.19c-0.537-0.513-1.225-1.085-2.065-1.715s-1.738-1.254-2.695-1.873
			c-0.957-0.618-1.89-1.16-2.8-1.627l1.12-1.05c0.91,0.467,1.843,0.992,2.8,1.575c0.956,0.583,1.86,1.179,2.712,1.785
			C67.054,21.992,67.748,22.563,68.285,23.1z M74.024,8.435V3.15h-9.52v5.285H74.024z M74.024,15.295V9.94h-9.52v5.355H74.024z
			 M72.45,20.93l1.505-0.63c0.7,0.887,1.394,1.855,2.083,2.905c0.688,1.05,1.307,2.077,1.855,3.08
			c0.548,1.003,0.962,1.902,1.243,2.695l-1.61,0.735c-0.28-0.793-0.683-1.703-1.208-2.73c-0.525-1.026-1.126-2.07-1.802-3.133
			C73.837,22.791,73.149,21.817,72.45,20.93z"/>
		<path fill="#737F8A" d="M89.81,13.405l-0.945,1.365c-0.42-0.396-0.963-0.828-1.628-1.295c-0.665-0.466-1.377-0.921-2.135-1.365
			c-0.758-0.443-1.511-0.828-2.257-1.155l0.98-1.19c0.723,0.304,1.464,0.671,2.222,1.103c0.758,0.432,1.47,0.864,2.135,1.295
			C88.847,12.594,89.39,13.008,89.81,13.405z M89.319,18.9l1.33,0.945c-0.513,1.213-1.08,2.497-1.697,3.85
			c-0.619,1.354-1.249,2.677-1.89,3.973c-0.642,1.295-1.254,2.467-1.837,3.517l-1.47-1.015c0.537-0.91,1.132-1.995,1.785-3.255
			c0.653-1.26,1.313-2.59,1.978-3.99S88.783,20.183,89.319,18.9z M91.455,4.375L90.439,5.74c-0.397-0.443-0.916-0.916-1.558-1.417
			c-0.642-0.501-1.336-0.992-2.083-1.47c-0.747-0.478-1.482-0.892-2.205-1.242l1.015-1.19c0.7,0.35,1.423,0.752,2.17,1.208
			s1.447,0.922,2.1,1.4C90.533,3.506,91.058,3.955,91.455,4.375z M112.805,19.285h-7.035v10.43c0,0.49-0.07,0.869-0.21,1.137
			s-0.409,0.461-0.805,0.578c-0.374,0.14-0.934,0.222-1.68,0.245c-0.747,0.023-1.727,0.023-2.94,0
			c-0.047-0.187-0.123-0.42-0.228-0.7c-0.105-0.28-0.205-0.537-0.298-0.77c0.957,0.023,1.791,0.035,2.502,0.035s1.184,0,1.417,0
			c0.42-0.023,0.63-0.198,0.63-0.525v-10.43h-6.72V7.56h5.845c0.187-0.653,0.373-1.376,0.56-2.17c0.187-0.793,0.326-1.516,0.42-2.17
			h-9.345v7.945c0,1.494-0.052,3.115-0.157,4.865s-0.315,3.529-0.63,5.337c-0.315,1.809-0.782,3.57-1.4,5.285
			c-0.619,1.715-1.441,3.308-2.467,4.777c-0.14-0.117-0.356-0.269-0.647-0.455c-0.292-0.187-0.531-0.315-0.718-0.385
			c1.003-1.447,1.796-2.993,2.38-4.638c0.583-1.645,1.021-3.331,1.313-5.057c0.292-1.727,0.478-3.418,0.56-5.075
			c0.082-1.657,0.123-3.208,0.123-4.655v-9.52h21.07V3.22h-8.785l0.56,0.14c-0.21,0.677-0.42,1.389-0.63,2.135
			c-0.21,0.747-0.409,1.435-0.595,2.065h7.91V19.285z M99.049,21.56l1.575,0.42c-0.583,1.377-1.295,2.747-2.135,4.112
			c-0.84,1.365-1.704,2.526-2.59,3.482c-0.164-0.117-0.391-0.28-0.683-0.49c-0.292-0.21-0.542-0.362-0.752-0.455
			c0.933-0.933,1.797-2.024,2.59-3.272C97.848,24.109,98.513,22.843,99.049,21.56z M99.015,8.995v3.675h12.18V8.995H99.015z
			 M99.015,14.105v3.745h12.18v-3.745H99.015z M108.919,21.98l1.435-0.63c0.606,0.7,1.208,1.476,1.803,2.328
			c0.595,0.852,1.137,1.686,1.627,2.502c0.49,0.817,0.863,1.552,1.12,2.205l-1.54,0.735c-0.234-0.653-0.59-1.394-1.068-2.222
			c-0.479-0.828-1.009-1.674-1.592-2.538C110.121,23.497,109.526,22.703,108.919,21.98z"/>
		<path fill="#737F8A" d="M149.24,21.665v1.54h-30.905v-1.54h14.56v-3.99h-11.62v-1.47h11.62V12.6h-10.955V1.435h23.45V12.6h-10.85
			v3.605h11.655v1.47H134.54v3.99H149.24z M120.049,31.85l-1.47-0.77c0.816-0.677,1.575-1.557,2.275-2.642
			c0.7-1.085,1.271-2.164,1.715-3.238l1.54,0.42c-0.443,1.074-1.015,2.188-1.715,3.343C121.694,30.117,120.913,31.08,120.049,31.85z
			 M123.549,11.095h9.345v-8.19h-9.345V11.095z M126.209,4.48l1.225-0.455c0.56,0.863,1.085,1.797,1.575,2.8
			c0.49,1.003,0.816,1.867,0.98,2.59l-1.33,0.56c-0.164-0.746-0.479-1.633-0.945-2.66S126.746,5.343,126.209,4.48z M128.484,25.865
			l1.575-0.07c0.233,0.863,0.425,1.82,0.578,2.87c0.151,1.05,0.228,1.913,0.228,2.59L129.22,31.5c0-0.7-0.065-1.587-0.193-2.66
			C128.898,27.767,128.717,26.775,128.484,25.865z M143.709,11.095v-8.19h-9.17v8.19H143.709z M135.765,25.9l1.575-0.28
			c0.42,0.864,0.828,1.814,1.225,2.853c0.396,1.038,0.688,1.908,0.875,2.607l-1.645,0.42c-0.164-0.724-0.438-1.616-0.822-2.678
			C136.587,27.761,136.185,26.787,135.765,25.9z M137.794,10.43l-1.12-0.56c0.35-0.513,0.718-1.114,1.103-1.802
			c0.385-0.688,0.758-1.388,1.12-2.1c0.361-0.711,0.659-1.359,0.893-1.942l1.4,0.595c-0.514,0.98-1.073,2.007-1.68,3.08
			C138.902,8.773,138.331,9.683,137.794,10.43z M142.975,25.795l1.505-0.56c0.606,0.56,1.213,1.19,1.82,1.89
			c0.607,0.7,1.173,1.388,1.698,2.065c0.525,0.676,0.95,1.283,1.277,1.82l-1.54,0.7c-0.303-0.537-0.717-1.15-1.242-1.838
			c-0.525-0.688-1.091-1.388-1.698-2.1C144.188,27.061,143.581,26.402,142.975,25.795z"/>
		<path fill="#737F8A" d="M166.879,15.645h-1.435V12.25h-10.29v3.395h-1.4v-4.76h1.995V1.33h9.135v9.555h1.995V15.645z
			 M164.885,15.085V29.82c0,0.863-0.28,1.4-0.84,1.61c-0.327,0.117-0.788,0.187-1.382,0.21c-0.595,0.023-1.383,0.035-2.363,0.035
			c-0.023-0.187-0.093-0.409-0.21-0.665c-0.117-0.257-0.233-0.49-0.35-0.7c0.746,0.023,1.405,0.035,1.977,0.035
			s0.939-0.012,1.103-0.035c0.35,0,0.525-0.163,0.525-0.49v-4.41h-6.125v6.3h-1.505V15.085H164.885z M157.149,2.73v8.155h2.24v-5.39
			h4.025V2.73H157.149z M163.345,16.45h-6.125v3.045h6.125V16.45z M157.22,24.045h6.125v-3.15h-6.125V24.045z M163.415,10.885V6.79
			h-2.73v4.095H163.415z M178.604,29.505h6.09v1.4h-18.13v-1.4h5.81c-0.093-0.583-0.257-1.23-0.49-1.942
			c-0.234-0.712-0.514-1.359-0.84-1.943l1.33-0.42c0.35,0.607,0.653,1.29,0.91,2.047c0.256,0.759,0.431,1.417,0.525,1.978
			l-0.805,0.28h5.04l-0.7-0.28c0.28-0.583,0.577-1.26,0.892-2.03c0.315-0.77,0.554-1.446,0.718-2.03l1.47,0.525
			c-0.303,0.653-0.612,1.318-0.927,1.995C179.182,28.362,178.885,28.968,178.604,29.505z M184.52,15.225v1.4h-17.395v-1.4H184.52z
			 M183.084,3.395v9.765h-14.7V3.395h4.305V0h1.4v3.395h3.08V0h1.4v3.395H183.084z M182.314,24.955h-13.16v-6.3h13.16V24.955z
			 M169.785,4.725V7.56h3.045V4.725H169.785z M169.785,8.925v2.905h3.045V8.925H169.785z M170.66,19.95v3.71h10.115v-3.71H170.66z
			 M174.089,7.56h3.08V4.725h-3.08V7.56z M177.169,8.925h-3.08v2.905h3.08V8.925z M181.615,7.56V4.725h-3.185V7.56H181.615z
			 M181.615,11.83V8.925h-3.185v2.905H181.615z"/>
	</g>
</g>
<g>
	<g>
		<path fill="#6FCACA" d="M37.45,334.975L21,363.465l-16.45-28.49H37.45z"/>
		<path fill="#6FCACA" d="M58.87,334.625v22.329h-8.05v2.729h-1.645v-25.059H58.87z M57.294,336.2h-6.475v8.609h6.475V336.2z
			 M50.819,355.379h6.475v-9.029h-6.475V355.379z M60.41,333.75h17.815c0,0.42-0.012,0.699-0.035,0.84
			c-0.14,2.59-0.292,4.672-0.455,6.247c-0.164,1.575-0.344,2.771-0.542,3.587c-0.198,0.817-0.449,1.389-0.752,1.715
			c-0.49,0.49-1.144,0.748-1.96,0.771c-0.374,0.023-0.91,0.03-1.61,0.018c-0.7-0.011-1.447-0.04-2.24-0.087
			c-0.023-0.257-0.07-0.525-0.14-0.806c-0.07-0.28-0.187-0.536-0.35-0.771c0.84,0.07,1.615,0.117,2.327,0.141
			s1.196,0.035,1.453,0.035c0.537,0,0.921-0.117,1.155-0.35c0.21-0.233,0.396-0.701,0.56-1.4c0.163-0.7,0.32-1.727,0.472-3.08
			c0.151-1.354,0.286-3.115,0.403-5.285h-7.805c-0.28,1.75-0.718,3.418-1.313,5.005c-0.595,1.587-1.441,3.022-2.538,4.306
			c-1.097,1.283-2.555,2.345-4.375,3.185c-0.117-0.187-0.28-0.402-0.49-0.647c-0.21-0.245-0.409-0.438-0.595-0.578
			c1.727-0.746,3.103-1.703,4.13-2.869c1.026-1.167,1.808-2.473,2.345-3.92c0.537-1.447,0.921-2.94,1.155-4.48H60.41V333.75z
			 M61.6,363.674v-14.069h16.205v13.93H76.16v-1.68h-12.95v1.819H61.6z M76.16,351.18h-12.95v9.1h12.95V351.18z"/>
		<path fill="#6FCACA" d="M89.81,345.405l-0.945,1.365c-0.42-0.396-0.963-0.828-1.628-1.295c-0.665-0.467-1.377-0.922-2.135-1.365
			c-0.758-0.443-1.511-0.828-2.257-1.155l0.98-1.19c0.723,0.305,1.464,0.672,2.222,1.104s1.47,0.863,2.135,1.295
			S89.39,345.008,89.81,345.405z M89.319,350.9l1.33,0.944c-0.513,1.214-1.08,2.498-1.697,3.851
			c-0.619,1.354-1.249,2.677-1.89,3.973c-0.642,1.295-1.254,2.468-1.837,3.517l-1.47-1.014c0.537-0.91,1.132-1.996,1.785-3.256
			c0.653-1.26,1.313-2.59,1.978-3.99C88.182,353.525,88.783,352.183,89.319,350.9z M91.455,336.375l-1.015,1.364
			c-0.397-0.442-0.916-0.915-1.558-1.417s-1.336-0.992-2.083-1.471c-0.747-0.478-1.482-0.893-2.205-1.242l1.015-1.189
			c0.7,0.35,1.423,0.752,2.17,1.207s1.447,0.922,2.1,1.4S91.058,335.955,91.455,336.375z M112.805,351.285h-7.035v10.431
			c0,0.489-0.07,0.869-0.21,1.137s-0.409,0.461-0.805,0.578c-0.374,0.14-0.934,0.221-1.68,0.244c-0.747,0.023-1.727,0.023-2.94,0
			c-0.047-0.187-0.123-0.42-0.228-0.699c-0.105-0.28-0.205-0.537-0.298-0.771c0.957,0.022,1.791,0.035,2.502,0.035s1.184,0,1.417,0
			c0.42-0.023,0.63-0.198,0.63-0.524v-10.431h-6.72v-11.726h5.845c0.187-0.652,0.373-1.376,0.56-2.17
			c0.187-0.793,0.326-1.516,0.42-2.17h-9.345v7.945c0,1.494-0.052,3.115-0.157,4.865s-0.315,3.529-0.63,5.338
			c-0.315,1.809-0.782,3.57-1.4,5.285c-0.619,1.715-1.441,3.307-2.467,4.777c-0.14-0.117-0.356-0.27-0.647-0.455
			c-0.292-0.188-0.531-0.315-0.718-0.385c1.003-1.447,1.796-2.993,2.38-4.639c0.583-1.645,1.021-3.33,1.313-5.057
			c0.292-1.727,0.478-3.418,0.56-5.075c0.082-1.657,0.123-3.208,0.123-4.655v-9.52h21.07v1.574h-8.785l0.56,0.141
			c-0.21,0.677-0.42,1.389-0.63,2.135c-0.21,0.747-0.409,1.436-0.595,2.064h7.91V351.285z M99.049,353.559l1.575,0.421
			c-0.583,1.377-1.295,2.747-2.135,4.112c-0.84,1.365-1.704,2.525-2.59,3.482c-0.164-0.117-0.391-0.279-0.683-0.49
			c-0.292-0.209-0.542-0.361-0.752-0.455c0.933-0.933,1.797-2.023,2.59-3.271C97.848,356.11,98.513,354.843,99.049,353.559z
			 M99.015,340.995v3.676h12.18v-3.676H99.015z M99.015,346.105v3.745h12.18v-3.745H99.015z M108.919,353.98l1.435-0.63
			c0.606,0.699,1.208,1.476,1.803,2.327c0.595,0.853,1.137,1.687,1.627,2.503c0.49,0.816,0.863,1.552,1.12,2.205l-1.54,0.734
			c-0.234-0.652-0.59-1.395-1.068-2.223c-0.479-0.828-1.009-1.674-1.592-2.537C110.121,355.497,109.526,354.704,108.919,353.98z"/>
		<path fill="#6FCACA" d="M149.24,353.665v1.54h-30.905v-1.54h14.56v-3.99h-11.62v-1.47h11.62V344.6h-10.955v-11.166h23.45V344.6
			h-10.85v3.604h11.655v1.47H134.54v3.99H149.24z M120.049,363.85l-1.47-0.771c0.816-0.677,1.575-1.558,2.275-2.642
			c0.7-1.086,1.271-2.164,1.715-3.238l1.54,0.42c-0.443,1.074-1.015,2.188-1.715,3.343S120.913,363.08,120.049,363.85z
			 M123.549,343.094h9.345v-8.189h-9.345V343.094z M126.209,336.48l1.225-0.455c0.56,0.863,1.085,1.797,1.575,2.8
			c0.49,1.004,0.816,1.867,0.98,2.59l-1.33,0.561c-0.164-0.746-0.479-1.633-0.945-2.66S126.746,337.343,126.209,336.48z
			 M128.484,357.865l1.575-0.069c0.233,0.863,0.425,1.819,0.578,2.869c0.151,1.051,0.228,1.913,0.228,2.59l-1.645,0.246
			c0-0.701-0.065-1.588-0.193-2.66C128.898,359.766,128.717,358.775,128.484,357.865z M143.709,343.094v-8.189h-9.17v8.189H143.709z
			 M135.765,357.9l1.575-0.28c0.42,0.863,0.828,1.814,1.225,2.853c0.396,1.038,0.688,1.907,0.875,2.607l-1.645,0.421
			c-0.164-0.725-0.438-1.617-0.822-2.678C136.587,359.76,136.185,358.787,135.765,357.9z M137.794,342.43l-1.12-0.561
			c0.35-0.513,0.718-1.113,1.103-1.803c0.385-0.688,0.758-1.388,1.12-2.1c0.361-0.711,0.659-1.359,0.893-1.942l1.4,0.595
			c-0.514,0.98-1.073,2.008-1.68,3.08C138.902,340.774,138.331,341.683,137.794,342.43z M142.975,357.795l1.505-0.561
			c0.606,0.561,1.213,1.189,1.82,1.891c0.607,0.699,1.173,1.388,1.698,2.064c0.525,0.676,0.95,1.283,1.277,1.82l-1.54,0.699
			c-0.303-0.537-0.717-1.149-1.242-1.838c-0.525-0.688-1.091-1.387-1.698-2.1C144.188,359.061,143.581,358.402,142.975,357.795z"/>
		<path fill="#6FCACA" d="M166.879,347.645h-1.435v-3.395h-10.29v3.395h-1.4v-4.76h1.995v-9.556h9.135v9.556h1.995V347.645z
			 M164.885,347.084v14.735c0,0.862-0.28,1.399-0.84,1.61c-0.327,0.116-0.788,0.186-1.382,0.209
			c-0.595,0.023-1.383,0.035-2.363,0.035c-0.023-0.187-0.093-0.408-0.21-0.664c-0.117-0.258-0.233-0.49-0.35-0.701
			c0.746,0.023,1.405,0.035,1.977,0.035s0.939-0.012,1.103-0.035c0.35,0,0.525-0.162,0.525-0.489v-4.41h-6.125v6.3h-1.505v-16.625
			H164.885z M157.149,334.73v8.155h2.24v-5.391h4.025v-2.765H157.149z M163.345,348.45h-6.125v3.045h6.125V348.45z M157.22,356.045
			h6.125v-3.15h-6.125V356.045z M163.415,342.885v-4.096h-2.73v4.096H163.415z M178.604,361.504h6.09v1.4h-18.13v-1.4h5.81
			c-0.093-0.582-0.257-1.23-0.49-1.941c-0.234-0.713-0.514-1.359-0.84-1.943l1.33-0.42c0.35,0.607,0.653,1.289,0.91,2.047
			c0.256,0.76,0.431,1.418,0.525,1.979l-0.805,0.279h5.04l-0.7-0.279c0.28-0.584,0.577-1.26,0.892-2.03
			c0.315-0.771,0.554-1.446,0.718-2.03l1.47,0.525c-0.303,0.653-0.612,1.318-0.927,1.994
			C179.182,360.362,178.885,360.968,178.604,361.504z M184.52,347.225v1.4h-17.395v-1.4H184.52z M183.084,335.395v9.765h-14.7
			v-9.765h4.305V332h1.4v3.395h3.08V332h1.4v3.395H183.084z M182.314,356.955h-13.16v-6.3h13.16V356.955z M169.785,336.725v2.834
			h3.045v-2.834H169.785z M169.785,340.924v2.905h3.045v-2.905H169.785z M170.66,351.95v3.71h10.115v-3.71H170.66z M174.089,339.559
			h3.08v-2.834h-3.08V339.559z M177.169,340.924h-3.08v2.905h3.08V340.924z M181.615,339.559v-2.834h-3.185v2.834H181.615z
			 M181.615,343.83v-2.905h-3.185v2.905H181.615z"/>
	</g>
</g>
<g>
</g>
<g>
</g>
<g>
</g>
<g>
</g>
<g>
</g>
<g>
</g>
</svg>
