<?xml version="1.0" encoding="UTF-8" standalone="no"?>
<!DOCTYPE svg PUBLIC "-//W3C//DTD SVG 1.1//EN" "http://www.w3.org/Graphics/SVG/1.1/DTD/svg11.dtd">
<svg width="100%" height="100%" viewBox="0 0 565 271" version="1.1" xmlns="http://www.w3.org/2000/svg" xmlns:xlink="http://www.w3.org/1999/xlink" xml:space="preserve" xmlns:serif="http://www.serif.com/" style="fill-rule:evenodd;clip-rule:evenodd;stroke-linejoin:round;stroke-miterlimit:2;">
    <g>
        <g transform="matrix(24.7459,0,0,20.8493,-2380.03,-2797.61)">
            <g transform="matrix(11.4243,0,0,13.5594,95.9597,145.886)">
                <path d="M0.4,-0.734L0.4,-0.705L0.605,-0.705L0.605,-0.603L0.325,-0.603L0.325,-0.573L0.605,-0.573L0.605,-0.467L0.391,-0.467L0.391,-0.437L0.605,-0.437L0.605,-0.331L0.381,-0.331L0.381,-0.302L0.605,-0.302L0.605,-0.193L0.336,-0.193L0.336,-0.164L0.605,-0.164L0.605,-0.033L0.634,-0.033L0.634,-0.164L0.937,-0.164L0.937,-0.193L0.634,-0.193L0.634,-0.302L0.894,-0.302L0.894,-0.331L0.634,-0.331L0.634,-0.437L0.86,-0.437L0.86,-0.573L0.943,-0.573L0.943,-0.603L0.86,-0.603L0.86,-0.734L0.634,-0.734L0.634,-0.831L0.605,-0.831L0.605,-0.734L0.4,-0.734ZM0.634,-0.573L0.83,-0.573L0.83,-0.467L0.634,-0.467L0.634,-0.573ZM0.634,-0.603L0.634,-0.705L0.83,-0.705L0.83,-0.603L0.634,-0.603ZM0.103,-0.426C0.103,-0.435 0.123,-0.443 0.128,-0.445L0.285,-0.445C0.27,-0.334 0.243,-0.239 0.207,-0.16C0.173,-0.207 0.146,-0.265 0.125,-0.339L0.099,-0.327C0.123,-0.245 0.154,-0.181 0.193,-0.131C0.154,-0.054 0.105,0.006 0.049,0.048C0.057,0.053 0.068,0.064 0.073,0.07C0.126,0.028 0.174,-0.03 0.214,-0.106C0.319,0.012 0.473,0.041 0.673,0.041L0.939,0.041C0.941,0.033 0.948,0.019 0.954,0.012L0.673,0.012C0.482,0.012 0.33,-0.016 0.228,-0.134C0.27,-0.223 0.302,-0.334 0.32,-0.469L0.302,-0.475L0.295,-0.474L0.152,-0.474C0.209,-0.548 0.267,-0.648 0.322,-0.754L0.298,-0.768L0.287,-0.761L0.071,-0.761L0.071,-0.731L0.273,-0.731C0.229,-0.634 0.164,-0.536 0.144,-0.51C0.125,-0.48 0.104,-0.458 0.088,-0.456C0.093,-0.449 0.1,-0.434 0.103,-0.426Z" style="fill:rgb(27,27,30);fill-rule:nonzero;"/>
            </g>
            <g transform="matrix(11.4243,0,0,13.5594,107.384,145.886)">
                <path d="M0.099,-0.816C0.142,-0.767 0.195,-0.698 0.222,-0.657L0.246,-0.672C0.221,-0.713 0.167,-0.778 0.123,-0.828L0.099,-0.816ZM0.437,-0.328L0.838,-0.328L0.838,-0.113L0.437,-0.113L0.437,-0.328ZM0.408,-0.358L0.408,-0.083L0.868,-0.083L0.868,-0.358L0.647,-0.358L0.647,-0.481L0.943,-0.481L0.943,-0.511L0.647,-0.511L0.647,-0.663L0.905,-0.663L0.905,-0.692L0.647,-0.692L0.647,-0.83L0.618,-0.83L0.618,-0.692L0.46,-0.692C0.479,-0.729 0.496,-0.768 0.51,-0.807L0.48,-0.814C0.447,-0.716 0.393,-0.62 0.329,-0.554C0.338,-0.55 0.351,-0.542 0.357,-0.537C0.388,-0.572 0.418,-0.615 0.445,-0.663L0.618,-0.663L0.618,-0.511L0.316,-0.511L0.316,-0.481L0.618,-0.481L0.618,-0.358L0.408,-0.358ZM0.061,-0.304C0.068,-0.311 0.091,-0.317 0.119,-0.317L0.253,-0.317C0.22,-0.138 0.14,-0.016 0.039,0.051C0.046,0.056 0.057,0.066 0.062,0.074C0.115,0.038 0.162,-0.013 0.2,-0.08C0.28,0.036 0.415,0.057 0.636,0.057C0.739,0.057 0.863,0.055 0.946,0.05C0.948,0.041 0.952,0.025 0.958,0.017C0.867,0.024 0.738,0.027 0.635,0.027C0.427,0.027 0.286,0.009 0.214,-0.106C0.247,-0.17 0.272,-0.248 0.288,-0.34L0.271,-0.347L0.264,-0.346L0.107,-0.346C0.168,-0.413 0.257,-0.531 0.304,-0.593L0.278,-0.607L0.267,-0.602L0.052,-0.602L0.052,-0.572L0.245,-0.572C0.201,-0.51 0.118,-0.399 0.089,-0.371C0.073,-0.352 0.057,-0.346 0.044,-0.342C0.049,-0.333 0.058,-0.314 0.061,-0.304Z" style="fill:rgb(27,27,30);fill-rule:nonzero;"/>
            </g>
        </g>
    </g>
</svg>
