<?xml version="1.0" encoding="UTF-8" standalone="no"?>
<!DOCTYPE svg PUBLIC "-//W3C//DTD SVG 1.1//EN" "http://www.w3.org/Graphics/SVG/1.1/DTD/svg11.dtd">
<svg width="100%" height="100%" viewBox="0 0 565 271" version="1.1" xmlns="http://www.w3.org/2000/svg" xmlns:xlink="http://www.w3.org/1999/xlink" xml:space="preserve" xmlns:serif="http://www.serif.com/" style="fill-rule:evenodd;clip-rule:evenodd;stroke-linejoin:round;stroke-miterlimit:2;">
    <g>
        <g transform="matrix(24.7459,0,0,20.8493,-2380.03,-2797.61)">
            <g transform="matrix(11.4243,0,0,13.5594,95.9597,145.886)">
                <path d="M0.133,-0.343L0.081,-0.323C0.105,-0.242 0.136,-0.178 0.174,-0.127C0.137,-0.059 0.092,-0.005 0.039,0.033C0.054,0.042 0.079,0.065 0.089,0.078C0.138,0.04 0.181,-0.011 0.217,-0.076C0.323,0.027 0.469,0.053 0.656,0.053L0.934,0.053C0.938,0.035 0.95,0.005 0.961,-0.009C0.913,-0.008 0.695,-0.008 0.658,-0.008C0.485,-0.008 0.344,-0.031 0.245,-0.132C0.286,-0.225 0.316,-0.34 0.332,-0.48L0.294,-0.49L0.281,-0.488L0.159,-0.488C0.214,-0.566 0.294,-0.687 0.335,-0.755L0.293,-0.78L0.276,-0.775L0.065,-0.775L0.065,-0.714L0.237,-0.714C0.188,-0.639 0.114,-0.532 0.075,-0.479L0.093,-0.428L0.262,-0.428C0.25,-0.335 0.229,-0.255 0.201,-0.187C0.174,-0.228 0.151,-0.28 0.133,-0.342L0.133,-0.343ZM0.395,-0.751L0.395,-0.697L0.585,-0.697L0.585,-0.617L0.329,-0.617L0.329,-0.563L0.585,-0.563L0.585,-0.48L0.388,-0.48L0.388,-0.425L0.585,-0.425L0.585,-0.343L0.379,-0.343L0.379,-0.291L0.585,-0.291L0.585,-0.206L0.337,-0.206L0.337,-0.152L0.585,-0.152L0.585,-0.046L0.649,-0.046L0.649,-0.152L0.937,-0.152L0.937,-0.206L0.649,-0.206L0.649,-0.291L0.898,-0.291L0.898,-0.343L0.649,-0.343L0.649,-0.425L0.873,-0.425L0.873,-0.563L0.945,-0.563L0.945,-0.617L0.873,-0.617L0.873,-0.751L0.649,-0.751L0.649,-0.838L0.585,-0.838L0.585,-0.751L0.395,-0.751ZM0.649,-0.563L0.812,-0.563L0.812,-0.48L0.649,-0.48L0.649,-0.563ZM0.649,-0.617L0.649,-0.697L0.812,-0.697L0.812,-0.617L0.649,-0.617Z" style="fill:rgb(27,27,30);fill-rule:nonzero;"/>
            </g>
            <g transform="matrix(11.4243,0,0,13.5594,107.384,145.886)">
                <path d="M0.086,-0.807C0.13,-0.758 0.185,-0.689 0.213,-0.647L0.264,-0.683C0.237,-0.724 0.182,-0.788 0.137,-0.837L0.086,-0.807ZM0.472,-0.31L0.814,-0.31L0.814,-0.142L0.472,-0.142L0.472,-0.31ZM0.048,-0.608L0.048,-0.551L0.21,-0.551C0.163,-0.487 0.094,-0.397 0.053,-0.349L0.072,-0.302L0.241,-0.302C0.206,-0.141 0.131,-0.029 0.031,0.034C0.045,0.044 0.069,0.068 0.078,0.083C0.13,0.048 0.176,0.001 0.213,-0.061C0.293,0.045 0.419,0.065 0.619,0.065C0.728,0.065 0.853,0.062 0.945,0.057C0.949,0.038 0.958,0.006 0.968,-0.01C0.868,-0.001 0.724,0.004 0.62,0.004C0.436,0.004 0.309,-0.011 0.242,-0.113C0.273,-0.178 0.297,-0.255 0.312,-0.346L0.278,-0.359L0.265,-0.357L0.136,-0.357C0.19,-0.427 0.267,-0.53 0.31,-0.589L0.265,-0.611L0.256,-0.608L0.048,-0.608ZM0.408,-0.367L0.408,-0.086L0.88,-0.086L0.88,-0.367L0.67,-0.367L0.67,-0.469L0.947,-0.469L0.947,-0.527L0.67,-0.527L0.67,-0.651L0.91,-0.651L0.91,-0.707L0.67,-0.707L0.67,-0.834L0.607,-0.834L0.607,-0.707L0.484,-0.707C0.5,-0.739 0.514,-0.773 0.525,-0.807L0.464,-0.821C0.435,-0.729 0.386,-0.638 0.326,-0.577C0.342,-0.57 0.369,-0.555 0.381,-0.545C0.407,-0.575 0.432,-0.611 0.455,-0.651L0.607,-0.651L0.607,-0.527L0.325,-0.527L0.325,-0.469L0.607,-0.469L0.607,-0.367L0.408,-0.367Z" style="fill:rgb(27,27,30);fill-rule:nonzero;"/>
            </g>
        </g>
    </g>
</svg>
