<?xml version="1.0" encoding="UTF-8" standalone="no"?>
<!DOCTYPE svg PUBLIC "-//W3C//DTD SVG 1.1//EN" "http://www.w3.org/Graphics/SVG/1.1/DTD/svg11.dtd">
<svg width="100%" height="100%" viewBox="0 0 565 271" version="1.1" xmlns="http://www.w3.org/2000/svg" xmlns:xlink="http://www.w3.org/1999/xlink" xml:space="preserve" xmlns:serif="http://www.serif.com/" style="fill-rule:evenodd;clip-rule:evenodd;stroke-linejoin:round;stroke-miterlimit:2;">
    <g>
        <g transform="matrix(24.7459,0,0,20.8493,-2380.03,-2797.61)">
            <g transform="matrix(11.4243,0,0,13.5594,95.9597,145.886)">
                <path d="M0.385,-0.787L0.385,-0.679L0.544,-0.679L0.544,-0.647L0.337,-0.647L0.337,-0.541L0.544,-0.541L0.544,-0.507L0.381,-0.507L0.381,-0.399L0.544,-0.399L0.544,-0.367L0.376,-0.367L0.376,-0.267L0.544,-0.267L0.544,-0.234L0.338,-0.234L0.338,-0.125L0.544,-0.125L0.544,-0.075L0.681,-0.075L0.681,-0.125L0.936,-0.125L0.936,-0.234L0.681,-0.234L0.681,-0.267L0.907,-0.267L0.907,-0.367L0.681,-0.367L0.681,-0.399L0.902,-0.399L0.902,-0.541L0.949,-0.541L0.949,-0.647L0.902,-0.647L0.902,-0.787L0.681,-0.787L0.681,-0.854L0.544,-0.854L0.544,-0.787L0.385,-0.787ZM0.681,-0.541L0.775,-0.541L0.775,-0.507L0.681,-0.507L0.681,-0.541ZM0.681,-0.647L0.681,-0.679L0.775,-0.679L0.775,-0.647L0.681,-0.647ZM0.087,-0.342C0.087,-0.357 0.124,-0.379 0.151,-0.394L0.217,-0.394C0.21,-0.342 0.2,-0.294 0.188,-0.252C0.173,-0.28 0.16,-0.313 0.149,-0.35L0.044,-0.315C0.068,-0.235 0.097,-0.171 0.132,-0.119C0.102,-0.069 0.064,-0.029 0.018,0.001C0.048,0.019 0.101,0.068 0.122,0.095C0.162,0.066 0.197,0.028 0.226,-0.018C0.328,0.059 0.46,0.078 0.621,0.078L0.924,0.078C0.932,0.039 0.955,-0.024 0.975,-0.054C0.895,-0.051 0.692,-0.051 0.625,-0.051C0.489,-0.052 0.372,-0.066 0.284,-0.134C0.321,-0.232 0.345,-0.355 0.357,-0.504L0.276,-0.522L0.252,-0.519L0.246,-0.519C0.287,-0.593 0.329,-0.678 0.363,-0.764L0.277,-0.822L0.23,-0.804L0.052,-0.804L0.052,-0.679L0.184,-0.679C0.153,-0.605 0.12,-0.544 0.106,-0.522C0.084,-0.487 0.054,-0.458 0.032,-0.451C0.05,-0.423 0.078,-0.368 0.087,-0.342Z" style="fill:rgb(27,27,30);fill-rule:nonzero;"/>
            </g>
            <g transform="matrix(11.4243,0,0,13.5594,107.384,145.886)">
                <path d="M0.059,-0.789C0.106,-0.739 0.165,-0.669 0.193,-0.626L0.303,-0.707C0.272,-0.747 0.215,-0.809 0.166,-0.856L0.059,-0.789ZM0.545,-0.273L0.762,-0.273L0.762,-0.203L0.545,-0.203L0.545,-0.273ZM0.409,-0.385L0.409,-0.091L0.906,-0.091L0.906,-0.385L0.719,-0.385L0.719,-0.442L0.957,-0.442L0.957,-0.56L0.719,-0.56L0.719,-0.624L0.92,-0.624L0.92,-0.738L0.719,-0.738L0.719,-0.844L0.584,-0.844L0.584,-0.738L0.534,-0.738C0.543,-0.761 0.551,-0.784 0.558,-0.808L0.431,-0.836C0.41,-0.758 0.37,-0.677 0.319,-0.626C0.35,-0.613 0.407,-0.583 0.433,-0.563C0.448,-0.581 0.462,-0.601 0.476,-0.624L0.584,-0.624L0.584,-0.56L0.344,-0.56L0.344,-0.442L0.584,-0.442L0.584,-0.385L0.409,-0.385ZM0.061,-0.254C0.07,-0.263 0.101,-0.27 0.122,-0.27L0.184,-0.27C0.153,-0.145 0.092,-0.054 0.005,-0.001C0.034,0.019 0.084,0.072 0.103,0.101C0.15,0.069 0.192,0.026 0.226,-0.03C0.302,0.064 0.412,0.082 0.584,0.082C0.704,0.082 0.833,0.078 0.943,0.072C0.95,0.031 0.97,-0.035 0.99,-0.066C0.87,-0.053 0.694,-0.045 0.587,-0.046C0.441,-0.046 0.339,-0.058 0.282,-0.147C0.305,-0.208 0.322,-0.278 0.334,-0.358L0.261,-0.384L0.238,-0.381L0.201,-0.381C0.251,-0.446 0.31,-0.532 0.346,-0.587L0.25,-0.628L0.229,-0.62L0.04,-0.62L0.04,-0.506L0.142,-0.506C0.112,-0.465 0.083,-0.427 0.069,-0.413C0.049,-0.393 0.031,-0.385 0.012,-0.38C0.026,-0.353 0.053,-0.287 0.061,-0.254Z" style="fill:rgb(27,27,30);fill-rule:nonzero;"/>
            </g>
        </g>
    </g>
</svg>
