<?xml version="1.0" encoding="UTF-8" standalone="no"?>
<!DOCTYPE svg PUBLIC "-//W3C//DTD SVG 1.1//EN" "http://www.w3.org/Graphics/SVG/1.1/DTD/svg11.dtd">
<svg width="100%" height="100%" viewBox="0 0 565 271" version="1.1" xmlns="http://www.w3.org/2000/svg" xmlns:xlink="http://www.w3.org/1999/xlink" xml:space="preserve" xmlns:serif="http://www.serif.com/" style="fill-rule:evenodd;clip-rule:evenodd;stroke-linejoin:round;stroke-miterlimit:2;">
    <g transform="matrix(24.7459,0,0,20.8493,-2380.03,-2797.61)">
        <g>
            <g transform="matrix(11.4243,0,0,13.5594,95.9597,145.886)">
                <path d="M0.518,-0.245C0.49,-0.173 0.448,-0.091 0.408,-0.035C0.422,-0.027 0.447,-0.011 0.458,-0.002C0.496,-0.061 0.542,-0.15 0.575,-0.227L0.518,-0.245ZM0.791,-0.228C0.832,-0.156 0.882,-0.059 0.904,-0.002L0.959,-0.03C0.934,-0.085 0.883,-0.179 0.841,-0.249L0.791,-0.228ZM0.169,-0.65L0.169,-0.601L0.338,-0.601L0.338,-0.65L0.169,-0.65ZM0.437,-0.361L0.437,-0.3L0.658,-0.3L0.658,0.004C0.658,0.016 0.655,0.02 0.642,0.021C0.63,0.021 0.589,0.022 0.544,0.02C0.552,0.036 0.562,0.061 0.565,0.077C0.627,0.077 0.665,0.077 0.689,0.067C0.713,0.057 0.721,0.041 0.721,0.004L0.721,-0.3L0.951,-0.3L0.951,-0.361L0.721,-0.361L0.721,-0.487L0.881,-0.487L0.881,-0.547L0.501,-0.547L0.501,-0.487L0.658,-0.487L0.658,-0.361L0.437,-0.361ZM0.691,-0.844C0.632,-0.742 0.521,-0.646 0.41,-0.593C0.424,-0.581 0.441,-0.56 0.45,-0.545C0.536,-0.59 0.621,-0.659 0.685,-0.737C0.757,-0.653 0.836,-0.592 0.925,-0.538C0.934,-0.557 0.952,-0.579 0.968,-0.593C0.877,-0.641 0.79,-0.698 0.719,-0.783L0.743,-0.821L0.691,-0.844ZM0.324,-0.347L0.324,-0.254L0.163,-0.254L0.163,-0.347L0.324,-0.347ZM0.324,-0.398L0.163,-0.398L0.163,-0.483L0.324,-0.483L0.324,-0.398ZM0.083,0.078C0.1,0.063 0.128,0.05 0.332,-0.036C0.348,-0.004 0.362,0.025 0.371,0.048L0.424,0.02C0.402,-0.029 0.356,-0.116 0.318,-0.18L0.268,-0.159L0.309,-0.082L0.163,-0.025L0.163,-0.202L0.383,-0.202L0.383,-0.535L0.102,-0.535L0.102,-0.038C0.102,-0.002 0.075,0.011 0.059,0.017C0.069,0.032 0.08,0.061 0.083,0.078ZM0.243,-0.845C0.197,-0.759 0.114,-0.679 0.034,-0.628C0.045,-0.614 0.061,-0.58 0.067,-0.567C0.132,-0.612 0.197,-0.675 0.248,-0.744C0.3,-0.71 0.36,-0.667 0.392,-0.64L0.425,-0.692C0.392,-0.719 0.332,-0.759 0.28,-0.791L0.3,-0.825L0.243,-0.845Z" style="fill:rgb(27,27,30);fill-rule:nonzero;"/>
            </g>
            <g transform="matrix(11.4243,0,0,13.5594,107.384,145.886)">
                <path d="M0.472,-0.633L0.472,-0.577L0.786,-0.577L0.786,-0.633L0.472,-0.633ZM0.191,-0.647L0.191,-0.599L0.361,-0.599L0.361,-0.647L0.191,-0.647ZM0.466,-0.789L0.466,-0.727L0.862,-0.727L0.862,-0.012C0.862,0.006 0.854,0.013 0.837,0.014C0.818,0.014 0.759,0.015 0.685,0.013C0.697,0.031 0.709,0.061 0.713,0.078C0.805,0.079 0.852,0.077 0.882,0.066C0.914,0.055 0.926,0.032 0.926,-0.012L0.926,-0.789L0.466,-0.789ZM0.552,-0.427L0.702,-0.427L0.702,-0.227L0.552,-0.227L0.552,-0.427ZM0.495,-0.484L0.495,-0.087L0.552,-0.087L0.552,-0.169L0.758,-0.169L0.758,-0.484L0.495,-0.484ZM0.357,-0.351L0.357,-0.254L0.173,-0.254L0.173,-0.351L0.357,-0.351ZM0.357,-0.402L0.173,-0.402L0.173,-0.483L0.357,-0.483L0.357,-0.402ZM0.098,0.077C0.116,0.062 0.146,0.048 0.371,-0.044C0.389,-0.009 0.404,0.024 0.414,0.049L0.468,0.022C0.446,-0.026 0.402,-0.111 0.364,-0.174L0.314,-0.153L0.348,-0.089L0.173,-0.022L0.173,-0.201L0.419,-0.201L0.419,-0.535L0.11,-0.535L0.11,-0.043C0.11,-0.006 0.087,0.009 0.072,0.016C0.082,0.031 0.094,0.061 0.098,0.077ZM0.266,-0.843C0.214,-0.756 0.119,-0.677 0.029,-0.627C0.04,-0.612 0.056,-0.578 0.061,-0.565C0.134,-0.61 0.21,-0.674 0.269,-0.745C0.322,-0.711 0.385,-0.668 0.419,-0.64L0.452,-0.693C0.419,-0.719 0.356,-0.76 0.303,-0.791L0.324,-0.823L0.266,-0.843Z" style="fill:rgb(27,27,30);fill-rule:nonzero;"/>
            </g>
        </g>
    </g>
</svg>
