<?xml version="1.0" encoding="UTF-8" standalone="no"?>
<!DOCTYPE svg PUBLIC "-//W3C//DTD SVG 1.1//EN" "http://www.w3.org/Graphics/SVG/1.1/DTD/svg11.dtd">
<svg width="100%" height="100%" viewBox="0 0 565 271" version="1.1" xmlns="http://www.w3.org/2000/svg" xmlns:xlink="http://www.w3.org/1999/xlink" xml:space="preserve" xmlns:serif="http://www.serif.com/" style="fill-rule:evenodd;clip-rule:evenodd;stroke-linejoin:round;stroke-miterlimit:2;">
    <g transform="matrix(24.7459,0,0,20.8493,-2380.03,-2797.61)">
        <g>
            <g transform="matrix(11.4243,0,0,13.5594,95.9597,145.886)">
                <path d="M0.69,-0.77C0.744,-0.673 0.842,-0.557 0.934,-0.484C0.944,-0.503 0.959,-0.528 0.973,-0.544C0.88,-0.609 0.78,-0.726 0.719,-0.837L0.655,-0.837C0.61,-0.733 0.514,-0.608 0.415,-0.536C0.428,-0.521 0.444,-0.497 0.451,-0.48C0.55,-0.557 0.642,-0.674 0.69,-0.77ZM0.799,-0.228C0.842,-0.156 0.884,-0.06 0.899,-0L0.959,-0.024C0.942,-0.082 0.897,-0.177 0.854,-0.248L0.799,-0.228ZM0.521,-0.241C0.501,-0.166 0.468,-0.092 0.425,-0.038C0.404,-0.091 0.373,-0.153 0.343,-0.202L0.289,-0.178C0.306,-0.151 0.322,-0.12 0.337,-0.089L0.169,-0.034L0.169,-0.22L0.401,-0.22L0.401,-0.531L0.109,-0.531L0.109,-0.06C0.109,-0.022 0.086,-0.008 0.07,-0.001L0.097,0.054C0.114,0.044 0.142,0.037 0.359,-0.04C0.373,-0.008 0.384,0.023 0.39,0.048L0.445,0.02C0.441,0.005 0.436,-0.011 0.429,-0.029C0.444,-0.021 0.464,-0.009 0.473,-0.001C0.516,-0.058 0.555,-0.143 0.58,-0.228L0.521,-0.241ZM0.169,-0.355L0.341,-0.355L0.341,-0.27L0.169,-0.27L0.169,-0.355ZM0.169,-0.404L0.169,-0.481L0.341,-0.481L0.341,-0.404L0.169,-0.404ZM0.213,-0.838C0.178,-0.76 0.112,-0.663 0.022,-0.591C0.036,-0.583 0.056,-0.564 0.066,-0.55C0.102,-0.58 0.133,-0.612 0.161,-0.645L0.161,-0.597L0.364,-0.597L0.364,-0.647L0.163,-0.647C0.202,-0.693 0.232,-0.74 0.256,-0.782C0.311,-0.732 0.372,-0.659 0.404,-0.613L0.448,-0.658C0.413,-0.709 0.341,-0.784 0.281,-0.838L0.213,-0.838ZM0.45,-0.355L0.45,-0.296L0.662,-0.296L0.662,0.004C0.662,0.016 0.658,0.02 0.646,0.02C0.635,0.021 0.595,0.021 0.549,0.02C0.558,0.036 0.568,0.062 0.571,0.078C0.633,0.078 0.671,0.077 0.694,0.067C0.718,0.057 0.726,0.039 0.726,0.005L0.726,-0.296L0.943,-0.296L0.943,-0.355L0.726,-0.355L0.726,-0.473L0.869,-0.473L0.869,-0.531L0.521,-0.531L0.521,-0.473L0.662,-0.473L0.662,-0.355L0.45,-0.355Z" style="fill:rgb(27,27,30);fill-rule:nonzero;"/>
            </g>
            <g transform="matrix(11.4243,0,0,13.5594,107.384,145.886)">
                <path d="M0.472,-0.633L0.472,-0.577L0.786,-0.577L0.786,-0.633L0.472,-0.633ZM0.303,-0.178C0.324,-0.15 0.345,-0.118 0.364,-0.085L0.173,-0.031L0.173,-0.22L0.421,-0.22L0.421,-0.531L0.111,-0.531L0.111,-0.06C0.111,-0.022 0.088,-0.008 0.072,-0.001L0.099,0.054C0.116,0.045 0.147,0.037 0.39,-0.037C0.406,-0.006 0.418,0.022 0.425,0.046L0.483,0.019C0.463,-0.042 0.409,-0.133 0.357,-0.202L0.303,-0.178ZM0.173,-0.355L0.359,-0.355L0.359,-0.27L0.173,-0.27L0.173,-0.355ZM0.173,-0.404L0.173,-0.481L0.359,-0.481L0.359,-0.404L0.173,-0.404ZM0.229,-0.838C0.191,-0.76 0.12,-0.663 0.022,-0.591C0.036,-0.583 0.056,-0.564 0.066,-0.55C0.102,-0.577 0.133,-0.607 0.161,-0.637L0.161,-0.597L0.377,-0.597L0.377,-0.647L0.17,-0.647C0.212,-0.693 0.245,-0.74 0.27,-0.781C0.328,-0.73 0.392,-0.656 0.425,-0.609L0.472,-0.655C0.435,-0.706 0.358,-0.784 0.295,-0.838L0.229,-0.838ZM0.466,-0.789L0.466,-0.727L0.862,-0.727L0.862,-0.012C0.862,0.006 0.854,0.013 0.837,0.014C0.818,0.014 0.759,0.015 0.685,0.013C0.697,0.031 0.709,0.061 0.713,0.078C0.805,0.079 0.852,0.077 0.882,0.066C0.914,0.055 0.926,0.032 0.926,-0.012L0.926,-0.789L0.466,-0.789ZM0.552,-0.427L0.702,-0.427L0.702,-0.227L0.552,-0.227L0.552,-0.427ZM0.495,-0.484L0.495,-0.087L0.552,-0.087L0.552,-0.169L0.758,-0.169L0.758,-0.484L0.495,-0.484Z" style="fill:rgb(27,27,30);fill-rule:nonzero;"/>
            </g>
        </g>
    </g>
</svg>
