<?xml version="1.0" encoding="utf-8"?>
<!-- Generator: Adobe Illustrator 16.0.0, SVG Export Plug-In . SVG Version: 6.00 Build 0)  -->
<!DOCTYPE svg PUBLIC "-//W3C//DTD SVG 1.1//EN" "http://www.w3.org/Graphics/SVG/1.1/DTD/svg11.dtd" [
	<!ENTITY st0 "fill:#1B1B1E;">
]>
<svg version="1.1" id="Layer_1" xmlns="http://www.w3.org/2000/svg" xmlns:xlink="http://www.w3.org/1999/xlink" x="0px" y="0px"
	 width="568.485px" height="273.888px" viewBox="0 0 568.485 273.888" style="enable-background:new 0 0 568.485 273.888;"
	 xml:space="preserve">
<g>
	<path style="&st0;" d="M84.004,114.047c-0.583,1.75-1.8,3.163-3.646,4.229c-1.85,1.07-4.425,1.508-7.729,1.313
		c-8.167,19.251-18.134,36.022-29.897,50.314c-11.768,14.292-24.748,26.01-38.939,35.147L0,201.843
		c9.917-11.472,19.151-26.006,27.709-43.606c8.555-17.597,15.167-36.314,19.834-56.148L84.004,114.047z M240.053,38.793
		c7.584,5.643,13.9,10.455,18.959,14.438c5.054,3.987,9.625,7.83,13.709,11.521c-0.779,3.112-3.405,4.667-7.875,4.667h-75.837
		v165.674c0,6.613-0.925,12.542-2.771,17.793c-1.85,5.25-5.592,9.524-11.229,12.834c-5.642,3.304-14.292,5.441-25.959,6.417
		c-0.196-4.476-0.875-8.459-2.042-11.959c-1.167-3.501-2.917-6.321-5.25-8.459c-2.53-2.143-5.934-4.084-10.209-5.834
		c-4.279-1.75-10.405-3.208-18.376-4.375v-4.083c7,0.392,12.98,0.779,17.938,1.166c4.958,0.393,9.625,0.684,14,0.875
		c4.375,0.196,7.438,0.292,9.188,0.292c2.721,0,4.521-0.483,5.396-1.458c0.875-0.971,1.313-2.43,1.313-4.376V69.42h-40.251
		c-0.196,18.084-0.83,35.293-1.896,51.627c-1.071,16.334-3.309,31.748-6.709,46.231c-3.404,14.488-8.705,28.147-15.896,40.98
		c-7.196,12.834-17.018,24.697-29.459,35.586c-12.447,10.888-28.394,20.9-47.835,30.043l-3.5-4.667
		c19.055-12.834,33.785-26.543,44.189-41.127c10.4-14.584,17.838-30.189,22.314-46.814c4.471-16.626,7.191-34.223,8.167-52.795
		c0.971-18.566,1.554-38.255,1.75-59.064H3.792l-2.625-8.459H222.26L240.053,38.793z M106.463,0.583
		c13.025,2.917,23.43,6.759,31.21,11.521c7.775,4.767,13.417,9.821,16.917,15.167c3.5,5.351,5.295,10.405,5.396,15.168
		c0.096,4.767-1.121,8.704-3.646,11.813c-2.53,3.113-5.834,4.913-9.917,5.396c-4.083,0.487-8.559-0.921-13.417-4.229
		c-1.167-6.025-3.354-12.251-6.563-18.668s-6.809-12.638-10.792-18.667c-3.988-6.025-8.021-11.275-12.105-15.751L106.463,0.583z
		 M202.134,102.088c16.138,7.584,29.214,15.655,39.231,24.209c10.013,8.56,17.401,16.918,22.168,25.085
		c4.763,8.167,7.534,15.655,8.313,22.459c0.774,6.81,0.045,12.351-2.188,16.626c-2.237,4.279-5.496,6.709-9.771,7.292
		c-4.28,0.583-8.946-1.167-14.001-5.25c-1.559-9.722-4.813-19.88-9.771-30.48c-4.958-10.597-10.747-20.951-17.355-31.064
		c-6.613-10.108-13.322-19.055-20.126-26.834L202.134,102.088z"/>
	<path style="&st0;" d="M408.644,39.377c6.608,5.25,12.104,9.726,16.479,13.417c4.375,3.696,8.313,7.196,11.813,10.5
		c-0.779,3.113-3.404,4.667-7.876,4.667H357.6c-0.196,7.196-0.438,14.438-0.729,21.73s-0.729,14.438-1.313,21.438h28.876
		l14.001-14.584l26.251,21.876c-0.975,1.362-2.383,2.479-4.229,3.354c-1.851,0.875-4.426,1.412-7.73,1.604
		c-0.779,29.169-1.996,52.895-3.646,71.171c-1.654,18.279-3.938,32.376-6.854,42.293s-6.709,17.014-11.375,21.293
		c-4.084,3.888-8.801,6.709-14.146,8.459c-5.352,1.75-11.135,2.625-17.355,2.625c0-3.893-0.291-7.393-0.875-10.501
		c-0.584-3.112-1.654-5.642-3.209-7.583c-1.75-1.946-4.329-3.696-7.729-5.251c-3.405-1.554-7.247-2.816-11.522-3.792v-4.375
		c4.083,0.393,8.897,0.779,14.438,1.167c5.542,0.392,9.576,0.583,12.105,0.583c4.083,0,7.291-1.066,9.625-3.208
		c4.084-3.691,7.338-14.826,9.771-33.397c2.429-18.567,4.129-46.327,5.104-83.274h-32.084c-1.75,19.643-4.768,38.602-9.043,56.877
		c-4.279,18.28-10.646,35.54-19.104,51.773c-8.458,16.238-19.789,30.964-33.98,44.189l-3.208-2.917
		c11.667-19.251,20.317-39.813,25.959-61.69c5.638-21.876,9.188-44.627,10.646-68.253c1.458-23.626,1.896-47.493,1.313-71.607
		h-32.376l-2.333-8.459h100.338L408.644,39.377z M335.141,1.166c14.388,3.501,25.231,8.122,32.522,13.855
		c7.293,5.737,11.813,11.621,13.563,17.646c1.75,6.029,1.554,11.229-0.583,15.604c-2.143,4.375-5.447,7.146-9.918,8.313
		c-4.475,1.166-9.334-0.292-14.584-4.376c-0.779-8.554-3.55-17.354-8.313-26.396c-4.768-9.042-9.872-16.576-15.313-22.605
		L335.141,1.166z M500.524,15.459v0.291c3.691,13.03,9.087,25.331,16.188,36.897c7.096,11.572,15.168,22.122,24.209,31.647
		c9.043,9.53,18.23,17.501,27.564,23.918l-0.584,3.5c-5.642,2.334-10.258,5.351-13.854,9.042c-3.601,3.696-5.884,8.071-6.854,13.126
		c-12.059-12.638-22.363-28.438-30.918-47.398c-8.559-18.959-15.168-38.743-19.834-59.356c-4.863,13.03-11.039,26.352-18.521,39.96
		c-7.488,13.613-16.093,26.593-25.814,38.939c-9.726,12.351-20.518,23.188-32.376,32.522l-3.208-2.334
		c7-9.138,13.463-19.396,19.396-30.771c5.929-11.376,11.275-23.188,16.042-35.439c4.763-12.251,8.796-24.401,12.104-36.46
		c3.305-12.055,5.733-23.234,7.293-33.543l40.251,9.042c-0.392,1.75-1.362,3.163-2.917,4.229
		C507.131,14.342,504.411,15.071,500.524,15.459z M434.02,190.467c21.192,3.696,38.889,8.459,53.086,14.292
		c14.191,5.834,25.326,12.105,33.397,18.813c8.067,6.709,13.608,13.176,16.626,19.396c3.012,6.222,4.083,11.668,3.208,16.335
		c-0.875,4.666-3.309,7.875-7.292,9.625c-3.988,1.75-8.996,1.458-15.021-0.875c-5.643-8.75-13.321-17.793-23.043-27.126
		c-9.725-9.334-20.176-18.13-31.355-26.397c-11.184-8.263-21.83-15.313-31.939-21.146L434.02,190.467z M459.688,114.63
		c16.139,1.75,28.73,4.913,37.772,9.479c9.042,4.571,15.313,9.626,18.813,15.168c3.5,5.541,4.813,10.646,3.938,15.313
		s-3.354,7.976-7.438,9.917c-4.084,1.946-8.946,1.56-14.584-1.166c-2.529-5.251-6.08-10.692-10.646-16.334
		c-4.571-5.638-9.58-11.13-15.021-16.48c-5.446-5.346-10.601-9.867-15.459-13.563L459.688,114.63z"/>
</g>
</svg>
