<?xml version="1.0" encoding="utf-8"?>
<!-- Generator: Adobe Illustrator 16.0.0, SVG Export Plug-In . SVG Version: 6.00 Build 0)  -->
<!DOCTYPE svg PUBLIC "-//W3C//DTD SVG 1.1//EN" "http://www.w3.org/Graphics/SVG/1.1/DTD/svg11.dtd" [
	<!ENTITY st0 "fill:#1B1B1E;">
]>
<svg version="1.1" id="Layer_1" xmlns="http://www.w3.org/2000/svg" xmlns:xlink="http://www.w3.org/1999/xlink" x="0px" y="0px"
	 width="560.325px" height="272.144px" viewBox="0 0 560.325 272.144" style="enable-background:new 0 0 560.325 272.144;"
	 xml:space="preserve">
<g>
	<path style="&st0;" d="M269.519,64.171c-0.875,3.209-3.792,4.667-8.167,4.667h-75.255v165.679c0,19.251-4.959,32.961-39.086,35.877
		c-0.583-8.459-2.333-15.459-6.708-19.543c-4.375-4.375-11.376-7.584-26.543-9.625v-4.084c0,0,31.21,2.042,37.627,2.042
		c5.25,0,6.709-2.042,6.709-5.834V68.838h-47.837v194.263c-0.292,1.75-8.459,7.584-22.751,7.584h-4.959v-150.51
		c-1.458,2.334-4.667,3.501-9.042,3.209c-16.334,39.961-40.544,70.588-68.838,90.131l-3.792-3.208
		c19.543-24.502,37.919-63.296,47.253-104.133l34.419,10.793V68.838H2.333L0,60.379h219.057l17.793-22.168
		C236.85,38.211,256.977,53.379,269.519,64.171z M130.093,54.837c-3.792-17.793-17.501-39.377-29.46-53.087L103.549,0
		C182.013,18.085,158.97,74.964,130.093,54.837z M236.558,198.639c-2.625-30.335-23.043-67.088-41.711-92.173l3.5-2.042
		C290.812,154.886,266.602,225.183,236.558,198.639z"/>
	<path style="&st0;" d="M436.357,62.713c-0.875,3.208-3.792,4.667-7.876,4.667h-70.004c-0.584,15.459-1.167,30.919-2.334,45.795
		h32.961l14.293-14.585l26.252,22.169c-2.043,2.333-5.834,4.083-11.96,4.667c-2.625,85.172-8.167,120.175-21.876,133.009
		c-7.876,7.584-18.96,11.084-31.795,11.084c0.293-8.168-0.582-14.584-4.083-18.376c-3.792-3.792-11.376-7.001-20.418-8.751v-4.667
		c8.459,0.875,22.751,2.042,28.002,2.042c4.667,0,7.001-0.875,9.626-3.208c7.875-7.293,12.542-43.17,14.875-114.925h-36.46
		c-5.542,58.921-21.002,111.716-66.796,150.51l-2.918-2.916c39.086-56.879,43.754-127.76,42.295-201.848h-35.002l-2.334-8.459
		h101.799l15.168-20.127C407.772,38.794,425.565,52.796,436.357,62.713z M355.268,51.629c-1.75-17.21-12.834-37.045-23.627-49.004
		l2.625-2.042C406.313,18.376,381.228,72.047,355.268,51.629z M560.325,61.838c-0.875,3.208-3.793,4.667-7.876,4.667h-82.548
		c-10.209,27.127-23.335,51.337-38.794,70.005l-4.084-2.334c13.126-34.419,24.21-85.464,28.877-132.718l40.545,8.751
		c-0.875,3.5-4.084,6.417-10.792,6.709c-3.501,14.001-7.876,28.002-12.543,41.128h42.295l15.75-21.293
		C531.155,36.753,549.532,51.337,560.325,61.838z M516.863,263.101c-15.168-26.251-52.212-57.17-81.089-74.671l2.625-2.917
		C561.2,208.557,551.866,278.853,516.863,263.101z M517.738,170.054c-9.042-20.418-32.378-46.378-50.17-62.13l2.625-2.333
		C563.825,128.634,547.782,186.972,517.738,170.054z"/>
</g>
</svg>
