<?xml version="1.0" encoding="utf-8"?>
<!-- Generator: Adobe Illustrator 16.0.0, SVG Export Plug-In . SVG Version: 6.00 Build 0)  -->
<!DOCTYPE svg PUBLIC "-//W3C//DTD SVG 1.1//EN" "http://www.w3.org/Graphics/SVG/1.1/DTD/svg11.dtd" [
	<!ENTITY st0 "fill:#1B1B1E;">
]>
<svg version="1.1" id="Layer_1" xmlns="http://www.w3.org/2000/svg" xmlns:xlink="http://www.w3.org/1999/xlink" x="0px" y="0px"
	 width="710px" height="211.177px" viewBox="0 0 710 211.177" style="enable-background:new 0 0 710 211.177;" xml:space="preserve"
	>
<g>
	<path style="&st0;" d="M56.131,144.965c-12.834,0-23.555-2.67-32.156-8.021c-8.607-5.346-14.379-13.317-17.316-23.918
		C3.716,102.431,4.3,89.354,8.404,73.796c3.95-14.973,10.349-28.002,19.208-39.086C36.465,23.627,46.598,15.071,58.01,9.043
		C69.416,3.018,80.958,0,92.625,0c11.084,0,20.081,2.384,26.991,7.146c6.909,4.768,11.509,11.28,13.805,19.542
		c2.289,8.269,2.025,17.748-0.795,28.439c-0.873,3.309-1.85,6.271-2.93,8.896c-1.085,2.626-2.172,4.914-3.267,6.855H32.508
		c-5.041,19.834-4.197,34.519,2.527,44.043c6.719,9.53,17.276,14.293,31.668,14.293c17.109,0,32.799-6.025,47.065-18.084
		l3.804,4.375c-8.245,9.142-17.39,16.334-27.424,21.584C80.108,142.34,68.769,144.965,56.131,144.965z M35.262,61.545H95.64
		c5.441,0,9.396-1.167,11.861-3.5c2.462-2.333,4.336-5.93,5.618-10.792c2.873-10.889,2.316-19.834-1.671-26.835
		c-3.986-7.001-11.135-10.5-21.439-10.5c-10.5,0-20.855,4.425-31.064,13.271C48.733,32.04,40.841,44.823,35.262,61.545z"/>
	<path style="&st0;" d="M171.635,144.965c-8.167,0-15.411-0.925-21.729-2.77c-6.321-1.847-12.516-4.521-18.593-8.021l7.958-32.377
		h12.25l-2.06,27.709c3.426,1.751,7.164,3.063,11.212,3.938c4.045,0.874,8.791,1.313,14.237,1.313
		c11.275,0,20.374-2.233,27.293-6.709c6.913-4.471,11.348-10.399,13.298-17.792c1.693-6.418,0.878-11.617-2.446-15.605
		c-3.324-3.982-9.582-7.729-18.767-11.229l-11.818-4.959c-9.334-3.691-16.41-8.554-21.236-14.584
		c-4.827-6.025-5.907-14.097-3.239-24.209c2.924-11.084,9.628-20.464,20.114-28.146C188.593,3.843,201.808,0,217.755,0
		c7.775,0,14.518,0.976,20.23,2.917c5.708,1.946,11.26,4.863,16.65,8.751l-8.783,28.876h-11.376l2.165-24.792
		c-6.222-3.692-13.609-5.542-22.164-5.542c-9.53,0-17.323,2.091-23.384,6.271c-6.063,4.184-9.99,9.676-11.786,16.48
		c-1.744,6.612-0.917,11.767,2.484,15.458c3.4,3.696,9.401,7.293,18.009,10.793l10.513,4.375
		c11.99,4.667,20.02,10.163,24.091,16.479c4.065,6.321,4.846,14.247,2.333,23.771c-3.027,11.477-10.113,21.198-21.258,29.168
		C204.333,140.982,189.719,144.965,171.635,144.965z"/>
	<path style="&st0;" d="M326.256,211.177h-25.377l2.231-8.459l26.515-3.208l13.665-49.586l7.233-27.418
		c-8.278,7.78-16.438,13.468-24.481,17.063c-8.05,3.597-16.254,5.396-24.613,5.396c-11.084,0-20.198-2.866-27.335-8.604
		c-7.142-5.733-11.792-13.9-13.954-24.502c-2.162-10.596-1.347-23.088,2.451-37.48c4.051-15.358,10.262-28.585,18.632-39.669
		c8.365-11.083,17.965-19.639,28.793-25.667C320.839,3.018,331.894,0,343.173,0c7.191,0,13.756,1.654,19.693,4.959
		c5.932,3.309,11.009,8.75,15.233,16.334l21.644-20.126l4.712,2.042l-11.032,38.502l-28.549,108.213l-12.498,49.586l21.613,3.208
		l-2.231,8.459H326.256z M353.002,112.005l21.546-81.669c-4.44-6.025-9.013-10.255-13.717-12.689
		c-4.709-2.429-10.076-3.646-16.102-3.646c-11.667,0-22.954,4.813-33.852,14.438c-10.902,9.625-19.096,24.843-24.585,45.648
		c-5.028,19.059-4.848,33.301,0.54,42.73c5.387,9.434,13.915,14.146,25.582,14.146c7,0,13.728-1.555,20.189-4.667
		C339.063,123.189,345.862,118.422,353.002,112.005z"/>
	<path style="&st0;" d="M504.605,143.216l5.913-26.835c-9.36,8.946-18.937,15.946-28.729,21.001
		c-9.792,5.054-19.552,7.583-29.272,7.583c-12.447,0-21.046-3.887-25.799-11.667c-4.757-7.774-4.495-21.293,0.779-40.543
		l20.282-74.67l-20.737-3.209l2.231-8.458l41.989-4.376l2.361,3.208l-10.691,35.002L449.39,91.588
		c-3.644,13.81-3.923,23.334-0.833,28.585c3.086,5.25,8.715,7.875,16.882,7.875c14.584,0,30.434-7.388,47.558-22.167l23.9-88.38
		l-20.601-2.625l2.154-8.167l42.066-4.667l2.07,3.208l-10.109,35.002l-23.546,89.254l19.356,2.917l-2.232,8.46L504.605,143.216z"/>
	<path style="&st0;" d="M626.354,144.965c-12.834,0-23.555-2.67-32.156-8.021c-8.607-5.346-14.379-13.317-17.315-23.918
		c-2.943-10.596-2.359-23.672,1.745-39.23c3.949-14.973,10.35-28.002,19.208-39.086c8.853-11.083,18.985-19.639,30.397-25.667
		C639.64,3.018,651.183,0,662.849,0c11.084,0,20.081,2.384,26.991,7.146c6.909,4.768,11.509,11.28,13.805,19.542
		c2.289,8.269,2.025,17.748-0.795,28.439c-0.873,3.309-1.85,6.271-2.93,8.896c-1.085,2.626-2.172,4.914-3.267,6.855h-93.922
		c-5.041,19.834-4.197,34.519,2.527,44.043c6.719,9.53,17.275,14.293,31.668,14.293c17.109,0,32.8-6.025,47.065-18.084l3.804,4.375
		c-8.245,9.142-17.39,16.334-27.424,21.584C650.332,142.34,638.993,144.965,626.354,144.965z M605.485,61.545h60.378
		c5.441,0,9.396-1.167,11.861-3.5c2.462-2.333,4.336-5.93,5.618-10.792c2.873-10.889,2.316-19.834-1.671-26.835
		c-3.986-7.001-11.135-10.5-21.439-10.5c-10.5,0-20.855,4.425-31.064,13.271C618.957,32.04,611.064,44.823,605.485,61.545z"/>
</g>
</svg>
