<?xml version="1.0" encoding="utf-8"?>
<!-- Generator: Adobe Illustrator 16.0.0, SVG Export Plug-In . SVG Version: 6.00 Build 0)  -->
<!DOCTYPE svg PUBLIC "-//W3C//DTD SVG 1.1//EN" "http://www.w3.org/Graphics/SVG/1.1/DTD/svg11.dtd" [
	<!ENTITY st0 "fill:#1B1B1E;">
]>
<svg version="1.1" id="Layer_1" xmlns="http://www.w3.org/2000/svg" xmlns:xlink="http://www.w3.org/1999/xlink" x="0px" y="0px"
	 width="564.072px" height="271.851px" viewBox="0 0 564.072 271.851" style="enable-background:new 0 0 564.072 271.851;"
	 xml:space="preserve">
<g>
	<path style="&st0;" d="M36.709,55.129h79.339V30.335H35.542l-2.333-8.459h154.302L203.846,1.75c0,0,18.084,13.709,29.752,23.918
		c-0.583,3.209-3.792,4.667-7.875,4.667h-82.256v24.794h81.089l14.876-14.876l26.543,25.085c-2.333,2.041-5.542,2.917-11.375,3.208
		c-7.292,9.626-20.71,22.752-31.21,30.336l-3.209-2.042l2.334-10.501c-1.75,0.875-4.375,0.584-7.292-1.458
		C202.97,88.673,174.677,95.09,152.8,97.423l-1.458-3.208c16.918-8.168,41.128-22.752,52.212-30.627h-60.087v68.838
		c0,1.458-8.459,6.709-22.751,6.709h-4.667V63.588H38.167C39.917,82.256,32.625,95.09,23,100.049
		c-8.459,4.375-19.251,2.625-22.46-6.126c-2.333-8.459,3.208-14.876,10.792-18.376C21.25,70.296,30,56.879,27.958,42.003
		l4.667-0.292C34.375,46.378,35.834,50.753,36.709,55.129z M257.224,188.43c-0.583,3.208-3.5,4.667-7.584,4.667H107.297
		l26.835,14.584c-1.458,2.625-4.958,4.667-11.084,3.209c-14.876,10.501-39.378,23.626-62.421,32.669
		c32.086-0.875,81.381-3.209,133.593-5.542c-9.917-12.251-21.876-23.919-31.794-32.378l2.625-2.333
		c91.298,22.46,77.005,79.631,48.128,63.879c-2.917-7-7.876-14.877-13.709-22.751c-36.752,6.125-88.381,14.001-148.177,21.292
		c-2.333,3.209-4.958,5.25-7.583,6.125L33.5,241.809c0,0,5.25-1.167,8.167-2.334c19.543-8.167,44.336-31.502,55.712-46.378H8.999
		l-2.333-8.459h204.764l16.334-18.96C227.764,165.678,245.849,178.804,257.224,188.43z M107.005,105.882l0.583,4.084
		c-12.542,6.125-31.794,15.168-58.046,25.668c-1.458,4.084-4.083,6.126-7,6.709l-11.667-27.71
		C44.584,113.758,76.086,109.966,107.005,105.882z M223.097,151.677c-0.875,3.209-3.792,4.667-7.875,4.667H34.375l-2.333-8.459
		h148.177l14.876-17.209C195.095,130.676,212.304,142.635,223.097,151.677z M94.171,102.382
		c-11.959-8.751-37.336-20.126-55.712-24.793l2.042-4.376C110.797,64.171,116.631,104.132,94.171,102.382z M216.68,136.218
		c-11.084-7.584-36.461-19.252-65.046-25.96l0.875-4.376C243.223,96.84,239.14,140.593,216.68,136.218z M222.805,84.881
		l3.792-21.293h-21.293L222.805,84.881z"/>
	<path style="&st0;" d="M382.935,75.547c-0.875,3.208-3.209,4.667-7.293,4.667h-28.293v18.084
		c50.461,28.294,30.043,65.047,12.25,48.421c-0.583-11.96-6.125-27.127-12.25-39.087v154.594c0,3.209-10.793,9.334-19.543,9.334
		h-4.959v-122.8c-8.751,19.543-19.835,37.92-33.544,54.254l-4.083-3.5c18.085-33.544,28.294-77.006,34.128-119.3h-29.169
		l-2.333-8.459h35.002V0l35.002,3.5c-0.583,4.375-2.916,7-10.5,8.167v60.088h2.333l11.667-17.21
		C361.349,54.545,375.351,66.796,382.935,75.547z M564.072,58.045c-0.875,3.209-3.209,4.668-7,4.668h-26.836v35.585
		c-0.291,2.334-12.25,7.876-20.418,7.876h-4.083V95.381H475.4v22.752h35.877l11.959-12.251l24.793,18.668
		c-1.458,1.75-5.25,3.792-9.625,4.667v29.752c-0.292,2.042-12.251,7.293-20.418,7.293h-4.084v-9.043H475.4v10.793
		c0,1.75-6.418,4.958-14.002,6.417l6.418,1.458c-1.168,3.209-3.793,6.126-12.835,6.126l-6.417,9.917h37.045
		c1.458-5.834,2.333-12.251,2.916-18.668l36.461,3.5c-0.583,3.792-3.791,7.001-10.209,7.584l-1.459,7.584h12.543l12.543-15.459
		c0,0,14.584,11.084,23.335,19.251c-0.583,3.209-3.501,4.667-7.292,4.667h-43.462c-3.5,11.084-9.042,21.293-19.251,30.336
		c87.506,17.501,55.129,49.003,29.168,37.919c-12.834-7.584-30.627-15.461-52.503-23.043c-21.585,10.5-54.254,19.25-103.55,26.25
		l-1.75-5.832c38.795-8.459,65.338-17.211,83.715-27.127c-15.751-4.667-32.961-8.751-51.045-12.251l0.583-0.292
		c4.667-6.125,11.084-16.043,16.918-25.96h-39.378l-2.334-8.459h46.67c5.543-9.626,10.209-18.668,12.835-24.502l18.96,4.376v-14.585
		H413.27v7.001c0,2.042-11.085,7.292-21.001,7.292h-3.501v-64.463l26.252,11.084h35.003V95.381h-29.17v6.126
		c0,2.333-10.5,7.584-20.709,7.584h-3.5V62.713h-20.418l-2.334-8.459h22.752V14.876l25.668,10.792h27.711V1.458l36.168,3.5
		c-0.875,4.084-3.208,7.001-10.791,7.876v12.834h28.002l11.667-11.959l24.21,18.376c-1.459,1.459-4.959,3.501-9.043,4.084v18.085
		h2.918l10.792-14.877C543.946,39.377,556.488,50.17,564.072,58.045z M413.27,126.592v22.168h36.753v-22.168H413.27z
		 M420.853,34.127v20.127h29.17V34.127H420.853z M450.023,62.713h-29.17v24.21h29.17V62.713z M483.275,200.389h-39.961
		l-15.459,22.46c13.709,0.875,26.251,2.042,37.043,3.5C474.232,218.474,479.775,209.723,483.275,200.389z M475.4,54.254h30.335
		V34.127H475.4V54.254z M505.735,86.923v-24.21H475.4v24.21H505.735z M475.4,148.76h38.502v-22.168H475.4V148.76z"/>
</g>
</svg>
