<?xml version="1.0" encoding="utf-8"?>
<!-- Generator: Adobe Illustrator 16.0.0, SVG Export Plug-In . SVG Version: 6.00 Build 0)  -->
<!DOCTYPE svg PUBLIC "-//W3C//DTD SVG 1.1//EN" "http://www.w3.org/Graphics/SVG/1.1/DTD/svg11.dtd" [
	<!ENTITY st0 "fill:#1B1B1E;">
]>
<svg version="1.1" id="Layer_1" xmlns="http://www.w3.org/2000/svg" xmlns:xlink="http://www.w3.org/1999/xlink" x="0px" y="0px"
	 width="565.781px" height="273.013px" viewBox="0 0 565.781 273.013" style="enable-background:new 0 0 565.781 273.013;"
	 xml:space="preserve">
<g>
	<path style="&st0;" d="M156.845,87.212h35.001l11.959-14.001c5.054,3.696,9.333,6.905,12.834,9.626
		c3.5,2.726,6.708,5.446,9.625,8.167c0.971-4.275,2.087-9.088,3.354-14.438c1.263-5.346,2.283-10.354,3.063-15.021h-85.17v75.254
		c0,0.583-2.042,1.8-6.125,3.646c-4.083,1.851-9.625,2.771-16.625,2.771h-4.667V61.544H39.589c0.775,9.726-0.392,17.843-3.5,24.355
		c-3.113,6.518-7,11.229-11.667,14.146c-4.083,2.333-8.655,3.063-13.709,2.188c-5.059-0.875-8.363-3.45-9.917-7.729
		c-1.362-4.471-0.975-8.358,1.167-11.667c2.137-3.305,5.15-5.834,9.042-7.584c5.25-2.721,9.867-7.388,13.855-14.001
		c3.983-6.607,5.587-13.805,4.813-21.584h4.667c1.75,4.667,3.013,9.143,3.792,13.417h81.962V27.418H31.13l-2.333-8.459H201.18
		L216.931,0c6.608,4.862,12.2,9.042,16.771,12.542c4.567,3.5,8.796,6.904,12.688,10.209c-0.779,3.112-3.404,4.667-7.875,4.667
		h-91.004v25.667h83.42l14.876-14.875l26.543,25.084c-1.167,1.167-2.625,1.946-4.375,2.334c-1.75,0.392-3.988,0.684-6.708,0.875
		c-4.083,4.667-9.188,9.771-15.313,15.313c-6.125,5.542-11.913,10.164-17.355,13.855l-3.208-2.042l0.583-2.042
		c-0.583,2.726-2.917,4.084-7,4.084h-59.794L156.845,87.212z M163.261,205.926c16.526,2.917,30.235,6.809,41.127,11.667
		c10.888,4.863,19.347,10.113,25.376,15.751c6.025,5.643,10.013,11.084,11.959,16.334c1.941,5.25,2.333,9.817,1.167,13.709
		c-1.167,3.888-3.601,6.513-7.292,7.875c-3.696,1.358-8.071,0.875-13.125-1.458c-2.142-4.083-4.813-8.217-8.021-12.396
		c-3.208-4.184-6.759-8.413-10.646-12.688c-18.28,3.112-40.353,6.512-66.211,10.208c-25.864,3.692-54.353,7.388-85.462,11.084
		c-2.142,3.108-4.667,5.15-7.583,6.125l-9.917-30.043c3.888-0.774,6.513-1.554,7.875-2.333c6.025-2.333,12.396-5.879,19.105-10.646
		c6.709-4.763,13.025-9.963,18.959-15.604c5.929-5.638,10.938-10.792,15.021-15.459H6.046l-2.333-8.459h219.052l15.751-18.376
		c6.417,4.667,11.858,8.705,16.334,12.104c4.471,3.404,8.65,6.759,12.542,10.063c-0.583,3.112-3.208,4.667-7.875,4.667H114.551
		l20.709,10.5c-0.583,1.167-1.8,2.188-3.646,3.063c-1.851,0.875-4.33,1.021-7.438,0.438c-7.392,5.06-16.771,10.501-28.147,16.334
		c-11.375,5.834-22.897,10.988-34.564,15.459c16.525-0.387,36.751-1.066,60.669-2.041c23.917-0.971,49.193-2.042,75.836-3.209
		c-6.029-5.638-12.3-11.033-18.813-16.188c-6.518-5.149-12.688-9.671-18.522-13.563L163.261,205.926z M33.172,154.882h165.674
		l14.875-17.793c6.417,4.667,11.813,8.655,16.188,11.959c4.375,3.309,8.313,6.518,11.813,9.626
		c-0.779,2.917-3.309,4.375-7.584,4.375H35.505L33.172,154.882z M35.505,119.88h43.752l11.958-14
		c5.054,3.695,9.334,6.904,12.834,9.625c3.5,2.726,6.709,5.351,9.625,7.875c-0.583,3.113-3.017,4.667-7.292,4.667H37.839
		L35.505,119.88z M43.381,87.212h35.293l11.959-13.417c4.858,3.5,8.992,6.563,12.396,9.188c3.4,2.625,6.563,5.301,9.48,8.021
		c-0.779,3.112-3.309,4.667-7.584,4.667H45.714L43.381,87.212z M156.553,119.88h42.294l12.833-14.875
		c5.442,3.892,10.013,7.246,13.709,10.063c3.692,2.821,7,5.592,9.917,8.313c-0.779,3.113-3.208,4.667-7.292,4.667h-69.128
		L156.553,119.88z"/>
	<path style="&st0;" d="M368.021,54.544c5.25,4.667,9.625,8.654,13.125,11.959c3.5,3.309,6.609,6.417,9.334,9.334
		c-0.779,3.112-3.309,4.666-7.584,4.666h-29.75v14.584c10.107,5.446,17.646,11.084,22.604,16.918
		c4.958,5.833,7.972,11.33,9.042,16.479c1.066,5.155,0.775,9.384-0.875,12.688c-1.654,3.309-4.134,5.25-7.438,5.834
		c-3.309,0.583-6.709-0.68-10.209-3.792c-0.393-6.025-1.851-12.543-4.375-19.543c-2.529-7-5.447-13.513-8.75-19.542v159.549
		c0,1.75-2.143,3.741-6.418,5.979c-4.279,2.232-8.654,3.354-13.125,3.354h-5.25V150.798c-9.53,20.03-21.489,38.115-35.877,54.253
		l-4.084-3.5c10.109-16.918,18.084-35.877,23.918-56.878s10.209-42.39,13.125-64.17h-29.459l-2.334-8.458h34.711V0.875l35.293,3.5
		c-0.196,2.142-1.021,3.892-2.479,5.25c-1.458,1.362-4.134,2.333-8.021,2.917v59.503h2.916L368.021,54.544z M547.113,39.376
		c4.275,4.084,7.921,7.634,10.938,10.646c3.013,3.018,5.588,5.788,7.73,8.313c-0.779,3.112-3.209,4.667-7.293,4.667h-23.334v33.543
		c0,0.779-1.121,1.8-3.354,3.063c-2.237,1.267-5.009,2.434-8.313,3.5c-3.309,1.071-6.416,1.604-9.333,1.604h-4.083V94.504h-30.336
		v23.626h35.294l12.251-12.542l25.959,19.251c-1.75,2.529-4.959,4.083-9.625,4.667v33.835c-0.196,0.975-2.238,2.237-6.125,3.792
		c0.971,0.779,3.012,2.434,6.125,4.958c3.107,2.529,6.512,5.396,10.209,8.604c3.691,3.209,7,6.271,9.916,9.188
		c-0.779,3.112-3.309,4.666-7.583,4.666h-32.669c-5.642,15.168-13.32,27.519-23.042,37.044c16.334,3.696,28.484,7.729,36.46,12.104
		c7.971,4.375,12.834,8.555,14.584,12.542c1.75,3.983,1.357,7.388-1.166,10.209c-2.53,2.816-6.271,4.617-11.23,5.396
		c-4.959,0.774-9.967,0-15.021-2.334c-5.643-3.5-12.351-7.101-20.126-10.792c-7.78-3.696-16.435-7.292-25.96-10.792
		c-12.643,6.608-28.102,11.813-46.377,15.604c-18.279,3.792-40.352,6.659-66.211,8.604l-1.167-4.666
		c19.442-3.113,36.651-6.905,51.628-11.376c14.971-4.476,27.805-9.917,38.502-16.334c-7.977-2.525-16.289-4.959-24.939-7.292
		c-8.654-2.334-17.646-4.471-26.98-6.417c2.917-3.691,6.221-8.358,9.918-14.001c3.691-5.638,7.291-11.471,10.791-17.501h-49.002
		l-2.333-8.458h56.294c5.834-10.305,10.209-18.764,13.126-25.376H418.19v6.417c0,1.166-2.333,2.725-7.001,4.666
		c-4.666,1.946-9.529,2.917-14.584,2.917h-3.5v-67.378l26.543,10.792h35.293V94.504h-29.168v5.834c0,1.166-2.236,2.771-6.708,4.813
		c-4.476,2.042-9.333,3.063-14.584,3.063h-3.5v-45.21H379.98l-2.334-8.459h23.335V13.709l26.543,11.083h27.417V1.458l35.294,3.5
		c-0.392,1.946-1.313,3.646-2.771,5.104c-1.459,1.458-4.038,2.479-7.73,3.063v11.667h28.002l11.667-12.542l24.793,18.668
		c-1.559,2.142-4.571,3.696-9.042,4.667v18.959h1.75L547.113,39.376z M418.19,152.257h36.751v-25.668H418.19V152.257z
		 M454.941,33.251h-29.168v21.293h29.168V33.251z M425.773,86.045h29.168V63.003h-29.168V86.045z M433.941,222.26
		c7.191,0.583,13.9,1.217,20.125,1.896c6.222,0.684,12.15,1.412,17.793,2.188c9.334-8.751,16.234-19.347,20.709-31.794H452.9
		c-3.113,4.667-6.271,9.435-9.479,14.293C440.212,213.705,437.048,218.177,433.941,222.26z M464.859,175.008l-6.709,11.084h63.879
		l14-18.376c-2.143,0.779-4.476,1.458-7,2.042c-2.529,0.583-4.863,0.875-7,0.875h-4.376v-9.917h-73.795l34.126,8.458
		c-0.583,1.75-1.75,3.163-3.5,4.229C472.734,174.475,469.526,175.008,464.859,175.008z M510.07,33.251h-30.336v21.293h30.336V33.251
		z M510.07,86.045V63.003h-30.336v23.042H510.07z M517.653,126.589h-37.919v25.668h37.919V126.589z"/>
</g>
</svg>
