<?xml version="1.0" encoding="UTF-8" standalone="no"?>
<!DOCTYPE svg PUBLIC "-//W3C//DTD SVG 1.1//EN" "http://www.w3.org/Graphics/SVG/1.1/DTD/svg11.dtd">
<svg width="100%" height="100%" viewBox="0 0 565 271" version="1.1" xmlns="http://www.w3.org/2000/svg" xmlns:xlink="http://www.w3.org/1999/xlink" xml:space="preserve" xmlns:serif="http://www.serif.com/" style="fill-rule:evenodd;clip-rule:evenodd;stroke-linejoin:round;stroke-miterlimit:2;">
    <g transform="matrix(24.7459,0,0,20.8493,-2380.03,-2797.61)">
        <g>
            <g transform="matrix(11.4243,0,0,13.5594,95.9597,145.886)">
                <path d="M0.527,-0.31L0.848,-0.31L0.848,-0.234L0.527,-0.234L0.527,-0.31ZM0.527,-0.429L0.848,-0.429L0.848,-0.355L0.527,-0.355L0.527,-0.429ZM0.08,-0.293C0.1,-0.232 0.116,-0.152 0.117,-0.1L0.169,-0.113C0.165,-0.164 0.149,-0.243 0.128,-0.305L0.08,-0.293ZM0.358,-0.314C0.349,-0.26 0.33,-0.179 0.315,-0.13L0.36,-0.117C0.377,-0.165 0.395,-0.238 0.412,-0.3L0.358,-0.314ZM0.524,-0.696C0.539,-0.663 0.555,-0.62 0.561,-0.588L0.413,-0.588L0.413,-0.532L0.958,-0.532L0.958,-0.588L0.798,-0.588C0.815,-0.618 0.835,-0.66 0.853,-0.699L0.811,-0.709L0.938,-0.709L0.938,-0.764L0.723,-0.764C0.714,-0.791 0.7,-0.824 0.687,-0.849L0.629,-0.834C0.638,-0.814 0.648,-0.788 0.656,-0.764L0.442,-0.764L0.442,-0.709L0.788,-0.709C0.778,-0.675 0.758,-0.626 0.742,-0.594L0.766,-0.588L0.59,-0.588L0.621,-0.596C0.614,-0.627 0.597,-0.674 0.579,-0.709L0.524,-0.696ZM0.469,-0.477L0.469,-0.186L0.565,-0.186C0.551,-0.071 0.506,-0.007 0.351,0.029C0.364,0.041 0.381,0.065 0.388,0.081C0.56,0.035 0.613,-0.045 0.63,-0.186L0.723,-0.186L0.723,-0.023C0.723,0.03 0.729,0.046 0.745,0.058C0.76,0.069 0.785,0.073 0.806,0.073L0.867,0.073C0.884,0.073 0.909,0.072 0.921,0.066C0.936,0.06 0.948,0.051 0.955,0.033C0.961,0.018 0.964,-0.025 0.966,-0.065C0.948,-0.071 0.924,-0.083 0.911,-0.093C0.91,-0.052 0.909,-0.021 0.906,-0.006C0.904,0.006 0.898,0.014 0.891,0.016C0.885,0.019 0.872,0.02 0.861,0.02L0.818,0.02C0.807,0.02 0.799,0.019 0.793,0.016C0.788,0.012 0.786,0.002 0.786,-0.015L0.786,-0.186L0.909,-0.186L0.909,-0.477L0.469,-0.477ZM0.213,-0.838C0.178,-0.758 0.113,-0.654 0.021,-0.578C0.034,-0.569 0.054,-0.549 0.064,-0.536C0.08,-0.55 0.096,-0.565 0.11,-0.58L0.11,-0.533L0.215,-0.533L0.215,-0.42L0.056,-0.42L0.056,-0.361L0.215,-0.361L0.215,-0.049L0.046,-0.017L0.06,0.046C0.163,0.024 0.302,-0.006 0.434,-0.036L0.429,-0.093L0.275,-0.061L0.275,-0.361L0.422,-0.361L0.422,-0.42L0.275,-0.42L0.275,-0.533L0.39,-0.533L0.39,-0.591L0.121,-0.591C0.179,-0.653 0.222,-0.721 0.253,-0.777C0.309,-0.727 0.369,-0.654 0.401,-0.609L0.447,-0.659C0.41,-0.709 0.335,-0.785 0.275,-0.838L0.213,-0.838Z" style="fill:rgb(27,27,30);fill-rule:nonzero;"/>
            </g>
            <g transform="matrix(11.4243,0,0,13.5594,107.384,145.886)">
                <path d="M0.532,-0.593L0.846,-0.593L0.846,-0.489L0.532,-0.489L0.532,-0.593ZM0.532,-0.746L0.846,-0.746L0.846,-0.644L0.532,-0.644L0.532,-0.746ZM0.468,-0.8L0.468,-0.435L0.911,-0.435L0.911,-0.8L0.468,-0.8ZM0.08,-0.293C0.1,-0.232 0.116,-0.152 0.117,-0.1L0.169,-0.113C0.165,-0.164 0.149,-0.243 0.128,-0.305L0.08,-0.293ZM0.358,-0.314C0.35,-0.26 0.33,-0.179 0.315,-0.13L0.36,-0.117C0.377,-0.165 0.395,-0.238 0.412,-0.3L0.358,-0.314ZM0.465,0.076C0.483,0.07 0.513,0.063 0.688,0.02L0.681,-0.036L0.533,-0.003L0.533,-0.206L0.67,-0.206L0.67,-0.264L0.533,-0.264L0.533,-0.403L0.471,-0.403L0.471,-0.036C0.471,0.002 0.455,0.016 0.442,0.022L0.465,0.076ZM0.906,-0.324C0.871,-0.293 0.814,-0.252 0.764,-0.22L0.764,-0.402L0.704,-0.402L0.704,-0.018C0.704,0.051 0.72,0.07 0.785,0.07L0.887,0.07C0.943,0.07 0.959,0.038 0.964,-0.08C0.947,-0.085 0.924,-0.094 0.91,-0.105C0.908,-0.003 0.903,0.014 0.881,0.014L0.793,0.014C0.768,0.014 0.764,0.009 0.764,-0.018L0.764,-0.162C0.821,-0.192 0.893,-0.237 0.948,-0.279L0.906,-0.324ZM0.213,-0.838C0.178,-0.758 0.113,-0.654 0.021,-0.578C0.034,-0.569 0.054,-0.549 0.064,-0.536C0.08,-0.55 0.096,-0.565 0.11,-0.58L0.11,-0.533L0.215,-0.533L0.215,-0.42L0.055,-0.42L0.055,-0.361L0.215,-0.361L0.215,-0.049L0.046,-0.017L0.06,0.046C0.163,0.024 0.302,-0.006 0.434,-0.036L0.429,-0.093L0.275,-0.061L0.275,-0.361L0.421,-0.361L0.421,-0.42L0.275,-0.42L0.275,-0.533L0.39,-0.533L0.39,-0.591L0.121,-0.591C0.179,-0.653 0.222,-0.721 0.253,-0.777C0.309,-0.727 0.369,-0.654 0.401,-0.609L0.447,-0.659C0.41,-0.709 0.336,-0.785 0.275,-0.838L0.213,-0.838Z" style="fill:rgb(27,27,30);fill-rule:nonzero;"/>
            </g>
        </g>
    </g>
</svg>
