<?xml version="1.0" encoding="UTF-8" standalone="no"?>
<!DOCTYPE svg PUBLIC "-//W3C//DTD SVG 1.1//EN" "http://www.w3.org/Graphics/SVG/1.1/DTD/svg11.dtd">
<svg width="100%" height="100%" viewBox="0 0 565 271" version="1.1" xmlns="http://www.w3.org/2000/svg" xmlns:xlink="http://www.w3.org/1999/xlink" xml:space="preserve" xmlns:serif="http://www.serif.com/" style="fill-rule:evenodd;clip-rule:evenodd;stroke-linejoin:round;stroke-miterlimit:2;">
    <g>
        <g transform="matrix(24.7459,0,0,20.8493,-2380.03,-2797.61)">
            <g transform="matrix(11.4243,0,0,13.5594,95.9597,145.886)">
                <path d="M0.08,-0.293C0.1,-0.231 0.116,-0.152 0.117,-0.1L0.169,-0.113C0.165,-0.164 0.149,-0.243 0.128,-0.305L0.08,-0.293ZM0.358,-0.314C0.349,-0.26 0.33,-0.179 0.315,-0.13L0.36,-0.117C0.377,-0.165 0.395,-0.238 0.412,-0.3L0.358,-0.314ZM0.802,-0.636C0.843,-0.597 0.887,-0.56 0.928,-0.531C0.938,-0.548 0.954,-0.572 0.967,-0.587C0.875,-0.642 0.773,-0.74 0.707,-0.835L0.647,-0.835C0.599,-0.745 0.499,-0.639 0.4,-0.576C0.413,-0.563 0.429,-0.54 0.436,-0.524C0.482,-0.555 0.526,-0.593 0.566,-0.633L0.566,-0.589L0.802,-0.589L0.802,-0.636ZM0.68,-0.776C0.711,-0.732 0.753,-0.685 0.798,-0.64L0.573,-0.64C0.617,-0.685 0.654,-0.733 0.68,-0.776L0.68,-0.776ZM0.536,-0.367L0.834,-0.367L0.834,-0.303L0.534,-0.303L0.536,-0.367ZM0.536,-0.415L0.536,-0.475L0.834,-0.475L0.834,-0.415L0.536,-0.415ZM0.212,-0.838C0.178,-0.758 0.113,-0.654 0.021,-0.578C0.034,-0.569 0.054,-0.549 0.064,-0.536C0.08,-0.55 0.096,-0.565 0.11,-0.58L0.11,-0.533L0.215,-0.533L0.215,-0.42L0.055,-0.42L0.055,-0.361L0.215,-0.361L0.215,-0.049L0.046,-0.017L0.06,0.046L0.399,-0.028C0.385,-0.005 0.369,0.018 0.35,0.039C0.364,0.046 0.388,0.065 0.398,0.076C0.456,0.011 0.49,-0.067 0.51,-0.146L0.51,0.077L0.568,0.077L0.568,0.038L0.85,0.038L0.85,0.074L0.91,0.074L0.91,-0.193L0.52,-0.193C0.524,-0.214 0.527,-0.234 0.529,-0.254L0.894,-0.254L0.894,-0.525L0.477,-0.525L0.477,-0.377C0.477,-0.291 0.469,-0.183 0.427,-0.083L0.426,-0.092L0.275,-0.061L0.275,-0.361L0.421,-0.361L0.421,-0.42L0.275,-0.42L0.275,-0.533L0.393,-0.533L0.393,-0.591L0.121,-0.591C0.179,-0.653 0.222,-0.721 0.253,-0.777C0.309,-0.727 0.369,-0.654 0.401,-0.609L0.447,-0.659C0.41,-0.709 0.335,-0.785 0.275,-0.838L0.212,-0.838ZM0.568,-0.014L0.568,-0.141L0.85,-0.141L0.85,-0.014L0.568,-0.014Z" style="fill:rgb(27,27,30);fill-rule:nonzero;"/>
            </g>
            <g transform="matrix(11.4243,0,0,13.5594,107.384,145.886)">
                <path d="M0.553,-0.471L0.809,-0.471L0.809,-0.342L0.553,-0.342L0.553,-0.471ZM0.076,-0.293C0.096,-0.232 0.112,-0.152 0.115,-0.1L0.164,-0.112C0.16,-0.164 0.143,-0.243 0.122,-0.304L0.076,-0.293ZM0.34,-0.315C0.332,-0.262 0.314,-0.18 0.298,-0.132L0.343,-0.119C0.358,-0.167 0.377,-0.241 0.392,-0.302L0.34,-0.315ZM0.205,-0.838C0.171,-0.757 0.108,-0.654 0.019,-0.576C0.033,-0.567 0.052,-0.548 0.062,-0.534C0.077,-0.548 0.091,-0.561 0.104,-0.576L0.104,-0.533L0.208,-0.533L0.208,-0.419L0.051,-0.419L0.051,-0.36L0.208,-0.36L0.208,-0.046L0.045,-0.015L0.06,0.046C0.161,0.025 0.296,-0.004 0.424,-0.033L0.42,-0.089L0.267,-0.058L0.267,-0.36L0.401,-0.36L0.401,-0.419L0.267,-0.419L0.267,-0.533L0.374,-0.533L0.374,-0.591L0.118,-0.591C0.173,-0.654 0.215,-0.72 0.244,-0.776C0.295,-0.726 0.349,-0.654 0.377,-0.61L0.419,-0.651L0.419,-0.498L0.481,-0.498L0.481,-0.613L0.883,-0.613L0.883,-0.498L0.947,-0.498L0.947,-0.669L0.831,-0.669C0.858,-0.704 0.891,-0.753 0.918,-0.799L0.862,-0.825C0.844,-0.784 0.807,-0.726 0.78,-0.689L0.82,-0.669L0.707,-0.669L0.707,-0.838L0.645,-0.838L0.645,-0.669L0.534,-0.669L0.578,-0.69C0.563,-0.728 0.53,-0.781 0.497,-0.822L0.446,-0.799C0.475,-0.76 0.507,-0.707 0.521,-0.669L0.419,-0.668C0.385,-0.718 0.321,-0.788 0.268,-0.838L0.205,-0.838ZM0.399,-0.011L0.399,0.047L0.96,0.047L0.96,-0.011L0.709,-0.011L0.709,-0.136L0.911,-0.136L0.911,-0.194L0.709,-0.194L0.709,-0.289L0.871,-0.289L0.871,-0.524L0.494,-0.524L0.494,-0.289L0.645,-0.289L0.645,-0.194L0.452,-0.194L0.452,-0.136L0.645,-0.136L0.645,-0.011L0.399,-0.011Z" style="fill:rgb(27,27,30);fill-rule:nonzero;"/>
            </g>
        </g>
    </g>
</svg>
