<?xml version="1.0" encoding="UTF-8" standalone="no"?>
<!DOCTYPE svg PUBLIC "-//W3C//DTD SVG 1.1//EN" "http://www.w3.org/Graphics/SVG/1.1/DTD/svg11.dtd">
<svg width="100%" height="100%" viewBox="0 0 565 271" version="1.1" xmlns="http://www.w3.org/2000/svg" xmlns:xlink="http://www.w3.org/1999/xlink" xml:space="preserve" xmlns:serif="http://www.serif.com/" style="fill-rule:evenodd;clip-rule:evenodd;stroke-linejoin:round;stroke-miterlimit:2;">
    <g>
        <g transform="matrix(24.7459,0,0,20.8493,-2380.03,-2797.61)">
            <g transform="matrix(11.4243,0,0,13.5594,95.9597,145.886)">
                <path d="M0.1,-0.28C0.122,-0.221 0.144,-0.141 0.15,-0.089L0.199,-0.103C0.192,-0.155 0.17,-0.233 0.146,-0.293L0.1,-0.28ZM0.351,-0.309C0.342,-0.255 0.322,-0.175 0.306,-0.126L0.348,-0.111C0.366,-0.158 0.386,-0.232 0.404,-0.293L0.351,-0.309ZM0.698,-0.842C0.641,-0.742 0.536,-0.656 0.43,-0.603C0.442,-0.59 0.461,-0.56 0.468,-0.547C0.507,-0.569 0.547,-0.596 0.584,-0.626L0.584,-0.583L0.822,-0.583L0.822,-0.633C0.859,-0.603 0.898,-0.576 0.935,-0.554C0.941,-0.571 0.954,-0.598 0.965,-0.614C0.884,-0.652 0.791,-0.724 0.736,-0.791L0.756,-0.823L0.698,-0.842ZM0.594,-0.634C0.634,-0.668 0.671,-0.705 0.704,-0.746C0.736,-0.708 0.777,-0.669 0.821,-0.634L0.594,-0.634ZM0.848,-0.361L0.848,-0.295L0.566,-0.295L0.567,-0.344L0.567,-0.361L0.848,-0.361ZM0.848,-0.407L0.567,-0.407L0.567,-0.469L0.848,-0.469L0.848,-0.407ZM0.505,-0.521L0.505,-0.345C0.505,-0.231 0.495,-0.073 0.41,0.042C0.424,0.049 0.451,0.066 0.463,0.077C0.508,0.015 0.534,-0.061 0.549,-0.138L0.549,0.078L0.607,0.078L0.607,0.044L0.869,0.044L0.869,0.076L0.929,0.076L0.929,-0.186L0.557,-0.186L0.563,-0.244L0.91,-0.244L0.91,-0.521L0.505,-0.521ZM0.607,-0.008L0.607,-0.134L0.869,-0.134L0.869,-0.008L0.607,-0.008ZM0.256,-0.838C0.208,-0.742 0.124,-0.651 0.042,-0.593C0.052,-0.578 0.069,-0.547 0.075,-0.534C0.093,-0.548 0.11,-0.563 0.128,-0.58L0.128,-0.525L0.222,-0.525L0.222,-0.409L0.084,-0.409L0.084,-0.35L0.222,-0.35L0.222,-0.05L0.063,-0.017L0.08,0.043C0.172,0.022 0.295,-0.007 0.413,-0.035L0.407,-0.09L0.282,-0.062L0.282,-0.35L0.403,-0.35L0.403,-0.409L0.282,-0.409L0.282,-0.525L0.37,-0.525L0.37,-0.584L0.133,-0.584C0.176,-0.626 0.219,-0.675 0.255,-0.728C0.308,-0.691 0.363,-0.645 0.398,-0.61L0.429,-0.659C0.393,-0.692 0.338,-0.736 0.284,-0.771L0.31,-0.818L0.256,-0.838Z" style="fill:rgb(27,27,30);fill-rule:nonzero;"/>
            </g>
            <g transform="matrix(11.4243,0,0,13.5594,107.384,145.886)">
                <path d="M0.074,-0.282C0.091,-0.221 0.106,-0.144 0.11,-0.093L0.155,-0.106C0.15,-0.157 0.135,-0.234 0.117,-0.294L0.074,-0.282ZM0.32,-0.306C0.311,-0.251 0.292,-0.169 0.276,-0.119L0.315,-0.104C0.332,-0.152 0.351,-0.226 0.368,-0.289L0.32,-0.306ZM0.559,-0.463L0.808,-0.463L0.808,-0.335L0.559,-0.335L0.559,-0.463ZM0.455,-0.795C0.485,-0.757 0.517,-0.704 0.53,-0.668L0.585,-0.696C0.572,-0.73 0.538,-0.781 0.506,-0.819L0.455,-0.795ZM0.223,-0.844C0.181,-0.745 0.106,-0.651 0.033,-0.591C0.042,-0.575 0.057,-0.539 0.061,-0.524C0.076,-0.537 0.09,-0.552 0.105,-0.567L0.105,-0.525L0.199,-0.525L0.199,-0.409L0.055,-0.409L0.055,-0.35L0.199,-0.35L0.199,-0.052L0.044,-0.017L0.059,0.043C0.146,0.022 0.269,-0.01 0.383,-0.039L0.379,-0.094L0.254,-0.065L0.254,-0.35L0.381,-0.35L0.381,-0.409L0.254,-0.409L0.254,-0.525L0.353,-0.525L0.353,-0.583L0.119,-0.583C0.157,-0.625 0.193,-0.675 0.224,-0.728C0.28,-0.683 0.339,-0.63 0.375,-0.589L0.405,-0.644C0.368,-0.684 0.31,-0.735 0.252,-0.778L0.272,-0.82L0.223,-0.844ZM0.862,-0.823C0.84,-0.773 0.796,-0.701 0.763,-0.654L0.714,-0.654L0.714,-0.838L0.649,-0.838L0.649,-0.654L0.421,-0.654L0.421,-0.496L0.484,-0.496L0.484,-0.598L0.885,-0.598L0.885,-0.496L0.949,-0.496L0.949,-0.654L0.83,-0.654C0.86,-0.697 0.893,-0.75 0.92,-0.798L0.862,-0.823ZM0.406,-0.005L0.406,0.051L0.96,0.051L0.96,-0.005L0.714,-0.005L0.714,-0.132L0.899,-0.132L0.899,-0.189L0.714,-0.189L0.714,-0.283L0.873,-0.283L0.873,-0.516L0.498,-0.516L0.498,-0.283L0.649,-0.283L0.649,-0.189L0.467,-0.189L0.467,-0.132L0.649,-0.132L0.649,-0.005L0.406,-0.005Z" style="fill:rgb(27,27,30);fill-rule:nonzero;"/>
            </g>
        </g>
    </g>
</svg>
