<?xml version="1.0" encoding="UTF-8" standalone="no"?>
<!DOCTYPE svg PUBLIC "-//W3C//DTD SVG 1.1//EN" "http://www.w3.org/Graphics/SVG/1.1/DTD/svg11.dtd">
<svg width="100%" height="100%" viewBox="0 0 565 271" version="1.1" xmlns="http://www.w3.org/2000/svg" xmlns:xlink="http://www.w3.org/1999/xlink" xml:space="preserve" xmlns:serif="http://www.serif.com/" style="fill-rule:evenodd;clip-rule:evenodd;stroke-linejoin:round;stroke-miterlimit:2;">
    <g transform="matrix(24.7459,0,0,20.8493,-2380.03,-2797.61)">
        <g>
            <g transform="matrix(11.4243,0,0,13.5594,95.9597,145.886)">
                <path d="M0.527,-0.305L0.848,-0.305L0.848,-0.233L0.527,-0.233L0.527,-0.305ZM0.527,-0.42L0.848,-0.42L0.848,-0.35L0.527,-0.35L0.527,-0.42ZM0.08,-0.293C0.1,-0.232 0.116,-0.152 0.117,-0.1L0.169,-0.113C0.165,-0.164 0.149,-0.243 0.128,-0.305L0.08,-0.293ZM0.358,-0.314C0.349,-0.26 0.33,-0.179 0.315,-0.13L0.36,-0.117C0.377,-0.165 0.395,-0.238 0.412,-0.3L0.358,-0.314ZM0.619,-0.827C0.633,-0.808 0.649,-0.784 0.661,-0.762L0.442,-0.762L0.442,-0.708L0.938,-0.708L0.938,-0.762L0.731,-0.762C0.718,-0.788 0.697,-0.82 0.677,-0.844L0.619,-0.827ZM0.788,-0.695C0.778,-0.662 0.759,-0.614 0.742,-0.58L0.631,-0.58C0.623,-0.613 0.604,-0.662 0.586,-0.698L0.53,-0.685C0.545,-0.653 0.56,-0.612 0.568,-0.58L0.413,-0.58L0.413,-0.524L0.958,-0.524L0.958,-0.58L0.803,-0.58C0.818,-0.609 0.835,-0.646 0.85,-0.68L0.788,-0.695ZM0.469,-0.468L0.469,-0.185L0.566,-0.185C0.556,-0.055 0.516,-0.003 0.349,0.029C0.363,0.041 0.38,0.066 0.386,0.082C0.57,0.04 0.618,-0.03 0.63,-0.185L0.723,-0.185L0.723,-0.023C0.723,0.03 0.729,0.046 0.745,0.058C0.76,0.069 0.785,0.073 0.806,0.073L0.867,0.073C0.884,0.073 0.909,0.072 0.921,0.066C0.936,0.06 0.948,0.051 0.955,0.033C0.961,0.018 0.964,-0.025 0.966,-0.065C0.948,-0.071 0.924,-0.083 0.911,-0.093C0.91,-0.052 0.909,-0.021 0.906,-0.006C0.904,0.006 0.898,0.014 0.891,0.016C0.885,0.019 0.872,0.02 0.861,0.02L0.818,0.02C0.807,0.02 0.799,0.019 0.793,0.016C0.788,0.012 0.786,0.002 0.786,-0.015L0.786,-0.185L0.909,-0.185L0.909,-0.468L0.469,-0.468ZM0.239,-0.844C0.191,-0.745 0.109,-0.651 0.028,-0.591C0.038,-0.575 0.055,-0.539 0.059,-0.524C0.076,-0.538 0.093,-0.553 0.11,-0.57L0.11,-0.533L0.215,-0.533L0.215,-0.42L0.056,-0.42L0.056,-0.361L0.215,-0.361L0.215,-0.049L0.046,-0.017L0.06,0.046C0.163,0.024 0.302,-0.006 0.434,-0.036L0.429,-0.093L0.275,-0.061L0.275,-0.361L0.422,-0.361L0.422,-0.42L0.275,-0.42L0.275,-0.533L0.39,-0.533L0.39,-0.591L0.131,-0.591C0.17,-0.632 0.207,-0.679 0.239,-0.728C0.304,-0.686 0.369,-0.634 0.409,-0.59L0.444,-0.644C0.403,-0.686 0.338,-0.737 0.27,-0.778L0.292,-0.82L0.239,-0.844Z" style="fill:rgb(27,27,30);fill-rule:nonzero;"/>
            </g>
            <g transform="matrix(11.4243,0,0,13.5594,107.384,145.886)">
                <path d="M0.546,-0.589L0.857,-0.589L0.857,-0.489L0.546,-0.489L0.546,-0.589ZM0.546,-0.739L0.857,-0.739L0.857,-0.64L0.546,-0.64L0.546,-0.739ZM0.482,-0.793L0.482,-0.434L0.923,-0.434L0.923,-0.793L0.482,-0.793ZM0.107,-0.28C0.13,-0.221 0.151,-0.141 0.158,-0.089L0.206,-0.103C0.199,-0.155 0.178,-0.233 0.153,-0.293L0.107,-0.28ZM0.361,-0.309C0.352,-0.255 0.332,-0.175 0.316,-0.126L0.358,-0.111C0.376,-0.158 0.395,-0.232 0.414,-0.293L0.361,-0.309ZM0.476,0.082C0.494,0.071 0.522,0.062 0.691,0.019C0.687,0.006 0.682,-0.018 0.68,-0.035L0.55,-0.006L0.55,-0.21L0.688,-0.21L0.688,-0.27L0.55,-0.27L0.55,-0.404L0.488,-0.404L0.488,-0.022C0.488,0.011 0.47,0.017 0.455,0.021C0.464,0.037 0.474,0.065 0.476,0.082ZM0.714,-0.405L0.714,-0.017C0.714,0.05 0.73,0.069 0.796,0.069L0.887,0.069C0.942,0.069 0.958,0.039 0.965,-0.075C0.947,-0.08 0.922,-0.089 0.908,-0.099C0.906,-0.003 0.902,0.014 0.88,0.014L0.804,0.014C0.781,0.014 0.777,0.009 0.777,-0.017L0.777,-0.212L0.944,-0.212L0.944,-0.27L0.777,-0.27L0.777,-0.405L0.714,-0.405ZM0.065,-0.017L0.082,0.043C0.177,0.022 0.304,-0.008 0.426,-0.037L0.421,-0.091L0.29,-0.063L0.29,-0.35L0.418,-0.35L0.418,-0.409L0.29,-0.409L0.29,-0.525L0.386,-0.525L0.386,-0.584L0.131,-0.584L0.131,-0.525L0.231,-0.525L0.231,-0.409L0.086,-0.409L0.086,-0.35L0.231,-0.35L0.231,-0.051L0.065,-0.017ZM0.259,-0.838C0.209,-0.742 0.123,-0.651 0.038,-0.593C0.049,-0.578 0.066,-0.547 0.071,-0.534C0.137,-0.584 0.205,-0.655 0.259,-0.731C0.317,-0.695 0.378,-0.649 0.416,-0.613L0.446,-0.663C0.407,-0.697 0.347,-0.74 0.288,-0.775L0.313,-0.818L0.259,-0.838Z" style="fill:rgb(27,27,30);fill-rule:nonzero;"/>
            </g>
        </g>
    </g>
</svg>
