<?xml version="1.0" encoding="utf-8"?>
<!-- Generator: Adobe Illustrator 16.0.0, SVG Export Plug-In . SVG Version: 6.00 Build 0)  -->
<!DOCTYPE svg PUBLIC "-//W3C//DTD SVG 1.1//EN" "http://www.w3.org/Graphics/SVG/1.1/DTD/svg11.dtd" [
	<!ENTITY st0 "fill:#1B1B1E;">
]>
<svg version="1.1" id="Layer_1" xmlns="http://www.w3.org/2000/svg" xmlns:xlink="http://www.w3.org/1999/xlink" x="0px" y="0px"
	 width="564.408px" height="270.103px" viewBox="0 0 564.408 270.103" style="enable-background:new 0 0 564.408 270.103;"
	 xml:space="preserve">
<g>
	<path style="&st0;" d="M101.216,216.724l1.167,21.877c-32.669,8.167-67.671,16.918-93.34,22.751l-5.25-24.21
		c11.376-2.333,25.96-5.25,41.711-8.75v-78.756H7.292v-23.043h38.211V98.882H22.168V86.631c-4.375,4.668-8.459,8.459-12.542,12.251
		C8.167,92.757,2.917,77.881,0,71.172C20.126,54.546,41.42,28.586,53.67,1.167l18.668,9.626c-1.75,3.5-3.5,7.292-5.542,11.376
		c16.626,11.084,33.252,24.501,43.17,34.71L99.465,79.631c-10.5-11.084-27.127-25.96-43.461-37.919
		C48.42,54.254,39.961,65.63,31.502,76.131h61.254v22.751h-25.96v27.711h34.711v23.043H66.796v74.672L101.216,216.724z
		 M27.127,162.762c4.667,16.626,9.042,37.919,10.209,51.92l-16.917,5.251c-0.875-14.293-4.959-35.586-9.334-52.504L27.127,162.762z
		 M70.588,211.182c4.083-14.001,9.042-36.169,11.084-51.337l18.376,5.542c-4.958,17.793-10.209,37.92-14.876,51.045L70.588,211.182z
		 M270.103,240.934v22.168H107.924v-22.168h67.38v-29.752h-50.462v-21.877h50.462v-23.043h-42.878v-61.546h-20.71v-48.42h63.588
		V3.209h26.543v53.087h7.875c10.209-13.709,22.46-34.419,28.877-49.587l23.626,9.626c-8.167,13.417-17.209,28.002-25.668,39.961
		h30.918v48.42h-21.293v61.546h-44.336v23.043h51.92v21.877h-51.92v29.752H270.103z M141.177,54.546
		c-3.792-10.209-13.417-25.96-22.168-37.044l20.71-9.626c9.625,11.084,18.959,25.96,23.335,35.877L141.177,54.546z M136.801,77.881
		v19.835h104.424V77.881H136.801z M156.928,146.427h63.296V117.55h-63.296V146.427z"/>
	<path style="&st0;" d="M332.808,60.963c-9.334,9.042-19.252,17.21-29.168,23.918c-2.043-5.25-7.877-19.251-11.96-25.376
		C314.431,45.795,338.058,23.627,351.185,0l22.459,7.876c-1.459,2.917-3.209,6.125-4.959,9.042
		c14.002,7.292,30.336,16.918,39.379,23.335l-12.252,21.585c-9.041-7-25.668-17.501-40.252-25.96
		c-6.125,7.584-12.252,14.584-18.961,21.293h46.088v18.668h-49.879V60.963z M378.019,194.556
		c10.502,18.085,23.627,42.878,29.17,57.171l-21.002,10.792c-2.334-6.417-5.834-14.001-9.625-22.46
		c-55.129,21.585-63.588,25.669-69.131,30.044c-1.459-6.417-5.541-17.793-9.334-23.918c5.25-2.042,12.25-6.126,12.25-16.918V90.423
		h85.174v100.049h-60.379v42.587l32.377-11.668c-3.209-6.417-6.125-12.251-9.334-18.084L378.019,194.556z M335.142,110.55v19.543
		h36.752V110.55H335.142z M371.894,170.346v-20.71h-36.752v20.71H371.894z M495.277,163.637v79.631
		c0,12.834-2.625,18.959-10.5,22.751c-8.168,3.792-19.834,4.084-37.045,4.084c-1.166-6.417-4.957-16.626-8.166-22.46
		c11.084,0.292,22.459,0.292,25.668,0.292c3.791,0,4.959-1.167,4.959-4.667v-79.631h-61.254v-24.21h61.254v-29.46h-43.17V86.34
		h110.258c-20.418-13.418-39.086-28.586-56.879-48.129c-18.377,21.877-42.004,40.253-65.922,53.088
		c-3.5-6.126-9.916-14.293-16.043-19.835c32.086-14.876,64.172-41.128,81.09-70.297l21.002,9.042
		c-2.043,3.501-4.084,6.709-6.418,10.209c20.709,22.169,44.336,37.045,70.297,49.587c-6.125,6.417-13.709,14.876-17.209,22.752
		c-3.209-2.042-6.709-4.084-9.918-6.417v23.627h-42.004v29.46h62.131v24.21H495.277z M452.109,182.888
		c-8.459,22.169-21.002,47.837-30.629,64.463c-4.666-3.792-14.291-9.917-19.834-12.834c10.209-15.459,20.709-37.919,28.002-58.046
		L452.109,182.888z M531.156,174.429c10.791,19.835,24.793,46.379,30.918,62.13L540.49,247.06
		c-6.127-16.335-19.543-43.462-30.045-63.588L531.156,174.429z"/>
</g>
</svg>
