<?xml version="1.0" encoding="UTF-8" standalone="no"?>
<!DOCTYPE svg PUBLIC "-//W3C//DTD SVG 1.1//EN" "http://www.w3.org/Graphics/SVG/1.1/DTD/svg11.dtd">
<svg width="100%" height="100%" viewBox="0 0 573 271" version="1.1" xmlns="http://www.w3.org/2000/svg" xmlns:xlink="http://www.w3.org/1999/xlink" xml:space="preserve" xmlns:serif="http://www.serif.com/" style="fill-rule:evenodd;clip-rule:evenodd;stroke-linejoin:round;stroke-miterlimit:2;">
    <g transform="matrix(24.1552,0,0,24.1552,-1193.9,-3893.55)">
        <g>
            <path d="M50.834,167.936L50.178,168.127C50.357,168.808 50.512,169.703 50.559,170.288L51.263,170.061C51.203,169.488 51.036,168.605 50.834,167.936ZM53.849,168.044L53.098,167.805C53.003,168.426 52.8,169.357 52.633,169.929L53.241,170.144C53.432,169.607 53.635,168.772 53.849,168.044ZM56.21,167.245L56.21,166.053L58.82,166.053L58.82,167.245L56.21,167.245ZM55.494,161.518L54.636,161.912C55.006,162.366 55.399,163.022 55.554,163.452L56.46,162.998C56.281,162.592 55.888,161.972 55.494,161.518ZM52.705,161.626L51.93,161.244C51.418,162.378 50.547,163.464 49.713,164.132C49.844,164.407 50.059,165.04 50.118,165.302C50.285,165.147 50.464,164.98 50.631,164.789L50.631,165.302L51.608,165.302L51.608,166.422L50.023,166.422L50.023,167.388L51.608,167.388L51.608,170.654L49.88,170.988L50.094,172.001C51.155,171.751 52.598,171.393 53.957,171.059L53.897,170.165L52.467,170.475L52.467,167.388L53.909,167.388L53.909,166.422L52.467,166.422L52.467,165.302L53.563,165.302L53.563,164.348L51.012,164.348C51.382,163.919 51.728,163.429 52.026,162.915C52.705,163.405 53.396,164.014 53.814,164.491L54.255,163.548C53.837,163.118 53.17,162.569 52.479,162.104L52.705,161.626ZM60.894,171.143L58.057,171.143L58.057,169.915L60.227,169.915L60.227,168.997L58.057,168.997L58.057,168.067L59.905,168.067L59.905,165.528L60.775,165.528L60.775,163.514L59.512,163.514C59.869,163.012 60.239,162.415 60.561,161.853L59.583,161.459C59.321,162.08 58.82,162.941 58.403,163.514L58.057,163.514L58.057,161.316L56.972,161.316L56.972,163.514L54.35,163.514L54.35,165.528L55.196,165.528L55.196,168.067L56.972,168.067L56.972,168.997L54.875,168.997L54.875,169.915L56.972,169.915L56.972,171.143L54.183,171.143L54.183,172.073L60.894,172.073L60.894,171.143ZM55.375,165.23L55.375,164.42L59.714,164.42L59.714,165.23L55.375,165.23Z" style="fill:rgb(27,27,30);fill-rule:nonzero;"/>
            <path d="M68.273,168.771L67.343,168.497C67.045,169.307 66.604,170.249 66.187,170.881C66.425,171.012 66.819,171.262 67.009,171.417C67.427,170.738 67.927,169.677 68.273,168.771ZM71.539,168.413L70.681,168.771C71.122,169.617 71.67,170.738 71.921,171.405L72.827,170.964C72.552,170.32 71.992,169.224 71.539,168.413ZM70.061,171.25L70.061,167.96L72.624,167.96L72.624,166.959L70.061,166.959L70.061,165.743L71.789,165.743L71.789,164.754L67.236,164.754L67.236,165.743L69.012,165.743L69.012,166.959L66.485,166.959L66.485,167.96L69.012,167.96L69.012,171.25C69.012,171.393 68.964,171.441 68.821,171.441C68.678,171.441 68.213,171.441 67.76,171.429C67.892,171.679 68.046,172.097 68.106,172.371C68.809,172.371 69.298,172.359 69.62,172.204C69.966,172.049 70.061,171.787 70.061,171.25ZM70.276,161.614L69.405,161.232C68.714,162.449 67.379,163.524 66.056,164.145C66.294,164.36 66.58,164.706 66.723,164.968C67.725,164.431 68.69,163.679 69.453,162.784C70.18,163.584 70.943,164.205 71.789,164.754L72.207,165.016C72.35,164.694 72.66,164.324 72.91,164.085C71.849,163.56 70.848,162.927 70.025,162.02L70.276,161.614ZM64.947,166.577L63.445,166.577L63.445,165.767L64.947,165.767L64.947,166.577ZM64.947,167.376L64.947,168.246L63.445,168.246L63.445,167.376L64.947,167.376ZM65.221,169.236L64.387,169.594L64.768,170.346L63.445,170.824L63.445,169.081L65.937,169.081L65.937,164.932L62.42,164.932L62.42,170.681C62.42,171.111 62.122,171.29 61.908,171.373C62.062,171.624 62.241,172.101 62.289,172.376C62.515,172.185 62.885,172.018 65.138,171.122C65.305,171.469 65.436,171.803 65.531,172.054L66.425,171.612C66.187,171.015 65.639,169.988 65.221,169.236ZM65.4,163.562L63.493,163.562C63.767,163.287 64.029,162.988 64.268,162.678C64.864,163.036 65.579,163.466 65.937,163.764L66.437,162.845C66.068,162.594 65.4,162.2 64.816,161.889L65.031,161.519L64.089,161.196C63.553,162.176 62.587,163.084 61.633,163.657C61.8,163.919 62.051,164.48 62.122,164.718C62.539,164.444 62.945,164.098 63.338,163.717L63.338,164.336L65.4,164.336L65.4,163.562Z" style="fill:rgb(27,27,30);fill-rule:nonzero;"/>
        </g>
    </g>
</svg>
