<?xml version="1.0" encoding="UTF-8" standalone="no"?>
<!DOCTYPE svg PUBLIC "-//W3C//DTD SVG 1.1//EN" "http://www.w3.org/Graphics/SVG/1.1/DTD/svg11.dtd">
<svg width="100%" height="100%" viewBox="0 0 565 271" version="1.1" xmlns="http://www.w3.org/2000/svg" xmlns:xlink="http://www.w3.org/1999/xlink" xml:space="preserve" xmlns:serif="http://www.serif.com/" style="fill-rule:evenodd;clip-rule:evenodd;stroke-linejoin:round;stroke-miterlimit:2;">
    <g>
        <g transform="matrix(24.7459,0,0,20.8493,-2380.03,-2797.61)">
            <g transform="matrix(11.4243,0,0,13.5594,95.9597,145.886)">
                <path d="M0.305,-0.548L0.305,-0.486L0.678,-0.486L0.678,-0.548L0.305,-0.548ZM0.175,-0.398L0.175,-0.334L0.719,-0.334C0.656,-0.269 0.572,-0.186 0.495,-0.114C0.445,-0.15 0.392,-0.186 0.346,-0.215L0.299,-0.167C0.408,-0.097 0.545,0.008 0.61,0.075L0.659,0.02C0.632,-0.006 0.594,-0.038 0.552,-0.071C0.653,-0.17 0.769,-0.288 0.848,-0.373L0.798,-0.403L0.787,-0.398L0.175,-0.398ZM0.488,-0.844C0.389,-0.708 0.212,-0.573 0.042,-0.497C0.06,-0.48 0.08,-0.457 0.091,-0.441C0.235,-0.511 0.383,-0.621 0.491,-0.741C0.601,-0.623 0.77,-0.504 0.905,-0.442C0.916,-0.461 0.939,-0.489 0.956,-0.504C0.813,-0.56 0.635,-0.678 0.532,-0.789L0.549,-0.811L0.488,-0.844Z" style="fill:rgb(27,27,30);fill-rule:nonzero;"/>
            </g>
            <g transform="matrix(11.4243,0,0,13.5594,107.384,145.886)">
                <path d="M0.422,-0.59L0.422,-0.535L0.804,-0.535L0.804,-0.59L0.422,-0.59ZM0.696,-0.448L0.696,-0.087L0.752,-0.087L0.752,-0.448L0.696,-0.448ZM0.837,-0.484L0.837,-0.001C0.837,0.01 0.834,0.013 0.821,0.014C0.809,0.015 0.769,0.015 0.723,0.014C0.732,0.031 0.74,0.057 0.743,0.073C0.802,0.073 0.84,0.073 0.864,0.062C0.889,0.052 0.895,0.034 0.895,-0.001L0.895,-0.484L0.837,-0.484ZM0.083,-0.781C0.138,-0.746 0.208,-0.696 0.243,-0.663L0.286,-0.714C0.249,-0.745 0.179,-0.793 0.125,-0.825L0.083,-0.781ZM0.04,-0.511C0.096,-0.479 0.169,-0.431 0.205,-0.401L0.247,-0.452C0.209,-0.482 0.136,-0.527 0.081,-0.557L0.04,-0.511ZM0.06,0.028L0.121,0.066C0.166,-0.026 0.218,-0.151 0.257,-0.255L0.203,-0.292C0.161,-0.18 0.102,-0.049 0.06,0.028ZM0.555,-0.41L0.555,-0.326L0.396,-0.326L0.396,-0.41L0.555,-0.41ZM0.336,-0.465L0.336,0.075L0.396,0.075L0.396,-0.133L0.555,-0.133L0.555,-0C0.555,0.009 0.553,0.012 0.543,0.012C0.535,0.012 0.508,0.012 0.476,0.011C0.485,0.028 0.492,0.054 0.494,0.071C0.538,0.071 0.569,0.07 0.589,0.06C0.608,0.049 0.614,0.031 0.614,-0L0.614,-0.465L0.336,-0.465ZM0.396,-0.274L0.555,-0.274L0.555,-0.185L0.396,-0.185L0.396,-0.274ZM0.619,-0.842C0.542,-0.736 0.398,-0.638 0.257,-0.585C0.273,-0.57 0.292,-0.547 0.302,-0.53C0.414,-0.579 0.529,-0.653 0.615,-0.74C0.706,-0.654 0.809,-0.598 0.924,-0.55C0.932,-0.568 0.951,-0.591 0.965,-0.604C0.849,-0.646 0.741,-0.698 0.652,-0.781L0.678,-0.814L0.619,-0.842Z" style="fill:rgb(27,27,30);fill-rule:nonzero;"/>
            </g>
        </g>
    </g>
</svg>
