<?xml version="1.0" encoding="UTF-8" standalone="no"?>
<!DOCTYPE svg PUBLIC "-//W3C//DTD SVG 1.1//EN" "http://www.w3.org/Graphics/SVG/1.1/DTD/svg11.dtd">
<svg width="100%" height="100%" viewBox="0 0 565 271" version="1.1" xmlns="http://www.w3.org/2000/svg" xmlns:xlink="http://www.w3.org/1999/xlink" xml:space="preserve" xmlns:serif="http://www.serif.com/" style="fill-rule:evenodd;clip-rule:evenodd;stroke-linejoin:round;stroke-miterlimit:2;">
    <g>
        <g transform="matrix(24.7459,0,0,20.8493,-2380.03,-2797.61)">
            <g transform="matrix(11.4243,0,0,13.5594,95.9597,145.886)">
                <path d="M0.298,-0.574L0.298,-0.512L0.693,-0.512L0.693,-0.574L0.298,-0.574ZM0.131,-0.425L0.131,0.001L0.193,0.001L0.193,-0.085L0.431,-0.085L0.431,-0.425L0.131,-0.425ZM0.193,-0.365L0.367,-0.365L0.367,-0.146L0.193,-0.146L0.193,-0.365ZM0.542,-0.425L0.542,0.079L0.607,0.079L0.607,-0.365L0.809,-0.365L0.809,-0.141C0.809,-0.129 0.805,-0.125 0.791,-0.124C0.776,-0.124 0.727,-0.124 0.668,-0.125C0.676,-0.106 0.685,-0.081 0.688,-0.062C0.765,-0.062 0.813,-0.062 0.84,-0.073C0.867,-0.085 0.874,-0.104 0.874,-0.142L0.874,-0.425L0.542,-0.425ZM0.504,-0.85C0.412,-0.714 0.221,-0.585 0.037,-0.534C0.051,-0.517 0.067,-0.489 0.076,-0.469C0.232,-0.521 0.394,-0.625 0.502,-0.743C0.603,-0.627 0.763,-0.523 0.915,-0.474C0.926,-0.494 0.947,-0.523 0.965,-0.539C0.805,-0.581 0.633,-0.683 0.541,-0.789L0.558,-0.811L0.504,-0.85Z" style="fill:rgb(27,27,30);fill-rule:nonzero;"/>
            </g>
            <g transform="matrix(11.4243,0,0,13.5594,107.384,145.886)">
                <path d="M0.132,-0.435L0.224,-0.435L0.224,-0.297L0.132,-0.297L0.132,-0.435ZM0.363,-0.435L0.457,-0.435L0.457,-0.297L0.363,-0.297L0.363,-0.435ZM0.659,-0.839C0.64,-0.687 0.606,-0.54 0.544,-0.446C0.559,-0.437 0.586,-0.42 0.598,-0.411C0.631,-0.465 0.658,-0.536 0.679,-0.615L0.87,-0.615C0.854,-0.547 0.832,-0.473 0.812,-0.425L0.863,-0.408C0.892,-0.471 0.922,-0.575 0.945,-0.663L0.903,-0.677L0.892,-0.674L0.694,-0.674C0.705,-0.724 0.714,-0.776 0.722,-0.829L0.659,-0.839ZM0.715,-0.551L0.715,-0.483C0.715,-0.338 0.7,-0.126 0.516,0.036C0.53,0.048 0.55,0.07 0.559,0.085C0.669,-0.014 0.723,-0.13 0.75,-0.242C0.785,-0.111 0.837,-0.015 0.926,0.073C0.935,0.055 0.952,0.035 0.968,0.022C0.856,-0.084 0.803,-0.202 0.772,-0.401C0.774,-0.429 0.774,-0.457 0.774,-0.482L0.774,-0.551L0.715,-0.551ZM0.084,-0.484L0.084,-0.249L0.152,-0.249C0.136,-0.132 0.102,-0.032 0.039,0.035C0.053,0.044 0.075,0.065 0.084,0.074C0.128,0.025 0.16,-0.04 0.182,-0.116C0.212,-0.086 0.24,-0.053 0.255,-0.029L0.293,-0.065C0.274,-0.094 0.233,-0.138 0.196,-0.171C0.202,-0.196 0.207,-0.222 0.211,-0.249L0.274,-0.249L0.274,-0.484L0.084,-0.484ZM0.315,-0.484L0.315,-0.249L0.377,-0.249C0.363,-0.128 0.328,-0.03 0.258,0.034C0.271,0.043 0.292,0.064 0.301,0.073C0.351,0.025 0.386,-0.039 0.409,-0.116C0.444,-0.083 0.477,-0.046 0.496,-0.02L0.537,-0.056C0.514,-0.088 0.466,-0.135 0.422,-0.171C0.428,-0.196 0.432,-0.222 0.436,-0.249L0.507,-0.249L0.507,-0.484L0.315,-0.484ZM0.289,-0.84C0.235,-0.733 0.135,-0.623 0.037,-0.56C0.054,-0.547 0.073,-0.528 0.083,-0.513C0.115,-0.535 0.147,-0.562 0.178,-0.592L0.178,-0.554L0.455,-0.554L0.455,-0.608L0.194,-0.608C0.233,-0.648 0.269,-0.693 0.3,-0.739C0.375,-0.69 0.458,-0.627 0.502,-0.584L0.54,-0.634C0.494,-0.678 0.406,-0.739 0.329,-0.788L0.346,-0.819L0.289,-0.84Z" style="fill:rgb(27,27,30);fill-rule:nonzero;"/>
            </g>
        </g>
    </g>
</svg>
