<?xml version="1.0" encoding="UTF-8" standalone="no"?>
<!DOCTYPE svg PUBLIC "-//W3C//DTD SVG 1.1//EN" "http://www.w3.org/Graphics/SVG/1.1/DTD/svg11.dtd">
<svg width="100%" height="100%" viewBox="0 0 565 271" version="1.1" xmlns="http://www.w3.org/2000/svg" xmlns:xlink="http://www.w3.org/1999/xlink" xml:space="preserve" xmlns:serif="http://www.serif.com/" style="fill-rule:evenodd;clip-rule:evenodd;stroke-linejoin:round;stroke-miterlimit:2;">
    <g>
        <g transform="matrix(24.7459,0,0,20.8493,-2380.03,-2797.61)">
            <g transform="matrix(11.4243,0,0,13.5594,95.9597,145.886)">
                <path d="M0.496,-0.777C0.596,-0.659 0.782,-0.528 0.94,-0.454C0.952,-0.473 0.967,-0.497 0.984,-0.513C0.822,-0.579 0.639,-0.707 0.526,-0.841L0.458,-0.841C0.374,-0.722 0.199,-0.584 0.021,-0.501C0.035,-0.487 0.052,-0.463 0.061,-0.447C0.237,-0.532 0.409,-0.665 0.496,-0.777ZM0.3,-0.581L0.3,-0.52L0.711,-0.52L0.711,-0.581L0.3,-0.581ZM0.137,-0.425L0.137,0.001L0.199,0.001L0.199,-0.085L0.445,-0.085L0.445,-0.425L0.137,-0.425ZM0.199,-0.365L0.383,-0.365L0.383,-0.146L0.199,-0.146L0.199,-0.365ZM0.535,-0.425L0.535,0.08L0.599,0.08L0.599,-0.366L0.811,-0.366L0.811,-0.111C0.811,-0.098 0.807,-0.094 0.793,-0.094C0.778,-0.093 0.728,-0.093 0.669,-0.095C0.678,-0.077 0.687,-0.052 0.69,-0.033C0.767,-0.033 0.814,-0.033 0.841,-0.044C0.869,-0.055 0.876,-0.074 0.876,-0.11L0.876,-0.425L0.535,-0.425Z" style="fill:rgb(27,27,30);fill-rule:nonzero;"/>
            </g>
            <g transform="matrix(11.4243,0,0,13.5594,107.384,145.886)">
                <path d="M0.135,-0.437L0.218,-0.437L0.218,-0.299L0.135,-0.299L0.135,-0.437ZM0.087,-0.486L0.087,-0.251L0.268,-0.251L0.268,-0.486L0.087,-0.486ZM0.365,-0.437L0.456,-0.437L0.456,-0.299L0.365,-0.299L0.365,-0.437ZM0.261,-0.836C0.217,-0.754 0.136,-0.651 0.025,-0.575C0.039,-0.565 0.059,-0.543 0.069,-0.528C0.103,-0.553 0.133,-0.579 0.161,-0.605L0.161,-0.559L0.434,-0.559L0.434,-0.614L0.17,-0.614C0.226,-0.669 0.27,-0.726 0.303,-0.776C0.374,-0.715 0.453,-0.629 0.495,-0.574L0.542,-0.622C0.495,-0.682 0.401,-0.773 0.323,-0.836L0.261,-0.836ZM0.616,-0.839C0.598,-0.689 0.564,-0.541 0.505,-0.442L0.505,-0.486L0.317,-0.486L0.317,-0.251L0.505,-0.251L0.505,-0.427C0.521,-0.418 0.545,-0.402 0.555,-0.393C0.588,-0.448 0.614,-0.518 0.636,-0.596L0.696,-0.596L0.696,-0.452C0.697,-0.376 0.673,-0.112 0.475,0.024C0.487,0.037 0.506,0.064 0.514,0.077C0.669,-0.033 0.719,-0.224 0.728,-0.305C0.736,-0.226 0.782,-0.029 0.923,0.077C0.932,0.061 0.952,0.035 0.964,0.021C0.785,-0.111 0.759,-0.379 0.76,-0.452L0.76,-0.596L0.881,-0.596C0.873,-0.531 0.862,-0.459 0.85,-0.411L0.903,-0.396C0.922,-0.459 0.939,-0.563 0.951,-0.649L0.908,-0.661L0.897,-0.658L0.651,-0.658C0.664,-0.713 0.675,-0.771 0.683,-0.83L0.616,-0.839ZM0.158,-0.224C0.143,-0.11 0.106,-0.015 0.037,0.046C0.051,0.054 0.076,0.071 0.086,0.081C0.127,0.041 0.158,-0.011 0.181,-0.073C0.205,-0.047 0.229,-0.019 0.242,0.001L0.281,-0.036C0.265,-0.062 0.23,-0.099 0.198,-0.127C0.206,-0.156 0.212,-0.186 0.217,-0.218L0.158,-0.224ZM0.382,-0.224C0.366,-0.108 0.323,-0.017 0.245,0.042C0.26,0.05 0.286,0.069 0.295,0.078C0.342,0.039 0.378,-0.012 0.404,-0.075C0.435,-0.044 0.464,-0.011 0.48,0.013L0.521,-0.024C0.501,-0.052 0.46,-0.094 0.423,-0.128C0.431,-0.156 0.437,-0.186 0.442,-0.218L0.382,-0.224Z" style="fill:rgb(27,27,30);fill-rule:nonzero;"/>
            </g>
        </g>
    </g>
</svg>
