<?xml version="1.0" encoding="UTF-8" standalone="no"?>
<!DOCTYPE svg PUBLIC "-//W3C//DTD SVG 1.1//EN" "http://www.w3.org/Graphics/SVG/1.1/DTD/svg11.dtd">
<svg width="100%" height="100%" viewBox="0 0 565 271" version="1.1" xmlns="http://www.w3.org/2000/svg" xmlns:xlink="http://www.w3.org/1999/xlink" xml:space="preserve" xmlns:serif="http://www.serif.com/" style="fill-rule:evenodd;clip-rule:evenodd;stroke-linejoin:round;stroke-miterlimit:2;">
    <g>
        <g transform="matrix(24.7459,0,0,20.8493,-2380.03,-2797.61)">
            <g transform="matrix(11.4243,0,0,13.5594,95.9597,145.886)">
                <path d="M0.496,-0.772C0.59,-0.648 0.767,-0.503 0.922,-0.418C0.934,-0.436 0.951,-0.46 0.967,-0.476C0.811,-0.552 0.632,-0.697 0.526,-0.841L0.459,-0.841C0.379,-0.712 0.21,-0.557 0.036,-0.465C0.052,-0.45 0.071,-0.426 0.079,-0.412C0.249,-0.508 0.413,-0.652 0.496,-0.772ZM0.289,-0.542L0.289,-0.48L0.713,-0.48L0.713,-0.542L0.289,-0.542ZM0.172,-0.367L0.172,-0.302L0.717,-0.302C0.652,-0.242 0.567,-0.166 0.49,-0.101C0.441,-0.134 0.391,-0.166 0.346,-0.192L0.299,-0.144C0.409,-0.078 0.547,0.021 0.613,0.085L0.663,0.03C0.635,0.004 0.594,-0.028 0.549,-0.06C0.651,-0.152 0.771,-0.263 0.851,-0.341L0.801,-0.371L0.79,-0.367L0.172,-0.367Z" style="fill:rgb(27,27,30);fill-rule:nonzero;"/>
            </g>
            <g transform="matrix(11.4243,0,0,13.5594,107.384,145.886)">
                <path d="M0.086,-0.781C0.142,-0.75 0.209,-0.702 0.241,-0.666L0.282,-0.718C0.248,-0.753 0.182,-0.799 0.126,-0.828L0.086,-0.781ZM0.04,-0.511C0.098,-0.483 0.167,-0.437 0.2,-0.403L0.24,-0.457C0.205,-0.49 0.136,-0.533 0.078,-0.56L0.04,-0.511ZM0.06,0.028L0.121,0.066C0.166,-0.026 0.218,-0.151 0.257,-0.255L0.203,-0.292C0.161,-0.18 0.102,-0.049 0.06,0.028ZM0.611,-0.773C0.685,-0.675 0.817,-0.564 0.933,-0.498C0.943,-0.516 0.958,-0.54 0.971,-0.556C0.854,-0.614 0.722,-0.726 0.639,-0.836L0.577,-0.836C0.516,-0.733 0.389,-0.615 0.261,-0.546C0.274,-0.532 0.29,-0.509 0.298,-0.493C0.425,-0.566 0.546,-0.678 0.611,-0.773ZM0.427,-0.575L0.427,-0.518L0.79,-0.518L0.79,-0.575L0.427,-0.575ZM0.674,-0.419L0.674,-0.074L0.731,-0.074L0.731,-0.419L0.674,-0.419ZM0.84,-0.451L0.84,0.006C0.84,0.017 0.837,0.02 0.825,0.021C0.812,0.021 0.772,0.022 0.725,0.02C0.734,0.038 0.742,0.062 0.744,0.078C0.805,0.078 0.843,0.077 0.867,0.068C0.889,0.058 0.896,0.04 0.896,0.006L0.896,-0.451L0.84,-0.451ZM0.535,-0.382L0.535,-0.3L0.385,-0.3L0.385,-0.382L0.535,-0.382ZM0.327,-0.437L0.327,0.077L0.385,0.077L0.385,-0.108L0.535,-0.108L0.535,0.007C0.535,0.016 0.533,0.019 0.524,0.019C0.513,0.02 0.487,0.02 0.452,0.019C0.46,0.036 0.467,0.061 0.47,0.077C0.517,0.077 0.548,0.076 0.571,0.066C0.59,0.056 0.594,0.038 0.594,0.009L0.594,-0.437L0.327,-0.437ZM0.385,-0.248L0.535,-0.248L0.535,-0.16L0.385,-0.16L0.385,-0.248Z" style="fill:rgb(27,27,30);fill-rule:nonzero;"/>
            </g>
        </g>
    </g>
</svg>
