<?xml version="1.0" encoding="UTF-8" standalone="no"?>
<!DOCTYPE svg PUBLIC "-//W3C//DTD SVG 1.1//EN" "http://www.w3.org/Graphics/SVG/1.1/DTD/svg11.dtd">
<svg width="100%" height="100%" viewBox="0 0 565 271" version="1.1" xmlns="http://www.w3.org/2000/svg" xmlns:xlink="http://www.w3.org/1999/xlink" xml:space="preserve" xmlns:serif="http://www.serif.com/" style="fill-rule:evenodd;clip-rule:evenodd;stroke-linejoin:round;stroke-miterlimit:2;">
    <g>
        <g>
            <path d="M248.137,55.999L125.157,55.999L125.157,63.547L248.137,63.547L248.137,55.999ZM258.017,103.108L94.997,103.108L94.997,110.916L258.017,110.916L258.017,103.108ZM145.437,26.071L137.637,24.247C129.057,49.755 115.017,74.74 98.377,91.916C100.717,92.956 104.097,95.04 105.657,96.34C121.257,78.644 136.077,52.875 145.437,26.071ZM181.057,20.083L173.517,20.083L173.517,146.313L181.057,146.313L181.057,20.083ZM44.817,20.603L38.577,23.727C49.757,36.479 63.537,54.179 70.557,65.107L76.797,61.203C70.297,50.535 56.257,33.359 44.817,20.603ZM85.117,79.424L26.357,79.424L26.357,87.232L85.117,87.232L85.117,79.424ZM66.397,204.87L60.937,208.774C80.957,244.69 116.837,250.674 178.197,250.674C204.977,250.674 237.217,250.154 258.797,248.854C259.317,246.77 260.357,242.606 261.917,240.266C238.257,242.346 204.717,242.866 177.937,242.866C121.517,242.866 84.337,238.182 66.397,204.87ZM81.477,146.049L79.657,146.049L79.657,148.133C71.597,197.322 50.277,231.158 23.237,249.114C25.057,250.414 27.657,253.018 28.957,255.098C56.777,235.842 78.617,200.966 87.717,147.613L83.297,145.789L81.477,146.049ZM28.697,149.433L28.697,156.981C30.517,155.161 36.497,153.597 43.777,153.597L82.517,153.597L82.517,146.049L36.237,146.049L28.697,149.433ZM28.697,156.981C28.697,153.857 37.277,149.693 37.277,149.693C52.617,133.557 78.877,99.464 91.877,81.768L84.857,78.124L81.217,79.944L81.217,80.724C72.377,94 44.817,131.217 35.977,139.805C31.817,144.489 27.657,146.049 24.277,147.093C25.577,149.433 28.177,154.381 28.697,156.981ZM126.457,206.69L126.457,150.737L230.717,150.737L230.717,206.69L126.457,206.69ZM238.517,142.929L118.917,142.929L118.917,214.498L238.517,214.498L238.517,142.929Z" style="fill:rgb(27,27,30);fill-rule:nonzero;"/>
            <path d="M310.72,153.581L362.98,153.581L362.98,146.041L316.18,146.041L310.72,147.341L310.72,153.581ZM307.86,147.081L310.72,153.581C310.72,152.281 316.18,149.941 316.18,149.941C330.22,132.521 355.96,99.241 369.22,82.081L363.24,78.701L360.38,80.001L360.38,80.521C351.02,93.781 321.38,131.221 307.86,147.081ZM305.52,87.281L364.02,87.281L364.02,79.481L305.52,79.481L305.52,87.281ZM404.32,63.621L527.3,63.621L527.3,56.081L404.32,56.081L404.32,63.621ZM374.16,110.941L537.18,110.941L537.18,103.141L374.16,103.141L374.16,110.941ZM377.54,91.961L384.82,96.381C400.42,78.701 415.24,52.961 424.6,26.181L416.8,24.361C408.22,49.841 394.18,74.801 377.54,91.961ZM452.68,146.301L460.22,146.301L460.22,20.201L452.68,20.201L452.68,146.301ZM317.74,23.841C328.92,36.581 342.7,54.521 349.72,65.181L355.96,61.281C349.46,50.621 335.42,33.721 323.98,20.721L317.74,23.841ZM340.62,209.221C360.64,244.581 396.26,250.821 457.36,250.821C484.14,250.821 516.38,250.821 538.74,250.561L541.08,242.241C517.42,243.021 483.88,243.021 457.1,243.021C401.2,243.021 364.02,238.081 346.08,205.321L340.62,209.221ZM302.14,249.261L308.12,255.241C337.24,236.001 360.12,201.161 369.74,147.601L365.32,145.781L363.5,146.041L361.68,146.041L361.68,148.121C353.1,197.521 330.74,231.061 302.14,249.261ZM405.62,206.621L405.62,150.721L509.88,150.721L509.88,206.621L405.62,206.621ZM398.08,214.421L517.68,214.421L517.68,142.921L398.08,142.921L398.08,214.421Z" style="fill:rgb(27,27,30);fill-rule:nonzero;"/>
        </g>
    </g>
</svg>
