<?xml version="1.0" encoding="UTF-8" standalone="no"?>
<!DOCTYPE svg PUBLIC "-//W3C//DTD SVG 1.1//EN" "http://www.w3.org/Graphics/SVG/1.1/DTD/svg11.dtd">
<svg width="100%" height="100%" viewBox="0 0 565 271" version="1.1" xmlns="http://www.w3.org/2000/svg" xmlns:xlink="http://www.w3.org/1999/xlink" xml:space="preserve" xmlns:serif="http://www.serif.com/" style="fill-rule:evenodd;clip-rule:evenodd;stroke-linejoin:round;stroke-miterlimit:2;">
    <g>
        <g>
            <path d="M249.656,51.332L127.993,51.332L127.993,67.504L249.656,67.504L249.656,51.332ZM259.435,98.136L97.833,98.136L97.833,114.873L259.435,114.873L259.435,98.136ZM150.304,25.969L132.664,22.017C125.303,45.591 112.579,68.955 97.26,84.607C101.932,86.663 109.671,90.876 113.363,93.703C127.846,77.019 141.854,51.762 150.304,25.969ZM188.357,18.661L170.068,18.661L170.068,147.324L188.357,147.324L188.357,18.661ZM49.176,17.763L34.518,26.469C46.105,39.323 60.494,57.222 67.616,68.256L82.574,57.653C75.468,47.082 61.124,30.312 49.176,17.763ZM80.652,77.596L25.138,77.596L25.138,93.931L80.652,93.931L80.652,77.596ZM71.568,196.85L58.097,203.09C77.813,246.214 111.864,253.315 172.924,253.315C201.426,253.315 234.174,252.592 258.492,251.19C259.516,245.759 262.181,236.517 265.159,231.942C238.558,234.53 200.252,235.659 173.066,235.558C121.314,235.558 87.477,231.077 71.568,196.85ZM78.84,142.498L73.978,142.498L73.978,146C66.828,193.365 47.133,226.385 19.788,243.939C23.737,246.762 30.391,253.729 33.113,257.942C62.046,238.174 83.585,201.372 92.381,145.785L82.281,142.035L78.84,142.498ZM28.697,147.101L28.697,162.055C30.716,160.032 37.508,158.37 44.078,158.37L79.271,158.37L79.271,142.498L38.061,142.498L28.697,147.101ZM28.697,162.055C28.697,156.701 44.476,149.083 44.476,149.083C59.511,132.846 83.642,99.972 96.134,82.373L82.119,75.991L75.944,78.623L75.944,79.505C67.201,93.086 42.079,127.56 33.946,135.442C29.379,140.329 25.02,142.092 21.031,143.233C23.241,147.406 27.568,157.119 28.697,162.055ZM137.405,197.557L137.405,156.319L223.006,156.319L223.006,197.557L137.405,197.557ZM242.368,140.187L119.014,140.187L119.014,213.689L242.368,213.689L242.368,140.187Z" style="fill:rgb(27,27,30);fill-rule:nonzero;"/>
            <path d="M310.618,158.35L358.414,158.35L358.414,142.494L318.004,142.494L310.618,145.821L310.618,158.35ZM305.422,144.952L310.618,158.35C310.618,155.019 323.277,150.245 323.277,150.245C336.911,132.724 360.725,100.459 373.274,83.096L360.299,76.673L355.204,78.481L355.204,79.204C345.946,92.972 319.349,127.979 305.422,144.952ZM304.301,93.976L359.657,93.976L359.657,77.657L304.301,77.657L304.301,93.976ZM407.156,67.577L528.819,67.577L528.819,51.417L407.156,51.417L407.156,67.577ZM376.996,114.897L538.598,114.897L538.598,98.172L376.996,98.172L376.996,114.897ZM376.524,84.66L392.527,93.744C407.009,76.978 421.017,51.847 429.467,26.083L411.827,22.13C404.466,45.583 391.844,69.024 376.524,84.66ZM449.231,147.316L467.52,147.316L467.52,18.783L449.231,18.783L449.231,147.316ZM313.682,26.579C325.268,39.42 339.657,57.462 346.779,68.325L361.737,57.734C354.632,47.176 340.287,30.58 328.339,17.885L313.682,26.579ZM337.577,203.342C357.292,246.104 391.186,253.36 452.083,253.36C480.589,253.36 513.337,253.36 539.345,252.998L544.322,234.534C517.721,235.72 479.415,235.72 452.229,235.619C400.794,235.619 366.957,230.983 351.048,197.11L337.577,203.342ZM299.702,243.987L313.292,257.979C342.814,238.235 364.784,201.465 373.997,145.777L363.898,142.031L360.457,142.494L355.594,142.494L355.594,145.992C348.127,193.466 327.799,226.295 299.702,243.987ZM416.568,197.496L416.568,156.298L502.169,156.298L502.169,197.496L416.568,197.496ZM398.177,213.612L521.531,213.612L521.531,140.187L398.177,140.187L398.177,213.612Z" style="fill:rgb(27,27,30);fill-rule:nonzero;"/>
        </g>
    </g>
</svg>
