<?xml version="1.0" encoding="UTF-8" standalone="no"?>
<!DOCTYPE svg PUBLIC "-//W3C//DTD SVG 1.1//EN" "http://www.w3.org/Graphics/SVG/1.1/DTD/svg11.dtd">
<svg width="100%" height="100%" viewBox="0 0 565 271" version="1.1" xmlns="http://www.w3.org/2000/svg" xmlns:xlink="http://www.w3.org/1999/xlink" xml:space="preserve" xmlns:serif="http://www.serif.com/" style="fill-rule:evenodd;clip-rule:evenodd;stroke-linejoin:round;stroke-miterlimit:2;">
    <g>
        <g>
            <path d="M252.037,44.027L132.437,44.027L132.437,73.7L252.037,73.7L252.037,44.027ZM261.657,90.356L102.277,90.356L102.277,121.064L261.657,121.064L261.657,90.356ZM157.917,25.811L124.897,18.523C119.437,39.083 108.777,59.903 95.517,73.176C103.837,76.82 118.397,84.368 125.417,89.572C138.157,74.48 150.897,50.015 157.917,25.811ZM199.777,16.439L164.677,16.439L164.677,148.913L199.777,148.913L199.777,16.439ZM55.997,13.319L28.177,30.755C40.397,43.767 55.737,61.987 63.017,73.176L91.617,52.095C83.557,41.687 68.737,25.551 55.997,13.319ZM73.677,74.74L23.237,74.74L23.237,104.408L73.677,104.408L73.677,74.74ZM79.657,184.309L53.657,194.197C72.897,248.594 104.097,257.442 164.677,257.442C195.877,257.442 229.417,256.402 258.017,254.838C259.837,244.17 265.037,226.994 270.237,218.926C239.037,222.306 193.277,224.39 165.457,224.13C120.997,224.13 92.397,219.966 79.657,184.309ZM74.717,136.941L65.097,136.941L65.097,142.669C59.377,187.173 42.217,218.926 14.397,235.842C21.677,241.046 34.677,254.838 39.617,262.387C70.297,241.826 91.357,202.006 99.677,142.929L80.697,136.161L74.717,136.941ZM28.697,143.449L28.697,169.993C31.037,167.653 39.097,165.829 44.557,165.829L74.197,165.829L74.197,136.941L40.917,136.941L28.697,143.449ZM28.697,169.993C28.697,161.145 55.737,148.133 55.737,148.133C70.297,131.737 91.097,100.764 102.797,83.328L77.837,72.656L67.697,76.56L67.697,77.604C59.117,91.656 37.797,121.844 30.777,128.612C25.577,133.817 20.897,135.901 15.957,137.201C19.597,144.229 26.617,161.405 28.697,169.993ZM154.537,183.269L154.537,165.049L210.957,165.049L210.957,183.269L154.537,183.269ZM248.397,135.901L119.177,135.901L119.177,212.418L248.397,212.418L248.397,135.901Z" style="fill:rgb(27,27,30);fill-rule:nonzero;"/>
            <path d="M310.46,165.801L351.28,165.801L351.28,136.941L320.86,136.941L310.46,143.441L310.46,165.801ZM301.62,141.621L310.46,165.801C310.46,159.301 334.38,150.721 334.38,150.721C347.38,133.041 368.18,102.361 379.62,84.681L355.7,73.501L347.12,76.101L347.12,77.141C338.02,91.701 316.18,122.901 301.62,141.621ZM302.4,104.441L352.84,104.441L352.84,74.801L302.4,74.801L302.4,104.441ZM411.6,73.761L531.2,73.761L531.2,44.121L411.6,44.121L411.6,73.761ZM381.44,121.081L540.82,121.081L540.82,90.401L381.44,90.401L381.44,121.081ZM374.94,73.241L404.58,89.621C417.32,74.281 430.06,50.101 437.08,25.921L404.06,18.641C398.6,38.921 388.2,59.981 374.94,73.241ZM443.84,148.901L478.94,148.901L478.94,16.561L443.84,16.561L443.84,148.901ZM307.34,30.861C319.56,43.861 334.9,62.061 342.18,73.241L370.78,52.181C362.72,41.781 347.9,25.661 335.16,13.441L307.34,30.861ZM332.82,194.141C352.06,248.481 383.26,257.321 443.84,257.321C475.04,257.321 508.58,257.321 540.3,256.801L549.4,222.481C518.2,224.301 472.44,224.301 444.62,224.041C400.16,224.041 371.56,219.881 358.82,184.261L332.82,194.141ZM295.9,235.741L321.38,262.261C351.54,241.721 372.08,201.941 380.66,142.921L361.68,136.161L355.7,136.941L346.08,136.941L346.08,142.661C340.36,187.121 323.2,218.841 295.9,235.741ZM433.7,183.221L433.7,165.021L490.12,165.021L490.12,183.221L433.7,183.221ZM398.34,212.341L527.56,212.341L527.56,135.901L398.34,135.901L398.34,212.341Z" style="fill:rgb(27,27,30);fill-rule:nonzero;"/>
        </g>
    </g>
</svg>
