<?xml version="1.0" encoding="UTF-8" standalone="no"?>
<!DOCTYPE svg PUBLIC "-//W3C//DTD SVG 1.1//EN" "http://www.w3.org/Graphics/SVG/1.1/DTD/svg11.dtd">
<svg width="100%" height="100%" viewBox="0 0 565 271" version="1.1" xmlns="http://www.w3.org/2000/svg" xmlns:xlink="http://www.w3.org/1999/xlink" xml:space="preserve" xmlns:serif="http://www.serif.com/" style="fill-rule:evenodd;clip-rule:evenodd;stroke-linejoin:round;stroke-miterlimit:2;">
    <g>
        <g>
            <path d="M258.017,79.164L97.337,79.164L97.337,86.972L258.017,86.972L258.017,79.164ZM245.277,149.953L111.897,149.953L111.897,157.501L245.277,157.501L245.277,149.953ZM256.457,185.869L100.197,185.869L100.197,193.417L256.457,193.417L256.457,185.869ZM177.677,19.823L170.137,19.823L170.137,227.514L177.677,227.514L177.677,19.823ZM236.437,45.067L116.837,45.067L116.837,52.615L228.637,52.615L228.637,114.56L114.497,114.56L114.497,122.368L236.437,122.368L236.437,45.067ZM91.097,38.043L31.297,38.043L31.297,45.851L91.097,45.851L91.097,38.043ZM90.057,112.736L47.417,112.736L43.777,120.284L90.057,120.284L90.057,112.736ZM89.537,112.736L87.717,112.736L87.717,114.82C79.657,180.405 56.777,224.91 25.577,248.594C27.657,249.894 30.517,252.758 31.817,254.318C63.017,229.594 86.677,184.049 96.037,114.04L91.357,112.476L89.537,112.736ZM45.337,147.873L38.837,150.997C61.977,230.634 112.157,246.77 187.817,246.77L257.237,246.77C257.497,244.69 259.317,241.046 260.877,239.226L187.817,239.226C116.837,239.226 66.657,224.13 45.337,147.873ZM39.617,125.228C39.617,122.628 46.897,120.024 46.897,120.024L46.897,119.764C63.277,99.984 80.437,70.836 96.557,39.863L90.317,36.219L86.677,38.563L86.677,39.603C75.237,66.672 55.997,96.08 50.277,103.368C45.337,111.176 39.877,116.9 35.717,117.42C37.017,119.244 38.837,123.148 39.617,125.228Z" style="fill:rgb(27,27,30);fill-rule:nonzero;"/>
            <path d="M317.48,120.561L369.48,120.561L369.48,112.761L323.46,112.761L317.48,114.061L317.48,120.561ZM314.62,113.021L317.48,120.561C317.48,118.741 321.9,116.401 321.9,116.401C335.94,97.941 362.46,59.461 375.2,39.961L370,36.581L366.62,38.401L366.62,38.921C357.78,54.001 326.58,97.161 314.62,113.021ZM376.5,87.021L537.18,87.021L537.18,79.221L376.5,79.221L376.5,87.021ZM391.06,157.481L524.44,157.481L524.44,149.941L391.06,149.941L391.06,157.481ZM379.36,193.361L535.62,193.361L535.62,185.821L379.36,185.821L379.36,193.361ZM449.3,227.421L456.84,227.421L456.84,19.941L449.3,19.941L449.3,227.421ZM393.66,122.381L515.6,122.381L515.6,45.161L396,45.161L396,52.701L507.8,52.701L507.8,114.581L393.66,114.581L393.66,122.381ZM310.46,45.941L370.26,45.941L370.26,38.141L310.46,38.141L310.46,45.941ZM304.74,248.481L310.98,254.201C342.18,229.501 365.84,184.001 375.2,114.061L370.52,112.501L368.7,112.761L366.88,112.761L366.88,114.841C358.82,180.361 335.94,224.821 304.74,248.481ZM317.74,150.981C341.14,230.541 391.32,246.661 466.98,246.661L537.18,246.661L540.04,239.121L466.98,239.121C396,239.121 345.82,224.041 324.5,147.861L317.74,150.981Z" style="fill:rgb(27,27,30);fill-rule:nonzero;"/>
        </g>
    </g>
</svg>
