<?xml version="1.0" encoding="UTF-8" standalone="no"?>
<!DOCTYPE svg PUBLIC "-//W3C//DTD SVG 1.1//EN" "http://www.w3.org/Graphics/SVG/1.1/DTD/svg11.dtd">
<svg width="100%" height="100%" viewBox="0 0 565 271" version="1.1" xmlns="http://www.w3.org/2000/svg" xmlns:xlink="http://www.w3.org/1999/xlink" xml:space="preserve" xmlns:serif="http://www.serif.com/" style="fill-rule:evenodd;clip-rule:evenodd;stroke-linejoin:round;stroke-miterlimit:2;">
    <g>
        <g>
            <path d="M258.521,74.699L98.552,74.699L98.552,90.218L258.521,90.218L258.521,74.699ZM246.492,146.301L111.389,146.301L111.389,161.056L246.492,161.056L246.492,146.301ZM256.355,181.709L100.396,181.709L100.396,197.378L256.355,197.378L256.355,181.709ZM182.341,17.491L163.95,17.491L163.95,223.248L182.341,223.248L182.341,17.491ZM240.694,39.688L115.313,39.688L115.313,55.256L223.059,55.256L223.059,110.498L113.481,110.498L113.481,126.224L240.694,126.224L240.694,39.688ZM88.761,33.676L29.367,33.676L29.367,51.128L88.761,51.128L88.761,33.676ZM88.127,108.17L48.327,108.17L46.109,125.46L88.127,125.46L88.127,108.17ZM85.174,108.17L81.53,108.17L81.53,111.875C74.888,177.562 54.441,220.852 22.433,243.825C26.743,246.445 33.86,253.165 36.785,256.857C69.403,231.828 91.645,184.354 99.787,110.486L88.72,107.707L85.174,108.17ZM47.77,146.756L33.158,152.216C57.411,234.595 107.489,250.528 182.544,250.528L255.612,250.528C256.583,245.3 260.024,236.683 263.006,232.523C249.66,232.828 193.391,232.828 182.946,232.828C116.735,232.726 68.583,219.56 47.77,146.756ZM37.992,133.756C37.992,129.734 51.967,123.782 51.967,123.782L51.967,123.417C68.042,102.218 85.507,71.242 100.713,38.847L88.184,30.739L80.896,34.094L80.896,35.342C70.264,63.929 52.04,94.353 46.422,102.149C41.177,110.465 34.803,116.9 30.038,117.928C32.654,121.881 36.603,129.847 37.992,133.756Z" style="fill:rgb(27,27,30);fill-rule:nonzero;"/>
            <path d="M315.957,125.736L366.132,125.736L366.132,108.198L324.573,108.198L315.957,112.541L315.957,125.736ZM310.968,110.993L315.957,125.736C315.957,121.987 329.607,116.604 329.607,116.604C343.342,97.234 367.733,59.664 379.965,39.558L367.766,32.323L361.749,34.042L361.749,34.765C352.503,51.567 324.244,92.802 310.968,110.993ZM377.715,90.267L537.785,90.267L537.785,74.76L377.715,74.76L377.715,90.267ZM390.552,161.031L525.756,161.031L525.756,146.292L390.552,146.292L390.552,161.031ZM379.559,197.317L535.518,197.317L535.518,181.665L379.559,181.665L379.559,197.317ZM443.113,223.163L461.605,223.163L461.605,17.609L443.113,17.609L443.113,223.163ZM392.644,126.236L519.857,126.236L519.857,39.79L394.477,39.79L394.477,55.341L502.222,55.341L502.222,110.526L392.644,110.526L392.644,126.236ZM308.53,51.218L367.924,51.218L367.924,33.782L308.53,33.782L308.53,51.218ZM301.596,243.715L315.948,256.74C348.566,231.735 370.808,184.305 378.95,110.514L367.879,107.735L364.337,108.198L360.693,108.198L360.693,111.903C354.051,177.525 333.604,220.766 301.596,243.715ZM312.162,152.199C336.574,234.497 386.652,250.414 461.703,250.414L536.672,250.414L542.169,232.43C528.819,232.734 472.554,232.734 462.109,232.734C395.898,232.633 347.746,219.478 326.933,146.747L312.162,152.199Z" style="fill:rgb(27,27,30);fill-rule:nonzero;"/>
        </g>
    </g>
</svg>
