<?xml version="1.0" encoding="UTF-8" standalone="no"?>
<!DOCTYPE svg PUBLIC "-//W3C//DTD SVG 1.1//EN" "http://www.w3.org/Graphics/SVG/1.1/DTD/svg11.dtd">
<svg width="100%" height="100%" viewBox="0 0 565 271" version="1.1" xmlns="http://www.w3.org/2000/svg" xmlns:xlink="http://www.w3.org/1999/xlink" xml:space="preserve" xmlns:serif="http://www.serif.com/" style="fill-rule:evenodd;clip-rule:evenodd;stroke-linejoin:round;stroke-miterlimit:2;">
    <g>
        <g>
            <path d="M259.317,67.712L100.457,67.712L100.457,95.3L259.317,95.3L259.317,67.712ZM248.397,140.585L110.597,140.585L110.597,166.613L248.397,166.613L248.397,140.585ZM256.197,175.201L100.717,175.201L100.717,203.57L256.197,203.57L256.197,175.201ZM189.637,13.839L154.277,13.839L154.277,216.582L189.637,216.582L189.637,13.839ZM247.357,31.275L112.937,31.275L112.937,59.383L214.337,59.383L214.337,104.148L111.897,104.148L111.897,132.257L247.357,132.257L247.357,31.275ZM85.117,26.851L26.357,26.851L26.357,59.383L85.117,59.383L85.117,26.851ZM85.117,101.024L49.757,101.024L49.757,133.557L85.117,133.557L85.117,101.024ZM78.357,101.024L71.857,101.024L71.857,107.272C67.437,173.117 50.797,214.498 17.517,236.362C25.317,241.046 39.097,253.798 44.557,260.827C79.397,235.322 99.417,184.829 105.657,104.928L84.597,100.244L78.357,101.024ZM51.577,145.009L24.277,154.117C50.277,240.786 100.197,256.402 174.297,256.402L253.077,256.402C255.157,246.25 261.137,229.854 266.337,222.046C245.537,222.826 192.757,222.826 175.337,222.826C116.577,222.566 71.597,212.418 51.577,145.009ZM35.457,147.093C35.457,140.845 59.897,129.652 59.897,129.652L59.897,129.132C75.497,105.708 93.437,71.876 107.217,37.263L84.857,22.167L71.857,27.111L71.857,28.671C62.497,59.643 45.857,91.656 40.397,100.244C34.677,109.352 26.877,116.9 21.157,118.724C25.837,126.012 33.117,140.325 35.457,147.093Z" style="fill:rgb(27,27,30);fill-rule:nonzero;"/>
            <path d="M313.58,133.821L360.9,133.821L360.9,101.061L326.32,101.061L313.58,110.161L313.58,133.821ZM305.26,107.821L313.58,133.821C313.58,127.061 341.66,116.921 341.66,116.921C354.92,96.121 375.98,59.981 387.42,38.921L364.28,25.661L354.14,27.221L354.14,28.261C344.26,47.761 320.6,85.981 305.26,107.821ZM379.62,95.341L538.74,95.341L538.74,67.781L379.62,67.781L379.62,95.341ZM389.76,166.581L527.82,166.581L527.82,140.581L389.76,140.581L389.76,166.581ZM379.88,203.501L535.36,203.501L535.36,175.161L379.88,175.161L379.88,203.501ZM433.44,216.501L469.06,216.501L469.06,13.961L433.44,13.961L433.44,216.501ZM391.06,132.261L526.52,132.261L526.52,31.381L392.1,31.381L392.1,59.461L493.5,59.461L493.5,104.181L391.06,104.181L391.06,132.261ZM305.52,59.461L364.28,59.461L364.28,26.961L305.52,26.961L305.52,59.461ZM296.68,236.261L323.72,260.701C358.56,235.221 378.58,184.781 384.82,104.961L363.76,100.281L357.52,101.061L351.02,101.061L351.02,107.301C346.6,173.081 329.96,214.421 296.68,236.261ZM303.44,154.101C329.44,240.681 379.36,256.281 453.46,256.281L535.88,256.281L545.5,221.961C524.7,222.741 471.92,222.741 454.5,222.741C395.74,222.481 350.76,212.341 330.74,145.001L303.44,154.101Z" style="fill:rgb(27,27,30);fill-rule:nonzero;"/>
        </g>
    </g>
</svg>
