<?xml version="1.0" encoding="utf-8"?>
<!-- Generator: Adobe Illustrator 16.0.0, SVG Export Plug-In . SVG Version: 6.00 Build 0)  -->
<!DOCTYPE svg PUBLIC "-//W3C//DTD SVG 1.1//EN" "http://www.w3.org/Graphics/SVG/1.1/DTD/svg11.dtd" [
	<!ENTITY st0 "fill:#1B1B1E;">
]>
<svg version="1.1" id="Layer_1" xmlns="http://www.w3.org/2000/svg" xmlns:xlink="http://www.w3.org/1999/xlink" x="0px" y="0px"
	 width="559.74px" height="272.581px" viewBox="0 0 559.74 272.581" style="enable-background:new 0 0 559.74 272.581;"
	 xml:space="preserve">
<g>
	<path style="&st0;" d="M262.81,123.675c-0.875,3.209-3.792,4.667-7.875,4.667h-39.086v61.546h13.709l14.876-21.585
		c0,0,16.626,14.876,26.252,25.377c-0.875,3.209-3.5,4.667-7.876,4.667H2.333L0,189.888h49.003v-61.546h-36.46l-2.625-8.459h39.086
		V63.879l35.294,3.5c-0.583,4.084-2.917,6.709-10.792,7.876v44.628h23.918V64.171l34.127,3.5c-0.583,4.084-3.209,6.709-10.792,7.876
		v44.336h23.043V64.754l34.127,3.5c-0.583,4.084-3.208,7.001-10.792,7.876v43.753h23.918v-55.42l35.586,3.5
		c-0.583,4.083-3.208,6.709-10.792,7.875v44.045h6.125l14.584-20.71C236.558,99.173,253.184,113.466,262.81,123.675z M79.63,20.126
		c-4.375,7.584-9.334,14.876-14.292,21.585h140.01l16.042-21.293c0,0,18.084,14.876,29.169,25.085
		c-0.875,3.208-3.792,4.667-7.875,4.667H58.92C42.294,70.88,23.335,88.089,4.083,100.048l-3.5-2.916
		C18.959,74.672,39.669,37.627,51.92,0.291l39.378,14.585C90.131,18.084,86.047,20.418,79.63,20.126z M28.002,270.102
		c-10.209,4.667-23.043,2.917-26.252-6.709c-2.625-8.75,3.5-15.751,11.667-19.543c15.167-4.375,34.127-18.084,37.336-37.627
		l4.375,0.291C61.254,241.809,44.044,263.102,28.002,270.102z M97.423,128.342H73.505v61.546h23.918V128.342z M94.798,263.685
		c0.875-18.085-6.125-39.378-13.126-53.962l3.209-1.459C148.177,237.433,118.425,286.728,94.798,263.685z M143.801,128.342h-23.043
		v61.546h23.043V128.342z M160.428,262.81c-0.875-18.085-11.376-39.669-21.585-53.379l3.208-1.75
		C212.056,231.016,185.804,284.396,160.428,262.81z M191.055,128.342h-23.918v61.546h23.918V128.342z M236.266,266.894
		c-4.375-21.002-21.876-44.92-37.919-59.213l2.917-2.333C285.854,224.599,265.727,286.146,236.266,266.894z"/>
	<path style="&st0;" d="M364.602,18.959c-2.917,4.959-5.834,9.918-8.75,14.585h41.419l13.418-18.085
		c0,0,15.459,12.543,25.085,21.877c-0.875,3.208-3.5,4.667-7.584,4.667h-78.172c-17.21,23.335-37.628,41.128-58.921,53.67
		l-3.208-3.208c18.959-21.002,39.377-55.713,50.753-92.174l37.336,13.71C374.811,17.209,371.019,19.543,364.602,18.959z
		 M320.849,166.262c-2.333-13.126-13.417-27.711-23.626-35.878l2.625-2.334C363.727,136.801,344.184,182.596,320.849,166.262z
		 M326.683,201.264c6.708-8.167,6.708-8.167,59.796-81.089l4.666,1.75c-11.375,21.001-36.46,65.338-40.836,74.38
		c-3.208,7.001-5.834,14.876-5.541,20.418c0,10.793,9.041,19.252,8.166,37.628c-0.583,10.793-7.583,17.793-19.834,17.793
		c-5.542,0-10.209-4.375-11.668-11.959c3.5-24.21,2.334-40.836-4.083-44.337c-4.084-2.041-8.167-3.208-13.71-3.792v-5.833
		c0,0,10.501,0,14.002,0C321.724,206.223,322.891,206.223,326.683,201.264z M345.351,124.258
		c-3.209-12.834-14.876-27.71-25.085-35.877l2.333-2.334C387.937,91.881,369.561,139.426,345.351,124.258z M377.145,86.047
		c-2.042-12.25-11.668-26.543-20.71-35.002l2.917-2.042C420.314,57.17,399.896,101.799,377.145,86.047z M403.396,272.144h-4.376
		V104.715l28.002,11.96h16.043l8.459-38.503l40.544,9.334c-1.166,4.375-5.25,6.709-11.667,6.417
		c-6.709,6.709-16.626,15.751-25.085,22.752h56.004l13.709-14.585l27.419,21.585c-1.75,2.042-5.542,4.084-10.792,5.251v132.717
		c-0.292,2.042-13.71,7.876-23.044,7.876h-4.375v-18.96h-88.673v12.543C425.564,266.019,414.771,272.144,403.396,272.144z
		 M477.193,18.959c-2.625,4.959-5.251,9.918-8.168,14.585h47.837l15.168-19.252c0,0,17.21,13.126,27.71,23.044
		c-0.875,3.208-3.792,4.667-7.875,4.667h-88.674c-13.709,20.126-30.335,36.169-47.836,47.836l-3.792-2.917
		C426.73,66.213,442.19,33.252,450.941,0l37.627,13.709C487.11,17.209,483.609,19.543,477.193,18.959z M425.564,125.134v51.92
		h88.673v-51.92H425.564z M514.237,185.221h-88.673V242.1h88.673V185.221z M499.652,86.047
		c-2.916-12.542-14.292-27.418-25.084-35.294l2.625-2.042C541.364,52.503,524.154,100.632,499.652,86.047z"/>
</g>
</svg>
