<?xml version="1.0" encoding="utf-8"?>
<!-- Generator: Adobe Illustrator 16.0.0, SVG Export Plug-In . SVG Version: 6.00 Build 0)  -->
<!DOCTYPE svg PUBLIC "-//W3C//DTD SVG 1.1//EN" "http://www.w3.org/Graphics/SVG/1.1/DTD/svg11.dtd" [
	<!ENTITY st0 "fill:#1B1B1E;">
]>
<svg version="1.1" id="Layer_1" xmlns="http://www.w3.org/2000/svg" xmlns:xlink="http://www.w3.org/1999/xlink" x="0px" y="0px"
	 width="564.109px" height="271.317px" viewBox="0 0 564.109 271.317" style="enable-background:new 0 0 564.109 271.317;"
	 xml:space="preserve">
<g>
	<path style="&st0;" d="M59.502,0.292l38.793,15.751c-0.779,1.559-2.142,2.821-4.083,3.792c-1.946,0.975-4.476,1.267-7.583,0.875
		c-5.25,8.167-10.988,15.946-17.209,23.334l2.625,1.167h147.007l16.042-21.293c6.608,5.446,12.201,10.113,16.772,14.001
		c4.566,3.892,8.7,7.583,12.396,11.084c-0.78,3.112-3.405,4.667-7.875,4.667h-33.543v60.086h8.167l15.167-20.71
		c6.417,5.251,11.763,9.771,16.042,13.563c4.275,3.792,8.067,7.438,11.375,10.938c-0.583,2.916-3.113,4.375-7.583,4.375h-43.169
		v60.378h7.875l14.584-21.293c6.221,5.446,11.421,10.113,15.605,14.001c4.179,3.892,7.825,7.583,10.938,11.083
		c-0.779,3.113-3.309,4.667-7.583,4.667H4.958l-2.333-8.458h43.168v-60.378H2.625L0,113.756h45.793V68.545
		C32.959,79.825,19.346,89.354,4.958,97.13L1.75,93.921c7-7,14-15.459,21.001-25.376c7-9.917,13.709-20.709,20.126-32.376
		C49.294,24.501,54.835,12.543,59.502,0.292z M49.877,199.801l4.375,0.292c2.917,12.446,3.45,23.289,1.604,32.522
		c-1.85,9.238-5.104,16.771-9.771,22.605c-4.667,5.833-9.625,10.108-14.876,12.834c-4.863,2.524-9.967,3.45-15.313,2.771
		c-5.351-0.684-8.896-3.354-10.646-8.021c-1.363-4.083-0.875-7.829,1.458-11.229c2.333-3.404,5.346-6.075,9.042-8.021
		c5.054-1.942,10.063-4.959,15.021-9.043c4.958-4.083,9.233-9.087,12.834-15.021C47.202,213.561,49.294,206.997,49.877,199.801z
		 M95.087,113.756V53.67H70.003v60.086H95.087z M95.087,121.923H70.003v60.378h25.084V121.923z M90.42,203.01
		c10.692,7.584,18.326,15.218,22.897,22.896c4.567,7.685,6.95,14.73,7.146,21.147c0.191,6.417-1.071,11.617-3.792,15.604
		c-2.726,3.983-6.175,6.125-10.354,6.417c-4.184,0.292-8.313-1.896-12.396-6.563c1.167-9.53,0.92-19.589-0.729-30.189
		c-1.654-10.596-3.842-19.979-6.563-28.146L90.42,203.01z M119.297,113.756h26.834V53.67h-26.834V113.756z M119.297,121.923v60.378
		h26.834v-60.378H119.297z M142.34,202.718c13.805,5.834,24.255,12.301,31.355,19.397c7.096,7.101,11.567,13.954,13.417,20.563
		c1.846,6.608,1.795,12.201-0.146,16.772c-1.946,4.566-5.009,7.388-9.188,8.458c-4.184,1.066-8.705-0.537-13.563-4.813
		c-0.392-6.417-1.896-13.176-4.521-20.271c-2.625-7.097-5.738-14.001-9.334-20.709c-3.601-6.709-7.342-12.588-11.229-17.647
		L142.34,202.718z M170.924,113.756h26.543V53.67h-26.543V113.756z M170.924,121.923v60.378h26.543v-60.378H170.924z
		 M198.634,199.218c15.359,4.084,27.901,8.997,37.627,14.729c9.721,5.738,17.013,11.718,21.876,17.938
		c4.858,6.226,7.825,12.105,8.896,17.646c1.066,5.542,0.679,10.255-1.167,14.146c-1.85,3.888-4.717,6.317-8.604,7.292
		c-3.892,0.972-8.268-0.1-13.125-3.208c-2.142-7.584-5.834-15.459-11.084-23.626c-5.25-8.167-11.184-15.942-17.792-23.335
		c-6.613-7.388-13.125-13.805-19.542-19.25L198.634,199.218z"/>
	<path style="&st0;" d="M335.724,0l35.584,13.709c-0.779,1.559-2.092,2.871-3.938,3.938c-1.85,1.071-4.425,1.413-7.729,1.021
		c-2.918,5.642-6.126,10.988-9.626,16.042h39.96l14.001-18.084c5.833,4.863,10.692,8.997,14.584,12.396
		c3.888,3.404,7.388,6.563,10.501,9.479c-0.584,3.113-3.113,4.667-7.584,4.667H364.6c7.774,3.893,13.271,8.167,16.479,12.834
		c3.209,4.667,4.763,9.042,4.667,13.126c-0.101,4.083-1.362,7.487-3.792,10.208c-2.434,2.726-5.445,4.185-9.041,4.376
		c-3.602,0.195-7.247-1.459-10.938-4.959c0.191-6.025-0.829-12.251-3.063-18.668c-2.237-6.416-4.912-12.054-8.021-16.917h-7.001
		c-7.196,9.334-15.021,17.602-23.479,24.793c-8.459,7.196-17.259,13.226-26.397,18.084l-3.208-2.917
		c8.942-9.525,17.451-21.584,25.522-36.168C324.394,32.377,330.861,16.727,335.724,0z M298.68,126.881
		c12.834,1.75,22.555,4.667,29.168,8.751c6.608,4.083,10.838,8.458,12.688,13.125c1.846,4.667,1.941,8.851,0.292,12.543
		c-1.654,3.695-4.375,6.079-8.167,7.146c-3.792,1.071-8.021-0.045-12.688-3.354c-1.167-6.608-4.134-13.221-8.896-19.834
		c-4.767-6.608-9.771-11.959-15.021-16.042L298.68,126.881z M316.181,205.052c2.137,0,3.742-0.191,4.813-0.584
		c1.066-0.387,2.575-1.846,4.521-4.375c1.358-1.554,2.671-3.108,3.938-4.667c1.262-1.554,2.962-3.741,5.104-6.563
		c2.137-2.816,5.25-7,9.333-12.542c4.084-5.542,9.626-13.025,16.627-22.46c7-9.43,15.941-21.63,26.834-36.605l4.667,1.75
		c-2.917,5.446-6.563,11.959-10.938,19.543c-4.375,7.583-8.801,15.268-13.271,23.042c-4.475,7.78-8.412,14.73-11.813,20.855
		c-3.404,6.125-5.688,10.354-6.854,12.688c-1.559,3.5-2.917,7.101-4.083,10.792c-1.168,3.696-1.751,6.904-1.751,9.625
		c0.191,3.5,1.021,7.001,2.479,10.501s2.917,7.342,4.375,11.521c1.459,4.184,1.992,9.379,1.604,15.604
		c-0.196,5.441-1.996,9.771-5.396,12.979c-3.405,3.209-8.218,4.813-14.439,4.813c-2.725,0-5.154-1.07-7.292-3.208
		c-2.142-2.142-3.6-5.059-4.375-8.75c1.75-12.251,2.283-22.264,1.604-30.044c-0.684-7.774-2.675-12.542-5.979-14.292
		c-3.893-1.941-8.459-3.208-13.709-3.792v-5.833c3.691,0,6.708,0,9.042,0S315.206,205.052,316.181,205.052z M324.348,84.879
		c13.025,1.167,22.993,3.696,29.897,7.584c6.9,3.893,11.375,8.167,13.417,12.834s2.283,8.896,0.729,12.688
		c-1.559,3.791-4.33,6.371-8.313,7.729c-3.988,1.362-8.414,0.487-13.271-2.626c-1.363-6.417-4.572-12.979-9.626-19.688
		c-5.059-6.709-10.209-12.105-15.459-16.188L324.348,84.879z M457.937,76.712l40.544,9.626c-1.167,4.279-4.958,6.417-11.376,6.417
		c-3.5,3.309-7.537,7.05-12.104,11.229c-4.572,4.184-8.997,8.021-13.271,11.521h52.502l13.418-14.584l27.417,21.292
		c-0.779,0.976-2.092,1.997-3.938,3.063c-1.851,1.07-4.038,1.896-6.563,2.479v132.423c0,0.775-1.313,1.796-3.938,3.063
		c-2.625,1.263-5.688,2.43-9.188,3.501c-3.5,1.066-6.809,1.604-9.917,1.604h-4.667v-18.667h-88.379v12.25
		c0,1.358-2.288,3.209-6.854,5.542c-4.571,2.334-9.676,3.5-15.313,3.5h-4.375V103.547l28.002,11.959h19.25
		c1.358-5.441,2.917-11.858,4.667-19.251C455.604,88.867,456.962,82.354,457.937,76.712z M445.103,0l36.752,13.418
		c-0.779,1.559-2.092,2.916-3.938,4.083c-1.85,1.167-4.33,1.559-7.438,1.167c-3.309,5.642-6.904,10.988-10.793,16.042h60.67
		l15.459-19.251c6.418,5.06,11.813,9.384,16.188,12.98c4.376,3.6,8.409,6.954,12.104,10.063c-0.779,3.113-3.404,4.667-7.875,4.667
		H487.98c7.775,3.696,13.271,7.83,16.48,12.396c3.209,4.571,4.763,8.896,4.667,12.979c-0.101,4.084-1.313,7.488-3.646,10.209
		c-2.334,2.726-5.352,4.279-9.043,4.667c-3.695,0.392-7.583-1.066-11.667-4.375c-0.392-6.025-2.042-12.297-4.958-18.813
		c-2.917-6.513-6.227-12.2-9.918-17.063h-16.625c-6.029,7.196-12.396,13.663-19.105,19.396
		c-6.709,5.738-13.467,10.747-20.271,15.021l-3.792-2.916c6.608-8.942,13.126-20.026,19.542-33.252
		C436.062,28.197,441.211,14.393,445.103,0z M428.478,175.884h88.379v-52.211h-88.379V175.884z M428.478,184.051v57.169h88.379
		v-57.169H428.478z"/>
</g>
</svg>
