<?xml version="1.0" encoding="utf-8"?>
<!-- Generator: Adobe Illustrator 16.0.0, SVG Export Plug-In . SVG Version: 6.00 Build 0)  -->
<!DOCTYPE svg PUBLIC "-//W3C//DTD SVG 1.1//EN" "http://www.w3.org/Graphics/SVG/1.1/DTD/svg11.dtd" [
	<!ENTITY st0 "fill:#1B1B1E;">
]>
<svg version="1.1" id="Layer_1" xmlns="http://www.w3.org/2000/svg" xmlns:xlink="http://www.w3.org/1999/xlink" x="0px" y="0px"
	 width="710px" height="211.76px" viewBox="0 0 710 211.76" style="enable-background:new 0 0 710 211.76;" xml:space="preserve">
<g>
	<g>
		<path style="&st0;" d="M92.05,145.548c-12.059,0-22.313-4.229-30.772-12.688c-8.459-8.459-12.688-21.631-12.688-39.523
			c0-11.667,2.042-23.042,6.125-34.126s9.671-21.001,16.771-29.752c7.096-8.75,15.313-15.75,24.647-21.001
			c9.334-5.25,19.151-7.875,29.46-7.875c8.942,0,16.088,2.188,21.438,6.563c5.346,4.375,8.021,10.646,8.021,18.813
			c0,11.667-6.955,23.239-20.855,34.71c-13.905,11.476-36.022,21.393-66.357,29.752c0.388,13.226,3.5,22.896,9.334,29.021
			c5.833,6.126,13.513,9.188,23.043,9.188c8.554,0,16.138-2.138,22.751-6.417c6.608-4.275,12.346-9.626,17.209-16.043l5.25,3.792
			c-6.029,10.113-13.518,18.572-22.459,25.376C114.022,142.148,103.718,145.548,92.05,145.548z M68.133,82.253
			c24.305-7.388,42.002-15.992,53.085-25.813c11.084-9.816,16.626-19.688,16.626-29.605c0-5.441-1.508-9.575-4.521-12.396
			c-3.017-2.816-6.955-4.229-11.813-4.229c-5.642,0-11.476,1.946-17.501,5.834c-6.029,3.893-11.622,9.238-16.771,16.042
			c-5.155,6.81-9.479,14.539-12.98,23.189C70.758,63.928,68.716,72.92,68.133,82.253z"/>
		<path style="&st0;" d="M192.97,145.548c-21.197,0-33.543-9.042-37.043-27.126c0.971-5.834,4.083-8.751,9.334-8.751
			c6.221,0,10.305,3.501,12.25,10.501l4.667,15.751c2.917,0.583,6.125,0.875,9.625,0.875c9.721,0,17.355-2.479,22.897-7.438
			c5.542-4.958,8.313-11.129,8.313-18.521c0-5.638-1.559-10.792-4.667-15.459c-3.113-4.667-8.655-9.816-16.626-15.459
			c-7.583-5.638-13.759-11.421-18.521-17.354c-4.767-5.93-7.146-13.172-7.146-21.73c0-11.472,4.129-21.047,12.396-28.73
			c8.263-7.68,19.201-11.521,32.814-11.521c9.721,0,17.546,2.092,23.48,6.271c5.929,4.184,9.867,10.063,11.813,17.646
			c-0.976,5.25-4.184,7.875-9.625,7.875c-2.529,0-4.913-0.875-7.146-2.625c-2.238-1.75-4.134-4.566-5.688-8.459L229.43,9.917
			l-6.125-0.292c-9.917,0-17.209,2.479-21.876,7.438c-4.667,4.959-7,10.843-7,17.647c0,6.612,1.75,12.104,5.25,16.479
			c3.5,4.375,9.138,9.479,16.917,15.313c8.942,6.612,15.409,12.688,19.397,18.229c3.983,5.542,5.979,12.301,5.979,20.272
			c0,12.059-4.425,21.83-13.271,29.313C219.851,141.807,207.942,145.548,192.97,145.548z"/>
		<path style="&st0;" d="M323.641,211.76h-25.959l1.458-7.876l26.835-3.208l19.542-91.296c-8.75,10.309-18.23,18.913-28.439,25.813
			c-10.209,6.904-19.688,10.354-28.439,10.354c-7.583,0-14-2.771-19.25-8.313c-5.25-5.542-7.875-15.021-7.875-28.439
			c0-9.721,1.75-19.688,5.25-29.896c3.5-10.209,8.313-19.98,14.438-29.314c6.125-9.334,13.075-17.692,20.855-25.084
			c7.775-7.388,15.992-13.222,24.647-17.501c8.65-4.275,17.159-6.417,25.522-6.417c7.775,0,14.584,2.434,20.417,7.292L383.144,0
			l3.792,2.625l-31.793,150.798l-9.334,47.544l25.376,2.917l-1.458,7.876H323.641z M347.267,98.588l16.626-77.587
			c-3.113-2.138-6.176-3.692-9.188-4.667c-3.017-0.971-5.979-1.459-8.896-1.459c-6.613,0-13.08,1.604-19.396,4.813
			c-6.321,3.208-12.009,7.342-17.063,12.396c-5.446,5.834-10.259,12.593-14.438,20.272c-4.184,7.684-7.438,15.801-9.771,24.355
			c-2.333,8.559-3.5,16.821-3.5,24.792c0,18.28,6.025,27.418,18.084,27.418c6.804,0,14.096-2.524,21.876-7.583
			C329.375,116.284,337.933,108.7,347.267,98.588z"/>
		<path style="&st0;" d="M501.567,145.548c-4.476,0-8.217-1.413-11.23-4.229c-3.016-2.816-4.521-6.854-4.521-12.104
			c0-1.941,0.191-4.18,0.583-6.709c0.388-2.524,1.168-5.929,2.334-10.208c-11.279,10.696-21.685,18.913-31.21,24.646
			c-9.53,5.738-18.768,8.604-27.71,8.604c-6.029,0-10.938-1.8-14.729-5.396c-3.792-3.597-5.688-8.797-5.688-15.605
			c0-5.25,0.629-10.983,1.896-17.209c1.263-6.221,2.575-11.959,3.938-17.209l15.459-70.295l-28.292-2.042l1.167-6.709l46.668-10.5
			l3.792,2.917l-18.376,81.67c-1.166,5.446-2.287,11.134-3.354,17.063c-1.072,5.934-1.605,10.646-1.605,14.146
			c0,8.167,3.691,12.251,11.084,12.251c5.834,0,12.543-1.846,20.127-5.542c7.583-3.691,17.013-10.4,28.293-20.126l8.75-42.294
			c1.941-9.138,3.791-18.13,5.541-26.98c1.751-8.846,3.4-17.838,4.959-26.98l17.501-6.125l3.501,2.625l-21.877,103.547
			c-0.583,3.112-1.166,6.079-1.75,8.896c-0.583,2.821-0.875,5.205-0.875,7.146c0,4.476,2.334,6.709,7,6.709
			c7.584,0,17.209-7.292,28.877-21.876l5.542,4.083c-6.03,8.751-12.834,16.58-20.418,23.48
			C519.36,142.098,510.901,145.548,501.567,145.548z"/>
		<path style="&st0;" d="M598.407,145.548c-12.059,0-22.313-4.229-30.771-12.688c-8.459-8.459-12.688-21.631-12.688-39.523
			c0-11.667,2.042-23.042,6.125-34.126s9.671-21.001,16.771-29.752c7.097-8.75,15.313-15.75,24.647-21.001
			c9.334-5.25,19.15-7.875,29.459-7.875c8.942,0,16.088,2.188,21.439,6.563c5.346,4.375,8.021,10.646,8.021,18.813
			c0,11.667-6.954,23.239-20.854,34.71c-13.905,11.476-36.023,21.393-66.357,29.752c0.387,13.226,3.5,22.896,9.334,29.021
			c5.833,6.126,13.513,9.188,23.043,9.188c8.554,0,16.137-2.138,22.75-6.417c6.609-4.275,12.347-9.626,17.209-16.043l5.25,3.792
			c-6.029,10.113-13.518,18.572-22.459,25.376C620.378,142.148,610.075,145.548,598.407,145.548z M574.489,82.253
			c24.306-7.388,42.002-15.992,53.086-25.813c11.084-9.816,16.626-19.688,16.626-29.605c0-5.441-1.509-9.575-4.521-12.396
			c-3.018-2.816-6.955-4.229-11.813-4.229c-5.642,0-11.476,1.946-17.501,5.834c-6.029,3.893-11.621,9.238-16.771,16.042
			c-5.154,6.81-9.479,14.539-12.98,23.189C577.114,63.928,575.073,72.92,574.489,82.253z"/>
	</g>
</g>
</svg>
