<?xml version="1.0" encoding="utf-8"?>
<!-- Generator: Adobe Illustrator 16.0.0, SVG Export Plug-In . SVG Version: 6.00 Build 0)  -->
<!DOCTYPE svg PUBLIC "-//W3C//DTD SVG 1.1//EN" "http://www.w3.org/Graphics/SVG/1.1/DTD/svg11.dtd">
<svg version="1.1" id="Layer_1" xmlns="http://www.w3.org/2000/svg" xmlns:xlink="http://www.w3.org/1999/xlink" x="0px" y="0px"
	 width="1065.383px" height="271px" viewBox="0 0 1065.383 271" style="enable-background:new 0 0 1065.383 271;"
	 xml:space="preserve">
<style type="text/css">
<![CDATA[
	.st0{fill:#1B1B1E;}
	.st1{fill:none;stroke:#000000;stroke-linecap:round;stroke-linejoin:round;stroke-miterlimit:10;stroke-dasharray:3,3;}
	.st2{fill:#010101;}
]]>
</style>
<g>
	<path class="st0" d="M809.394,61.213l4.087-0.291c5.642,15.57,8.706,29.773,9.194,42.615c0.483,12.844-2.386,22.477-8.61,28.898
		c-3.504,3.502-7.006,5.305-10.509,5.4c-3.503,0.1-6.325-0.973-8.465-3.213c-2.144-2.232-3.02-5.299-2.627-9.193
		c0.388-3.891,2.627-7.977,6.714-12.26c2.723-3.502,5.299-10.07,7.734-19.703C809.344,83.834,810.169,73.084,809.394,61.213z
		 M1056.918,26.479c-3.311,2.727-8.856,2.531-16.638-0.584c-10.316,1.752-21.942,3.311-34.881,4.67
		c-12.944,1.363-26.563,2.436-40.865,3.211c-14.303,0.779-28.46,1.168-42.47,1.168V54.5h99.535l12.551-13.428l26.854,20.434
		c-2.144,2.531-6.034,4.377-11.677,5.545v39.406c0,0.584-1.167,1.459-3.502,2.627s-5.063,2.238-8.173,3.211
		c-3.115,0.975-6.034,1.459-8.757,1.459h-4.379v-10.508H922.065v11.092c0,12.844-0.488,26.174-1.46,39.988
		c-0.976,13.82-3.115,27.686-6.422,41.596c-3.312,13.914-8.515,27.195-15.616,39.844c-7.105,12.646-16.783,24.227-29.043,34.734
		l-4.087-2.92c9.532-14.789,16.538-30.693,21.017-47.723c4.474-17.025,7.343-34.539,8.61-52.541
		c1.264-17.998,1.897-35.854,1.897-53.563V64.715c-0.584,0.977-1.751,1.754-3.502,2.336c-1.752,0.584-3.896,0.584-6.422,0
		c-3.503,4.283-8.273,9.779-14.303,16.492c-6.034,6.713-12.068,12.895-18.098,18.535l-0.875-0.584
		c-0.197,12.455-0.635,24.229-1.314,35.32c-0.684,11.09-1.801,21.6-3.356,31.523c11.479,5.646,19.995,11.58,25.54,17.807
		c5.547,6.229,8.903,12.162,10.07,17.805c1.168,5.646,0.775,10.361-1.167,14.156c-1.947,3.795-4.816,6.033-8.611,6.713
		c-3.794,0.686-7.835-0.824-12.113-4.523c-0.583-6.613-2.335-13.619-5.254-21.018c-2.919-7.393-6.23-14.301-9.925-20.723
		c-3.502,18.877-9.148,35.807-16.93,50.789c-7.785,14.986-18.973,28.313-33.566,39.988l-3.795-4.67
		c10.508-13.623,18.288-28.992,23.352-46.119c5.058-17.121,8.363-36.34,9.924-57.648c1.555-21.309,2.234-45.098,2.043-71.367
		c-0.196-26.271-0.292-55.359-0.292-87.275l36.486,3.502c-0.392,2.143-1.413,3.939-3.064,5.4c-1.655,1.459-4.137,2.48-7.443,3.064
		l-0.292,79.395c1.943-5.254,3.94-10.895,5.984-16.93c2.043-6.029,3.939-11.822,5.691-17.367c1.752-5.547,3.11-10.166,4.086-13.865
		l27.146,18.098V18.014l27.73,9.34c13.034-1.943,26.22-4.424,39.551-7.443c13.327-3.014,25.783-6.225,37.362-9.631
		c11.575-3.404,21.354-6.664,29.335-9.779L1056.918,26.479z M914.475,216.209c4.475-1.943,11.238-5.154,20.287-9.633
		c9.048-4.475,18.727-9.438,29.043-14.887v-56.043h-38.822l-2.627-8.465h39.114l9.924-11.385l23.352,17.514
		c-1.751,1.947-4.866,3.408-9.341,4.379v105.373c0,4.861-0.634,9.094-1.896,12.697c-1.269,3.598-4.041,6.422-8.319,8.465
		c-4.283,2.043-10.8,3.451-19.557,4.232c-0.196-2.727-0.685-5.158-1.46-7.297c-0.779-2.145-1.947-3.895-3.503-5.254
		c-1.947-1.363-4.429-2.531-7.442-3.504c-3.02-0.977-7.252-1.852-12.697-2.627v-4.377c4.67,0.387,8.61,0.678,11.821,0.875
		c3.211,0.191,6.275,0.387,9.194,0.584c2.919,0.191,5.059,0.291,6.422,0.291c2.526,0,4.132-0.438,4.816-1.313
		c0.68-0.877,1.021-2.285,1.021-4.232v-41.74l-30.648,31.523c-0.393,3.895-1.948,6.617-4.671,8.172L914.475,216.209z
		 M924.983,146.445c9.925,3.699,17.414,7.736,22.477,12.113c5.058,4.379,8.318,8.662,9.777,12.844
		c1.46,4.188,1.606,7.734,0.438,10.654c-1.167,2.92-3.165,4.771-5.983,5.547c-2.823,0.779-5.889-0.096-9.195-2.627
		c-1.363-6.031-4.137-12.502-8.318-19.412c-4.188-6.904-8.42-12.596-12.697-17.074L924.983,146.445z M922.065,94.781h102.453V62.965
		H922.065V94.781z M986.573,214.748c4.277-2.139,10.654-5.691,19.119-10.654c8.465-4.961,17.559-10.361,27.291-16.199v-51.957
		h-36.777l-2.627-8.465h37.069l10.217-11.967l24.519,18.098c-0.779,0.779-1.998,1.654-3.648,2.625
		c-1.656,0.977-3.648,1.656-5.984,2.045v104.498c0,5.254-0.633,9.678-1.896,13.281c-1.268,3.598-4.041,6.467-8.318,8.609
		c-4.283,2.139-10.901,3.6-19.85,4.379c-0.195-2.92-0.634-5.547-1.313-7.881c-0.685-2.336-1.802-4.188-3.356-5.547
		c-1.752-1.363-4.087-2.531-7.006-3.502c-2.919-0.977-6.909-1.852-11.967-2.627v-4.379c7.005,0.389,12.597,0.73,16.783,1.021
		c4.182,0.293,7.051,0.438,8.611,0.438c2.334,0,3.84-0.438,4.524-1.313c0.679-0.877,1.021-2.189,1.021-3.941v-44.951l-26.854,32.693
		c0,3.697-1.459,6.52-4.378,8.463L986.573,214.748z M991.535,146.738c9.729,3.502,17.122,7.396,22.184,11.676
		c5.059,4.281,8.27,8.465,9.633,12.551c1.359,4.086,1.409,7.543,0.146,10.361c-1.268,2.824-3.356,4.574-6.275,5.256
		c-2.919,0.684-6.034-0.242-9.341-2.773c-1.363-5.643-3.99-11.822-7.881-18.535c-3.896-6.715-7.785-12.209-11.676-16.492
		L991.535,146.738z"/>
</g>
<g>
	<path class="st2" d="M35.739,4.043c0,127.359,6.586,207.135-34.843,261.379l3.735,4.621c29.227-23.301,43.45-52.867,50.413-90.494
		c7.405,12.801,14.067,28.221,15.108,41.412c21.158,18.824,43.668-23.975-13.418-51.645c2.91-19.836,4.126-41.789,4.66-66.096
		l0.731,0.383C73.944,92.41,87.408,77.41,94.548,68.555c5.673,1.617,9.465-0.707,10.641-2.727L77.098,46.912
		c-2.975,10.967-9.61,31.98-15.545,47.857c0.377-23.971,0.229-50.158,0.463-78.771c6.545-1.164,9.465-3.916,10.336-8.289
		L35.739,4.043z"/>
	<path class="st2" d="M16.795,62.715c1.494,23.494-4.525,44.777-10.088,51.6c-16.522,17.311,0.969,33.791,14.972,19.635
		c12.398-12.854,10.642-40.336-0.844-71.387L16.795,62.715z"/>
	<path class="st1" d="M99.475,19.029v95.313c0,52.998-3.197,107.727-35.272,151.689l3.874,3.182
		c28.716-22.07,43.146-50.4,50.355-79.73l2.034,2.115c14.958-8.191,29.211-20.854,37.984-30.955
		c1.733,0.314,3.179,0.457,4.399,0.441v26.918l-14.943-7.695c-7.625,18.693-24.217,45.416-41.832,62.117l3.17,3.611
		c21.485-11.443,41.324-29.447,53.606-44.873v34.563c0,3.613-1.148,5.354-5.632,5.354c-4.926,0-27.136-1.713-27.136-1.713v4.482
		c10.751,1.758,16.356,4.428,19.829,8.273c3.335,3.986,4.483,10.352,5.064,18.379c27.113-2.602,32.101-12.283,32.633-28.504
		c20.507-11.658,39.166-29.395,50.241-44.156v36.986c0,3.75-1.149,5.645-5.632,5.645c-5.203,0-27.855-1.715-27.855-1.715v4.332
		c11.182,1.908,16.785,4.58,20.258,8.578c3.336,4.137,4.637,10.654,5.217,18.682c29.736-2.781,33.432-13.811,33.432-32.422V144.48
		c4.373-1.023,7.694-2.92,9.147-4.662l-25.793-19.166l-11.251,12.855h-42.564l1.416,4.479l-22.905-16.877l-10.794,12.398h-35.287
		c0.193-6.369,0.25-12.621,0.25-18.695v-6.752h101.07v11.65h4.484c8.925,0,22.153-5.619,22.444-7.666V71.971
		c5.23-1.162,9.548-3.486,11.276-5.658l-28.117-20.91L223.792,59.42h-98.303V38.129c40.274-1.727,83.737-6.809,112.557-12.154
		c7.776,3.227,13.643,3.227,16.881,0.887L228.331,0.5c-22.94,9.887-64.777,22.256-102.225,30.152L99.475,19.029z M215.226,143.096
		c-4.718,12.896-15.346,33.086-26.401,45.582l3.473,3.611c15.373-8.33,30.18-21.408,39.229-31.508
		c2.739,0.428,4.767,0.471,6.324,0.164v26.695l-16.729-8.441c-6.189,16.076-19.063,38.691-33.46,54.889v-89.912
		c3.2-0.662,5.796-1.912,7.497-3.234l0.266,0.842h42.427v13.541L215.226,143.096z M226.559,99.785h-101.07v-32.09h101.07V99.785z
		 M124.907,141.783h37.944v12.574l-20.84-11.262c-3.96,11.74-12.923,29.42-22.511,41.795
		C122.669,170.488,124.196,155.914,124.907,141.783L124.907,141.783z"/>
</g>
<g>
	<g>
		<path class="st2" d="M609.05,94.787H506.958V63.023H609.05V94.787z M641.535,26.762L615.439,0.5
			c-23.673,9.605-66.362,20.59-105.427,26.984l-28.414-9.527v95.703c0,53.262-2.693,109.521-31.387,153.797l4.041,3.043
			c49.373-41.846,52.705-105.273,52.705-156.367V103.23H609.05v10.43h4.194c8.347,0,20.582-5.334,20.874-7.389V67.023
			c5.527-1.166,9.722-3.361,11.61-5.541l-27.012-20.359L606.133,54.58h-99.176V35.111c42.283-0.027,87.505-4.021,118.078-9.086
			C632.702,29.262,638.438,29.4,641.535,26.762L641.535,26.762z"/>
		<path class="st2" d="M576.205,146.436l-3.208,2.014c7.473,8.932,16.93,23.805,19.471,35.221
			C609.05,196.545,625.424,163.977,576.205,146.436L576.205,146.436z"/>
		<path class="st2" d="M571.302,214.516l15.401,22.805c2.639-1.75,4.264-5.264,4.125-8.486
			c10.802-12.719,19.818-24.037,26.609-32.527v44.639c0,3.625-1.014,5.375-5.513,5.375c-4.944,0-25.36-1.584-25.36-1.584v4.361
			c10.361,1.473,15.555,3.707,18.889,6.375c3.055,2.971,4.207,7.721,4.652,13.555c27.012-2.361,30.415-10.764,30.415-26.457V138.172
			c4.528-0.875,8.014-2.777,9.472-4.527l-24.513-18.457l-10.526,12.139h-36.68l2.625,8.443h36.54v52.113
			C598.282,199.494,579.685,210.201,571.302,214.516L571.302,214.516z"/>
		<path class="st2" d="M509.944,146.158l-3.5,2.014c8.348,9.236,18.25,24.707,20.791,36.568
			C543.692,197.17,559.317,164.727,509.944,146.158L509.944,146.158z"/>
		<path class="st2" d="M499.333,215.988l14.11,23.555c2.639-1.611,4.402-4.834,4.694-8.209
			c12.312-12.373,22.562-23.326,30.374-31.723v41.709c0,3.777-1.014,5.527-5.807,5.527c-5.234,0-27.581-1.736-27.581-1.736v4.5
			c10.944,1.473,16.43,3.557,20.207,6.223c3.208,2.666,4.515,7.125,5.097,12.639c26.402-2.209,29.943-10.598,29.943-25.527v-105.23
			c4.375-0.875,7.861-2.777,9.166-4.527l-23.443-17.541l-9.916,11.527h-38.831l2.625,8.443h38.54v55.928
			C528.113,202.281,508.196,212.109,499.333,215.988L499.333,215.988z"/>
	</g>
	<path class="st1" d="M380.672,51.523l-4.36,1.307c6.931,20.041,14.235,49.498,13.152,72.301
		C407.741,145.09,428.226,100.244,380.672,51.523L380.672,51.523z"/>
	<path class="st1" d="M485.182,63.912l-29.124-13.596c-3.255,11.422-10.013,30.92-16.958,48.609
		c0.465-26.025,0.241-54.822,0.459-86.719c6.847-0.875,9.777-3.5,10.652-8.041l-35.096-3.527c0,132.299,6.75,211.781-37.123,265.041
		l3.902,4.639c30.465-23.668,44.754-54.174,51.481-94.01c7.358,14.955,14.079,32.932,15.029,47.859
		c19.383,18.451,40.081-22.969-13.367-59.023c1.979-15.189,3.054-31.656,3.645-49.521c14.124-15.994,28.246-35.389,35.985-47.322
		C480.654,69.314,484.154,66.398,485.182,63.912L485.182,63.912z"/>
</g>
<g>
	<path d="M322.851,137.27h-11.04v-3.539h11.04v-11.1h3.6v11.1h11.1v3.539h-11.1v11.1h-3.6V137.27z"/>
</g>
<g>
	<path d="M708.586,127.82h25.738v3.54h-25.738V127.82z M708.586,139.64h25.738v3.54h-25.738V139.64z"/>
</g>
<g>
</g>
<g>
</g>
<g>
</g>
<g>
</g>
<g>
</g>
<g>
</g>
</svg>
