<?xml version="1.0" encoding="UTF-8" standalone="no"?>
<!DOCTYPE svg PUBLIC "-//W3C//DTD SVG 1.1//EN" "http://www.w3.org/Graphics/SVG/1.1/DTD/svg11.dtd">
<svg width="100%" height="100%" viewBox="0 0 565 271" version="1.1" xmlns="http://www.w3.org/2000/svg" xmlns:xlink="http://www.w3.org/1999/xlink" xml:space="preserve" xmlns:serif="http://www.serif.com/" style="fill-rule:evenodd;clip-rule:evenodd;stroke-linejoin:round;stroke-miterlimit:2;">
    <g>
        <g transform="matrix(24.7459,0,0,20.8493,-2380.03,-2797.61)">
            <g transform="matrix(11.4243,0,0,13.5594,95.9597,145.886)">
                <path d="M0.76,-0.504L0.76,-0.377L0.249,-0.377L0.249,-0.504L0.76,-0.504ZM0.76,-0.56L0.249,-0.56L0.249,-0.682L0.76,-0.682L0.76,-0.56ZM0.172,0.082C0.193,0.068 0.229,0.058 0.503,-0.015C0.499,-0.029 0.496,-0.058 0.496,-0.077L0.249,-0.014L0.249,-0.316L0.411,-0.316C0.505,-0.12 0.678,0.014 0.909,0.07C0.918,0.052 0.937,0.026 0.952,0.011C0.843,-0.013 0.746,-0.054 0.666,-0.11C0.742,-0.152 0.832,-0.209 0.897,-0.26L0.843,-0.303C0.785,-0.254 0.693,-0.192 0.616,-0.149C0.56,-0.197 0.514,-0.253 0.48,-0.316L0.827,-0.316L0.827,-0.742L0.554,-0.742C0.545,-0.774 0.531,-0.815 0.514,-0.847L0.448,-0.831C0.46,-0.804 0.472,-0.771 0.48,-0.742L0.18,-0.742L0.18,-0.055C0.18,-0.01 0.152,0.016 0.135,0.028C0.147,0.04 0.166,0.067 0.172,0.082Z" style="fill:rgb(27,27,30);fill-rule:nonzero;"/>
            </g>
            <g transform="matrix(11.4243,0,0,13.5594,107.384,145.886)">
                <path d="M0.516,-0.532L0.841,-0.532L0.841,-0.436L0.516,-0.436L0.516,-0.532ZM0.516,-0.678L0.841,-0.678L0.841,-0.584L0.516,-0.584L0.516,-0.678ZM0.183,-0.191C0.194,-0.123 0.204,-0.033 0.206,0.025L0.26,0.015C0.257,-0.043 0.246,-0.131 0.234,-0.2L0.183,-0.191ZM0.087,-0.198C0.076,-0.115 0.061,-0.024 0.037,0.038C0.051,0.043 0.078,0.052 0.09,0.058C0.111,-0.005 0.131,-0.101 0.142,-0.188L0.087,-0.198ZM0.275,-0.21C0.294,-0.157 0.316,-0.087 0.323,-0.041L0.374,-0.058C0.365,-0.103 0.343,-0.171 0.322,-0.224L0.275,-0.21ZM0.887,-0.342C0.858,-0.307 0.811,-0.259 0.77,-0.224C0.749,-0.262 0.732,-0.304 0.719,-0.347L0.719,-0.382L0.906,-0.382L0.906,-0.732L0.676,-0.732L0.718,-0.823L0.644,-0.839C0.637,-0.808 0.622,-0.766 0.609,-0.732L0.453,-0.732L0.453,-0.382L0.655,-0.382L0.655,0.002C0.655,0.014 0.652,0.017 0.639,0.017C0.625,0.018 0.583,0.018 0.534,0.017C0.543,0.035 0.551,0.061 0.554,0.079C0.619,0.079 0.661,0.078 0.687,0.068C0.712,0.057 0.719,0.038 0.719,0.002L0.719,-0.206C0.768,-0.103 0.836,-0.016 0.918,0.033C0.928,0.017 0.948,-0.007 0.962,-0.019C0.897,-0.052 0.84,-0.109 0.795,-0.18C0.84,-0.213 0.892,-0.26 0.937,-0.302L0.887,-0.342ZM0.416,-0.294L0.416,-0.238L0.555,-0.238C0.517,-0.136 0.442,-0.055 0.363,-0.017C0.376,-0.005 0.393,0.016 0.401,0.031C0.504,-0.025 0.593,-0.131 0.63,-0.283L0.591,-0.297L0.58,-0.294L0.416,-0.294ZM0.066,-0.244C0.083,-0.253 0.113,-0.26 0.317,-0.291C0.322,-0.268 0.326,-0.247 0.328,-0.23L0.383,-0.247C0.376,-0.3 0.35,-0.39 0.325,-0.46L0.273,-0.447C0.284,-0.415 0.295,-0.379 0.304,-0.343L0.149,-0.323C0.23,-0.416 0.31,-0.535 0.375,-0.652L0.316,-0.687C0.294,-0.641 0.268,-0.595 0.241,-0.552L0.131,-0.542C0.186,-0.619 0.241,-0.718 0.285,-0.813L0.222,-0.84C0.182,-0.731 0.113,-0.616 0.091,-0.586C0.072,-0.555 0.054,-0.535 0.037,-0.531C0.045,-0.514 0.055,-0.482 0.059,-0.468C0.073,-0.474 0.094,-0.479 0.203,-0.492C0.166,-0.436 0.132,-0.392 0.117,-0.375C0.086,-0.338 0.064,-0.312 0.043,-0.308C0.051,-0.29 0.062,-0.258 0.066,-0.244Z" style="fill:rgb(27,27,30);fill-rule:nonzero;"/>
            </g>
        </g>
    </g>
</svg>
