<?xml version="1.0" encoding="utf-8"?>
<!-- Generator: Adobe Illustrator 16.0.0, SVG Export Plug-In . SVG Version: 6.00 Build 0)  -->
<!DOCTYPE svg PUBLIC "-//W3C//DTD SVG 1.1//EN" "http://www.w3.org/Graphics/SVG/1.1/DTD/svg11.dtd" [
	<!ENTITY st0 "fill:#1B1B1E;">
]>
<svg version="1.1" id="Layer_1" xmlns="http://www.w3.org/2000/svg" xmlns:xlink="http://www.w3.org/1999/xlink" x="0px" y="0px"
	 width="566.449px" height="272.143px" viewBox="0 0 566.449 272.143" style="enable-background:new 0 0 566.449 272.143;"
	 xml:space="preserve">
<g>
	<path style="&st0;" d="M31.794,77.589c5.542-30.044,10.209-59.213,11.667-76.714l37.044,6.417
		c-0.875,3.209-2.625,6.126-10.792,6.709c-2.917,16.043-7,38.211-11.959,62.129l25.96-1.75c0.583-10.792,0.583-21.584,0.583-32.377
		l39.669,6.709c-1.167,4.959-4.958,7.292-11.375,7.584l-0.875,15.751l22.168-2.042l0.583,4.375l-23.627,6.709
		c-3.5,38.503-10.792,75.547-26.543,107.925c43.753,26.543,22.751,52.503,3.792,41.419c-4.083-5.834-9.917-12.251-16.626-18.668
		c-15.751,23.627-37.336,43.753-67.38,59.503l-3.208-2.916c25.376-19.251,43.169-42.878,55.712-69.421
		c-14.584-11.959-30.919-23.043-44.92-30.627c4.958-16.335,10.5-41.712,15.751-67.963l-11.667,2.041
		c-1.75,3.792-4.958,6.126-7.875,6.418L0,78.464C7.875,78.464,18.959,78.172,31.794,77.589z M53.67,95.09
		c-5.542,25.669-11.959,52.212-18.085,73.505c11.084,3.501,21.002,7.001,29.46,10.501c10.209-28.294,15.459-59.212,17.793-90.715
		L53.67,95.09z M204.181,35.294h-32.085c-1.458,100.049-2.917,180.846-87.506,236.849l-3.792-4.666
		c63.879-61.254,62.712-140.301,63.004-232.183h-26.543l-2.625-8.459h86.923l13.709-13.709L242.1,38.211
		c-2.042,2.334-6.709,3.5-12.251,3.792c-2.917,18.376-7.584,47.545-11.084,67.963h15.751l14.584-14.876l26.543,22.46
		c-2.333,2.334-5.833,4.084-12.251,4.667c-2.625,77.881-8.75,120.175-22.751,133.593c-8.75,7.876-20.418,11.667-35.586,11.667
		c0-7.875-1.167-14.584-5.833-18.667c-4.667-4.084-16.334-7.876-28.002-9.918v-4.667c12.542,1.167,32.96,2.917,39.669,2.917
		c5.25,0,7.584-0.875,10.5-3.209c8.751-7.875,13.709-49.586,16.043-115.508H219.64l-11.084,12.543l-26.543-17.502
		c2.625-2.041,6.708-4.375,10.792-6.125C197.18,87.506,202.139,55.421,204.181,35.294z"/>
	<path style="&st0;" d="M296.93,163.345l-1.458-4.084c51.044-22.751,103.257-68.838,116.091-103.257l46.086,11.376
		c-0.875,3.5-4.375,5.25-13.709,6.125c26.252,26.544,79.047,44.629,122.509,51.337v4.376c-12.542,4.083-21.001,16.918-22.751,28.293
		c-45.212-15.167-85.465-44.628-104.424-80.797C413.604,111.425,354.685,147.011,296.93,163.345z M524.155,162.178
		c-0.875,3.209-3.501,4.667-7.584,4.667h-72.339v12.251c118.134,18.085,112.008,83.131,77.297,70.297
		c-15.46-21.877-49.878-48.129-77.297-64.171v78.171c0,2.334-12.542,7.875-23.335,7.875h-5.542v-76.712
		c-28.585,27.418-68.839,48.711-115.509,62.712l-2.333-4.375c44.337-20.418,81.089-52.795,102.674-86.048h-64.755l-2.333-8.459
		h82.256v-43.461l38.503,3.5c-0.875,3.792-2.918,6.417-9.626,7.292v32.669h37.919l14.584-17.209
		C496.735,141.177,513.653,152.844,524.155,162.178z M433.731,39.67c-0.583,3.208-3.5,4.667-7.584,4.667h-44.336v29.752
		c0,2.333-12.543,7.292-22.46,7.292h-5.542V44.337h-53.67l-2.334-8.459h56.004V0l36.169,3.5c-0.583,3.209-2.333,5.542-8.167,6.126
		v26.252h9.917l14.876-20.418C406.604,15.46,423.814,29.46,433.731,39.67z M566.157,39.67c-0.875,3.208-3.791,4.667-7.875,4.667
		h-56.004v27.71c0,2.333-12.834,7.292-23.336,7.292h-5.25V44.337h-32.377l-2.334-8.459h34.711V0.292L510.445,3.5
		c-0.583,3.209-2.333,5.542-8.167,6.417v25.961h21.877L539.03,15.46C539.03,15.46,556.24,29.46,566.157,39.67z"/>
</g>
</svg>
