<?xml version="1.0" encoding="utf-8"?>
<!-- Generator: Adobe Illustrator 16.0.0, SVG Export Plug-In . SVG Version: 6.00 Build 0)  -->
<!DOCTYPE svg PUBLIC "-//W3C//DTD SVG 1.1//EN" "http://www.w3.org/Graphics/SVG/1.1/DTD/svg11.dtd" [
	<!ENTITY st0 "fill:#1B1B1E;">
]>
<svg version="1.1" id="Layer_1" xmlns="http://www.w3.org/2000/svg" xmlns:xlink="http://www.w3.org/1999/xlink" x="0px" y="0px"
	 width="566.735px" height="272.138px" viewBox="0 0 566.735 272.138" style="enable-background:new 0 0 566.735 272.138;"
	 xml:space="preserve">
<g>
	<path style="&st0;" d="M72.045,14c-1.362,7.001-3.113,15.268-5.25,24.793c-2.142,9.53-4.476,19.643-7,30.335h21.293l14.292-15.167
		l26.543,23.334c-1.946,2.333-5.738,3.892-11.375,4.667c-2.142,19.251-5.205,38.114-9.188,56.586
		c-3.988,18.476-10.163,36.072-18.521,52.794c8.942,6.809,14.68,13.176,17.209,19.105c2.525,5.934,2.962,10.842,1.313,14.729
		c-1.654,3.892-4.571,6.321-8.75,7.292c-4.184,0.976-8.509,0.101-12.979-2.625c-2.726-4.858-6.321-9.917-10.792-15.168
		c-7.583,10.893-16.771,21.102-27.563,30.627c-10.792,9.525-23.581,18.084-38.356,25.668L0,267.179
		c12.442-9.143,23.188-19.396,32.231-30.772c9.042-11.375,16.671-23.576,22.896-36.605c-7.196-7.001-14.875-13.659-23.042-19.98
		c-8.167-6.316-15.851-11.813-23.043-16.479c3.304-10.108,7-22.897,11.084-38.356s7.875-31.255,11.375-47.397H2.625L0,69.128h33.543
		c2.917-13.608,5.542-26.543,7.875-38.794C43.752,18.084,45.402,7.976,46.377,0l37.335,7c-0.583,1.75-1.604,3.309-3.063,4.667
		C79.191,13.029,76.32,13.809,72.045,14z M33.543,165.674c5.833,2.143,11.275,4.375,16.334,6.709c5.054,2.333,9.721,4.667,14,7
		c5.638-15.751,10.013-32.181,13.125-49.294c3.108-17.108,5.346-34.609,6.709-52.502H57.753c-3.5,14.976-7.393,30.188-11.667,45.647
		C41.806,138.693,37.627,152.84,33.543,165.674z M194.259,107.921c1.75-6.804,3.646-14.629,5.688-23.479
		c2.042-8.847,3.983-17.743,5.833-26.689c1.846-8.941,3.254-16.816,4.229-23.626h-45.794c-0.392,19.447-0.975,38.261-1.75,56.44
		c-0.779,18.185-2.529,35.686-5.25,52.502c-2.726,16.822-7,32.864-12.834,48.128c-5.833,15.268-13.905,29.655-24.209,43.168
		c-10.309,13.514-23.53,26.105-39.668,37.773l-4.083-4.667c15.167-15.947,26.93-32.86,35.293-50.753
		c8.359-17.888,14.292-36.651,17.792-56.294c3.5-19.639,5.588-40.006,6.271-61.107c0.679-21.097,1.021-42.826,1.021-65.19h-35.585
		l-2.625-8.458h109.088l12.542-14.001l28.876,23.043c-1.167,1.362-3.017,2.434-5.542,3.208c-2.53,0.779-5.446,1.363-8.75,1.75
		c-1.167,6.226-2.625,13.518-4.375,21.876c-1.75,8.363-3.646,16.918-5.688,25.668c-2.042,8.751-3.938,16.727-5.688,23.918h16.042
		l14.292-14.876l26.251,22.168c-1.167,1.167-2.675,2.188-4.521,3.063c-1.85,0.875-4.425,1.509-7.729,1.896
		c-1.363,39.865-3.792,70.929-7.292,93.192c-3.5,22.268-8.75,36.797-15.75,43.606c-8.559,7.971-20.322,11.959-35.293,11.959
		c0-4.084-0.438-7.685-1.313-10.793c-0.875-3.112-2.384-5.642-4.521-7.583c-2.333-2.143-6.08-4.038-11.23-5.688
		c-5.154-1.649-10.747-3.063-16.771-4.229l0.292-4.376c4.275,0.393,9.042,0.779,14.292,1.167c5.25,0.392,10.209,0.729,14.876,1.021
		c4.667,0.292,8.066,0.438,10.208,0.438c4.667,0,8.263-1.166,10.792-3.5c4.275-3.888,7.775-16.188,10.5-36.897
		c2.721-20.709,4.667-48.077,5.833-82.107h-18.667l-10.792,11.959l-25.667-17.793C186.188,111.617,189.979,109.672,194.259,107.921z
		"/>
	<path style="&st0;" d="M436.354,74.378c-8.751,13.81-20.564,27.272-35.439,40.397c-14.876,13.126-31.697,24.989-50.461,35.585
		c-18.768,10.602-38.456,19.105-59.065,25.522l-1.75-3.792c13.417-6.417,26.543-14.242,39.376-23.48
		c12.834-9.233,24.793-19.251,35.877-30.043s20.513-21.729,28.293-32.813c7.774-11.084,13.222-21.681,16.334-31.793l44.919,10.792
		c-0.584,3.309-4.959,5.351-13.126,6.125c8.555,11.28,19.639,21.247,33.252,29.897c13.608,8.654,28.438,15.996,44.481,22.021
		c16.042,6.029,31.938,10.893,47.689,14.584l-0.292,4.375c-6.226,1.75-11.33,5.155-15.313,10.209
		c-3.987,5.059-6.467,10.405-7.438,16.043c-24.31-9.525-45.939-22.168-64.898-37.919S445.688,95.771,436.354,74.378z
		 M293.139,37.043h72.628V1.166l37.335,3.209c-0.195,1.946-0.975,3.601-2.334,4.958c-1.362,1.363-3.892,2.334-7.583,2.917v24.793
		h67.962V1.166l37.918,3.209c-0.196,1.946-1.021,3.601-2.479,4.958c-1.458,1.363-4.038,2.334-7.729,2.917v24.793h29.168
		l16.334-21.293c6.608,5.446,12.201,10.113,16.771,14.001c4.566,3.893,8.605,7.584,12.105,11.084
		c-0.584,2.917-3.209,4.375-7.876,4.375h-66.503v23.918c0,1.362-2.238,2.821-6.709,4.375c-4.475,1.559-10.018,2.334-16.625,2.334
		h-4.375V45.21h-67.962v25.376c0,1.363-2.333,2.821-7.001,4.376c-4.666,1.559-10.017,2.333-16.042,2.333h-4.375V45.21h-70.586
		L293.139,37.043z M339.224,162.466h74.67v-42.002l37.044,3.5c-0.393,1.75-1.217,3.309-2.479,4.667
		c-1.267,1.362-3.646,2.333-7.146,2.917v30.918h28.001l15.168-19.251c6.417,4.862,11.763,9.092,16.043,12.688
		c4.274,3.601,8.166,6.955,11.666,10.063c-0.779,3.112-3.309,4.667-7.583,4.667h-58.044c7.387,10.113,16.963,19.251,28.73,27.418
		c11.762,8.167,24.547,15.071,38.355,20.709c13.805,5.643,27.609,9.821,41.418,12.542l-0.583,3.209
		c-11.667,2.726-19.351,11.476-23.042,26.251c-20.418-8.167-38.261-19.543-53.523-34.127
		c-15.268-14.584-27.469-32.472-36.606-53.669v91.296c0,1.167-2.434,2.671-7.292,4.521c-4.863,1.846-9.821,2.771-14.875,2.771
		h-5.251v-80.795c-12.642,14.393-28.102,27.176-46.377,38.355c-18.28,11.185-38.311,20.659-60.086,28.438l-2.625-4.083
		c18.472-10.108,35.098-22.505,49.877-37.189c14.775-14.68,26.639-29.897,35.585-45.647h-48.71L339.224,162.466z"/>
</g>
</svg>
