<?xml version="1.0" encoding="UTF-8" standalone="no"?>
<!DOCTYPE svg PUBLIC "-//W3C//DTD SVG 1.1//EN" "http://www.w3.org/Graphics/SVG/1.1/DTD/svg11.dtd">
<svg width="100%" height="100%" viewBox="0 0 565 271" version="1.1" xmlns="http://www.w3.org/2000/svg" xmlns:xlink="http://www.w3.org/1999/xlink" xml:space="preserve" xmlns:serif="http://www.serif.com/" style="fill-rule:evenodd;clip-rule:evenodd;stroke-linejoin:round;stroke-miterlimit:2;">
    <g>
        <g>
            <path d="M129.837,103.368L55.217,103.368L55.217,111.176L129.837,111.176L129.837,103.368ZM246.577,82.548L239.297,76.82C221.877,92.956 188.077,111.696 158.697,125.488C159.997,127.052 161.557,129.652 162.077,131.477C192.237,117.16 225.777,99.724 246.577,82.548ZM164.417,222.826L164.417,19.823L156.877,19.823L156.877,222.046C156.877,242.606 162.077,247.03 181.837,247.03L227.597,247.03C250.217,247.03 252.557,231.678 254.377,181.185C252.037,180.405 249.437,179.105 247.097,177.281C245.277,227.514 243.457,240.266 227.857,240.266L181.317,240.266C167.537,240.266 164.417,237.142 164.417,222.826ZM48.717,250.674C48.717,247.294 59.897,239.226 59.897,239.226L59.897,21.907L52.097,21.907L52.097,227.514C52.097,237.402 47.157,241.306 44.297,242.866C45.857,244.95 47.937,248.594 48.717,250.674ZM48.457,242.866L48.717,250.674C53.137,247.294 60.157,244.95 132.697,223.87C132.177,222.046 131.917,218.662 131.917,216.322L54.697,238.182L48.457,242.866Z" style="fill:rgb(27,27,30);fill-rule:nonzero;"/>
            <path d="M334.38,111.201L409,111.201L409,103.401L334.38,103.401L334.38,111.201ZM437.86,125.501L441.24,131.481C471.4,117.181 504.94,99.761 525.74,82.601L518.46,76.881C501.04,93.001 467.24,111.721 437.86,125.501ZM436.04,221.961C436.04,242.501 441.24,246.921 461,246.921L506.76,246.921C529.38,246.921 531.72,231.581 533.54,179.841L526.26,177.241C524.44,227.421 522.62,240.161 507.02,240.161L460.48,240.161C446.7,240.161 443.58,237.041 443.58,222.741L443.58,19.941L436.04,19.941L436.04,221.961ZM326.06,243.021L330.48,249.521L339.06,242.241L339.06,22.021L331.26,22.021L331.26,234.701C331.26,237.821 328.66,240.941 326.06,243.021ZM330.22,243.281L330.48,249.521L411.86,224.301L411.08,216.761L336.46,238.601L330.22,243.281Z" style="fill:rgb(27,27,30);fill-rule:nonzero;"/>
        </g>
    </g>
</svg>
