<?xml version="1.0" encoding="UTF-8" standalone="no"?>
<!DOCTYPE svg PUBLIC "-//W3C//DTD SVG 1.1//EN" "http://www.w3.org/Graphics/SVG/1.1/DTD/svg11.dtd">
<svg width="100%" height="100%" viewBox="0 0 565 271" version="1.1" xmlns="http://www.w3.org/2000/svg" xmlns:xlink="http://www.w3.org/1999/xlink" xml:space="preserve" xmlns:serif="http://www.serif.com/" style="fill-rule:evenodd;clip-rule:evenodd;stroke-linejoin:round;stroke-miterlimit:2;">
    <g>
        <g>
            <path d="M133.997,89.572L65.877,89.572L65.877,127.052L133.997,127.052L133.997,89.572ZM266.077,82.548L235.397,47.671C214.337,72.136 185.217,104.928 157.657,124.968C163.897,132.517 172.737,145.529 176.377,154.381C205.757,133.297 237.737,107.532 266.077,82.548ZM183.397,200.446L183.397,16.959L143.357,16.959L143.357,199.926C143.357,242.086 153.237,255.098 186.517,255.098L217.717,255.098C250.477,255.098 259.577,233.238 262.957,178.585C252.557,175.981 235.657,168.173 226.297,161.145C224.477,206.17 222.917,217.622 213.557,217.622L192.757,217.622C184.177,217.622 183.397,215.542 183.397,200.446ZM40.137,261.607C40.137,247.294 77.837,224.91 77.837,224.91L77.837,17.743L37.277,17.743L37.277,203.31C37.277,216.582 29.217,225.69 22.457,230.114C28.437,236.882 37.277,252.498 40.137,261.607ZM33.897,223.61L40.137,261.607C48.457,255.098 62.237,248.074 131.137,221.786C129.577,212.678 128.537,194.982 129.317,183.009L48.977,210.858L33.897,223.61Z" style="fill:rgb(27,27,30);fill-rule:nonzero;"/>
            <path d="M345.04,127.061L413.16,127.061L413.16,89.621L345.04,89.621L345.04,127.061ZM436.82,124.981L455.54,154.361C484.92,133.301 516.9,107.561 545.24,82.601L514.56,47.761C493.5,72.201 464.38,104.961 436.82,124.981ZM422.52,199.861C422.52,241.981 432.4,254.981 465.68,254.981L496.88,254.981C529.64,254.981 538.74,233.141 542.12,173.341L505.46,161.121C503.64,206.101 502.08,217.541 492.72,217.541L471.92,217.541C463.34,217.541 462.56,215.461 462.56,200.381L462.56,17.081L422.52,17.081L422.52,199.861ZM304.74,224.041L322.42,257.581L357,223.781L357,17.861L316.44,17.861L316.44,208.701C316.44,211.821 313.84,219.361 304.74,224.041ZM316.18,225.341L322.42,257.581L410.3,223.521L408.48,184.781L331.26,212.601L316.18,225.341Z" style="fill:rgb(27,27,30);fill-rule:nonzero;"/>
        </g>
    </g>
</svg>
