<?xml version="1.0" encoding="UTF-8" standalone="no"?>
<!DOCTYPE svg PUBLIC "-//W3C//DTD SVG 1.1//EN" "http://www.w3.org/Graphics/SVG/1.1/DTD/svg11.dtd">
<svg width="100%" height="100%" viewBox="0 0 565 271" version="1.1" xmlns="http://www.w3.org/2000/svg" xmlns:xlink="http://www.w3.org/1999/xlink" xml:space="preserve" xmlns:serif="http://www.serif.com/" style="fill-rule:evenodd;clip-rule:evenodd;stroke-linejoin:round;stroke-miterlimit:2;">
    <g>
        <g>
            <path d="M105.137,191.077L66.397,177.801C55.477,196.542 36.237,217.102 18.557,229.594C28.177,235.062 44.817,246.25 52.877,253.278C69.777,238.182 91.357,213.198 105.137,191.077ZM209.917,177.021L177.417,195.502C195.617,212.938 218.757,237.402 228.377,253.018L263.477,231.938C252.037,215.802 227.597,192.897 209.917,177.021ZM49.237,177.801C49.237,171.037 75.237,161.405 75.237,161.405L75.237,160.105C123.597,138.245 177.157,107.792 221.357,67.192L186.257,41.687C148.037,80.724 92.917,114.82 73.937,124.188C56.777,133.297 48.457,137.721 36.237,139.805C40.917,150.477 47.417,170.253 49.237,177.801ZM48.457,148.913L49.237,177.801C65.357,171.817 86.417,170.777 236.697,160.885C234.617,153.077 231.237,139.025 229.937,128.872L72.117,136.161L48.457,148.913ZM55.737,114.04C55.737,107.272 78.617,96.34 78.617,96.34L78.617,95.3C103.057,79.944 130.617,56.259 151.417,32.315L112.677,13.839C96.817,37.263 72.377,59.123 63.797,65.107C55.997,71.356 50.277,75.26 43.257,76.82C47.677,87.232 53.657,106.232 55.737,114.04ZM55.217,87.752L55.737,114.04C65.097,110.396 78.877,108.832 161.037,104.148C161.557,96.6 163.637,82.548 166.237,73.176L73.417,76.82L55.217,87.752ZM167.277,219.706L167.277,150.737L126.717,150.737L126.717,218.662C126.717,221.786 125.417,222.566 120.997,222.566C116.317,222.566 99.417,222.566 87.457,221.786C93.177,232.198 100.197,249.374 102.017,260.827C120.997,260.827 137.117,260.307 150.377,254.318C163.637,248.594 167.277,238.182 167.277,219.706ZM211.737,97.904L179.757,114.3C197.437,134.341 219.277,161.925 228.377,179.625L262.957,160.625C252.297,142.409 229.157,116.38 211.737,97.904Z" style="fill:rgb(27,27,30);fill-rule:nonzero;"/>
            <path d="M297.72,229.501L332.04,253.161C348.94,238.081 370.52,213.121 384.3,191.021L345.56,177.761C334.64,196.481 315.4,217.021 297.72,229.501ZM456.58,195.441C474.78,212.861 497.92,237.301 507.54,252.901L542.64,231.841C531.2,215.721 506.76,192.841 489.08,176.981L456.58,195.441ZM315.4,139.801L328.4,173.601C328.4,171.001 354.4,161.381 354.4,161.381L354.4,160.081C402.76,138.241 456.32,107.821 500.52,67.261L465.42,41.781C427.2,80.781 372.08,114.841 353.1,124.201C335.94,133.301 327.62,137.721 315.4,139.801ZM328.4,173.601C344.52,172.171 365.58,170.741 515.86,160.861L509.1,128.881L351.28,136.161L327.62,148.901L328.4,173.601ZM322.42,76.881L334.9,110.681C334.9,107.301 357.78,96.381 357.78,96.381L357.78,95.341C382.22,80.001 409.78,56.341 430.58,32.421L391.84,13.961C375.98,37.361 351.54,59.201 342.96,65.181C335.16,71.421 329.44,75.321 322.42,76.881ZM334.9,110.681C344.26,109.771 358.04,108.861 440.2,104.181L445.4,73.241L352.58,76.881L334.38,87.801L334.9,110.681ZM366.62,221.701L376.76,260.701C400.16,260.701 416.28,260.181 429.54,254.201C442.8,248.481 446.44,238.081 446.44,219.621L446.44,150.721L405.88,150.721L405.88,218.581C405.88,221.701 404.58,222.481 400.16,222.481C395.48,222.481 378.58,222.481 366.62,221.701ZM458.92,114.321C476.6,134.341 498.44,161.901 507.54,179.581L542.12,160.601C531.46,142.401 508.32,116.401 490.9,97.941L458.92,114.321Z" style="fill:rgb(27,27,30);fill-rule:nonzero;"/>
        </g>
    </g>
</svg>
