<?xml version="1.0" encoding="UTF-8" standalone="no"?>
<!DOCTYPE svg PUBLIC "-//W3C//DTD SVG 1.1//EN" "http://www.w3.org/Graphics/SVG/1.1/DTD/svg11.dtd">
<svg width="100%" height="100%" viewBox="0 0 565 271" version="1.1" xmlns="http://www.w3.org/2000/svg" xmlns:xlink="http://www.w3.org/1999/xlink" xml:space="preserve" xmlns:serif="http://www.serif.com/" style="fill-rule:evenodd;clip-rule:evenodd;stroke-linejoin:round;stroke-miterlimit:2;">
    <g>
        <g>
            <path d="M101.424,183.818L84.252,177.801C69.972,199.373 47.551,221.526 26.511,235.968C31.004,238.601 38.451,243.772 41.912,246.908C62.172,231.105 85.519,206.828 101.424,183.818ZM195.593,177.375L181.305,185.942C203.571,204.264 230.424,230.321 242.872,246.648L257.993,236.894C244.785,220.047 217.693,195.022 195.593,177.375ZM46.584,167.535C46.584,163.777 60.559,159.28 60.559,159.28L60.559,158.687C109.451,135.056 160.887,101.95 208.8,60.643L193.151,48.764C150.332,87.805 94.331,123.668 76.764,133.215C60.486,142.323 48.985,148.165 40.478,149.364C42.684,154.369 45.824,163.53 46.584,167.535ZM46.332,154.222L46.584,167.535C56.338,164.029 71.386,162.989 235.458,151.505C234.085,147.946 231.944,141.324 230.997,136.66L59.56,147.312L46.332,154.222ZM54.851,108.373C54.851,104.441 67.12,99.172 67.12,99.172L67.12,98.664C91.739,81.183 117.532,55.374 139.92,28.244L122.752,19.502C104.064,45.404 76.797,71.514 68.392,78.384C60.592,85.16 54.343,89.95 49.091,90.803C51.211,95.727 54.01,104.461 54.851,108.373ZM54.685,95.718L54.851,108.373C60.852,105.968 70.386,104.94 153.432,99.724C154.131,96.072 155.678,89.271 157.393,84.859L65.105,90.096L54.685,95.718ZM155.78,233.51L155.78,150.912L137.499,150.912L137.499,233.356C137.499,236.476 136.552,237.435 132.311,237.613C127.984,237.788 114.265,237.788 98.239,237.187C101.131,242.464 104.438,250.081 105.373,255.338C124.178,255.338 137.292,255.172 145.425,252.194C153.733,249.301 155.78,244.024 155.78,233.51ZM203.778,103.214L189.304,110.937C208.751,129.912 231.651,156.615 241.99,173.43L257.473,164.342C246.459,147.54 223.144,121.69 203.778,103.214Z" style="fill:rgb(27,27,30);fill-rule:nonzero;"/>
            <path d="M305.674,235.867L321.075,246.799C341.335,231.012 364.682,206.759 380.587,183.773L363.415,177.761C349.135,199.312 326.714,221.445 305.674,235.867ZM460.468,185.894C482.734,204.199 509.587,230.232 522.035,246.539L537.156,236.793C523.948,219.966 496.856,194.965 474.756,177.338L460.468,185.894ZM319.641,149.352L325.747,165.114C325.747,163.753 339.722,159.26 339.722,159.26L339.722,158.667C388.614,135.06 440.054,101.987 487.963,60.72L472.314,48.853C429.495,87.853 373.494,123.685 355.927,133.219C339.649,142.319 328.148,148.153 319.641,149.352ZM325.747,165.114C335.501,164.042 350.549,162.965 514.621,151.492L510.16,136.66L338.723,147.3L325.495,154.206L325.747,165.114ZM328.254,90.852L334.014,106.439C334.014,104.473 346.287,99.212 346.287,99.212L346.287,98.7C370.902,81.24 396.695,55.459 419.087,28.358L401.915,19.62C383.227,45.494 355.96,71.579 347.555,78.445C339.755,85.213 333.502,89.998 328.254,90.852ZM334.014,106.439C340.015,105.708 349.549,104.973 432.595,99.761L436.556,84.912L344.268,90.145L333.848,95.759L334.014,106.439ZM377.402,237.085L382.415,255.22C403.341,255.22 416.455,255.054 424.588,252.08C432.896,249.192 434.947,243.918 434.947,233.413L434.947,150.899L416.662,150.899L416.662,233.258C416.662,236.378 415.715,237.333 411.474,237.512C407.147,237.687 393.428,237.687 377.402,237.085ZM468.467,110.965C487.914,129.921 510.814,156.599 521.153,173.393L536.636,164.314C525.622,147.532 502.307,121.706 482.942,103.246L468.467,110.965Z" style="fill:rgb(27,27,30);fill-rule:nonzero;"/>
        </g>
    </g>
</svg>
