<?xml version="1.0" encoding="utf-8"?>
<!-- Generator: Adobe Illustrator 16.0.0, SVG Export Plug-In . SVG Version: 6.00 Build 0)  -->
<!DOCTYPE svg PUBLIC "-//W3C//DTD SVG 1.1//EN" "http://www.w3.org/Graphics/SVG/1.1/DTD/svg11.dtd">
<svg version="1.1" id="Layer_1" xmlns="http://www.w3.org/2000/svg" xmlns:xlink="http://www.w3.org/1999/xlink" x="0px" y="0px"
	 width="1049.224px" height="379.402px" viewBox="0 0 1049.224 379.402" enable-background="new 0 0 1049.224 379.402"
	 xml:space="preserve">
<rect y="56.918" opacity="0.5" fill="#FFFFFF" width="322.484" height="322.484"/>
<rect y="56.918" fill="#6FCACA" width="322.484" height="322.484"/>
<g>
	<g>
		<path fill="#444445" d="M103.132,107.129c-4.717,16.384-10.426,32.769-16.632,48.16v172.034H75.081V180.858
			c-6.951,14.646-14.895,27.556-22.838,38.727c-1.241-2.731-4.965-8.44-7.199-11.171c19.611-25.818,36.492-65.041,47.167-104.015
			L103.132,107.129z M149.802,170.68c-5.461,18.371-17.129,37.982-41.705,55.111c-1.738-2.234-4.965-5.71-7.447-7.447
			c22.838-14.896,33.761-31.527,38.726-47.664H110.58c2.482-12.909,5.958-32.52,7.944-48.408h-9.682v-9.93h75.715v9.93h-30.534
			v14.15c0,7.199-0.497,15.64-1.986,24.328h30.782v9.93h-22.094v31.279l22.094-11.915c0.745,2.73,2.234,6.454,3.228,8.439
			c-30.038,17.129-34.754,20.604-37.733,23.832c-0.993-2.482-3.476-6.703-5.461-8.688c2.979-1.738,8.44-6.703,8.44-16.881V170.68
			H149.802z M141.858,160.75c1.738-8.688,1.986-17.129,1.986-24.328v-14.15h-15.888c-1.49,12.661-3.972,26.811-5.958,38.478H141.858
			z M123.985,232.99h125.116v93.588h-11.667v-8.688H135.404v9.682h-11.419V232.99z M135.404,243.416v26.314h102.029v-26.314H135.404
			z M237.433,307.463v-28.052H135.404v28.052H237.433z M256.3,211.888c4.716,0,5.461-1.489,5.958-20.355
			c2.234,1.489,5.71,2.979,8.937,3.724c-0.993,21.349-3.724,26.065-13.157,26.065h-16.632c-10.923,0-13.902-2.234-13.902-13.653
			v-22.591c-6.703,13.902-18.122,28.052-37.236,40.465c-1.738-2.234-5.213-5.71-7.696-7.448
			c23.583-13.653,34.754-30.782,39.471-46.918h-29.293c2.234-12.909,4.468-32.52,5.958-48.904h-7.447v-9.93h76.708v9.93h-31.031
			v16.632c0,6.455-0.249,14.398-1.738,22.342h33.017v9.93h-35.499c-0.497,2.73-1.241,4.965-2.482,7.695h6.951v28.797
			c0,3.724,0.497,4.22,4.965,4.22H256.3z M224.772,161.247c1.489-8.192,1.738-16.136,1.738-22.342v-16.632h-18.37
			c-1.241,12.661-2.979,27.307-4.717,38.975H224.772z"/>
	</g>
</g>
<rect x="344.399" y="56.918" opacity="0.5" fill="#FFFFFF" width="322.484" height="322.484"/>
<g>
	<g>
		<path fill="#444445" d="M447.532,107.129c-4.717,16.384-10.426,32.769-16.632,48.16v172.034H419.48V180.858
			c-6.951,14.646-14.895,27.556-22.838,38.727c-1.241-2.731-4.965-8.44-7.199-11.171c19.611-25.818,36.492-65.041,47.167-104.015
			L447.532,107.129z M489.485,186.319c-7.696,14.398-20.108,28.797-40.96,41.954c-1.738-2.482-4.717-5.462-6.951-7.447
			c26.066-15.64,38.478-33.266,43.691-50.146h-31.527c2.482-12.909,5.709-32.272,7.944-48.16H452v-10.178h75.963v10.178h-27.556
			v14.15c0,6.951-0.496,15.143-1.986,23.583h27.555v10.426h-30.038c-0.497,1.738-0.993,3.475-1.738,5.213h5.213v28.548
			c0,5.71,0.497,6.951,3.476,6.951h15.639c2.482,0,6.455,0,9.185-0.496l0.993,9.433c-2.234,0.745-6.455,0.745-10.178,0.745h-15.639
			c-11.171,0-13.405-3.972-13.405-16.881V186.319z M487.996,160.253c1.738-8.44,1.986-16.632,1.986-23.583v-14.15h-18.618
			c-1.49,12.413-3.972,26.314-5.958,37.733H487.996z M468.632,232.99h124.62v93.588h-10.923v-8.688H479.555v9.682h-10.923V232.99z
			 M479.555,243.167v26.313h89.865v9.682h-89.865v28.549h102.774v-64.544H479.555z M605.416,211.64
			c2.979,0,7.695-0.248,10.674-0.744c0.248,2.73,0.745,7.198,0.993,9.433c-2.482,0.745-7.198,0.745-11.419,0.745h-22.59
			c-11.42,0-14.15-3.972-14.15-16.881v-16.384c-6.207,12.908-16.384,26.065-32.521,37.236c-1.737-2.234-4.716-5.71-7.199-7.199
			c20.853-13.653,30.534-30.782,35.002-46.67h-30.038c1.986-12.909,4.22-32.52,5.958-48.904h-7.447v-9.93h76.708v9.93h-30.782
			v16.632c0,6.455-0.248,14.15-1.49,22.094h33.018v10.178h-35.252c-0.496,1.737-0.992,3.228-1.24,4.965h5.213v28.052
			c0,5.958,0.496,7.447,4.221,7.447H605.416z M566.441,160.998c1.489-8.192,1.737-15.888,1.737-22.094v-16.632h-18.618
			c-0.993,12.661-2.979,27.059-4.717,38.726H566.441z"/>
	</g>
</g>
<rect x="726.739" y="56.918" fill="#6FCACA" width="322.484" height="322.484"/>
<g>
	<g>
		<path fill="#FFFFFF" d="M829.871,107.129c-4.717,16.384-10.426,32.769-16.633,48.16v172.034h-11.419V180.858
			c-6.95,14.646-14.895,27.556-22.839,38.727c-1.24-2.731-4.965-8.44-7.199-11.171c19.611-25.818,36.492-65.041,47.167-104.015
			L829.871,107.129z M876.541,170.68c-5.461,18.371-17.129,37.982-41.705,55.111c-1.738-2.234-4.965-5.71-7.447-7.447
			c22.838-14.896,33.762-31.527,38.727-47.664h-28.797c2.482-12.909,5.958-32.52,7.943-48.408h-9.682v-9.93h75.715v9.93h-30.533
			v14.15c0,7.199-0.497,15.64-1.986,24.328h30.782v9.93h-22.094v31.279l22.094-11.915c0.745,2.73,2.234,6.454,3.228,8.439
			c-30.038,17.129-34.754,20.604-37.733,23.832c-0.993-2.482-3.476-6.703-5.462-8.937c2.979-1.49,8.441-6.455,8.441-16.633V170.68
			H876.541z M868.598,160.75c1.737-8.688,1.986-17.129,1.986-24.328v-14.15h-15.889c-1.489,12.661-3.972,26.811-5.957,38.478
			H868.598z M850.724,232.99H975.84v93.588h-11.668v-8.688H862.143v9.682h-11.419V232.99z M862.143,243.416v26.314h102.029v-26.314
			H862.143z M964.172,307.463v-28.052H862.143v28.052H964.172z M983.039,211.888c4.716,0,5.461-1.489,5.957-20.355
			c2.234,1.489,5.71,2.979,8.938,3.724c-0.994,21.349-3.725,26.065-13.158,26.065h-16.632c-10.923,0-13.901-2.234-13.901-13.653
			v-22.591c-6.703,13.902-18.122,28.052-37.236,40.465c-1.738-2.234-5.214-5.71-7.696-7.448
			c23.583-13.653,34.755-30.782,39.472-46.918h-29.293c2.233-12.909,4.468-32.52,5.957-48.904h-7.447v-9.93h76.708v9.93h-31.03
			v16.632c0,6.455-0.249,14.398-1.738,22.342h33.017v9.93h-35.499c-0.496,2.73-1.241,4.965-2.482,7.695h6.951v28.797
			c0,3.724,0.496,4.22,4.965,4.22H983.039z M951.512,161.247c1.488-8.192,1.737-16.136,1.737-22.342v-16.632h-18.37
			c-1.241,12.661-2.979,27.307-4.717,38.975H951.512z"/>
	</g>
</g>
<g>
	<g>
		<path fill="#444445" d="M836.878,3.56h16.575c-0.021,0.726-0.043,1.206-0.063,1.44c-0.085,2.283-0.187,4.155-0.304,5.616
			c-0.117,1.461-0.262,2.592-0.432,3.392c-0.172,0.8-0.396,1.371-0.672,1.712c-0.32,0.405-0.668,0.699-1.041,0.88
			c-0.373,0.182-0.805,0.315-1.295,0.4c-0.406,0.064-0.939,0.102-1.601,0.112s-1.366,0.005-2.112-0.016
			c-0.021-0.555-0.133-1.163-0.336-1.824c-0.203-0.661-0.453-1.226-0.752-1.696c0.619,0.064,1.195,0.107,1.729,0.128
			c0.533,0.021,0.928,0.032,1.184,0.032c0.447,0,0.8-0.128,1.057-0.384c0.191-0.256,0.356-0.858,0.495-1.808
			c0.139-0.949,0.251-2.458,0.337-4.528h-4.865c-0.191,1.558-0.533,3.014-1.023,4.368c-0.491,1.355-1.227,2.576-2.208,3.664
			c-0.981,1.088-2.336,2.016-4.063,2.784c-0.15-0.362-0.385-0.784-0.705-1.264c-0.319-0.48-0.661-0.891-1.023-1.232v10.688h-6.624
			v2.432h-3.584V4.488h10.208V14.76c1.258-0.576,2.245-1.259,2.96-2.048c0.714-0.789,1.243-1.664,1.584-2.624
			c0.341-0.96,0.587-1.984,0.735-3.072h-4.159V3.56z M832.302,7.88h-3.168v5.568h3.168V7.88z M829.134,22.632h3.168v-5.856h-3.168
			V22.632z M837.742,31.944V18.472h15.199v13.344h-3.808V30.6h-7.776v1.344H837.742z M849.134,21.864h-7.776v5.344h7.776V21.864z"/>
		<path fill="#444445" d="M864.078,13.832l-2.272,3.04c-0.341-0.362-0.806-0.736-1.392-1.12c-0.588-0.384-1.206-0.768-1.856-1.152
			c-0.651-0.384-1.286-0.714-1.903-0.992l2.079-2.784c0.618,0.235,1.269,0.523,1.952,0.864c0.683,0.342,1.322,0.694,1.92,1.056
			C863.203,13.107,863.693,13.47,864.078,13.832z M861.518,19.176l3.104,2.08c-0.598,1.707-1.253,3.451-1.967,5.232
			c-0.716,1.781-1.425,3.461-2.129,5.04l-3.488-2.048c0.449-0.832,0.934-1.813,1.457-2.944c0.521-1.13,1.045-2.331,1.567-3.6
			C860.584,21.667,861.07,20.414,861.518,19.176z M865.646,5.384l-2.272,3.04c-0.362-0.363-0.832-0.752-1.407-1.168
			c-0.576-0.416-1.2-0.821-1.872-1.216c-0.672-0.395-1.318-0.73-1.936-1.008l2.144-2.784c0.618,0.256,1.264,0.56,1.937,0.912
			c0.672,0.352,1.312,0.72,1.92,1.104C864.766,4.648,865.262,5.021,865.646,5.384z M885.357,21.32h-5.6v7.008
			c0,0.811-0.086,1.456-0.256,1.936c-0.172,0.48-0.533,0.848-1.088,1.104c-0.556,0.256-1.206,0.416-1.953,0.48
			c-0.746,0.064-1.621,0.085-2.623,0.064c-0.086-0.491-0.219-1.04-0.4-1.648s-0.367-1.146-0.561-1.616
			c0.555,0.021,1.109,0.032,1.664,0.032s0.929,0,1.121,0c0.319,0,0.479-0.149,0.479-0.448V21.32h-5.056V9.8h4.703
			c0.064-0.427,0.134-0.875,0.209-1.344c0.074-0.469,0.133-0.906,0.176-1.312h-6.208v5.408c0,1.408-0.054,2.955-0.16,4.64
			s-0.31,3.413-0.608,5.184c-0.299,1.771-0.736,3.478-1.312,5.12c-0.576,1.643-1.345,3.125-2.304,4.448
			c-0.214-0.214-0.518-0.448-0.912-0.704c-0.396-0.256-0.795-0.507-1.2-0.752c-0.405-0.246-0.769-0.432-1.088-0.56
			c0.896-1.237,1.604-2.592,2.128-4.064c0.522-1.472,0.912-2.987,1.168-4.544s0.421-3.083,0.496-4.576
			c0.074-1.493,0.111-2.891,0.111-4.192V3.72h19.969v3.424h-5.856c-0.149,0.47-0.294,0.923-0.432,1.36
			c-0.14,0.438-0.272,0.869-0.4,1.296h5.792V21.32z M871.629,22.6l3.361,0.8c-0.428,1.301-0.982,2.571-1.664,3.808
			c-0.684,1.238-1.398,2.283-2.145,3.136c-0.342-0.299-0.811-0.64-1.408-1.024c-0.598-0.384-1.109-0.693-1.535-0.928
			c0.746-0.704,1.412-1.584,2-2.64C870.824,24.696,871.288,23.646,871.629,22.6z M874.445,12.52v1.76h7.393v-1.76H874.445z
			 M874.445,16.84v1.76h7.393v-1.76H874.445z M880.654,23.528l3.264-1.312c0.426,0.64,0.842,1.333,1.248,2.08
			c0.404,0.747,0.778,1.483,1.119,2.208c0.342,0.725,0.598,1.376,0.769,1.952l-3.456,1.504c-0.149-0.576-0.379-1.237-0.688-1.984
			c-0.311-0.747-0.662-1.509-1.057-2.288C881.459,24.91,881.059,24.189,880.654,23.528z"/>
		<path fill="#444445" d="M893.102,32.104l-3.647-1.6c0.683-0.598,1.322-1.387,1.92-2.368c0.597-0.981,1.077-1.962,1.44-2.944
			l3.744,0.928c-0.342,1.067-0.822,2.139-1.44,3.216C894.499,30.413,893.827,31.336,893.102,32.104z M918.286,21.512v3.328H889.71
			v-3.328h12.353V19.88h-9.856v-2.976h9.856v-1.536h-9.377V3.112h22.625v12.256h-9.44v1.536h9.888v2.976h-9.888v1.632H918.286z
			 M896.302,12.296h5.761V6.184h-5.761V12.296z M897.038,7.496l2.336-0.832c0.427,0.662,0.805,1.392,1.136,2.192
			c0.33,0.8,0.549,1.51,0.656,2.128l-2.496,0.96c-0.086-0.597-0.283-1.312-0.592-2.144C897.769,8.968,897.422,8.2,897.038,7.496z
			 M898.445,26.408l3.553-0.352c0.17,0.854,0.314,1.771,0.432,2.752s0.176,1.813,0.176,2.496l-3.744,0.48
			c0-0.704-0.031-1.563-0.096-2.576C898.702,28.195,898.595,27.262,898.445,26.408z M904.846,26.504l3.616-0.704
			c0.362,0.79,0.704,1.669,1.024,2.64c0.32,0.971,0.543,1.797,0.672,2.48l-3.84,0.864c-0.086-0.683-0.272-1.52-0.561-2.512
			C905.47,28.28,905.166,27.357,904.846,26.504z M911.47,12.296V6.184h-5.6v6.112H911.47z M908.846,12.072l-2.336-0.896
			c0.32-0.619,0.645-1.371,0.977-2.256c0.33-0.885,0.592-1.669,0.783-2.352l2.816,0.992c-0.405,0.832-0.795,1.648-1.168,2.448
			C909.545,10.808,909.188,11.496,908.846,12.072z M911.118,26.344l3.584-1.184c0.469,0.555,0.96,1.163,1.472,1.824
			s0.992,1.317,1.439,1.968c0.449,0.65,0.801,1.243,1.057,1.776l-3.809,1.344c-0.213-0.512-0.527-1.104-0.943-1.776
			c-0.416-0.672-0.869-1.354-1.359-2.048C912.066,27.555,911.587,26.92,911.118,26.344z"/>
		<path fill="#444445" d="M935.693,17.128h-2.016v11.616c0,0.683-0.069,1.237-0.208,1.664c-0.14,0.426-0.421,0.757-0.849,0.992
			c-0.404,0.256-0.891,0.41-1.455,0.464c-0.566,0.053-1.222,0.08-1.969,0.08c-0.063-0.427-0.182-0.912-0.352-1.456
			c-0.171-0.544-0.342-1.019-0.512-1.424c0.362,0.021,0.709,0.032,1.039,0.032c0.331,0,0.571,0,0.721,0
			c0.234-0.021,0.352-0.149,0.352-0.384v-2.208h-3.424v5.44h-3.199V17.128h-1.889v-4.992h1.824V3.048h10.048v9.088h1.92v3.616
			h15.231v2.528h-15.264V17.128z M932.878,16.008v-1.28h-8.224v1.28H932.878z M926.478,5.736v6.4h1.12V7.048h3.359V5.736H926.478z
			 M930.445,19.976v-1.408h-3.424v1.408H930.445z M927.021,23.944h3.424v-1.472h-3.424V23.944z M929.613,12.136h1.344V9.192h-1.344
			V12.136z M947.15,28.872h4.159v2.688h-16.288v-2.688h4.096c-0.148-0.426-0.324-0.875-0.527-1.344s-0.422-0.896-0.656-1.28
			l1.952-0.704h-3.071v-6.24h13.088v6.24h-3.009l1.921,0.448c-0.278,0.512-0.561,1.014-0.849,1.504
			C947.678,27.987,947.406,28.446,947.15,28.872z M950.35,4.744v9.92h-13.984v-9.92h3.553V2.088h2.656v2.656h1.375V2.088h2.688
			v2.656H950.35z M939.15,7.144V8.52h1.375V7.144H939.15z M939.15,10.824v1.408h1.375v-1.408H939.15z M939.886,21.544v1.76h6.815
			v-1.76H939.886z M945.582,25.544h-4.896c0.32,0.512,0.613,1.072,0.881,1.68c0.266,0.608,0.452,1.158,0.56,1.648h2.176
			c0.234-0.49,0.47-1.04,0.704-1.648S945.432,26.056,945.582,25.544z M942.574,8.52h1.375V7.144h-1.375V8.52z M943.949,10.824
			h-1.375v1.408h1.375V10.824z M947.406,8.52V7.144h-1.408V8.52H947.406z M947.406,12.232v-1.408h-1.408v1.408H947.406z"/>
	</g>
</g>
<g>
	<g>
		<path fill="#444445" d="M408.746,29.96l-2.144-1.12c0.533-0.661,1.019-1.424,1.456-2.288c0.437-0.864,0.826-1.76,1.168-2.688
			c0.341-0.928,0.629-1.808,0.864-2.64l2.112,0.736c-0.256,0.875-0.555,1.798-0.896,2.768c-0.342,0.971-0.72,1.915-1.136,2.832
			C409.753,28.478,409.278,29.277,408.746,29.96z M431.945,3.784V18.12h-22.272V3.784H431.945z M411.914,5.896v4.032h7.776V5.896
			H411.914z M411.914,11.944v4.064h7.776v-4.064H411.914z M418.697,28.744h6.08c0.533,0,0.928-0.09,1.184-0.272
			c0.256-0.181,0.442-0.565,0.56-1.152c0.117-0.586,0.197-1.477,0.24-2.672c0.277,0.192,0.629,0.368,1.056,0.528
			c0.427,0.16,0.811,0.283,1.152,0.368c-0.107,1.43-0.288,2.539-0.544,3.328c-0.256,0.789-0.651,1.333-1.184,1.632
			c-0.534,0.298-1.291,0.448-2.272,0.448h-6.432c-1.131,0-2.011-0.096-2.64-0.288c-0.629-0.192-1.067-0.523-1.312-0.992
			c-0.246-0.47-0.368-1.12-0.368-1.952v-6.336h2.368v6.304c0,0.448,0.128,0.736,0.384,0.864
			C417.226,28.68,417.801,28.744,418.697,28.744z M425.417,23.272l-1.632,1.6c-0.448-0.49-1.045-1.013-1.792-1.568
			c-0.747-0.555-1.542-1.104-2.384-1.648s-1.659-1.029-2.448-1.456l1.568-1.44c0.789,0.384,1.61,0.837,2.464,1.36
			c0.853,0.523,1.653,1.056,2.4,1.6S424.948,22.782,425.417,23.272z M429.609,9.928V5.896h-7.584v4.032H429.609z M429.609,16.008
			v-4.064h-7.584v4.064H429.609z M428.618,21.736l2.112-0.864c0.619,0.79,1.227,1.654,1.824,2.592
			c0.597,0.939,1.136,1.861,1.616,2.768c0.48,0.907,0.837,1.723,1.072,2.448l-2.304,1.024c-0.213-0.725-0.544-1.546-0.992-2.464
			c-0.448-0.917-0.96-1.856-1.536-2.816C429.833,23.464,429.236,22.568,428.618,21.736z"/>
		<path fill="#444445" d="M445.321,14.408l-1.376,1.92c-0.363-0.362-0.843-0.747-1.44-1.152c-0.598-0.405-1.237-0.805-1.92-1.2
			c-0.683-0.395-1.355-0.741-2.016-1.04l1.344-1.728c0.64,0.278,1.301,0.598,1.984,0.96c0.682,0.363,1.328,0.736,1.936,1.12
			C444.441,13.672,444.938,14.046,445.321,14.408z M444.105,19.56l1.888,1.312c-0.661,1.686-1.408,3.446-2.24,5.28
			c-0.832,1.835-1.622,3.499-2.368,4.992l-2.144-1.344c0.469-0.832,0.992-1.813,1.568-2.944c0.576-1.13,1.152-2.325,1.728-3.584
			C443.113,22.014,443.636,20.776,444.105,19.56z M446.825,6.152l-1.408,1.856c-0.363-0.384-0.838-0.794-1.424-1.232
			c-0.587-0.437-1.216-0.864-1.888-1.28c-0.672-0.416-1.328-0.784-1.968-1.104l1.344-1.696c0.64,0.299,1.301,0.646,1.984,1.04
			c0.683,0.395,1.322,0.8,1.92,1.216C445.982,5.368,446.462,5.768,446.825,6.152z M466.345,20.552h-6.08v8.576
			c0,0.576-0.069,1.029-0.208,1.36c-0.139,0.331-0.432,0.581-0.88,0.752c-0.427,0.17-0.992,0.272-1.696,0.304
			c-0.704,0.032-1.59,0.037-2.656,0.016c-0.043-0.299-0.128-0.64-0.256-1.024s-0.267-0.715-0.416-0.992
			c0.768,0.021,1.466,0.032,2.096,0.032c0.629,0,1.029,0,1.2,0c0.363-0.021,0.544-0.182,0.544-0.48v-8.544h-5.696V9.576h5.088
			c0.277-1.173,0.501-2.325,0.672-3.456h-7.616v6.528c0,1.387-0.048,2.896-0.144,4.528c-0.096,1.632-0.293,3.291-0.592,4.976
			c-0.299,1.686-0.731,3.328-1.296,4.928c-0.565,1.6-1.317,3.061-2.256,4.384c-0.213-0.192-0.528-0.422-0.944-0.688
			c-0.416-0.267-0.763-0.454-1.04-0.56c0.896-1.28,1.61-2.667,2.144-4.16c0.533-1.493,0.928-3.019,1.184-4.576
			c0.256-1.557,0.421-3.093,0.496-4.608c0.075-1.515,0.112-2.922,0.112-4.224V3.944h19.456V6.12h-7.04l0.16,0.032
			c-0.149,0.555-0.315,1.131-0.496,1.728c-0.182,0.597-0.358,1.163-0.528,1.696h6.688V20.552z M453.417,22.344l2.144,0.512
			c-0.512,1.28-1.136,2.539-1.872,3.776c-0.736,1.237-1.499,2.283-2.288,3.136c-0.213-0.171-0.512-0.384-0.896-0.64
			c-0.384-0.256-0.704-0.458-0.96-0.608c0.789-0.811,1.52-1.76,2.192-2.848C452.409,24.584,452.969,23.475,453.417,22.344z
			 M454.409,11.4v2.784h9.728V11.4H454.409z M454.409,15.912v2.816h9.728v-2.816H454.409z M462.409,22.92l2.016-0.864
			c0.512,0.64,1.013,1.344,1.504,2.112c0.491,0.768,0.938,1.515,1.344,2.24c0.405,0.726,0.704,1.387,0.896,1.984l-2.112,0.992
			c-0.213-0.576-0.512-1.237-0.896-1.984c-0.384-0.747-0.816-1.515-1.296-2.304C463.385,24.307,462.9,23.582,462.409,22.92z"/>
		<path fill="#444445" d="M499.722,21.992v2.112h-28.256v-2.112h12.896v-2.88H474.09V17.16h10.272v-2.624h-9.728V3.592h21.792
			v10.944h-9.728v2.624h10.336v1.952h-10.336v2.88H499.722z M473.706,31.752l-2.208-1.056c0.725-0.619,1.402-1.414,2.032-2.384
			c0.629-0.97,1.136-1.946,1.52-2.928l2.272,0.544c-0.406,1.024-0.917,2.069-1.536,3.136
			C475.167,30.131,474.474,31.027,473.706,31.752z M476.906,12.52h7.456V5.608h-7.456V12.52z M478.698,6.952l1.568-0.544
			c0.469,0.726,0.901,1.531,1.296,2.416c0.395,0.885,0.656,1.637,0.784,2.256l-1.664,0.64c-0.128-0.619-0.384-1.381-0.768-2.288
			C479.53,8.526,479.124,7.699,478.698,6.952z M480.49,26.184l2.208-0.16c0.213,0.811,0.384,1.707,0.512,2.688
			c0.128,0.981,0.192,1.781,0.192,2.4l-2.336,0.32c0-0.662-0.053-1.488-0.16-2.48C480.799,27.96,480.66,27.038,480.49,26.184z
			 M494.058,12.52V5.608h-7.36v6.912H494.058z M487.05,26.248l2.208-0.448c0.362,0.79,0.72,1.664,1.072,2.624
			s0.603,1.771,0.752,2.432l-2.336,0.576c-0.149-0.683-0.384-1.509-0.704-2.48C487.722,27.981,487.391,27.08,487.05,26.248z
			 M489.674,12.072l-1.536-0.64c0.426-0.683,0.875-1.509,1.344-2.48c0.469-0.971,0.843-1.829,1.12-2.576l1.856,0.704
			c-0.448,0.854-0.917,1.739-1.408,2.656C490.559,10.654,490.1,11.432,489.674,12.072z M493.514,26.12l2.144-0.736
			c0.533,0.512,1.066,1.093,1.6,1.744c0.533,0.651,1.034,1.296,1.504,1.936c0.469,0.64,0.842,1.205,1.12,1.696l-2.304,0.896
			c-0.256-0.491-0.608-1.062-1.056-1.712c-0.448-0.651-0.933-1.312-1.456-1.984C494.542,27.288,494.026,26.675,493.514,26.12z"/>
		<path fill="#444445" d="M516.618,16.936h-1.888v-2.88h-8.928V16.2h8.896v13.184c0,0.49-0.059,0.88-0.176,1.168
			c-0.118,0.288-0.347,0.517-0.688,0.688c-0.341,0.149-0.784,0.245-1.328,0.288c-0.544,0.042-1.243,0.064-2.096,0.064
			c-0.021-0.278-0.096-0.592-0.224-0.944c-0.128-0.352-0.267-0.656-0.416-0.912c0.576,0.021,1.093,0.032,1.552,0.032
			c0.458,0,0.763-0.011,0.912-0.032c0.256,0,0.384-0.128,0.384-0.384v-3.36h-4.8v5.6h-2.016V16.936h-1.824V12.36h1.824V3.496h8.928
			v8.864h1.888V16.936z M507.625,5.32v7.04h1.664V7.4h3.552V5.32H507.625z M512.618,17.928h-4.8V20.2h4.8V17.928z M507.817,24.264
			h4.8v-2.4h-4.8V24.264z M512.841,12.36V8.904h-2.048v3.456H512.841z M527.529,29.224h5.056v1.792h-16.416v-1.792h4.864
			c-0.107-0.49-0.267-1.029-0.48-1.616s-0.459-1.125-0.736-1.616l1.728-0.576c0.32,0.576,0.613,1.206,0.88,1.888
			c0.267,0.683,0.443,1.27,0.528,1.76l-0.448,0.16h3.488l-0.288-0.096c0.277-0.512,0.56-1.13,0.848-1.856
			c0.288-0.725,0.507-1.354,0.656-1.888l1.984,0.576c-0.277,0.555-0.56,1.12-0.848,1.696
			C528.058,28.232,527.786,28.755,527.529,29.224z M532.361,16.168v1.76h-15.616v-1.76H532.361z M531.242,5.32v9.28h-13.536V5.32
			h3.776V2.408h1.792V5.32h2.272V2.408h1.792V5.32H531.242z M530.666,25.352h-12.352v-5.888h12.352V25.352z M519.529,6.984V9.16
			h2.24V6.984H519.529z M519.529,10.728v2.208h2.24v-2.208H519.529z M520.266,21.032v2.752h8.352v-2.752H520.266z M523.273,9.16
			h2.272V6.984h-2.272V9.16z M525.545,10.728h-2.272v2.208h2.272V10.728z M529.385,9.16V6.984h-2.368V9.16H529.385z M529.385,12.936
			v-2.208h-2.368v2.208H529.385z"/>
		<path fill="#444445" d="M571.785,11.848h-10.336c0.961,0.917,2.053,1.808,3.28,2.672c1.227,0.864,2.507,1.643,3.84,2.336
			c1.333,0.694,2.63,1.254,3.888,1.68c-0.277,0.213-0.564,0.512-0.863,0.896s-0.533,0.726-0.704,1.024
			c-1.388-0.576-2.812-1.301-4.272-2.176c-1.461-0.875-2.858-1.851-4.191-2.928c-1.334-1.077-2.512-2.203-3.536-3.376v6.208h-2.433
			v-6.208c-0.981,1.259-2.123,2.454-3.423,3.584c-1.302,1.131-2.678,2.144-4.128,3.04c-1.451,0.896-2.891,1.632-4.32,2.208
			c-0.149-0.298-0.379-0.629-0.688-0.992c-0.31-0.362-0.603-0.661-0.88-0.896c1.301-0.469,2.613-1.066,3.936-1.792
			c1.322-0.725,2.581-1.541,3.776-2.448c1.194-0.907,2.261-1.851,3.2-2.832h-10.272V9.704h12.799V6.376
			c-1.621,0.15-3.248,0.283-4.879,0.4s-3.216,0.208-4.752,0.272c-0.021-0.299-0.096-0.64-0.224-1.024
			c-0.128-0.384-0.256-0.714-0.384-0.992c1.792-0.106,3.637-0.229,5.536-0.368c1.898-0.138,3.76-0.309,5.584-0.512
			s3.525-0.432,5.104-0.688c1.578-0.256,2.944-0.533,4.096-0.832l1.793,1.856c-1.303,0.341-2.758,0.651-4.369,0.928
			c-1.61,0.278-3.301,0.512-5.071,0.704v3.584h12.896V11.848z M548.33,31.624V19.08h19.2v12.48h-2.432v-1.056h-14.432v1.12H548.33z
			 M565.098,20.968h-14.432v2.88h14.432V20.968z M550.666,28.584h14.432v-3.008h-14.432V28.584z"/>
		<path fill="#444445" d="M582.09,14.344l-1.377,1.952c-0.362-0.363-0.848-0.747-1.455-1.152c-0.608-0.405-1.265-0.8-1.969-1.184
			c-0.703-0.384-1.387-0.725-2.048-1.024l1.345-1.76c0.64,0.256,1.312,0.565,2.016,0.928c0.703,0.363,1.365,0.736,1.984,1.12
			C581.204,13.608,581.705,13.981,582.09,14.344z M604.777,14.216h-5.664c0.704,1.344,1.605,2.603,2.704,3.776
			c1.099,1.173,2.245,2.08,3.44,2.72c-0.277,0.214-0.576,0.502-0.896,0.864c-0.32,0.363-0.576,0.693-0.768,0.992
			c-0.727-0.469-1.445-1.045-2.16-1.728s-1.382-1.429-2-2.24v5.984h-9.664v3.296c0,0.533,0.139,0.885,0.416,1.056
			c0.277,0.171,0.917,0.256,1.92,0.256h6.816c0.533,0,0.933-0.085,1.199-0.256c0.267-0.17,0.459-0.517,0.576-1.04
			c0.117-0.522,0.197-1.296,0.24-2.32c0.277,0.192,0.613,0.368,1.008,0.528c0.395,0.16,0.752,0.283,1.072,0.368
			c-0.107,1.259-0.283,2.24-0.528,2.944s-0.635,1.189-1.168,1.456c-0.533,0.267-1.28,0.4-2.239,0.4h-7.104
			c-1.132,0-2.017-0.091-2.656-0.272s-1.088-0.518-1.344-1.008c-0.257-0.491-0.384-1.184-0.384-2.08V19.24
			c-0.598,0.726-1.217,1.403-1.856,2.032c-0.64,0.63-1.291,1.168-1.952,1.616c-0.107-0.17-0.251-0.362-0.432-0.576
			c-0.182-0.213-0.368-0.416-0.561-0.608c-0.683,1.579-1.43,3.206-2.24,4.88c-0.811,1.675-1.589,3.205-2.336,4.592l-2.111-1.472
			c0.512-0.811,1.072-1.781,1.68-2.912c0.608-1.13,1.221-2.325,1.84-3.584c0.619-1.258,1.185-2.496,1.696-3.712l1.504,1.152
			c1.067-0.746,2.097-1.696,3.089-2.848c0.991-1.152,1.807-2.347,2.447-3.584h-5.695v-2.144h5.631V8.36h-4.287V6.184h4.287V2.44
			h2.305v3.744h6.208V2.44h2.304v3.744h4.768V8.36h-4.768v3.712h5.664V14.216z M583.657,6.088l-1.376,1.888
			c-0.363-0.384-0.848-0.794-1.456-1.232c-0.608-0.437-1.253-0.864-1.937-1.28c-0.682-0.416-1.354-0.773-2.016-1.072l1.377-1.728
			c0.639,0.278,1.301,0.614,1.983,1.008c0.683,0.395,1.333,0.8,1.952,1.216C582.804,5.304,583.295,5.704,583.657,6.088z
			 M588.873,17.48h9.729c-0.342-0.533-0.667-1.072-0.977-1.616c-0.309-0.544-0.581-1.093-0.815-1.648h-6.08
			c-0.256,0.555-0.539,1.104-0.849,1.648C589.572,16.408,589.236,16.947,588.873,17.48z M597.289,22.696v-3.328h-7.52v3.328H597.289
			z M590.602,8.36v3.712h6.208V8.36H590.602z"/>
	</g>
</g>
<g>
	<g>
		<path fill="#444445" d="M64.347,28.96l-2.144-1.12c0.533-0.661,1.019-1.424,1.456-2.288c0.437-0.864,0.826-1.76,1.168-2.688
			c0.341-0.928,0.629-1.808,0.864-2.64l2.112,0.736c-0.256,0.875-0.555,1.798-0.896,2.768c-0.342,0.971-0.72,1.915-1.136,2.832
			C65.354,27.478,64.879,28.277,64.347,28.96z M87.546,2.784V17.12H65.274V2.784H87.546z M67.515,4.896v4.032h7.776V4.896H67.515z
			 M67.515,10.944v4.064h7.776v-4.064H67.515z M74.298,27.744h6.08c0.533,0,0.928-0.09,1.184-0.272
			c0.256-0.181,0.442-0.565,0.56-1.152c0.117-0.586,0.197-1.477,0.24-2.672c0.277,0.192,0.629,0.368,1.056,0.528
			c0.427,0.16,0.811,0.283,1.152,0.368c-0.107,1.43-0.288,2.539-0.544,3.328c-0.256,0.789-0.651,1.333-1.184,1.632
			c-0.534,0.298-1.291,0.448-2.272,0.448h-6.432c-1.131,0-2.011-0.096-2.64-0.288c-0.629-0.192-1.067-0.523-1.312-0.992
			c-0.246-0.47-0.368-1.12-0.368-1.952v-6.336h2.368v6.304c0,0.448,0.128,0.736,0.384,0.864
			C72.827,27.68,73.402,27.744,74.298,27.744z M81.019,22.272l-1.632,1.6c-0.448-0.49-1.045-1.013-1.792-1.568
			c-0.747-0.555-1.542-1.104-2.384-1.648s-1.659-1.029-2.448-1.456l1.568-1.44c0.789,0.384,1.61,0.837,2.464,1.36
			c0.853,0.523,1.653,1.056,2.4,1.6S80.549,21.782,81.019,22.272z M85.21,8.928V4.896h-7.584v4.032H85.21z M85.21,15.008v-4.064
			h-7.584v4.064H85.21z M84.219,20.736l2.112-0.864c0.619,0.79,1.227,1.654,1.824,2.592c0.597,0.939,1.136,1.861,1.616,2.768
			c0.48,0.907,0.837,1.723,1.072,2.448l-2.304,1.024c-0.213-0.725-0.544-1.546-0.992-2.464c-0.448-0.917-0.96-1.856-1.536-2.816
			C85.435,22.464,84.837,21.568,84.219,20.736z"/>
		<path fill="#444445" d="M100.922,13.408l-1.376,1.92c-0.363-0.362-0.843-0.747-1.44-1.152c-0.598-0.405-1.237-0.805-1.92-1.2
			c-0.683-0.395-1.355-0.741-2.016-1.04l1.344-1.728c0.64,0.278,1.301,0.598,1.984,0.96c0.682,0.363,1.328,0.736,1.936,1.12
			C100.042,12.672,100.539,13.046,100.922,13.408z M99.707,18.56l1.888,1.312c-0.661,1.686-1.408,3.446-2.24,5.28
			c-0.832,1.835-1.622,3.499-2.368,4.992L94.842,28.8c0.469-0.832,0.992-1.813,1.568-2.944c0.576-1.13,1.152-2.325,1.728-3.584
			C98.714,21.014,99.237,19.776,99.707,18.56z M102.426,5.152l-1.408,1.856c-0.363-0.384-0.838-0.794-1.424-1.232
			c-0.587-0.437-1.216-0.864-1.888-1.28c-0.672-0.416-1.328-0.784-1.968-1.104l1.344-1.696c0.64,0.299,1.301,0.646,1.984,1.04
			c0.683,0.395,1.322,0.8,1.92,1.216C101.583,4.368,102.063,4.768,102.426,5.152z M121.946,19.552h-6.08v8.576
			c0,0.576-0.069,1.029-0.208,1.36c-0.139,0.331-0.432,0.581-0.88,0.752c-0.427,0.17-0.992,0.272-1.696,0.304
			c-0.704,0.032-1.59,0.037-2.656,0.016c-0.043-0.299-0.128-0.64-0.256-1.024s-0.267-0.715-0.416-0.992
			c0.768,0.021,1.466,0.032,2.096,0.032c0.629,0,1.029,0,1.2,0c0.363-0.021,0.544-0.182,0.544-0.48v-8.544h-5.696V8.576h5.088
			c0.277-1.173,0.501-2.325,0.672-3.456h-7.616v6.528c0,1.387-0.048,2.896-0.144,4.528c-0.096,1.632-0.293,3.291-0.592,4.976
			c-0.299,1.686-0.731,3.328-1.296,4.928c-0.565,1.6-1.317,3.061-2.256,4.384c-0.213-0.192-0.528-0.422-0.944-0.688
			c-0.416-0.267-0.763-0.454-1.04-0.56c0.896-1.28,1.61-2.667,2.144-4.16c0.533-1.493,0.928-3.019,1.184-4.576
			c0.256-1.557,0.421-3.093,0.496-4.608c0.075-1.515,0.112-2.922,0.112-4.224V2.944h19.456V5.12h-7.04l0.16,0.032
			c-0.149,0.555-0.315,1.131-0.496,1.728c-0.182,0.597-0.358,1.163-0.528,1.696h6.688V19.552z M109.019,21.344l2.144,0.512
			c-0.512,1.28-1.136,2.539-1.872,3.776c-0.736,1.237-1.499,2.283-2.288,3.136c-0.213-0.171-0.512-0.384-0.896-0.64
			c-0.384-0.256-0.704-0.458-0.96-0.608c0.789-0.811,1.52-1.76,2.192-2.848C108.01,23.584,108.57,22.475,109.019,21.344z
			 M110.01,10.4v2.784h9.728V10.4H110.01z M110.01,14.912v2.816h9.728v-2.816H110.01z M118.01,21.92l2.016-0.864
			c0.512,0.64,1.013,1.344,1.504,2.112c0.491,0.768,0.938,1.515,1.344,2.24c0.405,0.726,0.704,1.387,0.896,1.984l-2.112,0.992
			c-0.213-0.576-0.512-1.237-0.896-1.984c-0.384-0.747-0.816-1.515-1.296-2.304C118.986,23.307,118.501,22.582,118.01,21.92z"/>
		<path fill="#444445" d="M155.323,20.992v2.112h-28.256v-2.112h12.896v-2.88h-10.272V16.16h10.272v-2.624h-9.728V2.592h21.792
			v10.944h-9.728v2.624h10.336v1.952h-10.336v2.88H155.323z M129.307,30.752l-2.208-1.056c0.725-0.619,1.402-1.414,2.032-2.384
			c0.629-0.97,1.136-1.946,1.52-2.928l2.272,0.544c-0.406,1.024-0.917,2.069-1.536,3.136
			C130.768,29.131,130.075,30.027,129.307,30.752z M132.507,11.52h7.456V4.608h-7.456V11.52z M134.299,5.952l1.568-0.544
			c0.469,0.726,0.901,1.531,1.296,2.416c0.395,0.885,0.656,1.637,0.784,2.256l-1.664,0.64c-0.128-0.619-0.384-1.381-0.768-2.288
			C135.131,7.526,134.725,6.699,134.299,5.952z M136.091,25.184l2.208-0.16c0.213,0.811,0.384,1.707,0.512,2.688
			c0.128,0.981,0.192,1.781,0.192,2.4l-2.336,0.32c0-0.662-0.053-1.488-0.16-2.48C136.4,26.96,136.261,26.038,136.091,25.184z
			 M149.659,11.52V4.608h-7.36v6.912H149.659z M142.651,25.248l2.208-0.448c0.362,0.79,0.72,1.664,1.072,2.624
			s0.603,1.771,0.752,2.432l-2.336,0.576c-0.149-0.683-0.384-1.509-0.704-2.48C143.323,26.981,142.992,26.08,142.651,25.248z
			 M145.275,11.072l-1.536-0.64c0.426-0.683,0.875-1.509,1.344-2.48c0.469-0.971,0.843-1.829,1.12-2.576l1.856,0.704
			c-0.448,0.854-0.917,1.739-1.408,2.656C146.16,9.654,145.701,10.432,145.275,11.072z M149.115,25.12l2.144-0.736
			c0.533,0.512,1.066,1.093,1.6,1.744c0.533,0.651,1.034,1.296,1.504,1.936c0.469,0.64,0.842,1.205,1.12,1.696l-2.304,0.896
			c-0.256-0.491-0.608-1.062-1.056-1.712c-0.448-0.651-0.933-1.312-1.456-1.984C150.144,26.288,149.627,25.675,149.115,25.12z"/>
		<path fill="#444445" d="M172.219,15.936h-1.888v-2.88h-8.928V15.2h8.896v13.184c0,0.49-0.059,0.88-0.176,1.168
			c-0.118,0.288-0.347,0.517-0.688,0.688c-0.341,0.149-0.784,0.245-1.328,0.288c-0.544,0.042-1.243,0.064-2.096,0.064
			c-0.021-0.278-0.096-0.592-0.224-0.944c-0.128-0.352-0.267-0.656-0.416-0.912c0.576,0.021,1.093,0.032,1.552,0.032
			c0.458,0,0.763-0.011,0.912-0.032c0.256,0,0.384-0.128,0.384-0.384v-3.36h-4.8v5.6h-2.016V15.936h-1.824V11.36h1.824V2.496h8.928
			v8.864h1.888V15.936z M163.227,4.32v7.04h1.664V6.4h3.552V4.32H163.227z M168.219,16.928h-4.8V19.2h4.8V16.928z M163.418,23.264
			h4.8v-2.4h-4.8V23.264z M168.442,11.36V7.904h-2.048v3.456H168.442z M183.13,28.224h5.056v1.792h-16.416v-1.792h4.864
			c-0.107-0.49-0.267-1.029-0.48-1.616s-0.459-1.125-0.736-1.616l1.728-0.576c0.32,0.576,0.613,1.206,0.88,1.888
			c0.267,0.683,0.443,1.27,0.528,1.76l-0.448,0.16h3.488l-0.288-0.096c0.277-0.512,0.56-1.13,0.848-1.856
			c0.288-0.725,0.507-1.354,0.656-1.888l1.984,0.576c-0.277,0.555-0.56,1.12-0.848,1.696
			C183.659,27.232,183.387,27.755,183.13,28.224z M187.962,15.168v1.76h-15.616v-1.76H187.962z M186.843,4.32v9.28h-13.536V4.32
			h3.776V1.408h1.792V4.32h2.272V1.408h1.792V4.32H186.843z M186.267,24.352h-12.352v-5.888h12.352V24.352z M175.13,5.984V8.16h2.24
			V5.984H175.13z M175.13,9.728v2.208h2.24V9.728H175.13z M175.867,20.032v2.752h8.352v-2.752H175.867z M178.875,8.16h2.272V5.984
			h-2.272V8.16z M181.146,9.728h-2.272v2.208h2.272V9.728z M184.986,8.16V5.984h-2.368V8.16H184.986z M184.986,11.936V9.728h-2.368
			v2.208H184.986z"/>
		<path fill="#444445" d="M216.443,6.24l1.888-1.216c1.045,0.896,2.112,1.899,3.2,3.008c1.088,1.109,2.096,2.208,3.024,3.296
			c0.928,1.088,1.669,2.08,2.224,2.976l-2.016,1.44c-0.235-0.426-0.518-0.869-0.848-1.328c-0.331-0.458-0.699-0.933-1.104-1.424
			c-3.648,0.213-6.693,0.384-9.136,0.512c-2.443,0.128-4.416,0.24-5.92,0.336c-1.504,0.096-2.672,0.176-3.504,0.24
			s-1.445,0.134-1.84,0.208c-0.395,0.075-0.72,0.155-0.976,0.24c-0.043-0.256-0.149-0.629-0.32-1.12
			c-0.171-0.491-0.32-0.896-0.448-1.216c0.363-0.064,0.752-0.261,1.168-0.592c0.416-0.331,0.891-0.762,1.424-1.296
			c0.298-0.256,0.725-0.683,1.28-1.28c0.555-0.597,1.184-1.306,1.888-2.128c0.704-0.821,1.424-1.717,2.16-2.688
			c0.736-0.97,1.413-1.946,2.032-2.928l2.336,1.056c-1.259,1.728-2.587,3.398-3.984,5.008c-1.397,1.611-2.8,3.078-4.208,4.4
			l16.32-0.8c-0.726-0.832-1.488-1.653-2.288-2.464C217.995,7.669,217.21,6.923,216.443,6.24z M203.131,30.592V17.216h20.352v13.312
			h-2.496v-1.664h-15.456v1.728H203.131z M220.987,19.488h-15.456v7.072h15.456V19.488z"/>
		<path fill="#444445" d="M236.922,13.44l-1.44,1.792c-0.299-0.341-0.704-0.714-1.216-1.12c-0.512-0.405-1.062-0.805-1.648-1.2
			c-0.587-0.395-1.158-0.741-1.712-1.04l1.344-1.6c0.832,0.406,1.696,0.912,2.592,1.52C235.738,12.4,236.432,12.95,236.922,13.44z
			 M233.659,30.208l-2.144-1.216c0.384-0.832,0.811-1.808,1.28-2.928c0.469-1.12,0.944-2.309,1.424-3.568
			c0.48-1.258,0.912-2.485,1.296-3.68l1.856,1.248c-0.534,1.664-1.131,3.408-1.792,5.232
			C234.917,27.12,234.277,28.757,233.659,30.208z M237.466,5.216l-1.44,1.728c-0.277-0.363-0.662-0.752-1.152-1.168
			c-0.491-0.416-1.024-0.837-1.6-1.264s-1.131-0.8-1.664-1.12l1.376-1.568c0.533,0.299,1.088,0.646,1.664,1.04
			c0.576,0.395,1.115,0.795,1.616,1.2C236.768,4.47,237.167,4.854,237.466,5.216z M238.203,12.864l1.376,0.32
			c-0.149,0.79-0.347,1.584-0.592,2.384c-0.246,0.8-0.518,1.478-0.816,2.032c-0.128-0.106-0.315-0.24-0.56-0.4
			c-0.246-0.16-0.454-0.283-0.624-0.368c0.299-0.576,0.544-1.205,0.736-1.888C237.915,14.262,238.075,13.568,238.203,12.864z
			 M245.083,11.36l-1.216,0.576c-0.043-0.149-0.096-0.314-0.16-0.496c-0.064-0.181-0.139-0.357-0.224-0.528
			c-1.451,0.192-2.544,0.347-3.28,0.464c-0.736,0.118-1.259,0.214-1.568,0.288c-0.309,0.075-0.539,0.155-0.688,0.24
			c-0.021-0.149-0.091-0.357-0.208-0.624c-0.117-0.267-0.229-0.475-0.336-0.624c0.235-0.042,0.469-0.16,0.704-0.352
			c0.234-0.192,0.491-0.448,0.768-0.768c0.17-0.17,0.442-0.469,0.816-0.896c0.373-0.426,0.763-0.928,1.168-1.504
			c-1.045,0.085-1.755,0.166-2.128,0.24c-0.374,0.075-0.646,0.144-0.816,0.208c-0.043-0.149-0.118-0.352-0.224-0.608
			c-0.107-0.256-0.213-0.458-0.32-0.608c0.192-0.042,0.362-0.133,0.512-0.272c0.149-0.139,0.299-0.325,0.448-0.56
			c0.106-0.149,0.282-0.426,0.528-0.832c0.245-0.405,0.506-0.885,0.784-1.44c0.277-0.555,0.501-1.109,0.672-1.664l1.504,0.544
			c-0.277,0.662-0.603,1.317-0.976,1.968c-0.374,0.651-0.763,1.243-1.168,1.776l2.144-0.16c0.149-0.234,0.293-0.469,0.432-0.704
			c0.139-0.234,0.272-0.48,0.4-0.736l1.44,0.64c-0.555,0.917-1.168,1.813-1.84,2.688c-0.672,0.875-1.371,1.686-2.096,2.432
			l2.816-0.352c-0.086-0.17-0.182-0.347-0.288-0.528c-0.107-0.181-0.214-0.357-0.32-0.528l1.184-0.416
			c0.341,0.512,0.656,1.062,0.944,1.648C244.778,10.459,244.976,10.955,245.083,11.36z M242.075,24.224h16.64
			c-0.043,0.491-0.085,0.811-0.128,0.96c-0.299,1.366-0.619,2.427-0.96,3.184c-0.341,0.757-0.726,1.296-1.152,1.616
			c-0.342,0.234-0.694,0.394-1.056,0.48c-0.363,0.085-0.811,0.128-1.344,0.128c-0.47,0.021-1.152,0.021-2.048,0
			c-0.896-0.021-1.845-0.064-2.848-0.128c-0.021-0.278-0.096-0.587-0.224-0.928c-0.128-0.341-0.278-0.64-0.448-0.896
			c1.024,0.085,2,0.144,2.928,0.176c0.928,0.032,1.594,0.048,2,0.048c0.362,0,0.64-0.016,0.832-0.048
			c0.192-0.032,0.362-0.101,0.512-0.208c0.512-0.342,0.971-1.259,1.376-2.752h-16.832c0.256-0.682,0.501-1.45,0.736-2.304
			c0.234-0.853,0.448-1.675,0.64-2.464h14.432v-1.664h-15.584v-1.536h17.792v4.736h-14.816c-0.064,0.278-0.133,0.55-0.208,0.816
			C242.239,23.707,242.16,23.968,242.075,24.224z M242.267,16.608l-1.312,0.448c-0.021-0.512-0.096-1.141-0.224-1.888
			c-0.128-0.746-0.288-1.429-0.48-2.048l1.248-0.32c0.213,0.619,0.389,1.285,0.528,2S242.245,16.118,242.267,16.608z
			 M242.619,12.672l1.184-0.384c0.277,0.555,0.523,1.152,0.736,1.792c0.213,0.64,0.352,1.184,0.416,1.632l-1.216,0.544
			c-0.085-0.469-0.229-1.035-0.432-1.696C243.104,13.899,242.875,13.27,242.619,12.672z M252.314,4.576v1.472h-7.68V4.576h3.392
			c-0.107-0.384-0.283-0.811-0.528-1.28c-0.246-0.469-0.485-0.885-0.72-1.248l1.632-0.416c0.256,0.363,0.512,0.79,0.768,1.28
			c0.256,0.491,0.459,0.907,0.608,1.248l-1.408,0.416H252.314z M245.499,16.736v-4.704h6.016v4.704H245.499z M251.482,7.168v1.344
			h-5.888V7.168H251.482z M245.594,10.848V9.536h5.888v1.312H245.594z M247.066,13.312v2.112h2.816v-2.112H247.066z M253.019,12.736
			l1.376,0.32c-0.149,0.768-0.342,1.547-0.576,2.336c-0.235,0.79-0.501,1.483-0.8,2.08c-0.128-0.106-0.326-0.25-0.592-0.432
			c-0.267-0.181-0.485-0.314-0.656-0.4c0.32-0.555,0.576-1.173,0.768-1.856C252.73,14.102,252.891,13.419,253.019,12.736z
			 M260.026,11.52L258.811,12c-0.043-0.17-0.107-0.357-0.192-0.56c-0.085-0.202-0.182-0.421-0.288-0.656
			c-1.451,0.213-2.55,0.384-3.296,0.512c-0.747,0.128-1.275,0.224-1.584,0.288c-0.31,0.064-0.539,0.128-0.688,0.192
			c-0.022-0.128-0.091-0.331-0.208-0.608c-0.118-0.277-0.229-0.49-0.336-0.64c0.256-0.042,0.501-0.155,0.736-0.336
			c0.234-0.181,0.49-0.421,0.768-0.72c0.17-0.17,0.437-0.469,0.8-0.896c0.362-0.427,0.747-0.928,1.152-1.504
			c-1.045,0.085-1.755,0.16-2.128,0.224c-0.374,0.064-0.646,0.139-0.816,0.224c-0.043-0.149-0.118-0.357-0.224-0.624
			c-0.107-0.266-0.213-0.474-0.32-0.624c0.192-0.021,0.357-0.106,0.496-0.256c0.138-0.149,0.282-0.331,0.432-0.544
			c0.128-0.149,0.315-0.426,0.56-0.832c0.245-0.405,0.507-0.885,0.784-1.44c0.277-0.555,0.501-1.109,0.672-1.664l1.504,0.544
			c-0.277,0.662-0.603,1.312-0.976,1.952c-0.374,0.64-0.763,1.227-1.168,1.76l2.112-0.128c0.32-0.49,0.608-0.97,0.864-1.44
			l1.472,0.64c-0.555,0.917-1.173,1.808-1.856,2.672c-0.683,0.864-1.376,1.669-2.08,2.416l2.784-0.352
			c-0.085-0.17-0.176-0.347-0.272-0.528c-0.096-0.181-0.198-0.347-0.304-0.496l1.12-0.416c0.362,0.512,0.704,1.088,1.024,1.728
			S259.898,11.072,260.026,11.52z M257.083,16.896l-1.28,0.416c-0.021-0.554-0.101-1.232-0.24-2.032
			c-0.139-0.8-0.326-1.541-0.56-2.224l1.28-0.32c0.235,0.683,0.421,1.413,0.56,2.192S257.061,16.363,257.083,16.896z
			 M257.435,12.608l1.152-0.384c0.341,0.64,0.64,1.339,0.896,2.096s0.427,1.392,0.512,1.904l-1.248,0.576
			c-0.085-0.576-0.251-1.253-0.496-2.032C258.005,13.99,257.733,13.27,257.435,12.608z"/>
	</g>
</g>
<g>
</g>
<g>
</g>
<g>
</g>
<g>
</g>
<g>
</g>
<g>
</g>
</svg>
